<?xml version="1.0" standalone="no"?>
<!DOCTYPE svg PUBLIC "-//W3C//DTD SVG 1.1//EN" "http://www.w3.org/Graphics/SVG/1.1/DTD/svg11.dtd" >
<svg>
<metadata>
Created by FontForge 20090914 at Wed Mar 20 07:25:05 2019
 By www-data
&#194;&#169; 2016 Connary Fagen
</metadata>
<defs>
<font id="CartographSansCF-MediumItalic" horiz-adv-x="1244" >
  <font-face 
    font-family="Cartograph Sans CF"
    font-weight="500"
    font-style="italic"
    font-stretch="normal"
    units-per-em="2048"
    panose-1="0 0 6 0 0 0 0 0 0 0"
    ascent="1638"
    descent="-410"
    x-height="1004"
    cap-height="1434"
    bbox="-557.458 -710.003 2054.88 1926"
    underline-thickness="0"
    underline-position="0"
    unicode-range="U+0020-U+25CA"
  />
<missing-glyph horiz-adv-x="1013" 
d="M831 1638v-2027h-643v2027h643zM675 1502h-334v-66h131v-75h-133v-68h336v68h-133v75h133v66zM542 1241h-203v-211h336v69h-133v142zM472 1172v-73h-66v73h66zM675 976h-336v-68h133v-74h-133v-67h203v141h133v68zM675 854h-67v-134h-269v-69h336v203zM675 606h-203v-113
h70v47h66v-96h-202v162h-67v-229h336v229zM675 256h-336v-229h336v229zM608 188v-95h-202v95h202zM675 -20h-336v-67h141l-141 -95v-67h336v67h-207l142 95h65v67z" />
    <glyph glyph-name=".notdef" horiz-adv-x="1013" 
d="M831 1638v-2027h-643v2027h643zM675 1502h-334v-66h131v-75h-133v-68h336v68h-133v75h133v66zM542 1241h-203v-211h336v69h-133v142zM472 1172v-73h-66v73h66zM675 976h-336v-68h133v-74h-133v-67h203v141h133v68zM675 854h-67v-134h-269v-69h336v203zM675 606h-203v-113
h70v47h66v-96h-202v162h-67v-229h336v229zM675 256h-336v-229h336v229zM608 188v-95h-202v95h202zM675 -20h-336v-67h141l-141 -95v-67h336v67h-207l142 95h65v67z" />
    <glyph glyph-name="space" unicode=" " horiz-adv-x="819" 
 />
    <glyph glyph-name="exclam" unicode="!" horiz-adv-x="669" 
d="M453 1450c38 0 68.167 -13.832 90.5 -41.499s28.833 -61.167 19.5 -100.5l-180 -873c-2.66699 -18.667 -13.667 -27.667 -33 -27h-66c-22 0 -32 10.333 -30 31l69 879c2.66699 39.333 16.5 71.166 41.5 95.499s54.5 36.5 88.5 36.5zM281.5 -26.999
c-40.333 0 -74.5 14 -102.5 42s-42 62.167 -42 102.5s14 74.833 42 103.5s62.167 43 102.5 43s74.5 -14.333 102.5 -43s42 -63.167 42 -103.5s-14 -74.5 -42 -102.5s-62.167 -42 -102.5 -42z" />
    <glyph glyph-name="quotedbl" unicode="&#x22;" horiz-adv-x="897" 
d="M443 1434c8.66699 0 16.502 -3.66797 23.502 -11.001s9.83301 -15.666 8.5 -24.999l-71 -391c-2.66699 -17.333 -12.667 -26 -30 -26h-78c-8.66699 0 -16.334 3.5 -23.001 10.5s-9.33398 15.5 -8.00098 25.5l41 391c2 17.333 12 26 30 26h107zM812.002 1434
c8.66699 0 16.502 -3.66797 23.502 -11.001s9.83301 -15.666 8.5 -24.999l-71 -391c-2.66699 -17.333 -13 -26 -31 -26h-77c-8.66699 0 -16.334 3.5 -23.001 10.5s-9.33398 15.5 -8.00098 25.5l41 391c2 17.333 12 26 30 26h107z" />
    <glyph glyph-name="numbersign" unicode="#" horiz-adv-x="1269" 
d="M1148 1151c22 0 31.666 -11 28.999 -33l-13 -88c-2 -19.333 -12.667 -29 -32 -29h-134l-57 -404h129c22 0 31.667 -11 29 -33l-13 -88c-2 -19.333 -12.667 -29 -32 -29h-133l-36 -252c-2 -19.333 -13 -29 -33 -29h-114c-21.333 0 -30.666 11 -27.999 33l34 248h-233
l-36 -252c-2 -19.333 -13 -29 -33 -29h-112c-21.333 0 -31 11 -29 33l35 248h-130c-23.333 0 -33 11 -29 33l12 88c2 19.333 13 29 33 29h135l57 404h-130c-23.333 0 -33 11 -29 33l12 88c2 19.333 13 29 33 29h135l36 254c2 19.333 13 29 33 29h112c21.333 0 31 -11 29 -33
l-35 -250h234l36 254c2 19.333 12.667 29 32 29h114c21.333 0 31 -11 29 -33l-35 -250h128zM765.999 597l56 404h-233l-58 -404h235z" />
    <glyph glyph-name="dollar" unicode="$" horiz-adv-x="1292" 
d="M1203 1096c1.33301 -10 -0.666992 -17.8301 -6 -23.4971s-13 -8.5 -23 -8.5h-111c-16.667 0 -28 8.66699 -34 26c-26.667 72.667 -97 117 -211 133l-60 -430c46 -10.667 87 -22.667 123 -36s71.5 -29.833 106.5 -49.5s64 -41.834 87 -66.501s41.5 -54.334 55.5 -89.001
s21 -73.334 21 -116.001c0 -84.667 -21.833 -156.5 -65.5 -215.5s-102.167 -103 -175.5 -132s-160 -46.167 -260 -51.5l-26 -193c-2.66699 -19.333 -13.667 -28.666 -33 -27.999h-79c-22 0 -31.667 10.667 -29 32l27 189c-245.333 18 -380.333 116.333 -405 295
c-1.33301 10 0.833984 17.833 6.50098 23.5s13.5 8.5 23.5 8.5h115c17.333 0 28.666 -9 33.999 -27c25.333 -80 108.666 -124 249.999 -132l64 459c-43.333 10.667 -82.333 22.667 -117 36s-68.167 30.166 -100.5 50.499s-59.5 42.833 -81.5 67.5s-39.5 54.167 -52.5 88.5
s-19.5 72.5 -19.5 114.5c0 113.333 43.167 202.333 129.5 267s201.166 100 344.499 106l28 195c2.66699 19.333 13.667 29 33 29h79c22 0 31.333 -11 28 -33l-27 -196c100.667 -12 182.834 -43.333 246.501 -94s101.834 -117 114.501 -199zM410 1013
c0 -92 70.333 -156 211 -192l57 405c-178.667 -12 -268 -83 -268 -213zM966 439.003c0 54.667 -18.332 95.668 -54.999 123.001s-95.334 50.666 -176.001 69.999l-60 -426c194 16 291 93.667 291 233z" />
    <glyph glyph-name="percent" unicode="%" horiz-adv-x="1356" 
d="M516 1444c74 0 128.999 -18.999 164.999 -56.999s54 -91.667 54 -161c0 -102.667 -24 -185.334 -72 -248.001s-117.333 -94 -208 -94c-143.333 0 -215 74 -215 222c0 103.333 23.333 185.5 70 246.5s115.334 91.5 206.001 91.5zM505.999 1309
c-48.667 0 -83.5029 -18.668 -104.503 -56.001s-31.167 -85.666 -30.5 -144.999c0.666992 -29.333 8.33398 -51.5 23.001 -66.5s38.334 -22.5 71.001 -22.5c48.667 0 83.834 18.833 105.501 56.5s32.167 85.5 31.5 143.5c0 60 -32 90 -96 90zM1188 1196
c16 -13.333 17.333 -27.999 4 -43.999l-859 -954c-12.667 -15.333 -27 -16.333 -43 -3l-58 46c-16 13.333 -17.333 27.666 -4 42.999l859 955c12.667 15.333 27 16 43 2zM958.996 550.001c74 0 129.167 -18.999 165.5 -56.999s54.5 -91.667 54.5 -161
c0 -102.667 -24 -185.334 -72 -248.001s-117.667 -94 -209 -94c-72 0 -125.833 19.167 -161.5 57.5s-53.5 92.5 -53.5 162.5c0 102 23.5 184.167 70.5 246.5s115.5 93.5 205.5 93.5zM949.996 415.002c-48.667 0 -83.502 -18.668 -104.502 -56.001
s-31.167 -85.666 -30.5 -144.999c0.666992 -29.333 8.33398 -51.5 23.001 -66.5s38.334 -22.5 71.001 -22.5c48.667 0 84 18.833 106 56.5s32.667 85.5 32 143.5c-0.666992 60 -33 90 -97 90z" />
    <glyph glyph-name="ampersand" unicode="&#x26;" horiz-adv-x="1393" 
d="M1196 105c13.333 -17.333 13.333 -30.6699 0 -40.0029l-79 -66c-16.667 -14.667 -30.334 -13 -41.001 5l-111 159c-72 -58 -143.5 -102.667 -214.5 -134s-147.833 -47 -230.5 -47c-133.333 0 -235.666 35.667 -306.999 107s-98.333 168.333 -81 291
c6 46 20.333 89.333 43 130s53.167 79.334 91.5 116.001s74.833 68 109.5 94s78 55.667 130 89c-48 66 -83.667 127.167 -107 183.5s-30.666 116.166 -21.999 179.499c10 80 47.167 146.333 111.5 199s145.833 79 244.5 79c106 0 186.833 -29.667 242.5 -89
s76.5 -135.666 62.5 -228.999c-5.33301 -36.667 -16.833 -72.167 -34.5 -106.5s-41.834 -66.833 -72.501 -97.5s-61 -58.167 -91 -82.5s-66.667 -51.166 -110 -80.499l259 -367c14.667 12.667 35 31.834 61 57.501s43 42.167 51 49.5l102 -124
c-78 -74.667 -118.333 -113 -121 -115zM544 1140c-4.66699 -38 1.5 -75.833 18.5 -113.5s42.5 -81.5 76.5 -131.5c68.667 46 122.334 88.833 161.001 128.5s61 82.167 67 127.5c6 46 -3.66699 80.5 -29 103.5s-62.333 34.5 -111 34.5s-89.834 -13 -123.501 -39
s-53.5 -62.667 -59.5 -110zM531 154.996c107.333 0 220.333 46.668 339 140.001l-270 383c-85.333 -56.667 -151.666 -108.834 -198.999 -156.501s-75.333 -99.5 -84 -155.5c-8.66699 -64 6.66602 -115.167 45.999 -153.5s95.333 -57.5 168 -57.5z" />
    <glyph glyph-name="quotesingle" unicode="'" horiz-adv-x="528" 
d="M443 1434c8.66699 0 16.502 -3.66797 23.502 -11.001s9.83301 -15.666 8.5 -24.999l-71 -391c-2.66699 -17.333 -12.667 -26 -30 -26h-78c-8.66699 0 -16.334 3.5 -23.001 10.5s-9.33398 15.5 -8.00098 25.5l41 391c2 17.333 12 26 30 26h107z" />
    <glyph glyph-name="parenleft" unicode="(" horiz-adv-x="967" 
d="M937 1339c-58 0 -110.496 -5.3291 -157.496 -15.9961s-88.667 -25.834 -125 -45.501s-68.833 -45.5 -97.5 -77.5s-53 -66.667 -73 -104s-38 -81.833 -54 -133.5s-29.5 -104.167 -40.5 -157.5s-21.5 -114.666 -31.5 -183.999c-9.33301 -68.667 -16 -129 -20 -181
s-5.5 -103.333 -4.5 -154s6.33301 -94 16 -130s23.834 -69.667 42.501 -101s43.167 -56.333 73.5 -75s67.333 -33.334 111 -44.001s94.5 -16 152.5 -16l-17 -186c-66 0 -126.167 5.5 -180.5 16.5s-101.333 25.667 -141 44s-74.334 42.166 -104.001 71.499
s-54.167 60.166 -73.5 92.499s-34.333 70 -45 113s-18.334 85.333 -23.001 127s-6.33398 88.667 -5.00098 141s4.33301 101.5 9 147.5s11 97.333 19 154c8 56 16 106 24 150s18.5 92 31.5 144s27.167 98 42.5 138s34.166 81.167 56.499 123.5s47.333 79.166 75 110.499
s60.167 61.333 97.5 90s78.166 52 122.499 70s95 32.333 152 43s118.5 16 184.5 16z" />
    <glyph glyph-name="parenright" unicode=")" horiz-adv-x="968" 
d="M275 1339l17.998 186.999c66 0 126.167 -5.5 180.5 -16.5s101.333 -25.667 141 -44s74.334 -42.166 104.001 -71.499s54 -60.166 73 -92.499s34 -70 45 -113s18.667 -85.333 23 -127s5.83301 -88.5 4.5 -140.5s-4.16602 -100.833 -8.49902 -146.5
s-10.666 -96.834 -18.999 -153.501s-16.333 -107.167 -24 -151.5s-18 -92.333 -31 -144s-27.167 -97.5 -42.5 -137.5s-34.333 -81.333 -57 -124s-47.834 -79.5 -75.501 -110.5s-60 -61 -97 -90s-77.667 -52.5 -122 -70.5s-95 -32.333 -152 -43s-118.833 -16 -185.5 -16
l18 186c58 0 110.5 5.5 157.5 16.5s88.333 26.167 124 45.5s67.834 45.333 96.501 78s53.167 67.5 73.5 104.5s38.666 81.5 54.999 133.5s29.833 104.667 40.5 158s21 115 31 185c9.33301 68 16.333 127.833 21 179.5s6.5 103 5.5 154s-6.33301 94.333 -16 130
s-24 69 -43 100s-43.667 56 -74 75s-67.5 33.667 -111.5 44s-95 15.5 -153 15.5z" />
    <glyph glyph-name="asterisk" unicode="*" horiz-adv-x="911" 
d="M856 1176c2 -19.333 -5.33301 -30.665 -22 -33.998l-216 -53l110 -179c11.333 -18.667 9.66602 -32.334 -5.00098 -41.001l-55 -31c-15.333 -8.66699 -28.333 -3.66699 -39 15l-98 171l-141 -180c-10 -12.667 -23 -13 -39 -1l-42 30c-20 14.667 -23 30 -9 46l151 172
l-186 54c-20.667 6 -27.334 19.333 -20.001 40l19 51c6.66699 17.333 19.667 22.666 39 15.999l197 -59l23 215c2 17.333 12.333 26 31 26h54c8.66699 0 16.334 -3.66699 23.001 -11s9.33398 -15.666 8.00098 -24.999l-34 -206l207 64
c9.33301 2.66699 17.5 1.16699 24.5 -4.5s11.5 -13.834 13.5 -24.501z" />
    <glyph glyph-name="plus" unicode="+" horiz-adv-x="1183" 
d="M992 657c22 0 31.667 -10.665 29 -31.998l-12 -88c-2 -19.333 -13 -29 -33 -29h-308l-44 -309c-2 -19.333 -13 -29 -33 -29h-88c-21.333 0 -31 11 -29 33l43 305h-304c-21.333 0 -31 11 -29 33l14 88c2 19.333 12.667 28.666 32 27.999h309l44 309
c2 19.333 12.667 28.666 32 27.999h88c21.333 0 31 -10.667 29 -32l-43 -305h303z" />
    <glyph glyph-name="comma" unicode="," horiz-adv-x="745" 
d="M111 0c-22 0 -31.333 11 -28 33l13 97c2.66699 19.333 13.667 29 33 29h408c22 0 31 -11 27 -33l-7 -53c-30 -204.667 -75 -358.667 -135 -462c-8.66699 -16.667 -24.334 -25 -47.001 -25h-64c-10.667 0 -18.167 4.16699 -22.5 12.5s-4.16602 18.833 0.500977 31.5
c46 130.667 73.333 254 82 370h-260z" />
    <glyph glyph-name="hyphen" unicode="-" horiz-adv-x="1336" 
d="M1146 654c22 0 31.334 -10.667 28.001 -32l-14 -96c-2.66699 -19.333 -13.667 -28.666 -33 -27.999h-915c-22.667 0 -32.334 10.667 -29.001 32l14 96c3.33301 19.333 14 28.666 32 27.999h917z" />
    <glyph glyph-name="period" unicode="." horiz-adv-x="567" 
d="M240.5 -27c-40.333 0 -74.5 14 -102.5 42s-42 62.167 -42 102.5s14 74.833 42 103.5s62.167 43 102.5 43s74.5 -14.333 102.5 -43s42 -63.167 42 -103.5s-14 -74.5 -42 -102.5s-62.167 -42 -102.5 -42z" />
    <glyph glyph-name="slash" unicode="/" horiz-adv-x="1211" 
d="M48 -266c-12 0 -19.832 3.33301 -23.499 10s-1.83398 15.667 5.49902 27l984 1641c7.33301 14.667 21.333 22 42 22h131c12 0 19.5 -3.5 22.5 -10.5s1.16699 -15.833 -5.5 -26.5l-984 -1642c-7.33301 -14.667 -21.333 -21.667 -42 -21h-130z" />
    <glyph glyph-name="zero" unicode="0" horiz-adv-x="1311" 
d="M780 1450c62 0 116.333 -4.50098 163 -13.501s88.334 -24 125.001 -45s66.167 -48.667 88.5 -83s39.5 -76.833 51.5 -127.5s17.667 -110 17 -178s-7.33398 -146.333 -20.001 -235l-16 -122c-18.667 -133.333 -43.167 -243.5 -73.5 -330.5s-70.5 -155.667 -120.5 -206
s-106.833 -85.666 -170.5 -105.999s-141.834 -30.5 -234.501 -30.5c-62 0 -116.167 4.5 -162.5 13.5s-87.833 24 -124.5 45s-66.167 48.667 -88.5 83s-39.333 76.833 -51 127.5s-17.167 110 -16.5 178s7.33398 146.667 20.001 236l15 122
c15.333 106.667 34.5 198.167 57.5 274.5s50.5 140.333 82.5 192s70.833 92.5 116.5 122.5s95.5 51.333 149.5 64s118 19 192 19zM1019 643.999l21.001 147c10.667 78.667 16.5 144.5 17.5 197.5s-3.16699 99.167 -12.5 138.5s-26 69.833 -50 91.5s-53.833 37.667 -89.5 48
s-80.834 15.5 -135.501 15.5c-134.667 0 -231.334 -35.667 -290.001 -107s-101.334 -203 -128.001 -395l-21 -146c-11.333 -94.667 -17.166 -173.667 -17.499 -237s10.667 -114 33 -152s53.333 -64.667 93 -80s93.5 -23 161.5 -23c68.667 0 126 8 172 24
s85.333 44.167 118 84.5s58.834 91.5 78.501 153.5s36.167 142 49.5 240zM525.001 445.999c-11.333 0 -18.998 3.5 -22.998 10.5s-3 15.833 3 26.5l260 471c8 15.333 20.333 23 37 23h47c11.333 0 19.166 -3.5 23.499 -10.5s3.16602 -15.833 -3.50098 -26.5l-260 -471
c-8 -15.333 -20.333 -23 -37 -23h-47z" />
    <glyph glyph-name="one" unicode="1" horiz-adv-x="1233" 
d="M709 155l320 -0.000976562c22 0 31.667 -11 29 -33l-14 -93c-2.66699 -19.333 -13.334 -29 -32.001 -29h-916c-21.333 0 -30.666 11 -27.999 33l13 93c2 19.333 13 29 33 29h410l156 1091c-48.667 -40 -100 -69.667 -154 -89s-116 -31.666 -186 -36.999
c-22.667 -2 -33 8.33301 -31 31l12 106c2 18.667 12 29 30 31c124.667 12 241 60.667 349 146h155c22 0 31.333 -11 28 -33z" />
    <glyph glyph-name="two" unicode="2" horiz-adv-x="1216" 
d="M287 161l703.002 5.00391c22 0 31.667 -11 29 -33l-13 -104c-2 -19.333 -13 -29 -33 -29h-861c-21.333 0 -31 11 -29 33l15 115c9.33301 68 26.5 130.667 51.5 188s54.833 105.666 89.5 144.999s73 75.166 115 107.499s85.5 60.333 130.5 84l134.5 67.5
c44.667 21.333 87.167 42.666 127.5 63.999s76.666 43.5 108.999 66.5s59.333 50.333 81 82s35.167 67.167 40.5 106.5c8.66699 67.333 -7.33301 121.5 -48 162.5s-106.667 61.5 -198 61.5c-94.667 0 -171 -21.333 -229 -64s-93.667 -104 -107 -184
c-2.66699 -14.667 -14.667 -20.667 -36 -18l-110 14c-20.667 2 -29 15.667 -25 41c17.333 122.667 70.333 216.334 159 281.001s205.334 97 350.001 97c152 0 263.667 -36.833 335 -110.5s98 -173.834 80 -300.501c-7.33301 -52 -22.5 -99 -45.5 -141
s-50.833 -78.167 -83.5 -108.5s-69.334 -58.333 -110.001 -84s-82.834 -49.334 -126.501 -71.001l-131.5 -64.5c-44 -21.333 -86.167 -45 -126.5 -71s-76.833 -54.167 -109.5 -84.5s-60.5 -67 -83.5 -110s-37.833 -90.833 -44.5 -143.5z" />
    <glyph glyph-name="three" unicode="3" horiz-adv-x="1289" 
d="M878 761c76 -26 136.502 -65.6641 181.502 -118.997s67.5 -120.333 67.5 -201c0 -94 -26.5 -177 -79.5 -249s-123.667 -126.5 -212 -163.5s-185.5 -55.5 -291.5 -55.5c-150.667 0 -265 36 -343 108s-108 169.333 -90 292c2 17.333 11.333 26.666 28 27.999l118 9
c10.667 1.33301 19 -1.83398 25 -9.50098s8.33301 -17.834 7 -30.501c-6.66699 -68.667 13 -124 59 -166s116 -63 210 -63c107.333 0 198.333 29 273 87s112 133.333 112 226c0 68.667 -29.833 123 -89.5 163s-149.167 61.667 -268.5 65c-22.667 1.33301 -33 12.333 -31 33
l9 88c2 19.333 13 28.666 33 27.999c114.667 3.33301 209.167 29.333 283.5 78s111.5 114 111.5 196c0 56 -22.333 99.833 -67 131.5s-105.334 47.5 -182.001 47.5c-94 0 -170.667 -22.333 -230 -67s-95.333 -104.334 -108 -179.001c-2.66699 -18 -15.667 -25 -39 -21
l-110 12c-21.333 2 -30 16.333 -26 43c16.667 116.667 71.167 208.834 163.5 276.501s211.833 101.5 358.5 101.5c127.333 0 228.666 -29.5 303.999 -88.5s113 -137.833 113 -236.5c0 -81.333 -25.667 -153.166 -77 -215.499s-122.333 -111.833 -213 -148.5z" />
    <glyph glyph-name="four" unicode="4" horiz-adv-x="1292" 
d="M991 516l120.998 -0.000976562c23.333 0 33 -11 29 -33l-15 -95c-4 -19.333 -14.667 -29 -32 -29h-125l-45 -330c-2 -19.333 -13 -29 -33 -29h-123c-21.333 0 -31 11 -29 33l45 326h-643c-22 0 -31.333 11 -28 33l15 109c2.66699 18.667 8.66699 33 18 43l768 869
c11.333 13.333 27 20.333 47 21h126c8.66699 0 15.834 -3.66699 21.501 -11s7.83398 -15.666 6.50098 -24.999zM806.998 515.999l90 629l-562 -629h472z" />
    <glyph glyph-name="five" unicode="5" horiz-adv-x="1266" 
d="M705 944c144 0 253.834 -44.167 329.501 -132.5s102.834 -209.166 81.501 -362.499c-21.333 -149.333 -81.833 -266 -181.5 -350s-226.5 -126 -380.5 -126c-144 0 -254.833 32.667 -332.5 98s-113.834 159.666 -108.501 282.999c0 18 9.66699 27 29 27h108
c16.667 0 26.667 -13 30 -39c10 -70 37.5 -122 82.5 -156s110.5 -51 196.5 -51c103.333 0 189.166 28.667 257.499 86s109.833 140 124.5 248c14.667 102.667 -2.33301 180.5 -51 233.5s-121 79.5 -217 79.5c-133.333 0 -242.666 -40 -327.999 -120
c-15.333 -12.667 -32.333 -14.667 -51 -6l-87 37c-19.333 8.66699 -26 22.667 -20 42l224 674c5.33301 16.667 16.666 25 33.999 25h654c22.667 0 31.667 -11 27 -33l-15 -99c-4 -19.333 -15 -29 -33 -29h-543l-136 -407c80 52 182 78 306 78z" />
    <glyph glyph-name="six" unicode="6" horiz-adv-x="1288" 
d="M698 874c136.667 0 244.165 -32.834 322.498 -98.501s117.5 -156.5 117.5 -272.5c0 -164.667 -51.333 -294.167 -154 -388.5s-238.334 -141.5 -407.001 -141.5c-158.667 0 -277 42.667 -355 128s-106.333 203 -85 353l70 499c24.667 176.667 83.834 303.667 177.501 381
s223.5 116 389.5 116c140.667 0 248.334 -32.167 323.001 -96.5s104.667 -153.833 90 -268.5c-2 -17.333 -12.333 -25.666 -31 -24.999l-101 -4c-22 0 -33.333 12.667 -34 38c-2.66699 63.333 -26.5 111.5 -71.5 144.5s-106.833 49.5 -185.5 49.5
c-40 0 -75.667 -2.5 -107 -7.5s-62.666 -15 -93.999 -30s-58 -34.833 -80 -59.5s-41.833 -57.5 -59.5 -98.5s-30.834 -89.5 -39.501 -145.5l-31 -206c28.667 41.333 77.334 73.833 146.001 97.5s135 35.5 199 35.5zM590.998 135.999c116 0 206.833 31.499 272.5 94.499
s98.5 150.5 98.5 262.5c0 74.667 -26 131 -78 169s-122.333 57 -211 57c-113.333 0 -203 -31.667 -269 -95s-99 -148.666 -99 -255.999c0 -78.667 25.5 -137 76.5 -175s120.833 -57 209.5 -57z" />
    <glyph glyph-name="seven" unicode="7" horiz-adv-x="1214" 
d="M255 1405c2 19.333 12.999 29 32.999 29h896c21.333 0 30.666 -11 27.999 -33l-15 -113c-2.66699 -18.667 -8 -34 -16 -46l-762 -1222c-7.33301 -13.333 -19.666 -20 -36.999 -20h-132c-12 0 -20 3.66699 -24 11s-3 16 3 26l777 1236h-736
c-21.333 0 -30.666 11 -27.999 33z" />
    <glyph glyph-name="eight" unicode="8" horiz-adv-x="1315" 
d="M976 782c121.333 -60.667 181.999 -161.337 181.999 -302.004c0 -157.333 -51.667 -281.166 -155 -371.499s-240.333 -135.5 -411 -135.5c-147.333 0 -260.666 33 -339.999 99s-119 158 -119 276c0 102.667 24.333 191.834 73 267.501s120.334 134.834 215.001 177.501
c-86 52.667 -129 133.334 -129 242.001c0 130.667 44.667 232.5 134 305.5s207.666 109.5 354.999 109.5c132 0 232.833 -27.833 302.5 -83.5s104.5 -130.167 104.5 -223.5c0 -79.333 -18 -150 -54 -212s-88.667 -111.667 -158 -149zM458.999 1028
c0 -56.667 21 -99.668 63 -129.001s102.333 -44 181 -44c97.333 0 174.333 23.5 231 70.5s85 112.833 85 197.5c0 56.667 -21 99.334 -63 128.001s-102.667 43 -182 43c-98 0 -175 -23.167 -231 -69.5s-84 -111.833 -84 -196.5zM603.999 135.996
c116.667 0 208.666 30.335 275.999 91.002s101 143.667 101 249c0 75.333 -25.5 131.166 -76.5 167.499s-123.167 54.5 -216.5 54.5c-117.333 0 -209.666 -30.333 -276.999 -91s-101 -144.334 -101 -251.001c0 -146.667 98 -220 294 -220z" />
    <glyph glyph-name="nine" unicode="9" horiz-adv-x="1298" 
d="M659 549c-136.667 0 -243.999 32.8301 -321.999 98.4971s-117 156.834 -117 273.501c0 164.667 51.167 294 153.5 388s238.166 141 407.499 141c158.667 0 276.834 -42.667 354.501 -128s106.167 -202.666 85.5 -351.999l-70 -500
c-24.667 -176.667 -83.834 -303.667 -177.501 -381s-223.5 -116 -389.5 -116c-140.667 0 -248.5 32.167 -323.5 96.5s-104.833 153.833 -89.5 268.5c2 17.333 12.333 26 31 26l101 4c22 0 33.333 -12.667 34 -38c2.66699 -63.333 26.5 -111.666 71.5 -144.999
s106.833 -50 185.5 -50c40 0 75.667 2.66699 107 8s62.666 15.5 93.999 30.5s58 34.667 80 59s41.833 57 59.5 98s30.834 89.5 39.501 145.5l31 206c-28.667 -41.333 -77.5 -73.833 -146.5 -97.5s-135.5 -35.5 -199.5 -35.5zM767.001 1287
c-116 0 -206.833 -31.334 -272.5 -94.001s-98.5 -150 -98.5 -262c0 -74.667 26 -131 78 -169s122.333 -57 211 -57c113.333 0 203 31.5 269 94.5s99 148.5 99 256.5c0 78.667 -25.5 136.834 -76.5 174.501s-120.833 56.5 -209.5 56.5z" />
    <glyph glyph-name="colon" unicode=":" horiz-adv-x="640" 
d="M373.5 734c-40.333 0 -74.5 14 -102.5 42s-42 62.167 -42 102.5s14 74.666 42 102.999s62.167 42.5 102.5 42.5s74.5 -14.167 102.5 -42.5s42 -62.666 42 -102.999s-14 -74.5 -42 -102.5s-62.167 -42 -102.5 -42zM266.5 -27c-40.333 0 -74.5 14 -102.5 42
s-42 62.167 -42 102.5s14 74.833 42 103.5s62.167 43 102.5 43s74.5 -14.333 102.5 -43s42 -63.167 42 -103.5s-14 -74.5 -42 -102.5s-62.167 -42 -102.5 -42z" />
    <glyph glyph-name="semicolon" unicode=";" horiz-adv-x="745" 
d="M425 734c-40 0 -74 14 -102 42s-42 62.167 -42 102.5s14 74.833 42 103.5s62 43 102 43s74 -14.333 102 -43s42 -63.167 42 -103.5s-14 -74.5 -42 -102.5s-62 -42 -102 -42zM111 0c-22 0 -31.333 11 -28 33l13 97c2.66699 19.333 13.667 29 33 29h408c22 0 31 -11 27 -33
l-7 -53c-30 -204.667 -75 -358.667 -135 -462c-8.66699 -16.667 -24.334 -25 -47.001 -25h-64c-10.667 0 -18.167 4.16699 -22.5 12.5s-4.16602 18.833 0.500977 31.5c46 130.667 73.333 254 82 370h-260z" />
    <glyph glyph-name="less" unicode="&#x3c;" horiz-adv-x="1107" 
d="M965 818c8.66699 -18 4.33203 -30.998 -13.001 -38.998l-588 -269l504 -273c8 -4.66699 13.667 -10.834 17 -18.501s2.33301 -15.834 -3 -24.501l-60 -90c-9.33301 -13.333 -22.666 -15 -39.999 -5l-587 320c-16 8.66699 -23 21.667 -21 39l15 114c2 16 10 27.333 24 34
l676 318c18.667 8.66699 31.667 2 39 -20z" />
    <glyph glyph-name="equal" unicode="=" horiz-adv-x="1182" 
d="M1015 823c23.333 0 32.667 -10.667 28 -32l-12 -89c-2 -19.333 -13 -28.666 -33 -27.999h-760c-21.333 0 -31 11 -29 33l12 88c2 19.333 13 28.666 33 27.999h761zM969.001 493c23.333 0 32.666 -11 27.999 -33l-13 -88c-2 -19.333 -13 -29 -33 -29h-761
c-21.333 0 -30.666 11 -27.999 33l13 88c2 19.333 13 29 33 29h761z" />
    <glyph glyph-name="greater" unicode="&#x3e;" horiz-adv-x="1107" 
d="M228 827l62.001 85.999c6 8.66699 12 13.167 18 13.5s13 -2.16699 21 -7.5l587 -317c16 -9.33301 23 -22.666 21 -39.999l-16 -115c-2 -17.333 -9.33301 -28.333 -22 -33l-678 -318c-16.667 -7.33301 -29.667 -0.333008 -39 21l-36 86c-8.66699 18 -4.66699 31 12 39
l591 268l-506 273c-8 4 -13.833 10.5 -17.5 19.5s-2.83398 17.167 2.49902 24.5z" />
    <glyph glyph-name="question" unicode="?" horiz-adv-x="1295" 
d="M522 384c-22 0 -30.666 11.668 -25.999 35.001c11.333 70.667 29.166 131.667 53.499 183s51.333 90.833 81 118.5s61 51 94 70s65.667 35.5 98 49.5s62 29 89 45s50.5 38.333 70.5 67s33 64.334 39 107.001c9.33301 67.333 -6.5 121.5 -47.5 162.5
s-108.5 61.5 -202.5 61.5c-96.667 0 -174.334 -21 -233.001 -63s-94.667 -102.333 -108 -181c-3.33301 -18 -16.333 -25.333 -39 -22l-109 12c-19.333 2 -27 15 -23 39c17.333 124.667 70.333 219.5 159 284.5s207.334 97.5 356.001 97.5c152.667 0 265 -36.833 337 -110.5
s98.667 -173.834 80 -300.501c-7.33301 -56 -21.333 -103.667 -42 -143s-44.667 -69.833 -72 -91.5s-56.833 -40.667 -88.5 -57l-95.5 -48.5c-32 -16 -62.167 -34.667 -90.5 -56s-53.833 -51.333 -76.5 -90s-39 -85.334 -49 -140.001c-3.33301 -19.333 -14.333 -29 -33 -29
h-122zM556.001 -26.999c-40 0 -74 14 -102 42s-42 62.167 -42 102.5s14 74.833 42 103.5s62 43 102 43s74 -14.333 102 -43s42 -63.167 42 -103.5s-14 -74.5 -42 -102.5s-62 -42 -102 -42z" />
    <glyph glyph-name="at" unicode="@" horiz-adv-x="1362" 
d="M765 1083c141.333 0 255.667 -41.3311 343 -123.998s131 -198 131 -346c0 -70.667 -9.5 -135.834 -28.5 -195.501s-50 -109.334 -93 -149.001s-94.5 -59.5 -154.5 -59.5c-69.333 0 -114 24.333 -134 73c-52.667 -48.667 -115 -73 -187 -73
c-77.333 0 -138.5 23.5 -183.5 70.5s-67.5 110.5 -67.5 190.5c0 94.667 30.333 174.667 91 240s136.667 98 228 98c78.667 0 139 -27.667 181 -83l41 54h73l-85 -368c-7.33301 -28 -7.83301 -49.333 -1.5 -64s21.5 -22 45.5 -22c26 0 48.667 9.5 68 28.5
s34.166 44 44.499 75s18 62.833 23 95.5s7.5 65.667 7.5 99c0 113.333 -31.167 196.333 -93.5 249s-146.166 79 -251.499 79c-74 0 -142.167 -13.5 -204.5 -40.5s-114.666 -63.333 -156.999 -109s-75.333 -99 -99 -160s-35.5 -125.833 -35.5 -194.5
c0 -62 10.167 -117 30.5 -165s47.666 -86 81.999 -114s72.5 -49 114.5 -63s87 -21 135 -21c78.667 0 147 14.333 205 43l89 -91c-81.333 -55.333 -181 -83 -299 -83c-94 0 -178 18.167 -252 54.5s-133 92.5 -177 168.5s-66 167 -66 273c0 116 26.5 222.167 79.5 318.5
s128.333 173 226 230s208.167 85.5 331.5 85.5zM644.001 327.002c54 0 98.167 21.333 132.5 64s51.5 96 51.5 160c0 44.667 -10.5 78.667 -31.5 102s-51.5 35 -91.5 35c-57.333 0 -102.833 -21.333 -136.5 -64s-50.5 -93 -50.5 -151c0 -97.333 42 -146 126 -146z" />
    <glyph glyph-name="A" unicode="A" horiz-adv-x="1387" 
d="M1227 32c4 -21.333 -4.66699 -32 -26 -32h-129c-19.333 0 -30.666 10 -33.999 30l-62 291h-617l-146 -298c-6.66699 -15.333 -19.334 -23 -38.001 -23h-132c-10.667 0 -18.667 4.16699 -24 12.5s-5.33301 17.5 0 27.5l695 1371c8 15.333 21.333 23 40 23h128
c19.333 0 31.333 -10 36 -30zM441 487h500l-151 708z" />
    <glyph glyph-name="B" unicode="B" horiz-adv-x="1282" 
d="M930 772c80.667 -19.333 141.501 -56 182.501 -110s61.5 -119.333 61.5 -196c0 -158.667 -49.333 -276 -148 -352s-238.334 -114 -419.001 -114h-476c-22 0 -31.333 11 -28 33l193 1372c2.66699 19.333 13.667 29 33 29h485c133.333 0 230.333 -28 291 -84
s91 -127.667 91 -215c0 -88.667 -23.167 -165.167 -69.5 -229.5s-111.833 -108.833 -196.5 -133.5zM467.001 1260l-58 -414.999h313c87.333 0 157.333 24.167 210 72.5s79 112.166 79 191.499c0 53.333 -18.5 91.833 -55.5 115.5s-95.167 35.5 -174.5 35.5h-314z
M621.001 174.001c240.667 0 361 99 361 297c0 140 -91.333 210 -274 210h-322l-72 -507h307z" />
    <glyph glyph-name="C" unicode="C" horiz-adv-x="1496" 
d="M1244 294l68.999 -84.002c16 -20 14.667 -36.667 -4 -50c-165.333 -124 -334.333 -186.333 -507 -187c-122 0 -231.667 27.833 -329 83.5s-172.833 132 -226.5 229s-80.5 205.5 -80.5 325.5c0 147.333 38 285.833 114 415.5s177.667 232.667 305 309s263 114.5 407 114.5
c185.333 0 339 -68 461 -204c16.667 -18 18.334 -32.667 5.00098 -44l-87 -74c-13.333 -11.333 -28.333 -9.66602 -45 5.00098c-100 87.333 -214 131 -342 131c-82.667 0 -162.5 -17.833 -239.5 -53.5s-143.5 -82.834 -199.5 -141.501s-101 -127.667 -135 -207
s-51 -161 -51 -245c0 -133.333 42.5 -242.666 127.5 -327.999s192.833 -128 323.5 -128c131.333 0 259 44.667 383 134c21.333 14.667 38.333 14.334 51 -0.999023z" />
    <glyph glyph-name="D" unicode="D" horiz-adv-x="1416" 
d="M669 1434c108.667 0 205.167 -15.166 289.5 -45.499s153.333 -72.333 207 -126s94.334 -116.667 122.001 -189s41.5 -152.5 41.5 -240.5c0 -162.667 -35.667 -307.167 -107 -433.5s-171.833 -224.5 -301.5 -294.5s-277.834 -105 -444.501 -105h-343
c-8.66699 0 -16.167 3.66699 -22.5 11s-8.83301 15.666 -7.5 24.999l193 1372c2 17.333 12 26 30 26h343zM490 174.001c202 0 360.5 60.667 475.5 182s172.5 282 172.5 482c0 136 -40.5 240.333 -121.5 313s-202.5 109 -364.5 109h-186l-153 -1086h177z" />
    <glyph glyph-name="E" unicode="E" horiz-adv-x="1255" 
d="M1018 174c21.333 0 31.001 -11.002 29.001 -33.002l-17 -112c-2 -19.333 -13 -29 -33 -29h-865c-21.333 0 -31 11 -29 33l193 1372c2 19.333 13 29 33 29h863c21.333 0 31 -11 29 -33l-16 -113c-2 -19.333 -13 -28.666 -33 -27.999h-704l-59 -418h646
c21.333 0 30.666 -11 27.999 -33l-16 -113c-2 -19.333 -13 -28.666 -33 -27.999h-650l-69 -494h703z" />
    <glyph glyph-name="F" unicode="F" horiz-adv-x="1291" 
d="M1230 1434c22.667 0 32 -11.001 28 -33.001l-16 -113c-2.66699 -19.333 -13.667 -28.666 -33 -27.999h-742l-61 -439h691c22 0 31 -11 27 -33l-15 -112c-2.66699 -19.333 -13.667 -29 -33 -29h-695l-87 -618c-2.66699 -19.333 -13.667 -29 -33 -29h-130
c-22 0 -31.333 11 -28 33l193 1372c2.66699 19.333 13.667 29 33 29h901z" />
    <glyph glyph-name="G" unicode="G" horiz-adv-x="1674" 
d="M1522 756c11.333 0 20.332 -4.16797 26.999 -12.501s8.66699 -18.833 6 -31.5l-9 -63c-21.333 -132.667 -64.5 -249.667 -129.5 -351s-150.333 -180.833 -256 -238.5s-224.5 -86.5 -356.5 -86.5c-124 0 -234.667 28.167 -332 84.5s-172.5 133.333 -225.5 231
s-79.5 207.167 -79.5 328.5c0 109.333 22.5 215.333 67.5 318s104.833 191.5 179.5 266.5s163.167 135.167 265.5 180.5s207.166 68 314.499 68c185.333 0 338.333 -68 459 -204c17.333 -17.333 19 -32 5 -44l-87 -74c-12.667 -12 -27.667 -10.333 -45 5
c-100 87.333 -214.667 131 -344 131c-110 0 -213 -29.833 -309 -89.5s-172 -139 -228 -238s-84 -204.167 -84 -315.5c0 -134.667 42.167 -245 126.5 -331s193.5 -129 327.5 -129c138.667 0 258 39.833 358 119.5s160.667 181.834 182 306.501h-448
c-9.33301 0 -16.666 3 -21.999 9s-7.66602 13.333 -6.99902 22l15 107c1.33301 9.33301 5 16.833 11 22.5s13.667 8.5 23 8.5h595z" />
    <glyph glyph-name="H" unicode="H" horiz-adv-x="1446" 
d="M1376 1434c22 0 31.334 -11 28.001 -33l-193 -1372c-2.66699 -19.333 -13.334 -29 -32.001 -29h-130c-22 0 -31.333 11 -28 33l86 611h-727l-86 -615c-2.66699 -19.333 -13.667 -29 -33 -29h-130c-22 0 -31.333 11 -28 33l193 1372c2.66699 19.333 13.667 29 33 29h130
c22 0 31 -11 27 -33l-82 -583h728l81 587c2.66699 19.333 13.667 29 33 29h130z" />
    <glyph glyph-name="I" unicode="I" horiz-adv-x="1338" 
d="M1289 1288c-2.66699 -19.333 -13.668 -28.667 -33.001 -28h-385l-152 -1086h381c22 0 31 -11 27 -33l-15 -112c-2.66699 -19.333 -13.667 -29 -33 -29h-957c-22.667 0 -32.334 11 -29.001 33l17 112c2.66699 19.333 13.334 29 32.001 29h385l153 1086h-381
c-22.667 0 -32.334 10.667 -29.001 32l17 113c2.66699 19.333 13.334 29 32.001 29h958c22.667 0 32.334 -11 29.001 -33z" />
    <glyph glyph-name="J" unicode="J" horiz-adv-x="1332" 
d="M1256 1434c22 0 31.332 -11.001 27.999 -33.001l-125 -890c-25.333 -180 -88.166 -315.333 -188.499 -406s-225.5 -136 -375.5 -136c-72 0 -136.333 10.333 -193 31s-104.667 51.334 -144 92.001s-67.833 93.334 -85.5 158.001s-21.834 139.334 -12.501 224.001
c2 20 13 30 33 30h124c21.333 0 31 -11.333 29 -34c-7.33301 -112.667 11.834 -194.834 57.501 -246.501s112.167 -77.5 199.5 -77.5c94 0 174.333 32.167 241 96.5s108.667 157.166 126 278.499l103 739h-583c-22.667 0 -32 10.667 -28 32l16 113
c2.66699 19.333 13.667 29 33 29h745z" />
    <glyph glyph-name="K" unicode="K" horiz-adv-x="1299" 
d="M1284 1434c13.333 0 21.666 -4 24.999 -12s0 -16.667 -10 -26l-615 -597l455 -762c6 -10 7 -18.667 3 -26s-12 -11 -24 -11h-145c-17.333 0 -29.666 6.66699 -36.999 20l-388 647l-191 -186l-63 -452c-2.66699 -19.333 -13.667 -29 -33 -29h-130c-22 0 -31.333 11 -28 33
l193 1372c2.66699 19.333 13.667 29 33 29h130c22 0 31 -11 27 -33l-92 -659l689 676c10.667 10 23.667 15.333 39 16h162z" />
    <glyph glyph-name="L" unicode="L" horiz-adv-x="1172" 
d="M315 174h712.002c22 0 31.667 -11 29 -33l-17 -112c-2.66699 -19.333 -13.334 -29 -32.001 -29h-875c-21.333 0 -31 11 -29 33l193 1372c2 19.333 13 29 33 29h130c21.333 0 30.666 -11 27.999 -33z" />
    <glyph glyph-name="M" unicode="M" horiz-adv-x="1792" 
d="M1719 1434c9.33301 0 16.999 -3.66602 22.999 -10.999s8.33301 -15.666 7 -24.999l-193 -1372c-2 -17.333 -12 -26 -30 -26h-130c-8.66699 0 -16 3.66699 -22 11s-8.33301 15.666 -7 24.999l144 1027l-585 -1045c-6 -12 -17.667 -18 -35 -18h-126
c-18 0 -29.333 9.66699 -34 29l-293 1035l-145 -1038c-2 -17.333 -12 -26 -30 -26h-130c-8.66699 0 -16.167 3.66699 -22.5 11s-8.83301 15.666 -7.5 24.999l193 1370c2 18.667 12.667 28 32 28h160c18.667 0 30.667 -10 36 -30l328 -1188l662 1196
c6.66699 14.667 19.334 22 38.001 22h167z" />
    <glyph glyph-name="N" unicode="N" horiz-adv-x="1419" 
d="M1346 1434c8.66699 0 16 -3.66699 22 -11s8.33301 -15.666 7 -24.999l-192 -1372c-2 -17.333 -12 -26 -30 -26h-163c-16 0 -27.667 8.66699 -35 26l-503 1127l-159 -1127c-2 -17.333 -12 -26 -30 -26h-130c-8.66699 0 -16.167 3.66699 -22.5 11
s-8.83301 15.666 -7.5 24.999l193 1370c2 18.667 12 28 30 28h162c16 0 27.333 -8.33301 34 -25l506 -1130l158 1127c2 18.667 12.667 28 32 28h128z" />
    <glyph glyph-name="O" unicode="O" horiz-adv-x="1759" 
d="M812 -27c-100.667 0 -194.164 19.668 -280.497 59.001s-158 92.333 -215 159s-98.5 146.167 -124.5 238.5s-32 189.5 -18 291.5c19.333 133.333 69.166 255.833 149.499 367.5s180.666 199.834 300.999 264.501s246.166 97 377.499 97c100.667 0 194 -19.667 280 -59
s157.5 -92.333 214.5 -159s98.5 -146.334 124.5 -239.001s31.667 -190.334 17 -293.001c-19.333 -132.667 -69 -254.667 -149 -366s-180 -199.333 -300 -264s-245.667 -97 -377 -97zM822.003 155.001c154 0 292.167 54.833 414.5 164.5s194.166 243.5 215.499 401.5
c14.667 101.333 4 193.833 -32 277.5s-91.667 149.667 -167 198s-162.333 72.5 -261 72.5c-102 0 -198.833 -25.167 -290.5 -75.5s-168 -119 -229 -206s-98.833 -182.833 -113.5 -287.5c-13.333 -100.667 -2 -192.667 34 -276s91.833 -149 167.5 -197
s162.834 -72 261.501 -72z" />
    <glyph glyph-name="P" unicode="P" horiz-adv-x="1343" 
d="M835 1434c161.333 0 278.667 -30 352 -90s110 -149 110 -267c0 -184 -48.333 -320.5 -145 -409.5s-241.667 -133.5 -435 -133.5h-352l-71 -505c-2.66699 -19.333 -13.667 -29 -33 -29h-130c-22 0 -31.333 11 -28 33l193 1372c2.66699 19.333 13.667 29 33 29h506z
M745.001 708c244.667 0 367 116.999 367 350.999c0 76.667 -23.5 129.334 -70.5 158.001s-117.167 43 -210.5 43h-364l-77 -552h355z" />
    <glyph glyph-name="Q" unicode="Q" horiz-adv-x="1759" 
d="M812 -27c-100.667 0 -194.164 19.668 -280.497 59.001s-158 92.333 -215 159s-98.5 146.167 -124.5 238.5s-32 189.5 -18 291.5c19.333 133.333 69.166 255.833 149.499 367.5s180.666 199.834 300.999 264.501s246.166 97 377.499 97c100.667 0 194 -19.667 280 -59
s157.5 -92.333 214.5 -159s98.5 -146.334 124.5 -239.001s31.667 -190.334 17 -293.001c-19.333 -132.667 -69 -254.667 -149 -366s-180 -199.333 -300 -264s-245.667 -97 -377 -97zM822.003 155.001c154 0 292.167 54.833 414.5 164.5s194.166 243.5 215.499 401.5
c14.667 101.333 4 193.833 -32 277.5s-91.667 149.667 -167 198s-162.333 72.5 -261 72.5c-102 0 -198.833 -25.167 -290.5 -75.5s-168 -119 -229 -206s-98.833 -182.833 -113.5 -287.5c-13.333 -100.667 -2 -192.667 34 -276s91.833 -149 167.5 -197
s162.834 -72 261.501 -72zM1140 -183.999c22 0 32.665 -9.66699 31.998 -29v-108c0 -22 -10 -32.667 -30 -32c-44.667 -0.666992 -88.167 4.33301 -130.5 15s-77.833 22.667 -106.5 36s-64.167 25.5 -106.5 36.5s-85.5 16.167 -129.5 15.5c-22 0 -33 9.66699 -33 29v106
c0 22 11 33 33 33c44.667 1.33301 87.834 -3.5 129.501 -14.5s76.834 -23.167 105.501 -36.5s64 -25.333 106 -36s85.333 -15.667 130 -15z" />
    <glyph glyph-name="R" unicode="R" horiz-adv-x="1380" 
d="M1297 1077c0 -282 -115.666 -454 -346.999 -516l203 -531c7.33301 -20 -0.333984 -30 -23.001 -30h-131c-16.667 -0 -28 9.33301 -34 28l-196 507c-11.333 -0.666992 -28.666 -1 -51.999 -1h-352l-71 -505c-2.66699 -19.333 -13.667 -29 -33 -29h-130
c-22 0 -31.333 11 -28 33l193 1372c2.66699 19.333 13.667 29 33 29h506c161.333 0 278.666 -30 351.999 -90s110 -149 110 -267zM745.001 708c244.667 0 367 116.999 367 350.999c0 76.667 -23.5 129.334 -70.5 158.001s-117.167 43 -210.5 43h-364l-77 -552h355z" />
    <glyph glyph-name="S" unicode="S" horiz-adv-x="1297" 
d="M674 814c40 -9.33301 75 -18.0029 105 -26.0029s62.667 -18.333 98 -31s65.5 -25.667 90.5 -39s49.833 -29.666 74.5 -48.999s44.667 -40.333 60 -63s27.666 -49 36.999 -79s14 -62.667 14 -98c0 -150 -51.667 -263.5 -155 -340.5s-243 -115.5 -419 -115.5
c-158.667 0 -279.5 28.333 -362.5 85s-121.5 142 -115.5 256c1.33301 20 11.333 30 30 30h121c8 0 14.667 -3 20 -9s8 -14 8 -24c0.666992 -52 28 -92.5 82 -121.5s129.667 -43.5 227 -43.5c120.667 0 213.5 22.5 278.5 67.5s97.5 112.167 97.5 201.5
c0 29.333 -4.66699 55 -14 77s-21.166 40.5 -35.499 55.5s-35.333 28.5 -63 40.5s-54.667 22 -81 30s-61.166 16.667 -104.499 26c-52 12 -97.333 24.333 -136 37s-77.667 29.5 -117 50.5s-71.5 44.667 -96.5 71s-45.5 58.666 -61.5 96.999s-24 81.833 -24 130.5
c0 134.667 46.5 238.334 139.5 311.001s220.167 109 381.5 109c150 0 265.5 -27.667 346.5 -83s118.833 -138.666 113.5 -249.999c-0.666992 -18.667 -11 -27.667 -31 -27h-112c-20.667 0 -32 10 -34 30c-2 50.667 -28.5 89.834 -79.5 117.501s-120.5 41.5 -208.5 41.5
c-106.667 0 -188.334 -20.5 -245.001 -61.5s-85 -101.5 -85 -181.5c0 -60.667 20.5 -107.667 61.5 -141s105.833 -60.333 194.5 -81z" />
    <glyph glyph-name="T" unicode="T" horiz-adv-x="1357" 
d="M1327 1434c22.667 0 32.335 -11.001 29.002 -33.001l-17 -113c-2.66699 -19.333 -13.334 -28.666 -32.001 -27.999h-431l-174 -1231c-2.66699 -19.333 -13.334 -29 -32.001 -29h-130c-22 0 -31.333 11 -28 33l172 1227h-427c-22 0 -31.333 10.667 -28 32l16 113
c2.66699 19.333 13.667 29 33 29h1049z" />
    <glyph glyph-name="U" unicode="U" horiz-adv-x="1498" 
d="M1422 1434c22 0 31.334 -11.001 28.001 -33.001l-116 -827c-28.667 -200 -99.834 -350.667 -213.501 -452s-261.167 -152 -442.5 -152c-185.333 0 -322.5 52.333 -411.5 157s-119.5 257.334 -91.5 458.001l116 820c2.66699 19.333 13.667 29 33 29h130
c22 0 31 -11 27 -33l-115 -827c-20 -140.667 -1.5 -246.167 55.5 -316.5s144.833 -105.5 263.5 -105.5c123.333 0 225.666 36.833 306.999 110.5s132 181.167 152 322.5l116 820c2.66699 19.333 13.334 29 32.001 29h130z" />
    <glyph glyph-name="V" unicode="V" horiz-adv-x="1387" 
d="M1230 1411c8 15.333 21 23 39 23h131c11.333 0 19.5 -4.16699 24.5 -12.5s4.5 -17.833 -1.5 -28.5l-694 -1368c-8 -16.667 -21.667 -25 -41 -25h-124c-20.667 0 -33 10 -37 30l-310 1374c-4 20 4.33301 30 25 30h131c18 0 29 -10 33 -30l246 -1164z" />
    <glyph glyph-name="W" unicode="W" horiz-adv-x="2044" 
d="M1402 241l459.001 1169c6 16 17.333 24 34 24h133c11.333 0 19.166 -3.33301 23.499 -10s4.5 -15.334 0.5 -26.001l-559 -1374c-6 -16 -17.667 -24 -35 -24h-161c-19.333 -0 -30 9.33301 -32 28l-173 1078l-480 -1082c-7.33301 -16 -19 -24 -35 -24h-162
c-19.333 0 -30 9.66699 -32 29l-168 1372c-2 22 7.66699 33 29 33h131c19.333 0 30 -9.66699 32 -29l123 -1164l505 1169c7.33301 16 19.333 24 36 24h124c19.333 0 30.333 -9.66699 33 -29z" />
    <glyph glyph-name="X" unicode="X" horiz-adv-x="1300" 
d="M1277 1434c12 0 20.333 -4.5 25 -13.5s3 -18.167 -5 -27.5l-511 -669l334 -689c5.33301 -10 6.16602 -18.333 2.49902 -25s-11.167 -10 -22.5 -10h-133c-16 -0 -28.333 8.33301 -37 25l-263 543l-420 -550c-9.33301 -12 -23.333 -18 -42 -18h-138
c-12 0 -20.167 4.5 -24.5 13.5s-2.83301 17.833 4.5 26.5l537 701l-319 658c-5.33301 10 -6 18.333 -2 25s12.333 10 25 10h130c16.667 0 29.334 -9 38.001 -27l246 -510l397 518c8.66699 12 21.667 18.333 39 19h139z" />
    <glyph glyph-name="Y" unicode="Y" horiz-adv-x="1442" 
d="M1457 1434c12.667 0 21.002 -3.83301 25.002 -11.5s2 -16.5 -6 -26.5l-658 -843l-74 -524c-2.66699 -19.333 -13.334 -29 -32.001 -29h-130c-22 0 -31.333 11 -28 33l74 525l-419 839c-5.33301 10.667 -5.83301 19.5 -1.5 26.5s12.166 10.5 23.499 10.5h151
c17.333 0 29.333 -7.66699 36 -23l328 -665l525 669c8 12 20.667 18.333 38 19h148z" />
    <glyph glyph-name="Z" unicode="Z" horiz-adv-x="1305" 
d="M1017 1260h-698.001c-21.333 0 -30.666 10.667 -27.999 32l15 113c2 19.333 13 29 33 29h885c22 0 31.333 -11 28 -33l-18 -126c-2 -16 -7.33301 -29 -16 -39l-891 -1062h740c23.333 0 33 -11 29 -33l-16 -112c-2 -19.333 -12.667 -29 -32 -29h-926
c-21.333 0 -31 11 -29 33l19 126c2 16.667 7.33301 29.667 16 39z" />
    <glyph glyph-name="bracketleft" unicode="[" horiz-adv-x="941" 
d="M289 1497c2 19.333 13.001 28.999 33.001 28.999h581c21.333 0 31 -11 29 -33l-13 -93c-2 -19.333 -13 -29 -33 -29h-423l-208 -1483h419c21.333 0 30.666 -10.667 27.999 -32l-14 -94c-2 -19.333 -13 -28.666 -33 -27.999h-581c-23.333 0 -33 11 -29 33z" />
    <glyph glyph-name="backslash" unicode="\" horiz-adv-x="1199" 
d="M282 1434h130c16.667 0 27.334 -9.33301 32.001 -28l520 -1642c5.33301 -20.667 -3.33398 -30.667 -26.001 -30h-124c-17.333 0 -29 9.66699 -35 29l-520 1638c-6 22 1.66699 33 23 33z" />
    <glyph glyph-name="bracketright" unicode="]" horiz-adv-x="935" 
d="M898 1526c21.333 0 31 -11 29 -33l-244 -1731c-2 -19.333 -13 -28.666 -33 -27.999h-576c-22 0 -31.667 11 -29 33l14 93c2 19.333 13 28.666 33 27.999h417l209 1483h-414c-23.333 0 -33 11 -29 33l14 93c2 19.333 13 29 33 29h576z" />
    <glyph glyph-name="asciicircum" unicode="^" horiz-adv-x="1294" 
d="M968 523c-8.66699 -4 -16.668 -3.83301 -24.001 0.5s-12.666 11.166 -15.999 20.499l-194 542l-351 -551c-8.66699 -15.333 -21.334 -17.666 -38.001 -6.99902l-82 47c-19.333 12 -23.666 27 -12.999 45l406 630c8 11.333 20.667 17.333 38 18h115
c15.333 0 26.333 -9.33301 33 -28l230 -631c6 -18.667 2.33301 -31.667 -11 -39z" />
    <glyph glyph-name="underscore" unicode="_" horiz-adv-x="1319" 
d="M1068 0c22.667 0 32.334 -11 29.001 -33l-16 -95c-3.33301 -19.333 -14 -29 -32 -29h-960c-22.667 0 -32.334 11 -29.001 33l16 95c4 19.333 15 29 33 29h959z" />
    <glyph glyph-name="grave" unicode="`" horiz-adv-x="539" 
d="M508 1212c6.66699 -23.333 -1.66602 -34.667 -24.999 -34h-96c-18 0 -29.667 8 -35 24l-86 258c-6.66699 23.333 1.66602 35 24.999 35h96c18 0 29.667 -8.33301 35 -25z" />
    <glyph glyph-name="a" unicode="a" horiz-adv-x="1329" 
d="M1189 971l-115.001 -789.999c-2.66699 -18.667 0 -32.334 8 -41.001s20 -11.667 36 -9c10 1.33301 18.167 -1.5 24.5 -8.5s8.5 -16.833 6.5 -29.5l-9 -51c-6.66699 -37.333 -41.667 -56 -105 -56c-44.667 0 -76 15 -94 45s-24 69 -18 117h-19
c-32 -52.667 -77.833 -95 -137.5 -127s-127.5 -48 -203.5 -48c-132 0 -237.833 42 -317.5 126s-119.5 196.667 -119.5 338c0 111.333 23.833 212.333 71.5 303s112 161 193 211s169.833 75 266.5 75c76 0 142.333 -14.5 199 -43.5s99 -68.167 127 -117.5h16l39 113
c4.66699 17.333 16.334 26 35.001 26h87c22 0 31.667 -11 29 -33zM590.999 142.001c70.667 0 133.833 19.833 189.5 59.5s98 91.167 127 154.5s43.5 131.333 43.5 204c0 96 -26.167 169.5 -78.5 220.5s-119.833 76.5 -202.5 76.5c-106.667 0 -194.167 -38.667 -262.5 -116
s-102.5 -176 -102.5 -296c0 -94 25.833 -168 77.5 -222s121.167 -81 208.5 -81z" />
    <glyph glyph-name="b" unicode="b" horiz-adv-x="1285" 
d="M765 1025c123.333 0 219.666 -39.666 288.999 -118.999s104 -183.333 104 -312c0 -110.667 -22 -212.834 -66 -306.501s-107.5 -169.334 -190.5 -227.001s-176.5 -86.5 -280.5 -86.5c-155.333 0 -267.666 61.667 -336.999 185l-19 -130c-2 -19.333 -13 -29 -33 -29h-120
c-23.333 0 -33 11 -29 33l196 1372c2 19.333 12.667 29 32 29h122c21.333 0 31 -11 29 -33l-80 -557l1 1h25c37.333 54.667 86.5 98.334 147.5 131.001s130.833 49 209.5 49zM596 142.001c78 0 146.667 20.501 206 61.501s104 94.5 134 160.5s45 138.333 45 217
c0 86 -22.5 153.5 -67.5 202.5s-108.833 73.5 -191.5 73.5c-76 0 -144.167 -20 -204.5 -60s-106.5 -92.5 -138.5 -157.5s-48 -135.833 -48 -212.5c0 -86.667 23.667 -155.834 71 -207.501s112 -77.5 194 -77.5z" />
    <glyph glyph-name="c" unicode="c" horiz-adv-x="1198" 
d="M1042 255c18 -10.667 21.0039 -24.999 9.00391 -42.999c-52 -74.667 -117.667 -133.167 -197 -175.5s-166 -63.5 -260 -63.5c-136.667 0 -248.834 45 -336.501 135s-131.5 203 -131.5 339c0 106.667 25.667 204.5 77 293.5s120.166 158.833 206.499 209.5
s179.833 76 280.5 76c92.667 0 175.167 -21.333 247.5 -64s127.5 -101.334 165.5 -176.001c9.33301 -18 5 -31.667 -13 -41l-99 -50c-17.333 -8.66699 -31 -4 -41 14c-26.667 46.667 -63.167 83.167 -109.5 109.5s-98.833 39.5 -157.5 39.5
c-106.667 0 -196.334 -38.167 -269.001 -114.5s-109 -174.5 -109 -294.5c0 -91.333 27.5 -165.333 82.5 -222s125.833 -85 212.5 -85c132 0 237.333 53.333 316 160c11.333 16.667 25.666 19 42.999 7z" />
    <glyph glyph-name="d" unicode="d" horiz-adv-x="1320" 
d="M1242 1401l-175.003 -1220c-2.66699 -18.667 -0.166992 -32.167 7.5 -40.5s19.834 -11.5 36.501 -9.5c10 1.33301 18 -1.33398 24 -8.00098s8 -16.667 6 -30l-8 -51c-6.66699 -37.333 -42 -56 -106 -56c-44 0 -75 14.5 -93 43.5s-25 67.5 -21 115.5h-19
c-28 -52 -71 -93.667 -129 -125s-124 -47 -198 -47c-133.333 0 -240.333 42 -321 126s-121 196 -121 336c0 110.667 24.167 211.334 72.5 302.001s114 161.5 197 212.5s174.5 76.5 274.5 76.5c70.667 0 132.834 -14.333 186.501 -43s93.834 -68 120.501 -118h18v93l65 447
c2 19.333 13 29 33 29h121c23.333 0 33 -11 29 -33zM599.997 142c66 0 125.833 20.5 179.5 61.5s94.5 93.333 122.5 157s42 130.834 42 201.501c0 95.333 -25.167 168.5 -75.5 219.5s-114.833 76.5 -193.5 76.5c-107.333 0 -196.166 -39.333 -266.499 -118
s-105.5 -177.334 -105.5 -296.001c0 -94 26.667 -167.833 80 -221.5s125.666 -80.5 216.999 -80.5z" />
    <glyph glyph-name="e" unicode="e" horiz-adv-x="1269" 
d="M795 423h-499.004c-1.33301 -88 27.834 -158.833 87.501 -212.5s142.834 -80.5 249.501 -80.5c116.667 0 214.334 32.667 293.001 98c16.667 12.667 32.334 11.334 47.001 -3.99902l47 -53c18 -19.333 18.333 -36.666 1 -51.999
c-102.667 -96.667 -240 -145.334 -412 -146.001c-150 0 -268.333 42.833 -355 128.5s-130 195.5 -130 329.5c0 106 25.833 204.5 77.5 295.5s123 163.667 214 218s190.833 81.5 299.5 81.5c74 0 139.667 -10.333 197 -31s103 -48.5 137 -83.5s59.5 -73.333 76.5 -115
s25.5 -84.834 25.5 -129.501c0 -86 -26.5 -148.167 -79.5 -186.5s-145.167 -57.5 -276.5 -57.5zM708.996 866c-91.333 0 -172.668 -27.8311 -244.001 -83.498s-120.333 -128.5 -147 -218.5h424c37.333 0 67.333 0.5 90 1.5s45.167 3.66699 67.5 8s39.333 10.166 51 17.499
s20.834 17.666 27.501 30.999s10 30 10 50c-0.666992 52.667 -25 98.167 -73 136.5s-116.667 57.5 -206 57.5z" />
    <glyph glyph-name="f" unicode="f" horiz-adv-x="1311" 
d="M1085 1509c70.667 0 137.832 -7.16992 201.499 -21.5029s93.5 -31.166 89.5 -50.499l-18 -97c-4 -20 -15 -27.667 -33 -23c-2 0.666992 -9.33301 2.83398 -22 6.50098s-24.167 6.5 -34.5 8.5l-40.5 8c-16.667 3.33301 -35.334 5.83301 -56.001 7.5s-43 2.5 -67 2.5
c-47.333 0 -89.333 -3.66699 -126 -11s-72 -20 -106 -38s-61.667 -44.667 -83 -80s-36 -78 -44 -128l-12 -89h436c22 0 31.667 -11 29 -33l-12 -93c-2 -19.333 -13 -29 -33 -29h-442l-118 -834c-9.33301 -66 -24.833 -123.833 -46.5 -173.5s-46.334 -89.667 -74.001 -120
s-60 -54.833 -97 -73.5s-73.667 -31.167 -110 -37.5s-75.833 -9.5 -118.5 -9.5c-38.667 0 -76.834 4.5 -114.501 13.5s-69.834 20.333 -96.501 34s-50.167 28 -70.5 43s-34.166 29.167 -41.499 42.5s-8.33301 23.333 -3 30l54 71c11.333 16.667 24.333 19 39 7
c78 -56 153.667 -84 227 -84c22 0 43.333 2.16699 64 6.5s42.334 12.833 65.001 25.5s43 28.667 61 48s34.333 45.833 49 79.5s25.334 72.834 32.001 117.501l114 814h-262c-21.333 0 -30.666 11 -27.999 33l12 93c2 19.333 13 29 33 29h267l15 110
c36.667 263.333 210.334 395 521.001 395z" />
    <glyph glyph-name="g" unicode="g" horiz-adv-x="1263" 
d="M1137 1004c22 0 31.3291 -11.002 27.9961 -33.002l-134 -936c-9.33301 -67.333 -26.666 -127.333 -51.999 -180s-54.666 -95.167 -87.999 -127.5s-71.833 -58.666 -115.5 -78.999s-87 -34.5 -130 -42.5s-88.833 -12 -137.5 -12c-150 0 -276.667 37 -380 111
c-18 12 -21.667 26.333 -11 43l56 83c8.66699 14.667 21.667 16.334 39 5.00098c80.667 -54.667 184.667 -82 312 -82c40.667 0 78.334 4.33301 113.001 13s68.167 23 100.5 43s59.5 49.167 81.5 87.5s37 84.166 45 137.499l17 108c-24.667 -52.667 -65 -94.167 -121 -124.5
s-120.333 -45.5 -193 -45.5c-133.333 0 -240.333 42 -321 126s-121 196 -121 336c0 110.667 24.167 211.334 72.5 302.001s113.833 161.5 196.5 212.5s173.667 76.5 273 76.5c70.667 0 133 -14.5 187 -43.5s92.333 -68.167 115 -117.5h20l26 113
c2.66699 17.333 14.334 26 35.001 26h87zM599.996 141.998c66 0 125.833 20.5 179.5 61.5s94.5 93.333 122.5 157s42 130.834 42 201.501c0 95.333 -25.167 168.5 -75.5 219.5s-114.833 76.5 -193.5 76.5c-107.333 0 -196.166 -39.333 -266.499 -118
s-105.5 -177.334 -105.5 -296.001c0 -94 26.667 -167.833 80 -221.5s125.666 -80.5 216.999 -80.5z" />
    <glyph glyph-name="h" unicode="h" horiz-adv-x="1273" 
d="M1064 131c10 1.33301 17.998 -1.33496 23.998 -8.00195s8 -16.667 6 -30l-9 -51c-6.66699 -37.333 -41.667 -56 -105 -56c-54.667 0 -94.5 16.167 -119.5 48.5s-33.833 72.833 -26.5 121.5l62 447c12 84.667 -1.33301 148.334 -40 191.001s-94 64 -166 64
c-80.667 0 -150.667 -21.667 -210 -65s-101.666 -92.333 -126.999 -147l-88 -617c-2 -19.333 -13 -29 -33 -29h-120c-23.333 0 -33 11 -29 33l196 1372c2 19.333 12.667 29 32 29h122c21.333 0 31 -11 29 -33l-80 -558h15c33.333 52.667 81 96.334 143 131.001
s132 52 210 52c116 0 205.667 -36 269 -108s85 -173.667 65 -305l-64 -432c-2.66699 -18.667 -0.166992 -32.167 7.5 -40.5s19.834 -11.5 36.501 -9.5z" />
    <glyph glyph-name="i" unicode="i" 
d="M671 1231c-31.333 0 -57.833 10.667 -79.5 32s-32.5 47.833 -32.5 79.5s10.833 58.167 32.5 79.5s48.167 32 79.5 32s57.666 -10.667 78.999 -32s32 -47.833 32 -79.5s-10.667 -58.167 -32 -79.5s-47.666 -32 -78.999 -32zM1111 151
c6.66699 -14.667 4.66309 -27.334 -6.00391 -38.001c-31.333 -33.333 -77.333 -63.833 -138 -91.5s-127.334 -41.5 -200.001 -41.5c-32.667 0 -63.167 2.66699 -91.5 8s-57 14.333 -86 27s-53.667 29.667 -74 51s-38.166 48 -53.499 80s-24.166 69.667 -26.499 113
s-0.166016 93.333 6.50098 150l68 436h-350c-10 0 -17.667 2.83301 -23 8.5s-7.33301 13.834 -6 24.501l12 97c2.66699 19.333 13.667 29 33 29h508c22 0 31.333 -11 28 -33l-86 -563c-4 -38 -5.66699 -71.333 -5 -100s5.83398 -52.834 15.501 -72.501s20 -35.667 31 -48
s24.667 -22 41 -29s31.5 -11.667 45.5 -14s29 -3.5 45 -3.5c76.667 0 152.334 31 227.001 93c20 16.667 35 14.334 45 -6.99902z" />
    <glyph glyph-name="j" unicode="j" horiz-adv-x="991" 
d="M832.5 1231c-31.667 0 -58.167 10.667 -79.5 32s-32 47.833 -32 79.5s10.667 58.167 32 79.5s47.833 32 79.5 32s58.167 -10.667 79.5 -32s32 -47.833 32 -79.5s-10.667 -58.167 -32 -79.5s-47.833 -32 -79.5 -32zM859 1004c8.66699 0 16.1641 -3.6709 22.4971 -11.0039
s8.83301 -15.666 7.5 -24.999l-132 -942c-38 -280 -192 -420 -462 -420c-38.667 0 -77.167 4.33301 -115.5 13s-71.166 19.834 -98.499 33.501s-51.333 27.834 -72 42.501s-35.167 28.5 -43.5 41.5s-10.5 22.833 -6.5 29.5l60 83c12.667 18.667 29.667 20.334 51 5.00098
c68.667 -53.333 145.667 -80 231 -80c29.333 0 56.833 3.5 82.5 10.5s52.334 19.5 80.001 37.5s51.334 46 71.001 84s33.167 84.333 40.5 139l112 800h-448c-22 0 -31.667 11 -29 33l14 97c2.66699 19.333 13.667 29 33 29h602z" />
    <glyph glyph-name="k" unicode="k" horiz-adv-x="1185" 
d="M1095 1009c13.333 0 22.168 -4.66797 26.501 -14.001s1.5 -18.666 -8.5 -27.999l-447 -392l368 -538c13.333 -21.333 7.66602 -32 -17.001 -32h-148c-11.333 0 -22 7.66699 -32 23l-297 437l-243 -212l-32 -224c-2 -19.333 -13 -29 -33 -29h-120c-23.333 0 -33 11 -29 33
l196 1372c2 19.333 12.667 29 32 29h122c21.333 0 31 -11 29 -33l-130 -909l569 504c8 8 21 12.333 39 13h155z" />
    <glyph glyph-name="l" unicode="l" horiz-adv-x="1258" 
d="M1137 147c5.33301 -12 2.66602 -22.998 -8.00098 -32.998c-34 -33.333 -84 -64 -150 -92s-139 -42 -219 -42c-34.667 0 -67.167 2.66699 -97.5 8s-60.166 14.5 -89.499 27.5s-54.166 30 -74.499 51s-38.333 47.667 -54 80s-24.5 70.166 -26.5 113.499
s0.333008 93.333 7 150l132 865h-358c-22 0 -31.667 11 -29 33l14 97c2.66699 19.333 13.667 29 33 29h511c22 0 31.667 -11 29 -33l-149 -992c-27.333 -177.333 34.667 -266.333 186 -267c85.333 0 170.666 31.667 255.999 95c18.667 13.333 33 10.666 43 -8.00098z" />
    <glyph glyph-name="m" unicode="m" horiz-adv-x="1478" 
d="M1225 181c-2.66699 -18.667 -0.165039 -32.3311 7.50195 -40.998s19.834 -11.667 36.501 -9c10 1.33301 18 -1.33398 24 -8.00098s7.66699 -16.667 5 -30l-8 -51c-6.66699 -37.333 -41.667 -56 -105 -56c-54 0 -92.167 15.833 -114.5 47.5s-29.5 72.5 -21.5 122.5l75 527
c9.33301 67.333 6.16602 114.666 -9.50098 141.999s-45.834 41 -90.501 41c-52.667 0 -96.834 -17 -132.501 -51s-59.167 -72 -70.5 -114l-95 -672c-2.66699 -19.333 -13.667 -29 -33 -29h-108c-22 0 -31.333 11 -28 33l91 650c9.33301 68 6 115.5 -10 142.5
s-46.333 40.5 -91 40.5c-51.333 0 -94.666 -17 -129.999 -51s-59.333 -72 -72 -114l-95 -672c-2.66699 -19.333 -13.667 -29 -33 -29h-112c-22 0 -31 11 -27 33l132 942c2.66699 19.333 13.667 29 33 29h103c22 0 32 -10.667 30 -32l-10 -91h13
c50.667 96.667 130.167 145 238.5 145s174.5 -48.333 198.5 -145h12c55.333 96.667 138.666 145 249.999 145c88 0 150.833 -27.5 188.5 -82.5s47.167 -145.167 28.5 -270.5z" />
    <glyph glyph-name="n" unicode="n" horiz-adv-x="1271" 
d="M1061 131c10 1.33301 18.166 -1.50195 24.499 -8.50195s8.5 -16.833 6.5 -29.5l-10 -51c-6.66699 -37.333 -41.334 -56 -104.001 -56c-54.667 0 -94.667 16.167 -120 48.5s-34.666 72.833 -27.999 121.5l64 447c12 84.667 -1.33301 148.334 -40 191.001
s-94.334 64 -167.001 64c-85.333 0 -158.833 -24.5 -220.5 -73.5s-102.167 -101.167 -121.5 -156.5l-85 -599c-2 -19.333 -13 -29 -33 -29h-121c-23.333 0 -32.666 11 -27.999 33l134 942c2 19.333 13 29 33 29h111c8.66699 0 16 -3.66699 22 -11s8.33301 -15.666 7 -24.999
l-9 -125h18c34 52.667 81.833 96.334 143.5 131.001s131.834 52 210.501 52c56 0 106.667 -8.83301 152 -26.5s83.333 -43.5 114 -77.5s52.167 -77.333 64.5 -130s13.166 -112.334 2.49902 -179.001l-64 -432c-2.66699 -18.667 -0.166992 -32.167 7.5 -40.5
s19.834 -11.5 36.501 -9.5zM336.999 584.998l5 30c-3.33301 -12 -5 -22 -5 -30z" />
    <glyph glyph-name="o" unicode="o" horiz-adv-x="1290" 
d="M594 -27c-136.667 0 -248.833 45 -336.5 135s-131.5 203 -131.5 339c0 106.667 25.667 204.5 77 293.5s120.166 158.833 206.499 209.5s179.833 76 280.5 76c136.667 0 248.834 -44.667 336.501 -134s131.5 -202 131.5 -338c0 -80 -15 -156 -45 -228
s-70.333 -133.5 -121 -184.5s-110.5 -91.833 -179.5 -122.5s-141.833 -46 -218.5 -46zM600.001 142c107.333 0 197.334 37.999 270.001 113.999s109 174.667 109 296c0 90.667 -27.5 164.334 -82.5 221.001s-126.167 85 -213.5 85
c-106.667 0 -196.334 -38.167 -269.001 -114.5s-109 -174.5 -109 -294.5c0 -91.333 27.5 -165.333 82.5 -222s125.833 -85 212.5 -85z" />
    <glyph glyph-name="p" unicode="p" horiz-adv-x="1280" 
d="M760 1025c123.333 0 219.667 -39.667 289 -119s104 -183.333 104 -312c0 -110.667 -22 -212.834 -66 -306.501s-107.5 -169.334 -190.5 -227.001s-176.833 -86.5 -281.5 -86.5c-154 0 -266.333 57.333 -337 172l-73 -506c-2.66699 -19.333 -13.667 -29 -33 -29h-121
c-22 0 -31.333 11 -28 33l189 1331c2.66699 19.333 13.667 29 33 29h111c8.66699 0 15.834 -3.66699 21.501 -11s8.16699 -15.666 7.5 -24.999l-8 -123h16c37.333 54.667 87.166 98.334 149.499 131.001s134.833 49 217.5 49zM591.001 142c78 0 146.667 20.499 206 61.499
s104 94.5 134 160.5s45 138.333 45 217c0 86 -22.5 153.5 -67.5 202.5s-108.833 73.5 -191.5 73.5c-118 0 -214.333 -42.167 -289 -126.5s-112 -185.5 -112 -303.5c0 -87.333 24.333 -156.666 73 -207.999s116 -77 202 -77z" />
    <glyph glyph-name="q" unicode="q" horiz-adv-x="1287" 
d="M1158 1004c8.66699 0 16.1641 -3.66797 22.4971 -11.001s8.83301 -15.666 7.5 -24.999l-187 -1332c-2 -17.333 -11.667 -25.666 -29 -24.999h-123c-9.33301 0 -17.166 3.66699 -23.499 11s-8.83301 15.666 -7.5 24.999l68 485c-30 -48.667 -73 -87.334 -129 -116.001
s-119.333 -43 -190 -43c-133.333 0 -240.333 42 -321 126s-121 196 -121 336c0 110.667 24.167 211.334 72.5 302.001s114 161.5 197 212.5s174.5 76.5 274.5 76.5c70.667 0 132.834 -14.333 186.501 -43s93.834 -68 120.501 -118h14l16 113c2 17.333 11.667 26 29 26h123z
M599.997 141.999c66 0 125.833 20.5 179.5 61.5s94.5 93.333 122.5 157s42 130.834 42 201.501c0 95.333 -25.167 168.5 -75.5 219.5s-114.833 76.5 -193.5 76.5c-107.333 0 -196.166 -39.333 -266.499 -118s-105.5 -177.334 -105.5 -296.001
c0 -94 26.667 -167.833 80 -221.5s125.666 -80.5 216.999 -80.5z" />
    <glyph glyph-name="r" unicode="r" horiz-adv-x="1163" 
d="M757 1026c57.333 0 108.829 -8.83594 154.496 -26.5029s84 -43.5 115 -77.5s52.333 -77.167 64 -129.5s12.167 -111.5 1.5 -177.5c-2 -16.667 -14.333 -25.667 -37 -27l-116 -15c-23.333 -2 -34 8.33301 -32 31c10.667 86.667 -2.66602 150.834 -39.999 192.501
s-94 62.5 -170 62.5c-50.667 0 -98 -8.5 -142 -25.5s-79.667 -38.5 -107 -64.5s-49.5 -50.833 -66.5 -74.5s-29.167 -45.5 -36.5 -65.5l-85 -600c-2.66699 -19.333 -13.667 -29 -33 -29h-121c-22 0 -31.333 11 -28 33l134 942c2.66699 19.333 13.667 29 33 29h111
c8.66699 0 15.834 -3.66699 21.501 -11s8.16699 -15.666 7.5 -24.999l-9 -125h17c34.667 52.667 83.334 96.334 146.001 131.001s135.334 52 218.001 52z" />
    <glyph glyph-name="s" unicode="s" horiz-adv-x="1186" 
d="M595 571c36.667 -4 67.498 -7.83008 92.498 -11.4971s54.333 -9.33398 88 -17.001s62 -15.667 85 -24s46.833 -19.5 71.5 -33.5s44.334 -29.5 59.001 -46.5s26.667 -37.833 36 -62.5s14 -51.667 14 -81c0 -68.667 -22.333 -128 -67 -178
s-103.834 -86.833 -177.501 -110.5s-157.5 -35.5 -251.5 -35.5c-70.667 0 -133.834 5.66699 -189.501 17s-104.334 29.166 -146.001 53.499s-73 56.833 -94 97.5s-30.5 88.667 -28.5 144c0.666992 18.667 10.334 27.667 29.001 27h118c18 0 27.667 -11.333 29 -34
c5.33301 -98.667 101 -148 287 -148c40.667 0 79.334 3 116.001 9s70 15.333 100 28s53.667 29.834 71 51.501s26 46.167 26 73.5c0 16.667 -2.66699 31.167 -8 43.5s-14.833 23.166 -28.5 32.499s-27.167 17 -40.5 23s-32.5 11.833 -57.5 17.5s-46.5 10 -64.5 13
s-43.667 6.83301 -77 11.5l-69.5 10c-18.333 2.66699 -40.5 6.5 -66.5 11.5s-47.833 10 -65.5 15s-37.5 11.833 -59.5 20.5s-40.167 17.5 -54.5 26.5s-29 20.167 -44 33.5s-27 27.833 -36 43.5s-16.167 33.667 -21.5 54s-8 42.5 -8 66.5c0 98.667 42.5 175.667 127.5 231
s198.5 83 340.5 83c136.667 0 242.5 -24.5 317.5 -73.5s111.833 -127.167 110.5 -234.5c0 -18.667 -10.667 -28 -32 -28h-114c-9.33301 0 -16 2.5 -20 7.5s-6.33301 12.833 -7 23.5c-3.33301 54.667 -27.666 93.167 -72.999 115.5s-107.666 33.5 -186.999 33.5
c-82.667 0 -150.834 -12.833 -204.501 -38.5s-80.5 -64.834 -80.5 -117.501c0 -44.667 21.333 -77 64 -97s106.334 -35.333 191.001 -46z" />
    <glyph glyph-name="t" unicode="t" horiz-adv-x="1208" 
d="M1082 1004c22 0 31.666 -11.001 28.999 -33.001l-13 -98c-2 -19.333 -13 -28.666 -33 -27.999h-449l-65 -437c-26 -177.333 36 -266.333 186 -267c36 0 72.167 6.5 108.5 19.5s62.333 24.5 78 34.5s35.5 23.667 59.5 41c6.66699 5.33301 14.334 7.33301 23.001 6
s15.334 -6.33301 20.001 -15l41 -83c4.66699 -10 2 -20 -8 -30c-30.667 -32 -78.334 -62.333 -143.001 -91s-135 -43 -211 -43c-34 0 -66 2.66699 -96 8s-59.667 14.333 -89 27s-54.333 29.667 -75 51s-38.834 48 -54.501 80s-25 69.667 -28 113s-1.16699 93.333 5.5 150
l63 436h-271c-10 0 -17.667 2.83301 -23 8.5s-7.33301 13.834 -6 24.501l12 97c2.66699 19.333 13.667 29 33 29h278l39 268c2.66699 19.333 13.334 28.666 32.001 27.999h125c22 0 31.667 -10.667 29 -32l-39 -264h442z" />
    <glyph glyph-name="u" unicode="u" 
d="M1104 971l-113.999 -790c-2.66699 -18.667 0 -32.167 8 -40.5s20 -11.5 36 -9.5c10 1.33301 18 -1.33398 24 -8.00098s8 -16.667 6 -30l-8 -51c-6.66699 -37.333 -42 -56 -106 -56c-53.333 0 -90 15.667 -110 47s-26.333 72.333 -19 123l3 22h-16
c-28.667 -56 -75 -102.833 -139 -140.5s-137 -56.5 -219 -56.5c-111.333 0 -198.333 36.833 -261 110.5s-84.334 175.834 -65.001 306.501l83 577c2 19.333 13 29 33 29h121c22.667 0 32.334 -11 29.001 -33l-81 -562c-12 -84.667 0.666992 -148.5 38 -191.5
s90 -64.5 158 -64.5c78.667 0 145.167 23 199.5 69s98.166 102 131.499 168l85 588c2 17.333 13.333 26 34 26h120c23.333 0 33 -11 29 -33z" />
    <glyph glyph-name="v" unicode="v" horiz-adv-x="1242" 
d="M1009 977c4 18 15.3311 26.999 33.998 26.999h137c22.667 0 31 -11.667 25 -35c-30.667 -126.667 -78.5 -251 -143.5 -373s-138.333 -228.5 -220 -319.5s-170.167 -164.333 -265.5 -220s-186.666 -83.5 -273.999 -83.5h-26c-44.667 0 -78.5 14.167 -101.5 42.5
s-30.833 64.166 -23.5 107.499l103 726h-94c-21.333 0 -31 11 -29 33l12 93c2.66699 19.333 13.667 29 33 29h250c8.66699 0 16 -3.66699 22 -11s8.33301 -15.666 7 -24.999l-120 -824c51.333 0 111 22.667 179 68s134.5 104.833 199.5 178.5s124.833 162.834 179.5 267.501
s93.334 211 116.001 319z" />
    <glyph glyph-name="w" unicode="w" horiz-adv-x="1399" 
d="M1263 1004c20.667 0 30.6641 -10.334 29.9971 -31.001c-1.33301 -135.333 -11.166 -261.333 -29.499 -378s-45.666 -222.334 -81.999 -317.001s-84.666 -169.167 -144.999 -223.5s-129.5 -81.5 -207.5 -81.5c-94.667 0 -158.667 38 -192 114
c-56.667 -76.667 -140 -115 -250 -115c-36.667 0 -70.334 5.66699 -101.001 17s-58 29 -82 53s-41 57.167 -51 99.5s-10.667 91.833 -2 148.5l81 559h-72c-21.333 0 -31 11 -29 33l12 93c2.66699 19.333 13.667 29 33 29h219c8.66699 0 16.167 -3.66699 22.5 -11
s8.83301 -15.666 7.5 -24.999l-97 -666c-7.33301 -53.333 -3.16602 -92.666 12.501 -117.999s44.834 -38 87.501 -38c93.333 0 147 49.667 161 149l98 680c2 19.333 13 29 33 29h100c22 0 31.667 -11 29 -33l-93 -681c-6.66699 -48 -3.83398 -84 8.49902 -108
s38.833 -36 79.5 -36c54.667 0 103 38.5 145 115.5s74 177.5 96 301.5s33.667 260.667 35 410c0 20.667 10.333 31 31 31h112z" />
    <glyph glyph-name="x" unicode="x" horiz-adv-x="1300" 
d="M1113 37c6.66699 -10 8.16797 -18.668 4.50098 -26.001s-11.5 -11 -23.5 -11h-151c-16.667 0 -29 6.33301 -37 19l-268 370l-380 -374c-10 -10 -23 -15 -39 -15h-147c-13.333 0 -21.833 3.83301 -25.5 11.5s-0.833984 16.167 8.49902 25.5l490 479l-330 451
c-6.66699 10.667 -8.33398 19.5 -5.00098 26.5s11 10.5 23 10.5h150c16 0 28.333 -6.33301 37 -19l248 -344l349 346c10 10.667 22.667 16.334 38 17.001h147c13.333 0 21.833 -3.66699 25.5 -11s0.833984 -16 -8.49902 -26l-457 -451z" />
    <glyph glyph-name="y" unicode="y" horiz-adv-x="1233" 
d="M1107 1004c23.333 0 32.999 -10.998 28.999 -32.998l-130 -889c-8.66699 -60 -22.167 -114.333 -40.5 -163s-38.833 -89.334 -61.5 -122.001s-49 -61.334 -79 -86.001s-59.333 -43.834 -88 -57.501s-60.334 -24.667 -95.001 -33s-66 -13.666 -94 -15.999
s-58 -3.5 -90 -3.5c-78.667 0 -148 9.16699 -208 27.5s-109.333 49.833 -148 94.5s-58.334 100 -59.001 166c0 20.667 10.333 31 31 31h114c16 0 26.667 -9.66699 32 -29c10.667 -48.667 38 -83 82 -103s101.667 -30 173 -30c46 0 87 5 123 15s70 26.833 102 50.5
s58.333 57.167 79 100.5s35.334 96 44.001 158l20 133h-5c-30.667 -56 -77.167 -101.333 -139.5 -136s-135.5 -52 -219.5 -52c-116.667 0 -205.5 33.333 -266.5 100s-81.5 167.334 -61.5 302.001l79 546c2.66699 19.333 13.667 29 33 29h121c22 0 31.667 -11 29 -33
l-76 -532c-6 -46.667 -5.66699 -86.167 1 -118.5s19.834 -57 39.501 -74s41.834 -29.167 66.501 -36.5s53.667 -11 87 -11c45.333 0 87.5 7.16699 126.5 21.5s72.167 33.833 99.5 58.5s50.333 49.667 69 75s34.667 52.666 48 81.999l78 542c2 17.333 13.667 26 35 26h120z
M908.999 540.002c0.666992 1.33301 1 3 1 5z" />
    <glyph glyph-name="z" unicode="z" horiz-adv-x="1207" 
d="M1100 968l-15 -102c-2.66699 -18 -7.66699 -30.667 -15 -38l-736 -673h653c23.333 0 33 -11 29 -33l-14 -93c-2 -19.333 -12.667 -29 -32 -29h-842c-8.66699 0 -16.167 3.66699 -22.5 11s-8.83301 15.666 -7.5 24.999l14 101c2.66699 18 8 31 16 39l735 673h-653
c-23.333 0 -33 11 -29 33l14 93c2 19.333 12.667 29 32 29h843c8.66699 0 16.167 -3.66699 22.5 -11s8.83301 -15.666 7.5 -24.999z" />
    <glyph glyph-name="braceleft" unicode="{" horiz-adv-x="1087" 
d="M604 886c-2.66699 -20.667 -6.66504 -33.332 -11.998 -37.999l-231 -222l161 -226c8 -11.333 11 -24.333 9 -39l-58 -406c-6 -44 13.667 -66 59 -66h287c21.333 0 31 -10.667 29 -32l-13 -95c-2 -19.333 -13 -28.666 -33 -27.999h-385c-46 0 -83 15.5 -111 46.5
s-38.667 72.5 -32 124.5l62 442c0 2 0.833008 6.33301 2.5 13s2.5 11.667 2.5 15s-1.33301 6.66602 -4 9.99902l-165 219c-10 13.333 -8.66699 27.666 4 42.999l223 235c9.33301 10 15.666 23.333 18.999 40l62 443c6.66699 51.333 26.834 91 60.501 119s73.167 42 118.5 42
h391c21.333 0 30.666 -11 27.999 -33l-13 -94c-2 -19.333 -13 -29 -33 -29h-283c-22 0 -41.333 -7.33301 -58 -22s-26.334 -32.667 -29.001 -54z" />
    <glyph glyph-name="bar" unicode="|" horiz-adv-x="529" 
d="M325 1610c2 19.333 12.667 28.667 32 28h130c21.333 0 31 -10.667 29 -32l-276 -1966c-2 -19.333 -13 -29 -33 -29h-130c-21.333 0 -31 11 -29 33z" />
    <glyph glyph-name="braceright" unicode="}" horiz-adv-x="1087" 
d="M593 896l56.999 409c6 44 -13.333 65.667 -58 65h-288c-22 0 -31.667 11 -29 33l14 94c2 19.333 13 29 33 29h383c46 0 83 -15.5 111 -46.5s38.667 -72.5 32 -124.5l-63 -444l-2.5 -10c-1 -4 -1.66699 -7.16699 -2 -9.5s-0.166016 -5.16602 0.500977 -8.49902
s2.33398 -7 5.00098 -11l164 -223c10 -14.667 9 -29 -3 -43l-223 -230c-10 -10 -16 -23 -18 -39l-62 -442c-7.33301 -51.333 -28.166 -91 -62.499 -119s-74.166 -42 -119.499 -42h-388c-22 0 -31.667 11 -29 33l14 94c2 19.333 13 28.666 33 27.999h284
c21.333 0 40.166 7.16699 56.499 21.5s26.166 32.5 29.499 54.5l56 407c0 2 0.166992 5.16699 0.5 9.5s0.666016 7.66602 0.999023 9.99902s1.33301 5.33301 3 9s4.16699 6.83398 7.5 9.50098l228 216l-158 231c-6.66699 10 -9 23 -7 39z" />
    <glyph glyph-name="asciitilde" unicode="~" horiz-adv-x="1270" 
d="M458 751c37.333 0 71.668 -6.66504 103.001 -19.998s57.666 -29.333 78.999 -48s41.5 -37.334 60.5 -56.001s40.333 -34.667 64 -48s48.834 -20 75.501 -20c38 0 69.333 8.66699 94 26s42.334 37.666 53.001 60.999c6.66699 13.333 17.667 20.333 33 21h69
c19.333 0 26 -11.667 20 -35c-15.333 -63.333 -47.833 -113.333 -97.5 -150s-109.834 -55 -180.501 -55c-36.667 0 -70.5 6.66699 -101.5 20s-57 29.333 -78 48l-60.5 56c-19.333 18.667 -40.5 34.5 -63.5 47.5s-47.167 19.5 -72.5 19.5c-65.333 0 -115 -29.333 -149 -88
c-6.66699 -12.667 -17.334 -19 -32.001 -19h-65c-20.667 0 -28.334 13.333 -23.001 40c16.667 60 49.334 108.333 98.001 145s106.667 55 174 55z" />
    <glyph glyph-name="exclamdown" unicode="&#xa1;" horiz-adv-x="670" 
d="M397.5 1092c40.333 0 74.5 -14 102.5 -42s42 -62.167 42 -102.5s-14 -74.833 -42 -103.5s-62.167 -43 -102.5 -43s-74.5 14.333 -102.5 43s-42 63.167 -42 103.5s14 74.5 42 102.5s62.167 42 102.5 42zM226 -385c-38 0 -68.167 13.832 -90.5 41.499
s-28.833 61.167 -19.5 100.5l180 873c3.33301 18.667 14.333 27.667 33 27h66c22 0 32 -10.333 30 -31l-69 -879c-2.66699 -39.333 -16.5 -71.166 -41.5 -95.499s-54.5 -36.5 -88.5 -36.5z" />
    <glyph glyph-name="cent" unicode="&#xa2;" horiz-adv-x="1198" 
d="M1123 925c9.33301 -18 5.00098 -31.6699 -12.999 -41.0029l-98 -49c-17.333 -8 -31 -3.66699 -41 13c-46 78.667 -115.667 125.667 -209 141l-97 -694c112 10.667 202.667 62.334 272 155.001c11.333 16.667 25.666 19 42.999 7l83 -54c18 -10.667 20.667 -24.667 8 -42
c-49.333 -69.333 -111.166 -124.5 -185.499 -165.5s-155.833 -63.167 -244.5 -66.5l-26 -182c-2.66699 -19.333 -13.334 -29 -32.001 -29h-74c-22 0 -31.667 11 -29 33l27 187c-108.667 22.667 -196 75.334 -262 158.001s-99 181.334 -99 296.001
c0 147.333 48.5 274.333 145.5 381s216.5 167.667 358.5 183l35 249c2.66699 19.333 13.667 29 33 29h74c22 0 31.333 -11 28 -33l-35 -247c76 -10 143 -35 201 -75s103.667 -91.333 137 -154zM326.001 592.997c0 -72.667 18.3311 -134.333 54.998 -185
s86.334 -85 149.001 -103l96 681c-87.333 -18 -159.166 -62.5 -215.499 -133.5s-84.5 -157.5 -84.5 -259.5z" />
    <glyph glyph-name="sterling" unicode="&#xa3;" horiz-adv-x="1306" 
d="M813 1450c134.667 0 239.33 -29 313.997 -87s112 -142.667 112 -254c0 -18.667 -0.333008 -32 -1 -40s-3.66699 -15.667 -9 -23s-13.666 -11 -24.999 -11l-117 -3c-21.333 0 -30.666 10.333 -27.999 31c2.66699 74 -19 129.167 -65 165.5s-113 54.5 -201 54.5
c-98.667 0 -175.834 -26.833 -231.501 -80.5s-83.5 -127.5 -83.5 -221.5c0 -21.333 2 -43 6 -65s8.16699 -39.167 12.5 -51.5s11.333 -31.166 21 -56.499s16.5 -42.333 20.5 -51h489c21.333 0 31 -11 29 -33l-17 -109c-2 -19.333 -12.667 -28.666 -32 -27.999h-438v-9
c0 -166.667 -59.667 -301.334 -179 -404.001h682c23.333 0 33 -11 29 -33l-16 -112c-2 -19.333 -12.667 -29 -32 -29h-911c-21.333 0 -30.666 11 -27.999 33l16 119c1.33301 12.667 9.66602 24 24.999 34c74.667 42 133.167 96 175.5 162s63.5 139 63.5 219v20h-162
c-21.333 0 -30.666 11 -27.999 33l16 108c2 19.333 13 29 33 29h100c-10.667 30.667 -18.667 54.5 -24 71.5s-11 40.667 -17 71s-9 60.166 -9 89.499c0 147.333 45.333 261 136 341s215.334 120 374.001 120z" />
    <glyph glyph-name="currency" unicode="&#xa4;" horiz-adv-x="1400" 
d="M1171 1239c36 -62.667 54.333 -132.001 55 -208.001c0 -121.333 -41.333 -230.666 -124 -327.999l82 -93l-107 -94l-81 92c-88 -61.333 -183.333 -92 -286 -92c-105.333 0 -195.666 32 -270.999 96l-107 -96l-86 94l112 100c-36.667 63.333 -55 133.333 -55 210
c0 123.333 42.333 233.333 127 330l-80 92l106 95l81 -92c88.667 59.333 183 89 283 89c105.333 0 195.666 -32.333 270.999 -97l110 100l87 -95zM721 636.999c67.333 0 131 18.166 191 54.499s107.667 83.833 143 142.5s53 119.667 53 183
c0 80.667 -28.5 150.334 -85.5 209.001s-128.5 88 -214.5 88c-102.667 0 -192.5 -39.5 -269.5 -118.5s-115.5 -166.833 -115.5 -263.5c0 -80.667 28.167 -150 84.5 -208s127.5 -87 213.5 -87z" />
    <glyph glyph-name="yen" unicode="&#xa5;" horiz-adv-x="1442" 
d="M1457 1434c12.667 0 21.001 -3.83398 25.001 -11.501s2 -16.5 -6 -26.5l-588 -754h269c22 0 31.667 -11 29 -33l-12 -88c-2.66699 -19.333 -13.667 -28.666 -33 -27.999h-331l-12 -87h326c22 0 31.667 -11 29 -33l-13 -88c-2.66699 -19.333 -13.667 -29 -33 -29h-331
l-32 -227c-2.66699 -19.333 -13.334 -29 -32.001 -29h-130c-22 0 -31.333 11 -28 33l32 223h-325c-22 0 -31.667 11 -29 33l13 88c2.66699 19.333 13.667 29 33 29h328l12 87h-324c-22 0 -31.667 10.667 -29 32l14 88c2.66699 19.333 13.334 29 32.001 29h275l-377 755
c-5.33301 10.667 -5.83301 19.5 -1.5 26.5s12.166 10.5 23.499 10.5h151c17.333 0 29.333 -7.66699 36 -23l328 -665l525 669c8 12 20.667 18.333 38 19h148z" />
    <glyph glyph-name="brokenbar" unicode="&#xa6;" horiz-adv-x="531" 
d="M488 1638c23.333 0 33 -10.667 29 -32l-82 -574c-2 -19.333 -13 -28.666 -33 -27.999h-130c-22 0 -31.333 10.667 -28 32l82 574c2 19.333 12.667 28.666 32 27.999h130zM292 246c23.333 0 33 -11 29 -33l-80 -573c-2 -19.333 -13 -29 -33 -29h-130
c-22 0 -31.667 11 -29 33l80 573c2 19.333 13 29 33 29h130z" />
    <glyph glyph-name="section" unicode="&#xa7;" horiz-adv-x="1382" 
d="M813 1638c150 0 264.334 -30.002 343.001 -90.002s115.667 -148 111 -264c-0.666992 -15.333 -10.334 -22.666 -29.001 -21.999h-109c-20.667 0 -31.667 11.333 -33 34c-2.66699 52 -28.834 93.5 -78.501 124.5s-119.834 46.5 -210.501 46.5
c-94 0 -169.5 -23.333 -226.5 -70s-85.5 -111.667 -85.5 -195c0 -54 18.167 -96.5 54.5 -127.5s96.5 -55.833 180.5 -74.5c59.333 -12 110.333 -24 153 -36s88.5 -28.5 137.5 -49.5s88.667 -44.333 119 -70s55.5 -58.5 75.5 -98.5s30 -85 30 -135
c0 -64 -14 -127.167 -42 -189.5s-67 -114.166 -117 -155.499c25.333 -43.333 38 -93.666 38 -150.999c0 -141.333 -51 -250.666 -153 -327.999s-236.667 -116 -404 -116c-159.333 0 -279.666 30.333 -360.999 91s-119.666 150 -114.999 268
c1.33301 19.333 10 28.666 26 27.999h125c17.333 0 27 -13.667 29 -41c3.33301 -55.333 30.666 -98 81.999 -128s124.666 -45 219.999 -45c112 0 200.667 22.167 266 66.5s98 110.5 98 198.5c0 24.667 -4.33301 46.167 -13 64.5s-19.667 33.833 -33 46.5
s-33.166 24.667 -59.499 36s-52.333 20.833 -78 28.5s-60.167 16.834 -103.5 27.501c-54 12 -100.667 24.5 -140 37.5s-80.666 30.333 -123.999 52s-78.833 46.167 -106.5 73.5s-50.5 61.666 -68.5 102.999s-27 87.666 -27 138.999c0 137.333 52.667 249 158 335
c-20.667 40 -31 87.667 -31 143c0 138.667 45.833 247.167 137.5 325.5s213.167 117.5 364.5 117.5zM723.001 829.998c-107.333 24 -191.33 53.998 -251.997 89.998c-33.333 -22.667 -59 -52.334 -77 -89.001s-27 -76 -27 -118c0 -34 6.66699 -63.667 20 -89
s34.166 -46.666 62.499 -63.999s58 -31.666 89 -42.999s70.5 -23 118.5 -35c124 -26 220 -56.333 288 -91c36.667 26 65.167 57.833 85.5 95.5s30.5 77.167 30.5 118.5c0 14.667 -1.16699 28 -3.5 40s-6.83301 23.167 -13.5 33.5l-19 28.5c-6 8.66699 -15.333 17 -28 25
s-23.334 15 -32.001 21s-22.167 12.167 -40.5 18.5s-32.666 11.5 -42.999 15.5s-26.833 9.16699 -49.5 15.5s-39.834 10.833 -51.501 13.5s-30.834 7.33398 -57.501 14.001z" />
    <glyph glyph-name="dieresis" unicode="&#xa8;" horiz-adv-x="855" 
d="M351 1250c-28 0 -52 10.167 -72 30.5s-30 44.833 -30 73.5c0 27.333 10 50.833 30 70.5s44 29.5 72 29.5s52.167 -9.83301 72.5 -29.5s30.5 -43.167 30.5 -70.5c0 -28.667 -10.167 -53.167 -30.5 -73.5s-44.5 -30.5 -72.5 -30.5zM743 1250c-28 0 -52 10.167 -72 30.5
s-30 44.833 -30 73.5c0 27.333 10 50.833 30 70.5s44 29.5 72 29.5s52.167 -9.83301 72.5 -29.5s30.5 -43.167 30.5 -70.5c0 -28.667 -10.167 -53.167 -30.5 -73.5s-44.5 -30.5 -72.5 -30.5z" />
    <glyph glyph-name="copyright" unicode="&#xa9;" horiz-adv-x="1466" 
d="M685 115c-148.667 0 -272.167 49.332 -370.5 147.999s-147.5 220.667 -147.5 366c0 114.667 30.167 222.5 90.5 323.5s141.833 181.833 244.5 242.5s213 91 331 91c74 0 143 -13.167 207 -39.5s118.667 -62.166 164 -107.499s81 -99.5 107 -162.5s39 -130.5 39 -202.5
c0 -114.667 -30 -222.667 -90 -324s-141.333 -182.5 -244 -243.5s-213 -91.5 -331 -91.5zM693 244.999c91.333 0 177.169 24.168 257.502 72.501s144.166 113.5 191.499 195.5s71 169.667 71 263c0 108.667 -36.667 199.334 -110 272.001s-166.666 109 -279.999 109
c-90.667 0 -176.334 -23.833 -257.001 -71.5s-144.834 -111.834 -192.501 -192.501s-71.5 -166.334 -71.5 -257.001c0 -113.333 36.667 -206.833 110 -280.5s167 -110.5 281 -110.5zM924.003 436c-56 -43.333 -120.997 -64.667 -194.997 -64
c-84.667 0 -153.834 26.667 -207.501 80s-80.5 122 -80.5 206c0 102 36.333 189 109 261s157.667 108 255 108c76 0 139 -23.667 189 -71l-81 -77c-32.667 20.667 -68.334 30.667 -107.001 30c-67.333 0 -124.833 -23.5 -172.5 -70.5s-71.5 -106.5 -71.5 -178.5
c0 -49.333 16.667 -90.333 50 -123s74.666 -49 123.999 -49c39.333 0 80 11.667 122 35z" />
    <glyph glyph-name="ordfeminine" unicode="&#xaa;" horiz-adv-x="1094" 
d="M929 1434h118l-105 -736h-115l-8 85c-65.333 -56.667 -142.333 -85 -231 -85c-96 0 -175.333 31.333 -238 94s-94 140.667 -94 234c0 74 19.5 143.167 58.5 207.5s90.667 115.5 155 153.5s132.833 57 205.5 57c94.667 0 168.667 -31.333 222 -94zM595 834
c74 0 138.832 27.168 194.499 81.501s83.5 118.5 83.5 192.5c0 58 -19.333 106.167 -58 144.5s-87.667 57.5 -147 57.5c-74 0 -138.667 -27.5 -194 -82.5s-83 -120.167 -83 -195.5c0 -56.667 19.333 -103.834 58 -141.501s87.334 -56.5 146.001 -56.5z" />
    <glyph glyph-name="guillemotleft" unicode="&#xab;" horiz-adv-x="1268" 
d="M687 1004c12 0 20.167 -3.66602 24.5 -10.999s2.5 -16 -5.5 -26l-319 -392l207 -391c4.66699 -10 5 -18.667 1 -26s-12 -11 -24 -11h-141c-7.33301 0 -13 1.66699 -17 5s-8.33301 9.33301 -13 18l-205 383c-8 13.333 -6.66699 27.666 4 42.999l317 389
c10 12 22.333 18.333 37 19h134zM1161 1004c12 0 20.166 -3.66602 24.499 -10.999s2.5 -16 -5.5 -26l-312 -392l200 -391c4.66699 -10 5 -18.667 1 -26s-11.667 -11 -23 -11h-135c-17.333 0 -29.666 7.66699 -36.999 23l-205 383c-8 13.333 -6.66699 27.666 4 42.999
l317 389c10 12 22.333 18.333 37 19h134z" />
    <glyph glyph-name="logicalnot" unicode="&#xac;" horiz-adv-x="1343" 
d="M163 595c2 19.333 13 28.999 33 28.999h983c21.333 0 30.666 -11 27.999 -33l-39 -277c-2 -19.333 -12.667 -28.666 -32 -27.999h-124c-21.333 0 -31 10.667 -29 32l21 151h-826c-21.333 0 -30.666 11 -27.999 33z" />
    <glyph glyph-name="uni00AD" unicode="&#xad;" horiz-adv-x="1336" 
d="M1146 654c22 0 31.334 -10.667 28.001 -32l-14 -96c-2.66699 -19.333 -13.667 -28.666 -33 -27.999h-915c-22.667 0 -32.334 10.667 -29.001 32l14 96c3.33301 19.333 14 28.666 32 27.999h917z" />
    <glyph glyph-name="registered" unicode="&#xae;" horiz-adv-x="1466" 
d="M833 1286c74 0 143 -13.168 207 -39.501s118.667 -62.166 164 -107.499s81 -99.5 107 -162.5s39 -130.5 39 -202.5c0 -114.667 -30 -222.667 -90 -324s-141.333 -182.5 -244 -243.5s-213 -91.5 -331 -91.5c-148.667 0 -272.167 49.333 -370.5 148
s-147.5 220.667 -147.5 366c0 114.667 30.167 222.5 90.5 323.5s142 181.833 245 242.5s213.167 91 330.5 91zM693 244.999c91.333 0 177.169 24.168 257.502 72.501s144.166 113.5 191.499 195.5s71 169.667 71 263c0 108.667 -36.667 199.334 -110 272.001
s-166.666 109 -279.999 109c-90.667 0 -176.334 -23.833 -257.001 -71.5s-144.834 -111.834 -192.501 -192.501s-71.5 -166.334 -71.5 -257.001c0 -113.333 36.667 -206.833 110 -280.5s167 -110.5 281 -110.5zM841.003 994c75.333 0 131.834 -18 169.501 -54
s52.167 -86 43.5 -150c-16 -104 -85 -164 -207 -180l145 -182c9.33301 -12.667 5 -19 -13 -19h-86c-9.33301 0 -18.333 5.66699 -27 17l-141 181h-116l-25 -178c-2 -13.333 -9 -20 -21 -20h-79c-5.33301 0 -9.33301 2.5 -12 7.5s-3.33398 10.167 -2.00098 15.5l76 549
c2 8.66699 7.33301 13 16 13h279zM941.004 806c3.33301 27.333 -3.33301 48 -20 62s-45 21 -85 21h-187l-25 -179h177c40 0 72.5 9 97.5 27s39.167 41 42.5 69z" />
    <glyph glyph-name="macron" unicode="&#xaf;" horiz-adv-x="841" 
d="M811 1434c21.333 0 30.999 -11 28.999 -33l-14 -87c-2 -19.333 -12.667 -29 -32 -29h-523c-21.333 0 -30.666 11 -27.999 33l13 87c2 19.333 13 29 33 29h522z" />
    <glyph glyph-name="degree" unicode="&#xb0;" horiz-adv-x="998" 
d="M624 1444c84 0 152.501 -25.833 205.501 -77.5s79.5 -118.167 79.5 -199.5c0 -103.333 -35.333 -189.5 -106 -258.5s-155 -103.5 -253 -103.5c-83.333 0 -151.833 26 -205.5 78s-80.5 119 -80.5 201c0 102 35.667 187.5 107 256.5s155.666 103.5 252.999 103.5z
M617.001 1319c-63.333 0 -116.668 -21.5 -160.001 -64.5s-65 -97.5 -65 -163.5c0 -48 14.833 -86.5 44.5 -115.5s69.834 -43.5 120.501 -43.5c63.333 0 116.5 22 159.5 66s64.5 99.667 64.5 167c0 46 -15 83.167 -45 111.5s-69.667 42.5 -119 42.5z" />
    <glyph glyph-name="plusminus" unicode="&#xb1;" horiz-adv-x="1185" 
d="M1007 753c22 0 31.333 -11 28 -33l-12 -88c-2 -19.333 -13 -29 -33 -29h-308l-44 -309c-2 -19.333 -13 -29 -33 -29h-88c-21.333 0 -31 11 -29 33l43 305h-304c-21.333 0 -30.666 11 -27.999 33l13 88c2 19.333 13 29 33 29h308l44 308c2 19.333 13 29 33 29h88
c21.333 0 30.666 -11 27.999 -33l-43 -304h304zM925 150c22 0 31.332 -11 27.999 -33l-12 -88c-2 -19.333 -13 -29 -33 -29h-763c-21.333 0 -30.666 11 -27.999 33l13 88c2 19.333 13 29 33 29h762z" />
    <glyph glyph-name="uni00B2" unicode="&#xb2;" horiz-adv-x="1228" 
d="M1026 366c21.333 0 30.998 -11 28.998 -33l-13 -89c-2 -19.333 -12.667 -29 -32 -29l-864 -3c-21.333 0 -30.666 11 -27.999 33l14 98c8 58.667 28.833 110 62.5 154s74.167 79.167 121.5 105.5s99 49.166 155 68.499s111.667 36.333 167 51s106 29.834 152 45.501
s84.333 35 115 58s48 50.167 52 81.5c8 55.333 -7.66699 95.833 -47 121.5s-105.666 38.5 -198.999 38.5c-190.667 0 -302.334 -61.667 -335.001 -185c-4 -20 -15.667 -28.333 -35 -25l-110 17c-20.667 2 -29 13.667 -25 35c22 110 74.833 190.833 158.5 242.5
s198.834 77.5 345.501 77.5c150 0 261.833 -29 335.5 -87s103.167 -140.333 88.5 -247c-6.66699 -48.667 -25.834 -91.167 -57.501 -127.5s-70 -65.5 -115 -87.5s-94.167 -41.667 -147.5 -59s-106.5 -33.333 -159.5 -48s-101.667 -30.5 -146 -47.5
s-81.666 -38.833 -111.999 -65.5s-47.833 -58 -52.5 -94h682z" />
    <glyph glyph-name="uni00B3" unicode="&#xb3;" horiz-adv-x="1307" 
d="M929 718c37.333 -8 69.8281 -18 97.4951 -30s52.667 -27.667 75 -47s38 -43.833 47 -73.5s10.833 -64.167 5.5 -103.5c-7.33301 -52 -25.5 -96 -54.5 -132s-68.167 -64.5 -117.5 -85.5s-104.5 -36 -165.5 -45s-131.5 -13.5 -211.5 -13.5
c-160.667 0 -279.5 21.833 -356.5 65.5s-111.5 120.167 -103.5 229.5c2 20 13 30 33 30l119 3c20 0 30 -10.333 30 -31c0.666992 -54 23.334 -90.333 68.001 -109s116.334 -28 215.001 -28c52.667 0 98.334 2 137.001 6s74.834 11.167 108.501 21.5
s60.334 25.666 80.001 45.999s31.5 45.166 35.5 74.499c8 56.667 -16.167 95.5 -72.5 116.5s-159.5 32.167 -309.5 33.5c-23.333 0 -34 11 -32 33l7 71c2 19.333 13 28.666 33 27.999c140 2 241.5 16 304.5 42s98.5 64.667 106.5 116c6 48.667 -14.5 83.334 -61.5 104.001
s-118.5 31 -214.5 31c-92.667 0 -166.167 -13.167 -220.5 -39.5s-89.5 -71.166 -105.5 -134.499c-6 -19.333 -18.333 -27.666 -37 -24.999l-116 18c-20 3.33301 -28.667 15 -26 35c22.667 110 76.667 188.167 162 234.5s201.333 69.5 348 69.5
c155.333 0 272 -23.833 350 -71.5s110.667 -119.167 98 -214.5c-8 -57.333 -35 -104.833 -81 -142.5s-104.333 -65.167 -175 -82.5z" />
    <glyph glyph-name="acute" unicode="&#xb4;" horiz-adv-x="544" 
d="M252 1178c-12 0 -20 3.5 -24 10.5s-3 15.5 3 25.5l163 261c7.33301 13.333 19.666 20 36.999 20h96c12 0 20 -3.5 24 -10.5s3 -15.833 -3 -26.5l-162 -260c-7.33301 -13.333 -19.666 -20 -36.999 -20h-97z" />
    <glyph glyph-name="uni00B5" unicode="&#xb5;" horiz-adv-x="1245" 
d="M1105 971l-114 -790c-2.66699 -18.667 0 -32.167 8 -40.5s20 -11.5 36 -9.5c10 1.33301 18 -1.33398 24 -8.00098s8 -16.667 6 -30l-8 -51c-6.66699 -37.333 -42 -56 -106 -56c-53.333 0 -90 15.667 -110 47s-26.333 72.333 -19 123l3 22h-16
c-28.667 -56 -75 -102.833 -139 -140.5s-137 -56.5 -219 -56.5c-76.667 0 -141.667 17.333 -195 52l-56 -397c-2.66699 -17.333 -13.667 -25.666 -33 -24.999h-122c-8.66699 0 -15.667 3.5 -21 10.5s-7.33301 15.5 -6 25.5l147 1034h1l42 294c2 19.333 13 29 33 29h121
c22.667 0 32.334 -11 29.001 -33l-81 -562c-12 -84.667 0.666992 -148.5 38 -191.5s90 -64.5 158 -64.5c78.667 0 145.167 23 199.5 69s98.166 102 131.499 168l85 588c2 17.333 13.333 26 34 26h120c23.333 0 33 -11 29 -33z" />
    <glyph glyph-name="paragraph" unicode="&#xb6;" horiz-adv-x="1305" 
d="M217 994c10.667 78 25.168 142.5 43.501 193.5s44.666 95.833 78.999 134.5s79.333 67 135 85s124.834 27 207.501 27h255c21.333 0 31 -11 29 -33l-193 -1372c-2 -19.333 -13 -29 -33 -29h-117c-21.333 0 -31 11 -29 33l70 501h-100
c-108.667 0 -191.334 17.5 -248.001 52.5s-90.667 86.5 -102 154.5s-10.333 152.333 3 253zM1105 1405c2 19.333 13 29 33 29h116c21.333 0 31 -11 29 -33l-192 -1372c-2 -19.333 -13 -29 -33 -29h-117c-21.333 0 -31 11 -29 33z" />
    <glyph glyph-name="periodcentered" unicode="&#xb7;" horiz-adv-x="650" 
d="M341 468c-40 0 -74 14 -102 42s-42 62.167 -42 102.5s14 74.833 42 103.5s62 43 102 43s74 -14.333 102 -43s42 -63.167 42 -103.5s-14 -74.5 -42 -102.5s-62 -42 -102 -42z" />
    <glyph glyph-name="cedilla" unicode="&#xb8;" horiz-adv-x="616" 
d="M213 -77c47.333 -4 87.332 -20.332 119.999 -48.999s49 -66 49 -112c0 -54.667 -16.5 -98.834 -49.5 -132.501s-73.333 -55.167 -121 -64.5s-98.167 -9.33301 -151.5 0c-12 2 -18 9.33301 -18 22v67c0 6.66699 2 11.834 6 15.501s9.66699 5.16699 17 4.5
c55.333 -8 99 -4.83301 131 9.5s48 36.833 48 67.5c0 28.667 -17.667 49.334 -53 62.001s-76.666 9.66699 -123.999 -9c-7.33301 -2.66699 -13.333 -2.83398 -18 -0.500977s-7 7.5 -7 15.5v65c0 7.33301 3.33301 15.666 10 24.999l87 91h151z" />
    <glyph glyph-name="uni00B9" unicode="&#xb9;" horiz-adv-x="1177" 
d="M997 370c21.333 0 31 -11 29 -33l-13 -93c-2.66699 -19.333 -13.667 -29 -33 -29h-859c-21.333 0 -31 11 -29 33l13 93c2 19.333 13 29 33 29h375l95 659c-92.667 -77.333 -206 -119.333 -340 -126c-22.667 0 -32.667 11 -30 33l10 106c2 19.333 11 29.333 27 30
c118 4.66699 236 53.667 354 147h153c21.333 0 31 -11 29 -33l-115 -816h301z" />
    <glyph glyph-name="ordmasculine" unicode="&#xba;" horiz-adv-x="1102" 
d="M588 698c-96 0 -175.333 31.333 -238 94s-94 140.667 -94 234c0 74 19.5 143.167 58.5 207.5s90.667 115.5 155 153.5s132.833 57 205.5 57c96 0 175.167 -31.333 237.5 -94s93.5 -140.667 93.5 -234c0 -74 -19.5 -143.167 -58.5 -207.5s-90.5 -115.5 -154.5 -153.5
s-132.333 -57 -205 -57zM599 834c73.333 0 137.333 26.668 192 80.001s82 116.666 82 189.999c0 58.667 -19.833 107.667 -59.5 147s-89.5 59 -149.5 59c-74 0 -138 -27.167 -192 -81.5s-81 -118.5 -81 -192.5c0 -58 19.833 -106.167 59.5 -144.5s89.167 -57.5 148.5 -57.5z
" />
    <glyph glyph-name="guillemotright" unicode="&#xbb;" horiz-adv-x="1268" 
d="M221 967c-4.66699 10 -5 18.666 -1 25.999s12 11 24 11h133c17.333 0 29.666 -7.66699 36.999 -23l207 -383c8 -13.333 6.33301 -27.666 -5 -42.999l-318 -389c-10 -12 -22.333 -18.333 -37 -19h-133c-12 0 -20.167 3.66699 -24.5 11s-2.16602 16 6.50098 26l318 391z
M695 966.999c-4.66699 10 -5 18.666 -1 25.999s12 11 24 11h133c17.333 0 29.666 -7.66699 36.999 -23l207 -383c8 -13.333 6.66699 -27.666 -4 -42.999l-319 -389c-10 -12 -22.333 -18.333 -37 -19h-133c-12 0 -20.167 3.66699 -24.5 11s-2.16602 16 6.50098 26l318 391z
" />
    <glyph glyph-name="onequarter" unicode="&#xbc;" horiz-adv-x="1426" 
d="M313 781c-21.333 0 -30.6689 9.66699 -28.002 29l13 79c2 16.667 13 24.667 33 24h375l95 564c-93.333 -66 -206.666 -102 -339.999 -108c-22.667 0 -33 9.33301 -31 28l10 91c2 16.667 11.333 25 28 25c118.667 4 236.334 45.667 353.001 125h154
c21.333 0 31 -9.33301 29 -28l-115 -697h301c21.333 0 31 -9 29 -27l-14 -80c-2.66699 -16.667 -13.667 -25 -33 -25h-859zM1292 695c22 0 31.667 -10.666 29 -31.999l-12 -75c-2 -19.333 -13 -29 -33 -29h-1106c-23.333 0 -33 11 -29 33l13 75
c2 19.333 12.667 28.666 32 27.999h1106zM1145 56.001c10.667 0 18.499 -2.16602 23.499 -6.49902s6.83301 -11.166 5.5 -20.499l-16 -83c-2 -16.667 -13 -25 -33 -25h-144l-45 -286c-2 -16.667 -13 -24.667 -33 -24h-123c-21.333 0 -30.666 9.66699 -27.999 29l45 281h-644
c-21.333 0 -31 9.66699 -29 29l82 503c2 17.333 13 25.666 33 24.999h122c21.333 0 31 -9.33301 29 -28l-63 -394h491l65 397c2 17.333 12.667 25.666 32 24.999h123c21.333 0 31 -9.33301 29 -28l-65 -394h143z" />
    <glyph glyph-name="onehalf" unicode="&#xbd;" horiz-adv-x="1426" 
d="M313 781c-21.333 0 -30.6689 9.66699 -28.002 29l13 79c2 16.667 13 24.667 33 24h375l95 564c-93.333 -66 -206.666 -102 -339.999 -108c-22.667 0 -33 9.33301 -31 28l10 91c2 16.667 11.333 25 28 25c118.667 4 236.334 45.667 353.001 125h154
c21.333 0 31 -9.33301 29 -28l-115 -697h301c21.333 0 31 -9 29 -27l-14 -80c-2.66699 -16.667 -13.667 -25 -33 -25h-859zM1292 695c22 0 31.667 -10.666 29 -31.999l-12 -75c-2 -19.333 -13 -29 -33 -29h-1106c-23.333 0 -33 11 -29 33l13 75
c2 19.333 12.667 28.666 32 27.999h1106zM689.997 476.001c150 0 262.001 -24.668 336.001 -74.001s103.333 -119.666 88 -210.999c-6.66699 -40.667 -25.667 -76.667 -57 -108s-69.666 -56.333 -114.999 -75s-94.5 -35.5 -147.5 -50.5s-106 -28.667 -159 -41
s-101.667 -25.833 -146 -40.5s-81.666 -33.5 -111.999 -56.5s-47.833 -49.833 -52.5 -80.5h682c21.333 0 30.666 -9.33301 27.999 -28l-12 -76c-2 -16.667 -13 -24.667 -33 -24l-863 -3c-21.333 0 -31 9.33301 -29 28l15 84c8 50 28.667 94 62 132s73.833 68 121.5 90
s99.5 41.5 155.5 58.5s111.5 31.5 166.5 43.5s105.667 24.5 152 37.5s84.833 29.667 115.5 50s48 43.833 52 70.5c8 47.333 -7.83301 81.833 -47.5 103.5s-106.167 32.5 -199.5 32.5c-190.667 0 -302.334 -52.667 -335.001 -158c-4 -16.667 -15.333 -23.667 -34 -21l-110 15
c-20.667 1.33301 -29.334 11.333 -26.001 30c22 94 75 162.833 159 206.5s199 65.5 345 65.5z" />
    <glyph glyph-name="threequarters" unicode="&#xbe;" horiz-adv-x="1432" 
d="M1056 1212c79.333 -14.667 139.166 -38.1631 179.499 -70.4961s55.5 -80.833 45.5 -145.5c-7.33301 -44.667 -25.5 -82.334 -54.5 -113.001s-68.167 -54.834 -117.5 -72.501s-104.5 -30.334 -165.5 -38.001s-131.5 -11.5 -211.5 -11.5c-78.667 0 -146 3.83301 -202 11.5
s-104.667 21 -146 40s-71.333 45 -90 78s-26 73.833 -22 122.5c2 17.333 13 25.666 33 24.999l119 2c20 0 30 -8.33301 30 -25c0.666992 -46.667 23.334 -78 68.001 -94s116.334 -24 215.001 -24c109.333 0 194.666 9 255.999 27s96.333 51 105 99
c8 48.667 -16.167 82 -72.5 100s-159.5 27.667 -309.5 29c-23.333 0 -34 9.33301 -32 28l7 60c2 16.667 13 25 33 25c140 1.33301 241.5 13 304.5 35s98.5 55 106.5 99c6 41.333 -14.667 70.833 -62 88.5s-118.666 26.5 -213.999 26.5
c-92.667 0 -166.167 -11.167 -220.5 -33.5s-89.833 -60.5 -106.5 -114.5c-6 -16.667 -18 -23.667 -36 -21l-116 15c-20.667 2 -29.334 12 -26.001 30c22.667 93.333 76.667 159.833 162 199.5s201.333 59.5 348 59.5c155.333 0 272 -20.167 350 -60.5
s110.667 -101.5 98 -183.5c-8 -49.333 -35 -90 -81 -122s-104.333 -55.667 -175 -71zM1292 695.004c22 0 31.667 -10.666 29 -31.999l-12 -75c-2 -19.333 -13 -29 -33 -29h-1106c-23.333 0 -33 11 -29 33l13 75c2 19.333 12.667 28.666 32 27.999h1106zM1023 56.0049
l142.001 0.000976562c10.667 0 18.5 -2.16699 23.5 -6.5s6.83301 -11.166 5.5 -20.499l-15 -83c-2 -16.667 -13 -25 -33 -25h-145l-45 -286c-2 -16.667 -12.667 -24.667 -32 -24h-123c-21.333 0 -31 9.66699 -29 29l45 281h-644c-21.333 0 -31 9.66699 -29 29l82 503
c2 17.333 13 25.666 33 24.999h123c21.333 0 31 -9.33301 29 -28l-64 -394h492l64 397c2 17.333 13 25.666 33 24.999h123c21.333 0 30.666 -9.33301 27.999 -28z" />
    <glyph glyph-name="questiondown" unicode="&#xbf;" horiz-adv-x="1295" 
d="M747.5 1092c40.333 0 74.5 -14 102.5 -42s42 -62.167 42 -102.5s-14 -74.833 -42 -103.5s-62.167 -43 -102.5 -43s-74.5 14.333 -102.5 43s-42 63.167 -42 103.5s14 74.5 42 102.5s62.167 42 102.5 42zM781 681c22 0 31.001 -11.668 27.001 -35.001
c-11.333 -70.667 -29.166 -131.667 -53.499 -183s-51.333 -90.833 -81 -118.5s-61.167 -51 -94.5 -70s-66.166 -35.5 -98.499 -49.5s-62 -29 -89 -45s-50.333 -38.333 -70 -67s-32.5 -64.334 -38.5 -107.001c-9.33301 -67.333 6.33398 -121.5 47.001 -162.5
s108 -61.5 202 -61.5c96.667 0 174.5 21 233.5 63s94.833 102.333 107.5 181c3.33301 18 16.333 25.333 39 22l110 -12c19.333 -2 26.666 -15 21.999 -39c-17.333 -124.667 -70.166 -219.5 -158.499 -284.5s-207.166 -97.5 -356.499 -97.5
c-152.667 0 -264.834 36.833 -336.501 110.5s-98.167 173.834 -79.5 300.501c7.33301 56 21.166 103.667 41.499 143s44.166 69.833 71.499 91.5s56.833 40.667 88.5 57l96 48.5c32.333 16 62.666 34.667 90.999 56s53.666 51.333 75.999 90s38.833 85.334 49.5 140.001
c3.33301 19.333 14 29 32 29h122z" />
    <glyph glyph-name="Agrave" unicode="&#xc0;" horiz-adv-x="1387" 
d="M762 1571l-86.001 258c-6.66699 23.333 1.33301 35 24 35h97c18 0 29.333 -8.33301 34 -25l87 -258c6.66699 -23.333 -1.66602 -35 -24.999 -35h-96c-18 0 -29.667 8.33301 -35 25zM1227 32c4 -21.333 -4.66699 -32 -26 -32h-129c-19.333 0 -30.666 10 -33.999 30
l-62 291h-617l-146 -298c-6.66699 -15.333 -19.334 -23 -38.001 -23h-132c-10.667 0 -18.667 4.16699 -24 12.5s-5.33301 17.5 0 27.5l695 1371c8 15.333 21.333 23 40 23h128c19.333 0 31.333 -10 36 -30zM440.999 487h500l-151 708z" />
    <glyph glyph-name="Aacute" unicode="&#xc1;" horiz-adv-x="1387" 
d="M804 1546c-12 0 -20 3.66699 -24 11s-3 16 3 26l163 260c7.33301 13.333 19.666 20.333 36.999 21h96c12 0 20 -3.66699 24 -11s3 -16 -3 -26l-162 -260c-7.33301 -13.333 -19.666 -20.333 -36.999 -21h-97zM1227 32c4 -21.333 -4.66699 -32 -26 -32h-129
c-19.333 0 -30.666 10 -33.999 30l-62 291h-617l-146 -298c-6.66699 -15.333 -19.334 -23 -38.001 -23h-132c-10.667 0 -18.667 4.16699 -24 12.5s-5.33301 17.5 0 27.5l695 1371c8 15.333 21.333 23 40 23h128c19.333 0 31.333 -10 36 -30zM441 487h500l-151 708z" />
    <glyph glyph-name="Acircumflex" unicode="&#xc2;" horiz-adv-x="1387" 
d="M511 1586c-13.333 0 -21.8311 3.66699 -25.498 11s-0.166992 16 10.5 26l272 263c9.33301 9.33301 22.333 14.333 39 15h178c16.667 0 29 -6.33301 37 -19l196 -259c7.33301 -10 9.16602 -18.667 5.49902 -26s-11.834 -11 -24.501 -11h-135c-14.667 0 -27 6.33301 -37 19
l-144 174l-198 -178c-9.33301 -9.33301 -22.333 -14.333 -39 -15h-135zM1227 32c4 -21.333 -4.66699 -32 -26 -32h-129c-19.333 0 -30.666 10 -33.999 30l-62 291h-617l-146 -298c-6.66699 -15.333 -19.334 -23 -38.001 -23h-132c-10.667 0 -18.667 4.16699 -24 12.5
s-5.33301 17.5 0 27.5l695 1371c8 15.333 21.333 23 40 23h128c19.333 0 31.333 -10 36 -30zM441.002 487h500l-151 708z" />
    <glyph glyph-name="Atilde" unicode="&#xc3;" horiz-adv-x="1387" 
d="M559 1709c-14.667 0 -20.667 8.33301 -18 25c6.66699 54.667 26.667 96.667 60 126s77 44 131 44c34 0 66 -7.33301 96 -22s54.333 -31.167 73 -49.5s39.834 -34.833 63.501 -49.5s47.167 -22 70.5 -22c44 0 74 21 90 63c4 11.333 11.667 17 23 17h53
c6 0 11.167 -1.83301 15.5 -5.5s6.16602 -8.5 5.49902 -14.5c-6 -56 -26.167 -99 -60.5 -129s-77.833 -45 -130.5 -45c-28 0 -54.5 4.83301 -79.5 14.5s-46.333 21.5 -64 35.5l-51.5 41.5c-16.667 13.667 -34.167 25.5 -52.5 35.5s-36.833 15 -55.5 15
c-46 0 -77 -21 -93 -63c-4 -11.333 -11.667 -17 -23 -17h-53zM1227 32c4 -21.333 -4.66699 -32 -26 -32h-129c-19.333 0 -30.666 10 -33.999 30l-62 291h-617l-146 -298c-6.66699 -15.333 -19.334 -23 -38.001 -23h-132c-10.667 0 -18.667 4.16699 -24 12.5
s-5.33301 17.5 0 27.5l695 1371c8 15.333 21.333 23 40 23h128c19.333 0 31.333 -10 36 -30zM441 487h500l-151 708z" />
    <glyph glyph-name="Adieresis" unicode="&#xc4;" horiz-adv-x="1387" 
d="M687 1680c-28 0 -52 10.167 -72 30.5s-30 44.833 -30 73.5c0 27.333 10 50.833 30 70.5s44 29.5 72 29.5s52.167 -9.83301 72.5 -29.5s30.5 -43.167 30.5 -70.5c0 -28.667 -10.167 -53.167 -30.5 -73.5s-44.5 -30.5 -72.5 -30.5zM1079 1680c-28 0 -52 10.167 -72 30.5
s-30 44.833 -30 73.5c0 27.333 10 50.833 30 70.5s44 29.5 72 29.5s52.167 -9.83301 72.5 -29.5s30.5 -43.167 30.5 -70.5c0 -28.667 -10.167 -53.167 -30.5 -73.5s-44.5 -30.5 -72.5 -30.5zM1227 32c4 -21.333 -4.66699 -32 -26 -32h-129c-19.333 0 -30.666 10 -33.999 30
l-62 291h-617l-146 -298c-6.66699 -15.333 -19.334 -23 -38.001 -23h-132c-10.667 0 -18.667 4.16699 -24 12.5s-5.33301 17.5 0 27.5l695 1371c8 15.333 21.333 23 40 23h128c19.333 0 31.333 -10 36 -30zM441 487h500l-151 708z" />
    <glyph glyph-name="Aring" unicode="&#xc5;" horiz-adv-x="1387" 
d="M873.5 1555c-52.333 0 -96.666 18.333 -132.999 55s-54.5 80.334 -54.5 131.001s18.167 94.167 54.5 130.5s80.666 54.5 132.999 54.5s96.666 -18.167 132.999 -54.5s54.5 -79.833 54.5 -130.5s-18.167 -94.334 -54.5 -131.001s-80.666 -55 -132.999 -55zM873.5 1814
c-20.333 0 -37.667 -7 -52 -21s-21.5 -31.333 -21.5 -52s7.16699 -37.834 21.5 -51.501s31.666 -20.5 51.999 -20.5s37.833 6.83301 52.5 20.5s22 30.834 22 51.501c-0.666992 21.333 -8.16699 38.833 -22.5 52.5s-31.666 20.5 -51.999 20.5zM1227 32
c4 -21.333 -4.66699 -32 -26 -32h-129c-19.333 0 -30.666 10 -33.999 30l-62 291h-617l-146 -298c-6.66699 -15.333 -19.334 -23 -38.001 -23h-132c-10.667 0 -18.667 4.16699 -24 12.5s-5.33301 17.5 0 27.5l695 1371c8 15.333 21.333 23 40 23h128
c19.333 0 31.333 -10 36 -30zM440.999 487h500l-151 708z" />
    <glyph glyph-name="AE" unicode="&#xc6;" horiz-adv-x="1411" 
d="M1349 1434c22.667 0 31.999 -11.002 27.999 -33.002l-15 -113c-2.66699 -19.333 -13.667 -28.666 -33 -27.999h-361l-60 -418h314c22 0 31 -11 27 -33l-15 -113c-2.66699 -19.333 -13.667 -28.666 -33 -27.999h-317l-70 -494h360c22.667 0 32 -11 28 -33l-16 -112
c-2.66699 -19.333 -13.667 -29 -33 -29h-515c-22 0 -31.333 11 -28 33l26 182h-338l-97 -192c-8 -15.333 -20 -23 -36 -23h-124c-11.333 0 -19.166 3.66699 -23.499 11s-3.83301 16 1.5 26l717 1375c8 14.667 20 22 36 22h577zM381.999 381.998h277l108 763z" />
    <glyph glyph-name="Ccedilla" unicode="&#xc7;" horiz-adv-x="1496" 
d="M1453 1246c16.667 -18 18.332 -32.667 4.99902 -44l-87 -74c-13.333 -11.333 -28.333 -9.66602 -45 5.00098c-100 87.333 -214 131 -342 131c-82.667 0 -162.5 -17.833 -239.5 -53.5s-143.5 -82.834 -199.5 -141.501s-101 -127.667 -135 -207s-51 -161 -51 -245
c0 -133.333 42.5 -242.666 127.5 -327.999s192.833 -128 323.5 -128c131.333 0 259 44.667 383 134c21.333 14.667 38.333 14.334 51 -0.999023l69 -84c16 -20 14.667 -36.667 -4 -50c-165.333 -124 -334.333 -186.333 -507 -187c-22.667 0 -44.667 1 -66 3l-53 -53
c47.333 -4 87.333 -20.333 120 -49s49 -66 49 -112c0 -54.667 -16.5 -98.834 -49.5 -132.501s-73.333 -55.167 -121 -64.5s-98.167 -9.33301 -151.5 0c-12 2 -18 9.33301 -18 22v67c0 6.66699 2 11.834 6 15.501s9.66699 5.16699 17 4.5c55.333 -8 99 -4.83301 131 9.5
s48 36.833 48 67.5c0 28.667 -17.667 49.334 -53 62.001s-76.666 9.66699 -123.999 -9c-6.66699 -2.66699 -12.5 -2.83398 -17.5 -0.500977s-7.5 7.5 -7.5 15.5v65c0 7.33301 3.33301 15.666 10 24.999l87 91c-134.667 38 -242.167 112.5 -322.5 223.5
s-120.5 240.333 -120.5 388s38 286.167 114 415.5s177.667 232.166 305 308.499s263 114.5 407 114.5c185.333 0 339 -68 461 -204z" />
    <glyph glyph-name="Egrave" unicode="&#xc8;" horiz-adv-x="1255" 
d="M850 1581c6.66699 -23.333 -1.66602 -35 -24.999 -35h-96c-18 0 -29.667 8.33301 -35 25l-86 258c-6.66699 23.333 1.66602 35 24.999 35h96c18 0 29.667 -8.33301 35 -25zM1018 174c21.333 0 31.001 -11.002 29.001 -33.002l-17 -112c-2 -19.333 -13 -29 -33 -29h-865
c-21.333 0 -31 11 -29 33l193 1372c2 19.333 13 29 33 29h863c21.333 0 31 -11 29 -33l-16 -113c-2 -19.333 -13 -28.666 -33 -27.999h-704l-59 -418h646c21.333 0 30.666 -11 27.999 -33l-16 -113c-2 -19.333 -13 -28.666 -33 -27.999h-650l-69 -494h703z" />
    <glyph glyph-name="Eacute" unicode="&#xc9;" horiz-adv-x="1255" 
d="M736 1546c-12 0 -19.833 3.66699 -23.5 11s-2.5 16 3.5 26l163 260c7.33301 13.333 19.333 20.333 36 21h97c12 0 19.833 -3.66699 23.5 -11s2.5 -16 -3.5 -26l-162 -260c-7.33301 -13.333 -19.333 -20.333 -36 -21h-98zM1018 174
c21.333 0 31.001 -11.002 29.001 -33.002l-17 -112c-2 -19.333 -13 -29 -33 -29h-865c-21.333 0 -31 11 -29 33l193 1372c2 19.333 13 29 33 29h863c21.333 0 31 -11 29 -33l-16 -113c-2 -19.333 -13 -28.666 -33 -27.999h-704l-59 -418h646c21.333 0 30.666 -11 27.999 -33
l-16 -113c-2 -19.333 -13 -28.666 -33 -27.999h-650l-69 -494h703z" />
    <glyph glyph-name="Ecircumflex" unicode="&#xca;" horiz-adv-x="1255" 
d="M815 1779l-198 -178c-9.33301 -9.33301 -22 -14.333 -38 -15h-136c-13.333 0 -21.666 3.66699 -24.999 11s0 16 10 26l272 263c9.33301 9.33301 22.333 14.333 39 15h179c16.667 0 28.667 -6.33301 36 -19l196 -259c7.33301 -10 9.16602 -18.667 5.49902 -26
s-11.5 -11 -23.5 -11h-136c-14.667 0 -27 6.33301 -37 19zM1018 174c21.333 0 31.001 -11.002 29.001 -33.002l-17 -112c-2 -19.333 -13 -29 -33 -29h-865c-21.333 0 -31 11 -29 33l193 1372c2 19.333 13 29 33 29h863c21.333 0 31 -11 29 -33l-16 -113
c-2 -19.333 -13 -28.666 -33 -27.999h-704l-59 -418h646c21.333 0 30.666 -11 27.999 -33l-16 -113c-2 -19.333 -13 -28.666 -33 -27.999h-650l-69 -494h703z" />
    <glyph glyph-name="Edieresis" unicode="&#xcb;" horiz-adv-x="1255" 
d="M620 1680c-28 0 -52.167 10.167 -72.5 30.5s-30.5 44.833 -30.5 73.5c0 27.333 10.167 50.833 30.5 70.5s44.5 29.5 72.5 29.5s52 -9.83301 72 -29.5s30 -43.167 30 -70.5c0 -28.667 -10 -53.167 -30 -73.5s-44 -30.5 -72 -30.5zM1012 1680
c-28 0 -52.167 10.167 -72.5 30.5s-30.5 44.833 -30.5 73.5c0 27.333 10.167 50.833 30.5 70.5s44.5 29.5 72.5 29.5s52 -9.83301 72 -29.5s30 -43.167 30 -70.5c0 -28.667 -10 -53.167 -30 -73.5s-44 -30.5 -72 -30.5zM1018 174c21.333 0 31.001 -11.002 29.001 -33.002
l-17 -112c-2 -19.333 -13 -29 -33 -29h-865c-21.333 0 -31 11 -29 33l193 1372c2 19.333 13 29 33 29h863c21.333 0 31 -11 29 -33l-16 -113c-2 -19.333 -13 -28.666 -33 -27.999h-704l-59 -418h646c21.333 0 30.666 -11 27.999 -33l-16 -113
c-2 -19.333 -13 -28.666 -33 -27.999h-650l-69 -494h703z" />
    <glyph glyph-name="Igrave" unicode="&#xcc;" horiz-adv-x="1338" 
d="M885 1581c6.66699 -23.333 -1.66602 -35 -24.999 -35h-96c-18 0 -29.667 8.33301 -35 25l-86 258c-6.66699 23.333 1.66602 35 24.999 35h96c18 0 29.667 -8.33301 35 -25zM1289 1288c-2.66699 -19.333 -13.668 -28.667 -33.001 -28h-385l-152 -1086h381
c22 0 31 -11 27 -33l-15 -112c-2.66699 -19.333 -13.667 -29 -33 -29h-957c-22.667 0 -32.334 11 -29.001 33l17 112c2.66699 19.333 13.334 29 32.001 29h385l153 1086h-381c-22.667 0 -32.334 10.667 -29.001 32l17 113c2.66699 19.333 13.334 29 32.001 29h958
c22.667 0 32.334 -11 29.001 -33z" />
    <glyph glyph-name="Iacute" unicode="&#xcd;" horiz-adv-x="1338" 
d="M771 1546c-12 0 -20 3.66699 -24 11s-2.66699 16 4 26l162 260c7.33301 13.333 19.666 20.333 36.999 21h97c12 0 19.833 -3.66699 23.5 -11s2.5 -16 -3.5 -26l-162 -260c-7.33301 -13.333 -19.666 -20.333 -36.999 -21h-97zM1289 1288
c-2.66699 -19.333 -13.668 -28.667 -33.001 -28h-385l-152 -1086h381c22 0 31 -11 27 -33l-15 -112c-2.66699 -19.333 -13.667 -29 -33 -29h-957c-22.667 0 -32.334 11 -29.001 33l17 112c2.66699 19.333 13.334 29 32.001 29h385l153 1086h-381
c-22.667 0 -32.334 10.667 -29.001 32l17 113c2.66699 19.333 13.334 29 32.001 29h958c22.667 0 32.334 -11 29.001 -33z" />
    <glyph glyph-name="Icircumflex" unicode="&#xce;" horiz-adv-x="1338" 
d="M850 1779l-197.998 -178c-9.33301 -9.33301 -22.333 -14.333 -39 -15h-135c-13.333 0 -21.833 3.66699 -25.5 11s-0.166992 16 10.5 26l272 263c9.33301 9.33301 22.333 14.333 39 15h178c16.667 0 29 -6.33301 37 -19l196 -259c7.33301 -10 9.16602 -18.667 5.49902 -26
s-11.834 -11 -24.501 -11h-135c-14.667 0 -27 6.33301 -37 19zM1289 1288c-2.66699 -19.333 -13.668 -28.667 -33.001 -28h-385l-152 -1086h381c22 0 31 -11 27 -33l-15 -112c-2.66699 -19.333 -13.667 -29 -33 -29h-957c-22.667 0 -32.334 11 -29.001 33l17 112
c2.66699 19.333 13.334 29 32.001 29h385l153 1086h-381c-22.667 0 -32.334 10.667 -29.001 32l17 113c2.66699 19.333 13.334 29 32.001 29h958c22.667 0 32.334 -11 29.001 -33z" />
    <glyph glyph-name="Idieresis" unicode="&#xcf;" horiz-adv-x="1338" 
d="M654 1680c-28 0 -52 10.167 -72 30.5s-30 44.833 -30 73.5c0 27.333 10 50.833 30 70.5s44 29.5 72 29.5s52.167 -9.83301 72.5 -29.5s30.5 -43.167 30.5 -70.5c0 -28.667 -10.167 -53.167 -30.5 -73.5s-44.5 -30.5 -72.5 -30.5zM1047 1680
c-28 0 -52.167 10.167 -72.5 30.5s-30.5 44.833 -30.5 73.5c0 27.333 10.167 50.833 30.5 70.5s44.5 29.5 72.5 29.5s52 -9.83301 72 -29.5s30 -43.167 30 -70.5c0 -28.667 -10 -53.167 -30 -73.5s-44 -30.5 -72 -30.5zM1289 1288
c-2.66699 -19.333 -13.668 -28.667 -33.001 -28h-385l-152 -1086h381c22 0 31 -11 27 -33l-15 -112c-2.66699 -19.333 -13.667 -29 -33 -29h-957c-22.667 0 -32.334 11 -29.001 33l17 112c2.66699 19.333 13.334 29 32.001 29h385l153 1086h-381
c-22.667 0 -32.334 10.667 -29.001 32l17 113c2.66699 19.333 13.334 29 32.001 29h958c22.667 0 32.334 -11 29.001 -33z" />
    <glyph glyph-name="Eth" unicode="&#xd0;" horiz-adv-x="1331" 
d="M649 1434c108.667 0 205.332 -15.165 289.999 -45.498s153.834 -72.333 207.501 -126s94.334 -116.667 122.001 -189s41.5 -152.5 41.5 -240.5c0 -162.667 -35.667 -307.167 -107 -433.5s-171.833 -224.5 -301.5 -294.5s-277.834 -105 -444.501 -105h-343
c-8.66699 0 -16.167 3.66699 -22.5 11s-8.83301 15.666 -7.5 24.999l85 604h-165c-21.333 0 -31 11 -29 33l14 87c2 19.333 13 28.666 33 27.999h167l87 620c2 17.333 12 26 30 26h343zM470.998 174.002c202 0 360.334 60.667 475.001 182s172 282 172 482
c0 136 -40.333 240.333 -121 313s-202 109 -364 109h-187l-66 -472h164c21.333 0 30.666 -10.667 27.999 -32l-13 -87c-2 -19.333 -13 -29 -33 -29h-167l-65 -466h177z" />
    <glyph glyph-name="Ntilde" unicode="&#xd1;" horiz-adv-x="1419" 
d="M740 1904c34 0 66.1689 -7.33301 96.502 -22s54.666 -31.167 72.999 -49.5s39.5 -34.833 63.5 -49.5s47.333 -22 70 -22c44 0 74.333 21 91 63c4 11.333 11.333 17 22 17h53c6 0 11.167 -1.83301 15.5 -5.5s6.16602 -8.5 5.49902 -14.5c-6 -56 -26.167 -99 -60.5 -129
s-77.833 -45 -130.5 -45c-28 0 -54.333 4.83301 -79 14.5s-46 21.5 -64 35.5l-52 41.5c-16.667 13.667 -34.167 25.5 -52.5 35.5s-36.833 15 -55.5 15c-46 0 -77 -21 -93 -63c-4 -11.333 -11.333 -17 -22 -17h-54c-14.667 0 -20.667 8.33301 -18 25
c6.66699 54.667 26.667 96.667 60 126s77 44 131 44zM1346 1434c8.66699 0 16 -3.66699 22 -11s8.33301 -15.666 7 -24.999l-192 -1372c-2 -17.333 -12 -26 -30 -26h-163c-16 0 -27.667 8.66699 -35 26l-503 1127l-159 -1127c-2 -17.333 -12 -26 -30 -26h-130
c-8.66699 0 -16.167 3.66699 -22.5 11s-8.83301 15.666 -7.5 24.999l193 1370c2 18.667 12 28 30 28h162c16 0 27.333 -8.33301 34 -25l506 -1130l158 1127c2 18.667 12.667 28 32 28h128z" />
    <glyph glyph-name="Ograve" unicode="&#xd2;" horiz-adv-x="1759" 
d="M1090 1581c6.66699 -23.333 -1.66699 -35 -25 -35h-96c-18 0 -29.667 8.33301 -35 25l-86 258c-6.66699 23.333 1.33301 35 24 35h97c18 0 29.667 -8.33301 35 -25zM811.999 -27c-100.667 0 -194.164 19.668 -280.497 59.001s-158 92.333 -215 159
s-98.5 146.167 -124.5 238.5s-32 189.5 -18 291.5c19.333 133.333 69.166 255.833 149.499 367.5s180.666 199.834 300.999 264.501s246.166 97 377.499 97c100.667 0 194 -19.667 280 -59s157.5 -92.333 214.5 -159s98.5 -146.334 124.5 -239.001
s31.667 -190.334 17 -293.001c-19.333 -132.667 -69 -254.667 -149 -366s-180 -199.333 -300 -264s-245.667 -97 -377 -97zM822.002 155.001c154 0 292.167 54.833 414.5 164.5s194.166 243.5 215.499 401.5c14.667 101.333 4 193.833 -32 277.5s-91.667 149.667 -167 198
s-162.333 72.5 -261 72.5c-102 0 -198.833 -25.167 -290.5 -75.5s-168 -119 -229 -206s-98.833 -182.833 -113.5 -287.5c-13.333 -100.667 -2 -192.667 34 -276s91.833 -149 167.5 -197s162.834 -72 261.501 -72z" />
    <glyph glyph-name="Oacute" unicode="&#xd3;" horiz-adv-x="1759" 
d="M976 1546c-12 0 -20 3.66699 -24 11s-3 16 3 26l163 260c7.33301 13.333 19.666 20.333 36.999 21h96c12 0 20 -3.66699 24 -11s3 -16 -3 -26l-162 -260c-7.33301 -13.333 -19.666 -20.333 -36.999 -21h-97zM812 -27c-100.667 0 -194.164 19.668 -280.497 59.001
s-158 92.333 -215 159s-98.5 146.167 -124.5 238.5s-32 189.5 -18 291.5c19.333 133.333 69.166 255.833 149.499 367.5s180.666 199.834 300.999 264.501s246.166 97 377.499 97c100.667 0 194 -19.667 280 -59s157.5 -92.333 214.5 -159s98.5 -146.334 124.5 -239.001
s31.667 -190.334 17 -293.001c-19.333 -132.667 -69 -254.667 -149 -366s-180 -199.333 -300 -264s-245.667 -97 -377 -97zM822.003 155.001c154 0 292.167 54.833 414.5 164.5s194.166 243.5 215.499 401.5c14.667 101.333 4 193.833 -32 277.5s-91.667 149.667 -167 198
s-162.333 72.5 -261 72.5c-102 0 -198.833 -25.167 -290.5 -75.5s-168 -119 -229 -206s-98.833 -182.833 -113.5 -287.5c-13.333 -100.667 -2 -192.667 34 -276s91.833 -149 167.5 -197s162.834 -72 261.501 -72z" />
    <glyph glyph-name="Ocircumflex" unicode="&#xd4;" horiz-adv-x="1759" 
d="M1055 1779l-197.998 -178c-9.33301 -9.33301 -22.333 -14.333 -39 -15h-135c-13.333 0 -21.833 3.66699 -25.5 11s-0.166992 16 10.5 26l272 263c9.33301 9.33301 22.333 14.333 39 15h178c16.667 0 29 -6.33301 37 -19l196 -259
c7.33301 -10 9.16602 -18.667 5.49902 -26s-11.834 -11 -24.501 -11h-135c-14.667 0 -27 6.33301 -37 19zM812.002 -27c-100.667 0 -194.164 19.668 -280.497 59.001s-158 92.333 -215 159s-98.5 146.167 -124.5 238.5s-32 189.5 -18 291.5
c19.333 133.333 69.166 255.833 149.499 367.5s180.666 199.834 300.999 264.501s246.166 97 377.499 97c100.667 0 194 -19.667 280 -59s157.5 -92.333 214.5 -159s98.5 -146.334 124.5 -239.001s31.667 -190.334 17 -293.001c-19.333 -132.667 -69 -254.667 -149 -366
s-180 -199.333 -300 -264s-245.667 -97 -377 -97zM822.005 155.001c154 0 292.167 54.833 414.5 164.5s194.166 243.5 215.499 401.5c14.667 101.333 4 193.833 -32 277.5s-91.667 149.667 -167 198s-162.333 72.5 -261 72.5c-102 0 -198.833 -25.167 -290.5 -75.5
s-168 -119 -229 -206s-98.833 -182.833 -113.5 -287.5c-13.333 -100.667 -2 -192.667 34 -276s91.833 -149 167.5 -197s162.834 -72 261.501 -72z" />
    <glyph glyph-name="Otilde" unicode="&#xd5;" horiz-adv-x="1759" 
d="M904 1904c34 0 66.1689 -7.33301 96.502 -22s54.666 -31.167 72.999 -49.5s39.333 -34.833 63 -49.5s47.167 -22 70.5 -22c44 0 74 21 90 63c4 11.333 11.667 17 23 17h53c6 0 11.167 -1.83301 15.5 -5.5s6.16602 -8.5 5.49902 -14.5c-6 -56 -26.167 -99 -60.5 -129
s-77.833 -45 -130.5 -45c-28 0 -54.5 4.83301 -79.5 14.5s-46.333 21.5 -64 35.5l-51.5 41.5c-16.667 13.667 -34.167 25.5 -52.5 35.5s-36.833 15 -55.5 15c-46 0 -77 -21 -93 -63c-4 -11.333 -11.667 -17 -23 -17h-53c-14.667 0 -20.667 8.33301 -18 25
c6.66699 54.667 26.667 96.667 60 126s77 44 131 44zM812.002 -27c-100.667 0 -194.164 19.668 -280.497 59.001s-158 92.333 -215 159s-98.5 146.167 -124.5 238.5s-32 189.5 -18 291.5c19.333 133.333 69.166 255.833 149.499 367.5s180.666 199.834 300.999 264.501
s246.166 97 377.499 97c100.667 0 194 -19.667 280 -59s157.5 -92.333 214.5 -159s98.5 -146.334 124.5 -239.001s31.667 -190.334 17 -293.001c-19.333 -132.667 -69 -254.667 -149 -366s-180 -199.333 -300 -264s-245.667 -97 -377 -97zM822.005 155.001
c154 0 292.167 54.833 414.5 164.5s194.166 243.5 215.499 401.5c14.667 101.333 4 193.833 -32 277.5s-91.667 149.667 -167 198s-162.333 72.5 -261 72.5c-102 0 -198.833 -25.167 -290.5 -75.5s-168 -119 -229 -206s-98.833 -182.833 -113.5 -287.5
c-13.333 -100.667 -2 -192.667 34 -276s91.833 -149 167.5 -197s162.834 -72 261.501 -72z" />
    <glyph glyph-name="Odieresis" unicode="&#xd6;" horiz-adv-x="1759" 
d="M859 1680c-28 0 -52 10.167 -72 30.5s-30 44.833 -30 73.5c0 27.333 10 50.833 30 70.5s44 29.5 72 29.5s52.167 -9.83301 72.5 -29.5s30.5 -43.167 30.5 -70.5c0 -28.667 -10.167 -53.167 -30.5 -73.5s-44.5 -30.5 -72.5 -30.5zM1251 1680c-28 0 -52 10.167 -72 30.5
s-30 44.833 -30 73.5c0 27.333 10 50.833 30 70.5s44 29.5 72 29.5s52.167 -9.83301 72.5 -29.5s30.5 -43.167 30.5 -70.5c0 -28.667 -10.167 -53.167 -30.5 -73.5s-44.5 -30.5 -72.5 -30.5zM812 -27c-100.667 0 -194.164 19.668 -280.497 59.001s-158 92.333 -215 159
s-98.5 146.167 -124.5 238.5s-32 189.5 -18 291.5c19.333 133.333 69.166 255.833 149.499 367.5s180.666 199.834 300.999 264.501s246.166 97 377.499 97c100.667 0 194 -19.667 280 -59s157.5 -92.333 214.5 -159s98.5 -146.334 124.5 -239.001
s31.667 -190.334 17 -293.001c-19.333 -132.667 -69 -254.667 -149 -366s-180 -199.333 -300 -264s-245.667 -97 -377 -97zM822.003 155.001c154 0 292.167 54.833 414.5 164.5s194.166 243.5 215.499 401.5c14.667 101.333 4 193.833 -32 277.5s-91.667 149.667 -167 198
s-162.333 72.5 -261 72.5c-102 0 -198.833 -25.167 -290.5 -75.5s-168 -119 -229 -206s-98.833 -182.833 -113.5 -287.5c-13.333 -100.667 -2 -192.667 34 -276s91.833 -149 167.5 -197s162.834 -72 261.501 -72z" />
    <glyph glyph-name="multiply" unicode="&#xd7;" horiz-adv-x="1025" 
d="M880 845c15.333 -16.667 15.999 -31.002 1.99902 -43.002l-252 -220l184 -213c12 -17.333 12.333 -32.333 1 -45l-73 -63c-16 -11.333 -29.667 -8.66602 -41 8.00098l-184 213l-253 -221c-13.333 -11.333 -26.666 -8.66602 -39.999 8.00098l-55 62
c-12.667 16.667 -13 31.667 -1 45l252 220l-184 213c-13.333 16 -14 30.333 -2 43l73 62c13.333 11.333 27 9 41 -7l184 -213l252 220c15.333 11.333 29 9 41 -7z" />
    <glyph glyph-name="Oslash" unicode="&#xd8;" horiz-adv-x="1759" 
d="M1307 1380c120 -60.667 210.506 -151.836 271.506 -273.503s80.833 -257.167 59.5 -406.5c-19.333 -132.667 -69 -254.667 -149 -366s-180 -199.333 -300 -264s-245.667 -97 -377 -97c-50 0 -96 4.66699 -138 14l-31 -67c-5.33301 -15.333 -17 -22.666 -35 -21.999h-118
c-11.333 0 -19 3.33301 -23 10s-3.66699 15.334 1 26.001l47 105c-122 60 -214.667 151.333 -278 274s-84.333 258.667 -63 408c19.333 133.333 69.166 255.833 149.499 367.5s180.666 199.834 300.999 264.501s246.166 97 377.499 97c50.667 0 99.667 -5 147 -15l31 68
c5.33301 15.333 16.666 23 33.999 23h119c11.333 0 19.166 -3.5 23.499 -10.5s4.16602 -15.833 -0.500977 -26.5zM359.006 699.998c-14.667 -107.333 -0.5 -204.832 42.5 -292.499s106.833 -153.834 191.5 -198.501l478 1054c-26 4 -52.333 6 -79 6
c-102 0 -198.833 -25.167 -290.5 -75.5s-168 -119 -229 -206s-98.833 -182.833 -113.5 -287.5zM1452.01 720.999c15.333 106.667 2.66895 203.5 -37.998 290.5s-102.334 153.167 -185.001 198.5l-477 -1051c30 -2.66699 53.333 -4 70 -4c154 0 292.167 54.833 414.5 164.5
s194.166 243.5 215.499 401.5z" />
    <glyph glyph-name="Ugrave" unicode="&#xd9;" horiz-adv-x="1498" 
d="M959 1581c6.66699 -23.333 -1.33301 -35 -24 -35h-96c-18 0 -29.667 8.33301 -35 25l-86 258c-6.66699 23.333 1.33301 35 24 35h97c18 0 29.333 -8.33301 34 -25zM1422 1434c22 0 31.334 -11.001 28.001 -33.001l-116 -827c-28.667 -200 -99.834 -350.667 -213.501 -452
s-261.167 -152 -442.5 -152c-185.333 0 -322.5 52.333 -411.5 157s-119.5 257.334 -91.5 458.001l116 820c2.66699 19.333 13.667 29 33 29h130c22 0 31 -11 27 -33l-115 -827c-20 -140.667 -1.5 -246.167 55.5 -316.5s144.833 -105.5 263.5 -105.5
c123.333 0 225.666 36.833 306.999 110.5s132 181.167 152 322.5l116 820c2.66699 19.333 13.334 29 32.001 29h130z" />
    <glyph glyph-name="Uacute" unicode="&#xda;" horiz-adv-x="1498" 
d="M846 1546c-12 0 -20 3.66699 -24 11s-3 16 3 26l163 260c7.33301 13.333 19.666 20.333 36.999 21h96c12 0 20 -3.66699 24 -11s3 -16 -3 -26l-162 -260c-7.33301 -13.333 -19.666 -20.333 -36.999 -21h-97zM1422 1434c22 0 31.334 -11.001 28.001 -33.001l-116 -827
c-28.667 -200 -99.834 -350.667 -213.501 -452s-261.167 -152 -442.5 -152c-185.333 0 -322.5 52.333 -411.5 157s-119.5 257.334 -91.5 458.001l116 820c2.66699 19.333 13.667 29 33 29h130c22 0 31 -11 27 -33l-115 -827c-20 -140.667 -1.5 -246.167 55.5 -316.5
s144.833 -105.5 263.5 -105.5c123.333 0 225.666 36.833 306.999 110.5s132 181.167 152 322.5l116 820c2.66699 19.333 13.334 29 32.001 29h130z" />
    <glyph glyph-name="Ucircumflex" unicode="&#xdb;" horiz-adv-x="1498" 
d="M925 1779l-198.001 -178c-9.33301 -9.33301 -22.333 -14.333 -39 -15h-135c-13.333 0 -21.833 3.66699 -25.5 11s-0.166992 16 10.5 26l272 263c9.33301 9.33301 22.333 14.333 39 15h178c16.667 0 29 -6.33301 37 -19l196 -259c6.66699 -10 8.33398 -18.667 5.00098 -26
s-11.333 -11 -24 -11h-135c-14.667 0 -27 6.33301 -37 19zM1422 1434c22 0 31.334 -11.001 28.001 -33.001l-116 -827c-28.667 -200 -99.834 -350.667 -213.501 -452s-261.167 -152 -442.5 -152c-185.333 0 -322.5 52.333 -411.5 157s-119.5 257.334 -91.5 458.001l116 820
c2.66699 19.333 13.667 29 33 29h130c22 0 31 -11 27 -33l-115 -827c-20 -140.667 -1.5 -246.167 55.5 -316.5s144.833 -105.5 263.5 -105.5c123.333 0 225.666 36.833 306.999 110.5s132 181.167 152 322.5l116 820c2.66699 19.333 13.334 29 32.001 29h130z" />
    <glyph glyph-name="Udieresis" unicode="&#xdc;" horiz-adv-x="1498" 
d="M729 1680c-28 0 -52 10.167 -72 30.5s-30 44.833 -30 73.5c0 27.333 10 50.833 30 70.5s44 29.5 72 29.5s52 -9.83301 72 -29.5s30 -43.167 30 -70.5c0 -28.667 -10 -53.167 -30 -73.5s-44 -30.5 -72 -30.5zM1121 1680c-28 0 -52 10.167 -72 30.5s-30 44.833 -30 73.5
c0 27.333 10 50.833 30 70.5s44 29.5 72 29.5s52.167 -9.83301 72.5 -29.5s30.5 -43.167 30.5 -70.5c0 -28.667 -10.167 -53.167 -30.5 -73.5s-44.5 -30.5 -72.5 -30.5zM1422 1434c22 0 31.334 -11.001 28.001 -33.001l-116 -827
c-28.667 -200 -99.834 -350.667 -213.501 -452s-261.167 -152 -442.5 -152c-185.333 0 -322.5 52.333 -411.5 157s-119.5 257.334 -91.5 458.001l116 820c2.66699 19.333 13.667 29 33 29h130c22 0 31 -11 27 -33l-115 -827c-20 -140.667 -1.5 -246.167 55.5 -316.5
s144.833 -105.5 263.5 -105.5c123.333 0 225.666 36.833 306.999 110.5s132 181.167 152 322.5l116 820c2.66699 19.333 13.334 29 32.001 29h130z" />
    <glyph glyph-name="Yacute" unicode="&#xdd;" horiz-adv-x="1442" 
d="M818 1546c-12 0 -20.001 3.66699 -24.001 11s-2.66699 16 4 26l163 260c7.33301 13.333 19.333 20.333 36 21h97c12 0 19.833 -3.66699 23.5 -11s2.5 -16 -3.5 -26l-162 -260c-7.33301 -13.333 -19.666 -20.333 -36.999 -21h-97zM1457 1434
c12.667 0 21.002 -3.83301 25.002 -11.5s2 -16.5 -6 -26.5l-658 -843l-74 -524c-2.66699 -19.333 -13.334 -29 -32.001 -29h-130c-22 0 -31.333 11 -28 33l74 525l-419 839c-5.33301 10.667 -5.83301 19.5 -1.5 26.5s12.166 10.5 23.499 10.5h151
c17.333 0 29.333 -7.66699 36 -23l328 -665l525 669c8 12 20.667 18.333 38 19h148z" />
    <glyph glyph-name="Thorn" unicode="&#xde;" horiz-adv-x="1255" 
d="M711 1167c156 0 270.5 -42.001 343.5 -126.001s100.167 -195.333 81.5 -334c-19.333 -134 -76 -241 -170 -321s-218.667 -120 -374 -120h-265l-33 -234c-2.66699 -21.333 -14.667 -32 -36 -32h-126c-9.33301 0 -16.666 3.33301 -21.999 10s-7.33301 15.334 -6 26.001
l192 1369c2.66699 19.333 14 29 34 29h128c9.33301 0 16.666 -3.33301 21.999 -10s7.33301 -14.667 6 -24l-32 -233h257zM953 726.999c12.667 94.667 -5.33301 162.667 -54 204s-122 62 -220 62h-250l-78 -553h241c98 0 179 22.833 243 68.5s103.333 118.5 118 218.5z" />
    <glyph glyph-name="germandbls" unicode="&#xdf;" horiz-adv-x="1295" 
d="M871 767c87.333 -16 155.334 -51.1641 204.001 -105.497s73 -127.833 73 -220.5c0 -66.667 -10.167 -125.5 -30.5 -176.5s-48.333 -93 -84 -126s-80.334 -60 -134.001 -81s-111.667 -35.833 -174 -44.5s-132.833 -13 -211.5 -13h-118c-21.333 0 -30.666 11 -27.999 33
l13 91c2 19.333 13 29 33 29h113c56 0 105.833 2.66699 149.5 8s84.667 14.666 123 27.999s70 30.833 95 52.5s44.667 49.667 59 84s21.5 73.833 21.5 118.5c0 83.333 -30.833 142.833 -92.5 178.5s-154.5 53.5 -278.5 53.5h-115c-21.333 0 -30.666 11 -27.999 33l13 90
c2 19.333 13 28.666 33 27.999h110c113.333 0 202.666 23.333 267.999 70s98 112.667 98 198c0 62 -20.833 107 -62.5 135s-111.167 42 -208.5 42c-98.667 0 -171.334 -20.167 -218.001 -60.5s-75 -98.5 -85 -174.5l-142 -1008c-2 -19.333 -13 -29 -33 -29h-122
c-21.333 0 -31 11 -29 33l142 1015c36.667 257.333 205.334 386 506.001 386c140.667 0 247.167 -27.833 319.5 -83.5s108.5 -136.834 108.5 -243.501c0 -87.333 -24.833 -160.5 -74.5 -219.5s-120.834 -99.167 -213.501 -120.5z" />
    <glyph glyph-name="agrave" unicode="&#xe0;" horiz-adv-x="1329" 
d="M657 1141l-86 258c-6.66699 23.333 1.66602 35 24.999 35h96c18 0 29.667 -8.33301 35 -25l86 -258c6.66699 -23.333 -1.66602 -35 -24.999 -35h-96c-18 0 -29.667 8.33301 -35 25zM1189 971l-115.001 -789.999c-2.66699 -18.667 0 -32.334 8 -41.001s20 -11.667 36 -9
c10 1.33301 18.167 -1.5 24.5 -8.5s8.5 -16.833 6.5 -29.5l-9 -51c-6.66699 -37.333 -41.667 -56 -105 -56c-44.667 0 -76 15 -94 45s-24 69 -18 117h-19c-32 -52.667 -77.833 -95 -137.5 -127s-127.5 -48 -203.5 -48c-132 0 -237.833 42 -317.5 126
s-119.5 196.667 -119.5 338c0 111.333 23.833 212.333 71.5 303s112 161 193 211s169.833 75 266.5 75c76 0 142.333 -14.5 199 -43.5s99 -68.167 127 -117.5h16l39 113c4.66699 17.333 16.334 26 35.001 26h87c22 0 31.667 -11 29 -33zM590.999 142.001
c70.667 0 133.833 19.833 189.5 59.5s98 91.167 127 154.5s43.5 131.333 43.5 204c0 96 -26.167 169.5 -78.5 220.5s-119.833 76.5 -202.5 76.5c-106.667 0 -194.167 -38.667 -262.5 -116s-102.5 -176 -102.5 -296c0 -94 25.833 -168 77.5 -222s121.167 -81 208.5 -81z" />
    <glyph glyph-name="aacute" unicode="&#xe1;" horiz-adv-x="1329" 
d="M699 1116c-12 0 -19.833 3.66699 -23.5 11s-2.5 16 3.5 26l163 260c7.33301 13.333 19.666 20.333 36.999 21h96c12 0 20 -3.66699 24 -11s2.66699 -16 -4 -26l-161 -260c-7.33301 -13.333 -19.666 -20.333 -36.999 -21h-98zM1189 971l-115.001 -789.999
c-2.66699 -18.667 0 -32.334 8 -41.001s20 -11.667 36 -9c10 1.33301 18.167 -1.5 24.5 -8.5s8.5 -16.833 6.5 -29.5l-9 -51c-6.66699 -37.333 -41.667 -56 -105 -56c-44.667 0 -76 15 -94 45s-24 69 -18 117h-19c-32 -52.667 -77.833 -95 -137.5 -127
s-127.5 -48 -203.5 -48c-132 0 -237.833 42 -317.5 126s-119.5 196.667 -119.5 338c0 111.333 23.833 212.333 71.5 303s112 161 193 211s169.833 75 266.5 75c76 0 142.333 -14.5 199 -43.5s99 -68.167 127 -117.5h16l39 113c4.66699 17.333 16.334 26 35.001 26h87
c22 0 31.667 -11 29 -33zM590.999 142.001c70.667 0 133.833 19.833 189.5 59.5s98 91.167 127 154.5s43.5 131.333 43.5 204c0 96 -26.167 169.5 -78.5 220.5s-119.833 76.5 -202.5 76.5c-106.667 0 -194.167 -38.667 -262.5 -116s-102.5 -176 -102.5 -296
c0 -94 25.833 -168 77.5 -222s121.167 -81 208.5 -81z" />
    <glyph glyph-name="acircumflex" unicode="&#xe2;" horiz-adv-x="1329" 
d="M407 1156c-13.333 0 -21.832 3.66699 -25.499 11s-0.5 16 9.5 26l273 263c9.33301 9.33301 22 14 38 14h179c16.667 0 29 -6 37 -18l195 -259c7.33301 -10 9.16602 -18.667 5.49902 -26s-11.5 -11 -23.5 -11h-136c-14.667 0 -26.667 6.33301 -36 19l-145 174l-197 -179
c-9.33301 -9.33301 -22.333 -14 -39 -14h-135zM1189 971l-115.001 -789.999c-2.66699 -18.667 0 -32.334 8 -41.001s20 -11.667 36 -9c10 1.33301 18.167 -1.5 24.5 -8.5s8.5 -16.833 6.5 -29.5l-9 -51c-6.66699 -37.333 -41.667 -56 -105 -56c-44.667 0 -76 15 -94 45
s-24 69 -18 117h-19c-32 -52.667 -77.833 -95 -137.5 -127s-127.5 -48 -203.5 -48c-132 0 -237.833 42 -317.5 126s-119.5 196.667 -119.5 338c0 111.333 23.833 212.333 71.5 303s112 161 193 211s169.833 75 266.5 75c76 0 142.333 -14.5 199 -43.5s99 -68.167 127 -117.5
h16l39 113c4.66699 17.333 16.334 26 35.001 26h87c22 0 31.667 -11 29 -33zM591 142.001c70.667 0 133.833 19.833 189.5 59.5s98 91.167 127 154.5s43.5 131.333 43.5 204c0 96 -26.167 169.5 -78.5 220.5s-119.833 76.5 -202.5 76.5
c-106.667 0 -194.167 -38.667 -262.5 -116s-102.5 -176 -102.5 -296c0 -94 25.833 -168 77.5 -222s121.167 -81 208.5 -81z" />
    <glyph glyph-name="atilde" unicode="&#xe3;" horiz-adv-x="1329" 
d="M455 1279c-14.667 0 -21 8.33301 -19 25c6.66699 54.667 26.834 96.667 60.501 126s77.5 44 131.5 44c34 0 66 -7.33301 96 -22s54.167 -31.167 72.5 -49.5s39.5 -34.833 63.5 -49.5s47.667 -22 71 -22c44 0 74 21 90 63c4 11.333 11.333 17 22 17h54
c6 0 11 -1.83301 15 -5.5s5.66699 -8.5 5 -14.5c-6 -56 -26 -99 -60 -129s-77.333 -45 -130 -45c-28 0 -54.5 4.83301 -79.5 14.5s-46.333 21.5 -64 35.5l-51.5 41.5c-16.667 13.667 -34.334 25.5 -53.001 35.5s-37 15 -55 15c-46 0 -77.333 -21 -94 -63
c-4 -11.333 -11.333 -17 -22 -17h-53zM1189 971l-115.001 -789.999c-2.66699 -18.667 0 -32.334 8 -41.001s20 -11.667 36 -9c10 1.33301 18.167 -1.5 24.5 -8.5s8.5 -16.833 6.5 -29.5l-9 -51c-6.66699 -37.333 -41.667 -56 -105 -56c-44.667 0 -76 15 -94 45
s-24 69 -18 117h-19c-32 -52.667 -77.833 -95 -137.5 -127s-127.5 -48 -203.5 -48c-132 0 -237.833 42 -317.5 126s-119.5 196.667 -119.5 338c0 111.333 23.833 212.333 71.5 303s112 161 193 211s169.833 75 266.5 75c76 0 142.333 -14.5 199 -43.5s99 -68.167 127 -117.5
h16l39 113c4.66699 17.333 16.334 26 35.001 26h87c22 0 31.667 -11 29 -33zM590.999 142.001c70.667 0 133.833 19.833 189.5 59.5s98 91.167 127 154.5s43.5 131.333 43.5 204c0 96 -26.167 169.5 -78.5 220.5s-119.833 76.5 -202.5 76.5
c-106.667 0 -194.167 -38.667 -262.5 -116s-102.5 -176 -102.5 -296c0 -94 25.833 -168 77.5 -222s121.167 -81 208.5 -81z" />
    <glyph glyph-name="adieresis" unicode="&#xe4;" horiz-adv-x="1329" 
d="M583 1250c-28 0 -52.167 10.167 -72.5 30.5s-30.5 44.833 -30.5 73.5c0 27.333 10.167 50.833 30.5 70.5s44.5 29.5 72.5 29.5s52 -9.83301 72 -29.5s30 -43.167 30 -70.5c0 -28.667 -10 -53.167 -30 -73.5s-44 -30.5 -72 -30.5zM975 1250
c-28 0 -52.167 10.167 -72.5 30.5s-30.5 44.833 -30.5 73.5c0 27.333 10.167 50.833 30.5 70.5s44.5 29.5 72.5 29.5s52 -9.83301 72 -29.5s30 -43.167 30 -70.5c0 -28.667 -10 -53.167 -30 -73.5s-44 -30.5 -72 -30.5zM1189 971l-115.001 -789.999
c-2.66699 -18.667 0 -32.334 8 -41.001s20 -11.667 36 -9c10 1.33301 18.167 -1.5 24.5 -8.5s8.5 -16.833 6.5 -29.5l-9 -51c-6.66699 -37.333 -41.667 -56 -105 -56c-44.667 0 -76 15 -94 45s-24 69 -18 117h-19c-32 -52.667 -77.833 -95 -137.5 -127
s-127.5 -48 -203.5 -48c-132 0 -237.833 42 -317.5 126s-119.5 196.667 -119.5 338c0 111.333 23.833 212.333 71.5 303s112 161 193 211s169.833 75 266.5 75c76 0 142.333 -14.5 199 -43.5s99 -68.167 127 -117.5h16l39 113c4.66699 17.333 16.334 26 35.001 26h87
c22 0 31.667 -11 29 -33zM590.999 142.001c70.667 0 133.833 19.833 189.5 59.5s98 91.167 127 154.5s43.5 131.333 43.5 204c0 96 -26.167 169.5 -78.5 220.5s-119.833 76.5 -202.5 76.5c-106.667 0 -194.167 -38.667 -262.5 -116s-102.5 -176 -102.5 -296
c0 -94 25.833 -168 77.5 -222s121.167 -81 208.5 -81z" />
    <glyph glyph-name="aring" unicode="&#xe5;" horiz-adv-x="1329" 
d="M769 1125c-52.667 0 -97 18.333 -133 55s-54 80.167 -54 130.5s18 93.833 54 130.5s80.333 55 133 55s97 -18.333 133 -55s54 -80.167 54 -130.5s-18 -93.833 -54 -130.5s-80.333 -55 -133 -55zM769 1383c-20.667 0 -38.168 -7 -52.501 -21s-21.5 -31.167 -21.5 -51.5
s7.16699 -37.333 21.5 -51s31.833 -20.5 52.5 -20.5s38.334 6.83301 53.001 20.5s22 30.834 22 51.501c-0.666992 21.333 -8.16699 38.666 -22.5 51.999s-31.833 20 -52.5 20zM1189 971l-115.001 -789.999c-2.66699 -18.667 0 -32.334 8 -41.001s20 -11.667 36 -9
c10 1.33301 18.167 -1.5 24.5 -8.5s8.5 -16.833 6.5 -29.5l-9 -51c-6.66699 -37.333 -41.667 -56 -105 -56c-44.667 0 -76 15 -94 45s-24 69 -18 117h-19c-32 -52.667 -77.833 -95 -137.5 -127s-127.5 -48 -203.5 -48c-132 0 -237.833 42 -317.5 126
s-119.5 196.667 -119.5 338c0 111.333 23.833 212.333 71.5 303s112 161 193 211s169.833 75 266.5 75c76 0 142.333 -14.5 199 -43.5s99 -68.167 127 -117.5h16l39 113c4.66699 17.333 16.334 26 35.001 26h87c22 0 31.667 -11 29 -33zM590.998 142.001
c70.667 0 133.833 19.833 189.5 59.5s98 91.167 127 154.5s43.5 131.333 43.5 204c0 96 -26.167 169.5 -78.5 220.5s-119.833 76.5 -202.5 76.5c-106.667 0 -194.167 -38.667 -262.5 -116s-102.5 -176 -102.5 -296c0 -94 25.833 -168 77.5 -222s121.167 -81 208.5 -81z" />
    <glyph glyph-name="ae" unicode="&#xe6;" horiz-adv-x="2013" 
d="M1538 423l-499.002 -0.000976562c-1.33301 -88 28 -158.833 88 -212.5s143 -80.5 249 -80.5c116.667 0 214.334 32.667 293.001 98c16.667 12.667 32.334 11.334 47.001 -3.99902l47 -53c18 -19.333 18.333 -36.666 1 -51.999
c-102.667 -96.667 -239.667 -145.334 -411 -146.001c-98.667 0 -184.5 19.5 -257.5 58.5s-129.167 92.833 -168.5 161.5c-169.333 -144.667 -345.333 -217.334 -528 -218.001c-113.333 0 -195.333 26.667 -246 80s-70 125 -58 215c11.333 83.333 47 149 107 197
s147 80.333 261 97l289 43c83.333 12.667 131.666 29.334 144.999 50.001c9.33301 76.667 -2.83398 130.834 -36.501 162.501s-89.834 47.5 -168.501 47.5c-170 0 -269.667 -55.333 -299 -166c-3.33301 -8.66699 -13 -13 -29 -13h-118
c-9.33301 0 -17.166 3.83301 -23.499 11.5s-8.16602 17.167 -5.49902 28.5c26.667 106.667 81 183 163 229s187.667 69 317 69c185.333 0 304.333 -54 357 -162c113.333 108 248 162 404 162c74 0 139.833 -10.333 197.5 -31s103.334 -48.5 137.001 -83.5
s59 -73.333 76 -115s25.5 -84.834 25.5 -129.501c0 -86 -26.5 -148.167 -79.5 -186.5s-145.167 -57.5 -276.5 -57.5zM1452 865.999c-91.333 0 -172.501 -27.8311 -243.501 -83.498s-119.833 -128.5 -146.5 -218.5h424c37.333 0 67.333 0.5 90 1.5s45 3.66699 67 8
s38.833 10.166 50.5 17.499s21 17.666 28 30.999s10.5 30 10.5 50c-0.666992 52.667 -25.167 98.167 -73.5 136.5s-117.166 57.5 -206.499 57.5zM436.997 136.001c166.667 0 314 62.3311 442 186.998c-7.33301 36 -11.333 72 -12 108c0 16.667 1.33301 41.334 4 74.001
c-10 -11.333 -45.667 -21.666 -107 -30.999l-268 -41c-70.667 -10.667 -122.5 -29.5 -155.5 -56.5s-52.833 -62.833 -59.5 -107.5c-12.667 -88.667 39.333 -133 156 -133z" />
    <glyph glyph-name="ccedilla" unicode="&#xe7;" horiz-adv-x="1224" 
d="M1103 786c9.33301 -18 5.00391 -31.666 -12.9961 -40.999l-99 -50c-17.333 -8.66699 -31 -4 -41 14c-26.667 46.667 -63.167 83.167 -109.5 109.5s-98.833 39.5 -157.5 39.5c-106.667 0 -196.334 -38.167 -269.001 -114.5s-109 -174.5 -109 -294.5
c0 -91.333 27.5 -165.333 82.5 -222s125.833 -85 212.5 -85c132 0 237.333 53.333 316 160c11.333 16.667 25.666 19 42.999 7l83 -54c18 -10.667 21 -25 9 -43c-52 -74.667 -117.667 -133.167 -197 -175.5s-166 -63.5 -260 -63.5c-136.667 0 -248.834 45 -336.501 135
s-131.5 203 -131.5 339c0 106.667 25.667 204.5 77 293.5s120.166 158.833 206.499 209.5s179.833 76 280.5 76c92.667 0 175.167 -21.333 247.5 -64s127.5 -101.334 165.5 -176.001zM183.004 -76.999c47.333 -4 87.332 -20.332 119.999 -48.999s49 -66 49 -112
c0 -54.667 -16.5 -98.834 -49.5 -132.501s-73.167 -55.167 -120.5 -64.5s-97.666 -9.33301 -150.999 0c-12 2 -18.333 9.33301 -19 22v67c0 6.66699 2.16699 11.834 6.5 15.501s9.83301 5.16699 16.5 4.5c55.333 -8 99 -4.83301 131 9.5s48 36.833 48 67.5
c0 28.667 -17.5 49.334 -52.5 62.001s-76.5 9.66699 -124.5 -9c-6.66699 -2.66699 -12.5 -2.83398 -17.5 -0.500977s-7.5 7.5 -7.5 15.5v65c0 7.33301 3.66699 15.666 11 24.999l87 91h150z" />
    <glyph glyph-name="egrave" unicode="&#xe8;" horiz-adv-x="1269" 
d="M632 1141l-86 258c-6.66699 23.333 1.33301 35 24 35h97c18 0 29.333 -8.33301 34 -25l86 -258c6.66699 -23.333 -1.33301 -35 -24 -35h-96c-18 0 -29.667 8.33301 -35 25zM795 423h-499.004c-1.33301 -88 27.834 -158.833 87.501 -212.5s142.834 -80.5 249.501 -80.5
c116.667 0 214.334 32.667 293.001 98c16.667 12.667 32.334 11.334 47.001 -3.99902l47 -53c18 -19.333 18.333 -36.666 1 -51.999c-102.667 -96.667 -240 -145.334 -412 -146.001c-150 0 -268.333 42.833 -355 128.5s-130 195.5 -130 329.5c0 106 25.833 204.5 77.5 295.5
s123 163.667 214 218s190.833 81.5 299.5 81.5c74 0 139.667 -10.333 197 -31s103 -48.5 137 -83.5s59.5 -73.333 76.5 -115s25.5 -84.834 25.5 -129.501c0 -86 -26.5 -148.167 -79.5 -186.5s-145.167 -57.5 -276.5 -57.5zM708.996 866
c-91.333 0 -172.668 -27.8311 -244.001 -83.498s-120.333 -128.5 -147 -218.5h424c37.333 0 67.333 0.5 90 1.5s45.167 3.66699 67.5 8s39.333 10.166 51 17.499s20.834 17.666 27.501 30.999s10 30 10 50c-0.666992 52.667 -25 98.167 -73 136.5s-116.667 57.5 -206 57.5z
" />
    <glyph glyph-name="eacute" unicode="&#xe9;" horiz-adv-x="1269" 
d="M674 1116c-12 0 -20 3.66699 -24 11s-3 16 3 26l163 260c7.33301 13.333 19.666 20.333 36.999 21h96c12 0 20 -3.66699 24 -11s3 -16 -3 -26l-162 -260c-7.33301 -13.333 -19.666 -20.333 -36.999 -21h-97zM795 423h-499.004
c-1.33301 -88 27.834 -158.833 87.501 -212.5s142.834 -80.5 249.501 -80.5c116.667 0 214.334 32.667 293.001 98c16.667 12.667 32.334 11.334 47.001 -3.99902l47 -53c18 -19.333 18.333 -36.666 1 -51.999c-102.667 -96.667 -240 -145.334 -412 -146.001
c-150 0 -268.333 42.833 -355 128.5s-130 195.5 -130 329.5c0 106 25.833 204.5 77.5 295.5s123 163.667 214 218s190.833 81.5 299.5 81.5c74 0 139.667 -10.333 197 -31s103 -48.5 137 -83.5s59.5 -73.333 76.5 -115s25.5 -84.834 25.5 -129.501
c0 -86 -26.5 -148.167 -79.5 -186.5s-145.167 -57.5 -276.5 -57.5zM708.996 866c-91.333 0 -172.668 -27.8311 -244.001 -83.498s-120.333 -128.5 -147 -218.5h424c37.333 0 67.333 0.5 90 1.5s45.167 3.66699 67.5 8s39.333 10.166 51 17.499s20.834 17.666 27.501 30.999
s10 30 10 50c-0.666992 52.667 -25 98.167 -73 136.5s-116.667 57.5 -206 57.5z" />
    <glyph glyph-name="ecircumflex" unicode="&#xea;" horiz-adv-x="1269" 
d="M381 1156c-13.333 0 -21.834 3.66699 -25.501 11s-0.166992 16 10.5 26l272 263c9.33301 9.33301 22.333 14 39 14h178c16.667 0 29 -6 37 -18l195 -259c6.66699 -10 8.33398 -18.667 5.00098 -26s-11 -11 -23 -11h-135c-14.667 0 -27 6.33301 -37 19l-144 174l-198 -179
c-9.33301 -9.33301 -22.333 -14 -39 -14h-135zM794.999 423h-499.004c-1.33301 -88 27.834 -158.833 87.501 -212.5s142.834 -80.5 249.501 -80.5c116.667 0 214.334 32.667 293.001 98c16.667 12.667 32.334 11.334 47.001 -3.99902l47 -53
c18 -19.333 18.333 -36.666 1 -51.999c-102.667 -96.667 -240 -145.334 -412 -146.001c-150 0 -268.333 42.833 -355 128.5s-130 195.5 -130 329.5c0 106 25.833 204.5 77.5 295.5s123 163.667 214 218s190.833 81.5 299.5 81.5c74 0 139.667 -10.333 197 -31
s103 -48.5 137 -83.5s59.5 -73.333 76.5 -115s25.5 -84.834 25.5 -129.501c0 -86 -26.5 -148.167 -79.5 -186.5s-145.167 -57.5 -276.5 -57.5zM708.995 866c-91.333 0 -172.668 -27.8311 -244.001 -83.498s-120.333 -128.5 -147 -218.5h424c37.333 0 67.333 0.5 90 1.5
s45.167 3.66699 67.5 8s39.333 10.166 51 17.499s20.834 17.666 27.501 30.999s10 30 10 50c-0.666992 52.667 -25 98.167 -73 136.5s-116.667 57.5 -206 57.5z" />
    <glyph glyph-name="edieresis" unicode="&#xeb;" horiz-adv-x="1269" 
d="M557 1250c-28 0 -52 10.167 -72 30.5s-30 44.833 -30 73.5c0 27.333 10 50.833 30 70.5s44 29.5 72 29.5s52 -9.83301 72 -29.5s30 -43.167 30 -70.5c0 -28.667 -10 -53.167 -30 -73.5s-44 -30.5 -72 -30.5zM949 1250c-28 0 -52 10.167 -72 30.5s-30 44.833 -30 73.5
c0 27.333 10 50.833 30 70.5s44 29.5 72 29.5s52.167 -9.83301 72.5 -29.5s30.5 -43.167 30.5 -70.5c0 -28.667 -10.167 -53.167 -30.5 -73.5s-44.5 -30.5 -72.5 -30.5zM795 423h-499.004c-1.33301 -88 27.834 -158.833 87.501 -212.5s142.834 -80.5 249.501 -80.5
c116.667 0 214.334 32.667 293.001 98c16.667 12.667 32.334 11.334 47.001 -3.99902l47 -53c18 -19.333 18.333 -36.666 1 -51.999c-102.667 -96.667 -240 -145.334 -412 -146.001c-150 0 -268.333 42.833 -355 128.5s-130 195.5 -130 329.5c0 106 25.833 204.5 77.5 295.5
s123 163.667 214 218s190.833 81.5 299.5 81.5c74 0 139.667 -10.333 197 -31s103 -48.5 137 -83.5s59.5 -73.333 76.5 -115s25.5 -84.834 25.5 -129.501c0 -86 -26.5 -148.167 -79.5 -186.5s-145.167 -57.5 -276.5 -57.5zM708.996 866
c-91.333 0 -172.668 -27.8311 -244.001 -83.498s-120.333 -128.5 -147 -218.5h424c37.333 0 67.333 0.5 90 1.5s45.167 3.66699 67.5 8s39.333 10.166 51 17.499s20.834 17.666 27.501 30.999s10 30 10 50c-0.666992 52.667 -25 98.167 -73 136.5s-116.667 57.5 -206 57.5z
" />
    <glyph glyph-name="igrave" unicode="&#xec;" 
d="M778 1151c6.66699 -23.333 -1.33301 -35 -24 -35h-97c-18 0 -29.333 8.33301 -34 25l-86 258c-6.66699 23.333 1.33301 35 24 35h96c18 0 29.667 -8.33301 35 -25zM1111 151c6.66699 -14.667 4.66309 -27.334 -6.00391 -38.001
c-31.333 -33.333 -77.333 -63.833 -138 -91.5s-127.334 -41.5 -200.001 -41.5c-32.667 0 -63.167 2.66699 -91.5 8s-57 14.333 -86 27s-53.667 29.667 -74 51s-38.166 48 -53.499 80s-24.166 69.667 -26.499 113s-0.166016 93.333 6.50098 150l68 436h-350
c-10 0 -17.667 2.83301 -23 8.5s-7.33301 13.834 -6 24.501l12 97c2.66699 19.333 13.667 29 33 29h508c22 0 31.333 -11 28 -33l-86 -563c-4 -38 -5.66699 -71.333 -5 -100s5.83398 -52.834 15.501 -72.501s20 -35.667 31 -48s24.667 -22 41 -29s31.5 -11.667 45.5 -14
s29 -3.5 45 -3.5c76.667 0 152.334 31 227.001 93c20 16.667 35 14.334 45 -6.99902z" />
    <glyph glyph-name="iacute" unicode="&#xed;" 
d="M665 1116c-12 0 -20 3.66699 -24 11s-3 16 3 26l163 260c7.33301 13.333 19.666 20.333 36.999 21h96c12 0 20 -3.66699 24 -11s3 -16 -3 -26l-162 -260c-7.33301 -13.333 -19.666 -20.333 -36.999 -21h-97zM1111 151c6.66699 -14.667 4.66309 -27.334 -6.00391 -38.001
c-31.333 -33.333 -77.333 -63.833 -138 -91.5s-127.334 -41.5 -200.001 -41.5c-32.667 0 -63.167 2.66699 -91.5 8s-57 14.333 -86 27s-53.667 29.667 -74 51s-38.166 48 -53.499 80s-24.166 69.667 -26.499 113s-0.166016 93.333 6.50098 150l68 436h-350
c-10 0 -17.667 2.83301 -23 8.5s-7.33301 13.834 -6 24.501l12 97c2.66699 19.333 13.667 29 33 29h508c22 0 31.333 -11 28 -33l-86 -563c-4 -38 -5.66699 -71.333 -5 -100s5.83398 -52.834 15.501 -72.501s20 -35.667 31 -48s24.667 -22 41 -29s31.5 -11.667 45.5 -14
s29 -3.5 45 -3.5c76.667 0 152.334 31 227.001 93c20 16.667 35 14.334 45 -6.99902z" />
    <glyph glyph-name="icircumflex" unicode="&#xee;" 
d="M743 1349l-196.999 -179c-9.33301 -9.33301 -22.333 -14 -39 -14h-135c-13.333 0 -21.833 3.66699 -25.5 11s-0.5 16 9.5 26l273 263c9.33301 9.33301 22.333 14 39 14h178c16.667 0 29 -6 37 -18l195 -259c7.33301 -10 9.16602 -18.667 5.49902 -26s-11.5 -11 -23.5 -11
h-135c-14.667 0 -27 6.33301 -37 19zM1111 151c6.66699 -14.667 4.66309 -27.334 -6.00391 -38.001c-31.333 -33.333 -77.333 -63.833 -138 -91.5s-127.334 -41.5 -200.001 -41.5c-32.667 0 -63.167 2.66699 -91.5 8s-57 14.333 -86 27s-53.667 29.667 -74 51
s-38.166 48 -53.499 80s-24.166 69.667 -26.499 113s-0.166016 93.333 6.50098 150l68 436h-350c-10 0 -17.667 2.83301 -23 8.5s-7.33301 13.834 -6 24.501l12 97c2.66699 19.333 13.667 29 33 29h508c22 0 31.333 -11 28 -33l-86 -563c-4 -38 -5.66699 -71.333 -5 -100
s5.83398 -52.834 15.501 -72.501s20 -35.667 31 -48s24.667 -22 41 -29s31.5 -11.667 45.5 -14s29 -3.5 45 -3.5c76.667 0 152.334 31 227.001 93c20 16.667 35 14.334 45 -6.99902z" />
    <glyph glyph-name="idieresis" unicode="&#xef;" 
d="M548 1250c-28 0 -52.167 10.167 -72.5 30.5s-30.5 44.833 -30.5 73.5c0 27.333 10.167 50.833 30.5 70.5s44.5 29.5 72.5 29.5s52 -9.83301 72 -29.5s30 -43.167 30 -70.5c0 -28.667 -10 -53.167 -30 -73.5s-44 -30.5 -72 -30.5zM940 1250c-28 0 -52 10.167 -72 30.5
s-30 44.833 -30 73.5c0 27.333 10 50.833 30 70.5s44 29.5 72 29.5s52 -9.83301 72 -29.5s30 -43.167 30 -70.5c0 -28.667 -10 -53.167 -30 -73.5s-44 -30.5 -72 -30.5zM1111 151c6.66699 -14.667 4.66309 -27.334 -6.00391 -38.001
c-31.333 -33.333 -77.333 -63.833 -138 -91.5s-127.334 -41.5 -200.001 -41.5c-32.667 0 -63.167 2.66699 -91.5 8s-57 14.333 -86 27s-53.667 29.667 -74 51s-38.166 48 -53.499 80s-24.166 69.667 -26.499 113s-0.166016 93.333 6.50098 150l68 436h-350
c-10 0 -17.667 2.83301 -23 8.5s-7.33301 13.834 -6 24.501l12 97c2.66699 19.333 13.667 29 33 29h508c22 0 31.333 -11 28 -33l-86 -563c-4 -38 -5.66699 -71.333 -5 -100s5.83398 -52.834 15.501 -72.501s20 -35.667 31 -48s24.667 -22 41 -29s31.5 -11.667 45.5 -14
s29 -3.5 45 -3.5c76.667 0 152.334 31 227.001 93c20 16.667 35 14.334 45 -6.99902z" />
    <glyph glyph-name="eth" unicode="&#xf0;" horiz-adv-x="1331" 
d="M1213 1434c23.333 0 32.9971 -11 28.9971 -33l-16 -115c2 -4 3 -9 3 -15v-78c0 -16.667 -7.33301 -27 -22 -31l-140 -981c-2.66699 -18.667 -0.166992 -32.167 7.5 -40.5s19.834 -11.5 36.501 -9.5c10 1.33301 18 -1.33398 24 -8.00098s8 -16.667 6 -30l-8 -51
c-6.66699 -37.333 -42 -56 -106 -56c-44 0 -75 14.5 -93 43.5s-25 67.5 -21 115.5h-19c-28 -52 -71 -93.667 -129 -125s-124 -47 -198 -47c-133.333 0 -240.333 42 -321 126s-121 196 -121 336c0 110.667 24.167 211.334 72.5 302.001s114 161.5 197 212.5
s174.5 76.5 274.5 76.5c70.667 0 132.834 -14.333 186.501 -43s93.834 -68 120.501 -118h18v93l26 178l-226 -31c-10 -1.33301 -18 0.5 -24 5.5s-9 12.833 -9 23.5v77c0 18.667 9.66699 29.667 29 33l250 34l19 127c2 19.333 13 29 33 29h121zM599.997 142
c66 0 125.833 20.5 179.5 61.5s94.5 93.333 122.5 157s42 130.834 42 201.501c0 95.333 -25.167 168.5 -75.5 219.5s-114.833 76.5 -193.5 76.5c-107.333 0 -196.166 -39.333 -266.499 -118s-105.5 -177.334 -105.5 -296.001c0 -94 26.667 -167.833 80 -221.5
s125.666 -80.5 216.999 -80.5z" />
    <glyph glyph-name="ntilde" unicode="&#xf1;" horiz-adv-x="1271" 
d="M1075 1411c6 0 11.1689 -1.83301 15.502 -5.5s6.16602 -8.5 5.49902 -14.5c-6 -56 -26.167 -99 -60.5 -129s-77.833 -45 -130.5 -45c-28 0 -54.5 4.83301 -79.5 14.5s-46.333 21.5 -64 35.5l-51.5 41.5c-16.667 13.667 -34.167 25.5 -52.5 35.5s-36.833 15 -55.5 15
c-46 0 -77 -21 -93 -63c-4 -11.333 -11.667 -17 -23 -17h-53c-14.667 0 -20.667 8.33301 -18 25c6.66699 54.667 26.667 96.667 60 126s77 44 131 44c34 0 66.167 -7.33301 96.5 -22s54.666 -31.167 72.999 -49.5s39.333 -34.833 63 -49.5s47.167 -22 70.5 -22
c44 0 74 21 90 63c4 11.333 11.667 17 23 17h53zM1061 131c10 1.33301 18.166 -1.50195 24.499 -8.50195s8.5 -16.833 6.5 -29.5l-10 -51c-6.66699 -37.333 -41.334 -56 -104.001 -56c-54.667 0 -94.667 16.167 -120 48.5s-34.666 72.833 -27.999 121.5l64 447
c12 84.667 -1.33301 148.334 -40 191.001s-94.334 64 -167.001 64c-85.333 0 -158.833 -24.5 -220.5 -73.5s-102.167 -101.167 -121.5 -156.5l-85 -599c-2 -19.333 -13 -29 -33 -29h-121c-23.333 0 -32.666 11 -27.999 33l134 942c2 19.333 13 29 33 29h111
c8.66699 0 16 -3.66699 22 -11s8.33301 -15.666 7 -24.999l-9 -125h18c34 52.667 81.833 96.334 143.5 131.001s131.834 52 210.501 52c56 0 106.667 -8.83301 152 -26.5s83.333 -43.5 114 -77.5s52.167 -77.333 64.5 -130s13.166 -112.334 2.49902 -179.001l-64 -432
c-2.66699 -18.667 -0.166992 -32.167 7.5 -40.5s19.834 -11.5 36.501 -9.5zM337.001 584.998l5 30c-3.33301 -12 -5 -22 -5 -30z" />
    <glyph glyph-name="ograve" unicode="&#xf2;" horiz-adv-x="1290" 
d="M799 1151c6.66699 -23.333 -1.66602 -35 -24.999 -35h-96c-18 0 -29.667 8.33301 -35 25l-86 258c-6.66699 23.333 1.66602 35 24.999 35h96c18 0 29.667 -8.33301 35 -25zM594 -27c-136.667 0 -248.833 45 -336.5 135s-131.5 203 -131.5 339
c0 106.667 25.667 204.5 77 293.5s120.166 158.833 206.499 209.5s179.833 76 280.5 76c136.667 0 248.834 -44.667 336.501 -134s131.5 -202 131.5 -338c0 -80 -15 -156 -45 -228s-70.333 -133.5 -121 -184.5s-110.5 -91.833 -179.5 -122.5s-141.833 -46 -218.5 -46z
M600.001 142c107.333 0 197.334 37.999 270.001 113.999s109 174.667 109 296c0 90.667 -27.5 164.334 -82.5 221.001s-126.167 85 -213.5 85c-106.667 0 -196.334 -38.167 -269.001 -114.5s-109 -174.5 -109 -294.5c0 -91.333 27.5 -165.333 82.5 -222
s125.833 -85 212.5 -85z" />
    <glyph glyph-name="oacute" unicode="&#xf3;" horiz-adv-x="1290" 
d="M685 1116c-12 0 -20 3.66699 -24 11s-2.66699 16 4 26l162 260c7.33301 13.333 19.666 20.333 36.999 21h97c12 0 19.833 -3.66699 23.5 -11s2.5 -16 -3.5 -26l-162 -260c-7.33301 -13.333 -19.666 -20.333 -36.999 -21h-97zM594 -27c-136.667 0 -248.833 45 -336.5 135
s-131.5 203 -131.5 339c0 106.667 25.667 204.5 77 293.5s120.166 158.833 206.499 209.5s179.833 76 280.5 76c136.667 0 248.834 -44.667 336.501 -134s131.5 -202 131.5 -338c0 -80 -15 -156 -45 -228s-70.333 -133.5 -121 -184.5s-110.5 -91.833 -179.5 -122.5
s-141.833 -46 -218.5 -46zM600.001 142c107.333 0 197.334 37.999 270.001 113.999s109 174.667 109 296c0 90.667 -27.5 164.334 -82.5 221.001s-126.167 85 -213.5 85c-106.667 0 -196.334 -38.167 -269.001 -114.5s-109 -174.5 -109 -294.5
c0 -91.333 27.5 -165.333 82.5 -222s125.833 -85 212.5 -85z" />
    <glyph glyph-name="ocircumflex" unicode="&#xf4;" horiz-adv-x="1290" 
d="M764 1349l-197.998 -179c-9.33301 -9.33301 -22.333 -14 -39 -14h-135c-13.333 0 -21.833 3.66699 -25.5 11s-0.166992 16 10.5 26l272 263c9.33301 9.33301 22.333 14 39 14h178c16.667 0 29 -6 37 -18l196 -259c7.33301 -10 9.16602 -18.667 5.49902 -26
s-11.834 -11 -24.501 -11h-135c-14.667 0 -27 6.33301 -37 19zM594.002 -27c-136.667 0 -248.833 45 -336.5 135s-131.5 203 -131.5 339c0 106.667 25.667 204.5 77 293.5s120.166 158.833 206.499 209.5s179.833 76 280.5 76c136.667 0 248.834 -44.667 336.501 -134
s131.5 -202 131.5 -338c0 -80 -15 -156 -45 -228s-70.333 -133.5 -121 -184.5s-110.5 -91.833 -179.5 -122.5s-141.833 -46 -218.5 -46zM600.003 142c107.333 0 197.334 37.999 270.001 113.999s109 174.667 109 296c0 90.667 -27.5 164.334 -82.5 221.001
s-126.167 85 -213.5 85c-106.667 0 -196.334 -38.167 -269.001 -114.5s-109 -174.5 -109 -294.5c0 -91.333 27.5 -165.333 82.5 -222s125.833 -85 212.5 -85z" />
    <glyph glyph-name="otilde" unicode="&#xf5;" horiz-adv-x="1290" 
d="M613 1474c34 0 66.1689 -7.33301 96.502 -22s54.666 -31.167 72.999 -49.5s39.5 -34.833 63.5 -49.5s47.333 -22 70 -22c44 0 74.333 21 91 63c4 11.333 11.333 17 22 17h53c6 0 11.167 -1.83301 15.5 -5.5s6.16602 -8.5 5.49902 -14.5c-6 -56 -26.167 -99 -60.5 -129
s-77.833 -45 -130.5 -45c-28 0 -54.333 4.83301 -79 14.5s-46 21.5 -64 35.5l-52 41.5c-16.667 13.667 -34.167 25.5 -52.5 35.5s-36.833 15 -55.5 15c-46 0 -77 -21 -93 -63c-4 -11.333 -11.333 -17 -22 -17h-54c-14.667 0 -20.667 8.33301 -18 25
c6.66699 54.667 26.667 96.667 60 126s77 44 131 44zM594.002 -27c-136.667 0 -248.833 45 -336.5 135s-131.5 203 -131.5 339c0 106.667 25.667 204.5 77 293.5s120.166 158.833 206.499 209.5s179.833 76 280.5 76c136.667 0 248.834 -44.667 336.501 -134
s131.5 -202 131.5 -338c0 -80 -15 -156 -45 -228s-70.333 -133.5 -121 -184.5s-110.5 -91.833 -179.5 -122.5s-141.833 -46 -218.5 -46zM600.003 142c107.333 0 197.334 37.999 270.001 113.999s109 174.667 109 296c0 90.667 -27.5 164.334 -82.5 221.001
s-126.167 85 -213.5 85c-106.667 0 -196.334 -38.167 -269.001 -114.5s-109 -174.5 -109 -294.5c0 -91.333 27.5 -165.333 82.5 -222s125.833 -85 212.5 -85z" />
    <glyph glyph-name="odieresis" unicode="&#xf6;" horiz-adv-x="1290" 
d="M568 1250c-28 0 -52 10.167 -72 30.5s-30 44.833 -30 73.5c0 27.333 10 50.833 30 70.5s44 29.5 72 29.5s52.167 -9.83301 72.5 -29.5s30.5 -43.167 30.5 -70.5c0 -28.667 -10.167 -53.167 -30.5 -73.5s-44.5 -30.5 -72.5 -30.5zM960.5 1250
c-27.667 0 -51.667 10.167 -72 30.5s-30.5 44.833 -30.5 73.5c0 27.333 10.167 50.833 30.5 70.5s44.333 29.5 72 29.5s51.667 -9.83301 72 -29.5s30.5 -43.167 30.5 -70.5c0 -28.667 -10.167 -53.167 -30.5 -73.5s-44.333 -30.5 -72 -30.5zM594 -27
c-136.667 0 -248.833 45 -336.5 135s-131.5 203 -131.5 339c0 106.667 25.667 204.5 77 293.5s120.166 158.833 206.499 209.5s179.833 76 280.5 76c136.667 0 248.834 -44.667 336.501 -134s131.5 -202 131.5 -338c0 -80 -15 -156 -45 -228s-70.333 -133.5 -121 -184.5
s-110.5 -91.833 -179.5 -122.5s-141.833 -46 -218.5 -46zM600.001 142c107.333 0 197.334 37.999 270.001 113.999s109 174.667 109 296c0 90.667 -27.5 164.334 -82.5 221.001s-126.167 85 -213.5 85c-106.667 0 -196.334 -38.167 -269.001 -114.5s-109 -174.5 -109 -294.5
c0 -91.333 27.5 -165.333 82.5 -222s125.833 -85 212.5 -85z" />
    <glyph glyph-name="divide" unicode="&#xf7;" horiz-adv-x="1203" 
d="M649.5 752c-40.333 0 -74.5 14 -102.5 42s-42 62 -42 102s14 74.333 42 103s62.167 43 102.5 43s74.5 -14.333 102.5 -43s42 -63 42 -103s-14 -74 -42 -102s-62.167 -42 -102.5 -42zM998 657c8.66699 0 16 -2.66699 22 -8s9 -12.666 9 -21.999v-88
c0 -9.33301 -2.83301 -16.833 -8.5 -22.5s-13.167 -8.5 -22.5 -8.5h-771c-9.33301 0 -16.666 2.66699 -21.999 8s-8 13 -8 23v88c0 9.33301 2.66699 16.666 8 21.999s12.666 8 21.999 8h771zM559.5 123c-40.333 0 -74.5 14 -102.5 42s-42 62.167 -42 102.5
s14 74.666 42 102.999s62.167 42.5 102.5 42.5s74.333 -14.167 102 -42.5s41.5 -62.666 41.5 -102.999s-13.833 -74.5 -41.5 -102.5s-61.667 -42 -102 -42z" />
    <glyph glyph-name="oslash" unicode="&#xf8;" horiz-adv-x="1290" 
d="M923 970c73.333 -39.333 130.831 -95.502 172.498 -168.502s62.5 -155.5 62.5 -247.5c0 -80 -15 -156 -45 -228s-70.333 -133.5 -121 -184.5s-110.5 -91.833 -179.5 -122.5s-141.833 -46 -218.5 -46c-42 0 -81.333 4.66699 -118 14l-48 -108
c-6 -15.333 -17.667 -22.666 -35 -21.999h-97c-11.333 0 -19.166 3.33301 -23.499 10s-4.16602 15.667 0.500977 27l68 148c-66.667 40.667 -119.167 96.334 -157.5 167.001s-57.5 150 -57.5 238c0 106.667 25.667 204.5 77 293.5s120.166 158.833 206.499 209.5
s179.833 76 280.5 76c30 0 60.667 -2.66699 92 -8l46 102c6.66699 15.333 18.334 23 35.001 23h99c11.333 0 19 -3.5 23 -10.5s3.66699 -15.833 -1 -26.5zM304.998 448.998c0 -106 36.334 -187.667 109.001 -245l296 653c-6 0.666992 -15 1 -27 1
c-106.667 0 -196.334 -38.167 -269.001 -114.5s-109 -174.5 -109 -294.5zM599.999 141.998c107.333 0 197.334 37.998 270.001 113.998s109 174.667 109 296c0 56.667 -11.333 107.334 -34 152.001s-54.334 80.334 -95.001 107.001l-301 -665c14 -2.66699 31 -4 51 -4z" />
    <glyph glyph-name="ugrave" unicode="&#xf9;" 
d="M623 1141l-86.001 258c-6.66699 23.333 1.33301 35 24 35h96c18 0 29.667 -8.33301 35 -25l86 -258c6.66699 -23.333 -1.33301 -35 -24 -35h-97c-17.333 0 -28.666 8.33301 -33.999 25zM1104 971l-113.999 -790c-2.66699 -18.667 0 -32.167 8 -40.5s20 -11.5 36 -9.5
c10 1.33301 18 -1.33398 24 -8.00098s8 -16.667 6 -30l-8 -51c-6.66699 -37.333 -42 -56 -106 -56c-53.333 0 -90 15.667 -110 47s-26.333 72.333 -19 123l3 22h-16c-28.667 -56 -75 -102.833 -139 -140.5s-137 -56.5 -219 -56.5c-111.333 0 -198.333 36.833 -261 110.5
s-84.334 175.834 -65.001 306.501l83 577c2 19.333 13 29 33 29h121c22.667 0 32.334 -11 29.001 -33l-81 -562c-12 -84.667 0.666992 -148.5 38 -191.5s90 -64.5 158 -64.5c78.667 0 145.167 23 199.5 69s98.166 102 131.499 168l85 588c2 17.333 13.333 26 34 26h120
c23.333 0 33 -11 29 -33z" />
    <glyph glyph-name="uacute" unicode="&#xfa;" 
d="M665 1116c-12 0 -20 3.66699 -24 11s-3 16 3 26l163 260c7.33301 13.333 19.666 20.333 36.999 21h96c12 0 20 -3.66699 24 -11s3 -16 -3 -26l-162 -260c-7.33301 -13.333 -19.666 -20.333 -36.999 -21h-97zM1104 971l-113.999 -790c-2.66699 -18.667 0 -32.167 8 -40.5
s20 -11.5 36 -9.5c10 1.33301 18 -1.33398 24 -8.00098s8 -16.667 6 -30l-8 -51c-6.66699 -37.333 -42 -56 -106 -56c-53.333 0 -90 15.667 -110 47s-26.333 72.333 -19 123l3 22h-16c-28.667 -56 -75 -102.833 -139 -140.5s-137 -56.5 -219 -56.5
c-111.333 0 -198.333 36.833 -261 110.5s-84.334 175.834 -65.001 306.501l83 577c2 19.333 13 29 33 29h121c22.667 0 32.334 -11 29.001 -33l-81 -562c-12 -84.667 0.666992 -148.5 38 -191.5s90 -64.5 158 -64.5c78.667 0 145.167 23 199.5 69s98.166 102 131.499 168
l85 588c2 17.333 13.333 26 34 26h120c23.333 0 33 -11 29 -33z" />
    <glyph glyph-name="ucircumflex" unicode="&#xfb;" 
d="M372 1156c-13.333 0 -21.832 3.66699 -25.499 11s-0.5 16 9.5 26l273 263c9.33301 9.33301 22.333 14 39 14h178c16.667 0 29 -6 37 -18l195 -259c7.33301 -10 9.16602 -18.667 5.49902 -26s-11.5 -11 -23.5 -11h-135c-14.667 0 -27 6.33301 -37 19l-145 174l-197 -179
c-9.33301 -9.33301 -22.333 -14 -39 -14h-135zM1104 971l-113.999 -790c-2.66699 -18.667 0 -32.167 8 -40.5s20 -11.5 36 -9.5c10 1.33301 18 -1.33398 24 -8.00098s8 -16.667 6 -30l-8 -51c-6.66699 -37.333 -42 -56 -106 -56c-53.333 0 -90 15.667 -110 47
s-26.333 72.333 -19 123l3 22h-16c-28.667 -56 -75 -102.833 -139 -140.5s-137 -56.5 -219 -56.5c-111.333 0 -198.333 36.833 -261 110.5s-84.334 175.834 -65.001 306.501l83 577c2 19.333 13 29 33 29h121c22.667 0 32.334 -11 29.001 -33l-81 -562
c-12 -84.667 0.666992 -148.5 38 -191.5s90 -64.5 158 -64.5c78.667 0 145.167 23 199.5 69s98.166 102 131.499 168l85 588c2 17.333 13.333 26 34 26h120c23.333 0 33 -11 29 -33z" />
    <glyph glyph-name="udieresis" unicode="&#xfc;" 
d="M548 1250c-28 0 -52.167 10.167 -72.5 30.5s-30.5 44.833 -30.5 73.5c0 27.333 10.167 50.833 30.5 70.5s44.5 29.5 72.5 29.5s52 -9.83301 72 -29.5s30 -43.167 30 -70.5c0 -28.667 -10 -53.167 -30 -73.5s-44 -30.5 -72 -30.5zM940 1250c-28 0 -52 10.167 -72 30.5
s-30 44.833 -30 73.5c0 27.333 10 50.833 30 70.5s44 29.5 72 29.5s52 -9.83301 72 -29.5s30 -43.167 30 -70.5c0 -28.667 -10 -53.167 -30 -73.5s-44 -30.5 -72 -30.5zM1104 971l-113.999 -790c-2.66699 -18.667 0 -32.167 8 -40.5s20 -11.5 36 -9.5
c10 1.33301 18 -1.33398 24 -8.00098s8 -16.667 6 -30l-8 -51c-6.66699 -37.333 -42 -56 -106 -56c-53.333 0 -90 15.667 -110 47s-26.333 72.333 -19 123l3 22h-16c-28.667 -56 -75 -102.833 -139 -140.5s-137 -56.5 -219 -56.5c-111.333 0 -198.333 36.833 -261 110.5
s-84.334 175.834 -65.001 306.501l83 577c2 19.333 13 29 33 29h121c22.667 0 32.334 -11 29.001 -33l-81 -562c-12 -84.667 0.666992 -148.5 38 -191.5s90 -64.5 158 -64.5c78.667 0 145.167 23 199.5 69s98.166 102 131.499 168l85 588c2 17.333 13.333 26 34 26h120
c23.333 0 33 -11 29 -33z" />
    <glyph glyph-name="yacute" unicode="&#xfd;" horiz-adv-x="1233" 
d="M659 1116c-12 0 -19.833 3.66699 -23.5 11s-2.5 16 3.5 26l163 260c7.33301 13.333 19.666 20.333 36.999 21h96c12 0 20 -3.66699 24 -11s2.66699 -16 -4 -26l-161 -260c-7.33301 -13.333 -19.666 -20.333 -36.999 -21h-98zM1107 1004
c23.333 0 32.999 -10.998 28.999 -32.998l-130 -889c-8.66699 -60 -22.167 -114.333 -40.5 -163s-38.833 -89.334 -61.5 -122.001s-49 -61.334 -79 -86.001s-59.333 -43.834 -88 -57.501s-60.334 -24.667 -95.001 -33s-66 -13.666 -94 -15.999s-58 -3.5 -90 -3.5
c-78.667 0 -148 9.16699 -208 27.5s-109.333 49.833 -148 94.5s-58.334 100 -59.001 166c0 20.667 10.333 31 31 31h114c16 0 26.667 -9.66699 32 -29c10.667 -48.667 38 -83 82 -103s101.667 -30 173 -30c46 0 87 5 123 15s70 26.833 102 50.5s58.333 57.167 79 100.5
s35.334 96 44.001 158l20 133h-5c-30.667 -56 -77.167 -101.333 -139.5 -136s-135.5 -52 -219.5 -52c-116.667 0 -205.5 33.333 -266.5 100s-81.5 167.334 -61.5 302.001l79 546c2.66699 19.333 13.667 29 33 29h121c22 0 31.667 -11 29 -33l-76 -532
c-6 -46.667 -5.66699 -86.167 1 -118.5s19.834 -57 39.501 -74s41.834 -29.167 66.501 -36.5s53.667 -11 87 -11c45.333 0 87.5 7.16699 126.5 21.5s72.167 33.833 99.5 58.5s50.333 49.667 69 75s34.667 52.666 48 81.999l78 542c2 17.333 13.667 26 35 26h120z
M908.999 540.002c0.666992 1.33301 1 3 1 5z" />
    <glyph glyph-name="thorn" unicode="&#xfe;" horiz-adv-x="1285" 
d="M765 1025c123.333 0 219.666 -39.665 288.999 -118.998s104 -183.333 104 -312c0 -110.667 -22 -212.834 -66 -306.501s-107.5 -169.334 -190.5 -227.001s-176.5 -86.5 -280.5 -86.5h-4h-2c-63.333 0 -120.666 11 -171.999 33c-68.667 30 -122 76.333 -160 139l-73 -506
c-2.66699 -19.333 -13.667 -29 -33 -29h-121c-22 0 -31.333 11 -28 33l52 368c-3.33301 5.33301 -4 12.333 -2 21l195 1372c2 19.333 13 29 33 29h122c21.333 0 31 -11 29 -33l-71 -495l-4 -61h16c61.333 88 145.333 144 252 168c33.333 8 70 12 110 12h2h3zM485 161.002
c32 -12 68.332 -18.333 108.999 -19c115.333 0.666992 207.833 43.5 277.5 128.5s104.5 188.5 104.5 310.5c0 85.333 -22.167 152.5 -66.5 201.5s-107.833 73.833 -190.5 74.5c-54.667 0 -106 -10.667 -154 -32c-73.333 -32 -131.5 -84.333 -174.5 -157
s-64.5 -153 -64.5 -241c0 -66 13.833 -122 41.5 -168s66.834 -78.667 117.501 -98z" />
    <glyph glyph-name="ydieresis" unicode="&#xff;" horiz-adv-x="1233" 
d="M543 1250c-28 0 -52.167 10.167 -72.5 30.5s-30.5 44.833 -30.5 73.5c0 27.333 10.167 50.833 30.5 70.5s44.5 29.5 72.5 29.5s52 -9.83301 72 -29.5s30 -43.167 30 -70.5c0 -28.667 -10 -53.167 -30 -73.5s-44 -30.5 -72 -30.5zM935 1250c-28 0 -52 10.167 -72 30.5
s-30 44.833 -30 73.5c0 27.333 10 50.833 30 70.5s44 29.5 72 29.5s52 -9.83301 72 -29.5s30 -43.167 30 -70.5c0 -28.667 -10 -53.167 -30 -73.5s-44 -30.5 -72 -30.5zM1107 1004c23.333 0 32.999 -10.998 28.999 -32.998l-130 -889
c-8.66699 -60 -22.167 -114.333 -40.5 -163s-38.833 -89.334 -61.5 -122.001s-49 -61.334 -79 -86.001s-59.333 -43.834 -88 -57.501s-60.334 -24.667 -95.001 -33s-66 -13.666 -94 -15.999s-58 -3.5 -90 -3.5c-78.667 0 -148 9.16699 -208 27.5s-109.333 49.833 -148 94.5
s-58.334 100 -59.001 166c0 20.667 10.333 31 31 31h114c16 0 26.667 -9.66699 32 -29c10.667 -48.667 38 -83 82 -103s101.667 -30 173 -30c46 0 87 5 123 15s70 26.833 102 50.5s58.333 57.167 79 100.5s35.334 96 44.001 158l20 133h-5
c-30.667 -56 -77.167 -101.333 -139.5 -136s-135.5 -52 -219.5 -52c-116.667 0 -205.5 33.333 -266.5 100s-81.5 167.334 -61.5 302.001l79 546c2.66699 19.333 13.667 29 33 29h121c22 0 31.667 -11 29 -33l-76 -532c-6 -46.667 -5.66699 -86.167 1 -118.5
s19.834 -57 39.501 -74s41.834 -29.167 66.501 -36.5s53.667 -11 87 -11c45.333 0 87.5 7.16699 126.5 21.5s72.167 33.833 99.5 58.5s50.333 49.667 69 75s34.667 52.666 48 81.999l78 542c2 17.333 13.667 26 35 26h120zM908.999 540.002c0.666992 1.33301 1 3 1 5z" />
    <glyph glyph-name="Amacron" unicode="&#x100;" horiz-adv-x="1387" 
d="M612 1711c-21.333 0 -30.667 11 -28 33l13 87c2 19.333 13 29 33 29h522c21.333 0 31 -11 29 -33l-14 -87c-2 -19.333 -12.667 -29 -32 -29h-523zM1227 32c4 -21.333 -4.66699 -32 -26 -32h-129c-19.333 0 -30.666 10 -33.999 30l-62 291h-617l-146 -298
c-6.66699 -15.333 -19.334 -23 -38.001 -23h-132c-10.667 0 -18.667 4.16699 -24 12.5s-5.33301 17.5 0 27.5l695 1371c8 15.333 21.333 23 40 23h128c19.333 0 31.333 -10 36 -30zM440.999 487h500l-151 708z" />
    <glyph glyph-name="amacron" unicode="&#x101;" horiz-adv-x="1329" 
d="M508 1281c-21.333 0 -30.999 11 -28.999 33l14 87c2 19.333 12.667 29 32 29h523c21.333 0 30.666 -11 27.999 -33l-13 -87c-2 -19.333 -13 -29 -33 -29h-522zM1189 971l-115.001 -789.999c-2.66699 -18.667 0 -32.334 8 -41.001s20 -11.667 36 -9
c10 1.33301 18.167 -1.5 24.5 -8.5s8.5 -16.833 6.5 -29.5l-9 -51c-6.66699 -37.333 -41.667 -56 -105 -56c-44.667 0 -76 15 -94 45s-24 69 -18 117h-19c-32 -52.667 -77.833 -95 -137.5 -127s-127.5 -48 -203.5 -48c-132 0 -237.833 42 -317.5 126
s-119.5 196.667 -119.5 338c0 111.333 23.833 212.333 71.5 303s112 161 193 211s169.833 75 266.5 75c76 0 142.333 -14.5 199 -43.5s99 -68.167 127 -117.5h16l39 113c4.66699 17.333 16.334 26 35.001 26h87c22 0 31.667 -11 29 -33zM591 142.001
c70.667 0 133.833 19.833 189.5 59.5s98 91.167 127 154.5s43.5 131.333 43.5 204c0 96 -26.167 169.5 -78.5 220.5s-119.833 76.5 -202.5 76.5c-106.667 0 -194.167 -38.667 -262.5 -116s-102.5 -176 -102.5 -296c0 -94 25.833 -168 77.5 -222s121.167 -81 208.5 -81z" />
    <glyph glyph-name="Abreve" unicode="&#x102;" horiz-adv-x="1387" 
d="M861 1577c-89.333 0 -158.497 25.667 -207.497 77s-71.167 115 -66.5 191c2 19.333 12 29 30 29h70c18 0 28 -12.333 30 -37c3.33301 -38.667 17.666 -69.5 42.999 -92.5s60.666 -34.5 105.999 -34.5c48 0 88.667 13.5 122 40.5s57.333 60.833 72 101.5
c5.33301 14.667 16.666 22 33.999 22h69c10 0 17.5 -3.83301 22.5 -11.5s6.16699 -17.5 3.5 -29.5c-18 -75.333 -56 -136.833 -114 -184.5s-129.333 -71.5 -214 -71.5zM1227 32c4 -21.333 -4.66699 -32 -26 -32h-129c-19.333 0 -30.666 10 -33.999 30l-62 291h-617
l-146 -298c-6.66699 -15.333 -19.334 -23 -38.001 -23h-132c-10.667 0 -18.667 4.16699 -24 12.5s-5.33301 17.5 0 27.5l695 1371c8 15.333 21.333 23 40 23h128c19.333 0 31.333 -10 36 -30zM441.003 487h500l-151 708z" />
    <glyph glyph-name="abreve" unicode="&#x103;" horiz-adv-x="1329" 
d="M757 1147c-89.333 0 -158.665 25.5 -207.998 76.5s-71.666 114.833 -66.999 191.5c2 19.333 12.333 29 31 29h70c18 0 27.667 -12.333 29 -37c3.33301 -38.667 17.666 -69.5 42.999 -92.5s61 -34.5 107 -34.5c48 0 88.667 13.5 122 40.5s57 60.833 71 101.5
c5.33301 14.667 16.666 22 33.999 22h70c10 0 17.5 -3.83301 22.5 -11.5s5.83301 -17.5 2.5 -29.5c-18 -75.333 -55.833 -136.833 -113.5 -184.5s-128.834 -71.5 -213.501 -71.5zM1189 971l-115.001 -789.999c-2.66699 -18.667 0 -32.334 8 -41.001s20 -11.667 36 -9
c10 1.33301 18.167 -1.5 24.5 -8.5s8.5 -16.833 6.5 -29.5l-9 -51c-6.66699 -37.333 -41.667 -56 -105 -56c-44.667 0 -76 15 -94 45s-24 69 -18 117h-19c-32 -52.667 -77.833 -95 -137.5 -127s-127.5 -48 -203.5 -48c-132 0 -237.833 42 -317.5 126
s-119.5 196.667 -119.5 338c0 111.333 23.833 212.333 71.5 303s112 161 193 211s169.833 75 266.5 75c76 0 142.333 -14.5 199 -43.5s99 -68.167 127 -117.5h16l39 113c4.66699 17.333 16.334 26 35.001 26h87c22 0 31.667 -11 29 -33zM591 142.001
c70.667 0 133.833 19.833 189.5 59.5s98 91.167 127 154.5s43.5 131.333 43.5 204c0 96 -26.167 169.5 -78.5 220.5s-119.833 76.5 -202.5 76.5c-106.667 0 -194.167 -38.667 -262.5 -116s-102.5 -176 -102.5 -296c0 -94 25.833 -168 77.5 -222s121.167 -81 208.5 -81z" />
    <glyph glyph-name="Aogonek" unicode="&#x104;" horiz-adv-x="1387" 
d="M1227 32c4 -21.333 -4.66406 -31.999 -25.9971 -31.999h-2c-66 -4.66699 -119.333 -25 -160 -61s-61 -75.333 -61 -118c0 -41.333 14.5 -71.333 43.5 -90s69.833 -22.334 122.5 -11.001v-126c-20.667 -9.33301 -44.834 -15.333 -72.501 -18
s-56.334 -0.833984 -86.001 5.49902s-57 16.833 -82 31.5s-45.5 36.834 -61.5 66.501s-24 64.167 -24 103.5c0 62.667 20.333 116.5 61 161.5s92 80.833 154 107.5l-57 269h-617l-146 -298c-6.66699 -15.333 -19.334 -23 -38.001 -23h-132
c-10.667 0 -18.667 4.16699 -24 12.5s-5.33301 17.5 0 27.5l695 1371c8 15.333 21.333 23 40 23h128c19.333 0 31.333 -10 36 -30zM441.003 487.001h500l-151 708z" />
    <glyph glyph-name="aogonek" unicode="&#x105;" horiz-adv-x="1329" 
d="M1189 971l-115.001 -789.998c-2.66699 -18.667 0 -32.334 8 -41.001s20 -11.667 36 -9c10 1.33301 18.167 -1.5 24.5 -8.5s8.5 -16.833 6.5 -29.5l-9 -51c-6.66699 -34 -37 -52.667 -91 -56c-63.333 -12.667 -115.833 -38.167 -157.5 -76.5s-62.5 -79.5 -62.5 -123.5
c0 -36 14.333 -59.333 43 -70s65 -11.667 109 -3l-10 -129c-34.667 -16.667 -70 -23.5 -106 -20.5s-68.667 11.333 -98 25s-53.333 34.667 -72 63s-28 60.166 -28 95.499c0 72 24.833 132.833 74.5 182.5s113.5 88.5 191.5 116.5c-10.667 27.333 -14 61.333 -10 102h-19
c-32 -52.667 -77.833 -95 -137.5 -127s-127.5 -48 -203.5 -48c-132 0 -237.833 42 -317.5 126s-119.5 196.667 -119.5 338c0 111.333 23.833 212.333 71.5 303s112 161 193 211s169.833 75 266.5 75c76 0 142.333 -14.5 199 -43.5s99 -68.167 127 -117.5h16l39 113
c4.66699 17.333 16.334 26 35.001 26h87c22 0 31.667 -11 29 -33zM590.999 142.002c70.667 0 133.833 19.833 189.5 59.5s98 91.167 127 154.5s43.5 131.333 43.5 204c0 96 -26.167 169.5 -78.5 220.5s-119.833 76.5 -202.5 76.5c-106.667 0 -194.167 -38.667 -262.5 -116
s-102.5 -176 -102.5 -296c0 -94 25.833 -168 77.5 -222s121.167 -81 208.5 -81z" />
    <glyph glyph-name="Cacute" unicode="&#x106;" horiz-adv-x="1496" 
d="M848 1546c-12 0 -20 3.66699 -24 11s-3 16 3 26l163 260c7.33301 13.333 19.666 20.333 36.999 21h96c12 0 20 -3.66699 24 -11s3 -16 -3 -26l-162 -260c-7.33301 -13.333 -19.666 -20.333 -36.999 -21h-97zM1244 294l68.999 -84.002c16 -20 14.667 -36.667 -4 -50
c-165.333 -124 -334.333 -186.333 -507 -187c-122 0 -231.667 27.833 -329 83.5s-172.833 132 -226.5 229s-80.5 205.5 -80.5 325.5c0 147.333 38 285.833 114 415.5s177.667 232.667 305 309s263 114.5 407 114.5c185.333 0 339 -68 461 -204
c16.667 -18 18.334 -32.667 5.00098 -44l-87 -74c-13.333 -11.333 -28.333 -9.66602 -45 5.00098c-100 87.333 -214 131 -342 131c-82.667 0 -162.5 -17.833 -239.5 -53.5s-143.5 -82.834 -199.5 -141.501s-101 -127.667 -135 -207s-51 -161 -51 -245
c0 -133.333 42.5 -242.666 127.5 -327.999s192.833 -128 323.5 -128c131.333 0 259 44.667 383 134c21.333 14.667 38.333 14.334 51 -0.999023z" />
    <glyph glyph-name="cacute" unicode="&#x107;" horiz-adv-x="1224" 
d="M289 1116c-12 0 -20 3.66699 -24 11s-3 16 3 26l163 260c7.33301 13.333 19.666 20.333 36.999 21h96c12 0 20 -3.66699 24 -11s3 -16 -3 -26l-162 -260c-7.33301 -13.333 -19.666 -20.333 -36.999 -21h-97zM1042 255c18 -10.667 21.0039 -24.999 9.00391 -42.999
c-52 -74.667 -117.667 -133.167 -197 -175.5s-166 -63.5 -260 -63.5c-136.667 0 -248.834 45 -336.501 135s-131.5 203 -131.5 339c0 106.667 25.667 204.5 77 293.5s120.166 158.833 206.499 209.5s179.833 76 280.5 76c92.667 0 175.167 -21.333 247.5 -64
s127.5 -101.334 165.5 -176.001c9.33301 -18 5 -31.667 -13 -41l-99 -50c-17.333 -8.66699 -31 -4 -41 14c-26.667 46.667 -63.167 83.167 -109.5 109.5s-98.833 39.5 -157.5 39.5c-106.667 0 -196.334 -38.167 -269.001 -114.5s-109 -174.5 -109 -294.5
c0 -91.333 27.5 -165.333 82.5 -222s125.833 -85 212.5 -85c132 0 237.333 53.333 316 160c11.333 16.667 25.666 19 42.999 7z" />
    <glyph glyph-name="Cdotaccent" unicode="&#x10a;" horiz-adv-x="1496" 
d="M926 1670c-28 0 -52.167 10.167 -72.5 30.5s-30.5 44.833 -30.5 73.5c0 27.333 10.167 50.833 30.5 70.5s44.5 29.5 72.5 29.5s52 -9.83301 72 -29.5s30 -43.167 30 -70.5c0 -28.667 -10 -53.167 -30 -73.5s-44 -30.5 -72 -30.5zM1244 294l68.999 -84.002
c16 -20 14.667 -36.667 -4 -50c-165.333 -124 -334.333 -186.333 -507 -187c-122 0 -231.667 27.833 -329 83.5s-172.833 132 -226.5 229s-80.5 205.5 -80.5 325.5c0 147.333 38 285.833 114 415.5s177.667 232.667 305 309s263 114.5 407 114.5c185.333 0 339 -68 461 -204
c16.667 -18 18.334 -32.667 5.00098 -44l-87 -74c-13.333 -11.333 -28.333 -9.66602 -45 5.00098c-100 87.333 -214 131 -342 131c-82.667 0 -162.5 -17.833 -239.5 -53.5s-143.5 -82.834 -199.5 -141.501s-101 -127.667 -135 -207s-51 -161 -51 -245
c0 -133.333 42.5 -242.666 127.5 -327.999s192.833 -128 323.5 -128c131.333 0 259 44.667 383 134c21.333 14.667 38.333 14.334 51 -0.999023z" />
    <glyph glyph-name="cdotaccent" unicode="&#x10b;" horiz-adv-x="1224" 
d="M315 1240c-28 0 -52 10 -72 30s-30 44.333 -30 73c0 27.333 10 51 30 71s44 30 72 30s52.167 -10 72.5 -30s30.5 -43.667 30.5 -71c0 -28.667 -10.167 -53 -30.5 -73s-44.5 -30 -72.5 -30zM1042 255c18 -10.667 21.0039 -24.999 9.00391 -42.999
c-52 -74.667 -117.667 -133.167 -197 -175.5s-166 -63.5 -260 -63.5c-136.667 0 -248.834 45 -336.501 135s-131.5 203 -131.5 339c0 106.667 25.667 204.5 77 293.5s120.166 158.833 206.499 209.5s179.833 76 280.5 76c92.667 0 175.167 -21.333 247.5 -64
s127.5 -101.334 165.5 -176.001c9.33301 -18 5 -31.667 -13 -41l-99 -50c-17.333 -8.66699 -31 -4 -41 14c-26.667 46.667 -63.167 83.167 -109.5 109.5s-98.833 39.5 -157.5 39.5c-106.667 0 -196.334 -38.167 -269.001 -114.5s-109 -174.5 -109 -294.5
c0 -91.333 27.5 -165.333 82.5 -222s125.833 -85 212.5 -85c132 0 237.333 53.333 316 160c11.333 16.667 25.666 19 42.999 7z" />
    <glyph glyph-name="Ccaron" unicode="&#x10c;" horiz-adv-x="1496" 
d="M912 1708l198 178c9.33301 9.33301 22.333 14.333 39 15h133c13.333 0 21.833 -3.66699 25.5 -11s0.5 -16 -9.5 -26l-271 -263c-9.33301 -9.33301 -22.333 -14.333 -39 -15h-178c-16 0 -28.333 6.33301 -37 19l-198 259c-8 10 -10 18.667 -6 26s12.333 11 25 11h137
c14.667 0 27 -6.33301 37 -19zM1244 294l68.999 -84.002c16 -20 14.667 -36.667 -4 -50c-165.333 -124 -334.333 -186.333 -507 -187c-122 0 -231.667 27.833 -329 83.5s-172.833 132 -226.5 229s-80.5 205.5 -80.5 325.5c0 147.333 38 285.833 114 415.5
s177.667 232.667 305 309s263 114.5 407 114.5c185.333 0 339 -68 461 -204c16.667 -18 18.334 -32.667 5.00098 -44l-87 -74c-13.333 -11.333 -28.333 -9.66602 -45 5.00098c-100 87.333 -214 131 -342 131c-82.667 0 -162.5 -17.833 -239.5 -53.5
s-143.5 -82.834 -199.5 -141.501s-101 -127.667 -135 -207s-51 -161 -51 -245c0 -133.333 42.5 -242.666 127.5 -327.999s192.833 -128 323.5 -128c131.333 0 259 44.667 383 134c21.333 14.667 38.333 14.334 51 -0.999023z" />
    <glyph glyph-name="ccaron" unicode="&#x10d;" horiz-adv-x="1224" 
d="M572 1278l198 178c9.33301 9.33301 22.333 14 39 14h133c13.333 0 21.833 -3.5 25.5 -10.5s0.5 -15.5 -9.5 -25.5l-271 -264c-9.33301 -9.33301 -22.333 -14 -39 -14h-178c-16 0 -28.333 6.33301 -37 19l-197 259c-8 10 -10 18.5 -6 25.5s12 10.5 24 10.5h137
c14.667 0 27 -6 37 -18zM1042 255c18 -10.667 21.0039 -24.999 9.00391 -42.999c-52 -74.667 -117.667 -133.167 -197 -175.5s-166 -63.5 -260 -63.5c-136.667 0 -248.834 45 -336.501 135s-131.5 203 -131.5 339c0 106.667 25.667 204.5 77 293.5
s120.166 158.833 206.499 209.5s179.833 76 280.5 76c92.667 0 175.167 -21.333 247.5 -64s127.5 -101.334 165.5 -176.001c9.33301 -18 5 -31.667 -13 -41l-99 -50c-17.333 -8.66699 -31 -4 -41 14c-26.667 46.667 -63.167 83.167 -109.5 109.5s-98.833 39.5 -157.5 39.5
c-106.667 0 -196.334 -38.167 -269.001 -114.5s-109 -174.5 -109 -294.5c0 -91.333 27.5 -165.333 82.5 -222s125.833 -85 212.5 -85c132 0 237.333 53.333 316 160c11.333 16.667 25.666 19 42.999 7z" />
    <glyph glyph-name="Dcaron" unicode="&#x10e;" horiz-adv-x="1482" 
d="M739 1708l198 178c9.33301 9.33301 22.333 14.333 39 15h133c13.333 0 21.833 -3.66699 25.5 -11s0.5 -16 -9.5 -26l-271 -263c-9.33301 -9.33301 -22.333 -14.333 -39 -15h-178c-16 0 -28.333 6.33301 -37 19l-198 259c-8 10 -10 18.667 -6 26s12.333 11 25 11h137
c14.667 0 27 -6.33301 37 -19zM669 1434c108.667 0 205.167 -15.166 289.5 -45.499s153.333 -72.333 207 -126s94.334 -116.667 122.001 -189s41.5 -152.5 41.5 -240.5c0 -162.667 -35.667 -307.167 -107 -433.5s-171.833 -224.5 -301.5 -294.5s-277.834 -105 -444.501 -105
h-343c-8.66699 0 -16.167 3.66699 -22.5 11s-8.83301 15.666 -7.5 24.999l193 1372c2 17.333 12 26 30 26h343zM490 174.001c202 0 360.5 60.667 475.5 182s172.5 282 172.5 482c0 136 -40.5 240.333 -121.5 313s-202.5 109 -364.5 109h-186l-153 -1086h177z" />
    <glyph glyph-name="dcaron" unicode="&#x10f;" horiz-adv-x="1331" 
d="M1296 1653c12 0 19.998 -3.66699 23.998 -11s3 -16 -3 -26l-114 -182h10c23.333 0 33 -11 29 -33l-175 -1220c-2.66699 -18.667 -0.166992 -32.167 7.5 -40.5s19.834 -11.5 36.501 -9.5c10 1.33301 18 -1.33398 24 -8.00098s8 -16.667 6 -30l-8 -51
c-6.66699 -37.333 -42 -56 -106 -56c-44 0 -75 14.5 -93 43.5s-25 67.5 -21 115.5h-19c-28 -52 -71 -93.667 -129 -125s-124 -47 -198 -47c-133.333 0 -240.333 42 -321 126s-121 196 -121 336c0 110.667 24.167 211.334 72.5 302.001s114 161.5 197 212.5
s174.5 76.5 274.5 76.5c70.667 0 132.834 -14.333 186.501 -43s93.834 -68 120.501 -118h18v93l55 377h-28c-12 0 -20 3.66699 -24 11s-3 16 3 26l163 260c7.33301 13.333 19.666 20.333 36.999 21h96zM599.998 142c66 0 125.833 20.5 179.5 61.5s94.5 93.333 122.5 157
s42 130.834 42 201.501c0 95.333 -25.167 168.5 -75.5 219.5s-114.833 76.5 -193.5 76.5c-107.333 0 -196.166 -39.333 -266.499 -118s-105.5 -177.334 -105.5 -296.001c0 -94 26.667 -167.833 80 -221.5s125.666 -80.5 216.999 -80.5z" />
    <glyph glyph-name="Dcroat" unicode="&#x110;" horiz-adv-x="1331" 
d="M649 1434c108.667 0 205.332 -15.165 289.999 -45.498s153.834 -72.333 207.501 -126s94.334 -116.667 122.001 -189s41.5 -152.5 41.5 -240.5c0 -162.667 -35.667 -307.167 -107 -433.5s-171.833 -224.5 -301.5 -294.5s-277.834 -105 -444.501 -105h-343
c-8.66699 0 -16.167 3.66699 -22.5 11s-8.83301 15.666 -7.5 24.999l85 604h-165c-21.333 0 -31 11 -29 33l14 87c2 19.333 13 28.666 33 27.999h167l87 620c2 17.333 12 26 30 26h343zM470.998 174.002c202 0 360.334 60.667 475.001 182s172 282 172 482
c0 136 -40.333 240.333 -121 313s-202 109 -364 109h-187l-66 -472h164c21.333 0 30.666 -10.667 27.999 -32l-13 -87c-2 -19.333 -13 -29 -33 -29h-167l-65 -466h177z" />
    <glyph glyph-name="dcroat" unicode="&#x111;" horiz-adv-x="1331" 
d="M1242 1401l-175.003 -1220c-2.66699 -18.667 -0.166992 -32.167 7.5 -40.5s19.834 -11.5 36.501 -9.5c10 1.33301 18 -1.33398 24 -8.00098s8 -16.667 6 -30l-8 -51c-6.66699 -37.333 -42 -56 -106 -56c-44 0 -75 14.5 -93 43.5s-25 67.5 -21 115.5h-19
c-28 -52 -71 -93.667 -129 -125s-124 -47 -198 -47c-133.333 0 -240.333 42 -321 126s-121 196 -121 336c0 110.667 24.167 211.334 72.5 302.001s114 161.5 197 212.5s174.5 76.5 274.5 76.5c70.667 0 132.834 -14.333 186.501 -43s93.834 -68 120.501 -118h18v93l29 201
h-470c-21.333 0 -31 11 -29 33l14 87c2 19.333 12.667 29 32 29h474l15 97c2 19.333 13 29 33 29h121c23.333 0 33 -11 29 -33zM599.997 142c66 0 125.833 20.5 179.5 61.5s94.5 93.333 122.5 157s42 130.834 42 201.501c0 95.333 -25.167 168.5 -75.5 219.5
s-114.833 76.5 -193.5 76.5c-107.333 0 -196.166 -39.333 -266.499 -118s-105.5 -177.334 -105.5 -296.001c0 -94 26.667 -167.833 80 -221.5s125.666 -80.5 216.999 -80.5z" />
    <glyph glyph-name="Emacron" unicode="&#x112;" horiz-adv-x="1255" 
d="M1084 1860c21.333 0 31 -11 29 -33l-13 -87c-2 -19.333 -13 -29 -33 -29h-522c-21.333 0 -31 11 -29 33l13 87c2 19.333 13 29 33 29h522zM1018 174c21.333 0 31.001 -11.002 29.001 -33.002l-17 -112c-2 -19.333 -13 -29 -33 -29h-865c-21.333 0 -31 11 -29 33l193 1372
c2 19.333 13 29 33 29h863c21.333 0 31 -11 29 -33l-16 -113c-2 -19.333 -13 -28.666 -33 -27.999h-704l-59 -418h646c21.333 0 30.666 -11 27.999 -33l-16 -113c-2 -19.333 -13 -28.666 -33 -27.999h-650l-69 -494h703z" />
    <glyph glyph-name="emacron" unicode="&#x113;" horiz-adv-x="1269" 
d="M482 1281c-21.333 0 -30.667 11 -28 33l13 87c2 19.333 13 29 33 29h522c21.333 0 31 -11 29 -33l-14 -87c-2 -19.333 -12.667 -29 -32 -29h-523zM794.999 423h-499.004c-1.33301 -88 27.834 -158.833 87.501 -212.5s142.834 -80.5 249.501 -80.5
c116.667 0 214.334 32.667 293.001 98c16.667 12.667 32.334 11.334 47.001 -3.99902l47 -53c18 -19.333 18.333 -36.666 1 -51.999c-102.667 -96.667 -240 -145.334 -412 -146.001c-150 0 -268.333 42.833 -355 128.5s-130 195.5 -130 329.5c0 106 25.833 204.5 77.5 295.5
s123 163.667 214 218s190.833 81.5 299.5 81.5c74 0 139.667 -10.333 197 -31s103 -48.5 137 -83.5s59.5 -73.333 76.5 -115s25.5 -84.834 25.5 -129.501c0 -86 -26.5 -148.167 -79.5 -186.5s-145.167 -57.5 -276.5 -57.5zM708.995 866
c-91.333 0 -172.668 -27.8311 -244.001 -83.498s-120.333 -128.5 -147 -218.5h424c37.333 0 67.333 0.5 90 1.5s45.167 3.66699 67.5 8s39.333 10.166 51 17.499s20.834 17.666 27.501 30.999s10 30 10 50c-0.666992 52.667 -25 98.167 -73 136.5s-116.667 57.5 -206 57.5z
" />
    <glyph glyph-name="Edotaccent" unicode="&#x116;" horiz-adv-x="1255" 
d="M814 1670c-28 0 -52 10.167 -72 30.5s-30 44.833 -30 73.5c0 27.333 10 50.833 30 70.5s44 29.5 72 29.5s52 -9.83301 72 -29.5s30 -43.167 30 -70.5c0 -28.667 -10 -53.167 -30 -73.5s-44 -30.5 -72 -30.5zM1018 174c21.333 0 31.001 -11.002 29.001 -33.002l-17 -112
c-2 -19.333 -13 -29 -33 -29h-865c-21.333 0 -31 11 -29 33l193 1372c2 19.333 13 29 33 29h863c21.333 0 31 -11 29 -33l-16 -113c-2 -19.333 -13 -28.666 -33 -27.999h-704l-59 -418h646c21.333 0 30.666 -11 27.999 -33l-16 -113c-2 -19.333 -13 -28.666 -33 -27.999
h-650l-69 -494h703z" />
    <glyph glyph-name="edotaccent" unicode="&#x117;" horiz-adv-x="1269" 
d="M752 1240c-28 0 -52.167 10 -72.5 30s-30.5 44.333 -30.5 73c0 27.333 10.167 51 30.5 71s44.5 30 72.5 30s52 -10 72 -30s30 -43.667 30 -71c0 -28.667 -10 -53 -30 -73s-44 -30 -72 -30zM795 423h-499.004c-1.33301 -88 27.834 -158.833 87.501 -212.5
s142.834 -80.5 249.501 -80.5c116.667 0 214.334 32.667 293.001 98c16.667 12.667 32.334 11.334 47.001 -3.99902l47 -53c18 -19.333 18.333 -36.666 1 -51.999c-102.667 -96.667 -240 -145.334 -412 -146.001c-150 0 -268.333 42.833 -355 128.5s-130 195.5 -130 329.5
c0 106 25.833 204.5 77.5 295.5s123 163.667 214 218s190.833 81.5 299.5 81.5c74 0 139.667 -10.333 197 -31s103 -48.5 137 -83.5s59.5 -73.333 76.5 -115s25.5 -84.834 25.5 -129.501c0 -86 -26.5 -148.167 -79.5 -186.5s-145.167 -57.5 -276.5 -57.5zM708.996 866
c-91.333 0 -172.668 -27.8311 -244.001 -83.498s-120.333 -128.5 -147 -218.5h424c37.333 0 67.333 0.5 90 1.5s45.167 3.66699 67.5 8s39.333 10.166 51 17.499s20.834 17.666 27.501 30.999s10 30 10 50c-0.666992 52.667 -25 98.167 -73 136.5s-116.667 57.5 -206 57.5z
" />
    <glyph glyph-name="Eogonek" unicode="&#x118;" horiz-adv-x="1331" 
d="M1192 1434c21.333 0 31.001 -11.001 29.001 -33.001l-16 -113c-2 -19.333 -13 -28.666 -33 -27.999h-704l-59 -418h646c21.333 0 30.666 -11 27.999 -33l-16 -113c-2 -19.333 -13 -28.666 -33 -27.999h-650l-69 -494h703c21.333 0 31 -11 29 -33l-17 -112
c-2 -19.333 -13 -29 -33 -29h-334c-66 -4.66699 -119.5 -25 -160.5 -61s-61.5 -75.333 -61.5 -118c0 -41.333 14.5 -71.333 43.5 -90s69.833 -22.334 122.5 -11.001v-126c-20.667 -9.33301 -44.667 -15.333 -72 -18s-56 -0.833984 -86 5.49902s-57.333 16.833 -82 31.5
s-45 36.834 -61 66.501s-24 64.167 -24 103.5c0 86 40.333 158.333 121 217h-271c-21.333 0 -31 11 -29 33l193 1372c2 19.333 13 29 33 29h863z" />
    <glyph glyph-name="eogonek" unicode="&#x119;" horiz-adv-x="1269" 
d="M795 423l-499.002 -0.00195312c-1.33301 -88 27.834 -158.833 87.501 -212.5s142.834 -80.5 249.501 -80.5c116.667 0 214.334 32.667 293.001 98c16.667 12.667 32.334 11.334 47.001 -3.99902l47 -53c18 -19.333 18.333 -36.666 1 -51.999
c-50 -48.667 -111 -85.667 -183 -111v-8c-63.333 -18.667 -113.833 -45.167 -151.5 -79.5s-56.5 -72.5 -56.5 -114.5c0 -39.333 14.5 -68 43.5 -86s69.833 -21.333 122.5 -10v-126c-20.667 -9.33301 -44.834 -15.333 -72.501 -18s-56.334 -0.833984 -86.001 5.49902
s-57 16.833 -82 31.5s-45.5 36.667 -61.5 66s-24 64 -24 104c0 77.333 35 144.333 105 201c-140.667 6.66699 -251 52.334 -331 137.001s-120 191.334 -120 320.001c0 106 25.833 204.5 77.5 295.5s123 163.667 214 218s190.833 81.5 299.5 81.5
c74 0 139.667 -10.333 197 -31s103 -48.5 137 -83.5s59.5 -73.333 76.5 -115s25.5 -84.834 25.5 -129.501c0 -86 -26.5 -148.167 -79.5 -186.5s-145.167 -57.5 -276.5 -57.5zM708.998 865.998c-91.333 0 -172.668 -27.8311 -244.001 -83.498s-120.333 -128.5 -147 -218.5
h424c37.333 0 67.333 0.5 90 1.5s45.167 3.66699 67.5 8s39.333 10.166 51 17.499s20.834 17.666 27.501 30.999s10 30 10 50c-0.666992 52.667 -25 98.167 -73 136.5s-116.667 57.5 -206 57.5z" />
    <glyph glyph-name="Ecaron" unicode="&#x11a;" horiz-adv-x="1255" 
d="M801 1708l196.999 178c9.33301 9.33301 22.333 14.333 39 15h133c13.333 0 21.833 -3.66699 25.5 -11s0.833984 -16 -8.49902 -26l-272 -263c-9.33301 -9.33301 -22 -14.333 -38 -15h-179c-16 0 -28 6.33301 -36 19l-198 259c-8 10 -10 18.667 -6 26s12 11 24 11h138
c14.667 0 26.667 -6.33301 36 -19zM1018 174c21.333 0 31.001 -11.002 29.001 -33.002l-17 -112c-2 -19.333 -13 -29 -33 -29h-865c-21.333 0 -31 11 -29 33l193 1372c2 19.333 13 29 33 29h863c21.333 0 31 -11 29 -33l-16 -113c-2 -19.333 -13 -28.666 -33 -27.999h-704
l-59 -418h646c21.333 0 30.666 -11 27.999 -33l-16 -113c-2 -19.333 -13 -28.666 -33 -27.999h-650l-69 -494h703z" />
    <glyph glyph-name="ecaron" unicode="&#x11b;" horiz-adv-x="1269" 
d="M599 1175l-198 259c-8 10 -10 18.5 -6 25.5s12.333 10.5 25 10.5h137c14.667 0 27 -6 37 -18l144 -174l198 178c9.33301 9.33301 22.333 14 39 14h133c13.333 0 21.833 -3.5 25.5 -10.5s0.5 -15.5 -9.5 -25.5l-271 -264c-9.33301 -9.33301 -22.333 -14 -39 -14h-178
c-16 0.666992 -28.333 7 -37 19zM795 423h-499.004c-1.33301 -88 27.834 -158.833 87.501 -212.5s142.834 -80.5 249.501 -80.5c116.667 0 214.334 32.667 293.001 98c16.667 12.667 32.334 11.334 47.001 -3.99902l47 -53c18 -19.333 18.333 -36.666 1 -51.999
c-102.667 -96.667 -240 -145.334 -412 -146.001c-150 0 -268.333 42.833 -355 128.5s-130 195.5 -130 329.5c0 106 25.833 204.5 77.5 295.5s123 163.667 214 218s190.833 81.5 299.5 81.5c74 0 139.667 -10.333 197 -31s103 -48.5 137 -83.5s59.5 -73.333 76.5 -115
s25.5 -84.834 25.5 -129.501c0 -86 -26.5 -148.167 -79.5 -186.5s-145.167 -57.5 -276.5 -57.5zM708.996 866c-91.333 0 -172.668 -27.8311 -244.001 -83.498s-120.333 -128.5 -147 -218.5h424c37.333 0 67.333 0.5 90 1.5s45.167 3.66699 67.5 8s39.333 10.166 51 17.499
s20.834 17.666 27.501 30.999s10 30 10 50c-0.666992 52.667 -25 98.167 -73 136.5s-116.667 57.5 -206 57.5z" />
    <glyph glyph-name="Gbreve" unicode="&#x11e;" horiz-adv-x="1674" 
d="M1183 1852c5.33301 14.667 16.668 22 34.001 22h69c10 0 17.5 -3.83301 22.5 -11.5s6.16699 -17.5 3.5 -29.5c-18 -75.333 -56 -136.833 -114 -184.5s-129.333 -71.5 -214 -71.5c-89.333 0 -158.666 25.667 -207.999 77s-71.333 115 -66 191c2 19.333 12 29 30 29h70
c18 0 28 -12.333 30 -37c3.33301 -38.667 17.666 -69.5 42.999 -92.5s60.666 -34.5 105.999 -34.5c48 0 88.667 13.5 122 40.5s57.333 60.833 72 101.5zM1522 756c11.333 0 20.332 -4.16797 26.999 -12.501s8.66699 -18.833 6 -31.5l-9 -63
c-21.333 -132.667 -64.5 -249.667 -129.5 -351s-150.333 -180.833 -256 -238.5s-224.5 -86.5 -356.5 -86.5c-124 0 -234.667 28.167 -332 84.5s-172.5 133.333 -225.5 231s-79.5 207.167 -79.5 328.5c0 109.333 22.5 215.333 67.5 318s104.833 191.5 179.5 266.5
s163.167 135.167 265.5 180.5s207.166 68 314.499 68c185.333 0 338.333 -68 459 -204c17.333 -17.333 19 -32 5 -44l-87 -74c-12.667 -12 -27.667 -10.333 -45 5c-100 87.333 -214.667 131 -344 131c-110 0 -213 -29.833 -309 -89.5s-172 -139 -228 -238
s-84 -204.167 -84 -315.5c0 -134.667 42.167 -245 126.5 -331s193.5 -129 327.5 -129c138.667 0 258 39.833 358 119.5s160.667 181.834 182 306.501h-448c-9.33301 0 -16.666 3 -21.999 9s-7.66602 13.333 -6.99902 22l15 107c1.33301 9.33301 5 16.833 11 22.5
s13.667 8.5 23 8.5h595z" />
    <glyph glyph-name="gbreve" unicode="&#x11f;" horiz-adv-x="1263" 
d="M731 1147c-89.333 0 -158.497 25.5 -207.497 76.5s-71.167 114.833 -66.5 191.5c2 19.333 12 29 30 29h70c18 0 28 -12.333 30 -37c3.33301 -38.667 17.666 -69.5 42.999 -92.5s60.666 -34.5 105.999 -34.5c48 0 88.667 13.5 122 40.5s57.333 60.833 72 101.5
c5.33301 14.667 16.666 22 33.999 22h69c10 0 17.5 -3.83301 22.5 -11.5s6.16699 -17.5 3.5 -29.5c-18 -75.333 -56 -136.833 -114 -184.5s-129.333 -71.5 -214 -71.5zM1137 1004c22 0 31.3291 -11.002 27.9961 -33.002l-134 -936
c-9.33301 -67.333 -26.666 -127.333 -51.999 -180s-54.666 -95.167 -87.999 -127.5s-71.833 -58.666 -115.5 -78.999s-87 -34.5 -130 -42.5s-88.833 -12 -137.5 -12c-150 0 -276.667 37 -380 111c-18 12 -21.667 26.333 -11 43l56 83
c8.66699 14.667 21.667 16.334 39 5.00098c80.667 -54.667 184.667 -82 312 -82c40.667 0 78.334 4.33301 113.001 13s68.167 23 100.5 43s59.5 49.167 81.5 87.5s37 84.166 45 137.499l17 108c-24.667 -52.667 -65 -94.167 -121 -124.5s-120.333 -45.5 -193 -45.5
c-133.333 0 -240.333 42 -321 126s-121 196 -121 336c0 110.667 24.167 211.334 72.5 302.001s113.833 161.5 196.5 212.5s173.667 76.5 273 76.5c70.667 0 133 -14.5 187 -43.5s92.333 -68.167 115 -117.5h20l26 113c2.66699 17.333 14.334 26 35.001 26h87z
M599.999 141.998c66 0 125.833 20.5 179.5 61.5s94.5 93.333 122.5 157s42 130.834 42 201.501c0 95.333 -25.167 168.5 -75.5 219.5s-114.833 76.5 -193.5 76.5c-107.333 0 -196.166 -39.333 -266.499 -118s-105.5 -177.334 -105.5 -296.001
c0 -94 26.667 -167.833 80 -221.5s125.666 -80.5 216.999 -80.5z" />
    <glyph glyph-name="Gdotaccent" unicode="&#x120;" horiz-adv-x="1674" 
d="M1005 1670c-28 0 -52.167 10.167 -72.5 30.5s-30.5 44.833 -30.5 73.5c0 27.333 10.167 50.833 30.5 70.5s44.5 29.5 72.5 29.5s52 -9.83301 72 -29.5s30 -43.167 30 -70.5c0 -28.667 -10 -53.167 -30 -73.5s-44 -30.5 -72 -30.5zM1522 756
c11.333 0 20.332 -4.16797 26.999 -12.501s8.66699 -18.833 6 -31.5l-9 -63c-21.333 -132.667 -64.5 -249.667 -129.5 -351s-150.333 -180.833 -256 -238.5s-224.5 -86.5 -356.5 -86.5c-124 0 -234.667 28.167 -332 84.5s-172.5 133.333 -225.5 231
s-79.5 207.167 -79.5 328.5c0 109.333 22.5 215.333 67.5 318s104.833 191.5 179.5 266.5s163.167 135.167 265.5 180.5s207.166 68 314.499 68c185.333 0 338.333 -68 459 -204c17.333 -17.333 19 -32 5 -44l-87 -74c-12.667 -12 -27.667 -10.333 -45 5
c-100 87.333 -214.667 131 -344 131c-110 0 -213 -29.833 -309 -89.5s-172 -139 -228 -238s-84 -204.167 -84 -315.5c0 -134.667 42.167 -245 126.5 -331s193.5 -129 327.5 -129c138.667 0 258 39.833 358 119.5s160.667 181.834 182 306.501h-448
c-9.33301 0 -16.666 3 -21.999 9s-7.66602 13.333 -6.99902 22l15 107c1.33301 9.33301 5 16.833 11 22.5s13.667 8.5 23 8.5h595z" />
    <glyph glyph-name="gdotaccent" unicode="&#x121;" horiz-adv-x="1263" 
d="M752 1240c-28 0 -52.167 10 -72.5 30s-30.5 44.333 -30.5 73c0 27.333 10.167 51 30.5 71s44.5 30 72.5 30s52 -10 72 -30s30 -43.667 30 -71c0 -28.667 -10 -53 -30 -73s-44 -30 -72 -30zM1137 1004c22 0 31.3291 -11.002 27.9961 -33.002l-134 -936
c-9.33301 -67.333 -26.666 -127.333 -51.999 -180s-54.666 -95.167 -87.999 -127.5s-71.833 -58.666 -115.5 -78.999s-87 -34.5 -130 -42.5s-88.833 -12 -137.5 -12c-150 0 -276.667 37 -380 111c-18 12 -21.667 26.333 -11 43l56 83
c8.66699 14.667 21.667 16.334 39 5.00098c80.667 -54.667 184.667 -82 312 -82c40.667 0 78.334 4.33301 113.001 13s68.167 23 100.5 43s59.5 49.167 81.5 87.5s37 84.166 45 137.499l17 108c-24.667 -52.667 -65 -94.167 -121 -124.5s-120.333 -45.5 -193 -45.5
c-133.333 0 -240.333 42 -321 126s-121 196 -121 336c0 110.667 24.167 211.334 72.5 302.001s113.833 161.5 196.5 212.5s173.667 76.5 273 76.5c70.667 0 133 -14.5 187 -43.5s92.333 -68.167 115 -117.5h20l26 113c2.66699 17.333 14.334 26 35.001 26h87z
M599.996 141.998c66 0 125.833 20.5 179.5 61.5s94.5 93.333 122.5 157s42 130.834 42 201.501c0 95.333 -25.167 168.5 -75.5 219.5s-114.833 76.5 -193.5 76.5c-107.333 0 -196.166 -39.333 -266.499 -118s-105.5 -177.334 -105.5 -296.001
c0 -94 26.667 -167.833 80 -221.5s125.666 -80.5 216.999 -80.5z" />
    <glyph glyph-name="Gcommaaccent" unicode="&#x122;" horiz-adv-x="1674" 
d="M1522 756c11.333 0 20.332 -4.16797 26.999 -12.501s8.66699 -18.833 6 -31.5l-9 -63c-21.333 -132.667 -64.5 -249.667 -129.5 -351s-150.333 -180.833 -256 -238.5s-224.5 -86.5 -356.5 -86.5c-124 0 -234.667 28.167 -332 84.5s-172.5 133.333 -225.5 231
s-79.5 207.167 -79.5 328.5c0 109.333 22.5 215.333 67.5 318s104.833 191.5 179.5 266.5s163.167 135.167 265.5 180.5s207.166 68 314.499 68c185.333 0 338.333 -68 459 -204c17.333 -17.333 19 -32 5 -44l-87 -74c-12.667 -12 -27.667 -10.333 -45 5
c-100 87.333 -214.667 131 -344 131c-110 0 -213 -29.833 -309 -89.5s-172 -139 -228 -238s-84 -204.167 -84 -315.5c0 -134.667 42.167 -245 126.5 -331s193.5 -129 327.5 -129c138.667 0 258 39.833 358 119.5s160.667 181.834 182 306.501h-448
c-9.33301 0 -16.666 3 -21.999 9s-7.66602 13.333 -6.99902 22l15 107c1.33301 9.33301 5 16.833 11 22.5s13.667 8.5 23 8.5h595zM536.999 -321.001c-20.667 0 -29.668 10.333 -27.001 31l12 92c3.33301 18 14 27 32 27h383c20 0 29 -10.333 27 -31l-8 -50
c-29.333 -194 -71.666 -339 -126.999 -435c-8.66699 -15.333 -23.667 -23 -45 -23h-59c-10 0 -17.167 3.83301 -21.5 11.5s-4.5 17.5 -0.5 29.5c43.333 121.333 69.333 237.333 78 348h-244z" />
    <glyph glyph-name="gcommaaccent" unicode="&#x123;" horiz-adv-x="1263" 
d="M460 1227c-20 0 -29 10.001 -27 30.001l7 51c29.333 194 71.666 339 126.999 435c8.66699 15.333 23.667 22.666 45 21.999h60c10 0 17 -3.66699 21 -11s4 -17.333 0 -30c-43.333 -121.333 -69.333 -237.333 -78 -348h245c20.667 0 29.667 -10 27 -30l-13 -93
c-3.33301 -18 -13.666 -26.667 -30.999 -26h-383zM1137 1004c22 0 31.3291 -11.002 27.9961 -33.002l-134 -936c-9.33301 -67.333 -26.666 -127.333 -51.999 -180s-54.666 -95.167 -87.999 -127.5s-71.833 -58.666 -115.5 -78.999s-87 -34.5 -130 -42.5
s-88.833 -12 -137.5 -12c-150 0 -276.667 37 -380 111c-18 12 -21.667 26.333 -11 43l56 83c8.66699 14.667 21.667 16.334 39 5.00098c80.667 -54.667 184.667 -82 312 -82c40.667 0 78.334 4.33301 113.001 13s68.167 23 100.5 43s59.5 49.167 81.5 87.5
s37 84.166 45 137.499l17 108c-24.667 -52.667 -65 -94.167 -121 -124.5s-120.333 -45.5 -193 -45.5c-133.333 0 -240.333 42 -321 126s-121 196 -121 336c0 110.667 24.167 211.334 72.5 302.001s113.833 161.5 196.5 212.5s173.667 76.5 273 76.5
c70.667 0 133 -14.5 187 -43.5s92.333 -68.167 115 -117.5h20l26 113c2.66699 17.333 14.334 26 35.001 26h87zM599.996 141.999c66 0 125.833 20.5 179.5 61.5s94.5 93.333 122.5 157s42 130.834 42 201.501c0 95.333 -25.167 168.5 -75.5 219.5s-114.833 76.5 -193.5 76.5
c-107.333 0 -196.166 -39.333 -266.499 -118s-105.5 -177.334 -105.5 -296.001c0 -94 26.667 -167.833 80 -221.5s125.666 -80.5 216.999 -80.5z" />
    <glyph glyph-name="Hbar" unicode="&#x126;" horiz-adv-x="1446" 
d="M1376 1434c22 0 31.334 -11 28.001 -33l-193 -1372c-2.66699 -19.333 -13.334 -29 -32.001 -29h-130c-22 0 -31.333 11 -28 33l86 611h-727l-86 -615c-2.66699 -19.333 -13.667 -29 -33 -29h-130c-22 0 -31.333 11 -28 33l193 1372c2.66699 19.333 13.667 29 33 29h130
c22 0 31 -11 27 -33l-36 -260h727l36 264c2.66699 19.333 13.667 29 33 29h130zM404.001 818h728l21 160h-726z" />
    <glyph glyph-name="hbar" unicode="&#x127;" horiz-adv-x="1275" 
d="M1066 131c10 1.33301 17.998 -1.33398 23.998 -8.00098s8 -16.667 6 -30l-9 -51c-6.66699 -37.333 -41.667 -56 -105 -56c-54.667 0 -94.5 16.167 -119.5 48.5s-33.833 72.833 -26.5 121.5l62 447c12 84.667 -1.33301 148.334 -40 191.001s-94 64 -166 64
c-80.667 0 -150.667 -21.667 -210 -65s-101.666 -92.333 -126.999 -147l-88 -617c-2 -19.333 -13 -29 -33 -29h-120c-23.333 0 -33 11 -29 33l160 1119h-94c-21.333 0 -31 11 -29 33l13 87c2 19.333 13 28.666 33 27.999h97l16 105c2 19.333 12.667 29 32 29h122
c21.333 0 31 -11 29 -33l-14 -101h240c21.333 0 31 -10.667 29 -32l-13 -87c-2 -19.333 -13 -29 -33 -29h-245l-44 -309h15c33.333 52.667 81 96.334 143 131.001s132 52 210 52c116 0 205.667 -36 269 -108s85 -173.667 65 -305l-64 -432
c-2.66699 -18.667 -0.166992 -32.167 7.5 -40.5s19.834 -11.5 36.501 -9.5z" />
    <glyph glyph-name="Imacron" unicode="&#x12a;" horiz-adv-x="1338" 
d="M1119 1860c21.333 0 31 -11 29 -33l-13 -87c-2 -19.333 -13 -29 -33 -29h-522c-21.333 0 -31 11 -29 33l13 87c2 19.333 13 29 33 29h522zM1289 1288c-2.66699 -19.333 -13.668 -28.667 -33.001 -28h-385l-152 -1086h381c22 0 31 -11 27 -33l-15 -112
c-2.66699 -19.333 -13.667 -29 -33 -29h-957c-22.667 0 -32.334 11 -29.001 33l17 112c2.66699 19.333 13.334 29 32.001 29h385l153 1086h-381c-22.667 0 -32.334 10.667 -29.001 32l17 113c2.66699 19.333 13.334 29 32.001 29h958c22.667 0 32.334 -11 29.001 -33z" />
    <glyph glyph-name="imacron" unicode="&#x12b;" 
d="M1013 1430c21.333 0 30.667 -11 28 -33l-13 -87c-2 -19.333 -13 -29 -33 -29h-522c-21.333 0 -31 11 -29 33l14 87c2 19.333 12.667 29 32 29h523zM1111 151c6.66699 -14.667 4.66309 -27.334 -6.00391 -38.001c-31.333 -33.333 -77.333 -63.833 -138 -91.5
s-127.334 -41.5 -200.001 -41.5c-32.667 0 -63.167 2.66699 -91.5 8s-57 14.333 -86 27s-53.667 29.667 -74 51s-38.166 48 -53.499 80s-24.166 69.667 -26.499 113s-0.166016 93.333 6.50098 150l68 436h-350c-10 0 -17.667 2.83301 -23 8.5s-7.33301 13.834 -6 24.501
l12 97c2.66699 19.333 13.667 29 33 29h508c22 0 31.333 -11 28 -33l-86 -563c-4 -38 -5.66699 -71.333 -5 -100s5.83398 -52.834 15.501 -72.501s20 -35.667 31 -48s24.667 -22 41 -29s31.5 -11.667 45.5 -14s29 -3.5 45 -3.5c76.667 0 152.334 31 227.001 93
c20 16.667 35 14.334 45 -6.99902z" />
    <glyph glyph-name="iogonek" unicode="&#x12f;" horiz-adv-x="1331" 
d="M742 1240c-28 0 -52 10 -72 30s-30 44.333 -30 73c0 27.333 10 51 30 71s44 30 72 30s52.167 -10 72.5 -30s30.5 -43.667 30.5 -71c0 -28.667 -10.167 -53 -30.5 -73s-44.5 -30 -72.5 -30zM1111 151c6.66699 -14.667 4.66602 -27.3311 -6.00098 -37.998
c-26.667 -28.667 -65.5 -55.834 -116.5 -81.501s-107.167 -41.834 -168.5 -48.501c-42 -16 -75.333 -39 -100 -69s-37 -61 -37 -93c0 -41.333 14.5 -71.333 43.5 -90s69.833 -22.334 122.5 -11.001v-126c-20.667 -9.33301 -44.834 -15.333 -72.501 -18
s-56.334 -0.833984 -86.001 5.49902s-57 16.833 -82 31.5s-45.5 36.834 -61.5 66.501s-24 64.167 -24 103.5c0 83.333 39 154.333 117 213c-75.333 22 -131.666 65.833 -168.999 131.5s-47 159.5 -29 281.5l68 436h-350c-10 0 -17.667 2.83301 -23 8.5
s-7.33301 13.834 -6 24.501l12 97c2.66699 19.333 13.667 29 33 29h508c22 0 31.333 -11 28 -33l-86 -563c-4 -38 -5.66699 -71.333 -5 -100s5.83398 -52.834 15.501 -72.501s20 -35.667 31 -48s24.667 -22 41 -29s31.5 -11.667 45.5 -14s29 -3.5 45 -3.5
c76.667 0 152.334 31 227.001 93c20 16.667 35 14.334 45 -6.99902z" />
    <glyph glyph-name="Idotaccent" unicode="&#x130;" horiz-adv-x="1338" 
d="M849 1670c-28 0 -52.167 10.167 -72.5 30.5s-30.5 44.833 -30.5 73.5c0 27.333 10.167 50.833 30.5 70.5s44.5 29.5 72.5 29.5s52 -9.83301 72 -29.5s30 -43.167 30 -70.5c0 -28.667 -10 -53.167 -30 -73.5s-44 -30.5 -72 -30.5zM1289 1288
c-2.66699 -19.333 -13.668 -28.667 -33.001 -28h-385l-152 -1086h381c22 0 31 -11 27 -33l-15 -112c-2.66699 -19.333 -13.667 -29 -33 -29h-957c-22.667 0 -32.334 11 -29.001 33l17 112c2.66699 19.333 13.334 29 32.001 29h385l153 1086h-381
c-22.667 0 -32.334 10.667 -29.001 32l17 113c2.66699 19.333 13.334 29 32.001 29h958c22.667 0 32.334 -11 29.001 -33z" />
    <glyph glyph-name="dotlessi" unicode="&#x131;" 
d="M1111 151c6.66699 -14.667 4.66309 -27.334 -6.00391 -38.001c-31.333 -33.333 -77.333 -63.833 -138 -91.5s-127.334 -41.5 -200.001 -41.5c-32.667 0 -63.167 2.66699 -91.5 8s-57 14.333 -86 27s-53.667 29.667 -74 51s-38.166 48 -53.499 80
s-24.166 69.667 -26.499 113s-0.166016 93.333 6.50098 150l68 436h-350c-10 0 -17.667 2.83301 -23 8.5s-7.33301 13.834 -6 24.501l12 97c2.66699 19.333 13.667 29 33 29h508c22 0 31.333 -11 28 -33l-86 -563c-4 -38 -5.66699 -71.333 -5 -100
s5.83398 -52.834 15.501 -72.501s20 -35.667 31 -48s24.667 -22 41 -29s31.5 -11.667 45.5 -14s29 -3.5 45 -3.5c76.667 0 152.334 31 227.001 93c20 16.667 35 14.334 45 -6.99902z" />
    <glyph glyph-name="IJ" unicode="&#x132;" horiz-adv-x="1409" 
d="M296 1405c2 19.333 13.001 29 33.001 29h130c21.333 0 30.666 -11 27.999 -33l-192 -1372c-2 -19.333 -13 -29 -33 -29h-130c-21.333 0 -31 11 -29 33zM672.001 1260c-21.333 0 -31 10.666 -29 31.999l15 113c2 19.333 13 29 33 29h646c21.333 0 31 -11 29 -33l-125 -890
c-10 -73.333 -27.833 -139.666 -53.5 -198.999s-56.167 -109.166 -91.5 -149.499s-75.333 -74.333 -120 -102s-91 -47.667 -139 -60s-97.667 -18.5 -149 -18.5c-95.333 0 -171.333 18.333 -228 55c-17.333 11.333 -20.333 26 -9 44l51 88
c8.66699 14.667 21.334 19 38.001 13c38 -15.333 84 -22.666 138 -21.999c43.333 0 84.666 7.16699 123.999 21.5s76.333 35.666 111 63.999s64.167 66.166 88.5 113.499s40.833 101.333 49.5 162l104 739h-483z" />
    <glyph glyph-name="ij" unicode="&#x133;" horiz-adv-x="1373" 
d="M374 1231c-31.333 0 -57.833 10.667 -79.5 32s-32.5 47.833 -32.5 79.5s10.833 58.167 32.5 79.5s48.167 32 79.5 32s57.666 -10.667 78.999 -32s32 -47.833 32 -79.5s-10.667 -58.167 -32 -79.5s-47.666 -32 -78.999 -32zM1214.5 1231
c-31.667 0 -58.167 10.667 -79.5 32s-32 47.833 -32 79.5s10.667 58.167 32 79.5s47.833 32 79.5 32s58.167 -10.667 79.5 -32s32 -47.833 32 -79.5s-10.667 -58.167 -32 -79.5s-47.833 -32 -79.5 -32zM408 1004c22.667 0 32.001 -11 28.001 -33l-131 -942
c-2.66699 -19.333 -13.667 -29 -33 -29h-122c-22.667 0 -32.334 11 -29.001 33l131 942c2.66699 19.333 13.667 29 33 29h123zM1241 1004c8.66699 0 16.1641 -3.6709 22.4971 -11.0039s8.83301 -15.666 7.5 -24.999l-132 -942c-38 -280 -192 -420 -462 -420
c-38.667 0 -77.167 4.33301 -115.5 13s-71.166 19.834 -98.499 33.501s-51.333 27.834 -72 42.501s-35.167 28.5 -43.5 41.5s-10.5 22.833 -6.5 29.5l60 83c12.667 18.667 29.667 20.334 51 5.00098c68.667 -53.333 145.667 -80 231 -80c29.333 0 56.833 3.5 82.5 10.5
s52.334 19.5 80.001 37.5s51.334 46 71.001 84s33.167 84.333 40.5 139l112 800h-448c-22 0 -31.667 11 -29 33l14 97c2.66699 19.333 13.667 29 33 29h602z" />
    <glyph glyph-name="Kcommaaccent" unicode="&#x136;" horiz-adv-x="1299" 
d="M1284 1434c13.333 0 21.666 -4 24.999 -12s0 -16.667 -10 -26l-615 -597l455 -762c6 -10 7 -18.667 3 -26s-12 -11 -24 -11h-145c-17.333 0 -29.666 6.66699 -36.999 20l-388 647l-191 -186l-63 -452c-2.66699 -19.333 -13.667 -29 -33 -29h-130c-22 0 -31.333 11 -28 33
l193 1372c2.66699 19.333 13.667 29 33 29h130c22 0 31 -11 27 -33l-92 -659l689 676c10.667 10 23.667 15.333 39 16h162zM777 -171c20 0 28.999 -10.333 26.999 -31l-7 -50c-29.333 -194 -71.666 -339 -126.999 -435c-8.66699 -15.333 -23.667 -23 -45 -23h-60
c-10 0 -17 3.83301 -21 11.5s-4 17.5 0 29.5c43.333 121.333 69.333 237.333 78 348h-245c-20.667 0 -29.667 10.333 -27 31l12 92c3.33301 18 14 27 32 27h383z" />
    <glyph glyph-name="kcommaaccent" unicode="&#x137;" horiz-adv-x="1203" 
d="M1095 1009c13.333 0 22.168 -4.66797 26.501 -14.001s1.5 -18.666 -8.5 -27.999l-447 -392l368 -538c13.333 -21.333 7.66602 -32 -17.001 -32h-148c-11.333 0 -22 7.66699 -32 23l-297 437l-243 -212l-32 -224c-2 -19.333 -13 -29 -33 -29h-120c-23.333 0 -33 11 -29 33
l196 1372c2 19.333 12.667 29 32 29h122c21.333 0 31 -11 29 -33l-130 -909l569 504c8 8 21 12.333 39 13h155zM785.002 -171.001c20 0 29 -10.333 27 -31l-7 -50c-29.333 -194 -71.666 -339 -126.999 -435c-8.66699 -15.333 -23.667 -23 -45 -23h-60
c-10 0 -17 3.83301 -21 11.5s-4 17.5 0 29.5c43.333 121.333 69.333 237.333 78 348h-245c-20.667 0 -29.667 10.333 -27 31l13 92c3.33301 18 13.666 27 30.999 27h383z" />
    <glyph glyph-name="Lacute" unicode="&#x139;" horiz-adv-x="1172" 
d="M341 1520c-12 0 -20 3.5 -24 10.5s-2.66699 15.5 4 25.5l162 261c7.33301 13.333 19.666 20 36.999 20h96c12 0 20 -3.5 24 -10.5s3 -15.833 -3 -26.5l-162 -260c-7.33301 -13.333 -19.666 -20 -36.999 -20h-97zM315 174h712.002c22 0 31.667 -11 29 -33l-17 -112
c-2.66699 -19.333 -13.334 -29 -32.001 -29h-875c-21.333 0 -31 11 -29 33l193 1372c2 19.333 13 29 33 29h130c21.333 0 30.666 -11 27.999 -33z" />
    <glyph glyph-name="lacute" unicode="&#x13a;" horiz-adv-x="1213" 
d="M270 1551c-12 0 -19.832 3.66699 -23.499 11s-2.5 16 3.5 26l163 260c7.33301 13.333 19.666 20.333 36.999 21h96c12 0 19.833 -3.66699 23.5 -11s2.5 -16 -3.5 -26l-162 -260c-7.33301 -13.333 -19.333 -20.333 -36 -21h-98zM1137 147
c5.33301 -12 2.66602 -22.998 -8.00098 -32.998c-34 -33.333 -84 -64 -150 -92s-139 -42 -219 -42c-34.667 0 -67.167 2.66699 -97.5 8s-60.166 14.5 -89.499 27.5s-54.166 30 -74.499 51s-38.333 47.667 -54 80s-24.5 70.166 -26.5 113.499s0.333008 93.333 7 150l132 865
h-358c-22 0 -31.667 11 -29 33l14 97c2.66699 19.333 13.667 29 33 29h511c22 0 31.667 -11 29 -33l-149 -992c-27.333 -177.333 34.667 -266.333 186 -267c85.333 0 170.666 31.667 255.999 95c18.667 13.333 33 10.666 43 -8.00098z" />
    <glyph glyph-name="Lcommaaccent" unicode="&#x13b;" horiz-adv-x="1172" 
d="M315 174h712.002c22 0 31.667 -11 29 -33l-17 -112c-2.66699 -19.333 -13.334 -29 -32.001 -29h-875c-21.333 0 -31 11 -29 33l193 1372c2 19.333 13 29 33 29h130c21.333 0 30.666 -11 27.999 -33zM314.002 -321c-21.333 0 -30.001 10.333 -26.001 31l12 92
c3.33301 18 14 27 32 27h383c20 0 28.667 -10.333 26 -31l-7 -50c-29.333 -194 -71.666 -339 -126.999 -435c-8.66699 -15.333 -23.667 -23 -45 -23h-59c-10 0 -17.167 3.83301 -21.5 11.5s-4.5 17.5 -0.5 29.5c43.333 121.333 69.333 237.333 78 348h-245z" />
    <glyph glyph-name="lcommaaccent" unicode="&#x13c;" horiz-adv-x="1213" 
d="M1137 147c5.33301 -12 2.66602 -22.998 -8.00098 -32.998c-34 -33.333 -84 -64 -150 -92s-139 -42 -219 -42c-34.667 0 -67.167 2.66699 -97.5 8s-60.166 14.5 -89.499 27.5s-54.166 30 -74.499 51s-38.333 47.667 -54 80s-24.5 70.166 -26.5 113.499
s0.333008 93.333 7 150l132 865h-358c-22 0 -31.667 11 -29 33l14 97c2.66699 19.333 13.667 29 33 29h511c22 0 31.667 -11 29 -33l-149 -992c-27.333 -177.333 34.667 -266.333 186 -267c85.333 0 170.666 31.667 255.999 95c18.667 13.333 33 10.666 43 -8.00098z
M395 -320.998c-20.667 0 -29.334 10.333 -26.001 31l12 92c3.33301 18 14 27 32 27h383c20 0 28.667 -10.333 26 -31l-7 -50c-29.333 -194 -71.666 -339 -126.999 -435c-8.66699 -15.333 -23.667 -23 -45 -23h-59c-10 0 -17.167 3.83301 -21.5 11.5s-4.5 17.5 -0.5 29.5
c43.333 121.333 69.333 237.333 78 348h-245z" />
    <glyph glyph-name="Lcaron" unicode="&#x13d;" horiz-adv-x="1172" 
d="M315 174h712.002c22 0 31.667 -11 29 -33l-17 -112c-2.66699 -19.333 -13.334 -29 -32.001 -29h-875c-21.333 0 -31 11 -29 33l193 1372c2 19.333 13 29 33 29h130c21.333 0 30.666 -11 27.999 -33zM664.002 1275c-22 0 -31.333 11 -28 33l13 97
c2.66699 19.333 13.667 29 33 29h408c22 0 31 -11 27 -33l-7 -53c-30 -204.667 -75 -358.667 -135 -462c-8.66699 -16.667 -24.334 -25 -47.001 -25h-64c-10.667 0 -18.167 4 -22.5 12s-4.16602 18.667 0.500977 32c46 130.667 73.333 254 82 370h-260z" />
    <glyph glyph-name="lcaron" unicode="&#x13e;" horiz-adv-x="1265" 
d="M1137 147c5.33301 -12 2.66602 -22.998 -8.00098 -32.998c-34 -33.333 -84 -64 -150 -92s-139 -42 -219 -42c-34.667 0 -67.167 2.66699 -97.5 8s-60.166 14.5 -89.499 27.5s-54.166 30 -74.499 51s-38.333 47.667 -54 80s-24.5 70.166 -26.5 113.499
s0.333008 93.333 7 150l132 865h-358c-22 0 -31.667 11 -29 33l14 97c2.66699 19.333 13.667 29 33 29h511c22 0 31.667 -11 29 -33l-149 -992c-27.333 -177.333 34.667 -266.333 186 -267c85.333 0 170.666 31.667 255.999 95c18.667 13.333 33 10.666 43 -8.00098z
M866 1275c-22 0 -30.999 11 -26.999 33l13 97c2.66699 19.333 13.667 29 33 29h407c22 0 31.333 -11 28 -33l-7 -53c-30 -204.667 -75 -358.667 -135 -462c-8.66699 -16.667 -24.667 -25 -48 -25h-63c-10.667 0 -18.334 4 -23.001 12s-4.66699 18.667 0 32
c46 130.667 73.333 254 82 370h-260z" />
    <glyph glyph-name="Ldot" unicode="&#x13f;" horiz-adv-x="1172" 
d="M315 174h712.002c22 0 31.667 -11 29 -33l-17 -112c-2.66699 -19.333 -13.334 -29 -32.001 -29h-875c-21.333 0 -31 11 -29 33l193 1372c2 19.333 13 29 33 29h130c21.333 0 30.666 -11 27.999 -33zM824.502 646c-40.333 0 -74.5 14 -102.5 42s-42 62.167 -42 102.5
s14 74.833 42 103.5s62.167 43 102.5 43s74.5 -14.333 102.5 -43s42 -63.167 42 -103.5s-14 -74.5 -42 -102.5s-62.167 -42 -102.5 -42z" />
    <glyph glyph-name="ldot" unicode="&#x140;" horiz-adv-x="1258" 
d="M1137 147c5.33301 -12 2.66602 -22.998 -8.00098 -32.998c-34 -33.333 -84 -64 -150 -92s-139 -42 -219 -42c-34.667 0 -67.167 2.66699 -97.5 8s-60.166 14.5 -89.499 27.5s-54.166 30 -74.499 51s-38.333 47.667 -54 80s-24.5 70.166 -26.5 113.499
s0.333008 93.333 7 150l132 865h-358c-22 0 -31.667 11 -29 33l14 97c2.66699 19.333 13.667 29 33 29h511c22 0 31.667 -11 29 -33l-149 -992c-27.333 -177.333 34.667 -266.333 186 -267c85.333 0 170.666 31.667 255.999 95c18.667 13.333 33 10.666 43 -8.00098z
M1003.5 642.002c-40.333 0 -74.5 14 -102.5 42s-42 62.167 -42 102.5s14 74.833 42 103.5s62.167 43 102.5 43s74.5 -14.333 102.5 -43s42 -63.167 42 -103.5s-14 -74.5 -42 -102.5s-62.167 -42 -102.5 -42z" />
    <glyph glyph-name="Lslash" unicode="&#x141;" horiz-adv-x="1227" 
d="M1082 174c22 0 31.666 -11 28.999 -33l-16 -112c-2.66699 -19.333 -13.667 -29 -33 -29h-875c-21.333 0 -30.666 11 -27.999 33l59 426l-70 -69c-10 -10 -18.5 -13.167 -25.5 -9.5s-10.5 12.5 -10.5 26.5v120c0 15.333 5.33301 28.333 16 39l122 119l101 720
c2 19.333 13 29 33 29h130c21.333 0 31 -11 29 -33l-70 -499l161 157c10 9.33301 18.667 12.333 26 9s11 -12 11 -26v-118c0 -15.333 -5.66699 -28.333 -17 -39l-213 -209l-70 -502h711z" />
    <glyph glyph-name="lslash" unicode="&#x142;" horiz-adv-x="1258" 
d="M1137 147c5.33301 -12 2.66602 -22.998 -8.00098 -32.998c-34 -33.333 -84 -64 -150 -92s-139 -42 -219 -42c-34.667 0 -67.167 2.66699 -97.5 8s-60.166 14.5 -89.499 27.5s-54.166 30 -74.499 51s-38.333 47.667 -54 80s-24.5 70.166 -26.5 113.499
s0.333008 93.333 7 150l16 105l-129 -126v176l161 157l84 553h-358c-22 0 -31.667 11 -29 33l14 97c2.66699 19.333 13.667 29 33 29h511c22 0 31.667 -11 29 -33l-71 -471l175 171l1 -174l-207 -202l-47 -316c-27.333 -177.333 34.667 -266.333 186 -267
c85.333 0 170.666 31.667 255.999 95c18.667 13.333 33 10.666 43 -8.00098z" />
    <glyph glyph-name="Nacute" unicode="&#x143;" horiz-adv-x="1419" 
d="M812 1546c-12 0 -20 3.66699 -24 11s-2.66699 16 4 26l162 260c7.33301 13.333 19.666 20.333 36.999 21h96c12 0 20 -3.66699 24 -11s3 -16 -3 -26l-162 -260c-7.33301 -13.333 -19.666 -20.333 -36.999 -21h-97zM1346 1434c8.66699 0 16 -3.66699 22 -11
s8.33301 -15.666 7 -24.999l-192 -1372c-2 -17.333 -12 -26 -30 -26h-163c-16 0 -27.667 8.66699 -35 26l-503 1127l-159 -1127c-2 -17.333 -12 -26 -30 -26h-130c-8.66699 0 -16.167 3.66699 -22.5 11s-8.83301 15.666 -7.5 24.999l193 1370c2 18.667 12 28 30 28h162
c16 0 27.333 -8.33301 34 -25l506 -1130l158 1127c2 18.667 12.667 28 32 28h128z" />
    <glyph glyph-name="nacute" unicode="&#x144;" horiz-adv-x="1271" 
d="M678 1116c-12 0 -20 3.66699 -24 11s-3 16 3 26l163 260c7.33301 13.333 19.666 20.333 36.999 21h96c12 0 20 -3.66699 24 -11s3 -16 -3 -26l-162 -260c-7.33301 -13.333 -19.666 -20.333 -36.999 -21h-97zM1061 131c10 1.33301 18.166 -1.50195 24.499 -8.50195
s8.5 -16.833 6.5 -29.5l-10 -51c-6.66699 -37.333 -41.334 -56 -104.001 -56c-54.667 0 -94.667 16.167 -120 48.5s-34.666 72.833 -27.999 121.5l64 447c12 84.667 -1.33301 148.334 -40 191.001s-94.334 64 -167.001 64c-85.333 0 -158.833 -24.5 -220.5 -73.5
s-102.167 -101.167 -121.5 -156.5l-85 -599c-2 -19.333 -13 -29 -33 -29h-121c-23.333 0 -32.666 11 -27.999 33l134 942c2 19.333 13 29 33 29h111c8.66699 0 16 -3.66699 22 -11s8.33301 -15.666 7 -24.999l-9 -125h18c34 52.667 81.833 96.334 143.5 131.001
s131.834 52 210.501 52c56 0 106.667 -8.83301 152 -26.5s83.333 -43.5 114 -77.5s52.167 -77.333 64.5 -130s13.166 -112.334 2.49902 -179.001l-64 -432c-2.66699 -18.667 -0.166992 -32.167 7.5 -40.5s19.834 -11.5 36.501 -9.5zM336.999 584.998l5 30
c-3.33301 -12 -5 -22 -5 -30z" />
    <glyph glyph-name="Ncommaaccent" unicode="&#x145;" horiz-adv-x="1419" 
d="M1346 1434c8.66699 0 16 -3.66699 22 -11s8.33301 -15.666 7 -24.999l-192 -1372c-2 -17.333 -12 -26 -30 -26h-163c-16 0 -27.667 8.66699 -35 26l-503 1127l-159 -1127c-2 -17.333 -12 -26 -30 -26h-130c-8.66699 0 -16.167 3.66699 -22.5 11
s-8.83301 15.666 -7.5 24.999l193 1370c2 18.667 12 28 30 28h162c16 0 27.333 -8.33301 34 -25l506 -1130l158 1127c2 18.667 12.667 28 32 28h128zM422 -321c-20.667 0 -29.667 10.333 -27 31l13 92c3.33301 18 13.666 27 30.999 27h383c20 0 29 -10.333 27 -31l-7 -50
c-29.333 -194 -71.666 -339 -126.999 -435c-8.66699 -15.333 -23.667 -23 -45 -23h-60c-10 0 -17 3.83301 -21 11.5s-4 17.5 0 29.5c43.333 121.333 69.333 237.333 78 348h-245z" />
    <glyph glyph-name="ncommaaccent" unicode="&#x146;" horiz-adv-x="1271" 
d="M1061 131c10 1.33301 18.166 -1.50195 24.499 -8.50195s8.5 -16.833 6.5 -29.5l-10 -51c-6.66699 -37.333 -41.334 -56 -104.001 -56c-54.667 0 -94.667 16.167 -120 48.5s-34.666 72.833 -27.999 121.5l64 447c12 84.667 -1.33301 148.334 -40 191.001
s-94.334 64 -167.001 64c-85.333 0 -158.833 -24.5 -220.5 -73.5s-102.167 -101.167 -121.5 -156.5l-85 -599c-2 -19.333 -13 -29 -33 -29h-121c-23.333 0 -32.666 11 -27.999 33l134 942c2 19.333 13 29 33 29h111c8.66699 0 16 -3.66699 22 -11s8.33301 -15.666 7 -24.999
l-9 -125h18c34 52.667 81.833 96.334 143.5 131.001s131.834 52 210.501 52c56 0 106.667 -8.83301 152 -26.5s83.333 -43.5 114 -77.5s52.167 -77.333 64.5 -130s13.166 -112.334 2.49902 -179.001l-64 -432c-2.66699 -18.667 -0.166992 -32.167 7.5 -40.5
s19.834 -11.5 36.501 -9.5zM336.999 584.998l5 30c-3.33301 -12 -5 -22 -5 -30zM748.999 -171.002c20 0 28.667 -10.333 26 -31l-7 -50c-29.333 -194 -71.666 -339 -126.999 -435c-8.66699 -15.333 -23.667 -23 -45 -23h-59c-10 0 -17.167 3.83301 -21.5 11.5
s-4.5 17.5 -0.5 29.5c43.333 121.333 69.333 237.333 78 348h-245c-20.667 0 -29.334 10.333 -26.001 31l12 92c3.33301 18 14 27 32 27h383z" />
    <glyph glyph-name="Ncaron" unicode="&#x147;" horiz-adv-x="1419" 
d="M877 1708l196.999 178c9.33301 9.33301 22.333 14.333 39 15h133c13.333 0 21.833 -3.66699 25.5 -11s0.833984 -16 -8.49902 -26l-272 -263c-9.33301 -9.33301 -22.333 -14.333 -39 -15h-178c-16 0 -28.333 6.33301 -37 19l-197 259c-8 10 -10 18.667 -6 26s12 11 24 11
h137c14.667 0 27 -6.33301 37 -19zM1346 1434c8.66699 0 16 -3.66699 22 -11s8.33301 -15.666 7 -24.999l-192 -1372c-2 -17.333 -12 -26 -30 -26h-163c-16 0 -27.667 8.66699 -35 26l-503 1127l-159 -1127c-2 -17.333 -12 -26 -30 -26h-130
c-8.66699 0 -16.167 3.66699 -22.5 11s-8.83301 15.666 -7.5 24.999l193 1370c2 18.667 12 28 30 28h162c16 0 27.333 -8.33301 34 -25l506 -1130l158 1127c2 18.667 12.667 28 32 28h128z" />
    <glyph glyph-name="ncaron" unicode="&#x148;" horiz-adv-x="1271" 
d="M1112 1470c13.333 0 21.833 -3.5 25.5 -10.5s0.5 -15.5 -9.5 -25.5l-271 -264c-9.33301 -9.33301 -22.333 -14 -39 -14h-178c-16 0 -28.333 6.33301 -37 19l-197 259c-8 10 -10 18.5 -6 25.5s12 10.5 24 10.5h137c14.667 0 27 -6 37 -18l144 -174l198 178
c9.33301 9.33301 22.333 14 39 14h133zM1061 131c10 1.33301 18.166 -1.50195 24.499 -8.50195s8.5 -16.833 6.5 -29.5l-10 -51c-6.66699 -37.333 -41.334 -56 -104.001 -56c-54.667 0 -94.667 16.167 -120 48.5s-34.666 72.833 -27.999 121.5l64 447
c12 84.667 -1.33301 148.334 -40 191.001s-94.334 64 -167.001 64c-85.333 0 -158.833 -24.5 -220.5 -73.5s-102.167 -101.167 -121.5 -156.5l-85 -599c-2 -19.333 -13 -29 -33 -29h-121c-23.333 0 -32.666 11 -27.999 33l134 942c2 19.333 13 29 33 29h111
c8.66699 0 16 -3.66699 22 -11s8.33301 -15.666 7 -24.999l-9 -125h18c34 52.667 81.833 96.334 143.5 131.001s131.834 52 210.501 52c56 0 106.667 -8.83301 152 -26.5s83.333 -43.5 114 -77.5s52.167 -77.333 64.5 -130s13.166 -112.334 2.49902 -179.001l-64 -432
c-2.66699 -18.667 -0.166992 -32.167 7.5 -40.5s19.834 -11.5 36.501 -9.5zM336.999 584.998l5 30c-3.33301 -12 -5 -22 -5 -30z" />
    <glyph glyph-name="Eng" unicode="&#x14a;" horiz-adv-x="1418" 
d="M1346 1434c8.66699 0 16.002 -3.66699 22.002 -11s8.33301 -15.666 7 -24.999l-198 -1403c-20.667 -145.333 -77.334 -250.833 -170.001 -316.5s-225.334 -98.5 -398.001 -98.5l17 177c199.333 0 320 64.333 362 193l-536 1203l-159 -1127c-2 -17.333 -12 -26 -30 -26
h-130c-8.66699 0 -16.167 3.66699 -22.5 11s-8.83301 15.666 -7.5 24.999l193 1370c2 18.667 12 28 30 28h162c16 0 27.333 -8.33301 34 -25l506 -1130l158 1127c2 18.667 12.667 28 32 28h128z" />
    <glyph glyph-name="eng" unicode="&#x14b;" horiz-adv-x="1190" 
d="M989 -14c-19.333 -129.333 -63.835 -227.002 -133.502 -293.002s-157.834 -99 -264.501 -99c-14.667 0 -23.334 7.66699 -26.001 23l-20 127c-2 11.333 1 17 9 17c70 0 127.833 24 173.5 72s74.834 116.667 87.501 206l80 564c12 84.667 -1.5 148.334 -40.5 191.001
s-94.5 64 -166.5 64c-48.667 0 -94.167 -8.83301 -136.5 -26.5s-77.166 -40 -104.499 -67s-50 -54.333 -68 -82s-30.333 -53.834 -37 -78.501l-82 -575c-2 -19.333 -13 -29 -33 -29h-121c-23.333 0 -32.666 11 -27.999 33l134 942c2 19.333 13 29 33 29h111
c8.66699 0 16 -3.66699 22 -11s8.33301 -15.666 7 -24.999l-9 -125h18c34 52.667 81.833 96.334 143.5 131.001s131.834 52 210.501 52c116 0 205.833 -36 269.5 -108s85.5 -173.667 65.5 -305z" />
    <glyph glyph-name="Omacron" unicode="&#x14c;" horiz-adv-x="1759" 
d="M1324 1860c21.333 0 30.999 -11 28.999 -33l-14 -87c-2 -19.333 -12.667 -29 -32 -29h-523c-21.333 0 -30.666 11 -27.999 33l13 87c2 19.333 13 29 33 29h522zM811.999 -27c-100.667 0 -194.164 19.668 -280.497 59.001s-158 92.333 -215 159
s-98.5 146.167 -124.5 238.5s-32 189.5 -18 291.5c19.333 133.333 69.166 255.833 149.499 367.5s180.666 199.834 300.999 264.501s246.166 97 377.499 97c100.667 0 194 -19.667 280 -59s157.5 -92.333 214.5 -159s98.5 -146.334 124.5 -239.001
s31.667 -190.334 17 -293.001c-19.333 -132.667 -69 -254.667 -149 -366s-180 -199.333 -300 -264s-245.667 -97 -377 -97zM822.002 155.001c154 0 292.167 54.833 414.5 164.5s194.166 243.5 215.499 401.5c14.667 101.333 4 193.833 -32 277.5s-91.667 149.667 -167 198
s-162.333 72.5 -261 72.5c-102 0 -198.833 -25.167 -290.5 -75.5s-168 -119 -229 -206s-98.833 -182.833 -113.5 -287.5c-13.333 -100.667 -2 -192.667 34 -276s91.833 -149 167.5 -197s162.834 -72 261.501 -72z" />
    <glyph glyph-name="omacron" unicode="&#x14d;" horiz-adv-x="1290" 
d="M1033 1430c21.333 0 31 -11 29 -33l-13 -87c-2 -19.333 -13 -29 -33 -29h-522c-21.333 0 -31 11 -29 33l13 87c2 19.333 13 29 33 29h522zM594 -27c-136.667 0 -248.833 45 -336.5 135s-131.5 203 -131.5 339c0 106.667 25.667 204.5 77 293.5
s120.166 158.833 206.499 209.5s179.833 76 280.5 76c136.667 0 248.834 -44.667 336.501 -134s131.5 -202 131.5 -338c0 -80 -15 -156 -45 -228s-70.333 -133.5 -121 -184.5s-110.5 -91.833 -179.5 -122.5s-141.833 -46 -218.5 -46zM600.001 142
c107.333 0 197.334 37.999 270.001 113.999s109 174.667 109 296c0 90.667 -27.5 164.334 -82.5 221.001s-126.167 85 -213.5 85c-106.667 0 -196.334 -38.167 -269.001 -114.5s-109 -174.5 -109 -294.5c0 -91.333 27.5 -165.333 82.5 -222s125.833 -85 212.5 -85z" />
    </font>
</defs>
</svg>
