<?xml version="1.0" standalone="no"?>
<!DOCTYPE svg PUBLIC "-//W3C//DTD SVG 1.1//EN" "http://www.w3.org/Graphics/SVG/1.1/DTD/svg11.dtd" >
<svg>
<metadata>
Created by FontForge 20090914 at Wed Mar 20 07:25:10 2019
 By www-data
&#194;&#169; 2016 Connary Fagen
</metadata>
<defs>
<font id="CartographSansCF-Regular" horiz-adv-x="1310" >
  <font-face
    font-family="Cartograph Sans CF"
    font-weight="400"
    font-stretch="normal"
    units-per-em="2048"
    panose-1="0 0 5 0 0 0 0 0 0 0"
    ascent="1638"
    descent="-410"
    x-height="1004"
    cap-height="1434"
    bbox="-480.032 -691.045 1970 1919"
    underline-thickness="0"
    underline-position="0"
    unicode-range="U+0020-U+25CA"
  />
<missing-glyph horiz-adv-x="1013"
d="M831 1638v-2027h-643v2027h643zM675 1502h-334v-66h131v-75h-133v-68h336v68h-133v75h133v66zM542 1241h-203v-211h336v69h-133v142zM472 1172v-73h-66v73h66zM675 976h-336v-68h133v-74h-133v-67h203v141h133v68zM675 854h-67v-134h-269v-69h336v203zM675 606h-203v-113
h70v47h66v-96h-202v162h-67v-229h336v229zM675 256h-336v-229h336v229zM608 188v-95h-202v95h202zM675 -20h-336v-67h141l-141 -95v-67h336v67h-207l142 95h65v67z" />
    <glyph glyph-name=".notdef" horiz-adv-x="1013"
d="M831 1638v-2027h-643v2027h643zM675 1502h-334v-66h131v-75h-133v-68h336v68h-133v75h133v66zM542 1241h-203v-211h336v69h-133v142zM472 1172v-73h-66v73h66zM675 976h-336v-68h133v-74h-133v-67h203v141h133v68zM675 854h-67v-134h-269v-69h336v203zM675 606h-203v-113
h70v47h66v-96h-202v162h-67v-229h336v229zM675 256h-336v-229h336v229zM608 188v-95h-202v95h202zM675 -20h-336v-67h141l-141 -95v-67h336v67h-207l142 95h65v67z" />
    <glyph glyph-name="space" unicode=" " horiz-adv-x="798"
 />
    <glyph glyph-name="exclam" unicode="!" horiz-adv-x="611"
d="M410 1337l-50.001 -917c-1.33301 -20.667 -12 -31 -32 -31h-45c-20.667 0 -31.667 10.333 -33 31l-49 917c-1.33301 32 7.83398 58.833 27.501 80.5s45.167 32.5 76.5 32.5s57 -10.833 77 -32.5s29.333 -48.5 28 -80.5zM304.999 -27c-35.333 0 -65.333 12.334 -90 37.001
s-37 54.667 -37 90c0 36 12.333 66.5 37 91.5s54.667 37.5 90 37.5s65.333 -12.333 90 -37s37 -55.334 37 -92.001c0 -35.333 -12.333 -65.333 -37 -90s-54.667 -37 -90 -37z" />
    <glyph glyph-name="quotedbl" unicode="&#x22;" horiz-adv-x="747"
d="M241 1434c8.66699 0 15.833 -2.83301 21.5 -8.5s8.5 -13.167 8.5 -22.5l-12 -389c0 -9.33301 -2.83301 -16.833 -8.5 -22.5s-13.167 -8.5 -22.5 -8.5h-57c-8.66699 0 -16 2.66699 -22 8s-9 13 -9 23l-12 389c0 9.33301 2.83301 16.833 8.5 22.5s13.167 8.5 22.5 8.5h82z
M588.999 1434c8.66699 0 16.001 -2.83301 22.001 -8.5s9 -13.167 9 -22.5l-13 -389c0 -9.33301 -2.83301 -16.833 -8.5 -22.5s-12.834 -8.5 -21.501 -8.5h-58c-8.66699 0 -16 2.66699 -22 8s-9 13 -9 23l-12 389c0 9.33301 3 16.833 9 22.5s13.333 8.5 22 8.5h82z" />
    <glyph glyph-name="numbersign" unicode="#"
d="M1069 1016l-143 0.00195312v-434h143c9.33301 0 17.833 -3 25.5 -9s11.5 -13.333 11.5 -22v-70c0 -8.66699 -3.83301 -15.834 -11.5 -21.501s-16.167 -8.5 -25.5 -8.5h-143v-256c0 -9.33301 -2.83301 -16.833 -8.5 -22.5s-13.167 -8.5 -22.5 -8.5h-86
c-9.33301 0 -16.833 2.66699 -22.5 8s-8.5 13 -8.5 23v256h-252v-256c0 -9.33301 -2.66699 -16.833 -8 -22.5s-12.666 -8.5 -21.999 -8.5h-86c-9.33301 0 -16.833 2.66699 -22.5 8s-8.5 13 -8.5 23v256h-143c-9.33301 0 -16.833 2.66699 -22.5 8s-8.5 12.666 -8.5 21.999v70
c0 9.33301 2.66699 16.833 8 22.5s13 8.5 23 8.5h143v434h-143c-9.33301 0 -16.833 2.66699 -22.5 8s-8.5 13 -8.5 23v69c0 9.33301 2.66699 16.833 8 22.5s13 8.5 23 8.5h143v256c0 9.33301 2.66699 16.833 8 22.5s13 8.5 23 8.5h86c9.33301 0 16.666 -2.83301 21.999 -8.5
s8 -13.167 8 -22.5v-256h252v256c0 9.33301 2.83301 16.833 8.5 22.5s13.167 8.5 22.5 8.5h86c9.33301 0 16.833 -2.83301 22.5 -8.5s8.5 -13.167 8.5 -22.5v-256h143c9.33301 0 17.833 -3 25.5 -9s11.5 -13.333 11.5 -22v-69c0 -8.66699 -3.83301 -16 -11.5 -22
s-16.167 -9 -25.5 -9zM778 582.002v434h-252v-434h252z" />
    <glyph glyph-name="dollar" unicode="$" horiz-adv-x="1253"
d="M1141 393c0 -101.333 -37.498 -184.501 -112.498 -249.501s-187.833 -101.5 -338.5 -109.5v-188c0 -9.33301 -2.66699 -16.666 -8 -21.999s-13 -8 -23 -8h-66c-8.66699 0 -16 2.66699 -22 8s-9 12.666 -9 21.999v187c-264 13.333 -413.333 111 -448 293
c-4 22 5 32.667 27 32h90c16.667 0 28 -8.66699 34 -26c13.333 -43.333 45.833 -78.666 97.5 -105.999s118.167 -44 199.5 -50v493c-62 16 -116 33.5 -162 52.5s-89.333 43.167 -130 72.5s-71.667 65.5 -93 108.5s-32 92.167 -32 147.5c0 97.333 34 176.666 102 237.999
s173 95.666 315 102.999v196c0 9.33301 3 16.833 9 22.5s13.333 8.5 22 8.5h66c9.33301 0 16.833 -2.66699 22.5 -8s8.5 -13 8.5 -23v-198c113.333 -9.33301 205.666 -38.666 276.999 -87.999s115.333 -116.333 132 -201c2 -10 0.166992 -18 -5.5 -24s-13.5 -9 -23.5 -9h-88
c-16.667 0 -28 9 -34 27c-13.333 38.667 -42.666 71.667 -87.999 99s-102 45 -170 53v-462c52.667 -12 99.5 -24.667 140.5 -38s81.667 -30.666 122 -51.999s73.666 -45.333 99.999 -72s47.666 -59.5 63.999 -98.5s24.5 -82.5 24.5 -130.5zM297.002 1050
c0 -60 22.333 -109.002 67 -147.002s110.667 -68.333 198 -91v438c-87.333 -5.33301 -153.333 -25.166 -198 -59.499s-67 -81.166 -67 -140.499zM690.002 175.997c96 6.66699 169.168 28.499 219.501 65.499s75.5 87.5 75.5 151.5c0 38.667 -6.33301 71.834 -19 99.501
s-33.334 50.5 -62.001 68.5s-58.5 32.5 -89.5 43.5s-72.5 22.5 -124.5 34.5v-463z" />
    <glyph glyph-name="percent" unicode="%" horiz-adv-x="1320"
d="M376 1444c81.333 0 141.5 -24.5 180.5 -73.5s58.5 -116.833 58.5 -203.5s-19.5 -154.667 -58.5 -204s-99.167 -74 -180.5 -74c-80 0 -139.667 24.667 -179 74s-59 117.333 -59 204s19.667 154.5 59 203.5s99 73.5 179 73.5zM376 1323
c-45.333 0 -76.5 -13.501 -93.5 -40.501s-25.5 -65.5 -25.5 -115.5c0 -51.333 8.5 -90.333 25.5 -117s48.167 -40 93.5 -40c46 0 77.667 13.5 95 40.5s26 65.833 26 116.5s-8.66699 89.334 -26 116.001s-49 40 -95 40zM1066 1200c16.667 -14.667 18.667 -29 6 -43l-723 -956
c-14.667 -16.667 -29 -18.667 -43 -6l-51 41c-16.667 14.667 -18.667 29 -6 43l723 956c12.667 18 27 20 43 6zM943 544.999c81.333 0 141.666 -24.5 180.999 -73.5s59 -116.833 59 -203.5s-19.667 -154.667 -59 -204s-99.666 -74 -180.999 -74
c-80 0 -139.5 24.667 -178.5 74s-58.5 117.333 -58.5 204s19.5 154.5 58.5 203.5s98.5 73.5 178.5 73.5zM943 423.999c-45.333 0 -76.5 -13.501 -93.5 -40.501s-25.5 -65.5 -25.5 -115.5c0 -51.333 8.66699 -90.333 26 -117s48.333 -40 93 -40c46 0 77.667 13.333 95 40
s26 65.667 26 117c0 50.667 -8.66699 89.334 -26 116.001s-49 40 -95 40z" />
    <glyph glyph-name="ampersand" unicode="&#x26;"
d="M1204 96c12 -15.333 11.332 -29.666 -2.00098 -42.999l-53 -51c-16 -16 -30.333 -16 -43 0l-141 170c-62 -59.333 -127.5 -105.833 -196.5 -139.5s-146.833 -50.5 -233.5 -50.5c-129.333 0 -232.833 33.667 -310.5 101s-116.5 160 -116.5 278
c0 38 6.16699 75.5 18.5 112.5s28 69.667 47 98s44 58 75 89s59.5 57 85.5 78s58 45.5 96 73.5c-59.333 68 -104.833 128.333 -136.5 181s-47.5 106 -47.5 160c0 88 28.167 159.5 84.5 214.5s134.5 82.5 234.5 82.5c98.667 0 177.667 -27.5 237 -82.5s89 -124.833 89 -209.5
c0 -36 -6.66699 -71 -20 -105s-33.5 -66.833 -60.5 -98.5s-54 -59.667 -81 -84s-60.167 -52.166 -99.5 -83.499l343 -412l63 71c12 15.333 25.333 15.666 40 0.999023l58 -59c12.667 -12.667 12.334 -26.334 -0.999023 -41.001l-72 -78zM392.999 1153
c0 -27.333 8.16797 -57.166 24.501 -89.499s33.166 -59.666 50.499 -81.999s42 -51.833 74 -88.5c43.333 32 78 60.167 104 84.5s48.667 52.666 68 84.999s29 64.166 29 95.499c0 50.667 -16.5 89.167 -49.5 115.5s-75.833 39.5 -128.5 39.5c-52 0 -93.667 -13.333 -125 -40
s-47 -66.667 -47 -120zM535 127c120.667 0 234.999 49.667 342.999 149l-356 429c-54.667 -42 -98.167 -77.833 -130.5 -107.5s-61.666 -66 -87.999 -109s-39.5 -86.167 -39.5 -129.5c0 -68.667 25.667 -124.5 77 -167.5s116 -64.5 194 -64.5z" />
    <glyph glyph-name="quotesingle" unicode="'" horiz-adv-x="399"
d="M241 1434c8.66699 0 15.833 -2.83301 21.5 -8.5s8.5 -13.167 8.5 -22.5l-12 -389c0 -9.33301 -2.83301 -16.833 -8.5 -22.5s-13.167 -8.5 -22.5 -8.5h-57c-8.66699 0 -16 2.66699 -22 8s-9 13 -9 23l-12 389c0 9.33301 2.83301 16.833 8.5 22.5s13.167 8.5 22.5 8.5h82z
" />
    <glyph glyph-name="parenleft" unicode="(" horiz-adv-x="1095"
d="M876 1370c-60.667 0 -114.832 -5.49902 -162.499 -16.499s-88.667 -26.333 -123 -46s-63.833 -46 -88.5 -79s-44.834 -68.5 -60.501 -106.5s-28 -83.833 -37 -137.5s-15 -107.834 -18 -162.501s-4.5 -118.334 -4.5 -191.001c0 -63.333 1.16699 -119.833 3.5 -169.5
s6.83301 -98.834 13.5 -147.501s15.5 -91.167 26.5 -127.5s25.333 -71.166 43 -104.499s38.667 -61.333 63 -84s53 -42.5 86 -59.5s71 -29.5 114 -37.5s91.167 -12 144.5 -12v-155c-114.667 0 -213 16.333 -295 49s-146.167 74.334 -192.5 125.001s-82.333 117.5 -108 200.5
s-42.167 163.333 -49.5 241s-11 171.5 -11 281.5c0 76.667 1.66699 144.167 5 202.5s10.5 119.833 21.5 184.5s25.833 120.5 44.5 167.5s44.667 93.167 78 138.5s72.666 82 117.999 110s100.833 50.333 166.5 67s139.834 25 222.501 25v-156z" />
    <glyph glyph-name="parenright" unicode=")" horiz-adv-x="1095"
d="M220 1370v156.003c82.667 0 156.834 -8.33301 222.501 -25s121.167 -39 166.5 -67s84.5 -64.667 117.5 -110s59 -91.5 78 -138.5s33.833 -102.833 44.5 -167.5s17.834 -126.334 21.501 -185.001s5.5 -126 5.5 -202c0 -110 -3.66699 -203.833 -11 -281.5
s-24 -158 -50 -241s-62 -149.833 -108 -200.5s-110 -92.334 -192 -125.001s-180.333 -49 -295 -49v155c53.333 0 101.5 4 144.5 12s80.833 20.5 113.5 37.5s61.334 36.833 86.001 59.5s45.667 50.667 63 84s31.666 68.166 42.999 104.499s20.333 78.833 27 127.5
s11.167 97.834 13.5 147.501s3.5 106.167 3.5 169.5c0 73.333 -1.5 137.166 -4.5 191.499s-9 108.333 -18 162s-21.333 99.5 -37 137.5s-35.834 73.5 -60.501 106.5s-54.167 59.333 -88.5 79s-75.333 35 -123 46s-101.834 16.5 -162.501 16.5z" />
    <glyph glyph-name="asterisk" unicode="*" horiz-adv-x="1024"
d="M803 1204c4 -18.667 -2.99707 -31.001 -20.9971 -37.001l-209 -55l134 -176c11.333 -16 8.33301 -30.333 -9 -43l-24 -16c-16.667 -12 -30.334 -9.33301 -41.001 8l-121 174l-121 -174c-10.667 -18 -24.334 -20.667 -41.001 -8l-24 16c-17.333 12.667 -20.333 27 -9 43
l134 176l-209 55c-18 6 -25 18.333 -21 37l6 27c2 10 6.66699 17 14 21s15.666 4.33301 24.999 1l205 -63l-6 213c0 9.33301 2.66699 16.833 8 22.5s13 8.5 23 8.5h30c9.33301 0 16.833 -2.83301 22.5 -8.5s8.5 -13.167 8.5 -22.5l-4 -213l205 63
c21.333 6.66699 34.333 -0.666016 39 -21.999z" />
    <glyph glyph-name="plus" unicode="+" horiz-adv-x="1136"
d="M937 647c8.66699 0 16 -2.66699 22 -8s9 -13 9 -23v-69c0 -9.33301 -3 -16.833 -9 -22.5s-13.333 -8.5 -22 -8.5h-303v-303c0 -9.33301 -3 -16.833 -9 -22.5s-13.333 -8.5 -22 -8.5h-69c-8.66699 0 -16 2.83301 -22 8.5s-9 13.167 -9 22.5v303h-303
c-8.66699 0 -16 2.66699 -22 8s-9 13 -9 23v69c0 9.33301 2.83301 16.833 8.5 22.5s13.167 8.5 22.5 8.5h303v303c0 9.33301 2.83301 16.833 8.5 22.5s13.167 8.5 22.5 8.5h69c8.66699 0 16 -2.66699 22 -8s9 -13 9 -23v-303h303z" />
    <glyph glyph-name="comma" unicode="," horiz-adv-x="696"
d="M538 136c8.66699 0 15.832 -2.83398 21.499 -8.50098s8.5 -13.167 8.5 -22.5v-35c0 -80.667 -6.83301 -163.834 -20.5 -249.501s-30.5 -155.5 -50.5 -209.5c-6 -16.667 -18.333 -25 -37 -25h-47c-22 0 -31 11.667 -27 35c9.33301 50.667 16.833 113.334 22.5 188.001
s7.83398 138.334 6.50098 191.001h-256c-8.66699 0 -16 2.66699 -22 8s-9 13 -9 23v74c0 8.66699 2.83301 16 8.5 22s13.167 9 22.5 9h379z" />
    <glyph glyph-name="hyphen" unicode="-"
d="M1137 645c9.33301 0 16.666 -2.66699 21.999 -8s8 -13 8 -23v-71c0 -9.33301 -2.66699 -16.833 -8 -22.5s-12.666 -8.5 -21.999 -8.5h-963c-9.33301 0 -16.833 2.66699 -22.5 8s-8.5 13 -8.5 23v71c0 9.33301 2.83301 16.833 8.5 22.5s13.167 8.5 22.5 8.5h963z" />
    <glyph glyph-name="period" unicode="." horiz-adv-x="530"
d="M265 -27c-36 0 -66.167 12.334 -90.5 37.001s-36.5 54.667 -36.5 90c0 36 12.333 66.5 37 91.5s54.667 37.5 90 37.5s65.333 -12.333 90 -37s37 -55.334 37 -92.001c0 -35.333 -12.167 -65.333 -36.5 -90s-54.5 -37 -90.5 -37z" />
    <glyph glyph-name="slash" unicode="/"
d="M1090 1434c11.333 0 19 -3.66699 23 -11s3.66699 -16 -1 -26l-760 -1639c-8 -16.667 -20.333 -24.667 -37 -24h-92c-11.333 0 -19.5 3 -24.5 9s-4.83301 14.667 0.5 26l759 1642c7.33301 15.333 19 23 35 23h97z" />
    <glyph glyph-name="zero" unicode="0" horiz-adv-x="1269"
d="M635 1454c90 0 165 -10.002 225 -30.002s111.5 -55.667 154.5 -107s74.167 -121.166 93.5 -209.499s29 -200.166 29 -335.499v-121c0 -135.333 -9.66699 -247.166 -29 -335.499s-50.5 -158 -93.5 -209s-94.5 -86.667 -154.5 -107s-135 -30.5 -225 -30.5
s-165.167 10.167 -225.5 30.5s-112 56 -155 107s-74 120.833 -93 209.5s-28.5 200.334 -28.5 335.001v121c0 135.333 9.5 247.166 28.5 335.499s50 158.166 93 209.499s94.667 87 155 107s135.5 30 225.5 30zM635 1304c-51.333 0 -93.666 -3.5 -126.999 -10.5
s-65.166 -21 -95.499 -42s-54.166 -51 -71.499 -90s-30.666 -90.5 -39.999 -154.5s-14 -142.333 -14 -235v-121c0 -92.667 4.66699 -170.834 14 -234.501s22.666 -115 39.999 -154s41.166 -69.167 71.499 -90.5s62.166 -35.333 95.499 -42s75.666 -10 126.999 -10
s93.666 3.33301 126.999 10s65.166 20.667 95.499 42s54 51.5 71 90.5s30.333 90.333 40 154s14.5 141.834 14.5 234.501v121c0 92.667 -4.83301 171 -14.5 235s-23 115.5 -40 154.5s-40.667 69 -71 90s-62.166 35 -95.499 42s-75.666 10.5 -126.999 10.5zM506 445.998
c-11.333 0 -19.5 3.16699 -24.5 9.5s-5.16699 14.833 -0.5 25.5l193 471c6 16.667 18.333 25 37 25h55c11.333 0 19.5 -3.16699 24.5 -9.5s5.16699 -14.833 0.5 -25.5l-193 -471c-6 -16.667 -18.333 -25 -37 -25h-55z" />
    <glyph glyph-name="one" unicode="1" horiz-adv-x="1167"
d="M1014 131c9.33301 0 16.668 -2.66699 22.001 -8s8 -13 8 -23v-69c0 -9.33301 -2.66699 -16.833 -8 -22.5s-12.666 -8.5 -21.999 -8.5h-860c-9.33301 0 -16.833 2.66699 -22.5 8s-8.5 13 -8.5 23v69c0 9.33301 2.66699 16.833 8 22.5s13 8.5 23 8.5h385v1145
c-98.667 -91.333 -209.334 -137 -332.001 -137c-20.667 0 -31 10 -31 30v80c0 20.667 10.333 31 31 31c50 0 104 13.167 162 39.5s114.667 64.5 170 114.5h123c9.33301 0 16.666 -2.83301 21.999 -8.5s8 -13.167 8 -22.5v-1272h322z" />
    <glyph glyph-name="two" unicode="2" horiz-adv-x="1187"
d="M1017 143c8.66699 0 16 -2.66406 22 -7.99707s9 -12.666 9 -21.999v-82c0 -9.33301 -3 -16.833 -9 -22.5s-13.333 -8.5 -22 -8.5h-842c-8.66699 0 -16 2.66699 -22 8s-9 13 -9 23v102c0 68.667 8.83301 131.834 26.5 189.501s41.167 106 70.5 145
s62.833 74.833 100.5 107.5s77.5 60.834 119.5 84.501l126.5 68l120.5 64.5c38 21.333 71.667 44.166 101 68.499s52.666 53.166 69.999 86.499s26 70.666 26 111.999c0 75.333 -24.333 136.166 -73 182.499s-123 69.5 -223 69.5c-210.667 0 -318 -83.333 -322 -250
c-1.33301 -21.333 -12 -31 -32 -29l-86 8c-20.667 2 -31 13 -31 33c0 122 40.333 215.333 121 280s194 97 340 97c150 0 262.667 -35 338 -105s113 -165.333 113 -286c0 -52.667 -8.66699 -100.5 -26 -143.5s-40.5 -79.5 -69.5 -109.5s-62.167 -57.833 -99.5 -83.5
s-76.666 -49.5 -117.999 -71.5l-124 -65.5c-41.333 -21.667 -80.833 -46.334 -118.5 -74.001s-71 -57.834 -100 -90.501s-52 -72.667 -69 -120s-25.5 -100 -25.5 -158h717z" />
    <glyph glyph-name="three" unicode="3" horiz-adv-x="1238"
d="M824 768c85.333 -26 156 -70.834 212 -134.501s84 -142.5 84 -236.5c0 -130 -46.333 -233.167 -139 -309.5s-216.334 -114.5 -371.001 -114.5c-153.333 0 -272 34.167 -356 102.5s-126 160.5 -126 276.5c0 20 10.333 31 31 33l88 8c20.667 2 31 -7.33301 31 -28
c0 -72.667 28.833 -132.834 86.5 -180.501s139.5 -71.5 245.5 -71.5c107.333 0 194 26.667 260 80s99 123.333 99 210c0 90.667 -38.5 162.5 -115.5 215.5s-182.833 79.5 -317.5 79.5c-20.667 0 -31 10.333 -31 31v66c0 22 10.333 32.667 31 32
c126.667 0 222.167 24.167 286.5 72.5s96.5 109.5 96.5 183.5c0 68.667 -27.833 124.167 -83.5 166.5s-130.5 63.5 -224.5 63.5c-97.333 0 -173.5 -24.167 -228.5 -72.5s-82.5 -108.166 -82.5 -179.499c0 -21.333 -10.333 -31 -31 -29l-88 8c-20.667 2 -30.667 13 -30 33
c0 114.667 41.167 206.167 123.5 274.5s194.5 102.5 336.5 102.5c136.667 0 246.334 -33.167 329.001 -99.5s124 -153.166 124 -260.499c0 -74 -22.5 -139 -67.5 -195s-102.5 -98.333 -172.5 -127z" />
    <glyph glyph-name="four" unicode="4" horiz-adv-x="1264"
d="M1101 510c8.66699 0 16.001 -2.66699 22.001 -8s9 -13 9 -23v-71c0 -9.33301 -3 -16.833 -9 -22.5s-13.333 -8.5 -22 -8.5h-144v-346c0 -9.33301 -2.83301 -16.833 -8.5 -22.5s-12.834 -8.5 -21.501 -8.5h-92c-8.66699 0 -16 2.66699 -22 8s-9 13 -9 23v346h-656
c-8.66699 0 -15.834 2.66699 -21.501 8s-8.5 13 -8.5 23v81c0 16 3.33301 29 10 39l664 885c9.33301 13.333 21.333 20.333 36 21h99c8.66699 0 15.834 -2.83301 21.501 -8.5s8.5 -13.167 8.5 -22.5v-893h144zM804.001 510v680l-516 -680h516z" />
    <glyph glyph-name="five" unicode="5" horiz-adv-x="1181"
d="M206 377c16.667 0 27.002 -9.66797 31.002 -29.001c18 -80 53.667 -139.5 107 -178.5s127.333 -58.5 222 -58.5c110 0 196.667 29 260 87s95 143.667 95 257s-31.167 199 -93.5 257s-145.833 87 -250.5 87c-68 0 -128.333 -9.5 -181 -28.5
s-102.334 -51.833 -149.001 -98.5c-13.333 -13.333 -27 -16.666 -41 -9.99902l-70 30c-18 8.66699 -24.667 21.667 -20 39l125 676c2 18 12.667 27 32 27h650c8.66699 0 15.834 -2.83301 21.501 -8.5s8.5 -13.167 8.5 -22.5v-76c0 -9.33301 -2.83301 -16.833 -8.5 -22.5
s-12.834 -8.5 -21.501 -8.5h-562l-77 -437c72 52 173 78 303 78c146 0 262.667 -42.667 350 -128s131 -203.333 131 -354c0 -151.333 -44.667 -269.5 -134 -354.5s-212 -127.5 -368 -127.5c-139.333 0 -249.833 31.667 -331.5 95s-128.834 155.333 -141.501 276
c-2 22 7.66699 33 29 33h84z" />
    <glyph glyph-name="six" unicode="6" horiz-adv-x="1249"
d="M635 866c146 0 262.667 -38.4971 350 -115.497s131 -183.833 131 -320.5c0 -144.667 -44 -257 -132 -337s-207.667 -120 -359 -120c-152 0 -272 41.167 -360 123.5s-132 200.5 -132 354.5v497c0 176.667 42.167 304.5 126.5 383.5s208.833 118.5 373.5 118.5
c133.333 0 241.666 -31.333 324.999 -94s125 -149.334 125 -260.001c0 -20 -10 -31 -30 -33l-78 -8c-20 -2 -31 8 -33 30c-7.33301 72.667 -38.166 129.167 -92.499 169.5s-127.166 60.5 -218.499 60.5c-40 0 -75.667 -2.66699 -107 -8s-62.833 -15.833 -94.5 -31.5
s-58 -36.334 -79 -62.001s-37.833 -60.667 -50.5 -105s-19 -96.5 -19 -156.5v-239c25.333 47.333 73.166 84.666 143.499 111.999s140.5 41 210.5 41zM624.5 111.003c105.667 0 189.499 26.498 251.499 79.498s93 132.833 93 239.5c0 98.667 -31.167 173.834 -93.5 225.501
s-146 77.5 -251 77.5s-188.5 -25.667 -250.5 -77s-93 -126.666 -93 -225.999c0 -106.667 30.833 -186.5 92.5 -239.5s145.334 -79.5 251.001 -79.5z" />
    <glyph glyph-name="seven" unicode="7" horiz-adv-x="1208"
d="M1060 1434c8.66699 0 16 -2.83301 22 -8.5s9 -13.167 9 -22.5v-86c0 -12.667 -3 -25.667 -9 -39l-598 -1247c-8.66699 -20.667 -21.667 -31 -39 -31h-101c-9.33301 -0 -16.5 2.83301 -21.5 8.5s-5.16699 13.167 -0.5 22.5l610 1265h-773c-8.66699 0 -16 2.83301 -22 8.5
s-9 13.167 -9 22.5v76c0 9.33301 2.83301 16.833 8.5 22.5s13.167 8.5 22.5 8.5h901z" />
    <glyph glyph-name="eight" unicode="8" horiz-adv-x="1280"
d="M906 784c157.333 -72.667 236 -197.333 236 -374c0 -137.333 -44.333 -244.5 -133 -321.5s-211.667 -115.5 -369 -115.5s-280.333 38.5 -369 115.5s-133 184.167 -133 321.5c0 177.333 78.667 302 236 374c-116 64.667 -174 170 -174 316
c0 104.667 38.333 189.167 115 253.5s185 96.5 325 96.5s248.333 -32.333 325 -97s115 -149 115 -253c0 -146 -58 -251.333 -174 -316zM341 1079c0 -76.667 26 -135 78 -175s125.667 -60 221 -60s169 20.167 221 60.5s78 98.5 78 174.5c0 78 -25.5 137.167 -76.5 177.5
s-125.167 60.5 -222.5 60.5s-171.5 -20.167 -222.5 -60.5s-76.5 -99.5 -76.5 -177.5zM640 111.001c111.333 0 198.168 25 260.501 75s93.5 124.667 93.5 224c0 98 -31.5 172.333 -94.5 223s-149.5 76 -259.5 76s-196.5 -25.333 -259.5 -76s-94.5 -125 -94.5 -223
c0 -98.667 31.167 -173.167 93.5 -223.5s149.166 -75.5 260.499 -75.5z" />
    <glyph glyph-name="nine" unicode="9" horiz-adv-x="1259"
d="M625 557c-146 0 -262.833 38.499 -350.5 115.499s-131.5 183.833 -131.5 320.5c0 144.667 44.167 257 132.5 337s208.166 120 359.499 120c152 0 271.833 -41.167 359.5 -123.5s131.5 -200.166 131.5 -353.499v-498c0 -176.667 -42.167 -304.5 -126.5 -383.5
s-208.5 -118.5 -372.5 -118.5c-133.333 0 -241.833 31.5 -325.5 94.5s-125.5 149.833 -125.5 260.5c0 20 10.333 30.667 31 32l78 9c20 2 30.667 -8.33301 32 -31c7.33301 -72.667 38.333 -129 93 -169s127.667 -60 219 -60c40 0 75.5 2.5 106.5 7.5s62.5 15.333 94.5 31
s58.333 36.5 79 62.5s37.5 61 50.5 105s19.5 96 19.5 156v240c-25.333 -47.333 -73.166 -84.833 -143.499 -112.5s-140.5 -41.5 -210.5 -41.5zM635 1313c-106 0 -189.833 -26.667 -251.5 -80s-92.5 -133.333 -92.5 -240c0 -98.667 31 -173.834 93 -225.501
s145.667 -77.5 251 -77.5s189 25.833 251 77.5s93 126.834 93 225.501c0 106.667 -30.833 186.667 -92.5 240s-145.5 80 -251.5 80z" />
    <glyph glyph-name="colon" unicode=":" horiz-adv-x="612"
d="M306 768c-36 0 -66.167 12.333 -90.5 37s-36.5 54.667 -36.5 90c0 36 12.333 66.5 37 91.5s54.667 37.5 90 37.5s65.333 -12.5 90 -37.5s37 -55.5 37 -91.5c0 -35.333 -12.167 -65.333 -36.5 -90s-54.5 -37 -90.5 -37zM306 -27c-36 0 -66.167 12.334 -90.5 37.001
s-36.5 54.667 -36.5 90c0 36 12.333 66.5 37 91.5s54.667 37.5 90 37.5s65.333 -12.333 90 -37s37 -55.334 37 -92.001c0 -35.333 -12.167 -65.333 -36.5 -90s-54.5 -37 -90.5 -37z" />
    <glyph glyph-name="semicolon" unicode=";" horiz-adv-x="727"
d="M359.5 768c-36.333 0 -66.668 12.333 -91.001 37s-36.5 54.667 -36.5 90c0 36 12.333 66.5 37 91.5s54.834 37.5 90.501 37.5s65.667 -12.5 90 -37.5s36.5 -55.5 36.5 -91.5c0 -35.333 -12 -65.333 -36 -90s-54.167 -37 -90.5 -37zM588.998 136
c8.66699 0 16 -2.83398 22 -8.50098s9 -13.167 9 -22.5v-35c0 -80.667 -6.83301 -163.834 -20.5 -249.501s-30.834 -155.5 -51.501 -209.5c-6 -16.667 -18.333 -25 -37 -25h-47c-22 0 -31 11.667 -27 35c9.33301 50.667 16.833 113.334 22.5 188.001
s7.83398 138.334 6.50098 191.001h-256c-8.66699 0 -16 2.66699 -22 8s-9 13 -9 23v74c0 8.66699 3 16 9 22s13.333 9 22 9h379z" />
    <glyph glyph-name="less" unicode="&#x3c;" horiz-adv-x="1074"
d="M900 840c10.667 -18 6.66602 -31.667 -12.001 -41l-570 -289l570 -289c19.333 -9.33301 23.333 -23 12 -41l-41 -69c-10 -18 -23.667 -22.333 -41 -13l-627 324c-15.333 8.66699 -22.666 21 -21.999 37v102c0 16 7.33301 28.333 22 37l627 324
c17.333 9.33301 31 5 41 -13z" />
    <glyph glyph-name="equal" unicode="=" horiz-adv-x="1136"
d="M937 801c8.66699 0 16 -2.83301 22 -8.5s9 -13.167 9 -22.5v-70c0 -9.33301 -3 -16.666 -9 -21.999s-13.333 -8 -22 -8h-737c-8.66699 0 -16 2.66699 -22 8s-9 12.666 -9 21.999v70c0 9.33301 2.83301 16.833 8.5 22.5s13.167 8.5 22.5 8.5h737zM937 496
c8.66699 0 16 -2.83301 22 -8.5s9 -13.167 9 -22.5v-70c0 -9.33301 -3 -16.666 -9 -21.999s-13.333 -8 -22 -8h-737c-8.66699 0 -16 2.66699 -22 8s-9 12.666 -9 21.999v70c0 9.33301 2.83301 16.833 8.5 22.5s13.167 8.5 22.5 8.5h737z" />
    <glyph glyph-name="greater" unicode="&#x3e;" horiz-adv-x="1074"
d="M174 840l41.001 69c10 18 23.667 22.333 41 13l627 -324c15.333 -8.66699 22.666 -21 21.999 -37v-102c0 -16 -7.33301 -28.333 -22 -37l-627 -324c-17.333 -9.33301 -31 -5 -41 13l-41 69c-10.667 18 -6.66699 31.667 12 41l570 289l-570 289
c-18.667 9.33301 -22.667 23 -12 41z" />
    <glyph glyph-name="question" unicode="?" horiz-adv-x="1259"
d="M527 356c-20.667 0 -30.667 10.9961 -30 32.9961c-0.666992 75.333 7.16602 140.166 23.499 194.499s37.666 95.833 63.999 124.5s55.5 52.834 87.5 72.501s64.167 36.334 96.5 50.001s61.833 28.834 88.5 45.501s48.334 40 65.001 70s25 67.667 25 113
c0 76 -25 137 -75 183s-127.333 69 -232 69c-103.333 0 -183.166 -21.833 -239.499 -65.5s-84.5 -105.167 -84.5 -184.5c0 -21.333 -10 -31 -30 -29l-86 8c-20.667 2 -31 13 -31 33c0 122 40.333 215.333 121 280s194 97 340 97c150.667 0 265.167 -35.667 343.5 -107
s117.5 -166 117.5 -284c0 -47.333 -5.16699 -88.833 -15.5 -124.5s-24 -64.667 -41 -87s-36.833 -41.666 -59.5 -57.999s-46.334 -30.666 -71.001 -42.999l-73.5 -37c-24.333 -12.333 -47.666 -27 -69.999 -44s-42 -37 -59 -60s-30.5 -52.833 -40.5 -89.5
s-15 -79.667 -15 -129c0 -20.667 -10.333 -31 -31 -31h-88zM564 -27.0039c-36 0 -66.167 12.334 -90.5 37.001s-36.5 54.667 -36.5 90c0 36 12.333 66.5 37 91.5s54.667 37.5 90 37.5s65.333 -12.333 90 -37s37 -55.334 37 -92.001c0 -35.333 -12.167 -65.333 -36.5 -90
s-54.5 -37 -90.5 -37z" />
    <glyph glyph-name="at" unicode="@" horiz-adv-x="1351"
d="M683 1083c102.667 0 194.33 -21.167 274.997 -63.5s145.167 -105.833 193.5 -190.5s72.5 -184.334 72.5 -299.001c0 -48 -4.66699 -90.833 -14 -128.5s-21.333 -68.667 -36 -93s-32.167 -44.5 -52.5 -60.5s-41.166 -27.167 -62.499 -33.5s-43.666 -9.5 -66.999 -9.5
c-70 0 -116 26 -138 78c-50 -52 -113 -78 -189 -78c-84.667 0 -153 27.833 -205 83.5s-78 128.167 -78 217.5c0 91.333 26 164.666 78 219.999s120.333 83 205 83c81.333 0 146.666 -28.667 195.999 -86l33 59h70l-35 -379c-5.33301 -62.667 17 -94 67 -94
c36 0 62.5 17 79.5 51s25.5 90.667 25.5 170c0 76.667 -11 143.5 -33 200.5s-52.5 102 -91.5 135s-83 57.5 -132 73.5s-102.833 24 -161.5 24c-54.667 0 -106.667 -8.83301 -156 -26.5s-94.666 -43.667 -135.999 -78s-74.333 -81.166 -99 -140.499s-37 -127.333 -37 -204
c0 -75.333 12.333 -142 37 -200s57.667 -104.167 99 -138.5s86.666 -60.166 135.999 -77.499s101.333 -26 156 -26c82.667 0 152.334 15 209.001 45c16.667 9.33301 31 8 43 -4l37 -37c16 -16 15.333 -30.333 -2 -43c-78 -53.333 -173.667 -80 -287 -80
c-102.667 0 -195.334 21.333 -278.001 64s-149.5 107 -200.5 193s-76.5 187.333 -76.5 304c0 89.333 14.667 170.333 44 243s69.333 132.667 120 180s109.334 83.5 176.001 108.5s138.334 37.5 215.001 37.5zM664.996 313c50 0 89.333 17.667 118 53s43 82 43 140
c0 60 -14.5 108.167 -43.5 144.5s-68.167 54.5 -117.5 54.5c-53.333 0 -94 -18 -122 -54s-42 -84.333 -42 -145c0 -58.667 14 -105.5 42 -140.5s68.667 -52.5 122 -52.5z" />
    <glyph glyph-name="A" unicode="A" horiz-adv-x="1384"
d="M1305 35c4 -10 3.66602 -18.333 -1.00098 -25s-12.667 -10 -24 -10h-98c-17.333 -0 -29 8.33301 -35 25l-110 292h-690l-109 -292c-6 -16.667 -17.667 -25 -35 -25h-99c-11.333 0 -19.166 3.16699 -23.499 9.5s-4.5 14.833 -0.5 25.5l524 1374c6 16.667 18.333 25 37 25
h102c18.667 0 31 -8.33301 37 -25zM399.999 461h584l-292 778z" />
    <glyph glyph-name="B" unicode="B" horiz-adv-x="1254"
d="M861 776c65.333 -16 120.5 -42.6689 165.5 -80.002s77.167 -79.666 96.5 -126.999s29 -99.333 29 -156c0 -142 -41.333 -246.333 -124 -313s-210 -100 -382 -100h-467c-8.66699 0 -16 2.66699 -22 8s-9 13 -9 23v1372c0 9.33301 3 16.833 9 22.5s13.333 8.5 22 8.5h479
c62.667 0 118.834 -6.66699 168.501 -20s90 -30.833 121 -52.5s56.833 -47.667 77.5 -78s35 -61.166 43 -92.499s12 -64.333 12 -99c0 -76.667 -17.833 -142.5 -53.5 -197.5s-90.834 -94.5 -165.501 -118.5zM925 1081c0 70 -23.167 121.667 -69.5 155s-116.833 50 -211.5 50
h-336v-450h346c87.333 0 154.333 21.5 201 64.5s70 103.167 70 180.5zM640 146.998c119.333 0 207.167 20.3311 263.5 60.998s84.5 110.334 84.5 209.001c0 84.667 -27.667 152.334 -83 203.001s-140.333 76 -255 76h-342v-549h332z" />
    <glyph glyph-name="C" unicode="C" horiz-adv-x="1467"
d="M1276 274l63.002 -65.0039c14.667 -14.667 14 -29 -2 -43c-136.667 -128.667 -297.667 -193 -483 -193c-100.667 0 -195.5 19.333 -284.5 58s-165.333 91 -229 157s-114.167 144.333 -151.5 235s-56 186.5 -56 287.5s18.667 197.333 56 289s87.833 170.334 151.5 236.001
s140 117.834 229 156.501s183.833 58 284.5 58c179.333 0 340.333 -64.333 483 -193c16.667 -13.333 17.334 -27.666 2.00098 -42.999l-63 -65c-12.667 -12.667 -27 -12.667 -43 0c-112 96.667 -238.333 145 -379 145c-102 0 -195.833 -25.167 -281.5 -75.5
s-153.334 -120.333 -203.001 -210s-74.5 -188.834 -74.5 -297.501c0 -81.333 14.667 -158.166 44 -230.499s69.166 -134.166 119.499 -185.499s109.666 -91.833 177.999 -121.5s140.833 -44.5 217.5 -44.5c140.667 0 267 48.333 379 145c16 12.667 30.333 12.667 43 0z" />
    <glyph glyph-name="D" unicode="D" horiz-adv-x="1373"
d="M526 1434c121.333 0 230 -18.334 326 -55.001s174.667 -87.5 236 -152.5s108 -140.667 140 -227s48 -180.666 48 -282.999s-16 -196.666 -48 -282.999s-78.667 -161.833 -140 -226.5s-139.833 -115.334 -235.5 -152.001s-204.5 -55 -326.5 -55h-321
c-9.33301 0 -16.833 2.66699 -22.5 8s-8.5 13 -8.5 23v1372c0 9.33301 2.66699 16.833 8 22.5s13 8.5 23 8.5h321zM526 146.999c193.333 0 339.666 50 438.999 150s149 239.833 149 419.5s-49.667 319.5 -149 419.5s-245.666 150 -438.999 150h-192v-1139h192z" />
    <glyph glyph-name="E" unicode="E" horiz-adv-x="1244"
d="M1075 147c9.33301 0 16.833 -2.66895 22.5 -8.00195s8.5 -12.666 8.5 -21.999v-86c0 -9.33301 -2.66699 -16.833 -8 -22.5s-13 -8.5 -23 -8.5h-870c-9.33301 0 -16.833 2.66699 -22.5 8s-8.5 13 -8.5 23v1372c0 9.33301 2.66699 16.833 8 22.5s13 8.5 23 8.5h868
c9.33301 0 16.833 -2.83301 22.5 -8.5s8.5 -13.167 8.5 -22.5v-86c0 -9.33301 -2.83301 -16.833 -8.5 -22.5s-13.167 -8.5 -22.5 -8.5h-739v-459h684c9.33301 0 16.833 -2.66699 22.5 -8s8.5 -12.666 8.5 -21.999v-86c0 -9.33301 -2.83301 -16.833 -8.5 -22.5
s-13.167 -8.5 -22.5 -8.5h-684v-533h741z" />
    <glyph glyph-name="F" unicode="F" horiz-adv-x="1264"
d="M1106 1434c9.33301 0 16.833 -2.83398 22.5 -8.50098s8.5 -13.167 8.5 -22.5v-86c0 -9.33301 -2.83301 -16.833 -8.5 -22.5s-13.167 -8.5 -22.5 -8.5h-772v-473h725c9.33301 0 16.833 -2.66699 22.5 -8s8.5 -13 8.5 -23v-86c0 -9.33301 -2.83301 -16.666 -8.5 -21.999
s-13.167 -8 -22.5 -8h-725v-635c0 -9.33301 -2.83301 -16.833 -8.5 -22.5s-13.167 -8.5 -22.5 -8.5h-98c-9.33301 0 -16.833 2.66699 -22.5 8s-8.5 13 -8.5 23v1372c0 9.33301 2.66699 16.833 8 22.5s13 8.5 23 8.5h901z" />
    <glyph glyph-name="G" unicode="G" horiz-adv-x="1646"
d="M1483 739c9.33301 0 16.6641 -2.6709 21.9971 -8.00391s8 -12.666 8 -21.999v-66c0 -126.667 -26 -240.5 -78 -341.5s-128.167 -181 -228.5 -240s-217.166 -88.5 -350.499 -88.5c-135.333 0 -258.333 33 -369 99s-197.334 155.667 -260.001 269s-94 237.666 -94 372.999
c0 100.667 18.667 196.334 56 287.001s87.833 168.834 151.5 234.501s140 117.834 229 156.501s183.833 58 284.5 58c179.333 0 340.333 -64.333 483 -193c16.667 -13.333 17.334 -27.666 2.00098 -42.999l-63 -65c-12.667 -12.667 -27 -12.667 -43 0
c-112 96.667 -238.333 145 -379 145c-76.667 0 -149.167 -14.833 -217.5 -44.5s-127.666 -70 -177.999 -121s-90.166 -112.5 -119.499 -184.5s-44 -148.667 -44 -230c0 -109.333 24.667 -208.666 74 -297.999s116.833 -159.5 202.5 -210.5s180.5 -76.5 284.5 -76.5
c145.333 0 265 42.833 359 128.5s143 197.167 147 334.5h-483c-9.33301 0 -16.833 2.66699 -22.5 8s-8.5 13 -8.5 23v86c0 9.33301 2.66699 16.666 8 21.999s13 8 23 8h604z" />
    <glyph glyph-name="H" unicode="H" horiz-adv-x="1433"
d="M1229 1434c9.33301 0 16.833 -2.83301 22.5 -8.5s8.5 -13.167 8.5 -22.5v-1372c0 -9.33301 -2.83301 -16.833 -8.5 -22.5s-13.167 -8.5 -22.5 -8.5h-99c-9.33301 0 -16.666 2.66699 -21.999 8s-8 13 -8 23v628h-766v-628c0 -9.33301 -2.83301 -16.833 -8.5 -22.5
s-13.167 -8.5 -22.5 -8.5h-98c-9.33301 0 -16.833 2.66699 -22.5 8s-8.5 13 -8.5 23v1372c0 9.33301 2.66699 16.833 8 22.5s13 8.5 23 8.5h98c9.33301 0 16.833 -2.83301 22.5 -8.5s8.5 -13.167 8.5 -22.5v-596h766v596c0 9.33301 2.66699 16.833 8 22.5
s12.666 8.5 21.999 8.5h99z" />
    <glyph glyph-name="I" unicode="I"
d="M1132 1286h-397v-1139h397c8.66699 0 15.834 -2.66699 21.501 -8s8.5 -12.666 8.5 -21.999v-86c0 -9.33301 -2.83301 -16.833 -8.5 -22.5s-12.834 -8.5 -21.501 -8.5h-953c-8.66699 0 -16 2.66699 -22 8s-9 13 -9 23v86c0 9.33301 3 16.666 9 21.999s13.333 8 22 8h396
v1139h-396c-8.66699 0 -16 2.83301 -22 8.5s-9 13.167 -9 22.5v86c0 9.33301 3 16.833 9 22.5s13.333 8.5 22 8.5h953c8.66699 0 15.834 -2.83301 21.501 -8.5s8.5 -13.167 8.5 -22.5v-86c0 -9.33301 -2.83301 -16.833 -8.5 -22.5s-12.834 -8.5 -21.501 -8.5z" />
    <glyph glyph-name="J" unicode="J" horiz-adv-x="1269"
d="M1091 1434c8.66699 0 15.833 -2.83398 21.5 -8.50098s8.5 -13.167 8.5 -22.5v-903c0 -88.667 -12.333 -167.167 -37 -235.5s-59.834 -123.666 -105.501 -165.999s-98.5 -74.333 -158.5 -96s-126 -32.5 -198 -32.5c-147.333 0 -266.5 41.833 -357.5 125.5
s-139.833 208.167 -146.5 373.5c-0.666992 20.667 9.33301 31 30 31h97c20.667 0 30.667 -10.333 30 -31c6.66699 -114 40.834 -200.667 102.501 -260s143.167 -89 244.5 -89c103.333 0 185.833 31.833 247.5 95.5s92.5 158.5 92.5 284.5v786h-613
c-8.66699 0 -16 2.83301 -22 8.5s-9 13.167 -9 22.5v86c0 9.33301 3 16.833 9 22.5s13.333 8.5 22 8.5h742z" />
    <glyph glyph-name="K" unicode="K" horiz-adv-x="1243"
d="M1164 37c7.33301 -10 9.16602 -18.668 5.49902 -26.001s-11.5 -11 -23.5 -11h-121c-16 0 -28.333 6 -37 18l-500 667l-180 -200v-454c0 -9.33301 -2.83301 -16.833 -8.5 -22.5s-12.834 -8.5 -21.501 -8.5h-99c-8.66699 0 -16 2.66699 -22 8s-9 13 -9 23v1372
c0 9.33301 3 16.833 9 22.5s13.333 8.5 22 8.5h99c8.66699 0 15.834 -2.83301 21.501 -8.5s8.5 -13.167 8.5 -22.5v-704l643 718c8.66699 10.667 21 16.334 37 17.001h129c12.667 0 20.834 -3.83301 24.501 -11.5s1.16699 -16.167 -7.5 -25.5l-542 -598z" />
    <glyph glyph-name="L" unicode="L" horiz-adv-x="1198"
d="M1065 147c9.33301 0 16.833 -2.66797 22.5 -8.00098s8.5 -12.666 8.5 -21.999v-86c0 -9.33301 -2.83301 -16.833 -8.5 -22.5s-13.167 -8.5 -22.5 -8.5h-860c-9.33301 0 -16.833 2.66699 -22.5 8s-8.5 13 -8.5 23v1372c0 9.33301 2.66699 16.833 8 22.5s13 8.5 23 8.5h98
c9.33301 0 16.833 -2.83301 22.5 -8.5s8.5 -13.167 8.5 -22.5v-1256h731z" />
    <glyph glyph-name="M" unicode="M" horiz-adv-x="1787"
d="M1583 1434c9.33301 0 16.833 -2.83301 22.5 -8.5s8.5 -13.167 8.5 -22.5v-1372c0 -9.33301 -2.83301 -16.833 -8.5 -22.5s-13.167 -8.5 -22.5 -8.5h-98c-9.33301 0 -16.833 2.66699 -22.5 8s-8.5 13 -8.5 23v1114l-477 -1122c-5.33301 -15.333 -17 -23 -35 -23h-100
c-18 0 -29.667 7.66699 -35 23l-473 1112v-1104c0 -9.33301 -2.83301 -16.833 -8.5 -22.5s-13.167 -8.5 -22.5 -8.5h-98c-9.33301 0 -16.833 2.66699 -22.5 8s-8.5 13 -8.5 23v1372c0 9.33301 2.66699 16.833 8 22.5s13 8.5 23 8.5h131c18.667 0 31 -7 37 -21l520 -1235
l518 1235c6 13.333 18.333 20.333 37 21h135z" />
    <glyph glyph-name="N" unicode="N" horiz-adv-x="1404"
d="M1200 1434c9.33301 0 16.833 -2.83301 22.5 -8.5s8.5 -13.167 8.5 -22.5v-1372c0 -17.333 -8.33301 -27.666 -25 -30.999h-137c-17.333 0 -29.666 6.66699 -36.999 20l-698 1184v-1173c0 -9.33301 -2.83301 -16.833 -8.5 -22.5s-13.167 -8.5 -22.5 -8.5h-98
c-9.33301 0 -16.833 2.66699 -22.5 8s-8.5 13 -8.5 23v1372c0 17.333 8.33301 27.666 25 30.999h137c17.333 0 29.666 -7 36.999 -21l698 -1184v1174c0 9.33301 2.66699 16.833 8 22.5s13 8.5 23 8.5h98z" />
    <glyph glyph-name="O" unicode="O" horiz-adv-x="1730"
d="M866 -27c-100 0 -195.168 19.3359 -285.501 58.0029s-168.166 91 -233.499 157s-117.333 144.5 -156 235.5s-58 186.833 -58 287.5c0 135.333 32.833 259.5 98.5 372.5s154.667 202.333 267 268s234.833 98.5 367.5 98.5c98.667 0 193.167 -19.333 283.5 -58
s168.333 -90.834 234 -156.501s117.667 -144.334 156 -236.001s57.5 -187.834 57.5 -288.501s-19.167 -196.5 -57.5 -287.5s-90.333 -169.5 -156 -235.5s-143.667 -118.333 -234 -157s-184.833 -58 -283.5 -58zM866.499 123.003c79 0 154 15.333 225 46
s132.167 72.167 183.5 124.5s92 114.833 122 187.5s45 149.334 45 230.001c0 108 -25.5 207.167 -76.5 297.5s-120.5 161.5 -208.5 213.5s-185 78 -291 78c-106.667 0 -204.167 -26 -292.5 -78s-157.833 -123.167 -208.5 -213.5s-76 -189.5 -76 -297.5
c0 -80.667 15 -157.334 45 -230.001s70.5 -135.167 121.5 -187.5s112.5 -93.833 184.5 -124.5s147.5 -46 226.5 -46z" />
    <glyph glyph-name="P" unicode="P"
d="M714 1434c175.333 0 302.333 -37.333 381 -112s118 -185 118 -331s-39.333 -256.167 -118 -330.5s-205.667 -111.5 -381 -111.5h-380v-518c0 -9.33301 -2.83301 -16.833 -8.5 -22.5s-13.167 -8.5 -22.5 -8.5h-98c-9.33301 0 -16.833 2.66699 -22.5 8s-8.5 13 -8.5 23
v1372c0 9.33301 2.66699 16.833 8 22.5s13 8.5 23 8.5h509zM724 696c52.667 0 98.167 4.33398 136.5 13.001s73 23.5 104 44.5s54.333 51.333 70 91s23.5 88.5 23.5 146.5s-7.83301 106.833 -23.5 146.5s-39 70.167 -70 91.5s-65.667 36.166 -104 44.499
s-83.833 12.5 -136.5 12.5h-390v-590h390z" />
    <glyph glyph-name="Q" unicode="Q" horiz-adv-x="1730"
d="M866 -27c-100 0 -195.168 19.3359 -285.501 58.0029s-168.166 91 -233.499 157s-117.333 144.5 -156 235.5s-58 186.833 -58 287.5c0 135.333 32.833 259.5 98.5 372.5s154.667 202.333 267 268s234.833 98.5 367.5 98.5c98.667 0 193.167 -19.333 283.5 -58
s168.333 -90.834 234 -156.501s117.667 -144.334 156 -236.001s57.5 -187.834 57.5 -288.501s-19.167 -196.5 -57.5 -287.5s-90.333 -169.5 -156 -235.5s-143.667 -118.333 -234 -157s-184.833 -58 -283.5 -58zM866.499 123.003c79 0 154 15.333 225 46
s132.167 72.167 183.5 124.5s92 114.833 122 187.5s45 149.334 45 230.001c0 108 -25.5 207.167 -76.5 297.5s-120.5 161.5 -208.5 213.5s-185 78 -291 78c-106.667 0 -204.167 -26 -292.5 -78s-157.833 -123.167 -208.5 -213.5s-76 -189.5 -76 -297.5
c0 -80.667 15 -157.334 45 -230.001s70.5 -135.167 121.5 -187.5s112.5 -93.833 184.5 -124.5s147.5 -46 226.5 -46zM1124 -189.997c22 0 32.999 -9.66699 32.999 -29v-88c0 -22 -10.333 -33 -31 -33c-43.333 0 -86 5.5 -128 16.5s-77.667 23.333 -107 37
s-65.166 26 -107.499 37s-85.166 16.5 -128.499 16.5c-22 0 -32.667 9.33301 -32 28v88c0 22 10.667 33 32 33c43.333 1.33301 86.166 -3.66699 128.499 -15s77.833 -24 106.5 -38s64 -26.5 106 -37.5s84.667 -16.167 128 -15.5z" />
    <glyph glyph-name="R" unicode="R" horiz-adv-x="1315"
d="M901 567l281.001 -530.999c5.33301 -10.667 5.83301 -19.334 1.5 -26.001s-12.5 -10 -24.5 -10h-105c-16 0 -28 7.66699 -36 23l-275 526h-29h-380v-518c0 -9.33301 -2.83301 -16.833 -8.5 -22.5s-13.167 -8.5 -22.5 -8.5h-98c-9.33301 0 -16.833 2.66699 -22.5 8
s-8.5 13 -8.5 23v1372c0 9.33301 2.66699 16.833 8 22.5s13 8.5 23 8.5h509c175.333 0 302.333 -37.333 381 -112s118 -185 118 -331c0 -116.667 -24.833 -210.5 -74.5 -281.5s-128.834 -118.5 -237.501 -142.5zM334.001 1286v-589.999h390
c52.667 0 98.167 4.33301 136.5 13s73 23.5 104 44.5s54.333 51.333 70 91s23.5 88.5 23.5 146.5s-7.83301 106.833 -23.5 146.5s-39 70.167 -70 91.5s-65.667 36.166 -104 44.499s-83.833 12.5 -136.5 12.5h-390z" />
    <glyph glyph-name="S" unicode="S" horiz-adv-x="1264"
d="M623 807c45.333 -9.33301 84.832 -18.3359 118.499 -27.0029s69.834 -19.834 108.501 -33.501s71.834 -28 99.501 -43s55 -33.667 82 -56s48.667 -46.5 65 -72.5s29.666 -56.667 39.999 -92s15.5 -74 15.5 -116c0 -121.333 -43.5 -218 -130.5 -290
s-217.833 -108 -392.5 -108c-154 0 -276 28.667 -366 86s-140 141.333 -150 252c-1.33301 10 0.833984 18.833 6.50098 26.5s12.834 11.5 21.501 11.5h98c18 0 28 -10.667 30 -32c7.33301 -61.333 42.833 -109.666 106.5 -144.999s148.167 -53 253.5 -53
c119.333 0 210 21 272 63s93 105 93 189c0 38.667 -6.5 72.667 -19.5 102s-28 52.833 -45 70.5s-44.333 34.5 -82 50.5s-70.334 27.833 -98.001 35.5s-69.834 18.167 -126.501 31.5c-58.667 14.667 -109 28.834 -151 42.501s-84.667 31.834 -128 54.501s-78.333 48 -105 76
s-48.667 63.167 -66 105.5s-26 90.166 -26 143.499c0 115.333 39.833 206.166 119.5 272.499s195.5 99.5 347.5 99.5c147.333 0 263.833 -28.167 349.5 -84.5s133.834 -139.166 144.501 -248.499c2 -20 -7.66699 -29.667 -29 -29h-90c-18.667 0 -29 7.66699 -31 23
c-7.33301 58.667 -41.333 106 -102 142s-141.334 54 -242.001 54c-96.667 0 -173 -19.5 -229 -58.5s-84 -95.833 -84 -170.5c0 -75.333 26.5 -133.666 79.5 -174.999s133.833 -73.666 242.5 -96.999z" />
    <glyph glyph-name="T" unicode="T" horiz-adv-x="1300"
d="M1172 1434c8.66699 0 16 -2.83301 22 -8.5s9 -13.167 9 -22.5v-86c0 -9.33301 -2.83301 -16.833 -8.5 -22.5s-13.167 -8.5 -22.5 -8.5h-442v-1255c0 -9.33301 -2.83301 -16.833 -8.5 -22.5s-13.167 -8.5 -22.5 -8.5h-98c-8.66699 0 -16 2.66699 -22 8s-9 13 -9 23v1255
h-442c-8.66699 0 -16 2.83301 -22 8.5s-9 13.167 -9 22.5v86c0 9.33301 3 16.833 9 22.5s13.333 8.5 22 8.5h1044z" />
    <glyph glyph-name="U" unicode="U" horiz-adv-x="1423"
d="M1254 1434c8.66699 0 16 -2.83301 22 -8.5s9 -13.167 9 -22.5v-823c0 -200 -49.833 -351.667 -149.5 -455s-241 -155 -424 -155s-324.333 51.667 -424 155s-149.5 255 -149.5 455v823c0 9.33301 3 16.833 9 22.5s13.333 8.5 22 8.5h98c8.66699 0 16 -2.83301 22 -8.5
s9 -13.167 9 -22.5v-823c0 -152.667 36.667 -267.5 110 -344.5s174.5 -115.5 303.5 -115.5s230.167 38.333 303.5 115s110 191.667 110 345v823c0 9.33301 3 16.833 9 22.5s13.333 8.5 22 8.5h98z" />
    <glyph glyph-name="V" unicode="V" horiz-adv-x="1384"
d="M1147 1409c6 16.667 17.668 25 35.001 25h98c11.333 0 19.333 -3.33301 24 -10s5 -15 1 -25l-525 -1374c-6 -16.667 -18.333 -25 -37 -25h-102c-18.667 -0 -31 8.33301 -37 25l-524 1374c-4 10 -3.83301 18.333 0.5 25s12.166 10 23.499 10h99
c17.333 0 29 -8.33301 35 -25l454 -1214z" />
    <glyph glyph-name="W" unicode="W" horiz-adv-x="2011"
d="M1887 1434c22.667 0 31 -11.666 25 -34.999l-366 -1374c-4 -16.667 -16.333 -25 -37 -25h-128c-20 0 -32 8.33301 -36 25l-341 1132l-341 -1132c-4.66699 -16.667 -17 -25 -37 -25h-128c-20.667 0 -33 8.33301 -37 25l-362 1374c-6.66699 23.333 1.66602 35 24.999 35h98
c20 0 31.667 -8.33301 35 -25l305 -1214l361 1214c2.66699 9.33301 8 16.666 16 21.999c4 2 9.33301 3 16 3h97c6.66699 0 12 -1 16 -3c8 -4.66699 13.333 -12 16 -22l361 -1214l309 1214c4.66699 16.667 16.334 25 35.001 25h98z" />
    <glyph glyph-name="X" unicode="X" horiz-adv-x="1280"
d="M1177 37c6 -10 7.16797 -18.667 3.50098 -26s-11.834 -11 -24.501 -11h-104c-17.333 0 -29.666 6.66699 -36.999 20l-375 579l-375 -579c-7.33301 -13.333 -19.666 -20 -36.999 -20h-104c-12 0 -20 3.66699 -24 11s-3 16 3 26l451 695l-430 665
c-6 10 -7.16699 18.667 -3.5 26s11.5 11 23.5 11h105c17.333 0 29.666 -7 36.999 -21l354 -548l354 548c7.33301 13.333 19.666 20.333 36.999 21h105c12 0 19.833 -3.66699 23.5 -11s2.5 -16 -3.5 -26l-430 -665z" />
    <glyph glyph-name="Y" unicode="Y" horiz-adv-x="1392"
d="M1299 1434c12 0 20.168 -3.66699 24.501 -11s3.16602 -16 -3.50098 -26l-544 -842v-524c0 -9.33301 -2.66699 -16.833 -8 -22.5s-13 -8.5 -23 -8.5h-98c-9.33301 0 -16.833 2.66699 -22.5 8s-8.5 13 -8.5 23v524l-543 842c-6.66699 10 -8 18.667 -4 26s12 11 24 11h116
c16 0 28.333 -7 37 -21l450 -698l451 698c8.66699 13.333 21 20.333 37 21h115z" />
    <glyph glyph-name="Z" unicode="Z" horiz-adv-x="1290"
d="M1106 147c9.33301 0 16.832 -2.66797 22.499 -8.00098s8.5 -12.666 8.5 -21.999v-86c0 -9.33301 -2.83301 -16.833 -8.5 -22.5s-13.167 -8.5 -22.5 -8.5h-922c-9.33301 0 -16.666 2.66699 -21.999 8s-8 13 -8 23v96c0 12 4 24.333 12 37l770 1122h-731
c-9.33301 0 -16.833 2.83301 -22.5 8.5s-8.5 13.167 -8.5 22.5v86c0 9.33301 2.66699 16.833 8 22.5s13 8.5 23 8.5h880c9.33301 0 16.833 -2.83301 22.5 -8.5s8.5 -13.167 8.5 -22.5v-96c0 -12 -4 -24.333 -12 -37l-770 -1123h772z" />
    <glyph glyph-name="bracketleft" unicode="[" horiz-adv-x="1054"
d="M804 1526c8.66699 0 16 -2.83398 22 -8.50098s9 -13.167 9 -22.5v-70c0 -9.33301 -3 -16.666 -9 -21.999s-13.333 -8 -22 -8h-424v-1530h424c8.66699 0 16 -2.83301 22 -8.5s9 -13.167 9 -22.5v-70c0 -9.33301 -3 -16.666 -9 -21.999s-13.333 -8 -22 -8h-553
c-8.66699 0 -16 2.66699 -22 8s-9 12.666 -9 21.999v1731c0 9.33301 3 16.833 9 22.5s13.333 8.5 22 8.5h553z" />
    <glyph glyph-name="backslash" unicode="\"
d="M221 1434h96c16 0 27.667 -7.66699 35 -23l760 -1642c4.66699 -10.667 4.66699 -19.167 0 -25.5s-13 -9.5 -25 -9.5h-92c-16.667 0 -29 8 -37 24l-759 1639c-4.66699 10 -5 18.667 -1 26s11.667 11 23 11z" />
    <glyph glyph-name="bracketright" unicode="]" horiz-adv-x="1054"
d="M251 1526l553 0.000976562c8.66699 0 16 -2.83301 22 -8.5s9 -13.167 9 -22.5v-1731c0 -9.33301 -3 -16.666 -9 -21.999s-13.333 -8 -22 -8h-553c-8.66699 0 -16 2.66699 -22 8s-9 12.666 -9 21.999v70c0 9.33301 3 16.833 9 22.5s13.333 8.5 22 8.5h424v1530h-424
c-8.66699 0 -16 2.66699 -22 8s-9 12.666 -9 21.999v70c0 9.33301 3 16.833 9 22.5s13.333 8.5 22 8.5z" />
    <glyph glyph-name="asciicircum" unicode="^" horiz-adv-x="1171"
d="M915 677c-18 -10.667 -31.667 -6.66699 -41 12l-288 569l-289 -569c-9.33301 -19.333 -23 -23.333 -41 -12l-70 41c-18 10 -22 23.667 -12 41l324 626c8.66699 15.333 21 23 37 23h102c16 0 28.333 -7.66699 37 -23l323 -626c9.33301 -17.333 5.33301 -31 -12 -41z" />
    <glyph glyph-name="underscore" unicode="_"
d="M1137 0c9.33301 0 16.666 -2.66699 21.999 -8s8 -13 8 -23v-71c0 -9.33301 -2.66699 -16.833 -8 -22.5s-12.666 -8.5 -21.999 -8.5h-963c-9.33301 0 -16.833 2.66699 -22.5 8s-8.5 13 -8.5 23v71c0 9.33301 2.83301 16.833 8.5 22.5s13.167 8.5 22.5 8.5h963z" />
    <glyph glyph-name="grave" unicode="`"
d="M555 1495h68c16 0 27.333 -8.33301 34 -25l123 -258c4.66699 -10.667 4.66699 -19 0 -25s-12.667 -9 -24 -9h-68c-16 0 -27.667 8 -35 24l-123 258c-4.66699 10.667 -4.5 19.167 0.5 25.5s13.167 9.5 24.5 9.5z" />
    <glyph glyph-name="a" unicode="a" horiz-adv-x="1258"
d="M1121 127c12 -1.33301 20.834 -4.6709 26.501 -10.0039s8.5 -14.666 8.5 -27.999v-60c0 -11.333 -3.5 -20.166 -10.5 -26.499s-19.833 -9.83301 -38.5 -10.5c-130 -6.66699 -195 47.333 -195 162c-61.333 -61.333 -133.166 -106.5 -215.499 -135.5
s-162.5 -43.5 -240.5 -43.5c-112.667 0 -196.334 25.667 -251.001 77s-82 120.333 -82 207c0 167.333 106.333 267 319 299l321 48c45.333 6.66699 77.166 13.334 95.499 20.001s29.5 15.334 33.5 26.001v1c0 84.667 -22.167 145.5 -66.5 182.5s-111.5 55.5 -201.5 55.5
c-180 0 -277.333 -56.667 -292 -170c-2 -16.667 -12.333 -25 -31 -25h-90c-21.333 0 -31 10.333 -29 31c20.667 199.333 168 299 442 299c278 0 416.667 -120.667 416 -362v-455c0 -48.667 27 -76 81 -82zM279.001 270.995c0 -106 66.999 -158.667 200.999 -158
c166 0 303.333 53.667 412 161v254c-3.33301 -10 -12.166 -17.5 -26.499 -22.5s-38.833 -10.5 -73.5 -16.5l-305 -46c-78.667 -12 -133 -31.833 -163 -59.5s-45 -65.167 -45 -112.5z" />
    <glyph glyph-name="b" unicode="b" horiz-adv-x="1274"
d="M678 1024c146 0 260.667 -48.832 344 -146.499s125 -223.5 125 -377.5c0 -152.667 -42.667 -278.334 -128 -377.001s-199 -148 -341 -148c-154.667 0 -274.667 59.667 -360 179l-9 -123c-2 -20.667 -12 -31 -30 -31h-84c-9.33301 0 -16.833 2.66699 -22.5 8
s-8.5 13 -8.5 23v1372c0 9.33301 2.66699 16.833 8 22.5s13 8.5 23 8.5h92c9.33301 0 16.666 -2.83301 21.999 -8.5s8 -13.167 8 -22.5v-576h19c30 58.667 73.833 106.167 131.5 142.5s127.834 54.5 210.501 54.5zM653 119.001c109.333 0 193.833 35 253.5 105
s89.5 162.667 89.5 278s-29.833 207.333 -89.5 276s-144.167 103 -253.5 103c-101.333 0 -183.5 -35 -246.5 -105s-94.5 -161.333 -94.5 -274s31.5 -204.667 94.5 -276s145.167 -107 246.5 -107z" />
    <glyph glyph-name="c" unicode="c" horiz-adv-x="1199"
d="M650 117c129.333 0 231.002 49.6689 305.002 149.002c10.667 15.333 24.334 17.666 41.001 6.99902l69 -41c18 -10.667 21 -24.667 9 -42c-46.667 -68 -106.834 -121.167 -180.501 -159.5s-155.5 -57.5 -245.5 -57.5c-98.667 0 -187.834 23.167 -267.501 69.5
s-141.667 109.5 -186 189.5s-66.5 169.167 -66.5 267.5s22.167 187.666 66.5 267.999s106.333 143.5 186 189.5s168.834 69 267.501 69c90 0 172 -19.167 246 -57.5s134 -91.5 180 -159.5c11.333 -17.333 8.33301 -31.333 -9 -42l-69 -41
c-16.667 -10 -30.334 -7.66699 -41.001 7c-74.667 100 -176.334 150 -305.001 150c-108 0 -196.667 -35.5 -266 -106.5s-104 -163.167 -104 -276.5s34.667 -205.5 104 -276.5s158 -106.5 266 -106.5z" />
    <glyph glyph-name="d" unicode="d" horiz-adv-x="1295"
d="M1101 1434c8.66699 0 16 -2.83301 22 -8.5s9 -13.167 9 -22.5v-1372c0 -9.33301 -3 -16.833 -9 -22.5s-13.333 -8.5 -22 -8.5h-84c-18.667 -0 -29 10.333 -31 31l-9 119c-86.667 -117.333 -208.667 -176.333 -366 -177c-142.667 0 -258.834 49.667 -348.501 149
s-134.5 225.333 -134.5 378c0 153.333 43.833 279.333 131.5 378s204.834 148 351.501 148c86.667 0 159.667 -18.5 219 -55.5s103.333 -84.833 132 -143.5h16v576c0 9.33301 2.83301 16.833 8.5 22.5s13.167 8.5 22.5 8.5h92zM636 117c106 0 191 35.834 255 107.501
s96 164.167 96 277.5s-32 205.166 -96 275.499s-149 105.5 -255 105.5c-110 0 -197 -35 -261 -105s-96 -162 -96 -276c0 -114.667 32 -207.5 96 -278.5s151 -106.5 261 -106.5z" />
    <glyph glyph-name="e" unicode="e" horiz-adv-x="1230"
d="M628 1026c95.333 0 179.668 -23.166 253.001 -69.499s128.666 -106.333 165.999 -180s56 -154.167 56 -241.5c0 -37.333 -4 -63.833 -12 -79.5s-24 -23.5 -48 -23.5h-764c12 -96 52.333 -174.333 121 -235s155.334 -91 260.001 -91s197 35 277 105
c17.333 14.667 31.666 16 42.999 4l41 -41c16.667 -16.667 17.334 -32.334 2.00098 -47.001c-102.667 -102.667 -229 -154 -379 -154c-152.667 0 -276.834 50.167 -372.501 150.5s-143.5 225.833 -143.5 376.5c0 149.333 47 274.333 141 375s213.667 151 359 151z
M628.002 891.001c-94 0 -173.001 -31.333 -237.001 -94s-101.333 -142.667 -112 -240h689c-4.66699 95.333 -38.667 174.833 -102 238.5s-142.666 95.5 -237.999 95.5z" />
    <glyph glyph-name="f" unicode="f" horiz-adv-x="1249"
d="M1111 1004c8.66699 0 16.001 -2.83301 22.001 -8.5s9 -13.167 9 -22.5v-70c0 -9.33301 -3 -16.833 -9 -22.5s-13.333 -8.5 -22 -8.5h-547v-841c0 -9.33301 -2.83301 -16.833 -8.5 -22.5s-12.834 -8.5 -21.501 -8.5h-93c-8.66699 0 -15.834 2.66699 -21.501 8
s-8.5 13 -8.5 23v841h-273c-8.66699 0 -15.834 2.83301 -21.501 8.5s-8.5 13.167 -8.5 22.5v70c0 9.33301 2.83301 16.833 8.5 22.5s12.834 8.5 21.501 8.5h273v108c0 62 7.83301 116.667 23.5 164s36.667 85.5 63 114.5s58.833 52.5 97.5 70.5s78.334 30.167 119.001 36.5
s86.334 9.5 137.001 9.5c67.333 0 131 -6.16699 191 -18.5s90 -27.833 90 -46.5v-70c0 -10 -3.5 -17.833 -10.5 -23.5s-15.833 -7.5 -26.5 -5.5c-0.666992 0 -11.667 3.16699 -33 9.5s-47 11.5 -77 15.5s-64.333 6 -103 6c-36.667 0 -69.5 -1.83301 -98.5 -5.5
s-57.667 -11.167 -86 -22.5s-51.833 -26.5 -70.5 -45.5s-33.834 -44.5 -45.501 -76.5s-17.5 -70 -17.5 -114v-106h547z" />
    <glyph glyph-name="g" unicode="g" horiz-adv-x="1291"
d="M1097 1004c8.66699 0 15.835 -2.8291 21.502 -8.49609s8.5 -13.167 8.5 -22.5v-953c0 -75.333 -14.333 -141 -43 -197s-67.667 -100.167 -117 -132.5s-103 -56.5 -161 -72.5s-120 -24 -186 -24c-151.333 0 -279 33 -383 99c-16.667 10 -20.334 24.333 -11.001 43l29 55
c8.66699 18 22.334 22 41.001 12c97.333 -48 201.666 -71.667 312.999 -71c48.667 0 94.334 5 137.001 15s81.667 26 117 48s63.333 51.833 84 89.5s31 81.5 31 131.5v164c-40 -57.333 -90.5 -102.333 -151.5 -135s-129.833 -49 -206.5 -49
c-93.333 0 -177.833 23.167 -253.5 69.5s-134.334 108.666 -176.001 186.999s-62.5 164.166 -62.5 257.499s20.833 179.166 62.5 257.499s100.167 140.666 175.5 186.999s160 69.5 254 69.5c149.333 0 267.666 -59.667 354.999 -179l7 128c2 20.667 12.333 31 31 31h84z
M632.001 139.004c100 0 183.499 36.832 250.499 110.499s100.5 161.167 100.5 262.5c0 100.667 -33.667 187.334 -101 260.001s-150.666 109 -249.999 109c-101.333 0 -185.5 -35.5 -252.5 -106.5s-100.5 -158.5 -100.5 -262.5c0 -105.333 33.5 -193.833 100.5 -265.5
s151.167 -107.5 252.5 -107.5z" />
    <glyph glyph-name="h" unicode="h" horiz-adv-x="1230"
d="M699 1026c116 0 206.332 -33.6699 270.999 -101.003s97 -166.666 97 -297.999v-596c0 -9.33301 -2.66699 -16.833 -8 -22.5s-13 -8.5 -23 -8.5h-92c-9.33301 0 -16.833 2.66699 -22.5 8s-8.5 13 -8.5 23v585c0 179.333 -86.333 269.333 -259 270
c-49.333 0 -95.166 -8.66699 -137.499 -26s-76.833 -39 -103.5 -65s-48 -50.667 -64 -74s-26.667 -43.666 -32 -60.999v-629c0 -9.33301 -2.66699 -16.833 -8 -22.5s-12.666 -8.5 -21.999 -8.5h-92c-9.33301 0 -16.833 2.66699 -22.5 8s-8.5 13 -8.5 23v1372
c0 9.33301 2.66699 16.833 8 22.5s13 8.5 23 8.5h92c9.33301 0 16.666 -2.83301 21.999 -8.5s8 -13.167 8 -22.5v-572h19c32 54.667 79.5 100.834 142.5 138.501s136.5 56.5 220.5 56.5z" />
    <glyph glyph-name="i" unicode="i" horiz-adv-x="1177"
d="M615 1243c-28 0 -51.333 9.5 -70 28.5s-28 42.167 -28 69.5s9.33301 50.666 28 69.999s42 29 70 29s51.5 -9.66699 70.5 -29s28.5 -42.666 28.5 -69.999s-9.5 -50.5 -28.5 -69.5s-42.5 -28.5 -70.5 -28.5zM1029 137c8.66699 0 15.999 -2.66699 21.999 -8s9 -13 9 -23v-75
c0 -9.33301 -3 -16.833 -9 -22.5s-13.333 -8.5 -22 -8.5h-870c-8.66699 0 -16 2.66699 -22 8s-9 13 -9 23v75c0 9.33301 2.83301 16.833 8.5 22.5s13.167 8.5 22.5 8.5h385v729h-334c-8.66699 0 -16 2.83301 -22 8.5s-9 13.167 -9 22.5v76c0 9.33301 3 16.833 9 22.5
s13.333 8.5 22 8.5h457c8.66699 0 15.834 -2.83301 21.501 -8.5s8.5 -13.167 8.5 -22.5v-836h332z" />
    <glyph glyph-name="j" unicode="j" horiz-adv-x="997"
d="M721 1243c-27.333 0 -50.5 9.5 -69.5 28.5s-28.5 42.167 -28.5 69.5s9.5 50.666 28.5 69.999s42.167 29 69.5 29s50.5 -9.66699 69.5 -29s28.5 -42.666 28.5 -69.999s-9.5 -50.5 -28.5 -69.5s-42.167 -28.5 -69.5 -28.5zM793 1004c9.33301 0 16.666 -2.83301 21.999 -8.5
s8 -13.167 8 -22.5v-946c0 -280.667 -140 -421 -420 -421c-40.667 0 -80.667 4.33301 -120 13s-72.666 19.5 -99.999 32.5s-51 26.833 -71 41.5s-34.167 28.167 -42.5 40.5s-10.5 21.833 -6.5 28.5l41 66c4 7.33301 11 11.5 21 12.5s19.667 -1.83301 29 -8.5
c76 -58.667 156.333 -88 241 -88c28.667 0 54.667 1.83301 78 5.5s47.833 11.667 73.5 24s47 28.5 64 48.5s31.167 47.333 42.5 82s17 75.667 17 123v839h-488c-9.33301 0 -16.666 2.83301 -21.999 8.5s-8 13.167 -8 22.5v76c0 9.33301 2.66699 16.833 8 22.5
s12.666 8.5 21.999 8.5h611z" />
    <glyph glyph-name="k" unicode="k" horiz-adv-x="1162"
d="M1077 37c8 -10 10.001 -18.668 6.00098 -26.001s-12 -11 -24 -11h-117c-14.667 0 -27 6 -37 18l-371 442l-217 -226v-203c0 -9.33301 -2.66699 -16.833 -8 -22.5s-12.666 -8.5 -21.999 -8.5h-92c-9.33301 0 -16.833 2.66699 -22.5 8s-8.5 13 -8.5 23v1433
c0 9.33301 2.66699 16.833 8 22.5s13 8.5 23 8.5h92c9.33301 0 16.666 -2.66699 21.999 -8s8 -13 8 -23v-1032l525 555c10.667 10.667 23.667 16.334 39 17.001h123c13.333 0 21.666 -3.66699 24.999 -11s0.333008 -16 -9 -26l-386 -403z" />
    <glyph glyph-name="l" unicode="l" horiz-adv-x="1182"
d="M1039 137c8.66699 0 15.999 -2.66699 21.999 -8s9 -13 9 -23v-75c0 -9.33301 -2.83301 -16.833 -8.5 -22.5s-13.167 -8.5 -22.5 -8.5h-880c-8.66699 0 -16 2.66699 -22 8s-9 13 -9 23v75c0 9.33301 2.83301 16.833 8.5 22.5s13.167 8.5 22.5 8.5h385v1159h-365
c-8.66699 0 -16 2.83301 -22 8.5s-9 13.167 -9 22.5v76c0 9.33301 3 16.833 9 22.5s13.333 8.5 22 8.5h488c8.66699 0 15.834 -2.83301 21.501 -8.5s8.5 -13.167 8.5 -22.5v-1266h342z" />
    <glyph glyph-name="m" unicode="m" horiz-adv-x="1433"
d="M195 0c-9.33301 0 -16.833 2.66699 -22.5 8s-8.5 13 -8.5 23v942c0 9.33301 2.66699 16.833 8 22.5s13 8.5 23 8.5h75c19.333 0 29.666 -10.333 30.999 -31l6 -101h11c38 102.667 113.667 154 227 154c107.333 0 179.666 -51.333 216.999 -154h10
c44 102.667 124.667 154 242 154c86 0 150.167 -25.833 192.5 -77.5s63.5 -139.5 63.5 -263.5v-654c0 -9.33301 -2.83301 -16.833 -8.5 -22.5s-13.167 -8.5 -22.5 -8.5h-84c-9.33301 0 -16.833 2.66699 -22.5 8s-8.5 13 -8.5 23v654c0 74.667 -11.5 127.667 -34.5 159
s-59.833 47 -110.5 47c-56 0 -100.167 -18.5 -132.5 -55.5s-51.833 -78.5 -58.5 -124.5v-680c0 -9.33301 -2.66699 -16.833 -8 -22.5s-12.666 -8.5 -21.999 -8.5h-82c-9.33301 0 -16.833 2.66699 -22.5 8s-8.5 13 -8.5 23v654c0 74.667 -11.667 127.667 -35 159
s-60.333 47 -111 47c-54 0 -97.167 -18.5 -129.5 -55.5s-52.5 -78.5 -60.5 -124.5v-680c0 -9.33301 -2.66699 -16.833 -8 -22.5s-12.666 -8.5 -21.999 -8.5h-84z" />
    <glyph glyph-name="n" unicode="n" horiz-adv-x="1232"
d="M701 1026c116 0 206.333 -33.6689 271 -101.002s97 -166.666 97 -297.999v-596c0 -9.33301 -2.66699 -16.833 -8 -22.5s-13 -8.5 -23 -8.5h-92c-9.33301 0 -16.833 2.66699 -22.5 8s-8.5 13 -8.5 23v585c0 179.333 -86.333 269.333 -259 270
c-43.333 0 -84.166 -6.83301 -122.499 -20.5s-70.333 -30.5 -96 -50.5s-47.834 -41.167 -66.501 -63.5s-32.334 -42.333 -41.001 -60s-13 -31.167 -13 -40.5v-620c0 -9.33301 -2.66699 -16.833 -8 -22.5s-12.666 -8.5 -21.999 -8.5h-92c-9.33301 0 -16.833 2.66699 -22.5 8
s-8.5 13 -8.5 23v942c0 9.33301 2.66699 16.833 8 22.5s13 8.5 23 8.5h84c18.667 0 28.667 -10.333 30 -31l8 -142h21c32 54.667 79.5 100.834 142.5 138.501s136.5 56.5 220.5 56.5z" />
    <glyph glyph-name="o" unicode="o" horiz-adv-x="1309"
d="M655 -27c-72.667 0 -141.333 13.666 -206 40.999s-120.5 64.5 -167.5 111.5s-84.333 103 -112 168s-41.5 133.833 -41.5 206.5c0 96.667 23.333 185.334 70 266.001s110.5 144.167 191.5 190.5s169.5 69.5 265.5 69.5c146 0 270.333 -51 373 -153s154 -226.333 154 -373
c0 -147.333 -51.333 -272 -154 -374s-227 -153 -373 -153zM655.001 116.999c105.333 0 194.333 37.167 267 111.5s109 164.833 109 271.5c0 106 -36.333 196.333 -109 271s-161.667 112 -267 112c-106 0 -195.167 -37.5 -267.5 -112.5s-108.5 -165.167 -108.5 -270.5
c0 -106.667 36.167 -197.167 108.5 -271.5s161.5 -111.5 267.5 -111.5z" />
    <glyph glyph-name="p" unicode="p" horiz-adv-x="1274"
d="M678 1024c146 0 260.665 -48.832 343.998 -146.499s125 -223.5 125 -377.5c0 -152.667 -42.667 -278.334 -128 -377.001s-199 -148 -341 -148c-155.333 0 -275.666 60 -360.999 180v-513c0 -9.33301 -2.66699 -16.833 -8 -22.5s-12.666 -8.5 -21.999 -8.5h-92
c-9.33301 0 -16.833 2.66699 -22.5 8s-8.5 13 -8.5 23v1331c0 9.33301 2.66699 16.833 8 22.5s13 8.5 23 8.5h92c9.33301 0 16.666 -2.83301 21.999 -8.5s8 -13.167 8 -22.5v-146h19c30 58.667 73.833 106.167 131.5 142.5s127.834 54.5 210.501 54.5zM652.998 119.001
c109.333 0 193.833 35 253.5 105s89.5 162.667 89.5 278s-29.833 207.333 -89.5 276s-144.167 103 -253.5 103c-101.333 0 -183.5 -35 -246.5 -105s-94.5 -161.333 -94.5 -274s31.5 -204.667 94.5 -276s145.167 -107 246.5 -107z" />
    <glyph glyph-name="q" unicode="q" horiz-adv-x="1295"
d="M1101 1004c8.66699 0 16 -2.83301 22 -8.5s9 -13.167 9 -22.5v-1331c0 -9.33301 -3 -16.833 -9 -22.5s-13.333 -8.5 -22 -8.5h-92c-8.66699 0 -16 2.66699 -22 8s-9 13 -9 23v509c-86 -118 -208.333 -177.333 -367 -178c-142.667 0 -258.834 49.667 -348.501 149
s-134.5 225.333 -134.5 378c0 153.333 43.833 279.333 131.5 378s204.834 148 351.501 148c86.667 0 159.667 -18.5 219 -55.5s103.333 -84.833 132 -143.5h16v146c0 9.33301 2.83301 16.833 8.5 22.5s13.167 8.5 22.5 8.5h92zM636 117c106 0 191 35.834 255 107.501
s96 164.167 96 277.5s-32 205.166 -96 275.499s-149 105.5 -255 105.5c-110 0 -197 -35 -261 -105s-96 -162 -96 -276c0 -114.667 32 -207.5 96 -278.5s151 -106.5 261 -106.5z" />
    <glyph glyph-name="r" unicode="r" horiz-adv-x="1218"
d="M713 1026c118.667 0 212.998 -31.002 282.998 -93.002s105 -153.333 105 -274c0 -20 -10.333 -30.667 -31 -32l-93 -11c-18.667 -2 -28.667 7 -30 27c-2 80 -25.667 140.167 -71 180.5s-108.666 60.5 -189.999 60.5c-47.333 0 -91.833 -7.33301 -133.5 -22
s-76.167 -33.167 -103.5 -55.5s-51.333 -46.666 -72 -72.999s-35.834 -50.833 -45.501 -73.5s-14.5 -42 -14.5 -58v-571c0 -9.33301 -2.66699 -16.833 -8 -22.5s-12.666 -8.5 -21.999 -8.5h-92c-9.33301 0 -16.833 2.66699 -22.5 8s-8.5 13 -8.5 23v942
c0 9.33301 2.66699 16.833 8 22.5s13 8.5 23 8.5h84c18.667 0 28.667 -10.333 30 -31l8 -142h24c36 54.667 86.833 100.834 152.5 138.501s138.834 56.5 219.501 56.5z" />
    <glyph glyph-name="s" unicode="s" horiz-adv-x="1146"
d="M572 563l79.999 -11.002c19.333 -2.66699 44.166 -6.83398 74.499 -12.501s54.166 -10.834 71.499 -15.501s38.333 -11.167 63 -19.5s43.834 -17.333 57.501 -27s28.5 -21.5 44.5 -35.5s28.333 -29.167 37 -45.5s15.667 -35.166 21 -56.499s8 -44.666 8 -69.999
c0 -90.667 -37.667 -162.834 -113 -216.501s-190 -80.5 -344 -80.5c-285.333 0 -438 99 -458 297c-2 20.667 7.33301 31 28 31h91c18.667 0 29 -8.33301 31 -25c14.667 -113.333 117.334 -170 308.001 -170c98 0 173.667 13.667 227 41s80 67.666 80 120.999
c0 24 -5.33301 44.833 -16 62.5s-24 32.167 -40 43.5s-38.333 21.333 -67 30s-56.167 15.167 -82.5 19.5s-60.166 9.16602 -101.499 14.499c-38.667 4.66699 -71.5 9.33398 -98.5 14.001s-57 10.834 -90 18.501s-60.667 16.167 -83 25.5s-44.833 21.333 -67.5 36
s-40.5 31.167 -53.5 49.5s-23.833 40.333 -32.5 66s-13 54.167 -13 85.5c0 89.333 34.833 160.5 104.5 213.5s175.5 79.5 317.5 79.5c280 0 430.333 -99 451 -297c2 -20.667 -7.66699 -31 -29 -31h-90c-18.667 0 -29 8.33301 -31 25c-14.667 113.333 -115 170 -301 170
c-87.333 0 -154.5 -13.333 -201.5 -40s-70.5 -67 -70.5 -121c0 -23.333 4.5 -43.666 13.5 -60.999s20.833 -31.666 35.5 -42.999s35.167 -21.166 61.5 -29.499s52.5 -15 78.5 -20s59 -10.167 99 -15.5z" />
    <glyph glyph-name="t" unicode="t" horiz-adv-x="1224"
d="M1113 156c12 -15.333 12.001 -28.999 0.000976562 -40.999c-30.667 -33.333 -74.334 -63.5 -131.001 -90.5s-123 -40.5 -199 -40.5c-53.333 0 -101.833 6.33301 -145.5 19s-84.167 33.667 -121.5 63s-66.666 71 -87.999 125s-32 119.333 -32 196v479h-268
c-8.66699 0 -16 2.83301 -22 8.5s-9 13.167 -9 22.5v76c0 9.33301 3 16.833 9 22.5s13.333 8.5 22 8.5h268v266c0 9.33301 3 16.666 9 21.999s13.333 8 22 8h92c8.66699 0 16 -2.66699 22 -8s9 -12.666 9 -21.999v-266h444c8.66699 0 16 -2.83301 22 -8.5s9 -13.167 9 -22.5
v-76c0 -9.33301 -2.83301 -16.833 -8.5 -22.5s-13.167 -8.5 -22.5 -8.5h-444v-473c0 -178.667 84.333 -268 253 -268c82.667 0 156.667 28 222 84c15.333 15.333 29.666 14.666 42.999 -2.00098z" />
    <glyph glyph-name="u" unicode="u" horiz-adv-x="1222"
d="M1028 1004c9.33301 0 16.834 -2.83203 22.501 -8.49902s8.5 -13.167 8.5 -22.5v-942c0 -9.33301 -2.83301 -16.833 -8.5 -22.5s-13.167 -8.5 -22.5 -8.5h-84c-18.667 0 -29 10.333 -31 31l-8 141h-20c-31.333 -54.667 -78.666 -100.834 -141.999 -138.501
s-136.333 -56.5 -219 -56.5c-116 0 -206.667 33.833 -272 101.5s-98 167.167 -98 298.5v596c0 9.33301 2.66699 16.833 8 22.5s12.666 8.5 21.999 8.5h92c9.33301 0 16.833 -2.83301 22.5 -8.5s8.5 -13.167 8.5 -22.5v-586c0 -181.333 90.333 -272 271 -272
c40.667 0 79.667 7 117 21s68.166 31 92.499 51s45.833 41.333 64.5 64s32.167 43 40.5 61s12.5 31.333 12.5 40v621c0 9.33301 2.83301 16.833 8.5 22.5s13.167 8.5 22.5 8.5h92z" />
    <glyph glyph-name="v" unicode="v" horiz-adv-x="1187"
d="M942 979c6.66699 16.667 18.999 25 36.999 25h93c11.333 0 19.5 -3.16699 24.5 -9.5s5.16699 -14.833 0.5 -25.5l-413 -944c-6.66699 -16.667 -19 -25 -37 -25h-106c-17.333 -0 -29.666 8.33301 -36.999 25l-413 944c-4.66699 10.667 -4.66699 19.167 0 25.5
s13 9.5 25 9.5h93c18 0 30.333 -8.33301 37 -25l348 -810z" />
    <glyph glyph-name="w" unicode="w" horiz-adv-x="1495"
d="M1381 1004c22.667 0 31 -11.667 25 -35l-254 -944c-4 -16.667 -16.333 -25 -37 -25h-120c-19.333 -0 -31.666 8.33301 -36.999 25l-209 756l-212 -756c-4 -16.667 -16.333 -25 -37 -25h-120c-20 -0 -32.333 8.33301 -37 25l-254 944c-6 23.333 2.33301 35 25 35h91
c20.667 0 33 -8.33301 37 -25l202 -809l226 809c5.33301 16.667 17.666 25 36.999 25h81c20.667 0 33 -8.33301 37 -25l228 -809l202 809c4 16.667 16.333 25 37 25h89z" />
    <glyph glyph-name="x" unicode="x" horiz-adv-x="1259"
d="M1153 37c8 -9.33301 10.168 -17.834 6.50098 -25.501s-11.834 -11.5 -24.501 -11.5h-119c-16 0 -28.333 5.33301 -37 16l-350 394l-350 -394c-8.66699 -10.667 -21 -16 -37 -16h-119c-12.667 0 -20.667 3.83301 -24 11.5s-1 16.167 7 25.5l431 477l-406 453
c-8 9.33301 -10.167 17.833 -6.5 25.5s12.167 11.5 25.5 11.5h116c16 0 28.333 -5.66699 37 -17l326 -371l325 371c8.66699 10.667 21 16.334 37 17.001h117c13.333 0 22 -3.66699 26 -11s1.33301 -16 -8 -26l-403 -453z" />
    <glyph glyph-name="y" unicode="y" horiz-adv-x="1218"
d="M1087 1004c11.333 0 19.502 -3.16699 24.502 -9.5s5.16699 -14.833 0.5 -25.5l-580 -1334c-6.66699 -16.667 -18.667 -24.667 -36 -24h-94c-11.333 0 -19.333 3 -24 9s-4.66699 14.667 0 26l152 353l-424 970c-4.66699 10.667 -4.5 19.167 0.5 25.5s13.167 9.5 24.5 9.5
h93c17.333 0 29.666 -8.33301 36.999 -25l348 -810l348 810c7.33301 16.667 19.666 25 36.999 25h93z" />
    <glyph glyph-name="z" unicode="z" horiz-adv-x="1187"
d="M1024 973v-78.001c0 -16.667 -4.66699 -29.667 -14 -39l-666 -725h649c9.33301 0 16.833 -2.66699 22.5 -8s8.5 -13 8.5 -23v-69c0 -9.33301 -2.66699 -16.833 -8 -22.5s-13 -8.5 -23 -8.5h-798c-9.33301 0 -16.833 2.66699 -22.5 8s-8.5 13 -8.5 23v78
c0 16.667 4.66699 29.334 14 38.001l666 725h-649c-9.33301 0 -16.833 2.83301 -22.5 8.5s-8.5 13.167 -8.5 22.5v70c0 9.33301 2.66699 16.833 8 22.5s13 8.5 23 8.5h798c9.33301 0 16.833 -2.83301 22.5 -8.5s8.5 -13.167 8.5 -22.5z" />
    <glyph glyph-name="braceleft" unicode="{" horiz-adv-x="1116"
d="M538 889c0 -18 -3.66797 -31.0039 -11.001 -39.0039l-188 -223l188 -219c6.66699 -8 10.334 -21 11.001 -39v-430c0 -22 6.66699 -39.5 20 -52.5s30.333 -19.5 51 -19.5h307c8.66699 0 16 -2.83301 22 -8.5s9 -13.167 9 -22.5v-72
c0 -9.33301 -2.83301 -16.666 -8.5 -21.999s-13.167 -8 -22.5 -8h-389c-43.333 0 -79 14.333 -107 43s-42 65.334 -42 110.001v455c0 18 -3.33301 31 -10 39l-189 225c-12 14.667 -12.667 28.334 -2 41.001l191 230c6.66699 8 10 20.667 10 38v457
c0 45.333 14.167 82.333 42.5 111s63.833 43 106.5 43h389c8.66699 0 16 -2.83301 22 -8.5s9 -13.167 9 -22.5v-72c0 -9.33301 -2.83301 -16.666 -8.5 -21.999s-13.167 -8 -22.5 -8h-307c-21.333 0 -38.5 -6.5 -51.5 -19.5s-19.5 -30.5 -19.5 -52.5v-432z" />
    <glyph glyph-name="bar" unicode="|" horiz-adv-x="507"
d="M174 1608c0 9.33301 2.66699 16.666 8 21.999s13 8 23 8h98c9.33301 0 16.833 -2.66699 22.5 -8s8.5 -12.666 8.5 -21.999v-1966c0 -9.33301 -2.83301 -16.833 -8.5 -22.5s-13.167 -8.5 -22.5 -8.5h-98c-9.33301 0 -16.833 2.66699 -22.5 8s-8.5 13 -8.5 23v1966z" />
    <glyph glyph-name="braceright" unicode="}" horiz-adv-x="1116"
d="M579 889l0.000976562 432.002c0 22 -6.66699 39.5 -20 52.5s-30.666 19.5 -51.999 19.5h-307c-8.66699 0 -16 2.66699 -22 8s-9 12.666 -9 21.999v72c0 9.33301 2.83301 16.833 8.5 22.5s13.167 8.5 22.5 8.5h389c43.333 0 79 -14.333 107 -43s42 -65.667 42 -111v-457
c0 -18 3.66699 -30.667 11 -38l190 -230c10.667 -12.667 10 -26.334 -2 -41.001l-188 -225c-6.66699 -8 -10.334 -21 -11.001 -39v-455c0 -45.333 -14.167 -82.166 -42.5 -110.499s-63.833 -42.5 -106.5 -42.5h-389c-8.66699 0 -16 2.66699 -22 8s-9 12.666 -9 21.999v72
c0 9.33301 2.83301 16.833 8.5 22.5s13.167 8.5 22.5 8.5h307c21.333 0 38.666 6.5 51.999 19.5s20 30.5 20 52.5v430c0 18 3.33301 31 10 39l188 219l-188 223c-6.66699 8 -10 21 -10 39z" />
    <glyph glyph-name="asciitilde" unicode="~" horiz-adv-x="1235"
d="M411 748c36.667 0 71.166 -6.83203 103.499 -20.499s60.166 -30.167 83.499 -49.5l68 -57.5c22 -19 46 -35.333 72 -49s52.667 -20.5 80 -20.5c38 0 68.833 9.66699 92.5 29s37.834 40.333 42.501 63c3.33301 13.333 12.333 20.333 27 21h61c20 0 28.333 -8.33301 25 -25
c-7.33301 -62 -33.333 -112 -78 -150s-102.667 -57 -174 -57c-36 0 -69.833 6.83301 -101.5 20.5s-59.167 30 -82.5 49l-68 57.5c-22 19.333 -45.5 35.833 -70.5 49.5s-50.5 20.5 -76.5 20.5c-64 0 -108.333 -30 -133 -90c-6 -15.333 -15 -23 -27 -23h-64
c-17.333 0 -24.666 10.333 -21.999 31c6 57.333 31 105.166 75 143.499s99.667 57.5 167 57.5z" />
    <glyph glyph-name="exclamdown" unicode="&#xa1;" horiz-adv-x="612"
d="M306 1092c36 0 66.167 -12.334 90.5 -37.001s36.5 -54.667 36.5 -90c0 -36 -12.333 -66.5 -37 -91.5s-54.667 -37.5 -90 -37.5s-65.333 12.333 -90 37s-37 55.334 -37 92.001c0 35.333 12.167 65.333 36.5 90s54.5 37 90.5 37zM411 -272.001
c1.33301 -32 -7.99902 -58.833 -27.999 -80.5s-45.667 -32.5 -77 -32.5s-56.833 10.667 -76.5 32s-28.834 48.333 -27.501 81l49 917c0.666992 20.667 11.667 31 33 31h45c21.333 0 32 -10.333 32 -31z" />
    <glyph glyph-name="cent" unicode="&#xa2;" horiz-adv-x="1199"
d="M1065 381c18 -10 21.001 -23.666 9.00098 -40.999c-41.333 -59.333 -93.833 -107.333 -157.5 -144s-134.834 -58.667 -213.501 -66v-181c0 -9.33301 -2.83301 -16.833 -8.5 -22.5s-12.834 -8.5 -21.501 -8.5h-58c-8.66699 0 -15.834 2.66699 -21.501 8s-8.5 13 -8.5 23
v182c-134 14.667 -243.667 69.667 -329 165s-128 211 -128 347s42.667 251.833 128 347.5s195 150.834 329 165.501v247c0 9.33301 2.83301 16.833 8.5 22.5s12.834 8.5 21.501 8.5h58c8.66699 0 15.834 -2.83301 21.501 -8.5s8.5 -13.167 8.5 -22.5v-246
c78.667 -7.33301 150 -29.333 214 -66s116.333 -85 157 -145c11.333 -16.667 8.33301 -30.334 -9 -41.001l-69 -40c-16.667 -10 -30.334 -7.66699 -41.001 7c-63.333 82.667 -147.333 130.667 -252 144v-745c104.667 12.667 188.667 60.667 252 144
c10.667 13.333 24.334 15.666 41.001 6.99902zM280.001 643.001c0 -98 28.167 -180.666 84.5 -247.999s129.833 -108 220.5 -122v741c-90.667 -13.333 -164.167 -53.833 -220.5 -121.5s-84.5 -150.834 -84.5 -249.501z" />
    <glyph glyph-name="sterling" unicode="&#xa3;" horiz-adv-x="1239"
d="M1070 147c8.66699 0 16.002 -2.66992 22.002 -8.00293s9 -12.666 9 -21.999v-86c0 -9.33301 -3 -16.833 -9 -22.5s-13.333 -8.5 -22 -8.5h-901c-8.66699 0 -16 2.66699 -22 8s-9 13 -9 23v116c21.333 12 42.666 27.333 63.999 46s43.333 41.667 66 69
s41.167 59.333 55.5 96s21.5 74.334 21.5 113.001c0 42 -4.33301 83 -13 123h-163c-8.66699 0 -16 2.66699 -22 8s-9 13 -9 23v82c0 9.33301 3 16.666 9 21.999s13.333 8 22 8h113c-2 4 -9.33301 19.667 -22 47s-20.667 44.833 -24 52.5s-9.5 23.667 -18.5 48
s-14.833 43.833 -17.5 58.5s-5.83398 33.5 -9.50098 56.5s-5.5 46.167 -5.5 69.5c0 116.667 38.5 209.334 115.5 278.001s188.833 103 335.5 103c146 0 259.333 -32.333 340 -97s121 -158 121 -280c0 -20 -10.333 -31 -31 -33l-86 -8c-20.667 -2 -31 7.66699 -31 29
c0 79.333 -28.167 140.833 -84.5 184.5s-135.833 65.5 -238.5 65.5c-98.667 0 -171.834 -23.5 -219.501 -70.5s-71.5 -107.5 -71.5 -181.5c0 -33.333 3.5 -66 10.5 -98s14.667 -57.167 23 -75.5s20.5 -43.5 36.5 -75.5s27.333 -56.333 34 -73h512
c8.66699 0 16 -2.66699 22 -8s9 -12.666 9 -21.999v-82c0 -9.33301 -2.83301 -16.833 -8.5 -22.5s-13.167 -8.5 -22.5 -8.5h-469c6.66699 -40.667 10.334 -83 11.001 -127c0 -56.667 -13.5 -114.5 -40.5 -173.5s-60.833 -107.833 -101.5 -146.5h719z" />
    <glyph glyph-name="currency" unicode="&#xa4;" horiz-adv-x="1259"
d="M1086 975c0 -106 -32.001 -199.667 -96.001 -281l101 -100l-80 -78l-99 98c-83.333 -65.333 -178 -98 -284 -98s-200.333 32 -283 96l-96 -96l-80 78l97 97c-64.667 83.333 -97 178 -97 284s32.333 200.333 97 283l-97 98l80 78l96 -97c82.667 64 177 96.333 283 97
c106.667 0 201.334 -33 284.001 -99l99 99l80 -78l-101 -101c64 -80.667 96 -174 96 -280zM266.999 975c0 -98 35.667 -182.667 107 -254s155.833 -107 253.5 -107s182.5 35.667 254.5 107s108 156 108 254c0 96.667 -36 180.834 -108 252.501s-156.833 107.5 -254.5 107.5
s-182.167 -35.833 -253.5 -107.5s-107 -155.834 -107 -252.501z" />
    <glyph glyph-name="yen" unicode="&#xa5;" horiz-adv-x="1392"
d="M1299 1434c12 0 20.168 -3.66699 24.501 -11s3.16602 -16 -3.50098 -26l-494 -764h314c8.66699 0 15.834 -2.83301 21.501 -8.5s8.5 -13.167 8.5 -22.5v-70c0 -9.33301 -2.83301 -16.666 -8.5 -21.999s-12.834 -8 -21.501 -8h-364v-88h364
c8.66699 0 15.834 -2.83301 21.501 -8.5s8.5 -13.167 8.5 -22.5v-70c0 -9.33301 -2.83301 -16.666 -8.5 -21.999s-12.834 -8 -21.501 -8h-364v-252c0 -9.33301 -2.66699 -16.833 -8 -22.5s-13 -8.5 -23 -8.5h-98c-9.33301 0 -16.833 2.66699 -22.5 8s-8.5 13 -8.5 23v252
h-363c-8.66699 0 -16 2.66699 -22 8s-9 12.666 -9 21.999v70c0 9.33301 3 16.833 9 22.5s13.333 8.5 22 8.5h363v88h-363c-8.66699 0 -16 2.66699 -22 8s-9 12.666 -9 21.999v70c0 9.33301 3 16.833 9 22.5s13.333 8.5 22 8.5h313l-493 764c-6.66699 10 -8 18.667 -4 26
s12 11 24 11h116c16 0 28.333 -7 37 -21l450 -698l451 698c8.66699 13.333 21 20.333 37 21h115z" />
    <glyph glyph-name="brokenbar" unicode="&#xa6;" horiz-adv-x="507"
d="M303 1638c9.33301 0 16.833 -2.66699 22.5 -8s8.5 -12.666 8.5 -21.999v-574c0 -9.33301 -2.83301 -16.666 -8.5 -21.999s-13.167 -8 -22.5 -8h-98c-9.33301 0 -16.833 2.66699 -22.5 8s-8.5 12.666 -8.5 21.999v574c0 9.33301 2.66699 16.666 8 21.999s13 8 23 8h98z
M303 246c9.33301 0 16.833 -2.83301 22.5 -8.5s8.5 -13.167 8.5 -22.5v-573c0 -9.33301 -2.83301 -16.833 -8.5 -22.5s-13.167 -8.5 -22.5 -8.5h-98c-9.33301 0 -16.833 2.66699 -22.5 8s-8.5 13 -8.5 23v573c0 9.33301 2.66699 16.833 8 22.5s13 8.5 23 8.5h98z" />
    <glyph glyph-name="section" unicode="&#xa7;" horiz-adv-x="1383"
d="M1230 571c0 -124 -39.3369 -224.333 -118.004 -301c44.667 -54 67 -121 67 -201c0 -124 -42.167 -221.333 -126.5 -292s-209.833 -106 -376.5 -106c-154 0 -275.833 28.667 -365.5 86s-139.834 141.333 -150.501 252c-1.33301 10 0.833984 18.833 6.50098 26.5
s12.834 11.5 21.501 11.5h98c18 0 28 -10.667 30 -32c7.33301 -61.333 42.833 -109.666 106.5 -144.999s148.167 -53 253.5 -53c115.333 0 201.666 20 258.999 60s86 104 86 192c0 22.667 -2.83301 43.167 -8.5 61.5s-12.834 34.5 -21.501 48.5s-21.5 27 -38.5 39
s-33.5 22 -49.5 30s-38.167 16.5 -66.5 25.5s-53.833 16.5 -76.5 22.5s-52.667 13.333 -90 22c-43.333 10 -80.666 19.5 -111.999 28.5s-66.166 20.667 -104.499 35s-71 29.5 -98 45.5s-54 35.333 -81 58s-48.833 47.334 -65.5 74.001s-30 58.167 -40 94.5
s-15 75.5 -15 117.5c0 56.667 9.83301 107 29.5 151s49.5 86.333 89.5 127c-38.667 57.333 -58 129 -58 215c0 114.667 38.667 205.667 116 273s187.666 101 330.999 101c146.667 0 262.834 -28.667 348.501 -86s133.834 -140.333 144.501 -249c2 -20 -7.66699 -30 -29 -30
h-90c-18.667 0 -28.667 7.66699 -30 23c-7.33301 58.667 -41.666 106.5 -102.999 143.5s-141.666 55.5 -240.999 55.5c-90.667 0 -162.167 -19.833 -214.5 -59.5s-78.5 -96.834 -78.5 -171.501c0 -76.667 23.667 -135.667 71 -177s124 -73.333 230 -96
c40 -8.66699 74.833 -16.667 104.5 -24s63.167 -16.333 100.5 -27s69.333 -22 96 -34s54.5 -25.833 83.5 -41.5s53.167 -33.334 72.5 -53.001s37.333 -41.167 54 -64.5s29 -50 37 -80s12 -62 12 -96zM308.996 756c0 -36 6.50098 -68.4971 19.501 -97.4971
s29.333 -52.833 49 -71.5s46.167 -35.834 79.5 -51.501s65.666 -28.334 96.999 -38.001s70 -19.5 116 -29.5c140.667 -31.333 246 -65 316 -101c58.667 46.667 88 114.667 88 204c0 28 -4.16699 53.5 -12.5 76.5s-21.5 42.667 -39.5 59s-37.5 30.833 -58.5 43.5
s-47.167 24.167 -78.5 34.5s-61.333 19.166 -90 26.499l-103 26c-10 2 -17.333 3.66699 -22 5c-122.667 28.667 -217 62.667 -283 102c-52 -41.333 -78 -104 -78 -188z" />
    <glyph glyph-name="dieresis" unicode="&#xa8;"
d="M469 1276c-24.667 0 -45.834 8.83301 -63.501 26.5s-26.5 38.834 -26.5 63.501c0 24 8.83301 44.667 26.5 62s38.834 26 63.501 26s45.834 -8.66699 63.501 -26s26.5 -38 26.5 -62c0 -24.667 -8.83301 -45.834 -26.5 -63.501s-38.834 -26.5 -63.501 -26.5zM844 1276
c-24.667 0 -45.834 8.83301 -63.501 26.5s-26.5 38.834 -26.5 63.501c0 24 8.83301 44.667 26.5 62s38.834 26 63.501 26s45.834 -8.66699 63.501 -26s26.5 -38 26.5 -62c0 -24.667 -8.83301 -45.834 -26.5 -63.501s-38.834 -26.5 -63.501 -26.5z" />
    <glyph glyph-name="copyright" unicode="&#xa9;" horiz-adv-x="1437"
d="M719 115c-106 0 -204 26 -294 78s-161.167 123.167 -213.5 213.5s-78.5 188.333 -78.5 294s26.167 203.5 78.5 293.5s123.5 161.167 213.5 213.5s188 78.5 294 78.5s204 -26.167 294 -78.5s161.167 -123.5 213.5 -213.5s78.5 -187.833 78.5 -293.5
s-26.167 -203.667 -78.5 -294s-123.5 -161.5 -213.5 -213.5s-188 -78 -294 -78zM719 233c128.667 0 237.667 45.499 327 136.499s134 201.333 134 331s-44.833 239.834 -134.5 330.501s-198.5 136 -326.5 136c-129.333 0 -238.833 -45.5 -328.5 -136.5
s-134.5 -201 -134.5 -330s44.833 -239.167 134.5 -330.5s199.167 -137 328.5 -137zM926 474.999c16 -16 16 -30.334 0 -43.001c-54.667 -46.667 -121 -70 -199 -70c-92.667 0 -171.167 32.5 -235.5 97.5s-96.5 145.333 -96.5 241s32.167 175.834 96.5 240.501
s142.833 97 235.5 97c78 0 144.333 -23 199 -69c16 -12.667 16 -27 0 -43l-29 -29c-11.333 -11.333 -25.666 -12 -42.999 -2c-40 24.667 -81.667 37 -125 37c-63.333 0 -116.666 -22.167 -159.999 -66.5s-65 -99.333 -65 -165s21.667 -120.667 65 -165
s96.666 -66.5 159.999 -66.5c43.333 0 85 12.333 125 37c17.333 10 31.666 9.33301 42.999 -2z" />
    <glyph glyph-name="ordfeminine" unicode="&#xaa;"
d="M926 1434h98.001v-736h-98l-21 102c-63.333 -67.333 -145.333 -101.333 -246 -102c-104 0 -192 36.167 -264 108.5s-108 160.5 -108 264.5s36.167 192.167 108.5 264.5s160.166 108.5 263.499 108.5c100.667 0 183 -34 247 -102zM659.501 813
c71.667 0 132.667 25.167 183 75.5s75.5 111.333 75.5 183s-25.167 132.5 -75.5 182.5s-111.333 75 -183 75s-132.667 -25 -183 -75s-75.5 -110.833 -75.5 -182.5s25.167 -132.667 75.5 -183s111.333 -75.5 183 -75.5z" />
    <glyph glyph-name="guillemotleft" unicode="&#xab;" horiz-adv-x="1226"
d="M597 967l-258 -392l258 -391c6.66699 -10.667 8 -19.5 4 -26.5s-12 -10.5 -24 -10.5h-107c-17.333 0 -29.666 7 -36.999 21l-256 387c-9.33301 13.333 -9.33301 27 0 41l256 387c7.33301 13.333 19.666 20.333 36.999 21h107c12 0 20 -3.5 24 -10.5
s2.66699 -15.833 -4 -26.5zM1052 967l-257.999 -392l258 -391c6.66699 -10.667 8 -19.5 4 -26.5s-12.333 -10.5 -25 -10.5h-106c-17.333 0 -29.666 7 -36.999 21l-256 387c-9.33301 13.333 -9.33301 27 0 41l256 387c7.33301 13.333 19.666 20.333 36.999 21h106
c12 0 20.167 -3.5 24.5 -10.5s3.16602 -15.833 -3.50098 -26.5z" />
    <glyph glyph-name="logicalnot" unicode="&#xac;" horiz-adv-x="1361"
d="M1162 618c8.66699 0 16 -2.66699 22 -8s9 -12.666 9 -21.999v-254c0 -9.33301 -2.83301 -16.833 -8.5 -22.5s-13.167 -8.5 -22.5 -8.5h-92c-8.66699 0 -16 2.66699 -22 8s-9 13 -9 23v153h-839c-8.66699 0 -16 2.83301 -22 8.5s-9 13.167 -9 22.5v70
c0 9.33301 2.83301 16.666 8.5 21.999s13.167 8 22.5 8h962z" />
    <glyph glyph-name="uni00AD" unicode="&#xad;"
d="M1137 645c9.33301 0 16.666 -2.66699 21.999 -8s8 -13 8 -23v-71c0 -9.33301 -2.66699 -16.833 -8 -22.5s-12.666 -8.5 -21.999 -8.5h-963c-9.33301 0 -16.833 2.66699 -22.5 8s-8.5 13 -8.5 23v71c0 9.33301 2.83301 16.833 8.5 22.5s13.167 8.5 22.5 8.5h963z" />
    <glyph glyph-name="registered" unicode="&#xae;" horiz-adv-x="1437"
d="M719 1286c106 0 204 -26.167 294 -78.5s161.167 -123.5 213.5 -213.5s78.5 -187.833 78.5 -293.5s-26.167 -203.667 -78.5 -294s-123.5 -161.5 -213.5 -213.5s-188 -78 -294 -78s-204 26 -294 78s-161.167 123.167 -213.5 213.5s-78.5 188.333 -78.5 294
s26.167 203.5 78.5 293.5s123.5 161.167 213.5 213.5s188 78.5 294 78.5zM719 233c128.667 0 237.667 45.499 327 136.499s134 201.333 134 331s-44.833 239.834 -134.5 330.501s-198.5 136 -326.5 136c-129.333 0 -238.833 -45.5 -328.5 -136.5s-134.5 -201 -134.5 -330
s44.833 -239.167 134.5 -330.5s199.167 -137 328.5 -137zM1001 804.999c0 -52 -15.667 -94.5 -47 -127.5s-76.333 -54.167 -135 -63.5l172 -190c5.33301 -6 6.83301 -11.667 4.5 -17s-7.83301 -8 -16.5 -8h-86c-8.66699 0 -16.334 4.33301 -23.001 13l-176 198h-125v-192
c0 -5.33301 -1.66699 -9.83301 -5 -13.5s-7.66602 -5.5 -12.999 -5.5h-70c-5.33301 0 -9.66602 1.83301 -12.999 5.5s-5 8.16699 -5 13.5v567c0 5.33301 1.66699 9.83301 5 13.5s7.66602 5.5 12.999 5.5h279c77.333 0 136.833 -17.667 178.5 -53s62.5 -84 62.5 -146z
M762 708.999c44.667 0 78.333 9.16797 101 27.501s34 41.166 34 68.499c0 65.333 -45 98 -135 98h-193v-194h193z" />
    <glyph glyph-name="macron" unicode="&#xaf;"
d="M911 1434c9.33301 0 16.833 -2.83301 22.5 -8.5s8.5 -13.167 8.5 -22.5v-66c0 -9.33301 -2.66699 -16.666 -8 -21.999s-13 -8 -23 -8h-512c-9.33301 0 -16.666 2.66699 -21.999 8s-8 12.666 -8 21.999v66c0 9.33301 2.66699 16.833 8 22.5s12.666 8.5 21.999 8.5h512z
" />
    <glyph glyph-name="degree" unicode="&#xb0;"
d="M655.5 1444c91 0 167 -29.999 228 -89.999s91.5 -136 91.5 -228c0 -93.333 -30.5 -170.166 -91.5 -230.499s-137 -90.5 -228 -90.5s-167 30.167 -228 90.5s-91.5 137.166 -91.5 230.499c0 91.333 30.5 167.166 91.5 227.499s137 90.5 228 90.5zM655 1335
c-60.667 0 -110.667 -18.833 -150 -56.5s-59 -88.334 -59 -152.001s19.667 -114.834 59 -153.501s89.333 -58 150 -58s110.667 19.333 150 58s59 89.834 59 153.501s-19.667 114.334 -59 152.001s-89.333 56.5 -150 56.5z" />
    <glyph glyph-name="plusminus" unicode="&#xb1;" horiz-adv-x="1137"
d="M938 707c9.33301 0 16.833 -2.83301 22.5 -8.5s8.5 -13.167 8.5 -22.5v-70c0 -9.33301 -2.83301 -16.833 -8.5 -22.5s-13.167 -8.5 -22.5 -8.5h-303v-303c0 -9.33301 -2.83301 -16.666 -8.5 -21.999s-13.167 -8 -22.5 -8h-69c-9.33301 0 -16.833 2.66699 -22.5 8
s-8.5 12.666 -8.5 21.999v303h-303c-9.33301 0 -16.833 2.83301 -22.5 8.5s-8.5 13.167 -8.5 22.5v70c0 9.33301 2.66699 16.833 8 22.5s13 8.5 23 8.5h303v303c0 9.33301 2.66699 16.666 8 21.999s13 8 23 8h69c9.33301 0 16.833 -2.66699 22.5 -8s8.5 -12.666 8.5 -21.999
v-303h303zM937 131c8.66699 0 16 -2.66699 22 -8s9 -13 9 -23v-69c0 -9.33301 -3 -16.833 -9 -22.5s-13.333 -8.5 -22 -8.5h-737c-8.66699 0 -16 2.66699 -22 8s-9 13 -9 23v69c0 9.33301 2.83301 16.833 8.5 22.5s13.167 8.5 22.5 8.5h737z" />
    <glyph glyph-name="uni00B2" unicode="&#xb2;"
d="M1073 350c9.33301 0 16.832 -2.66602 22.499 -7.99902s8.5 -13 8.5 -23v-73c0 -9.33301 -2.83301 -16.833 -8.5 -22.5s-13.167 -8.5 -22.5 -8.5h-842c-9.33301 0 -16.666 2.66699 -21.999 8s-8 13 -8 23v90c0 57.333 14 107.833 42 151.5s64.167 78.667 108.5 105
s93.5 49.5 147.5 69.5s107.833 37.667 161.5 53s102.667 31.166 147 47.499s80.5 36.833 108.5 61.5s42 53.667 42 87c0 62 -23.5 107.667 -70.5 137s-121.5 44 -223.5 44c-216 0 -324 -63.667 -324 -191c0 -21.333 -10.333 -31 -31 -29l-84 9
c-20.667 2 -30.667 12.667 -30 32c0 104 38.833 182.667 116.5 236s191.5 80 341.5 80c149.333 0 262.166 -27.167 338.499 -81.5s114.5 -133.166 114.5 -236.499c0 -50 -13.5 -93.5 -40.5 -130.5s-62.167 -66.833 -105.5 -89.5s-91.333 -43 -144 -61
s-105.167 -35 -157.5 -51s-100.166 -33.333 -143.499 -52s-78.5 -42.834 -105.5 -72.501s-40.5 -64.5 -40.5 -104.5h704z" />
    <glyph glyph-name="uni00B3" unicode="&#xb3;"
d="M891 717c31.333 -6 59.332 -13 83.999 -21s48.667 -18.5 72 -31.5s42.666 -28 57.999 -45s27.833 -38.333 37.5 -64s14.5 -54.5 14.5 -86.5c0 -52.667 -12.333 -97.5 -37 -134.5s-60.334 -66 -107.001 -87s-99.167 -36.167 -157.5 -45.5s-125.833 -14 -202.5 -14
c-166 0 -289 22.333 -369 67s-120 121.334 -120 230.001c0 20 10.333 31 31 33l88 8c20.667 2 30.667 -7.33301 30 -28c0 -65.333 26.667 -110.666 80 -135.999s137.333 -38 252 -38c56.667 0 104.334 1.66699 143.001 5s75.667 10.166 111 20.499s62 25.833 80 46.5
s27 47 27 79c0 68 -33.667 114.333 -101 139s-178.666 37 -333.999 37c-20.667 0 -30.667 10.333 -30 31v57c0 22 10 33 30 33c268.667 0 403.334 56 404.001 168c0 56 -26.833 96 -80.5 120s-133.5 36 -239.5 36c-108.667 0 -189 -15 -241 -45s-78 -80 -78 -150
c0 -21.333 -10.333 -31 -31 -29l-88 9c-20.667 2 -31 12.667 -31 32c0 110 40.333 190.167 121 240.5s198 75.5 352 75.5c147.333 0 261 -22.5 341 -67.5s120 -113.5 120 -205.5c0 -61.333 -21.5 -111.833 -64.5 -151.5s-97.833 -68.834 -164.5 -87.501z" />
    <glyph glyph-name="acute" unicode="&#xb4;"
d="M756 1495c11.333 0 19.332 -3 23.999 -9s4.66699 -14.667 0 -26l-123 -258c-7.33301 -16.667 -18.666 -24.667 -33.999 -24h-68c-11.333 0 -19.5 3 -24.5 9s-5.16699 14.333 -0.5 25l123 258c7.33301 16.667 19 25 35 25h68z" />
    <glyph glyph-name="uni00B5" unicode="&#xb5;" horiz-adv-x="1227"
d="M1033 1004c8.66699 0 15.9971 -2.83203 21.9971 -8.49902s9 -13.167 9 -22.5v-942c0 -9.33301 -2.83301 -16.833 -8.5 -22.5s-13.167 -8.5 -22.5 -8.5h-84c-18.667 0 -28.667 10.333 -30 31l-9 141h-20c-31.333 -54.667 -78.666 -100.834 -141.999 -138.501
s-136.333 -56.5 -219 -56.5c-89.333 0 -163.333 20 -222 60v-395c0 -9.33301 -2.66699 -16.833 -8 -22.5s-13 -8.5 -23 -8.5h-92c-9.33301 0 -16.666 2.66699 -21.999 8s-8 13 -8 23v1013h5v318c0 9.33301 2.83301 16.833 8.5 22.5s12.834 8.5 21.501 8.5h93
c8.66699 0 15.834 -2.83301 21.501 -8.5s8.5 -13.167 8.5 -22.5v-586c0 -181.333 90.333 -272 271 -272c40.667 0 79.667 7 117 21s68.166 31 92.499 51s45.833 41.333 64.5 64s32.167 43 40.5 61s12.5 31.333 12.5 40v621c0 9.33301 3 16.833 9 22.5s13.333 8.5 22 8.5h92z
" />
    <glyph glyph-name="paragraph" unicode="&#xb6;"
d="M498 1434l239 0.00195312c9.33301 0 16.833 -2.83301 22.5 -8.5s8.5 -13.167 8.5 -22.5v-1372c0 -9.33301 -2.66699 -16.833 -8 -22.5s-13 -8.5 -23 -8.5h-88c-9.33301 0 -16.833 2.66699 -22.5 8s-8.5 13 -8.5 23v518h-120c-66.667 0 -124 6.16699 -172 18.5
s-87 29.666 -117 51.999s-53.667 52.333 -71 90s-29.333 78.5 -36 122.5s-10 97 -10 159s3.33301 115.167 10 159.5s18.667 85.166 36 122.499s41 67.333 71 90s69 40.167 117 52.5s105.333 18.5 172 18.5zM1030 1434c9.33301 0 16.833 -2.83301 22.5 -8.5
s8.5 -13.167 8.5 -22.5v-1372c0 -9.33301 -2.83301 -16.833 -8.5 -22.5s-13.167 -8.5 -22.5 -8.5h-88c-9.33301 0 -16.833 2.66699 -22.5 8s-8.5 13 -8.5 23v1372c0 9.33301 2.83301 16.833 8.5 22.5s13.167 8.5 22.5 8.5h88z" />
    <glyph glyph-name="periodcentered" unicode="&#xb7;" horiz-adv-x="591"
d="M296 483c-36 0 -66.167 12.334 -90.5 37.001s-36.5 54.667 -36.5 90c0 36 12.333 66.5 37 91.5s54.667 37.5 90 37.5s65.333 -12.333 90 -37s37 -55.334 37 -92.001c0 -35.333 -12.167 -65.333 -36.5 -90s-54.5 -37 -90.5 -37z" />
    <glyph glyph-name="cedilla" unicode="&#xb8;"
d="M654 -79c46.667 -4 85.833 -20.168 117.5 -48.501s47.5 -65.166 47.5 -110.499c0 -53.333 -16 -96.5 -48 -129.5s-70.667 -54.167 -116 -63.5s-93.666 -9.66602 -144.999 -0.999023c-12 2 -18 9.33301 -18 22v58c0 6.66699 2 11.834 6 15.501s9.33301 5.16699 16 4.5
c56 -8 100.333 -4.16699 133 11.5s49 39.834 49 72.501c0 31.333 -18 53.833 -54 67.5s-78 11.167 -126 -7.5c-6.66699 -2.66699 -12.334 -2.83398 -17.001 -0.500977s-7 7.16602 -7 14.499v53c0 7.33301 3.33301 15.666 10 24.999l90 96h139z" />
    <glyph glyph-name="uni00B9" unicode="&#xb9;"
d="M1085 346c9.33301 0 16.833 -2.66699 22.5 -8s8.5 -13 8.5 -23v-69c0 -9.33301 -2.66699 -16.833 -8 -22.5s-13 -8.5 -23 -8.5h-860c-9.33301 0 -16.666 2.66699 -21.999 8s-8 13 -8 23v69c0 9.33301 2.66699 16.833 8 22.5s12.666 8.5 21.999 8.5h385v715
c-98.667 -91.333 -209 -137 -331 -137c-20.667 0 -31 10 -31 30v80c0 20.667 10.333 31 31 31c50 0 103.833 13.167 161.5 39.5s114.167 64.5 169.5 114.5h123c9.33301 0 16.833 -2.83301 22.5 -8.5s8.5 -13.167 8.5 -22.5v-842h321z" />
    <glyph glyph-name="ordmasculine" unicode="&#xba;"
d="M653.5 698c-103.667 0 -191.667 36.167 -264 108.5s-108.5 160.5 -108.5 264.5s36.167 192.167 108.5 264.5s160.333 108.5 264 108.5s191.667 -36.167 264 -108.5s108.5 -160.5 108.5 -264.5s-36.167 -192.167 -108.5 -264.5s-160.333 -108.5 -264 -108.5zM653.5 813
c71.667 0 132.5 25.167 182.5 75.5s75 111.333 75 183s-25 132.5 -75 182.5s-110.833 75 -182.5 75s-132.667 -25 -183 -75s-75.5 -110.833 -75.5 -182.5s25.167 -132.667 75.5 -183s111.333 -75.5 183 -75.5z" />
    <glyph glyph-name="guillemotright" unicode="&#xbb;" horiz-adv-x="1226"
d="M175 967c-6.66699 10.667 -8.00098 19.5 -4.00098 26.5s12.333 10.5 25 10.5h106c17.333 0 29.666 -7 36.999 -21l256 -387c9.33301 -13.333 9.33301 -27 0 -41l-256 -387c-7.33301 -13.333 -19.666 -20.333 -36.999 -21h-106c-12 0 -20.167 3.5 -24.5 10.5
s-3.16602 15.833 3.50098 26.5l258 391zM629.999 967c-6.66699 10.667 -8 19.5 -4 26.5s12 10.5 24 10.5h107c17.333 0 29.666 -7 36.999 -21l256 -387c9.33301 -13.333 9.33301 -27 0 -41l-256 -387c-7.33301 -13.333 -19.666 -20.333 -36.999 -21h-107
c-12 0 -20 3.5 -24 10.5s-2.66699 15.833 4 26.5l258 391z" />
    <glyph glyph-name="onequarter" unicode="&#xbc;"
d="M225 771c-8.66699 0 -15.833 2.49902 -21.5 7.49902s-8.5 11.5 -8.5 19.5v60c0 18 10 27 30 27h385v617c-100 -79.333 -210.333 -119 -331 -119c-20.667 0 -31 9 -31 27v69c0 18 10.333 26.667 31 26c50 0 103.833 11.5 161.5 34.5s114.167 55.833 169.5 98.5h123
c20.667 0 31 -8.66699 31 -26v-727h321c20.667 0 31 -9 31 -27v-60c0 -7.33301 -2.83301 -13.666 -8.5 -18.999s-13.167 -8 -22.5 -8h-860zM1239 685.999c9.33301 0 16.833 -2.66699 22.5 -8s8.5 -13 8.5 -23v-57c0 -9.33301 -2.83301 -16.833 -8.5 -22.5
s-13.167 -8.5 -22.5 -8.5h-1167c-9.33301 0 -16.833 2.83301 -22.5 8.5s-8.5 13.167 -8.5 22.5v57c0 9.33301 2.66699 16.833 8 22.5s13 8.5 23 8.5h1167zM1130 50.999c20.667 0 30.999 -8.66699 30.999 -26v-62c0 -18 -10.333 -26.667 -31 -26h-143v-299
c0 -18 -10.333 -27 -31 -27h-92c-20.667 0 -30.667 9 -30 27v299h-656c-20.667 0 -31 8.66699 -31 26v489c0 7.33301 3 13.5 9 18.5s13.333 7.5 22 7.5h92c8.66699 0 16 -2.5 22 -7.5s9 -11.167 9 -18.5v-401h533v401c0 7.33301 2.83301 13.5 8.5 18.5
s12.834 7.5 21.501 7.5h92c8.66699 0 16 -2.5 22 -7.5s9 -11.167 9 -18.5v-401h143z" />
    <glyph glyph-name="onehalf" unicode="&#xbd;"
d="M217 771c-8.66699 0 -16 2.49902 -22 7.49902s-9 11.5 -9 19.5v60c0 18 10.333 27 31 27h385v617c-100 -79.333 -210.667 -119 -332 -119c-20.667 0 -30.667 9 -30 27v69c0 18 10 26.667 30 26c50 0 104 11.5 162 34.5s114.667 55.833 170 98.5h123
c20.667 0 31 -8.66699 31 -26v-727h321c20.667 0 31 -9 31 -27v-60c0 -7.33301 -2.83301 -13.666 -8.5 -18.999s-13.167 -8 -22.5 -8h-860zM1239 685.999c9.33301 0 16.833 -2.66699 22.5 -8s8.5 -13 8.5 -23v-57c0 -9.33301 -2.83301 -16.833 -8.5 -22.5
s-13.167 -8.5 -22.5 -8.5h-1167c-9.33301 0 -16.833 2.83301 -22.5 8.5s-8.5 13.167 -8.5 22.5v57c0 9.33301 2.66699 16.833 8 22.5s13 8.5 23 8.5h1167zM1112 211.999c0 -43.333 -13.5 -80.999 -40.5 -112.999s-62.167 -57.667 -105.5 -77s-91.333 -36.833 -144 -52.5
s-105.167 -30.334 -157.5 -44.001s-100.166 -28.5 -143.499 -44.5s-78.5 -37 -105.5 -63s-40.5 -56 -40.5 -90h704c20.667 0 31 -9 31 -27v-63c0 -18 -10.333 -27 -31 -27h-841c-20.667 0 -31 9 -31 27v77c0 50 14 94 42 132s64.167 68.167 108.5 90.5
s93.5 42.166 147.5 59.499s108 32.5 162 45.5s103.167 26.5 147.5 40.5s80.5 31.833 108.5 53.5s42 46.834 42 75.501c0 54 -23.5 93.5 -70.5 118.5s-121.833 37.5 -224.5 37.5c-216 0 -324 -54.667 -324 -164c0 -18.667 -10.333 -27 -31 -25l-84 6
c-20.667 2 -30.667 11.667 -30 29c0 89.333 38.667 157 116 203s191.333 69 342 69c149.333 0 262.166 -23.333 338.499 -70s114.5 -114.667 114.5 -204z" />
    <glyph glyph-name="threequarters" unicode="&#xbe;"
d="M891 1206c32 -5.33301 59.998 -11.3291 83.998 -17.9961s47.833 -15.667 71.5 -27s43.167 -24.333 58.5 -39s27.833 -33 37.5 -55s14.5 -47 14.5 -75c0 -46 -12.333 -85.167 -37 -117.5s-60.334 -57.333 -107.001 -75s-99.167 -30.334 -157.5 -38.001
s-125.833 -11.5 -202.5 -11.5c-166 0 -289 19 -369 57s-120 104.333 -120 199c0 17.333 10.333 26.666 31 27.999l88 7c20.667 2 30.667 -6 30 -24c0 -56.667 26.667 -96 80 -118s137.333 -33 252 -33c56.667 0 104.334 1.66699 143.001 5s75.667 9.16602 111 17.499
s62 21.666 80 39.999s27 41.166 27 68.499c0 59.333 -33.667 99.5 -101 120.5s-178.666 31.5 -333.999 31.5c-20.667 0 -30.667 9 -30 27v50c0 18.667 10 27.667 30 27c268.667 0 403.334 48.667 404.001 146c0 48.667 -27 83.167 -81 103.5s-133.667 30.5 -239 30.5
c-108.667 0 -189 -13 -241 -39s-78 -69 -78 -129c0 -18.667 -10.333 -27 -31 -25l-88 8c-20.667 2 -31 11.333 -31 28c0 94.667 40.333 163.834 121 207.501s198 65.5 352 65.5c147.333 0 261 -19.667 341 -59s120 -98.333 120 -177c0 -53.333 -21.5 -97.333 -64.5 -132
s-97.833 -59.667 -164.5 -75zM1239 686.004c9.33301 0 16.833 -2.66699 22.5 -8s8.5 -13 8.5 -23v-57c0 -9.33301 -2.83301 -16.833 -8.5 -22.5s-13.167 -8.5 -22.5 -8.5h-1167c-9.33301 0 -16.833 2.83301 -22.5 8.5s-8.5 13.167 -8.5 22.5v57
c0 9.33301 2.66699 16.833 8 22.5s13 8.5 23 8.5h1167zM955.998 478.004c8.66699 0 15.999 -2.5 21.999 -7.5s9 -11.167 9 -18.5v-401h143c20.667 0 31 -8.66699 31 -26v-62c0 -18 -10.333 -26.667 -31 -26h-143v-299c0 -18 -10.333 -27 -31 -27h-92
c-20.667 0 -30.667 9 -30 27v299h-656c-20.667 0 -31 8.66699 -31 26v489c0 7.33301 3 13.5 9 18.5s13.333 7.5 22 7.5h92c8.66699 0 16 -2.5 22 -7.5s9 -11.167 9 -18.5v-401h533v401c0 7.33301 2.83301 13.5 8.5 18.5s12.834 7.5 21.501 7.5h92z" />
    <glyph glyph-name="questiondown" unicode="&#xbf;" horiz-adv-x="1259"
d="M695.5 1092c36.333 0 66.502 -12.334 90.502 -37.001s36 -54.667 36 -90c0 -36 -12.167 -66.5 -36.5 -91.5s-54.333 -37.5 -90 -37.5s-65.834 12.333 -90.501 37s-37 55.334 -37 92.001c0 35.333 12.167 65.333 36.5 90s54.666 37 90.999 37zM732.002 708.999
c20.667 0 31 -10.9961 31 -32.9961c0.666992 -75.333 -7.16602 -140.166 -23.499 -194.499s-37.666 -95.833 -63.999 -124.5s-55.5 -52.834 -87.5 -72.501s-64.333 -36.334 -97 -50.001s-62.334 -28.834 -89.001 -45.501s-48.334 -40 -65.001 -70s-25 -67.667 -25 -113
c0 -76 25.167 -137 75.5 -183s127.833 -69 232.5 -69c103.333 0 183 21.833 239 65.5s84 105.167 84 184.5c0 21.333 10.333 31 31 29l86 -8c20.667 -2 31 -13 31 -33c0 -122 -40.333 -215.333 -121 -280s-194 -97 -340 -97c-150.667 0 -265.167 35.667 -343.5 107
s-117.5 166 -117.5 284c0 47.333 5.16699 88.833 15.5 124.5s24 64.667 41 87s36.667 41.666 59 57.999s45.833 30.666 70.5 42.999l74 37c24.667 12.333 48 27 70 44s41.667 37 59 60s30.833 52.833 40.5 89.5s14.5 79.667 14.5 129c0 20.667 10.333 31 31 31h88z" />
    <glyph glyph-name="Agrave" unicode="&#xc0;" horiz-adv-x="1384"
d="M616 1571l-122 258c-4.66699 10.667 -4.66699 19.167 0 25.5s12.667 9.5 24 9.5h68c16 0 27.667 -8.33301 35 -25l122 -258c4.66699 -10.667 4.66699 -19.167 0 -25.5s-12.667 -9.5 -24 -9.5h-68c-16 0 -27.667 8.33301 -35 25zM1305 35
c4 -10 3.66602 -18.333 -1.00098 -25s-12.667 -10 -24 -10h-98c-17.333 -0 -29 8.33301 -35 25l-110 292h-690l-109 -292c-6 -16.667 -17.667 -25 -35 -25h-99c-11.333 0 -19.166 3.16699 -23.499 9.5s-4.5 14.833 -0.5 25.5l524 1374c6 16.667 18.333 25 37 25h102
c18.667 0 31 -8.33301 37 -25zM399.999 461h584l-292 778z" />
    <glyph glyph-name="Aacute" unicode="&#xc1;" horiz-adv-x="1384"
d="M664 1546c-11.333 0 -19.5 3.16699 -24.5 9.5s-5.16699 14.833 -0.5 25.5l123 258c7.33301 16.667 19 25 35 25h67c11.333 0 19.5 -3.16699 24.5 -9.5s5.16699 -14.833 0.5 -25.5l-123 -258c-7.33301 -16.667 -19 -25 -35 -25h-67zM1305 35
c4 -10 3.66602 -18.333 -1.00098 -25s-12.667 -10 -24 -10h-98c-17.333 -0 -29 8.33301 -35 25l-110 292h-690l-109 -292c-6 -16.667 -17.667 -25 -35 -25h-99c-11.333 0 -19.166 3.16699 -23.499 9.5s-4.5 14.833 -0.5 25.5l524 1374c6 16.667 18.333 25 37 25h102
c18.667 0 31 -8.33301 37 -25zM399.999 461h584l-292 778z" />
    <glyph glyph-name="Acircumflex" unicode="&#xc2;" horiz-adv-x="1384"
d="M371 1589c-12.667 0 -20.667 3.83301 -24 11.5s-1 16.167 7 25.5l232 258c8.66699 10.667 21 16.334 37 17.001h139c16 0 28.333 -5.66699 37 -17l231 -258c8 -9.33301 10.5 -17.833 7.5 -25.5s-10.833 -11.5 -23.5 -11.5h-99c-11.333 0 -23.333 5.66699 -36 17l-187 184
l-186 -184c-12.667 -10.667 -25 -16.334 -37 -17.001h-98zM1305 35c4 -10 3.66602 -18.333 -1.00098 -25s-12.667 -10 -24 -10h-98c-17.333 -0 -29 8.33301 -35 25l-110 292h-690l-109 -292c-6 -16.667 -17.667 -25 -35 -25h-99c-11.333 0 -19.166 3.16699 -23.499 9.5
s-4.5 14.833 -0.5 25.5l524 1374c6 16.667 18.333 25 37 25h102c18.667 0 31 -8.33301 37 -25zM399.999 461h584l-292 778z" />
    <glyph glyph-name="Atilde" unicode="&#xc3;" horiz-adv-x="1384"
d="M385 1720c-14.667 0 -20.6641 8.33301 -17.9971 25c6 50.667 24.833 89.667 56.5 117s73.5 41 125.5 41c27.333 0 53 -4.83301 77 -14.5s44.5 -21.5 61.5 -35.5l49 -42c15.667 -14 32.5 -25.833 50.5 -35.5s36.333 -14.5 55 -14.5c44 0 73.333 21.333 88 64
c4 12 11.333 18 22 18h49c6 0 11.167 -1.83301 15.5 -5.5s6.16602 -8.5 5.49902 -14.5c-8 -52 -27.833 -92 -59.5 -120s-71.834 -42 -120.501 -42c-27.333 0 -53 4.83301 -77 14.5s-44.667 21.5 -62 35.5l-50 42c-16 14 -33 25.667 -51 35s-35.667 14 -53 14
c-46.667 0 -77.334 -21 -92.001 -63c-4 -12 -11.667 -18.333 -23 -19h-49zM1305 35c4 -10 3.66602 -18.333 -1.00098 -25s-12.667 -10 -24 -10h-98c-17.333 -0 -29 8.33301 -35 25l-110 292h-690l-109 -292c-6 -16.667 -17.667 -25 -35 -25h-99
c-11.333 0 -19.166 3.16699 -23.499 9.5s-4.5 14.833 -0.5 25.5l524 1374c6 16.667 18.333 25 37 25h102c18.667 0 31 -8.33301 37 -25zM400.002 461h584l-292 778z" />
    <glyph glyph-name="Adieresis" unicode="&#xc4;" horiz-adv-x="1384"
d="M506 1706c-24.667 0 -45.834 8.83301 -63.501 26.5s-26.5 38.834 -26.5 63.501c0 24 8.83301 44.667 26.5 62s38.834 26 63.501 26s45.834 -8.66699 63.501 -26s26.5 -38 26.5 -62c0 -24.667 -8.83301 -45.834 -26.5 -63.501s-38.834 -26.5 -63.501 -26.5zM881 1706
c-24.667 0 -45.834 8.83301 -63.501 26.5s-26.5 38.834 -26.5 63.501c0 24 8.83301 44.667 26.5 62s38.834 26 63.501 26s45.834 -8.66699 63.501 -26s26.5 -38 26.5 -62c0 -24.667 -8.83301 -45.834 -26.5 -63.501s-38.834 -26.5 -63.501 -26.5zM1305 35
c4 -10 3.66602 -18.333 -1.00098 -25s-12.667 -10 -24 -10h-98c-17.333 -0 -29 8.33301 -35 25l-110 292h-690l-109 -292c-6 -16.667 -17.667 -25 -35 -25h-99c-11.333 0 -19.166 3.16699 -23.499 9.5s-4.5 14.833 -0.5 25.5l524 1374c6 16.667 18.333 25 37 25h102
c18.667 0 31 -8.33301 37 -25zM399.999 461h584l-292 778z" />
    <glyph glyph-name="Aring" unicode="&#xc5;" horiz-adv-x="1384"
d="M692 1563c-50.667 0 -93.334 17.5 -128.001 52.5s-52 76.833 -52 125.5s17.333 90.5 52 125.5s77.334 52.5 128.001 52.5s93.334 -17.5 128.001 -52.5s52 -76.833 52 -125.5s-17.333 -90.5 -52 -125.5s-77.334 -52.5 -128.001 -52.5zM692 1817
c-22 0 -40.5 -7.33301 -55.5 -22s-22.5 -32.667 -22.5 -54s7.5 -39.333 22.5 -54s33.5 -22 55.5 -22s40.5 7.33301 55.5 22s22.5 32.667 22.5 54s-7.5 39.333 -22.5 54s-33.5 22 -55.5 22zM1305 35c4 -10 3.66602 -18.333 -1.00098 -25s-12.667 -10 -24 -10h-98
c-17.333 -0 -29 8.33301 -35 25l-110 292h-690l-109 -292c-6 -16.667 -17.667 -25 -35 -25h-99c-11.333 0 -19.166 3.16699 -23.499 9.5s-4.5 14.833 -0.5 25.5l524 1374c6 16.667 18.333 25 37 25h102c18.667 0 31 -8.33301 37 -25zM399.999 461h584l-292 778z" />
    <glyph glyph-name="AE" unicode="&#xc6;"
d="M1208 147c9.33301 0 16.8301 -2.66797 22.4971 -8.00098s8.5 -12.666 8.5 -21.999v-86c0 -9.33301 -2.66699 -16.833 -8 -22.5s-13 -8.5 -23 -8.5h-506c-9.33301 0 -16.666 2.66699 -21.999 8s-8 13 -8 23v198h-365l-78 -204c-7.33301 -16.667 -18.666 -25 -33.999 -25
h-95c-11.333 0 -19.166 3.16699 -23.499 9.5s-4.5 14.833 -0.5 25.5l534 1374c6 16.667 18.333 25 37 25h559c9.33301 0 16.833 -2.83301 22.5 -8.5s8.5 -13.167 8.5 -22.5v-86c0 -9.33301 -2.66699 -16.833 -8 -22.5s-13 -8.5 -23 -8.5h-381v-452h336
c9.33301 0 16.833 -2.83301 22.5 -8.5s8.5 -13.167 8.5 -22.5v-86c0 -9.33301 -2.66699 -16.833 -8 -22.5s-13 -8.5 -23 -8.5h-336v-539h383zM360.997 370.999h311v811z" />
    <glyph glyph-name="Ccedilla" unicode="&#xc7;" horiz-adv-x="1467"
d="M1276 274l63 -65.002c14.667 -14.667 14 -29 -2 -43c-133.333 -124 -288.333 -188.333 -465 -193l-51 -52c46.667 -4 85.834 -20.167 117.501 -48.5s47.5 -65.166 47.5 -110.499c0 -53.333 -16 -96.5 -48 -129.5s-70.667 -54.167 -116 -63.5
s-93.666 -9.66602 -144.999 -0.999023c-12 2 -18.333 9.33301 -19 22v58c0 6.66699 2.16699 11.834 6.5 15.501s9.83301 5.16699 16.5 4.5c56 -8 100.333 -4.16699 133 11.5s49 39.834 49 72.501c0 20 -8.33301 37 -25 51s-38.5 22.167 -65.5 24.5
s-56.833 -2.83398 -89.5 -15.501c-7.33301 -2.66699 -13.333 -2.83398 -18 -0.500977s-7 7.16602 -7 14.499v53c0 7.33301 3.66699 15.666 11 24.999l72 78c-176 27.333 -321.333 109.333 -436 246s-172 297.667 -172 483c0 101.333 18.667 197.666 56 288.999
s87.833 169.833 151.5 235.5s140 117.834 229 156.501s183.833 58 284.5 58c179.333 0 340.333 -64.333 483 -193c16.667 -13.333 17.334 -27.666 2.00098 -42.999l-63 -65c-12.667 -12.667 -27 -12.667 -43 0c-112 96.667 -238.333 145 -379 145
c-102 0 -195.833 -25.167 -281.5 -75.5s-153.334 -120.333 -203.001 -210s-74.5 -188.834 -74.5 -297.501c0 -81.333 14.667 -158.166 44 -230.499s69.166 -134.166 119.499 -185.499s109.666 -91.833 177.999 -121.5s140.833 -44.5 217.5 -44.5
c140.667 0 267 48.333 379 145c16 12.667 30.333 12.667 43 0z" />
    <glyph glyph-name="Egrave" unicode="&#xc8;" horiz-adv-x="1244"
d="M461 1864h67c16 0 27.667 -8.33301 35 -25l123 -258c4.66699 -10.667 4.66699 -19.167 0 -25.5s-12.667 -9.5 -24 -9.5h-68c-16 0 -27.667 8.33301 -35 25l-123 258c-4.66699 10.667 -4.5 19.167 0.5 25.5s13.167 9.5 24.5 9.5zM1075 147
c9.33301 0 16.833 -2.66895 22.5 -8.00195s8.5 -12.666 8.5 -21.999v-86c0 -9.33301 -2.66699 -16.833 -8 -22.5s-13 -8.5 -23 -8.5h-870c-9.33301 0 -16.833 2.66699 -22.5 8s-8.5 13 -8.5 23v1372c0 9.33301 2.66699 16.833 8 22.5s13 8.5 23 8.5h868
c9.33301 0 16.833 -2.83301 22.5 -8.5s8.5 -13.167 8.5 -22.5v-86c0 -9.33301 -2.83301 -16.833 -8.5 -22.5s-13.167 -8.5 -22.5 -8.5h-739v-459h684c9.33301 0 16.833 -2.66699 22.5 -8s8.5 -12.666 8.5 -21.999v-86c0 -9.33301 -2.83301 -16.833 -8.5 -22.5
s-13.167 -8.5 -22.5 -8.5h-684v-533h741z" />
    <glyph glyph-name="Eacute" unicode="&#xc9;" horiz-adv-x="1244"
d="M807 1864c11.333 0 19.501 -3.16699 24.501 -9.5s4.83301 -14.833 -0.5 -25.5l-122 -258c-7.33301 -16.667 -19 -25 -35 -25h-68c-11.333 0 -19.5 3.16699 -24.5 9.5s-4.83301 14.833 0.5 25.5l123 258c7.33301 16.667 18.666 25 33.999 25h68zM1075 147
c9.33301 0 16.833 -2.66895 22.5 -8.00195s8.5 -12.666 8.5 -21.999v-86c0 -9.33301 -2.66699 -16.833 -8 -22.5s-13 -8.5 -23 -8.5h-870c-9.33301 0 -16.833 2.66699 -22.5 8s-8.5 13 -8.5 23v1372c0 9.33301 2.66699 16.833 8 22.5s13 8.5 23 8.5h868
c9.33301 0 16.833 -2.83301 22.5 -8.5s8.5 -13.167 8.5 -22.5v-86c0 -9.33301 -2.83301 -16.833 -8.5 -22.5s-13.167 -8.5 -22.5 -8.5h-739v-459h684c9.33301 0 16.833 -2.66699 22.5 -8s8.5 -12.666 8.5 -21.999v-86c0 -9.33301 -2.83301 -16.833 -8.5 -22.5
s-13.167 -8.5 -22.5 -8.5h-684v-533h741z" />
    <glyph glyph-name="Ecircumflex" unicode="&#xca;" horiz-adv-x="1244"
d="M705 1901c16 0 27.999 -5.66699 35.999 -17l232 -258c8 -9.33301 10.5 -17.833 7.5 -25.5s-11.167 -11.5 -24.5 -11.5h-98c-11.333 0 -23.666 5.66699 -36.999 17l-186 184l-186 -184c-12.667 -10.667 -25 -16.334 -37 -17.001h-99c-12.667 0 -20.5 3.83301 -23.5 11.5
s-0.5 16.167 7.5 25.5l231 258c8.66699 10.667 21 16.334 37 17.001h140zM1075 147c9.33301 0 16.833 -2.66895 22.5 -8.00195s8.5 -12.666 8.5 -21.999v-86c0 -9.33301 -2.66699 -16.833 -8 -22.5s-13 -8.5 -23 -8.5h-870c-9.33301 0 -16.833 2.66699 -22.5 8
s-8.5 13 -8.5 23v1372c0 9.33301 2.66699 16.833 8 22.5s13 8.5 23 8.5h868c9.33301 0 16.833 -2.83301 22.5 -8.5s8.5 -13.167 8.5 -22.5v-86c0 -9.33301 -2.83301 -16.833 -8.5 -22.5s-13.167 -8.5 -22.5 -8.5h-739v-459h684c9.33301 0 16.833 -2.66699 22.5 -8
s8.5 -12.666 8.5 -21.999v-86c0 -9.33301 -2.83301 -16.833 -8.5 -22.5s-13.167 -8.5 -22.5 -8.5h-684v-533h741z" />
    <glyph glyph-name="Edieresis" unicode="&#xcb;" horiz-adv-x="1244"
d="M448.5 1706c-24.333 0 -45.5 8.83301 -63.5 26.5s-27 38.834 -27 63.501c0 24 9 44.667 27 62s39.167 26 63.5 26s45.5 -8.66699 63.5 -26s27 -38 27 -62c0 -24.667 -9 -45.834 -27 -63.501s-39.167 -26.5 -63.5 -26.5zM823 1706c-24.667 0 -45.834 8.83301 -63.501 26.5
s-26.5 38.834 -26.5 63.501c0 24 8.83301 44.667 26.5 62s38.834 26 63.501 26s45.834 -8.66699 63.501 -26s26.5 -38 26.5 -62c0 -24.667 -8.83301 -45.834 -26.5 -63.501s-38.834 -26.5 -63.501 -26.5zM1075 147c9.33301 0 16.833 -2.66895 22.5 -8.00195
s8.5 -12.666 8.5 -21.999v-86c0 -9.33301 -2.66699 -16.833 -8 -22.5s-13 -8.5 -23 -8.5h-870c-9.33301 0 -16.833 2.66699 -22.5 8s-8.5 13 -8.5 23v1372c0 9.33301 2.66699 16.833 8 22.5s13 8.5 23 8.5h868c9.33301 0 16.833 -2.83301 22.5 -8.5s8.5 -13.167 8.5 -22.5
v-86c0 -9.33301 -2.83301 -16.833 -8.5 -22.5s-13.167 -8.5 -22.5 -8.5h-739v-459h684c9.33301 0 16.833 -2.66699 22.5 -8s8.5 -12.666 8.5 -21.999v-86c0 -9.33301 -2.83301 -16.833 -8.5 -22.5s-13.167 -8.5 -22.5 -8.5h-684v-533h741z" />
    <glyph glyph-name="Igrave" unicode="&#xcc;"
d="M481 1864h68c16 0 27.667 -8.33301 35 -25l123 -258c4.66699 -10.667 4.5 -19.167 -0.5 -25.5s-13.167 -9.5 -24.5 -9.5h-68c-16 0 -27.333 8.33301 -34 25l-123 258c-4.66699 10.667 -4.66699 19.167 0 25.5s12.667 9.5 24 9.5zM1132 1286h-397v-1139h397
c8.66699 0 15.834 -2.66699 21.501 -8s8.5 -12.666 8.5 -21.999v-86c0 -9.33301 -2.83301 -16.833 -8.5 -22.5s-12.834 -8.5 -21.501 -8.5h-953c-8.66699 0 -16 2.66699 -22 8s-9 13 -9 23v86c0 9.33301 3 16.666 9 21.999s13.333 8 22 8h396v1139h-396
c-8.66699 0 -16 2.83301 -22 8.5s-9 13.167 -9 22.5v86c0 9.33301 3 16.833 9 22.5s13.333 8.5 22 8.5h953c8.66699 0 15.834 -2.83301 21.501 -8.5s8.5 -13.167 8.5 -22.5v-86c0 -9.33301 -2.83301 -16.833 -8.5 -22.5s-12.834 -8.5 -21.501 -8.5z" />
    <glyph glyph-name="Iacute" unicode="&#xcd;"
d="M827 1864c11.333 0 19.5 -3.16699 24.5 -9.5s5.16699 -14.833 0.5 -25.5l-123 -258c-7.33301 -16.667 -19 -25 -35 -25h-67c-11.333 0 -19.5 3.16699 -24.5 9.5s-5.16699 14.833 -0.5 25.5l123 258c7.33301 16.667 19 25 35 25h67zM1132 1286h-397v-1139h397
c8.66699 0 15.834 -2.66699 21.501 -8s8.5 -12.666 8.5 -21.999v-86c0 -9.33301 -2.83301 -16.833 -8.5 -22.5s-12.834 -8.5 -21.501 -8.5h-953c-8.66699 0 -16 2.66699 -22 8s-9 13 -9 23v86c0 9.33301 3 16.666 9 21.999s13.333 8 22 8h396v1139h-396
c-8.66699 0 -16 2.83301 -22 8.5s-9 13.167 -9 22.5v86c0 9.33301 3 16.833 9 22.5s13.333 8.5 22 8.5h953c8.66699 0 15.834 -2.83301 21.501 -8.5s8.5 -13.167 8.5 -22.5v-86c0 -9.33301 -2.83301 -16.833 -8.5 -22.5s-12.834 -8.5 -21.501 -8.5z" />
    <glyph glyph-name="Icircumflex" unicode="&#xce;"
d="M725 1901c16 0 28.332 -5.66699 36.999 -17l231 -258c8 -9.33301 10.5 -17.833 7.5 -25.5s-10.833 -11.5 -23.5 -11.5h-98c-11.333 0 -23.666 5.66699 -36.999 17l-187 184l-186 -184c-12.667 -10.667 -25 -16.334 -37 -17.001h-98c-12.667 0 -20.667 3.83301 -24 11.5
s-1 16.167 7 25.5l232 258c8.66699 10.667 21 16.334 37 17.001h139zM1132 1286h-397v-1139h397c8.66699 0 15.834 -2.66699 21.501 -8s8.5 -12.666 8.5 -21.999v-86c0 -9.33301 -2.83301 -16.833 -8.5 -22.5s-12.834 -8.5 -21.501 -8.5h-953c-8.66699 0 -16 2.66699 -22 8
s-9 13 -9 23v86c0 9.33301 3 16.666 9 21.999s13.333 8 22 8h396v1139h-396c-8.66699 0 -16 2.83301 -22 8.5s-9 13.167 -9 22.5v86c0 9.33301 3 16.833 9 22.5s13.333 8.5 22 8.5h953c8.66699 0 15.834 -2.83301 21.501 -8.5s8.5 -13.167 8.5 -22.5v-86
c0 -9.33301 -2.83301 -16.833 -8.5 -22.5s-12.834 -8.5 -21.501 -8.5z" />
    <glyph glyph-name="Idieresis" unicode="&#xcf;"
d="M469 1706c-24.667 0 -45.834 8.83301 -63.501 26.5s-26.5 38.834 -26.5 63.501c0 24 8.83301 44.667 26.5 62s38.834 26 63.501 26s45.834 -8.66699 63.501 -26s26.5 -38 26.5 -62c0 -24.667 -8.83301 -45.834 -26.5 -63.501s-38.834 -26.5 -63.501 -26.5zM844 1706
c-24.667 0 -45.834 8.83301 -63.501 26.5s-26.5 38.834 -26.5 63.501c0 24 8.83301 44.667 26.5 62s38.834 26 63.501 26s45.834 -8.66699 63.501 -26s26.5 -38 26.5 -62c0 -24.667 -8.83301 -45.834 -26.5 -63.501s-38.834 -26.5 -63.501 -26.5zM1132 1286h-397v-1139h397
c8.66699 0 15.834 -2.66699 21.501 -8s8.5 -12.666 8.5 -21.999v-86c0 -9.33301 -2.83301 -16.833 -8.5 -22.5s-12.834 -8.5 -21.501 -8.5h-953c-8.66699 0 -16 2.66699 -22 8s-9 13 -9 23v86c0 9.33301 3 16.666 9 21.999s13.333 8 22 8h396v1139h-396
c-8.66699 0 -16 2.83301 -22 8.5s-9 13.167 -9 22.5v86c0 9.33301 3 16.833 9 22.5s13.333 8.5 22 8.5h953c8.66699 0 15.834 -2.83301 21.501 -8.5s8.5 -13.167 8.5 -22.5v-86c0 -9.33301 -2.83301 -16.833 -8.5 -22.5s-12.834 -8.5 -21.501 -8.5z" />
    <glyph glyph-name="Eth" unicode="&#xd0;"
d="M501 1434c121.333 0 230 -18.333 326 -55s174.5 -87.5 235.5 -152.5s107.5 -140.667 139.5 -227s48 -180.666 48 -282.999s-16 -196.666 -48 -282.999s-78.5 -161.833 -139.5 -226.5s-139.5 -115.334 -235.5 -152.001s-204.667 -55 -326 -55h-322
c-8.66699 0 -16 2.66699 -22 8s-9 13 -9 23v622h-20c-8.66699 0 -16 2.83301 -22 8.5s-9 13.167 -9 22.5v66c0 9.33301 3 16.666 9 21.999s13.333 8 22 8h20v623c0 9.33301 3 16.833 9 22.5s13.333 8.5 22 8.5h322zM501 147c193.333 0 339.666 49.999 438.999 149.999
s149 239.833 149 419.5s-49.667 319.5 -149 419.5s-245.666 150 -438.999 150h-193v-506h332c8.66699 0 16 -2.66699 22 -8s9 -12.666 9 -21.999v-66c0 -9.33301 -3 -16.833 -9 -22.5s-13.333 -8.5 -22 -8.5h-332v-506h193z" />
    <glyph glyph-name="Ntilde" unicode="&#xd1;" horiz-adv-x="1404"
d="M395 1720c-14.667 0 -20.667 8.33301 -18 25c6 50.667 24.833 89.667 56.5 117s73.5 41 125.5 41c27.333 0 53 -4.83301 77 -14.5s44.5 -21.5 61.5 -35.5l49 -42c15.667 -14 32.5 -25.833 50.5 -35.5s36.333 -14.5 55 -14.5c44 0 73.333 21.333 88 64
c4 12 11.667 18 23 18h49c6 0 11 -1.83301 15 -5.5s5.66699 -8.5 5 -14.5c-8 -52 -27.667 -92 -59 -120s-71.666 -42 -120.999 -42c-27.333 0 -53 4.83301 -77 14.5s-44.667 21.5 -62 35.5l-50 42c-16 14 -32.833 25.667 -50.5 35s-35.5 14 -53.5 14
c-46.667 0 -77.334 -21 -92.001 -63c-4 -12 -11.667 -18.333 -23 -19h-49zM1200 1434c9.33301 0 16.833 -2.83301 22.5 -8.5s8.5 -13.167 8.5 -22.5v-1372c0 -17.333 -8.33301 -27.666 -25 -30.999h-137c-17.333 0 -29.666 6.66699 -36.999 20l-698 1184v-1173
c0 -9.33301 -2.83301 -16.833 -8.5 -22.5s-13.167 -8.5 -22.5 -8.5h-98c-9.33301 0 -16.833 2.66699 -22.5 8s-8.5 13 -8.5 23v1372c0 17.333 8.33301 27.666 25 30.999h137c17.333 0 29.666 -7 36.999 -21l698 -1184v1174c0 9.33301 2.66699 16.833 8 22.5s13 8.5 23 8.5
h98z" />
    <glyph glyph-name="Ograve" unicode="&#xd2;" horiz-adv-x="1730"
d="M691 1864h68c16 0 27.667 -8.33301 35 -25l122 -258c4.66699 -10.667 4.66699 -19.167 0 -25.5s-12.667 -9.5 -24 -9.5h-68c-16 0 -27.333 8.33301 -34 25l-123 258c-4.66699 10.667 -4.66699 19.167 0 25.5s12.667 9.5 24 9.5zM866 -27
c-100 0 -195.168 19.3359 -285.501 58.0029s-168.166 91 -233.499 157s-117.333 144.5 -156 235.5s-58 186.833 -58 287.5c0 135.333 32.833 259.5 98.5 372.5s154.667 202.333 267 268s234.833 98.5 367.5 98.5c98.667 0 193.167 -19.333 283.5 -58
s168.333 -90.834 234 -156.501s117.667 -144.334 156 -236.001s57.5 -187.834 57.5 -288.501s-19.167 -196.5 -57.5 -287.5s-90.333 -169.5 -156 -235.5s-143.667 -118.333 -234 -157s-184.833 -58 -283.5 -58zM866.499 123.003c79 0 154 15.333 225 46
s132.167 72.167 183.5 124.5s92 114.833 122 187.5s45 149.334 45 230.001c0 108 -25.5 207.167 -76.5 297.5s-120.5 161.5 -208.5 213.5s-185 78 -291 78c-106.667 0 -204.167 -26 -292.5 -78s-157.833 -123.167 -208.5 -213.5s-76 -189.5 -76 -297.5
c0 -80.667 15 -157.334 45 -230.001s70.5 -135.167 121.5 -187.5s112.5 -93.833 184.5 -124.5s147.5 -46 226.5 -46z" />
    <glyph glyph-name="Oacute" unicode="&#xd3;" horiz-adv-x="1730"
d="M1037 1864c11.333 0 19.5 -3.16699 24.5 -9.5s5.16699 -14.833 0.5 -25.5l-123 -258c-7.33301 -16.667 -19 -25 -35 -25h-67c-11.333 0 -19.5 3.16699 -24.5 9.5s-5.16699 14.833 -0.5 25.5l123 258c7.33301 16.667 19 25 35 25h67zM866 -27
c-100 0 -195.168 19.3359 -285.501 58.0029s-168.166 91 -233.499 157s-117.333 144.5 -156 235.5s-58 186.833 -58 287.5c0 135.333 32.833 259.5 98.5 372.5s154.667 202.333 267 268s234.833 98.5 367.5 98.5c98.667 0 193.167 -19.333 283.5 -58
s168.333 -90.834 234 -156.501s117.667 -144.334 156 -236.001s57.5 -187.834 57.5 -288.501s-19.167 -196.5 -57.5 -287.5s-90.333 -169.5 -156 -235.5s-143.667 -118.333 -234 -157s-184.833 -58 -283.5 -58zM866.499 123.003c79 0 154 15.333 225 46
s132.167 72.167 183.5 124.5s92 114.833 122 187.5s45 149.334 45 230.001c0 108 -25.5 207.167 -76.5 297.5s-120.5 161.5 -208.5 213.5s-185 78 -291 78c-106.667 0 -204.167 -26 -292.5 -78s-157.833 -123.167 -208.5 -213.5s-76 -189.5 -76 -297.5
c0 -80.667 15 -157.334 45 -230.001s70.5 -135.167 121.5 -187.5s112.5 -93.833 184.5 -124.5s147.5 -46 226.5 -46z" />
    <glyph glyph-name="Ocircumflex" unicode="&#xd4;" horiz-adv-x="1730"
d="M935 1901c16 0 28.332 -5.66699 36.999 -17l231 -258c8 -9.33301 10.5 -17.833 7.5 -25.5s-10.833 -11.5 -23.5 -11.5h-98c-11.333 0 -23.666 5.66699 -36.999 17l-187 184l-186 -184c-12.667 -10.667 -25 -16.334 -37 -17.001h-98c-12.667 0 -20.667 3.83301 -24 11.5
s-1 16.167 7 25.5l232 258c8.66699 10.667 21 16.334 37 17.001h139zM865.999 -27c-100 0 -195.168 19.3359 -285.501 58.0029s-168.166 91 -233.499 157s-117.333 144.5 -156 235.5s-58 186.833 -58 287.5c0 135.333 32.833 259.5 98.5 372.5s154.667 202.333 267 268
s234.833 98.5 367.5 98.5c98.667 0 193.167 -19.333 283.5 -58s168.333 -90.834 234 -156.501s117.667 -144.334 156 -236.001s57.5 -187.834 57.5 -288.501s-19.167 -196.5 -57.5 -287.5s-90.333 -169.5 -156 -235.5s-143.667 -118.333 -234 -157s-184.833 -58 -283.5 -58z
M866.498 123.003c79 0 154 15.333 225 46s132.167 72.167 183.5 124.5s92 114.833 122 187.5s45 149.334 45 230.001c0 108 -25.5 207.167 -76.5 297.5s-120.5 161.5 -208.5 213.5s-185 78 -291 78c-106.667 0 -204.167 -26 -292.5 -78s-157.833 -123.167 -208.5 -213.5
s-76 -189.5 -76 -297.5c0 -80.667 15 -157.334 45 -230.001s70.5 -135.167 121.5 -187.5s112.5 -93.833 184.5 -124.5s147.5 -46 226.5 -46z" />
    <glyph glyph-name="Otilde" unicode="&#xd5;" horiz-adv-x="1730"
d="M722 1903c27.333 0 53 -4.83301 77 -14.5s44.5 -21.5 61.5 -35.5l49 -42c15.667 -14 32.5 -25.833 50.5 -35.5s36.333 -14.5 55 -14.5c44 0 73.333 21.333 88 64c4 12 11.333 18 22 18h50c6 0 11 -1.83301 15 -5.5s5.66699 -8.5 5 -14.5c-8 -52 -27.667 -92 -59 -120
s-71.666 -42 -120.999 -42c-27.333 0 -53 4.83301 -77 14.5s-44.667 21.5 -62 35.5l-50 42c-16 14 -32.833 25.667 -50.5 35s-35.5 14 -53.5 14c-46.667 0 -77.334 -21 -92.001 -63c-4 -12 -11.667 -18.333 -23 -19h-49c-14.667 0 -20.667 8.33301 -18 25
c6 50.667 24.833 89.667 56.5 117s73.5 41 125.5 41zM866 -27c-100 0 -195.168 19.3359 -285.501 58.0029s-168.166 91 -233.499 157s-117.333 144.5 -156 235.5s-58 186.833 -58 287.5c0 135.333 32.833 259.5 98.5 372.5s154.667 202.333 267 268s234.833 98.5 367.5 98.5
c98.667 0 193.167 -19.333 283.5 -58s168.333 -90.834 234 -156.501s117.667 -144.334 156 -236.001s57.5 -187.834 57.5 -288.501s-19.167 -196.5 -57.5 -287.5s-90.333 -169.5 -156 -235.5s-143.667 -118.333 -234 -157s-184.833 -58 -283.5 -58zM866.499 123.003
c79 0 154 15.333 225 46s132.167 72.167 183.5 124.5s92 114.833 122 187.5s45 149.334 45 230.001c0 108 -25.5 207.167 -76.5 297.5s-120.5 161.5 -208.5 213.5s-185 78 -291 78c-106.667 0 -204.167 -26 -292.5 -78s-157.833 -123.167 -208.5 -213.5
s-76 -189.5 -76 -297.5c0 -80.667 15 -157.334 45 -230.001s70.5 -135.167 121.5 -187.5s112.5 -93.833 184.5 -124.5s147.5 -46 226.5 -46z" />
    <glyph glyph-name="Odieresis" unicode="&#xd6;" horiz-adv-x="1730"
d="M679 1706c-24.667 0 -45.834 8.83301 -63.501 26.5s-26.5 38.834 -26.5 63.501c0 24 8.83301 44.667 26.5 62s38.834 26 63.501 26s45.834 -8.66699 63.501 -26s26.5 -38 26.5 -62c0 -24.667 -8.83301 -45.834 -26.5 -63.501s-38.834 -26.5 -63.501 -26.5zM1054 1706
c-24.667 0 -45.834 8.83301 -63.501 26.5s-26.5 38.834 -26.5 63.501c0 24 8.83301 44.667 26.5 62s38.834 26 63.501 26s45.834 -8.66699 63.501 -26s26.5 -38 26.5 -62c0 -24.667 -8.83301 -45.834 -26.5 -63.501s-38.834 -26.5 -63.501 -26.5zM866 -27
c-100 0 -195.168 19.3359 -285.501 58.0029s-168.166 91 -233.499 157s-117.333 144.5 -156 235.5s-58 186.833 -58 287.5c0 135.333 32.833 259.5 98.5 372.5s154.667 202.333 267 268s234.833 98.5 367.5 98.5c98.667 0 193.167 -19.333 283.5 -58
s168.333 -90.834 234 -156.501s117.667 -144.334 156 -236.001s57.5 -187.834 57.5 -288.501s-19.167 -196.5 -57.5 -287.5s-90.333 -169.5 -156 -235.5s-143.667 -118.333 -234 -157s-184.833 -58 -283.5 -58zM866.499 123.003c79 0 154 15.333 225 46
s132.167 72.167 183.5 124.5s92 114.833 122 187.5s45 149.334 45 230.001c0 108 -25.5 207.167 -76.5 297.5s-120.5 161.5 -208.5 213.5s-185 78 -291 78c-106.667 0 -204.167 -26 -292.5 -78s-157.833 -123.167 -208.5 -213.5s-76 -189.5 -76 -297.5
c0 -80.667 15 -157.334 45 -230.001s70.5 -135.167 121.5 -187.5s112.5 -93.833 184.5 -124.5s147.5 -46 226.5 -46z" />
    <glyph glyph-name="multiply" unicode="&#xd7;"
d="M684 653l214 -214c13.333 -14.667 13.333 -29.334 0 -44.001l-49 -49c-14.667 -13.333 -29.334 -13.333 -44.001 0l-214 214l-214 -214c-15.333 -13.333 -30 -13.333 -44 0l-49 49c-14.667 15.333 -14.667 30 0 44l214 214l-214 214
c-14.667 14.667 -14.667 29.334 0 44.001l49 50c14.667 15.333 29.334 15.333 44.001 0l214 -215l214 215c15.333 15.333 30 15.333 44 0l49 -50c13.333 -15.333 13.333 -30 0 -44z" />
    <glyph glyph-name="Oslash" unicode="&#xd8;" horiz-adv-x="1730"
d="M1230 1353c112 -64.667 201.165 -154.002 267.498 -268.002s99.5 -238.667 99.5 -374c0 -100.667 -19.167 -196.5 -57.5 -287.5s-90.333 -169.5 -156 -235.5s-143.5 -118.333 -233.5 -157s-184.667 -58 -284 -58c-82 0 -161.667 13.333 -239 40l-42 -93
c-5.33301 -15.333 -17 -22.666 -35 -21.999h-88c-11.333 0 -19.166 3.33301 -23.499 10s-4.16602 15.334 0.500977 26.001l62 137c-112 64.667 -201.333 153.667 -268 267s-100 237.5 -100 372.5s32.833 259.167 98.5 372.5s154.667 202.833 267 268.5
s234.833 98.5 367.5 98.5c80.667 0 160 -13.333 238 -40l42 93c5.33301 15.333 17 23 35 23h88c11.333 0 19 -3.5 23 -10.5s3.66699 -15.833 -1 -26.5zM288.998 710.998c0 -105.333 24.667 -202.333 74 -291s116 -159 200 -211l479 1064c-55.333 18.667 -114 27.667 -176 27
c-106.667 0 -204.167 -26 -292.5 -78s-157.833 -123 -208.5 -213s-76 -189.333 -76 -298zM865.998 122.998c79.333 0 154.5 15.3311 225.5 45.998s132.167 72.167 183.5 124.5s92 114.833 122 187.5s45 149.334 45 230.001c0 106.667 -24.667 204.334 -74 293.001
s-116 159 -200 211l-480 -1064c56 -18.667 115.333 -28 178 -28z" />
    <glyph glyph-name="Ugrave" unicode="&#xd9;" horiz-adv-x="1423"
d="M538 1864h67c16 0 27.667 -8.33301 35 -25l123 -258c4.66699 -10.667 4.66699 -19.167 0 -25.5s-13 -9.5 -25 -9.5h-67c-16 0 -27.667 8.33301 -35 25l-123 258c-4.66699 10.667 -4.5 19.167 0.5 25.5s13.167 9.5 24.5 9.5zM1254 1434c8.66699 0 16 -2.83301 22 -8.5
s9 -13.167 9 -22.5v-823c0 -200 -49.833 -351.667 -149.5 -455s-241 -155 -424 -155s-324.333 51.667 -424 155s-149.5 255 -149.5 455v823c0 9.33301 3 16.833 9 22.5s13.333 8.5 22 8.5h98c8.66699 0 16 -2.83301 22 -8.5s9 -13.167 9 -22.5v-823
c0 -152.667 36.667 -267.5 110 -344.5s174.5 -115.5 303.5 -115.5s230.167 38.333 303.5 115s110 191.667 110 345v823c0 9.33301 3 16.833 9 22.5s13.333 8.5 22 8.5h98z" />
    <glyph glyph-name="Uacute" unicode="&#xda;" horiz-adv-x="1423"
d="M884 1864c11.333 0 19.332 -3.16699 23.999 -9.5s4.66699 -14.833 0 -25.5l-123 -258c-7.33301 -16.667 -18.666 -25 -33.999 -25h-68c-11.333 0 -19.5 3.16699 -24.5 9.5s-5.16699 14.833 -0.5 25.5l123 258c7.33301 16.667 19 25 35 25h68zM1254 1434
c8.66699 0 16 -2.83301 22 -8.5s9 -13.167 9 -22.5v-823c0 -200 -49.833 -351.667 -149.5 -455s-241 -155 -424 -155s-324.333 51.667 -424 155s-149.5 255 -149.5 455v823c0 9.33301 3 16.833 9 22.5s13.333 8.5 22 8.5h98c8.66699 0 16 -2.83301 22 -8.5
s9 -13.167 9 -22.5v-823c0 -152.667 36.667 -267.5 110 -344.5s174.5 -115.5 303.5 -115.5s230.167 38.333 303.5 115s110 191.667 110 345v823c0 9.33301 3 16.833 9 22.5s13.333 8.5 22 8.5h98z" />
    <glyph glyph-name="Ucircumflex" unicode="&#xdb;" horiz-adv-x="1423"
d="M781 1901c16 0 28.3311 -5.66699 36.998 -17l232 -258c8 -9.33301 10.5 -17.833 7.5 -25.5s-11.167 -11.5 -24.5 -11.5h-98c-11.333 0 -23.666 5.66699 -36.999 17l-186 184l-187 -184c-12.667 -10.667 -25 -16.334 -37 -17.001h-98c-12.667 0 -20.667 3.83301 -24 11.5
s-0.666016 16.167 8.00098 25.5l231 258c8.66699 10.667 21 16.334 37 17.001h139zM1254 1434c8.66699 0 16 -2.83301 22 -8.5s9 -13.167 9 -22.5v-823c0 -200 -49.833 -351.667 -149.5 -455s-241 -155 -424 -155s-324.333 51.667 -424 155s-149.5 255 -149.5 455v823
c0 9.33301 3 16.833 9 22.5s13.333 8.5 22 8.5h98c8.66699 0 16 -2.83301 22 -8.5s9 -13.167 9 -22.5v-823c0 -152.667 36.667 -267.5 110 -344.5s174.5 -115.5 303.5 -115.5s230.167 38.333 303.5 115s110 191.667 110 345v823c0 9.33301 3 16.833 9 22.5
s13.333 8.5 22 8.5h98z" />
    <glyph glyph-name="Udieresis" unicode="&#xdc;" horiz-adv-x="1423"
d="M525 1706c-24.667 0 -45.834 8.83301 -63.501 26.5s-26.5 38.834 -26.5 63.501c0 24 8.83301 44.667 26.5 62s38.834 26 63.501 26s45.834 -8.66699 63.501 -26s26.5 -38 26.5 -62c0 -24.667 -8.83301 -45.834 -26.5 -63.501s-38.834 -26.5 -63.501 -26.5zM900 1706
c-24.667 0 -45.834 8.83301 -63.501 26.5s-26.5 38.834 -26.5 63.501c0 24 8.83301 44.667 26.5 62s38.834 26 63.501 26s45.834 -8.66699 63.501 -26s26.5 -38 26.5 -62c0 -24.667 -8.83301 -45.834 -26.5 -63.501s-38.834 -26.5 -63.501 -26.5zM1254 1434
c8.66699 0 16 -2.83301 22 -8.5s9 -13.167 9 -22.5v-823c0 -200 -49.833 -351.667 -149.5 -455s-241 -155 -424 -155s-324.333 51.667 -424 155s-149.5 255 -149.5 455v823c0 9.33301 3 16.833 9 22.5s13.333 8.5 22 8.5h98c8.66699 0 16 -2.83301 22 -8.5
s9 -13.167 9 -22.5v-823c0 -152.667 36.667 -267.5 110 -344.5s174.5 -115.5 303.5 -115.5s230.167 38.333 303.5 115s110 191.667 110 345v823c0 9.33301 3 16.833 9 22.5s13.333 8.5 22 8.5h98z" />
    <glyph glyph-name="Yacute" unicode="&#xdd;" horiz-adv-x="1392"
d="M668 1546c-11.333 0 -19.5 3.16699 -24.5 9.5s-5.16699 14.833 -0.5 25.5l123 258c7.33301 16.667 19 25 35 25h67c11.333 0 19.5 -3.16699 24.5 -9.5s5.16699 -14.833 0.5 -25.5l-123 -258c-7.33301 -16.667 -19 -25 -35 -25h-67zM1299 1434
c12 0 20.168 -3.66699 24.501 -11s3.16602 -16 -3.50098 -26l-544 -842v-524c0 -9.33301 -2.66699 -16.833 -8 -22.5s-13 -8.5 -23 -8.5h-98c-9.33301 0 -16.833 2.66699 -22.5 8s-8.5 13 -8.5 23v524l-543 842c-6.66699 10 -8 18.667 -4 26s12 11 24 11h116
c16 0 28.333 -7 37 -21l450 -698l451 698c8.66699 13.333 21 20.333 37 21h115z" />
    <glyph glyph-name="Thorn" unicode="&#xde;"
d="M653 1161c151.333 0 268 -41 350 -123s123 -189.167 123 -321.5s-40.833 -239.5 -122.5 -321.5s-198.5 -123 -350.5 -123h-309v-241c0 -9.33301 -2.66699 -16.833 -8 -22.5s-13 -8.5 -23 -8.5h-98c-9.33301 0 -16.833 2.66699 -22.5 8s-8.5 13 -8.5 23v1372
c0 9.33301 2.83301 16.833 8.5 22.5s13.167 8.5 22.5 8.5h98c9.33301 0 16.833 -2.83301 22.5 -8.5s8.5 -13.167 8.5 -22.5v-242h309zM639 420c102.667 0 183.667 23.667 243 71s89 122.5 89 225.5s-29.667 178.333 -89 226s-140.333 71.5 -243 71.5h-295v-594h295z" />
    <glyph glyph-name="germandbls" unicode="&#xdf;" horiz-adv-x="1244"
d="M814 776c106.667 -20.667 188 -61.998 244 -123.998s84 -142.667 84 -242c0 -150 -46.333 -255.833 -139 -317.5s-242.334 -92.5 -449.001 -92.5h-125c-8.66699 0 -16 2.66699 -22 8s-9 13 -9 23v69c0 9.33301 3 16.833 9 22.5s13.333 8.5 22 8.5h125
c80 0 145.333 3.83301 196 11.5s95.5 21.5 134.5 41.5s67 48.833 84 86.5s25.5 85.5 25.5 143.5c0 190 -146 284.667 -438 284h-127c-8.66699 0 -16 2.83301 -22 8.5s-9 13.167 -9 22.5v70c0 9.33301 3 16.666 9 21.999s13.333 8 22 8h127c118 0 206.833 20 266.5 60
s89.5 104 89.5 192c0 73.333 -25.167 128.166 -75.5 164.499s-131.5 54.5 -243.5 54.5c-113.333 0 -191.833 -21 -235.5 -63s-65.5 -102.667 -65.5 -182v-1024c0 -9.33301 -3 -16.833 -9 -22.5s-13.333 -8.5 -22 -8.5h-92c-8.66699 0 -16 2.66699 -22 8s-9 13 -9 23v1024
c0 252.667 151.667 379 455 379c155.333 0 272 -30.833 350 -92.5s117 -148.5 117 -260.5c0 -82 -20.667 -147.5 -62 -196.5s-102.666 -85.167 -183.999 -108.5z" />
    <glyph glyph-name="agrave" unicode="&#xe0;" horiz-adv-x="1258"
d="M549 1141l-123 258c-4.66699 10.667 -4.66699 19.167 0 25.5s13 9.5 25 9.5h67c16 0 27.667 -8.33301 35 -25l123 -258c4.66699 -10.667 4.66699 -19.167 0 -25.5s-13 -9.5 -25 -9.5h-67c-16 0 -27.667 8.33301 -35 25zM1121 127
c12 -1.33301 20.834 -4.6709 26.501 -10.0039s8.5 -14.666 8.5 -27.999v-60c0 -11.333 -3.5 -20.166 -10.5 -26.499s-19.833 -9.83301 -38.5 -10.5c-130 -6.66699 -195 47.333 -195 162c-61.333 -61.333 -133.166 -106.5 -215.499 -135.5s-162.5 -43.5 -240.5 -43.5
c-112.667 0 -196.334 25.667 -251.001 77s-82 120.333 -82 207c0 167.333 106.333 267 319 299l321 48c45.333 6.66699 77.166 13.334 95.499 20.001s29.5 15.334 33.5 26.001v1c0 84.667 -22.167 145.5 -66.5 182.5s-111.5 55.5 -201.5 55.5
c-180 0 -277.333 -56.667 -292 -170c-2 -16.667 -12.333 -25 -31 -25h-90c-21.333 0 -31 10.333 -29 31c20.667 199.333 168 299 442 299c278 0 416.667 -120.667 416 -362v-455c0 -48.667 27 -76 81 -82zM279.001 270.995c0 -106 66.999 -158.667 200.999 -158
c166 0 303.333 53.667 412 161v254c-3.33301 -10 -12.166 -17.5 -26.499 -22.5s-38.833 -10.5 -73.5 -16.5l-305 -46c-78.667 -12 -133 -31.833 -163 -59.5s-45 -65.167 -45 -112.5z" />
    <glyph glyph-name="aacute" unicode="&#xe1;" horiz-adv-x="1258"
d="M596 1116c-11.333 0 -19.501 3.16699 -24.501 9.5s-5.16699 14.833 -0.5 25.5l123 258c7.33301 16.667 19 25 35 25h68c11.333 0 19.333 -3.16699 24 -9.5s4.66699 -14.833 0 -25.5l-123 -258c-7.33301 -16.667 -18.666 -25 -33.999 -25h-68zM1121 127
c12 -1.33301 20.834 -4.6709 26.501 -10.0039s8.5 -14.666 8.5 -27.999v-60c0 -11.333 -3.5 -20.166 -10.5 -26.499s-19.833 -9.83301 -38.5 -10.5c-130 -6.66699 -195 47.333 -195 162c-61.333 -61.333 -133.166 -106.5 -215.499 -135.5s-162.5 -43.5 -240.5 -43.5
c-112.667 0 -196.334 25.667 -251.001 77s-82 120.333 -82 207c0 167.333 106.333 267 319 299l321 48c45.333 6.66699 77.166 13.334 95.499 20.001s29.5 15.334 33.5 26.001v1c0 84.667 -22.167 145.5 -66.5 182.5s-111.5 55.5 -201.5 55.5
c-180 0 -277.333 -56.667 -292 -170c-2 -16.667 -12.333 -25 -31 -25h-90c-21.333 0 -31 10.333 -29 31c20.667 199.333 168 299 442 299c278 0 416.667 -120.667 416 -362v-455c0 -48.667 27 -76 81 -82zM279 270.995c0 -106 66.999 -158.667 200.999 -158
c166 0 303.333 53.667 412 161v254c-3.33301 -10 -12.166 -17.5 -26.499 -22.5s-38.833 -10.5 -73.5 -16.5l-305 -46c-78.667 -12 -133 -31.833 -163 -59.5s-45 -65.167 -45 -112.5z" />
    <glyph glyph-name="acircumflex" unicode="&#xe2;" horiz-adv-x="1258"
d="M303 1159c-12.667 0 -20.6689 3.83398 -24.002 11.501s-0.666016 16.167 8.00098 25.5l231 258c8.66699 10.667 21 16 37 16h139c16 0 28.333 -5.33301 37 -16l232 -258c8 -9.33301 10.5 -17.833 7.5 -25.5s-11.167 -11.5 -24.5 -11.5h-98
c-11.333 0 -23.666 5.66699 -36.999 17l-186 184l-187 -184c-12.667 -10.667 -25 -16.334 -37 -17.001h-98zM1121 127.001c12 -1.33301 20.834 -4.6709 26.501 -10.0039s8.5 -14.666 8.5 -27.999v-60c0 -11.333 -3.5 -20.166 -10.5 -26.499s-19.833 -9.83301 -38.5 -10.5
c-130 -6.66699 -195 47.333 -195 162c-61.333 -61.333 -133.166 -106.5 -215.499 -135.5s-162.5 -43.5 -240.5 -43.5c-112.667 0 -196.334 25.667 -251.001 77s-82 120.333 -82 207c0 167.333 106.333 267 319 299l321 48c45.333 6.66699 77.166 13.334 95.499 20.001
s29.5 15.334 33.5 26.001v1c0 84.667 -22.167 145.5 -66.5 182.5s-111.5 55.5 -201.5 55.5c-180 0 -277.333 -56.667 -292 -170c-2 -16.667 -12.333 -25 -31 -25h-90c-21.333 0 -31 10.333 -29 31c20.667 199.333 168 299 442 299c278 0 416.667 -120.667 416 -362v-455
c0 -48.667 27 -76 81 -82zM278.999 270.996c0 -106 66.999 -158.667 200.999 -158c166 0 303.333 53.667 412 161v254c-3.33301 -10 -12.166 -17.5 -26.499 -22.5s-38.833 -10.5 -73.5 -16.5l-305 -46c-78.667 -12 -133 -31.833 -163 -59.5s-45 -65.167 -45 -112.5z" />
    <glyph glyph-name="atilde" unicode="&#xe3;" horiz-adv-x="1258"
d="M317 1290c-14.667 0 -20.666 8.33203 -17.999 24.999c6 50.667 24.833 89.667 56.5 117s73.5 41 125.5 41c27.333 0 53 -4.83301 77 -14.5s44.5 -21.5 61.5 -35.5l49 -42c15.667 -14 32.5 -25.833 50.5 -35.5s36.333 -14.5 55 -14.5c44 0 73.333 21.333 88 64
c4 12 11.667 18 23 18h49c6 0 11 -1.83301 15 -5.5s5.66699 -8.5 5 -14.5c-8 -52 -27.667 -92 -59 -120s-71.666 -42 -120.999 -42c-27.333 0 -52.833 4.83301 -76.5 14.5s-44.334 21.5 -62.001 35.5l-50.5 41.5c-16 13.667 -32.833 25.334 -50.5 35.001
s-35.5 14.5 -53.5 14.5c-46.667 0 -77.334 -21 -92.001 -63c-4 -12 -11.333 -18.333 -22 -19h-50zM1121 126.999c12 -1.33301 20.834 -4.6709 26.501 -10.0039s8.5 -14.666 8.5 -27.999v-60c0 -11.333 -3.5 -20.166 -10.5 -26.499s-19.833 -9.83301 -38.5 -10.5
c-130 -6.66699 -195 47.333 -195 162c-61.333 -61.333 -133.166 -106.5 -215.499 -135.5s-162.5 -43.5 -240.5 -43.5c-112.667 0 -196.334 25.667 -251.001 77s-82 120.333 -82 207c0 167.333 106.333 267 319 299l321 48c45.333 6.66699 77.166 13.334 95.499 20.001
s29.5 15.334 33.5 26.001v1c0 84.667 -22.167 145.5 -66.5 182.5s-111.5 55.5 -201.5 55.5c-180 0 -277.333 -56.667 -292 -170c-2 -16.667 -12.333 -25 -31 -25h-90c-21.333 0 -31 10.333 -29 31c20.667 199.333 168 299 442 299c278 0 416.667 -120.667 416 -362v-455
c0 -48.667 27 -76 81 -82zM279.002 270.994c0 -106 66.999 -158.667 200.999 -158c166 0 303.333 53.667 412 161v254c-3.33301 -10 -12.166 -17.5 -26.499 -22.5s-38.833 -10.5 -73.5 -16.5l-305 -46c-78.667 -12 -133 -31.833 -163 -59.5s-45 -65.167 -45 -112.5z" />
    <glyph glyph-name="adieresis" unicode="&#xe4;" horiz-adv-x="1258"
d="M438 1276c-24.667 0 -45.834 8.83301 -63.501 26.5s-26.5 38.834 -26.5 63.501c0 24 8.83301 44.667 26.5 62s38.834 26 63.501 26s45.834 -8.66699 63.501 -26s26.5 -38 26.5 -62c0 -24.667 -8.83301 -45.834 -26.5 -63.501s-38.834 -26.5 -63.501 -26.5zM813 1276
c-24.667 0 -45.834 8.83301 -63.501 26.5s-26.5 38.834 -26.5 63.501c0 24 8.83301 44.667 26.5 62s38.834 26 63.501 26s45.834 -8.66699 63.501 -26s26.5 -38 26.5 -62c0 -24.667 -8.83301 -45.834 -26.5 -63.501s-38.834 -26.5 -63.501 -26.5zM1121 127
c12 -1.33301 20.834 -4.6709 26.501 -10.0039s8.5 -14.666 8.5 -27.999v-60c0 -11.333 -3.5 -20.166 -10.5 -26.499s-19.833 -9.83301 -38.5 -10.5c-130 -6.66699 -195 47.333 -195 162c-61.333 -61.333 -133.166 -106.5 -215.499 -135.5s-162.5 -43.5 -240.5 -43.5
c-112.667 0 -196.334 25.667 -251.001 77s-82 120.333 -82 207c0 167.333 106.333 267 319 299l321 48c45.333 6.66699 77.166 13.334 95.499 20.001s29.5 15.334 33.5 26.001v1c0 84.667 -22.167 145.5 -66.5 182.5s-111.5 55.5 -201.5 55.5
c-180 0 -277.333 -56.667 -292 -170c-2 -16.667 -12.333 -25 -31 -25h-90c-21.333 0 -31 10.333 -29 31c20.667 199.333 168 299 442 299c278 0 416.667 -120.667 416 -362v-455c0 -48.667 27 -76 81 -82zM279.001 270.995c0 -106 66.999 -158.667 200.999 -158
c166 0 303.333 53.667 412 161v254c-3.33301 -10 -12.166 -17.5 -26.499 -22.5s-38.833 -10.5 -73.5 -16.5l-305 -46c-78.667 -12 -133 -31.833 -163 -59.5s-45 -65.167 -45 -112.5z" />
    <glyph glyph-name="aring" unicode="&#xe5;" horiz-adv-x="1258"
d="M624.5 1133c-50.333 0 -93 17.5 -128 52.5s-52.5 76.667 -52.5 125s17.5 90.166 52.5 125.499s77.667 53 128 53s93 -17.667 128 -53s52.5 -77.166 52.5 -125.499s-17.5 -90 -52.5 -125s-77.667 -52.5 -128 -52.5zM624.5 1386c-21.667 0 -40 -7.33301 -55 -22
s-22.5 -32.5 -22.5 -53.5s7.5 -38.833 22.5 -53.5s33.333 -22 55 -22s40 7.33301 55 22s22.5 32.5 22.5 53.5s-7.5 38.833 -22.5 53.5s-33.333 22 -55 22zM1121 127c12 -1.33301 20.834 -4.6709 26.501 -10.0039s8.5 -14.666 8.5 -27.999v-60
c0 -11.333 -3.5 -20.166 -10.5 -26.499s-19.833 -9.83301 -38.5 -10.5c-130 -6.66699 -195 47.333 -195 162c-61.333 -61.333 -133.166 -106.5 -215.499 -135.5s-162.5 -43.5 -240.5 -43.5c-112.667 0 -196.334 25.667 -251.001 77s-82 120.333 -82 207
c0 167.333 106.333 267 319 299l321 48c45.333 6.66699 77.166 13.334 95.499 20.001s29.5 15.334 33.5 26.001v1c0 84.667 -22.167 145.5 -66.5 182.5s-111.5 55.5 -201.5 55.5c-180 0 -277.333 -56.667 -292 -170c-2 -16.667 -12.333 -25 -31 -25h-90
c-21.333 0 -31 10.333 -29 31c20.667 199.333 168 299 442 299c278 0 416.667 -120.667 416 -362v-455c0 -48.667 27 -76 81 -82zM279.001 270.995c0 -106 66.999 -158.667 200.999 -158c166 0 303.333 53.667 412 161v254c-3.33301 -10 -12.166 -17.5 -26.499 -22.5
s-38.833 -10.5 -73.5 -16.5l-305 -46c-78.667 -12 -133 -31.833 -163 -59.5s-45 -65.167 -45 -112.5z" />
    <glyph glyph-name="ae" unicode="&#xe6;" horiz-adv-x="1990"
d="M1388 1026c95.333 0 179.668 -23.167 253.001 -69.5s128.666 -106.333 165.999 -180s56 -154.167 56 -241.5c0 -37.333 -4 -63.833 -12 -79.5s-24 -23.5 -48 -23.5h-765c12 -96 52.5 -174.333 121.5 -235s155.833 -91 260.5 -91s197 35 277 105
c17.333 14.667 31.666 16 42.999 4l41 -41c16.667 -16.667 17.334 -32.334 2.00098 -47.001c-102.667 -102.667 -229 -154 -379 -154c-93.333 0 -177.166 19.667 -251.499 59s-133.833 94 -178.5 164c-160.667 -146.667 -333.334 -220.334 -518.001 -221.001
c-112.667 0 -196.334 25.667 -251.001 77s-82 120.333 -82 207c0 167.333 106.333 267 319 299l319 48c45.333 6.66699 77.166 13.334 95.499 20.001s29.5 15.334 33.5 26.001v1c0 84.667 -21.833 145.5 -65.5 182.5s-110.5 55.5 -200.5 55.5
c-180 0 -277.333 -56.667 -292 -170c-2 -16.667 -12.333 -25 -31 -25h-90c-21.333 0 -31 10.333 -29 31c20.667 199.333 168 299 442 299c194.667 0 321.334 -59.667 380.001 -179c46 56.667 101.833 100.667 167.5 132s137.834 47 216.501 47zM1388 891
c-94 0 -173 -31.333 -237 -94s-101.667 -142.667 -113 -240h689c-4.66699 95.333 -38.5 174.833 -101.5 238.5s-142.167 95.5 -237.5 95.5zM480.002 113c80 0 156.333 13.834 229 41.501s143.334 77.5 212.001 149.5c-22 61.333 -33 126.666 -33 195.999v24
c-6.66699 -15.333 -39.334 -27 -98.001 -35l-303 -46c-78.667 -12 -133 -31.833 -163 -59.5s-45 -65.167 -45 -112.5c-0.666992 -105.333 66.333 -158 201 -158z" />
    <glyph glyph-name="ccedilla" unicode="&#xe7;" horiz-adv-x="1199"
d="M1065 232c18 -10.667 20.999 -24.666 8.99902 -41.999c-44.667 -64.667 -101.167 -115.834 -169.5 -153.501s-144.833 -58.5 -229.5 -62.5l-51 -53c46.667 -4 85.667 -20.167 117 -48.5s47 -65.166 47 -110.499c0 -53.333 -16 -96.5 -48 -129.5
s-70.667 -54.167 -116 -63.5s-93.666 -9.66602 -144.999 -0.999023c-12 2 -18 9.33301 -18 22v58c0 6.66699 2 11.834 6 15.501s9.33301 5.16699 16 4.5c56 -8 100.5 -4.16699 133.5 11.5s49.5 39.834 49.5 72.501c0 31.333 -18.167 53.833 -54.5 67.5
s-78.5 11.167 -126.5 -7.5c-6.66699 -2.66699 -12.334 -2.83398 -17.001 -0.500977s-7 7.16602 -7 14.499v53c0 7.33301 3.33301 15.666 10 24.999l74 79c-123.333 23.333 -223.666 82.5 -300.999 177.5s-116 208.167 -116 339.5c0 98 22.167 187.167 66.5 267.5
s106.333 143.5 186 189.5s168.834 69 267.501 69c90 0 172 -19.167 246 -57.5s134 -91.5 180 -159.5c11.333 -17.333 8.33301 -31.333 -9 -42l-69 -41c-16.667 -10 -30.334 -7.66699 -41.001 7c-74.667 100 -176.334 150 -305.001 150c-108 0 -196.667 -35.5 -266 -106.5
s-104 -163.167 -104 -276.5s34.667 -205.5 104 -276.5s158 -106.5 266 -106.5c129.333 0 231 49.667 305 149c10.667 15.333 24.334 17.666 41.001 6.99902z" />
    <glyph glyph-name="egrave" unicode="&#xe8;" horiz-adv-x="1230"
d="M540 1141l-123.001 258c-4.66699 10.667 -4.66699 19.167 0 25.5s12.667 9.5 24 9.5h68c16 0 27.667 -8.33301 35 -25l123 -258c4.66699 -10.667 4.5 -19.167 -0.5 -25.5s-13.167 -9.5 -24.5 -9.5h-68c-15.333 0 -26.666 8.33301 -33.999 25zM627.999 1026
c95.333 0 179.668 -23.166 253.001 -69.499s128.666 -106.333 165.999 -180s56 -154.167 56 -241.5c0 -37.333 -4 -63.833 -12 -79.5s-24 -23.5 -48 -23.5h-764c12 -96 52.333 -174.333 121 -235s155.334 -91 260.001 -91s197 35 277 105c17.333 14.667 31.666 16 42.999 4
l41 -41c16.667 -16.667 17.334 -32.334 2.00098 -47.001c-102.667 -102.667 -229 -154 -379 -154c-152.667 0 -276.834 50.167 -372.501 150.5s-143.5 225.833 -143.5 376.5c0 149.333 47 274.333 141 375s213.667 151 359 151zM628.001 891.001
c-94 0 -173.001 -31.333 -237.001 -94s-101.333 -142.667 -112 -240h689c-4.66699 95.333 -38.667 174.833 -102 238.5s-142.666 95.5 -237.999 95.5z" />
    <glyph glyph-name="eacute" unicode="&#xe9;" horiz-adv-x="1230"
d="M587 1116c-11.333 0 -19.5 3.16699 -24.5 9.5s-5.16699 14.833 -0.5 25.5l123 258c7.33301 16.667 19 25 35 25h67c11.333 0 19.5 -3.16699 24.5 -9.5s5.16699 -14.833 0.5 -25.5l-123 -258c-7.33301 -16.667 -19 -25 -35 -25h-67zM628 1026
c95.333 0 179.668 -23.166 253.001 -69.499s128.666 -106.333 165.999 -180s56 -154.167 56 -241.5c0 -37.333 -4 -63.833 -12 -79.5s-24 -23.5 -48 -23.5h-764c12 -96 52.333 -174.333 121 -235s155.334 -91 260.001 -91s197 35 277 105c17.333 14.667 31.666 16 42.999 4
l41 -41c16.667 -16.667 17.334 -32.334 2.00098 -47.001c-102.667 -102.667 -229 -154 -379 -154c-152.667 0 -276.834 50.167 -372.501 150.5s-143.5 225.833 -143.5 376.5c0 149.333 47 274.333 141 375s213.667 151 359 151zM628.002 891.001
c-94 0 -173.001 -31.333 -237.001 -94s-101.333 -142.667 -112 -240h689c-4.66699 95.333 -38.667 174.833 -102 238.5s-142.666 95.5 -237.999 95.5z" />
    <glyph glyph-name="ecircumflex" unicode="&#xea;" horiz-adv-x="1230"
d="M294 1159c-12.667 0 -20.6689 3.83398 -24.002 11.501s-0.666016 16.167 8.00098 25.5l231 258c8.66699 10.667 21 16 37 16h139c16 0 28.333 -5.33301 37 -16l231 -258c8 -9.33301 10.5 -17.833 7.5 -25.5s-10.833 -11.5 -23.5 -11.5h-98
c-11.333 0 -23.666 5.66699 -36.999 17l-187 184l-186 -184c-12.667 -10.667 -25 -16.334 -37 -17.001h-98zM627.998 1026c95.333 0 179.668 -23.166 253.001 -69.499s128.666 -106.333 165.999 -180s56 -154.167 56 -241.5c0 -37.333 -4 -63.833 -12 -79.5
s-24 -23.5 -48 -23.5h-764c12 -96 52.333 -174.333 121 -235s155.334 -91 260.001 -91s197 35 277 105c17.333 14.667 31.666 16 42.999 4l41 -41c16.667 -16.667 17.334 -32.334 2.00098 -47.001c-102.667 -102.667 -229 -154 -379 -154
c-152.667 0 -276.834 50.167 -372.501 150.5s-143.5 225.833 -143.5 376.5c0 149.333 47 274.333 141 375s213.667 151 359 151zM628 891.002c-94 0 -173.001 -31.333 -237.001 -94s-101.333 -142.667 -112 -240h689c-4.66699 95.333 -38.667 174.833 -102 238.5
s-142.666 95.5 -237.999 95.5z" />
    <glyph glyph-name="edieresis" unicode="&#xeb;" horiz-adv-x="1230"
d="M429 1276c-24.667 0 -45.834 8.83301 -63.501 26.5s-26.5 38.834 -26.5 63.501c0 24 8.83301 44.667 26.5 62s38.834 26 63.501 26s45.834 -8.66699 63.501 -26s26.5 -38 26.5 -62c0 -24.667 -8.83301 -45.834 -26.5 -63.501s-38.834 -26.5 -63.501 -26.5zM804 1276
c-24.667 0 -45.834 8.83301 -63.501 26.5s-26.5 38.834 -26.5 63.501c0 24 8.83301 44.667 26.5 62s38.834 26 63.501 26s45.834 -8.66699 63.501 -26s26.5 -38 26.5 -62c0 -24.667 -8.83301 -45.834 -26.5 -63.501s-38.834 -26.5 -63.501 -26.5zM628 1026
c95.333 0 179.668 -23.166 253.001 -69.499s128.666 -106.333 165.999 -180s56 -154.167 56 -241.5c0 -37.333 -4 -63.833 -12 -79.5s-24 -23.5 -48 -23.5h-764c12 -96 52.333 -174.333 121 -235s155.334 -91 260.001 -91s197 35 277 105c17.333 14.667 31.666 16 42.999 4
l41 -41c16.667 -16.667 17.334 -32.334 2.00098 -47.001c-102.667 -102.667 -229 -154 -379 -154c-152.667 0 -276.834 50.167 -372.501 150.5s-143.5 225.833 -143.5 376.5c0 149.333 47 274.333 141 375s213.667 151 359 151zM628.002 891.001
c-94 0 -173.001 -31.333 -237.001 -94s-101.333 -142.667 -112 -240h689c-4.66699 95.333 -38.667 174.833 -102 238.5s-142.666 95.5 -237.999 95.5z" />
    <glyph glyph-name="igrave" unicode="&#xec;" horiz-adv-x="1177"
d="M513 1141l-123 258c-4.66699 10.667 -4.66699 19.167 0 25.5s13 9.5 25 9.5h67c16 0 27.667 -8.33301 35 -25l123 -258c4.66699 -10.667 4.66699 -19.167 0 -25.5s-13 -9.5 -25 -9.5h-67c-16 0 -27.667 8.33301 -35 25zM1029 137c8.66699 0 15.999 -2.66699 21.999 -8
s9 -13 9 -23v-75c0 -9.33301 -3 -16.833 -9 -22.5s-13.333 -8.5 -22 -8.5h-870c-8.66699 0 -16 2.66699 -22 8s-9 13 -9 23v75c0 9.33301 2.83301 16.833 8.5 22.5s13.167 8.5 22.5 8.5h385v729h-334c-8.66699 0 -16 2.83301 -22 8.5s-9 13.167 -9 22.5v76
c0 9.33301 3 16.833 9 22.5s13.333 8.5 22 8.5h457c8.66699 0 15.834 -2.83301 21.501 -8.5s8.5 -13.167 8.5 -22.5v-836h332z" />
    <glyph glyph-name="iacute" unicode="&#xed;" horiz-adv-x="1177"
d="M560 1116c-11.333 0 -19.5 3.16699 -24.5 9.5s-4.83301 14.833 0.5 25.5l122 258c7.33301 16.667 19 25 35 25h68c11.333 0 19.5 -3.16699 24.5 -9.5s4.83301 -14.833 -0.5 -25.5l-122 -258c-7.33301 -16.667 -19 -25 -35 -25h-68zM1029 137
c8.66699 0 15.999 -2.66699 21.999 -8s9 -13 9 -23v-75c0 -9.33301 -3 -16.833 -9 -22.5s-13.333 -8.5 -22 -8.5h-870c-8.66699 0 -16 2.66699 -22 8s-9 13 -9 23v75c0 9.33301 2.83301 16.833 8.5 22.5s13.167 8.5 22.5 8.5h385v729h-334c-8.66699 0 -16 2.83301 -22 8.5
s-9 13.167 -9 22.5v76c0 9.33301 3 16.833 9 22.5s13.333 8.5 22 8.5h457c8.66699 0 15.834 -2.83301 21.501 -8.5s8.5 -13.167 8.5 -22.5v-836h332z" />
    <glyph glyph-name="icircumflex" unicode="&#xee;" horiz-adv-x="1177"
d="M267 1159c-12.667 0 -20.501 3.83398 -23.501 11.501s-0.5 16.167 7.5 25.5l231 258c8.66699 10.667 21 16 37 16h139c16 0 28.333 -5.33301 37 -16l232 -258c8 -9.33301 10.5 -17.833 7.5 -25.5s-11.167 -11.5 -24.5 -11.5h-98c-11.333 0 -23.666 5.66699 -36.999 17
l-186 184l-187 -184c-12.667 -10.667 -24.667 -16.334 -36 -17.001h-99zM1029 137.001c8.66699 0 15.999 -2.66699 21.999 -8s9 -13 9 -23v-75c0 -9.33301 -3 -16.833 -9 -22.5s-13.333 -8.5 -22 -8.5h-870c-8.66699 0 -16 2.66699 -22 8s-9 13 -9 23v75
c0 9.33301 2.83301 16.833 8.5 22.5s13.167 8.5 22.5 8.5h385v729h-334c-8.66699 0 -16 2.83301 -22 8.5s-9 13.167 -9 22.5v76c0 9.33301 3 16.833 9 22.5s13.333 8.5 22 8.5h457c8.66699 0 15.834 -2.83301 21.501 -8.5s8.5 -13.167 8.5 -22.5v-836h332z" />
    <glyph glyph-name="idieresis" unicode="&#xef;" horiz-adv-x="1177"
d="M402.5 1276c-24.333 0 -45.5 8.83301 -63.5 26.5s-27 38.834 -27 63.501c0 24 9 44.667 27 62s39.167 26 63.5 26s45.5 -8.66699 63.5 -26s27 -38 27 -62c0 -24.667 -9 -45.834 -27 -63.501s-39.167 -26.5 -63.5 -26.5zM777 1276c-24.667 0 -45.834 8.83301 -63.501 26.5
s-26.5 38.834 -26.5 63.501c0 24 8.83301 44.667 26.5 62s38.834 26 63.501 26s45.834 -8.66699 63.501 -26s26.5 -38 26.5 -62c0 -24.667 -8.83301 -45.834 -26.5 -63.501s-38.834 -26.5 -63.501 -26.5zM1029 137c8.66699 0 15.999 -2.66699 21.999 -8s9 -13 9 -23v-75
c0 -9.33301 -3 -16.833 -9 -22.5s-13.333 -8.5 -22 -8.5h-870c-8.66699 0 -16 2.66699 -22 8s-9 13 -9 23v75c0 9.33301 2.83301 16.833 8.5 22.5s13.167 8.5 22.5 8.5h385v729h-334c-8.66699 0 -16 2.83301 -22 8.5s-9 13.167 -9 22.5v76c0 9.33301 3 16.833 9 22.5
s13.333 8.5 22 8.5h457c8.66699 0 15.834 -2.83301 21.501 -8.5s8.5 -13.167 8.5 -22.5v-836h332z" />
    <glyph glyph-name="eth" unicode="&#xf0;"
d="M1186 1288c10 1.33301 18 -0.5 24 -5.5s9 -12.5 9 -22.5v-60c0 -18.667 -9.66699 -29.667 -29 -33l-58 -8v-1128c0 -9.33301 -3 -16.833 -9 -22.5s-13.333 -8.5 -22 -8.5h-84c-18.667 -0 -29 10.333 -31 31l-9 119c-86.667 -117.333 -208.667 -176.333 -366 -177
c-142.667 0 -258.834 49.667 -348.501 149s-134.5 225.333 -134.5 378c0 153.333 43.833 279.333 131.5 378s204.834 148 351.501 148c86.667 0 159.667 -18.5 219 -55.5s103.333 -84.833 132 -143.5h16v311l-179 -26c-10 -1.33301 -18 0.5 -24 5.5s-9 12.833 -9 23.5v59
c0 18.667 9.66699 29.667 29 33l183 25v145c0 9.33301 2.83301 16.833 8.5 22.5s13.167 8.5 22.5 8.5h92c8.66699 0 16 -2.83301 22 -8.5s9 -13.167 9 -22.5v-122zM636 117c106 0 191 35.834 255 107.501s96 164.167 96 277.5s-32 205.166 -96 275.499
s-149 105.5 -255 105.5c-110 0 -197 -35 -261 -105s-96 -162 -96 -276c0 -114.667 32 -207.5 96 -278.5s151 -106.5 261 -106.5z" />
    <glyph glyph-name="ntilde" unicode="&#xf1;" horiz-adv-x="1232"
d="M309 1290c-14.667 0 -20.667 8.33203 -18 24.999c6 50.667 24.833 89.667 56.5 117s73.5 41 125.5 41c27.333 0 53 -4.83301 77 -14.5s44.5 -21.5 61.5 -35.5l49 -42c15.667 -14 32.5 -25.833 50.5 -35.5s36.333 -14.5 55 -14.5c44 0 73.333 21.333 88 64
c4 12 11.667 18 23 18h49c6 0 11 -1.83301 15 -5.5s5.66699 -8.5 5 -14.5c-8 -52 -27.667 -92 -59 -120s-71.666 -42 -120.999 -42c-27.333 0 -53 4.83301 -77 14.5s-44.667 21.5 -62 35.5l-50 41.5c-16 13.667 -32.833 25.334 -50.5 35.001s-35.5 14.5 -53.5 14.5
c-46.667 0 -77.334 -21 -92.001 -63c-4 -12 -11.667 -18.333 -23 -19h-49zM701 1026c116 0 206.333 -33.6689 271 -101.002s97 -166.666 97 -297.999v-596c0 -9.33301 -2.66699 -16.833 -8 -22.5s-13 -8.5 -23 -8.5h-92c-9.33301 0 -16.833 2.66699 -22.5 8s-8.5 13 -8.5 23
v585c0 179.333 -86.333 269.333 -259 270c-43.333 0 -84.166 -6.83301 -122.499 -20.5s-70.333 -30.5 -96 -50.5s-47.834 -41.167 -66.501 -63.5s-32.334 -42.333 -41.001 -60s-13 -31.167 -13 -40.5v-620c0 -9.33301 -2.66699 -16.833 -8 -22.5s-12.666 -8.5 -21.999 -8.5
h-92c-9.33301 0 -16.833 2.66699 -22.5 8s-8.5 13 -8.5 23v942c0 9.33301 2.66699 16.833 8 22.5s13 8.5 23 8.5h84c18.667 0 28.667 -10.333 30 -31l8 -142h21c32 54.667 79.5 100.834 142.5 138.501s136.5 56.5 220.5 56.5z" />
    <glyph glyph-name="ograve" unicode="&#xf2;" horiz-adv-x="1309"
d="M480 1434h68c16 0 27.667 -8.33301 35 -25l123 -258c4.66699 -10.667 4.5 -19.167 -0.5 -25.5s-13.167 -9.5 -24.5 -9.5h-68c-16 0 -27.333 8.33301 -34 25l-123 258c-4.66699 10.667 -4.66699 19.167 0 25.5s12.667 9.5 24 9.5zM655 -27
c-72.667 0 -141.333 13.666 -206 40.999s-120.5 64.5 -167.5 111.5s-84.333 103 -112 168s-41.5 133.833 -41.5 206.5c0 96.667 23.333 185.334 70 266.001s110.5 144.167 191.5 190.5s169.5 69.5 265.5 69.5c146 0 270.333 -51 373 -153s154 -226.333 154 -373
c0 -147.333 -51.333 -272 -154 -374s-227 -153 -373 -153zM655.001 116.999c105.333 0 194.333 37.167 267 111.5s109 164.833 109 271.5c0 106 -36.333 196.333 -109 271s-161.667 112 -267 112c-106 0 -195.167 -37.5 -267.5 -112.5s-108.5 -165.167 -108.5 -270.5
c0 -106.667 36.167 -197.167 108.5 -271.5s161.5 -111.5 267.5 -111.5z" />
    <glyph glyph-name="oacute" unicode="&#xf3;" horiz-adv-x="1309"
d="M826 1434c11.333 0 19.5 -3.16699 24.5 -9.5s5.16699 -14.833 0.5 -25.5l-123 -258c-7.33301 -16.667 -19 -25 -35 -25h-67c-11.333 0 -19.5 3.16699 -24.5 9.5s-5.16699 14.833 -0.5 25.5l123 258c7.33301 16.667 19 25 35 25h67zM655 -27
c-72.667 0 -141.333 13.666 -206 40.999s-120.5 64.5 -167.5 111.5s-84.333 103 -112 168s-41.5 133.833 -41.5 206.5c0 96.667 23.333 185.334 70 266.001s110.5 144.167 191.5 190.5s169.5 69.5 265.5 69.5c146 0 270.333 -51 373 -153s154 -226.333 154 -373
c0 -147.333 -51.333 -272 -154 -374s-227 -153 -373 -153zM655.001 116.999c105.333 0 194.333 37.167 267 111.5s109 164.833 109 271.5c0 106 -36.333 196.333 -109 271s-161.667 112 -267 112c-106 0 -195.167 -37.5 -267.5 -112.5s-108.5 -165.167 -108.5 -270.5
c0 -106.667 36.167 -197.167 108.5 -271.5s161.5 -111.5 267.5 -111.5z" />
    <glyph glyph-name="ocircumflex" unicode="&#xf4;" horiz-adv-x="1309"
d="M724 1470c16 0 28.332 -5.33203 36.999 -15.999l231 -258c8 -9.33301 10.5 -17.833 7.5 -25.5s-10.833 -11.5 -23.5 -11.5h-98c-11.333 0 -23.666 5.66699 -36.999 17l-187 184l-186 -184c-12.667 -10.667 -25 -16.334 -37 -17.001h-98
c-12.667 0 -20.667 3.83301 -24 11.5s-1 16.167 7 25.5l232 258c8.66699 10.667 21 16 37 16h139zM654.999 -26.999c-72.667 0 -141.333 13.666 -206 40.999s-120.5 64.5 -167.5 111.5s-84.333 103 -112 168s-41.5 133.833 -41.5 206.5c0 96.667 23.333 185.334 70 266.001
s110.5 144.167 191.5 190.5s169.5 69.5 265.5 69.5c146 0 270.333 -51 373 -153s154 -226.333 154 -373c0 -147.333 -51.333 -272 -154 -374s-227 -153 -373 -153zM655 117c105.333 0 194.333 37.167 267 111.5s109 164.833 109 271.5c0 106 -36.333 196.333 -109 271
s-161.667 112 -267 112c-106 0 -195.167 -37.5 -267.5 -112.5s-108.5 -165.167 -108.5 -270.5c0 -106.667 36.167 -197.167 108.5 -271.5s161.5 -111.5 267.5 -111.5z" />
    <glyph glyph-name="otilde" unicode="&#xf5;" horiz-adv-x="1309"
d="M511 1473c27.333 0 53 -4.83398 77 -14.501s44.5 -21.5 61.5 -35.5l49 -42c15.667 -14 32.5 -25.833 50.5 -35.5s36.333 -14.5 55 -14.5c44 0 73.333 21.333 88 64c4 12 11.333 18 22 18h50c6 0 11 -1.83301 15 -5.5s5.66699 -8.5 5 -14.5c-8 -52 -27.667 -92 -59 -120
s-71.666 -42 -120.999 -42c-27.333 0 -53 4.83301 -77 14.5s-44.667 21.5 -62 35.5l-50 41.5c-16 13.667 -32.833 25.334 -50.5 35.001s-35.5 14.5 -53.5 14.5c-46.667 0 -77.334 -21 -92.001 -63c-4 -12 -11.667 -18.333 -23 -19h-49c-14.667 0 -20.667 8.33301 -18 25
c6 50.667 24.833 89.667 56.5 117s73.5 41 125.5 41zM655 -27.001c-72.667 0 -141.333 13.666 -206 40.999s-120.5 64.5 -167.5 111.5s-84.333 103 -112 168s-41.5 133.833 -41.5 206.5c0 96.667 23.333 185.334 70 266.001s110.5 144.167 191.5 190.5
s169.5 69.5 265.5 69.5c146 0 270.333 -51 373 -153s154 -226.333 154 -373c0 -147.333 -51.333 -272 -154 -374s-227 -153 -373 -153zM655.001 116.998c105.333 0 194.333 37.167 267 111.5s109 164.833 109 271.5c0 106 -36.333 196.333 -109 271s-161.667 112 -267 112
c-106 0 -195.167 -37.5 -267.5 -112.5s-108.5 -165.167 -108.5 -270.5c0 -106.667 36.167 -197.167 108.5 -271.5s161.5 -111.5 267.5 -111.5z" />
    <glyph glyph-name="odieresis" unicode="&#xf6;" horiz-adv-x="1309"
d="M468 1276c-24.667 0 -45.834 8.83301 -63.501 26.5s-26.5 38.834 -26.5 63.501c0 24 8.83301 44.667 26.5 62s38.834 26 63.501 26s45.834 -8.66699 63.501 -26s26.5 -38 26.5 -62c0 -24.667 -8.83301 -45.834 -26.5 -63.501s-38.834 -26.5 -63.501 -26.5zM843 1276
c-24.667 0 -45.834 8.83301 -63.501 26.5s-26.5 38.834 -26.5 63.501c0 24 8.83301 44.667 26.5 62s38.834 26 63.501 26s45.834 -8.66699 63.501 -26s26.5 -38 26.5 -62c0 -24.667 -8.83301 -45.834 -26.5 -63.501s-38.834 -26.5 -63.501 -26.5zM655 -27
c-72.667 0 -141.333 13.666 -206 40.999s-120.5 64.5 -167.5 111.5s-84.333 103 -112 168s-41.5 133.833 -41.5 206.5c0 96.667 23.333 185.334 70 266.001s110.5 144.167 191.5 190.5s169.5 69.5 265.5 69.5c146 0 270.333 -51 373 -153s154 -226.333 154 -373
c0 -147.333 -51.333 -272 -154 -374s-227 -153 -373 -153zM655.001 116.999c105.333 0 194.333 37.167 267 111.5s109 164.833 109 271.5c0 106 -36.333 196.333 -109 271s-161.667 112 -267 112c-106 0 -195.167 -37.5 -267.5 -112.5s-108.5 -165.167 -108.5 -270.5
c0 -106.667 36.167 -197.167 108.5 -271.5s161.5 -111.5 267.5 -111.5z" />
    <glyph glyph-name="divide" unicode="&#xf7;" horiz-adv-x="1136"
d="M568.5 750c-36.333 0 -66.668 12.167 -91.001 36.5s-36.5 54.5 -36.5 90.5s12.333 66.5 37 91.5s54.834 37.5 90.501 37.5s65.667 -12.5 90 -37.5s36.5 -55.5 36.5 -91.5c0 -35.333 -12 -65.333 -36 -90s-54.167 -37 -90.5 -37zM936.998 647c8.66699 0 16 -2.66699 22 -8
s9 -13 9 -23v-69c0 -9.33301 -3 -16.833 -9 -22.5s-13.333 -8.5 -22 -8.5h-737c-8.66699 0 -16 2.66699 -22 8s-9 13 -9 23v69c0 9.33301 2.83301 16.833 8.5 22.5s13.167 8.5 22.5 8.5h737zM568.498 158c-36.333 0 -66.668 12.167 -91.001 36.5s-36.5 54.5 -36.5 90.5
s12.333 66.5 37 91.5s54.834 37.5 90.501 37.5s65.667 -12.5 90 -37.5s36.5 -55.5 36.5 -91.5c0 -35.333 -12 -65.333 -36 -90s-54.167 -37 -90.5 -37z" />
    <glyph glyph-name="oslash" unicode="&#xf8;" horiz-adv-x="1309"
d="M930 950c77.333 -46.667 138.666 -109.667 183.999 -189s68 -166.333 68 -261c0 -147.333 -51.333 -272 -154 -374s-227 -153 -373 -153c-55.333 0 -108.333 8 -159 24l-55 -118c-6 -15.333 -17.333 -22.666 -34 -21.999h-74c-11.333 0 -19.166 3.33301 -23.499 10
s-4.16602 15.667 0.500977 27l71 154c-78 47.333 -139.667 110.666 -185 189.999s-68 166.666 -68 261.999c0 96.667 23.333 185.334 70 266.001s110.5 144.167 191.5 190.5s169.5 69.5 265.5 69.5c54.667 0 107.667 -8 159 -24l53 118c6 15.333 17.667 23 35 23h76
c11.333 0 19.166 -3.5 23.499 -10.5s3.83301 -15.833 -1.5 -26.5zM279 500c0 -64.667 14.5 -124.834 43.5 -180.501s68.5 -101.167 118.5 -136.5l313 686c-30.667 8.66699 -63.667 13.334 -99 14.001c-106 0 -195.167 -37.333 -267.5 -112s-108.5 -165 -108.5 -271zM655 117
c105.333 0 194.333 37.165 267 111.498s109 164.833 109 271.5c0 64.667 -14.5 124.834 -43.5 180.501s-68.833 100.834 -119.5 135.501l-312 -686c29.333 -8.66699 62.333 -13 99 -13z" />
    <glyph glyph-name="ugrave" unicode="&#xf9;" horiz-adv-x="1222"
d="M530 1141l-122 258c-4.66699 10.667 -4.66699 19.167 0 25.5s12.667 9.5 24 9.5h68c16 0 27.667 -8.33301 35 -25l122 -258c4.66699 -10.667 4.66699 -19.167 0 -25.5s-12.667 -9.5 -24 -9.5h-68c-16 0 -27.667 8.33301 -35 25zM1028 1004
c9.33301 0 16.834 -2.83203 22.501 -8.49902s8.5 -13.167 8.5 -22.5v-942c0 -9.33301 -2.83301 -16.833 -8.5 -22.5s-13.167 -8.5 -22.5 -8.5h-84c-18.667 0 -29 10.333 -31 31l-8 141h-20c-31.333 -54.667 -78.666 -100.834 -141.999 -138.501s-136.333 -56.5 -219 -56.5
c-116 0 -206.667 33.833 -272 101.5s-98 167.167 -98 298.5v596c0 9.33301 2.66699 16.833 8 22.5s12.666 8.5 21.999 8.5h92c9.33301 0 16.833 -2.83301 22.5 -8.5s8.5 -13.167 8.5 -22.5v-586c0 -181.333 90.333 -272 271 -272c40.667 0 79.667 7 117 21
s68.166 31 92.499 51s45.833 41.333 64.5 64s32.167 43 40.5 61s12.5 31.333 12.5 40v621c0 9.33301 2.83301 16.833 8.5 22.5s13.167 8.5 22.5 8.5h92z" />
    <glyph glyph-name="uacute" unicode="&#xfa;" horiz-adv-x="1222"
d="M578 1116c-11.333 0 -19.5 3.16699 -24.5 9.5s-5.16699 14.833 -0.5 25.5l123 258c7.33301 16.667 19 25 35 25h67c11.333 0 19.5 -3.16699 24.5 -9.5s5.16699 -14.833 0.5 -25.5l-123 -258c-7.33301 -16.667 -19 -25 -35 -25h-67zM1028 1004
c9.33301 0 16.834 -2.83203 22.501 -8.49902s8.5 -13.167 8.5 -22.5v-942c0 -9.33301 -2.83301 -16.833 -8.5 -22.5s-13.167 -8.5 -22.5 -8.5h-84c-18.667 0 -29 10.333 -31 31l-8 141h-20c-31.333 -54.667 -78.666 -100.834 -141.999 -138.501s-136.333 -56.5 -219 -56.5
c-116 0 -206.667 33.833 -272 101.5s-98 167.167 -98 298.5v596c0 9.33301 2.66699 16.833 8 22.5s12.666 8.5 21.999 8.5h92c9.33301 0 16.833 -2.83301 22.5 -8.5s8.5 -13.167 8.5 -22.5v-586c0 -181.333 90.333 -272 271 -272c40.667 0 79.667 7 117 21
s68.166 31 92.499 51s45.833 41.333 64.5 64s32.167 43 40.5 61s12.5 31.333 12.5 40v621c0 9.33301 2.83301 16.833 8.5 22.5s13.167 8.5 22.5 8.5h92z" />
    <glyph glyph-name="ucircumflex" unicode="&#xfb;" horiz-adv-x="1222"
d="M285 1159c-12.667 0 -20.667 3.83398 -24 11.501s-1 16.167 7 25.5l232 258c8.66699 10.667 21 16 37 16h139c16 0 28.333 -5.33301 37 -16l231 -258c8 -9.33301 10.5 -17.833 7.5 -25.5s-10.833 -11.5 -23.5 -11.5h-99c-11.333 0 -23.333 5.66699 -36 17l-187 184
l-186 -184c-12.667 -10.667 -25 -16.334 -37 -17.001h-98zM1028 1004c9.33301 0 16.834 -2.83203 22.501 -8.49902s8.5 -13.167 8.5 -22.5v-942c0 -9.33301 -2.83301 -16.833 -8.5 -22.5s-13.167 -8.5 -22.5 -8.5h-84c-18.667 0 -29 10.333 -31 31l-8 141h-20
c-31.333 -54.667 -78.666 -100.834 -141.999 -138.501s-136.333 -56.5 -219 -56.5c-116 0 -206.667 33.833 -272 101.5s-98 167.167 -98 298.5v596c0 9.33301 2.66699 16.833 8 22.5s12.666 8.5 21.999 8.5h92c9.33301 0 16.833 -2.83301 22.5 -8.5s8.5 -13.167 8.5 -22.5
v-586c0 -181.333 90.333 -272 271 -272c40.667 0 79.667 7 117 21s68.166 31 92.499 51s45.833 41.333 64.5 64s32.167 43 40.5 61s12.5 31.333 12.5 40v621c0 9.33301 2.83301 16.833 8.5 22.5s13.167 8.5 22.5 8.5h92z" />
    <glyph glyph-name="udieresis" unicode="&#xfc;" horiz-adv-x="1222"
d="M420 1276c-24.667 0 -45.834 8.83301 -63.501 26.5s-26.5 38.834 -26.5 63.501c0 24 8.83301 44.667 26.5 62s38.834 26 63.501 26s45.834 -8.66699 63.501 -26s26.5 -38 26.5 -62c0 -24.667 -8.83301 -45.834 -26.5 -63.501s-38.834 -26.5 -63.501 -26.5zM794.5 1276
c-24.333 0 -45.333 8.83301 -63 26.5s-26.5 38.834 -26.5 63.501c0 24 8.83301 44.667 26.5 62s38.667 26 63 26s45.5 -8.66699 63.5 -26s27 -38 27 -62c0 -24.667 -9 -45.834 -27 -63.501s-39.167 -26.5 -63.5 -26.5zM1028 1004c9.33301 0 16.834 -2.83203 22.501 -8.49902
s8.5 -13.167 8.5 -22.5v-942c0 -9.33301 -2.83301 -16.833 -8.5 -22.5s-13.167 -8.5 -22.5 -8.5h-84c-18.667 0 -29 10.333 -31 31l-8 141h-20c-31.333 -54.667 -78.666 -100.834 -141.999 -138.501s-136.333 -56.5 -219 -56.5c-116 0 -206.667 33.833 -272 101.5
s-98 167.167 -98 298.5v596c0 9.33301 2.66699 16.833 8 22.5s12.666 8.5 21.999 8.5h92c9.33301 0 16.833 -2.83301 22.5 -8.5s8.5 -13.167 8.5 -22.5v-586c0 -181.333 90.333 -272 271 -272c40.667 0 79.667 7 117 21s68.166 31 92.499 51s45.833 41.333 64.5 64
s32.167 43 40.5 61s12.5 31.333 12.5 40v621c0 9.33301 2.83301 16.833 8.5 22.5s13.167 8.5 22.5 8.5h92z" />
    <glyph glyph-name="yacute" unicode="&#xfd;" horiz-adv-x="1218"
d="M781 1434c11.333 0 19.5 -3.16699 24.5 -9.5s5.16699 -14.833 0.5 -25.5l-123 -258c-7.33301 -16.667 -19 -25 -35 -25h-67c-11.333 0 -19.5 3.16699 -24.5 9.5s-5.16699 14.833 -0.5 25.5l123 258c7.33301 16.667 19 25 35 25h67zM1087 1004
c11.333 0 19.502 -3.16699 24.502 -9.5s5.16699 -14.833 0.5 -25.5l-580 -1334c-6.66699 -16.667 -18.667 -24.667 -36 -24h-94c-11.333 0 -19.333 3 -24 9s-4.66699 14.667 0 26l152 353l-424 970c-4.66699 10.667 -4.5 19.167 0.5 25.5s13.167 9.5 24.5 9.5h93
c17.333 0 29.666 -8.33301 36.999 -25l348 -810l348 810c7.33301 16.667 19.666 25 36.999 25h93z" />
    <glyph glyph-name="thorn" unicode="&#xfe;" horiz-adv-x="1274"
d="M678 1024c146 0 260.666 -48.832 343.999 -146.499s125 -223.5 125 -377.5c0 -152.667 -42.667 -278.334 -128 -377.001s-199 -148 -341 -148c-154.667 0 -274.667 59.667 -360 179l-1 -14v-498c0 -9.33301 -2.66699 -16.833 -8 -22.5s-12.666 -8.5 -21.999 -8.5h-92
c-9.33301 0 -16.833 2.66699 -22.5 8s-8.5 13 -8.5 23v1761c0 9.33301 2.66699 16.833 8 22.5s13 8.5 23 8.5h92c9.33301 0 16.666 -2.83301 21.999 -8.5s8 -13.167 8 -22.5v-576h19c30 58.667 73.833 106.167 131.5 142.5s127.834 54.5 210.501 54.5zM652.999 119.001
c109.333 0 193.833 35 253.5 105s89.5 162.667 89.5 278s-29.833 207.333 -89.5 276s-144.167 103 -253.5 103c-101.333 0 -183.5 -35 -246.5 -105s-94.5 -161.333 -94.5 -274s31.5 -204.667 94.5 -276s145.167 -107 246.5 -107z" />
    <glyph glyph-name="ydieresis" unicode="&#xff;" horiz-adv-x="1218"
d="M423 1276c-24.667 0 -45.834 8.83301 -63.501 26.5s-26.5 38.834 -26.5 63.501c0 24 8.83301 44.667 26.5 62s38.834 26 63.501 26s45.834 -8.66699 63.501 -26s26.5 -38 26.5 -62c0 -24.667 -8.83301 -45.834 -26.5 -63.501s-38.834 -26.5 -63.501 -26.5zM798 1276
c-24.667 0 -45.834 8.83301 -63.501 26.5s-26.5 38.834 -26.5 63.501c0 24 8.83301 44.667 26.5 62s38.834 26 63.501 26s45.834 -8.66699 63.501 -26s26.5 -38 26.5 -62c0 -24.667 -8.83301 -45.834 -26.5 -63.501s-38.834 -26.5 -63.501 -26.5zM1087 1004
c11.333 0 19.502 -3.16699 24.502 -9.5s5.16699 -14.833 0.5 -25.5l-580 -1334c-6.66699 -16.667 -18.667 -24.667 -36 -24h-94c-11.333 0 -19.333 3 -24 9s-4.66699 14.667 0 26l152 353l-424 970c-4.66699 10.667 -4.5 19.167 0.5 25.5s13.167 9.5 24.5 9.5h93
c17.333 0 29.666 -8.33301 36.999 -25l348 -810l348 810c7.33301 16.667 19.666 25 36.999 25h93z" />
    <glyph glyph-name="Amacron" unicode="&#x100;" horiz-adv-x="1384"
d="M436 1733c-9.33301 0 -16.666 2.66699 -21.999 8s-8 12.666 -8 21.999v66c0 9.33301 2.66699 16.833 8 22.5s12.666 8.5 21.999 8.5h512c9.33301 0 16.833 -2.83301 22.5 -8.5s8.5 -13.167 8.5 -22.5v-66c0 -9.33301 -2.66699 -16.666 -8 -21.999s-13 -8 -23 -8h-512z
M1305 35c4 -10 3.66602 -18.333 -1.00098 -25s-12.667 -10 -24 -10h-98c-17.333 -0 -29 8.33301 -35 25l-110 292h-690l-109 -292c-6 -16.667 -17.667 -25 -35 -25h-99c-11.333 0 -19.166 3.16699 -23.499 9.5s-4.5 14.833 -0.5 25.5l524 1374c6 16.667 18.333 25 37 25h102
c18.667 0 31 -8.33301 37 -25zM399.999 461h584l-292 778z" />
    <glyph glyph-name="amacron" unicode="&#x101;" horiz-adv-x="1258"
d="M369 1303c-9.33301 0 -16.833 2.66699 -22.5 8s-8.5 12.666 -8.5 21.999v66c0 9.33301 2.66699 16.833 8 22.5s13 8.5 23 8.5h512c9.33301 0 16.666 -2.83301 21.999 -8.5s8 -13.167 8 -22.5v-66c0 -9.33301 -2.66699 -16.666 -8 -21.999s-12.666 -8 -21.999 -8h-512z
M1121 127c12 -1.33301 20.834 -4.6709 26.501 -10.0039s8.5 -14.666 8.5 -27.999v-60c0 -11.333 -3.5 -20.166 -10.5 -26.499s-19.833 -9.83301 -38.5 -10.5c-130 -6.66699 -195 47.333 -195 162c-61.333 -61.333 -133.166 -106.5 -215.499 -135.5
s-162.5 -43.5 -240.5 -43.5c-112.667 0 -196.334 25.667 -251.001 77s-82 120.333 -82 207c0 167.333 106.333 267 319 299l321 48c45.333 6.66699 77.166 13.334 95.499 20.001s29.5 15.334 33.5 26.001v1c0 84.667 -22.167 145.5 -66.5 182.5s-111.5 55.5 -201.5 55.5
c-180 0 -277.333 -56.667 -292 -170c-2 -16.667 -12.333 -25 -31 -25h-90c-21.333 0 -31 10.333 -29 31c20.667 199.333 168 299 442 299c278 0 416.667 -120.667 416 -362v-455c0 -48.667 27 -76 81 -82zM279.001 270.995c0 -106 66.999 -158.667 200.999 -158
c166 0 303.333 53.667 412 161v254c-3.33301 -10 -12.166 -17.5 -26.499 -22.5s-38.833 -10.5 -73.5 -16.5l-305 -46c-78.667 -12 -133 -31.833 -163 -59.5s-45 -65.167 -45 -112.5z" />
    <glyph glyph-name="Abreve" unicode="&#x102;" horiz-adv-x="1384"
d="M692 1585c-82.667 0 -149.501 24 -200.501 72s-80.5 109.333 -88.5 184c-2 20.667 7.66699 31 29 31h53c18 0 29 -9.66699 33 -29c8.66699 -40.667 28.167 -74 58.5 -100s69 -39 116 -39s85.5 13 115.5 39s49.333 59.333 58 100c4 19.333 15 29 33 29h53
c21.333 0 31 -10.333 29 -31c-7.33301 -75.333 -36.666 -136.833 -87.999 -184.5s-118.333 -71.5 -201 -71.5zM1305 35c4 -10 3.66602 -18.333 -1.00098 -25s-12.667 -10 -24 -10h-98c-17.333 -0 -29 8.33301 -35 25l-110 292h-690l-109 -292
c-6 -16.667 -17.667 -25 -35 -25h-99c-11.333 0 -19.166 3.16699 -23.499 9.5s-4.5 14.833 -0.5 25.5l524 1374c6 16.667 18.333 25 37 25h102c18.667 0 31 -8.33301 37 -25zM399.998 461h584l-292 778z" />
    <glyph glyph-name="abreve" unicode="&#x103;" horiz-adv-x="1258"
d="M625 1155c-82.667 0 -149.667 23.833 -201 71.5s-80.666 109.167 -87.999 184.5c-2 20.667 7.66699 31 29 31h53c18 0 29 -9.66699 33 -29c8.66699 -40.667 28 -74 58 -100s68.5 -39 115.5 -39s85.5 13 115.5 39s49.667 59.333 59 100c4 19.333 14.667 29 32 29h54
c21.333 0 30.666 -10.333 27.999 -31c-7.33301 -75.333 -36.5 -136.833 -87.5 -184.5s-117.833 -71.5 -200.5 -71.5zM1121 127c12 -1.33301 20.834 -4.6709 26.501 -10.0039s8.5 -14.666 8.5 -27.999v-60c0 -11.333 -3.5 -20.166 -10.5 -26.499
s-19.833 -9.83301 -38.5 -10.5c-130 -6.66699 -195 47.333 -195 162c-61.333 -61.333 -133.166 -106.5 -215.499 -135.5s-162.5 -43.5 -240.5 -43.5c-112.667 0 -196.334 25.667 -251.001 77s-82 120.333 -82 207c0 167.333 106.333 267 319 299l321 48
c45.333 6.66699 77.166 13.334 95.499 20.001s29.5 15.334 33.5 26.001v1c0 84.667 -22.167 145.5 -66.5 182.5s-111.5 55.5 -201.5 55.5c-180 0 -277.333 -56.667 -292 -170c-2 -16.667 -12.333 -25 -31 -25h-90c-21.333 0 -31 10.333 -29 31
c20.667 199.333 168 299 442 299c278 0 416.667 -120.667 416 -362v-455c0 -48.667 27 -76 81 -82zM279.001 270.995c0 -106 66.999 -158.667 200.999 -158c166 0 303.333 53.667 412 161v254c-3.33301 -10 -12.166 -17.5 -26.499 -22.5s-38.833 -10.5 -73.5 -16.5l-305 -46
c-78.667 -12 -133 -31.833 -163 -59.5s-45 -65.167 -45 -112.5z" />
    <glyph glyph-name="Aogonek" unicode="&#x104;" horiz-adv-x="1384"
d="M1305 35c4 -10 3.66504 -18.333 -1.00195 -25s-12.667 -10 -24 -10h-52c-68 -4.66699 -124 -25.834 -168 -63.501s-66 -78.5 -66 -122.5c0 -46.667 15.5 -79.5 46.5 -98.5s74.167 -22.5 129.5 -10.5v-111c-20 -8.66699 -43 -14.334 -69 -17.001s-53.167 -1 -81.5 5
s-54.666 16.167 -78.999 30.5s-44.333 36 -60 65s-23.5 63.5 -23.5 103.5c0 38.667 8 74.667 24 108s37.833 61.333 65.5 84s56.667 41.834 87 57.501s62.5 28.834 96.5 39.501l-93 247h-690l-109 -292c-6 -16.667 -17.667 -25 -35 -25h-99
c-11.333 0 -19.166 3.16699 -23.499 9.5s-4.5 14.833 -0.5 25.5l524 1374c6 16.667 18.333 25 37 25h102c18.667 0 31 -8.33301 37 -25zM399.998 461h584l-292 778z" />
    <glyph glyph-name="aogonek" unicode="&#x105;" horiz-adv-x="1258"
d="M1121 127c12 -1.33301 20.833 -4.66992 26.5 -10.0029s8.5 -14.666 8.5 -27.999v-60c0 -16 -6.66699 -26.667 -20 -32l-1 -5c-72 0 -129 -19.333 -171 -58s-63 -81.667 -63 -129c0 -46.667 15.5 -79.5 46.5 -98.5s74.167 -22.167 129.5 -9.5v-111
c-20 -8.66699 -43 -14.334 -69 -17.001s-53.167 -1 -81.5 5s-54.666 16.167 -78.999 30.5s-44.333 36 -60 65s-23.5 63.5 -23.5 103.5c0 58.667 17.667 109.834 53 153.501s81.333 79.167 138 106.5c-28.667 26.667 -43 67 -43 121
c-61.333 -61.333 -133.166 -106.5 -215.499 -135.5s-162.5 -43.5 -240.5 -43.5c-112.667 0 -196.334 25.667 -251.001 77s-82 120.333 -82 207c0 167.333 106.333 267 319 299l321 48c45.333 6.66699 77.166 13.334 95.499 20.001s29.5 15.334 33.5 26.001v1
c0 84.667 -22.167 145.5 -66.5 182.5s-111.5 55.5 -201.5 55.5c-180 0 -277.333 -56.667 -292 -170c-2 -16.667 -12.333 -25 -31 -25h-90c-21.333 0 -31 10.333 -29 31c20.667 199.333 168 299 442 299c278 0 416.667 -120.667 416 -362v-455c0 -48.667 27 -76 81 -82z
M279 270.996c0 -106 66.999 -158.667 200.999 -158c166 0 303.333 53.667 412 161v254c-3.33301 -10 -12.166 -17.5 -26.499 -22.5s-38.833 -10.5 -73.5 -16.5l-305 -46c-78.667 -12 -133 -31.833 -163 -59.5s-45 -65.167 -45 -112.5z" />
    <glyph glyph-name="Cacute" unicode="&#x106;" horiz-adv-x="1467"
d="M990 1864c11.333 0 19.5 -3.16699 24.5 -9.5s5.16699 -14.833 0.5 -25.5l-123 -258c-7.33301 -16.667 -19 -25 -35 -25h-67c-11.333 0 -19.5 3.16699 -24.5 9.5s-5.16699 14.833 -0.5 25.5l123 258c7.33301 16.667 19 25 35 25h67zM1276 274l63.002 -65.0039
c14.667 -14.667 14 -29 -2 -43c-136.667 -128.667 -297.667 -193 -483 -193c-100.667 0 -195.5 19.333 -284.5 58s-165.333 91 -229 157s-114.167 144.333 -151.5 235s-56 186.5 -56 287.5s18.667 197.333 56 289s87.833 170.334 151.5 236.001s140 117.834 229 156.501
s183.833 58 284.5 58c179.333 0 340.333 -64.333 483 -193c16.667 -13.333 17.334 -27.666 2.00098 -42.999l-63 -65c-12.667 -12.667 -27 -12.667 -43 0c-112 96.667 -238.333 145 -379 145c-102 0 -195.833 -25.167 -281.5 -75.5s-153.334 -120.333 -203.001 -210
s-74.5 -188.834 -74.5 -297.501c0 -81.333 14.667 -158.166 44 -230.499s69.166 -134.166 119.499 -185.499s109.666 -91.833 177.999 -121.5s140.833 -44.5 217.5 -44.5c140.667 0 267 48.333 379 145c16 12.667 30.333 12.667 43 0z" />
    <glyph glyph-name="cacute" unicode="&#x107;" horiz-adv-x="1199"
d="M793 1434c11.333 0 19.333 -3.16699 24 -9.5s4.66699 -14.833 0 -25.5l-123 -258c-7.33301 -16.667 -19 -25 -35 -25h-67c-11.333 0 -19.5 3.16699 -24.5 9.5s-5.16699 14.833 -0.5 25.5l123 258c7.33301 16.667 19 25 35 25h68zM650 117
c129.333 0 231.002 49.6689 305.002 149.002c10.667 15.333 24.334 17.666 41.001 6.99902l69 -41c18 -10.667 21 -24.667 9 -42c-46.667 -68 -106.834 -121.167 -180.501 -159.5s-155.5 -57.5 -245.5 -57.5c-98.667 0 -187.834 23.167 -267.501 69.5
s-141.667 109.5 -186 189.5s-66.5 169.167 -66.5 267.5s22.167 187.666 66.5 267.999s106.333 143.5 186 189.5s168.834 69 267.501 69c90 0 172 -19.167 246 -57.5s134 -91.5 180 -159.5c11.333 -17.333 8.33301 -31.333 -9 -42l-69 -41
c-16.667 -10 -30.334 -7.66699 -41.001 7c-74.667 100 -176.334 150 -305.001 150c-108 0 -196.667 -35.5 -266 -106.5s-104 -163.167 -104 -276.5s34.667 -205.5 104 -276.5s158 -106.5 266 -106.5z" />
    <glyph glyph-name="Cdotaccent" unicode="&#x10a;" horiz-adv-x="1467"
d="M818 1696c-24.667 0 -45.834 8.83301 -63.501 26.5s-26.5 38.834 -26.5 63.501c0 24 8.83301 44.667 26.5 62s38.834 26 63.501 26s45.834 -8.66699 63.501 -26s26.5 -38 26.5 -62c0 -24.667 -8.83301 -45.834 -26.5 -63.501s-38.834 -26.5 -63.501 -26.5zM1276 274
l63.002 -65.0039c14.667 -14.667 14 -29 -2 -43c-136.667 -128.667 -297.667 -193 -483 -193c-100.667 0 -195.5 19.333 -284.5 58s-165.333 91 -229 157s-114.167 144.333 -151.5 235s-56 186.5 -56 287.5s18.667 197.333 56 289s87.833 170.334 151.5 236.001
s140 117.834 229 156.501s183.833 58 284.5 58c179.333 0 340.333 -64.333 483 -193c16.667 -13.333 17.334 -27.666 2.00098 -42.999l-63 -65c-12.667 -12.667 -27 -12.667 -43 0c-112 96.667 -238.333 145 -379 145c-102 0 -195.833 -25.167 -281.5 -75.5
s-153.334 -120.333 -203.001 -210s-74.5 -188.834 -74.5 -297.501c0 -81.333 14.667 -158.166 44 -230.499s69.166 -134.166 119.499 -185.499s109.666 -91.833 177.999 -121.5s140.833 -44.5 217.5 -44.5c140.667 0 267 48.333 379 145c16 12.667 30.333 12.667 43 0z" />
    <glyph glyph-name="cdotaccent" unicode="&#x10b;" horiz-adv-x="1199"
d="M620.5 1266c-24.333 0 -45.5 8.83301 -63.5 26.5s-27 38.834 -27 63.501c0 24 9 44.667 27 62s39.167 26 63.5 26s45.5 -8.66699 63.5 -26s27 -38 27 -62c0 -24.667 -9 -45.834 -27 -63.501s-39.167 -26.5 -63.5 -26.5zM650 117
c129.333 0 231.002 49.6689 305.002 149.002c10.667 15.333 24.334 17.666 41.001 6.99902l69 -41c18 -10.667 21 -24.667 9 -42c-46.667 -68 -106.834 -121.167 -180.501 -159.5s-155.5 -57.5 -245.5 -57.5c-98.667 0 -187.834 23.167 -267.501 69.5
s-141.667 109.5 -186 189.5s-66.5 169.167 -66.5 267.5s22.167 187.666 66.5 267.999s106.333 143.5 186 189.5s168.834 69 267.501 69c90 0 172 -19.167 246 -57.5s134 -91.5 180 -159.5c11.333 -17.333 8.33301 -31.333 -9 -42l-69 -41
c-16.667 -10 -30.334 -7.66699 -41.001 7c-74.667 100 -176.334 150 -305.001 150c-108 0 -196.667 -35.5 -266 -106.5s-104 -163.167 -104 -276.5s34.667 -205.5 104 -276.5s158 -106.5 266 -106.5z" />
    <glyph glyph-name="Ccaron" unicode="&#x10c;" horiz-adv-x="1467"
d="M888 1589l-138.999 -0.000976562c-16 0 -28.333 5.66699 -37 17l-232 258c-8 9.33301 -10.5 17.833 -7.5 25.5s11.167 11.5 24.5 11.5h98c11.333 0 23.666 -5.66699 36.999 -17l186 -184l187 184c12.667 10.667 24.667 16.334 36 17.001h99
c12.667 0 20.5 -3.83301 23.5 -11.5s0.5 -16.167 -7.5 -25.5l-231 -258c-8.66699 -11.333 -21 -17 -37 -17zM1276 273.999l63.002 -65.0039c14.667 -14.667 14 -29 -2 -43c-136.667 -128.667 -297.667 -193 -483 -193c-100.667 0 -195.5 19.333 -284.5 58
s-165.333 91 -229 157s-114.167 144.333 -151.5 235s-56 186.5 -56 287.5s18.667 197.333 56 289s87.833 170.334 151.5 236.001s140 117.834 229 156.501s183.833 58 284.5 58c179.333 0 340.333 -64.333 483 -193c16.667 -13.333 17.334 -27.666 2.00098 -42.999l-63 -65
c-12.667 -12.667 -27 -12.667 -43 0c-112 96.667 -238.333 145 -379 145c-102 0 -195.833 -25.167 -281.5 -75.5s-153.334 -120.333 -203.001 -210s-74.5 -188.834 -74.5 -297.501c0 -81.333 14.667 -158.166 44 -230.499s69.166 -134.166 119.499 -185.499
s109.666 -91.833 177.999 -121.5s140.833 -44.5 217.5 -44.5c140.667 0 267 48.333 379 145c16 12.667 30.333 12.667 43 0z" />
    <glyph glyph-name="ccaron" unicode="&#x10d;" horiz-adv-x="1199"
d="M690 1159h-138.998c-16 0 -28.333 5.66699 -37 17l-231 258c-8 9.33301 -10.5 17.666 -7.5 24.999s10.833 11 23.5 11h98c11.333 0 23.666 -5.33301 36.999 -16l187 -184l186 184c12.667 10.667 25 16 37 16h98c12.667 0 20.667 -3.66699 24 -11
s0.666016 -15.666 -8.00098 -24.999l-231 -258c-8.66699 -11.333 -21 -17 -37 -17zM650.002 117c129.333 0 231.002 49.6689 305.002 149.002c10.667 15.333 24.334 17.666 41.001 6.99902l69 -41c18 -10.667 21 -24.667 9 -42
c-46.667 -68 -106.834 -121.167 -180.501 -159.5s-155.5 -57.5 -245.5 -57.5c-98.667 0 -187.834 23.167 -267.501 69.5s-141.667 109.5 -186 189.5s-66.5 169.167 -66.5 267.5s22.167 187.666 66.5 267.999s106.333 143.5 186 189.5s168.834 69 267.501 69
c90 0 172 -19.167 246 -57.5s134 -91.5 180 -159.5c11.333 -17.333 8.33301 -31.333 -9 -42l-69 -41c-16.667 -10 -30.334 -7.66699 -41.001 7c-74.667 100 -176.334 150 -305.001 150c-108 0 -196.667 -35.5 -266 -106.5s-104 -163.167 -104 -276.5
s34.667 -205.5 104 -276.5s158 -106.5 266 -106.5z" />
    <glyph glyph-name="Dcaron" unicode="&#x10e;" horiz-adv-x="1373"
d="M603 1606l-230.999 257.999c-8 9.33301 -10.5 17.833 -7.5 25.5s10.833 11.5 23.5 11.5h98c11.333 0 23.666 -5.66699 36.999 -17l187 -184l186 184c12.667 10.667 25 16.334 37 17.001h98c12.667 0 20.667 -3.83301 24 -11.5s1 -16.167 -7 -25.5l-232 -258
c-8.66699 -10.667 -21 -16.334 -37 -17.001h-139c-16 0.666992 -28.333 6.33398 -37 17.001zM526.001 1434c121.333 0 230 -18.334 326 -55.001s174.667 -87.5 236 -152.5s108 -140.667 140 -227s48 -180.666 48 -282.999s-16 -196.666 -48 -282.999
s-78.667 -161.833 -140 -226.5s-139.833 -115.334 -235.5 -152.001s-204.5 -55 -326.5 -55h-321c-9.33301 0 -16.833 2.66699 -22.5 8s-8.5 13 -8.5 23v1372c0 9.33301 2.66699 16.833 8 22.5s13 8.5 23 8.5h321zM526.001 146.998c193.333 0 339.666 50 438.999 150
s149 239.833 149 419.5s-49.667 319.5 -149 419.5s-245.666 150 -438.999 150h-192v-1139h192z" />
    <glyph glyph-name="dcaron" unicode="&#x10f;"
d="M1509 1653c11.333 0 19.5 -3.16699 24.5 -9.5s5.16699 -14.833 0.5 -25.5l-123 -258c-7.33301 -16.667 -19 -25 -35 -25h-67c-11.333 0 -19.5 3.16699 -24.5 9.5s-5.16699 14.833 -0.5 25.5l123 258c7.33301 16.667 19 25 35 25h67zM1101 1434
c8.66699 0 16 -2.83301 22 -8.5s9 -13.167 9 -22.5v-1372c0 -9.33301 -3 -16.833 -9 -22.5s-13.333 -8.5 -22 -8.5h-84c-18.667 -0 -29 10.333 -31 31l-9 119c-86.667 -117.333 -208.667 -176.333 -366 -177c-142.667 0 -258.834 49.667 -348.501 149
s-134.5 225.333 -134.5 378c0 153.333 43.833 279.333 131.5 378s204.834 148 351.501 148c86.667 0 159.667 -18.5 219 -55.5s103.333 -84.833 132 -143.5h16v576c0 9.33301 2.83301 16.833 8.5 22.5s13.167 8.5 22.5 8.5h92zM636 117c106 0 191 35.834 255 107.501
s96 164.167 96 277.5s-32 205.166 -96 275.499s-149 105.5 -255 105.5c-110 0 -197 -35 -261 -105s-96 -162 -96 -276c0 -114.667 32 -207.5 96 -278.5s151 -106.5 261 -106.5z" />
    <glyph glyph-name="Dcroat" unicode="&#x110;"
d="M501 1434c121.333 0 230 -18.333 326 -55s174.5 -87.5 235.5 -152.5s107.5 -140.667 139.5 -227s48 -180.666 48 -282.999s-16 -196.666 -48 -282.999s-78.5 -161.833 -139.5 -226.5s-139.5 -115.334 -235.5 -152.001s-204.667 -55 -326 -55h-322
c-8.66699 0 -16 2.66699 -22 8s-9 13 -9 23v622h-20c-8.66699 0 -16 2.83301 -22 8.5s-9 13.167 -9 22.5v66c0 9.33301 3 16.666 9 21.999s13.333 8 22 8h20v623c0 9.33301 3 16.833 9 22.5s13.333 8.5 22 8.5h322zM501 147c193.333 0 339.666 49.999 438.999 149.999
s149 239.833 149 419.5s-49.667 319.5 -149 419.5s-245.666 150 -438.999 150h-193v-506h332c8.66699 0 16 -2.66699 22 -8s9 -12.666 9 -21.999v-66c0 -9.33301 -3 -16.833 -9 -22.5s-13.333 -8.5 -22 -8.5h-332v-506h193z" />
    <glyph glyph-name="dcroat" unicode="&#x111;"
d="M1198 1303c9.33301 0 16.833 -2.83301 22.5 -8.5s8.5 -13.167 8.5 -22.5v-66c0 -9.33301 -2.83301 -16.666 -8.5 -21.999s-13.167 -8 -22.5 -8h-66v-1145c0 -9.33301 -3 -16.833 -9 -22.5s-13.333 -8.5 -22 -8.5h-84c-18.667 0 -29 10.333 -31 31l-9 119
c-86.667 -117.333 -208.667 -176.333 -366 -177c-142.667 0 -258.834 49.667 -348.501 149s-134.5 225.333 -134.5 378c0 153.333 43.833 279.333 131.5 378s204.834 148 351.501 148c86.667 0 159.667 -18.5 219 -55.5s103.333 -84.833 132 -143.5h16v349h-292
c-9.33301 0 -16.833 2.66699 -22.5 8s-8.5 12.666 -8.5 21.999v66c0 9.33301 2.83301 16.833 8.5 22.5s13.167 8.5 22.5 8.5h292v100c0 9.33301 2.83301 16.833 8.5 22.5s13.167 8.5 22.5 8.5h92c8.66699 0 16 -2.83301 22 -8.5s9 -13.167 9 -22.5v-100h66zM636 117
c106 0 191 35.834 255 107.501s96 164.167 96 277.5s-32 205.166 -96 275.499s-149 105.5 -255 105.5c-110 0 -197 -35 -261 -105s-96 -162 -96 -276c0 -114.667 32 -207.5 96 -278.5s151 -106.5 261 -106.5z" />
    <glyph glyph-name="Emacron" unicode="&#x112;" horiz-adv-x="1244"
d="M891 1860c9.33301 0 16.833 -2.83301 22.5 -8.5s8.5 -13.167 8.5 -22.5v-66c0 -9.33301 -2.83301 -16.666 -8.5 -21.999s-13.167 -8 -22.5 -8h-512c-9.33301 0 -16.833 2.66699 -22.5 8s-8.5 12.666 -8.5 21.999v66c0 9.33301 2.83301 16.833 8.5 22.5
s13.167 8.5 22.5 8.5h512zM1075 147c9.33301 0 16.833 -2.66895 22.5 -8.00195s8.5 -12.666 8.5 -21.999v-86c0 -9.33301 -2.66699 -16.833 -8 -22.5s-13 -8.5 -23 -8.5h-870c-9.33301 0 -16.833 2.66699 -22.5 8s-8.5 13 -8.5 23v1372c0 9.33301 2.66699 16.833 8 22.5
s13 8.5 23 8.5h868c9.33301 0 16.833 -2.83301 22.5 -8.5s8.5 -13.167 8.5 -22.5v-86c0 -9.33301 -2.83301 -16.833 -8.5 -22.5s-13.167 -8.5 -22.5 -8.5h-739v-459h684c9.33301 0 16.833 -2.66699 22.5 -8s8.5 -12.666 8.5 -21.999v-86
c0 -9.33301 -2.83301 -16.833 -8.5 -22.5s-13.167 -8.5 -22.5 -8.5h-684v-533h741z" />
    <glyph glyph-name="emacron" unicode="&#x113;" horiz-adv-x="1230"
d="M359 1303c-8.66699 0 -15.834 2.66699 -21.501 8s-8.5 12.666 -8.5 21.999v66c0 9.33301 2.83301 16.833 8.5 22.5s12.834 8.5 21.501 8.5h512c8.66699 0 16 -2.83301 22 -8.5s9 -13.167 9 -22.5v-66c0 -9.33301 -2.83301 -16.666 -8.5 -21.999s-13.167 -8 -22.5 -8h-512
zM628 1026c95.333 0 179.668 -23.166 253.001 -69.499s128.666 -106.333 165.999 -180s56 -154.167 56 -241.5c0 -37.333 -4 -63.833 -12 -79.5s-24 -23.5 -48 -23.5h-764c12 -96 52.333 -174.333 121 -235s155.334 -91 260.001 -91s197 35 277 105
c17.333 14.667 31.666 16 42.999 4l41 -41c16.667 -16.667 17.334 -32.334 2.00098 -47.001c-102.667 -102.667 -229 -154 -379 -154c-152.667 0 -276.834 50.167 -372.501 150.5s-143.5 225.833 -143.5 376.5c0 149.333 47 274.333 141 375s213.667 151 359 151z
M628.002 891.001c-94 0 -173.001 -31.333 -237.001 -94s-101.333 -142.667 -112 -240h689c-4.66699 95.333 -38.667 174.833 -102 238.5s-142.666 95.5 -237.999 95.5z" />
    <glyph glyph-name="Edotaccent" unicode="&#x116;" horiz-adv-x="1244"
d="M635 1696c-24.667 0 -45.834 8.83301 -63.501 26.5s-26.5 38.834 -26.5 63.501c0 24 8.83301 44.667 26.5 62s38.834 26 63.501 26s45.834 -8.66699 63.501 -26s26.5 -38 26.5 -62c0 -24.667 -8.83301 -45.834 -26.5 -63.501s-38.834 -26.5 -63.501 -26.5zM1075 147
c9.33301 0 16.833 -2.66895 22.5 -8.00195s8.5 -12.666 8.5 -21.999v-86c0 -9.33301 -2.66699 -16.833 -8 -22.5s-13 -8.5 -23 -8.5h-870c-9.33301 0 -16.833 2.66699 -22.5 8s-8.5 13 -8.5 23v1372c0 9.33301 2.66699 16.833 8 22.5s13 8.5 23 8.5h868
c9.33301 0 16.833 -2.83301 22.5 -8.5s8.5 -13.167 8.5 -22.5v-86c0 -9.33301 -2.83301 -16.833 -8.5 -22.5s-13.167 -8.5 -22.5 -8.5h-739v-459h684c9.33301 0 16.833 -2.66699 22.5 -8s8.5 -12.666 8.5 -21.999v-86c0 -9.33301 -2.83301 -16.833 -8.5 -22.5
s-13.167 -8.5 -22.5 -8.5h-684v-533h741z" />
    <glyph glyph-name="edotaccent" unicode="&#x117;" horiz-adv-x="1230"
d="M615.5 1266c-24.333 0 -45.5 8.83301 -63.5 26.5s-27 38.834 -27 63.501c0 24 9 44.667 27 62s39.167 26 63.5 26s45.5 -8.66699 63.5 -26s27 -38 27 -62c0 -24.667 -9 -45.834 -27 -63.501s-39.167 -26.5 -63.5 -26.5zM628 1026
c95.333 0 179.668 -23.166 253.001 -69.499s128.666 -106.333 165.999 -180s56 -154.167 56 -241.5c0 -37.333 -4 -63.833 -12 -79.5s-24 -23.5 -48 -23.5h-764c12 -96 52.333 -174.333 121 -235s155.334 -91 260.001 -91s197 35 277 105c17.333 14.667 31.666 16 42.999 4
l41 -41c16.667 -16.667 17.334 -32.334 2.00098 -47.001c-102.667 -102.667 -229 -154 -379 -154c-152.667 0 -276.834 50.167 -372.501 150.5s-143.5 225.833 -143.5 376.5c0 149.333 47 274.333 141 375s213.667 151 359 151zM628.002 891.001
c-94 0 -173.001 -31.333 -237.001 -94s-101.333 -142.667 -112 -240h689c-4.66699 95.333 -38.667 174.833 -102 238.5s-142.666 95.5 -237.999 95.5z" />
    <glyph glyph-name="Eogonek" unicode="&#x118;"
d="M1075 147c9.33301 0 16.832 -2.66699 22.499 -8s8.5 -12.666 8.5 -21.999v-86c0 -10 -3.33301 -18 -10 -24v-7c-68 -4.66699 -124 -25.834 -168 -63.501s-66 -78.5 -66 -122.5c0 -46.667 15.5 -79.5 46.5 -98.5s74.167 -22.5 129.5 -10.5v-111
c-20 -8.66699 -43 -14.334 -69 -17.001s-53.167 -1 -81.5 5s-54.666 16.167 -78.999 30.5s-44.333 36 -60 65s-23.5 63.5 -23.5 103.5c0 88.667 41.333 161.667 124 219h-644c-9.33301 0 -16.833 2.66699 -22.5 8s-8.5 13 -8.5 23v1372c0 9.33301 2.66699 16.833 8 22.5
s13 8.5 23 8.5h868c9.33301 0 16.833 -2.83301 22.5 -8.5s8.5 -13.167 8.5 -22.5v-86c0 -9.33301 -2.83301 -16.833 -8.5 -22.5s-13.167 -8.5 -22.5 -8.5h-739v-459h684c9.33301 0 16.833 -2.66699 22.5 -8s8.5 -12.666 8.5 -21.999v-86
c0 -9.33301 -2.83301 -16.833 -8.5 -22.5s-13.167 -8.5 -22.5 -8.5h-684v-533h741z" />
    <glyph glyph-name="eogonek" unicode="&#x119;" horiz-adv-x="1230"
d="M628 1026c95.333 0 179.666 -23.167 252.999 -69.5s128.666 -106.333 165.999 -180s56 -154.167 56 -241.5c0 -37.333 -4 -63.833 -12 -79.5s-24 -23.5 -48 -23.5h-764c12 -96 52.333 -174.333 121 -235s155.334 -91 260.001 -91s197 35 277 105
c17.333 14.667 31.666 16 42.999 4l41 -41c16.667 -16.667 17.334 -32.334 2.00098 -47.001c-66 -66 -141 -110.333 -225 -133c-58 -20 -104.667 -47.333 -140 -82s-53 -73 -53 -115c0 -44 15.667 -75.167 47 -93.5s74.333 -21.166 129 -8.49902v-111
c-20 -8.66699 -43 -14.334 -69 -17.001s-53.167 -1 -81.5 5s-54.666 16.167 -78.999 30.5s-44.333 36 -60 65s-23.5 63.5 -23.5 103.5c0 80.667 37.333 149 112 205c-136 15.333 -245.333 71.833 -328 169.5s-124 215.834 -124 354.501c0 149.333 47 274.333 141 375
s213.667 151 359 151zM628 891c-94 0 -173.001 -31.333 -237.001 -94s-101.333 -142.667 -112 -240h689c-4.66699 95.333 -38.667 174.833 -102 238.5s-142.666 95.5 -237.999 95.5z" />
    <glyph glyph-name="Ecaron" unicode="&#x11a;" horiz-adv-x="1244"
d="M705 1589l-139.999 -0.000976562c-16 0 -28.333 5.66699 -37 17l-231 258c-8 9.33301 -10.5 17.833 -7.5 25.5s10.833 11.5 23.5 11.5h99c11.333 0 23.666 -5.66699 36.999 -17l186 -184l186 184c12.667 10.667 25 16.334 37 17.001h98
c12.667 0 20.667 -3.83301 24 -11.5s1 -16.167 -7 -25.5l-232 -258c-8 -11.333 -20 -17 -36 -17zM1075 146.999c9.33301 0 16.833 -2.66895 22.5 -8.00195s8.5 -12.666 8.5 -21.999v-86c0 -9.33301 -2.66699 -16.833 -8 -22.5s-13 -8.5 -23 -8.5h-870
c-9.33301 0 -16.833 2.66699 -22.5 8s-8.5 13 -8.5 23v1372c0 9.33301 2.66699 16.833 8 22.5s13 8.5 23 8.5h868c9.33301 0 16.833 -2.83301 22.5 -8.5s8.5 -13.167 8.5 -22.5v-86c0 -9.33301 -2.83301 -16.833 -8.5 -22.5s-13.167 -8.5 -22.5 -8.5h-739v-459h684
c9.33301 0 16.833 -2.66699 22.5 -8s8.5 -12.666 8.5 -21.999v-86c0 -9.33301 -2.83301 -16.833 -8.5 -22.5s-13.167 -8.5 -22.5 -8.5h-684v-533h741z" />
    <glyph glyph-name="ecaron" unicode="&#x11b;" horiz-adv-x="1230"
d="M509 1176l-230.998 258c-8 9.33301 -10.667 17.666 -8 24.999s10.667 11 24 11h98c11.333 0 23.666 -5.33301 36.999 -16l186 -184l187 184c12.667 10.667 25 16 37 16h98c12.667 0 20.667 -3.66699 24 -11s0.666016 -15.666 -8.00098 -24.999l-231 -258
c-8.66699 -10.667 -21 -16.334 -37 -17.001h-139c-16 0.666992 -28.333 6.33398 -37 17.001zM628.002 1026c95.333 0 179.668 -23.166 253.001 -69.499s128.666 -106.333 165.999 -180s56 -154.167 56 -241.5c0 -37.333 -4 -63.833 -12 -79.5s-24 -23.5 -48 -23.5h-764
c12 -96 52.333 -174.333 121 -235s155.334 -91 260.001 -91s197 35 277 105c17.333 14.667 31.666 16 42.999 4l41 -41c16.667 -16.667 17.334 -32.334 2.00098 -47.001c-102.667 -102.667 -229 -154 -379 -154c-152.667 0 -276.834 50.167 -372.501 150.5
s-143.5 225.833 -143.5 376.5c0 149.333 47 274.333 141 375s213.667 151 359 151zM628.004 891.001c-94 0 -173.001 -31.333 -237.001 -94s-101.333 -142.667 -112 -240h689c-4.66699 95.333 -38.667 174.833 -102 238.5s-142.666 95.5 -237.999 95.5z" />
    <glyph glyph-name="Gbreve" unicode="&#x11e;" horiz-adv-x="1646"
d="M818 1585c-82.667 0 -149.501 24 -200.501 72s-80.5 109.333 -88.5 184c-2 20.667 7.66699 31 29 31h53c18 0 29 -9.66699 33 -29c8.66699 -40.667 28.167 -74 58.5 -100s69 -39 116 -39s85.5 13 115.5 39s49.333 59.333 58 100c4 19.333 15 29 33 29h53
c21.333 0 31 -10.333 29 -31c-7.33301 -75.333 -36.666 -136.833 -87.999 -184.5s-118.333 -71.5 -201 -71.5zM1483 739c9.33301 0 16.6641 -2.6709 21.9971 -8.00391s8 -12.666 8 -21.999v-66c0 -126.667 -26 -240.5 -78 -341.5s-128.167 -181 -228.5 -240
s-217.166 -88.5 -350.499 -88.5c-135.333 0 -258.333 33 -369 99s-197.334 155.667 -260.001 269s-94 237.666 -94 372.999c0 100.667 18.667 196.334 56 287.001s87.833 168.834 151.5 234.501s140 117.834 229 156.501s183.833 58 284.5 58
c179.333 0 340.333 -64.333 483 -193c16.667 -13.333 17.334 -27.666 2.00098 -42.999l-63 -65c-12.667 -12.667 -27 -12.667 -43 0c-112 96.667 -238.333 145 -379 145c-76.667 0 -149.167 -14.833 -217.5 -44.5s-127.666 -70 -177.999 -121
s-90.166 -112.5 -119.499 -184.5s-44 -148.667 -44 -230c0 -109.333 24.667 -208.666 74 -297.999s116.833 -159.5 202.5 -210.5s180.5 -76.5 284.5 -76.5c145.333 0 265 42.833 359 128.5s143 197.167 147 334.5h-483c-9.33301 0 -16.833 2.66699 -22.5 8s-8.5 13 -8.5 23
v86c0 9.33301 2.66699 16.666 8 21.999s13 8 23 8h604z" />
    <glyph glyph-name="gbreve" unicode="&#x11f;" horiz-adv-x="1291"
d="M646 1155c-82.667 0 -149.501 23.833 -200.501 71.5s-80.5 109.167 -88.5 184.5c-2 20.667 7.66699 31 29 31h53c18 0 29 -9.66699 33 -29c8.66699 -40.667 28 -74 58 -100s68.667 -39 116 -39s86 13 116 39s49.333 59.333 58 100c4 19.333 15 29 33 29h53
c21.333 0 31 -10.333 29 -31c-7.33301 -75.333 -36.666 -136.833 -87.999 -184.5s-118.333 -71.5 -201 -71.5zM1097 1004c8.66699 0 15.835 -2.8291 21.502 -8.49609s8.5 -13.167 8.5 -22.5v-953c0 -75.333 -14.333 -141 -43 -197s-67.667 -100.167 -117 -132.5
s-103 -56.5 -161 -72.5s-120 -24 -186 -24c-151.333 0 -279 33 -383 99c-16.667 10 -20.334 24.333 -11.001 43l29 55c8.66699 18 22.334 22 41.001 12c97.333 -48 201.666 -71.667 312.999 -71c48.667 0 94.334 5 137.001 15s81.667 26 117 48s63.333 51.833 84 89.5
s31 81.5 31 131.5v164c-40 -57.333 -90.5 -102.333 -151.5 -135s-129.833 -49 -206.5 -49c-93.333 0 -177.833 23.167 -253.5 69.5s-134.334 108.666 -176.001 186.999s-62.5 164.166 -62.5 257.499s20.833 179.166 62.5 257.499s100.167 140.666 175.5 186.999
s160 69.5 254 69.5c149.333 0 267.666 -59.667 354.999 -179l7 128c2 20.667 12.333 31 31 31h84zM632 139.004c100 0 183.499 36.832 250.499 110.499s100.5 161.167 100.5 262.5c0 100.667 -33.667 187.334 -101 260.001s-150.666 109 -249.999 109
c-101.333 0 -185.5 -35.5 -252.5 -106.5s-100.5 -158.5 -100.5 -262.5c0 -105.333 33.5 -193.833 100.5 -265.5s151.167 -107.5 252.5 -107.5z" />
    <glyph glyph-name="Gdotaccent" unicode="&#x120;" horiz-adv-x="1646"
d="M818 1696c-24.667 0 -45.834 8.83301 -63.501 26.5s-26.5 38.834 -26.5 63.501c0 24 8.83301 44.667 26.5 62s38.834 26 63.501 26s45.834 -8.66699 63.501 -26s26.5 -38 26.5 -62c0 -24.667 -8.83301 -45.834 -26.5 -63.501s-38.834 -26.5 -63.501 -26.5zM1483 739
c9.33301 0 16.6641 -2.6709 21.9971 -8.00391s8 -12.666 8 -21.999v-66c0 -126.667 -26 -240.5 -78 -341.5s-128.167 -181 -228.5 -240s-217.166 -88.5 -350.499 -88.5c-135.333 0 -258.333 33 -369 99s-197.334 155.667 -260.001 269s-94 237.666 -94 372.999
c0 100.667 18.667 196.334 56 287.001s87.833 168.834 151.5 234.501s140 117.834 229 156.501s183.833 58 284.5 58c179.333 0 340.333 -64.333 483 -193c16.667 -13.333 17.334 -27.666 2.00098 -42.999l-63 -65c-12.667 -12.667 -27 -12.667 -43 0
c-112 96.667 -238.333 145 -379 145c-76.667 0 -149.167 -14.833 -217.5 -44.5s-127.666 -70 -177.999 -121s-90.166 -112.5 -119.499 -184.5s-44 -148.667 -44 -230c0 -109.333 24.667 -208.666 74 -297.999s116.833 -159.5 202.5 -210.5s180.5 -76.5 284.5 -76.5
c145.333 0 265 42.833 359 128.5s143 197.167 147 334.5h-483c-9.33301 0 -16.833 2.66699 -22.5 8s-8.5 13 -8.5 23v86c0 9.33301 2.66699 16.666 8 21.999s13 8 23 8h604z" />
    <glyph glyph-name="gdotaccent" unicode="&#x121;" horiz-adv-x="1291"
d="M646 1266c-24.667 0 -45.834 8.83301 -63.501 26.5s-26.5 38.834 -26.5 63.501c0 24 8.83301 44.667 26.5 62s38.834 26 63.501 26s45.834 -8.66699 63.501 -26s26.5 -38 26.5 -62c0 -24.667 -8.83301 -45.834 -26.5 -63.501s-38.834 -26.5 -63.501 -26.5zM1097 1004
c8.66699 0 15.835 -2.8291 21.502 -8.49609s8.5 -13.167 8.5 -22.5v-953c0 -75.333 -14.333 -141 -43 -197s-67.667 -100.167 -117 -132.5s-103 -56.5 -161 -72.5s-120 -24 -186 -24c-151.333 0 -279 33 -383 99c-16.667 10 -20.334 24.333 -11.001 43l29 55
c8.66699 18 22.334 22 41.001 12c97.333 -48 201.666 -71.667 312.999 -71c48.667 0 94.334 5 137.001 15s81.667 26 117 48s63.333 51.833 84 89.5s31 81.5 31 131.5v164c-40 -57.333 -90.5 -102.333 -151.5 -135s-129.833 -49 -206.5 -49
c-93.333 0 -177.833 23.167 -253.5 69.5s-134.334 108.666 -176.001 186.999s-62.5 164.166 -62.5 257.499s20.833 179.166 62.5 257.499s100.167 140.666 175.5 186.999s160 69.5 254 69.5c149.333 0 267.666 -59.667 354.999 -179l7 128c2 20.667 12.333 31 31 31h84z
M632.001 139.004c100 0 183.499 36.832 250.499 110.499s100.5 161.167 100.5 262.5c0 100.667 -33.667 187.334 -101 260.001s-150.666 109 -249.999 109c-101.333 0 -185.5 -35.5 -252.5 -106.5s-100.5 -158.5 -100.5 -262.5c0 -105.333 33.5 -193.833 100.5 -265.5
s151.167 -107.5 252.5 -107.5z" />
    <glyph glyph-name="Gcommaaccent" unicode="&#x122;" horiz-adv-x="1646"
d="M1483 739c9.33301 0 16.6641 -2.6709 21.9971 -8.00391s8 -12.666 8 -21.999v-66c0 -126.667 -26 -240.5 -78 -341.5s-128.167 -181 -228.5 -240s-217.166 -88.5 -350.499 -88.5c-135.333 0 -258.333 33 -369 99s-197.334 155.667 -260.001 269s-94 237.666 -94 372.999
c0 100.667 18.667 196.334 56 287.001s87.833 168.834 151.5 234.501s140 117.834 229 156.501s183.833 58 284.5 58c179.333 0 340.333 -64.333 483 -193c16.667 -13.333 17.334 -27.666 2.00098 -42.999l-63 -65c-12.667 -12.667 -27 -12.667 -43 0
c-112 96.667 -238.333 145 -379 145c-76.667 0 -149.167 -14.833 -217.5 -44.5s-127.666 -70 -177.999 -121s-90.166 -112.5 -119.499 -184.5s-44 -148.667 -44 -230c0 -109.333 24.667 -208.666 74 -297.999s116.833 -159.5 202.5 -210.5s180.5 -76.5 284.5 -76.5
c145.333 0 265 42.833 359 128.5s143 197.167 147 334.5h-483c-9.33301 0 -16.833 2.66699 -22.5 8s-8.5 13 -8.5 23v86c0 9.33301 2.66699 16.666 8 21.999s13 8 23 8h604zM1022 -167.004c8.66699 0 15.832 -2.66797 21.499 -8.00098s8.5 -12.666 8.5 -21.999v-33
c0 -76.667 -6.66699 -155.834 -20 -237.501s-29.666 -148.5 -48.999 -200.5c-6 -16 -17.667 -23.667 -35 -23h-45c-21.333 0 -29.666 11.333 -24.999 34c8.66699 48.667 15.667 108.5 21 179.5s7.33301 131.167 6 180.5h-243c-20 0 -30 10 -30 30v70
c0 8.66699 2.66699 15.834 8 21.501s12.666 8.5 21.999 8.5h360z" />
    <glyph glyph-name="gcommaaccent" unicode="&#x123;" horiz-adv-x="1291"
d="M432 1226c-8.66699 0 -15.8301 2.66602 -21.4971 7.99902s-8.5 12.333 -8.5 21v34c0 76.667 6.66699 155.834 20 237.501s29.666 148.167 48.999 199.5c6 16 17.667 24 35 24h45c21.333 0 30 -11.333 26 -34c-8.66699 -48.667 -15.834 -108.5 -21.501 -179.5
s-7.83398 -131.167 -6.50098 -180.5h244c20 0 29.667 -10 29 -30v-71c0 -8.66699 -2.66699 -15.667 -8 -21s-12.333 -8 -21 -8h-361zM1097 1004c8.66699 0 15.835 -2.8291 21.502 -8.49609s8.5 -13.167 8.5 -22.5v-953c0 -75.333 -14.333 -141 -43 -197
s-67.667 -100.167 -117 -132.5s-103 -56.5 -161 -72.5s-120 -24 -186 -24c-151.333 0 -279 33 -383 99c-16.667 10 -20.334 24.333 -11.001 43l29 55c8.66699 18 22.334 22 41.001 12c97.333 -48 201.666 -71.667 312.999 -71c48.667 0 94.334 5 137.001 15
s81.667 26 117 48s63.333 51.833 84 89.5s31 81.5 31 131.5v164c-40 -57.333 -90.5 -102.333 -151.5 -135s-129.833 -49 -206.5 -49c-93.333 0 -177.833 23.167 -253.5 69.5s-134.334 108.666 -176.001 186.999s-62.5 164.166 -62.5 257.499s20.833 179.166 62.5 257.499
s100.167 140.666 175.5 186.999s160 69.5 254 69.5c149.333 0 267.666 -59.667 354.999 -179l7 128c2 20.667 12.333 31 31 31h84zM632.005 139.003c100 0 183.499 36.832 250.499 110.499s100.5 161.167 100.5 262.5c0 100.667 -33.667 187.334 -101 260.001
s-150.666 109 -249.999 109c-101.333 0 -185.5 -35.5 -252.5 -106.5s-100.5 -158.5 -100.5 -262.5c0 -105.333 33.5 -193.833 100.5 -265.5s151.167 -107.5 252.5 -107.5z" />
    <glyph glyph-name="Hbar" unicode="&#x126;" horiz-adv-x="1433"
d="M1229 1434c9.33301 0 16.833 -2.83301 22.5 -8.5s8.5 -13.167 8.5 -22.5v-1372c0 -9.33301 -2.83301 -16.833 -8.5 -22.5s-13.167 -8.5 -22.5 -8.5h-99c-9.33301 0 -16.666 2.66699 -21.999 8s-8 13 -8 23v628h-766v-628c0 -9.33301 -2.83301 -16.833 -8.5 -22.5
s-13.167 -8.5 -22.5 -8.5h-98c-9.33301 0 -16.833 2.66699 -22.5 8s-8.5 13 -8.5 23v1372c0 9.33301 2.66699 16.833 8 22.5s13 8.5 23 8.5h98c9.33301 0 16.833 -2.83301 22.5 -8.5s8.5 -13.167 8.5 -22.5v-281h748v-139h-748v-176h766v596
c0 9.33301 2.66699 16.833 8 22.5s12.666 8.5 21.999 8.5h99z" />
    <glyph glyph-name="hbar" unicode="&#x127;" horiz-adv-x="1230"
d="M699 1026c116 0 206.332 -33.6699 270.999 -101.003s97 -166.666 97 -297.999v-596c0 -9.33301 -2.66699 -16.833 -8 -22.5s-13 -8.5 -23 -8.5h-92c-9.33301 0 -16.833 2.66699 -22.5 8s-8.5 13 -8.5 23v585c0 179.333 -86.333 269.333 -259 270
c-49.333 0 -95.166 -8.66699 -137.499 -26s-76.833 -39 -103.5 -65s-48 -50.667 -64 -74s-26.667 -43.666 -32 -60.999v-629c0 -9.33301 -2.66699 -16.833 -8 -22.5s-12.666 -8.5 -21.999 -8.5h-92c-9.33301 0 -16.833 2.66699 -22.5 8s-8.5 13 -8.5 23v1143h-92
c-9.33301 0 -16.833 2.66699 -22.5 8s-8.5 12.666 -8.5 21.999v66c0 9.33301 2.66699 16.666 8 21.999s13 8 23 8h92v103c0 9.33301 2.66699 16.833 8 22.5s13 8.5 23 8.5h92c9.33301 0 16.666 -2.83301 21.999 -8.5s8 -13.167 8 -22.5v-103h267
c9.33301 0 16.666 -2.66699 21.999 -8s8 -12.666 8 -21.999v-66c0 -9.33301 -2.66699 -16.666 -8 -21.999s-12.666 -8 -21.999 -8h-267v-343h19c32 54.667 79.5 100.834 142.5 138.501s136.5 56.5 220.5 56.5z" />
    <glyph glyph-name="Imacron" unicode="&#x12a;"
d="M911 1860c9.33301 0 16.833 -2.83301 22.5 -8.5s8.5 -13.167 8.5 -22.5v-66c0 -9.33301 -2.66699 -16.666 -8 -21.999s-13 -8 -23 -8h-512c-9.33301 0 -16.666 2.66699 -21.999 8s-8 12.666 -8 21.999v66c0 9.33301 2.66699 16.833 8 22.5s12.666 8.5 21.999 8.5h512z
M1132 1286h-397v-1139h397c8.66699 0 15.834 -2.66699 21.501 -8s8.5 -12.666 8.5 -21.999v-86c0 -9.33301 -2.83301 -16.833 -8.5 -22.5s-12.834 -8.5 -21.501 -8.5h-953c-8.66699 0 -16 2.66699 -22 8s-9 13 -9 23v86c0 9.33301 3 16.666 9 21.999s13.333 8 22 8h396v1139
h-396c-8.66699 0 -16 2.83301 -22 8.5s-9 13.167 -9 22.5v86c0 9.33301 3 16.833 9 22.5s13.333 8.5 22 8.5h953c8.66699 0 15.834 -2.83301 21.501 -8.5s8.5 -13.167 8.5 -22.5v-86c0 -9.33301 -2.83301 -16.833 -8.5 -22.5s-12.834 -8.5 -21.501 -8.5z" />
    <glyph glyph-name="imacron" unicode="&#x12b;" horiz-adv-x="1177"
d="M333 1303c-8.66699 0 -16 2.66699 -22 8s-9 12.666 -9 21.999v66c0 9.33301 2.83301 16.833 8.5 22.5s13.167 8.5 22.5 8.5h512c8.66699 0 16 -2.83301 22 -8.5s9 -13.167 9 -22.5v-66c0 -9.33301 -3 -16.666 -9 -21.999s-13.333 -8 -22 -8h-512zM1029 137
c8.66699 0 15.999 -2.66699 21.999 -8s9 -13 9 -23v-75c0 -9.33301 -3 -16.833 -9 -22.5s-13.333 -8.5 -22 -8.5h-870c-8.66699 0 -16 2.66699 -22 8s-9 13 -9 23v75c0 9.33301 2.83301 16.833 8.5 22.5s13.167 8.5 22.5 8.5h385v729h-334c-8.66699 0 -16 2.83301 -22 8.5
s-9 13.167 -9 22.5v76c0 9.33301 3 16.833 9 22.5s13.333 8.5 22 8.5h457c8.66699 0 15.834 -2.83301 21.501 -8.5s8.5 -13.167 8.5 -22.5v-836h332z" />
    <glyph glyph-name="iogonek" unicode="&#x12f;"
d="M589 1266c-24.667 0 -45.834 8.83301 -63.501 26.5s-26.5 38.834 -26.5 63.501c0 24 8.83301 44.667 26.5 62s38.834 26 63.501 26s45.834 -8.66699 63.501 -26s26.5 -38 26.5 -62c0 -24.667 -8.83301 -45.834 -26.5 -63.501s-38.834 -26.5 -63.501 -26.5zM1029 137
c8.66699 0 15.998 -2.66504 21.998 -7.99805s9 -13 9 -23v-75c0 -9.33301 -3 -16.833 -9 -22.5s-13.333 -8.5 -22 -8.5h-210c-68 -4.66699 -123.833 -25.834 -167.5 -63.501s-65.5 -78.5 -65.5 -122.5c0 -46.667 15.5 -79.5 46.5 -98.5s74.167 -22.5 129.5 -10.5v-111
c-20 -8.66699 -43.167 -14.334 -69.5 -17.001s-53.666 -1 -81.999 5s-54.5 16.167 -78.5 30.5s-43.833 36 -59.5 65s-23.5 63.5 -23.5 103.5c0 88.667 41 161.667 123 219h-413c-8.66699 0 -16 2.66699 -22 8s-9 13 -9 23v75c0 9.33301 2.83301 16.833 8.5 22.5
s13.167 8.5 22.5 8.5h385v729h-334c-8.66699 0 -16 2.83301 -22 8.5s-9 13.167 -9 22.5v76c0 9.33301 3 16.833 9 22.5s13.333 8.5 22 8.5h457c8.66699 0 15.834 -2.83301 21.501 -8.5s8.5 -13.167 8.5 -22.5v-836h332z" />
    <glyph glyph-name="Idotaccent" unicode="&#x130;"
d="M655 1696c-24.667 0 -45.834 8.83301 -63.501 26.5s-26.5 38.834 -26.5 63.501c0 24 8.83301 44.667 26.5 62s38.834 26 63.501 26s45.834 -8.66699 63.501 -26s26.5 -38 26.5 -62c0 -24.667 -8.83301 -45.834 -26.5 -63.501s-38.834 -26.5 -63.501 -26.5zM1132 1286
h-397v-1139h397c8.66699 0 15.834 -2.66699 21.501 -8s8.5 -12.666 8.5 -21.999v-86c0 -9.33301 -2.83301 -16.833 -8.5 -22.5s-12.834 -8.5 -21.501 -8.5h-953c-8.66699 0 -16 2.66699 -22 8s-9 13 -9 23v86c0 9.33301 3 16.666 9 21.999s13.333 8 22 8h396v1139h-396
c-8.66699 0 -16 2.83301 -22 8.5s-9 13.167 -9 22.5v86c0 9.33301 3 16.833 9 22.5s13.333 8.5 22 8.5h953c8.66699 0 15.834 -2.83301 21.501 -8.5s8.5 -13.167 8.5 -22.5v-86c0 -9.33301 -2.83301 -16.833 -8.5 -22.5s-12.834 -8.5 -21.501 -8.5z" />
    <glyph glyph-name="dotlessi" unicode="&#x131;" horiz-adv-x="1177"
d="M1029 137c8.66699 0 15.999 -2.66699 21.999 -8s9 -13 9 -23v-75c0 -9.33301 -3 -16.833 -9 -22.5s-13.333 -8.5 -22 -8.5h-870c-8.66699 0 -16 2.66699 -22 8s-9 13 -9 23v75c0 9.33301 2.83301 16.833 8.5 22.5s13.167 8.5 22.5 8.5h385v729h-334
c-8.66699 0 -16 2.83301 -22 8.5s-9 13.167 -9 22.5v76c0 9.33301 3 16.833 9 22.5s13.333 8.5 22 8.5h457c8.66699 0 15.834 -2.83301 21.501 -8.5s8.5 -13.167 8.5 -22.5v-836h332z" />
    <glyph glyph-name="IJ" unicode="&#x132;"
d="M262 1434c9.33301 0 16.833 -2.83301 22.5 -8.5s8.5 -13.167 8.5 -22.5v-1372c0 -9.33301 -2.83301 -16.833 -8.5 -22.5s-13.167 -8.5 -22.5 -8.5h-98c-9.33301 0 -16.833 2.66699 -22.5 8s-8.5 13 -8.5 23v1372c0 9.33301 2.83301 16.833 8.5 22.5s13.167 8.5 22.5 8.5
h98zM1147 1434c9.33301 0 16.8359 -2.83398 22.5029 -8.50098s8.5 -13.167 8.5 -22.5v-903c0 -86.667 -13.167 -163.834 -39.5 -231.501s-62 -122 -107 -163s-95.667 -71.833 -152 -92.5s-116.833 -31 -181.5 -31c-94.667 0 -172.334 15.667 -233.001 47
c-18 8.66699 -22 22.334 -12 41.001l36 73c8.66699 17.333 21.667 23 39 17c49.333 -19.333 100.666 -29 153.999 -29c93.333 0 172.666 31.333 237.999 94s98 154.334 98 275.001v786h-510c-9.33301 0 -16.833 2.83301 -22.5 8.5s-8.5 13.167 -8.5 22.5v86
c0 9.33301 2.83301 16.833 8.5 22.5s13.167 8.5 22.5 8.5h639z" />
    <glyph glyph-name="ij" unicode="&#x133;" horiz-adv-x="1314"
d="M262 1243c-27.333 0 -50.5 9.5 -69.5 28.5s-28.5 42.167 -28.5 69.5s9.5 50.666 28.5 69.999s42.167 29 69.5 29s50.5 -9.66699 69.5 -29s28.5 -42.666 28.5 -69.999s-9.5 -50.5 -28.5 -69.5s-42.167 -28.5 -69.5 -28.5zM1038 1243c-27.333 0 -50.5 9.5 -69.5 28.5
s-28.5 42.167 -28.5 69.5s9.5 50.666 28.5 69.999s42.167 29 69.5 29s50.666 -9.66699 69.999 -29s29 -42.666 29 -69.999s-9.66699 -50.5 -29 -69.5s-42.666 -28.5 -69.999 -28.5zM313 1004c9.33301 0 16.833 -2.83301 22.5 -8.5s8.5 -13.167 8.5 -22.5v-942
c0 -9.33301 -2.66699 -16.833 -8 -22.5s-13 -8.5 -23 -8.5h-92c-9.33301 0 -16.833 2.66699 -22.5 8s-8.5 13 -8.5 23v942c0 9.33301 2.83301 16.833 8.5 22.5s13.167 8.5 22.5 8.5h92zM1110 1004c9.33301 0 16.8311 -2.83301 22.498 -8.5s8.5 -13.167 8.5 -22.5v-946
c0 -280.667 -140 -421 -420 -421c-40.667 0 -80.667 4.33301 -120 13s-72.666 19.5 -99.999 32.5s-51.166 26.833 -71.499 41.5s-34.5 28.167 -42.5 40.5s-10 21.833 -6 28.5l41 66c4 7.33301 11 11.5 21 12.5s19.333 -1.83301 28 -8.5c76 -58.667 156.667 -88 242 -88
c28.667 0 54.5 1.83301 77.5 5.5s47.333 11.667 73 24s47 28.5 64 48.5s31.167 47.333 42.5 82s17 75.667 17 123v839h-487c-9.33301 0 -16.833 2.83301 -22.5 8.5s-8.5 13.167 -8.5 22.5v76c0 9.33301 2.66699 16.833 8 22.5s13 8.5 23 8.5h610z" />
    <glyph glyph-name="Kcommaaccent" unicode="&#x136;" horiz-adv-x="1243"
d="M1164 37c7.33301 -10 9.16602 -18.668 5.49902 -26.001s-11.5 -11 -23.5 -11h-121c-16 0 -28.333 6 -37 18l-500 667l-180 -200v-454c0 -9.33301 -2.83301 -16.833 -8.5 -22.5s-12.834 -8.5 -21.501 -8.5h-99c-8.66699 0 -16 2.66699 -22 8s-9 13 -9 23v1372
c0 9.33301 3 16.833 9 22.5s13.333 8.5 22 8.5h99c8.66699 0 15.834 -2.83301 21.501 -8.5s8.5 -13.167 8.5 -22.5v-704l643 718c8.66699 10.667 21 16.334 37 17.001h129c12.667 0 20.834 -3.83301 24.501 -11.5s1.16699 -16.167 -7.5 -25.5l-542 -598zM854 -167.001
c8.66699 0 15.832 -2.66797 21.499 -8.00098s8.5 -12.666 8.5 -21.999v-33c0 -76.667 -6.66699 -155.834 -20 -237.501s-29.666 -148.5 -48.999 -200.5c-6 -16 -17.667 -23.667 -35 -23h-45c-21.333 0 -29.666 11.333 -24.999 34c8.66699 48.667 15.667 108.5 21 179.5
s7.33301 131.167 6 180.5h-243c-20 0 -30 10 -30 30v70c0 8.66699 2.66699 15.834 8 21.501s12.666 8.5 21.999 8.5h360z" />
    <glyph glyph-name="kcommaaccent" unicode="&#x137;" horiz-adv-x="1162"
d="M1077 37c8 -10 10.001 -18.668 6.00098 -26.001s-12 -11 -24 -11h-117c-14.667 0 -27 6 -37 18l-371 442l-217 -226v-203c0 -9.33301 -2.66699 -16.833 -8 -22.5s-12.666 -8.5 -21.999 -8.5h-92c-9.33301 0 -16.833 2.66699 -22.5 8s-8.5 13 -8.5 23v1433
c0 9.33301 2.66699 16.833 8 22.5s13 8.5 23 8.5h92c9.33301 0 16.666 -2.66699 21.999 -8s8 -13 8 -23v-1032l525 555c10.667 10.667 23.667 16.334 39 17.001h123c13.333 0 21.666 -3.66699 24.999 -11s0.333008 -16 -9 -26l-386 -403zM785.001 -167.001
c8.66699 0 15.8291 -2.66797 21.4961 -8.00098s8.5 -12.666 8.5 -21.999v-33c0 -76.667 -6.66699 -155.834 -20 -237.501s-29.666 -148.5 -48.999 -200.5c-6 -16 -17.333 -23.667 -34 -23h-45c-21.333 0 -30 11.333 -26 34c8.66699 48.667 15.834 108.5 21.501 179.5
s7.83398 131.167 6.50098 180.5h-244c-20 0 -30 10 -30 30v70c0 8.66699 2.83301 15.834 8.5 21.501s12.834 8.5 21.501 8.5h360z" />
    <glyph glyph-name="Lacute" unicode="&#x139;" horiz-adv-x="1198"
d="M248 1520c-11.333 0 -19.5 3 -24.5 9s-5.16699 14.333 -0.5 25l123 258c7.33301 16.667 19 25 35 25h68c11.333 0 19.333 -3 24 -9s4.66699 -14.667 0 -26l-123 -258c-7.33301 -16.667 -19 -24.667 -35 -24h-67zM1065 147c9.33301 0 16.833 -2.66797 22.5 -8.00098
s8.5 -12.666 8.5 -21.999v-86c0 -9.33301 -2.83301 -16.833 -8.5 -22.5s-13.167 -8.5 -22.5 -8.5h-860c-9.33301 0 -16.833 2.66699 -22.5 8s-8.5 13 -8.5 23v1372c0 9.33301 2.66699 16.833 8 22.5s13 8.5 23 8.5h98c9.33301 0 16.833 -2.83301 22.5 -8.5
s8.5 -13.167 8.5 -22.5v-1256h731z" />
    <glyph glyph-name="lacute" unicode="&#x13a;" horiz-adv-x="1182"
d="M570 1546c-11.333 0 -19.332 3.16699 -23.999 9.5s-4.66699 14.833 0 25.5l123 258c7.33301 16.667 18.666 25 33.999 25h68c11.333 0 19.5 -3.16699 24.5 -9.5s5.16699 -14.833 0.5 -25.5l-123 -258c-7.33301 -16.667 -19 -25 -35 -25h-68zM1039 137
c8.66699 0 15.999 -2.66699 21.999 -8s9 -13 9 -23v-75c0 -9.33301 -2.83301 -16.833 -8.5 -22.5s-13.167 -8.5 -22.5 -8.5h-880c-8.66699 0 -16 2.66699 -22 8s-9 13 -9 23v75c0 9.33301 2.83301 16.833 8.5 22.5s13.167 8.5 22.5 8.5h385v1159h-365
c-8.66699 0 -16 2.83301 -22 8.5s-9 13.167 -9 22.5v76c0 9.33301 3 16.833 9 22.5s13.333 8.5 22 8.5h488c8.66699 0 15.834 -2.83301 21.501 -8.5s8.5 -13.167 8.5 -22.5v-1266h342z" />
    <glyph glyph-name="Lcommaaccent" unicode="&#x13b;" horiz-adv-x="1198"
d="M1065 147c9.33301 0 16.833 -2.66797 22.5 -8.00098s8.5 -12.666 8.5 -21.999v-86c0 -9.33301 -2.83301 -16.833 -8.5 -22.5s-13.167 -8.5 -22.5 -8.5h-860c-9.33301 0 -16.833 2.66699 -22.5 8s-8.5 13 -8.5 23v1372c0 9.33301 2.66699 16.833 8 22.5s13 8.5 23 8.5h98
c9.33301 0 16.833 -2.83301 22.5 -8.5s8.5 -13.167 8.5 -22.5v-1256h731zM828 -167.001c8.66699 0 15.8301 -2.66797 21.4971 -8.00098s8.5 -12.666 8.5 -21.999v-33c0 -76.667 -6.66699 -155.834 -20 -237.501s-29.333 -148.5 -48 -200.5c-6 -16 -17.667 -23.667 -35 -23
h-45c-21.333 0 -30 11.333 -26 34c8.66699 48.667 15.834 108.5 21.501 179.5s7.83398 131.167 6.50098 180.5h-244c-20 0 -30 10 -30 30v70c0 8.66699 2.83301 15.834 8.5 21.501s12.834 8.5 21.501 8.5h360z" />
    <glyph glyph-name="lcommaaccent" unicode="&#x13c;" horiz-adv-x="1182"
d="M1039 137c8.66699 0 15.999 -2.66699 21.999 -8s9 -13 9 -23v-75c0 -9.33301 -2.83301 -16.833 -8.5 -22.5s-13.167 -8.5 -22.5 -8.5h-880c-8.66699 0 -16 2.66699 -22 8s-9 13 -9 23v75c0 9.33301 2.83301 16.833 8.5 22.5s13.167 8.5 22.5 8.5h385v1159h-365
c-8.66699 0 -16 2.83301 -22 8.5s-9 13.167 -9 22.5v76c0 9.33301 3 16.833 9 22.5s13.333 8.5 22 8.5h488c8.66699 0 15.834 -2.83301 21.501 -8.5s8.5 -13.167 8.5 -22.5v-1266h342zM802.999 -167c8.66699 0 15.8301 -2.66797 21.4971 -8.00098s8.5 -12.666 8.5 -21.999
v-33c0 -76.667 -6.66699 -155.834 -20 -237.501s-29.666 -148.5 -48.999 -200.5c-6 -16 -17.667 -23.667 -35 -23h-45c-21.333 0 -30 11.333 -26 34c8.66699 48.667 15.834 108.5 21.501 179.5s7.83398 131.167 6.50098 180.5h-244c-20 0 -29.667 10 -29 30v70
c0 8.66699 2.66699 15.834 8 21.501s12.333 8.5 21 8.5h361z" />
    <glyph glyph-name="Lcaron" unicode="&#x13d;" horiz-adv-x="1198"
d="M1065 147c9.33301 0 16.833 -2.66797 22.5 -8.00098s8.5 -12.666 8.5 -21.999v-86c0 -9.33301 -2.83301 -16.833 -8.5 -22.5s-13.167 -8.5 -22.5 -8.5h-860c-9.33301 0 -16.833 2.66699 -22.5 8s-8.5 13 -8.5 23v1372c0 9.33301 2.66699 16.833 8 22.5s13 8.5 23 8.5h98
c9.33301 0 16.833 -2.83301 22.5 -8.5s8.5 -13.167 8.5 -22.5v-1256h731zM504 1297c-9.33301 0 -16.833 3 -22.5 9s-8.5 13.333 -8.5 22v75c0 9.33301 2.66699 16.833 8 22.5s13 8.5 23 8.5h379c9.33301 0 16.666 -2.83301 21.999 -8.5s8 -13.167 8 -22.5v-36
c0 -80.667 -6.83301 -163.834 -20.5 -249.501s-30.5 -155.5 -50.5 -209.5c-6 -16.667 -18.333 -24.667 -37 -24h-47c-22 0 -31 11.667 -27 35c9.33301 50.667 16.833 113.334 22.5 188.001s7.83398 138 6.50098 190h-256z" />
    <glyph glyph-name="lcaron" unicode="&#x13e;" horiz-adv-x="1244"
d="M1039 137c8.66699 0 15.999 -2.66699 21.999 -8s9 -13 9 -23v-75c0 -9.33301 -2.83301 -16.833 -8.5 -22.5s-13.167 -8.5 -22.5 -8.5h-880c-8.66699 0 -16 2.66699 -22 8s-9 13 -9 23v75c0 9.33301 2.83301 16.833 8.5 22.5s13.167 8.5 22.5 8.5h385v1159h-365
c-8.66699 0 -16 2.83301 -22 8.5s-9 13.167 -9 22.5v76c0 9.33301 3 16.833 9 22.5s13.333 8.5 22 8.5h488c8.66699 0 15.834 -2.83301 21.501 -8.5s8.5 -13.167 8.5 -22.5v-1266h342zM1193 1434c8.66699 0 16 -2.83301 22 -8.5s9 -13.167 9 -22.5v-36
c0 -80.667 -6.83301 -163.834 -20.5 -249.501s-30.834 -155.5 -51.501 -209.5c-6 -16.667 -18.333 -24.667 -37 -24h-47c-22 0 -31 11.667 -27 35c9.33301 50.667 16.833 113.334 22.5 188.001s7.83398 138 6.50098 190h-256c-8.66699 0 -16 3 -22 9s-9 13.333 -9 22v75
c0 9.33301 3 16.833 9 22.5s13.333 8.5 22 8.5h379z" />
    <glyph glyph-name="Ldot" unicode="&#x13f;" horiz-adv-x="1198"
d="M1065 147c9.33301 0 16.833 -2.66797 22.5 -8.00098s8.5 -12.666 8.5 -21.999v-86c0 -9.33301 -2.83301 -16.833 -8.5 -22.5s-13.167 -8.5 -22.5 -8.5h-860c-9.33301 0 -16.833 2.66699 -22.5 8s-8.5 13 -8.5 23v1372c0 9.33301 2.66699 16.833 8 22.5s13 8.5 23 8.5h98
c9.33301 0 16.833 -2.83301 22.5 -8.5s8.5 -13.167 8.5 -22.5v-1256h731zM726 661.999c-36 0 -66.167 12.167 -90.5 36.5s-36.5 54.166 -36.5 89.499c0 36 12.333 66.667 37 92s54.667 38 90 38s65.333 -12.5 90 -37.5s37 -55.833 37 -92.5
c0 -35.333 -12.167 -65.166 -36.5 -89.499s-54.5 -36.5 -90.5 -36.5z" />
    <glyph glyph-name="ldot" unicode="&#x140;" horiz-adv-x="1208"
d="M1039 137c8.66699 0 15.999 -2.66699 21.999 -8s9 -13 9 -23v-75c0 -9.33301 -2.83301 -16.833 -8.5 -22.5s-13.167 -8.5 -22.5 -8.5h-880c-8.66699 0 -16 2.66699 -22 8s-9 13 -9 23v75c0 9.33301 2.83301 16.833 8.5 22.5s13.167 8.5 22.5 8.5h385v1159h-365
c-8.66699 0 -16 2.83301 -22 8.5s-9 13.167 -9 22.5v76c0 9.33301 3 16.833 9 22.5s13.333 8.5 22 8.5h488c8.66699 0 15.834 -2.83301 21.501 -8.5s8.5 -13.167 8.5 -22.5v-1266h342zM953.499 657c-36.333 0 -66.668 12.334 -91.001 37.001s-36.5 54.667 -36.5 90
c0 36 12.333 66.5 37 91.5s54.834 37.5 90.501 37.5s65.667 -12.333 90 -37s36.5 -55.334 36.5 -92.001c0 -35.333 -12 -65.333 -36 -90s-54.167 -37 -90.5 -37z" />
    <glyph glyph-name="Lslash" unicode="&#x141;"
d="M1055 147c9.33301 0 16.666 -2.66895 21.999 -8.00195s8 -12.666 8 -21.999v-86c0 -9.33301 -2.66699 -16.833 -8 -22.5s-12.666 -8.5 -21.999 -8.5h-779c-9.33301 0 -16.666 2.66699 -21.999 8s-8 13 -8 23v478l-107 -103c-10 -9.33301 -18.667 -12.5 -26 -9.5
s-11 11.5 -11 25.5v100c0 15.333 5.66699 28.333 17 39l127 123v719c0 9.33301 2.66699 16.833 8 22.5s12.666 8.5 21.999 8.5h99c9.33301 0 16.833 -2.83301 22.5 -8.5s8.5 -13.167 8.5 -22.5v-563l194 188c10 9.33301 18.667 12.333 26 9s11 -11.666 11 -24.999v-99
c0 -15.333 -5.33301 -28.333 -16 -39l-215 -209v-518h649z" />
    <glyph glyph-name="lslash" unicode="&#x142;"
d="M1066 137c8.66699 0 16 -2.66699 22 -8s9 -13 9 -23v-75c0 -9.33301 -3 -16.833 -9 -22.5s-13.333 -8.5 -22 -8.5h-881c-8.66699 0 -15.834 2.66699 -21.501 8s-8.5 13 -8.5 23v75c0 9.33301 2.83301 16.833 8.5 22.5s12.834 8.5 21.501 8.5h385v430l-175 -178v156
l175 177v574h-364c-8.66699 0 -16 2.83301 -22 8.5s-9 13.167 -9 22.5v76c0 9.33301 3 16.833 9 22.5s13.333 8.5 22 8.5h487c8.66699 0 16 -2.83301 22 -8.5s9 -13.167 9 -22.5v-525l206 207v-153l-206 -209v-586h342z" />
    <glyph glyph-name="Nacute" unicode="&#x143;" horiz-adv-x="1404"
d="M674 1546c-11.333 0 -19.5 3.16699 -24.5 9.5s-5.16699 14.833 -0.5 25.5l123 258c7.33301 16.667 19 25 35 25h67c11.333 0 19.5 -3.16699 24.5 -9.5s5.16699 -14.833 0.5 -25.5l-123 -258c-7.33301 -16.667 -19 -25 -35 -25h-67zM1200 1434
c9.33301 0 16.833 -2.83301 22.5 -8.5s8.5 -13.167 8.5 -22.5v-1372c0 -17.333 -8.33301 -27.666 -25 -30.999h-137c-17.333 0 -29.666 6.66699 -36.999 20l-698 1184v-1173c0 -9.33301 -2.83301 -16.833 -8.5 -22.5s-13.167 -8.5 -22.5 -8.5h-98
c-9.33301 0 -16.833 2.66699 -22.5 8s-8.5 13 -8.5 23v1372c0 17.333 8.33301 27.666 25 30.999h137c17.333 0 29.666 -7 36.999 -21l698 -1184v1174c0 9.33301 2.66699 16.833 8 22.5s13 8.5 23 8.5h98z" />
    <glyph glyph-name="nacute" unicode="&#x144;" horiz-adv-x="1232"
d="M588 1116c-11.333 0 -19.5 3.16699 -24.5 9.5s-5.16699 14.833 -0.5 25.5l123 258c7.33301 16.667 19 25 35 25h67c11.333 0 19.5 -3.16699 24.5 -9.5s5.16699 -14.833 0.5 -25.5l-123 -258c-7.33301 -16.667 -19 -25 -35 -25h-67zM701 1026
c116 0 206.333 -33.6689 271 -101.002s97 -166.666 97 -297.999v-596c0 -9.33301 -2.66699 -16.833 -8 -22.5s-13 -8.5 -23 -8.5h-92c-9.33301 0 -16.833 2.66699 -22.5 8s-8.5 13 -8.5 23v585c0 179.333 -86.333 269.333 -259 270
c-43.333 0 -84.166 -6.83301 -122.499 -20.5s-70.333 -30.5 -96 -50.5s-47.834 -41.167 -66.501 -63.5s-32.334 -42.333 -41.001 -60s-13 -31.167 -13 -40.5v-620c0 -9.33301 -2.66699 -16.833 -8 -22.5s-12.666 -8.5 -21.999 -8.5h-92c-9.33301 0 -16.833 2.66699 -22.5 8
s-8.5 13 -8.5 23v942c0 9.33301 2.66699 16.833 8 22.5s13 8.5 23 8.5h84c18.667 0 28.667 -10.333 30 -31l8 -142h21c32 54.667 79.5 100.834 142.5 138.501s136.5 56.5 220.5 56.5z" />
    <glyph glyph-name="Ncommaaccent" unicode="&#x145;" horiz-adv-x="1404"
d="M1200 1434c9.33301 0 16.833 -2.83301 22.5 -8.5s8.5 -13.167 8.5 -22.5v-1372c0 -17.333 -8.33301 -27.666 -25 -30.999h-137c-17.333 0 -29.666 6.66699 -36.999 20l-698 1184v-1173c0 -9.33301 -2.83301 -16.833 -8.5 -22.5s-13.167 -8.5 -22.5 -8.5h-98
c-9.33301 0 -16.833 2.66699 -22.5 8s-8.5 13 -8.5 23v1372c0 17.333 8.33301 27.666 25 30.999h137c17.333 0 29.666 -7 36.999 -21l698 -1184v1174c0 9.33301 2.66699 16.833 8 22.5s13 8.5 23 8.5h98zM906 -167c8.66699 0 15.8301 -2.66797 21.4971 -8.00098
s8.5 -12.666 8.5 -21.999v-33c0 -76.667 -6.66699 -155.834 -20 -237.501s-29.666 -148.5 -48.999 -200.5c-6 -16 -17.333 -23.667 -34 -23h-46c-21.333 0 -29.666 11.333 -24.999 34c8.66699 48.667 15.834 108.5 21.501 179.5s7.83398 131.167 6.50098 180.5h-244
c-20 0 -30 10 -30 30v70c0 8.66699 2.66699 15.834 8 21.501s12.666 8.5 21.999 8.5h360z" />
    </font>
</defs>
</svg>
