<?xml version="1.0" standalone="no"?>
<!DOCTYPE svg PUBLIC "-//W3C//DTD SVG 1.1//EN" "http://www.w3.org/Graphics/SVG/1.1/DTD/svg11.dtd" >
<svg>
<metadata>
Created by FontForge 20090914 at Wed Mar 20 07:25:15 2019
 By www-data
&#194;&#169; 2016 Connary Fagen
</metadata>
<defs>
<font id="CartographSansCF-Medium" horiz-adv-x="1310" >
  <font-face 
    font-family="Cartograph Sans CF"
    font-weight="500"
    font-stretch="normal"
    units-per-em="2048"
    panose-1="0 0 6 0 0 0 0 0 0 0"
    ascent="1638"
    descent="-410"
    x-height="1004"
    cap-height="1434"
    bbox="-495 -710.006 1964 1926"
    underline-thickness="0"
    underline-position="0"
    unicode-range="U+0020-U+25CA"
  />
<missing-glyph horiz-adv-x="1013" 
d="M831 1638v-2027h-643v2027h643zM675 1502h-334v-66h131v-75h-133v-68h336v68h-133v75h133v66zM542 1241h-203v-211h336v69h-133v142zM472 1172v-73h-66v73h66zM675 976h-336v-68h133v-74h-133v-67h203v141h133v68zM675 854h-67v-134h-269v-69h336v203zM675 606h-203v-113
h70v47h66v-96h-202v162h-67v-229h336v229zM675 256h-336v-229h336v229zM608 188v-95h-202v95h202zM675 -20h-336v-67h141l-141 -95v-67h336v67h-207l142 95h65v67z" />
    <glyph glyph-name=".notdef" horiz-adv-x="1013" 
d="M831 1638v-2027h-643v2027h643zM675 1502h-334v-66h131v-75h-133v-68h336v68h-133v75h133v66zM542 1241h-203v-211h336v69h-133v142zM472 1172v-73h-66v73h66zM675 976h-336v-68h133v-74h-133v-67h203v141h133v68zM675 854h-67v-134h-269v-69h336v203zM675 606h-203v-113
h70v47h66v-96h-202v162h-67v-229h336v229zM675 256h-336v-229h336v229zM608 188v-95h-202v95h202zM675 -20h-336v-67h141l-141 -95v-67h336v67h-207l142 95h65v67z" />
    <glyph glyph-name="space" unicode=" " horiz-adv-x="798" 
 />
    <glyph glyph-name="exclam" unicode="!" horiz-adv-x="646" 
d="M444 1313l-54.999 -874.001c-1.33301 -21.333 -12.666 -31.666 -33.999 -30.999h-64c-20.667 0 -32 10.333 -34 31l-55 874c-2.66699 39.333 7.66602 72 30.999 98s53.166 39 89.499 39s66.333 -13 90 -39s34.167 -58.667 31.5 -98zM322.501 -27.001
c-40.333 0 -74.5 14 -102.5 42s-42 62.167 -42 102.5s14 74.833 42 103.5s62.167 43 102.5 43s74.5 -14.333 102.5 -43s42 -63.167 42 -103.5s-14 -74.5 -42 -102.5s-62.167 -42 -102.5 -42z" />
    <glyph glyph-name="quotedbl" unicode="&#x22;" horiz-adv-x="793" 
d="M266 1434c9.33301 0 16.999 -3 22.999 -9s8.66699 -13.333 8 -22l-14 -391c-1.33301 -20.667 -11.666 -31 -30.999 -31h-78c-9.33301 0 -16.833 2.66699 -22.5 8s-8.5 13 -8.5 23l-15 391c0 9.33301 2.83301 16.833 8.5 22.5s13.167 8.5 22.5 8.5h107zM634.999 1434
c9.33301 0 16.999 -3 22.999 -9s8.66699 -13.333 8 -22l-15 -391c-1.33301 -20.667 -11.333 -31 -30 -31h-78c-9.33301 0 -16.833 2.66699 -22.5 8s-8.5 13 -8.5 23l-15 391c0 9.33301 2.83301 16.833 8.5 22.5s12.834 8.5 21.501 8.5h108z" />
    <glyph glyph-name="numbersign" unicode="#" 
d="M1086 1001h-141v-404h141c9.33301 0 17.5 -2.83301 24.5 -8.5s10.5 -13.167 10.5 -22.5v-88c0 -8.66699 -3.33301 -16 -10 -22s-15 -9 -25 -9h-141v-252c0 -9.33301 -2.83301 -16.833 -8.5 -22.5s-13.167 -8.5 -22.5 -8.5h-112c-8.66699 0 -16 2.66699 -22 8s-9 13 -9 23
v252h-235v-252c0 -9.33301 -3 -16.833 -9 -22.5s-13.333 -8.5 -22 -8.5h-113c-8.66699 0 -16 2.66699 -22 8s-9 13 -9 23v252h-141c-8.66699 0 -16 3 -22 9s-9 13.333 -9 22v88c0 8.66699 3 16 9 22s13.333 9 22 9h141v404h-141c-8.66699 0 -16 2.83301 -22 8.5
s-9 13.167 -9 22.5v88c0 9.33301 3 16.833 9 22.5s13.333 8.5 22 8.5h141v252c0 9.33301 3 16.833 9 22.5s13.333 8.5 22 8.5h113c8.66699 0 16 -2.83301 22 -8.5s9 -13.167 9 -22.5v-252h235v252c0 9.33301 2.83301 16.833 8.5 22.5s13.167 8.5 22.5 8.5h112
c8.66699 0 16 -2.83301 22 -8.5s9 -13.167 9 -22.5v-252h141c9.33301 0 17.5 -2.83301 24.5 -8.5s10.5 -13.167 10.5 -22.5v-88c0 -8.66699 -3.5 -16 -10.5 -22s-15.167 -9 -24.5 -9zM771 597v404h-235v-404h235z" />
    <glyph glyph-name="dollar" unicode="$" horiz-adv-x="1261" 
d="M1149 403c0 -104.667 -37.166 -189.332 -111.499 -253.999s-186.5 -102 -336.5 -112v-185c0 -9.33301 -2.83301 -17.666 -8.5 -24.999s-12.834 -11 -21.501 -11h-79c-8.66699 0 -16 3.5 -22 10.5s-9 15.5 -9 25.5v185c-263.333 13.333 -412.333 114.333 -447 303
c-4 22 5 33 27 33h120c16.667 0 28 -9 34 -27c14.667 -38 44.667 -69.5 90 -94.5s104 -40.5 176 -46.5v455c-49.333 12 -93.166 25.167 -131.499 39.5s-76 32 -113 53s-67.833 44.667 -92.5 71s-44.334 58.166 -59.001 95.499s-22 78.333 -22 123
c0 100 34.5 181.5 103.5 244.5s173.833 98.833 314.5 107.5v193c0 9.33301 2.83301 16.833 8.5 22.5s13.167 8.5 22.5 8.5h79c8.66699 0 15.834 -2.66699 21.501 -8s8.5 -13 8.5 -23v-196c112.667 -9.33301 204 -39.333 274 -90s113.667 -120 131 -208
c2 -10 0.333008 -18 -5 -24s-13.333 -9 -24 -9h-114c-16.667 0 -28 8.33301 -34 25c-12.667 34 -38.834 63.167 -78.501 87.5s-89.5 41.166 -149.5 50.499v-426c52 -11.333 98.5 -24 139.5 -38s81.5 -31.667 121.5 -53s73.167 -45.5 99.5 -72.5s47.5 -60.167 63.5 -99.5
s24 -83 24 -131zM326.001 1041c0 -52.667 19.167 -96.332 57.5 -130.999s97.5 -62.334 177.5 -83.001v399c-78.667 -6 -137.5 -25 -176.5 -57s-58.5 -74.667 -58.5 -128zM701.001 206.004c174 14.667 261.333 80.333 262 197c0 65.333 -20.333 113.5 -61 144.5
s-107.667 57.833 -201 80.5v-422z" />
    <glyph glyph-name="percent" unicode="%" horiz-adv-x="1331" 
d="M381 1444c83.333 0 145 -24.333 185 -73s60 -117.334 60 -206.001s-20.167 -157.667 -60.5 -207s-101.833 -74 -184.5 -74c-82 0 -143 24.667 -183 74s-60 118.333 -60 207s20 157.334 60 206.001s101 73 183 73zM381 1309c-41.333 0 -69.833 -12.3311 -85.5 -36.998
s-23.5 -60.334 -23.5 -107.001c0 -48 7.66699 -84.333 23 -109s44 -37 86 -37c43.333 0 72.666 12.333 87.999 37s23 61 23 109c0 47.333 -7.66699 83.166 -23 107.499s-44.666 36.5 -87.999 36.5zM1076 1198c17.333 -13.333 19.333 -27.667 6 -43l-720 -959
c-12.667 -16.667 -27 -19 -43 -7l-63 50c-16.667 12.667 -18.667 27 -6 43l720 959c12 16.667 26.333 18.667 43 6zM948 550.001c83.333 0 145 -24.333 185 -73s60 -117.334 60 -206.001s-20.167 -157.667 -60.5 -207s-101.833 -74 -184.5 -74
c-82 0 -142.833 24.667 -182.5 74s-59.5 118.333 -59.5 207s19.833 157.334 59.5 206.001s100.5 73 182.5 73zM948 415.001c-41.333 0 -69.666 -12.3311 -84.999 -36.998s-23 -60.334 -23 -107.001c0 -48 7.66699 -84.333 23 -109s43.666 -37 84.999 -37
c43.333 0 72.666 12.333 87.999 37s23 61 23 109c0 47.333 -7.66699 83.166 -23 107.499s-44.666 36.5 -87.999 36.5z" />
    <glyph glyph-name="ampersand" unicode="&#x26;" horiz-adv-x="1315" 
d="M1211 111c12.667 -15.333 11.999 -30.002 -2.00098 -44.002l-67 -67c-16 -16 -30.667 -16.333 -44 -1l-139 165c-62 -57.333 -126.5 -102 -193.5 -134s-141.833 -48 -224.5 -48c-130.667 0 -236 34.333 -316 103s-120 163.334 -120 284.001c0 38 6 75 18 111
s27.167 67.833 45.5 95.5s42 56.334 71 86.001s56.333 54.834 82 75.501s56.5 44 92.5 70c-56.667 64 -100.5 122.167 -131.5 174.5s-46.5 105.833 -46.5 160.5c0 92 29.5 166.333 88.5 223s140.167 85 243.5 85c102.667 0 184.667 -28.333 246 -85s92 -129.334 92 -218.001
c0 -37.333 -6.66699 -73.333 -20 -108s-33 -67.667 -59 -99s-52.333 -59.333 -79 -84s-59.667 -51.667 -99 -81l319 -377l63 71c12.667 14.667 26.334 14.667 41.001 0l71 -74c12 -12 11.667 -25.667 -1 -41l-71 -78zM408.999 1141c0 -36 11.332 -72.502 33.999 -109.502
s56.334 -81.167 101.001 -132.5c62 46 109 87.833 141 125.5s48 77.834 48 120.501c0 46.667 -15.167 82.334 -45.5 107.001s-70.166 37 -119.499 37c-48.667 0 -87.334 -12.5 -116.001 -37.5s-43 -61.833 -43 -110.5zM543.998 154.996c108 0 212 43.667 312 131l-333 394
c-74.667 -56 -131.667 -107.833 -171 -155.5s-59 -99.5 -59 -155.5c0 -63.333 23.333 -114.833 70 -154.5s107 -59.5 181 -59.5z" />
    <glyph glyph-name="quotesingle" unicode="'" horiz-adv-x="424" 
d="M266 1434c9.33301 0 16.999 -3 22.999 -9s8.66699 -13.333 8 -22l-14 -391c-1.33301 -20.667 -11.666 -31 -30.999 -31h-78c-9.33301 0 -16.833 2.66699 -22.5 8s-8.5 13 -8.5 23l-15 391c0 9.33301 2.83301 16.833 8.5 22.5s13.167 8.5 22.5 8.5h107z" />
    <glyph glyph-name="parenleft" unicode="(" horiz-adv-x="1105" 
d="M886 1339c-58 0 -109.667 -5.16895 -155 -15.502s-84.666 -25.166 -117.999 -44.499s-61.666 -44.833 -84.999 -76.5s-42.333 -65.667 -57 -102s-26.334 -80.166 -35.001 -131.499s-14.5 -103.166 -17.5 -155.499s-4.5 -113.333 -4.5 -183s1.5 -130.5 4.5 -182.5
s8.83301 -103.833 17.5 -155.5s20.334 -95.834 35.001 -132.501s33.667 -70.834 57 -102.501s51.666 -57 84.999 -76s72.666 -34 117.999 -45s97 -16.5 155 -16.5v-186c-66 0 -126.833 5.33301 -182.5 16s-104.5 25.167 -146.5 43.5s-79.833 42 -113.5 71s-62 59.5 -85 91.5
s-43.167 69.333 -60.5 112s-30.833 84.334 -40.5 125.001s-17.5 87.167 -23.5 139.5s-9.83301 101 -11.5 146s-2.5 95.833 -2.5 152.5s0.833008 107.334 2.5 152.001s5.5 93.167 11.5 145.5s13.833 98.666 23.5 138.999s23.167 81.833 40.5 124.5s37.5 80 60.5 112
s51.333 62.5 85 91.5s71.5 52.667 113.5 71s90.667 32.833 146 43.5s116.333 16 183 16v-187z" />
    <glyph glyph-name="parenright" unicode=")" horiz-adv-x="1105" 
d="M220 1339v187.002c66 0 126.833 -5.33301 182.5 -16s104.5 -25.167 146.5 -43.5s79.833 -42 113.5 -71s62 -59.5 85 -91.5s43.167 -69.333 60.5 -112s30.833 -84.167 40.5 -124.5s17.5 -86.666 23.5 -138.999s9.83301 -100.833 11.5 -145.5s2.5 -95.334 2.5 -152.001
s-0.833008 -107.5 -2.5 -152.5s-5.5 -93.667 -11.5 -146s-13.833 -98.833 -23.5 -139.5s-23.167 -82.334 -40.5 -125.001s-37.5 -80 -60.5 -112s-51.333 -62.5 -85 -91.5s-71.5 -52.667 -113.5 -71s-90.833 -32.833 -146.5 -43.5s-116.5 -16 -182.5 -16v186
c58 0 109.667 5.5 155 16.5s84.666 26 117.999 45s61.666 44.333 84.999 76s42.333 65.834 57 102.501s26.334 80.834 35.001 132.501s14.5 103.5 17.5 155.5s4.5 112.833 4.5 182.5s-1.5 130.667 -4.5 183s-8.83301 104.166 -17.5 155.499s-20.334 95.166 -35.001 131.499
s-33.667 70.333 -57 102s-51.666 57.167 -84.999 76.5s-72.666 34.166 -117.999 44.499s-97 15.5 -155 15.5z" />
    <glyph glyph-name="asterisk" unicode="*" horiz-adv-x="1053" 
d="M833 1181c4 -18.667 -2.99609 -30.999 -20.9961 -36.999l-202 -54l130 -172c12 -16.667 9.33301 -31.334 -8 -44.001l-46 -28c-16.667 -12 -30.334 -9.33301 -41.001 8l-118 169l-118 -169c-10.667 -18 -24.334 -20.667 -41.001 -8l-46 28c-17.333 12 -20 26.667 -8 44
l130 172l-201 54c-18.667 6 -26 18.333 -22 37l12 51c2 10 6.66699 17.167 14 21.5s15.666 4.5 24.999 0.5l202 -61l-6 210c0 9.33301 2.83301 16.833 8.5 22.5s13.167 8.5 22.5 8.5h54c9.33301 0 16.833 -2.83301 22.5 -8.5s8.5 -13.167 8.5 -22.5l-4 -210l201 61
c9.33301 3.33301 17.666 3 24.999 -1s12 -11 14 -21z" />
    <glyph glyph-name="plus" unicode="+" horiz-adv-x="1162" 
d="M963 657c9.33301 0 16.666 -2.66699 21.999 -8s8 -12.666 8 -21.999v-88c0 -9.33301 -2.66699 -16.833 -8 -22.5s-12.666 -8.5 -21.999 -8.5h-307v-307c0 -9.33301 -2.83301 -16.833 -8.5 -22.5s-12.834 -8.5 -21.501 -8.5h-88c-8.66699 0 -16 2.66699 -22 8s-9 13 -9 23
v307h-307c-8.66699 0 -16 2.66699 -22 8s-9 13 -9 23v88c0 9.33301 2.83301 16.666 8.5 21.999s13.167 8 22.5 8h307v307c0 8.66699 2.83301 15.834 8.5 21.501s13.167 8.5 22.5 8.5h88c8.66699 0 15.834 -2.83301 21.501 -8.5s8.5 -12.834 8.5 -21.501v-307h307z" />
    <glyph glyph-name="comma" unicode="," horiz-adv-x="724" 
d="M566 159c8.66699 0 16 -3.00195 22 -9.00195s9 -13.333 9 -22v-50c0 -83.333 -7.16699 -168.166 -21.5 -254.499s-32.166 -157.5 -53.499 -213.5c-6 -16 -18 -24 -36 -24h-67c-22 0 -31 11.333 -27 34c9.33301 50.667 16.666 113.334 21.999 188.001
s7.33301 138.667 6 192h-261c-8.66699 0 -16 2.66699 -22 8s-9 13 -9 23v97c0 8.66699 2.83301 16 8.5 22s13.167 9 22.5 9h407z" />
    <glyph glyph-name="hyphen" unicode="-" 
d="M1137 654c9.33301 0 16.666 -2.83301 21.999 -8.5s8 -12.834 8 -21.501v-96c0 -9.33301 -2.66699 -16.666 -8 -21.999s-12.666 -8 -21.999 -8h-963c-9.33301 0 -16.833 2.66699 -22.5 8s-8.5 12.666 -8.5 21.999v96c0 8.66699 2.83301 15.834 8.5 21.501
s13.167 8.5 22.5 8.5h963z" />
    <glyph glyph-name="period" unicode="." horiz-adv-x="565" 
d="M282.5 -27c-40.333 0 -74.5 14 -102.5 42s-42 62.167 -42 102.5s14 74.833 42 103.5s62.167 43 102.5 43s74.5 -14.333 102.5 -43s42 -63.167 42 -103.5s-14 -74.5 -42 -102.5s-62.167 -42 -102.5 -42z" />
    <glyph glyph-name="slash" unicode="/" horiz-adv-x="1336" 
d="M1115 1434c11.333 0 19.167 -3.5 23.5 -10.5s4.16602 -15.5 -0.500977 -25.5l-750 -1640c-7.33301 -16.667 -19.666 -24.667 -36.999 -24h-128c-11.333 0 -19.5 3 -24.5 9s-4.83301 14.667 0.5 26l749 1642c7.33301 15.333 19.333 23 36 23h131z" />
    <glyph glyph-name="zero" unicode="0" horiz-adv-x="1280" 
d="M640 1454c74 0 137.169 -6.5 189.502 -19.5s99.333 -34.833 141 -65.5s75 -72.167 100 -124.5s44 -117.166 57 -194.499s19.5 -169.666 19.5 -276.999v-122c0 -107.333 -6.5 -199.666 -19.5 -276.999s-32 -142.166 -57 -194.499s-58.333 -94 -100 -125
s-88.834 -53 -141.501 -66s-115.667 -19.5 -189 -19.5s-136.333 6.5 -189 19.5s-99.834 35 -141.501 66s-75 72.667 -100 125s-44 117.166 -57 194.499s-19.5 169.666 -19.5 276.999v122c0 107.333 6.5 199.666 19.5 276.999s32 142.166 57 194.499s58.333 93.833 100 124.5
s88.667 52.5 141 65.5s115.5 19.5 189.5 19.5zM640.002 1275c-39.333 0 -72.833 -2.17383 -100.5 -6.50684s-54.667 -12.666 -81 -24.999s-47.666 -30.166 -63.999 -53.499s-31 -53.5 -44 -90.5s-22.333 -82.333 -28 -136s-8.5 -117.5 -8.5 -191.5v-121
c0 -74 2.83301 -137.833 8.5 -191.5s15 -99 28 -136s27.667 -67 44 -90s37.666 -40.667 63.999 -53s53.333 -20.833 81 -25.5s61.167 -7 100.5 -7c34 0 63.333 1.66699 88 5s49.167 9.16602 73.5 17.499s44.5 20.333 60.5 36s31.167 35.834 45.5 60.501
s25.5 54.834 33.5 90.501s14.333 77.834 19 126.501s7 104.334 7 167.001v121c0 62.667 -2.33301 118.5 -7 167.5s-11 91.167 -19 126.5s-19.167 65.333 -33.5 90s-29.5 44.834 -45.5 60.501s-36.167 27.834 -60.5 36.501s-48.833 14.5 -73.5 17.5s-54 4.5 -88 4.5z
M509.002 445.993c-11.333 0 -19.5 3.16699 -24.5 9.5s-5.16699 14.833 -0.5 25.5l193 471c6 16.667 18.333 25 37 25h59c11.333 0 19.5 -3.16699 24.5 -9.5s5.16699 -14.833 0.5 -25.5l-193 -471c-6 -16.667 -18.333 -25 -37 -25h-59z" />
    <glyph glyph-name="one" unicode="1" horiz-adv-x="1172" 
d="M1019 155c8.66699 0 15.999 -3 21.999 -9s9 -13.333 9 -22v-93c0 -9.33301 -3 -16.833 -9 -22.5s-13.333 -8.5 -22 -8.5h-865c-9.33301 0 -16.833 2.66699 -22.5 8s-8.5 13 -8.5 23v93c0 8.66699 2.66699 16 8 22s13 9 23 9h374v1095
c-93.333 -88 -201.666 -132 -324.999 -132c-20.667 0 -31 10.333 -31 31v105c0 21.333 10.333 32 31 32c51.333 0 105.333 12.833 162 38.5s111 62.167 163 109.5h154c9.33301 0 16.833 -2.83301 22.5 -8.5s8.5 -13.167 8.5 -22.5v-1248h306z" />
    <glyph glyph-name="two" unicode="2" horiz-adv-x="1206" 
d="M1035 166c8.66699 0 15.998 -2.66699 21.998 -8s9 -13 9 -23v-104c0 -9.33301 -2.83301 -16.833 -8.5 -22.5s-13.167 -8.5 -22.5 -8.5h-861c-9.33301 0 -16.833 2.66699 -22.5 8s-8.5 13 -8.5 23v112c0 68 8.66699 130.5 26 187.5s40.5 104.833 69.5 143.5
s62.167 74.334 99.5 107.001s76.666 60.5 117.999 83.5l124 66.5l118.5 63.5c37.667 21 71 43 100 66s52 50.333 69 82s25.5 67.167 25.5 106.5c0 70 -22.833 126.5 -68.5 169.5s-114.5 64.5 -206.5 64.5c-195.333 0 -296.666 -79 -303.999 -237
c-1.33301 -21.333 -11.666 -31 -30.999 -29l-114 12c-20.667 2 -31 13 -31 33c0 124.667 41.667 220.5 125 287.5s198.333 100.5 345 100.5c148.667 0 262.334 -35.5 341.001 -106.5s118 -168.833 118 -293.5c0 -52.667 -8.33301 -100.334 -25 -143.001
s-39.167 -79.167 -67.5 -109.5s-61 -58.333 -98 -84s-76 -49.334 -117 -71.001l-122 -64.5c-40.333 -21.333 -79 -45.166 -116 -71.499s-69.667 -54.666 -98 -84.999s-50.833 -67.333 -67.5 -111s-25 -91.834 -25 -144.501h704z" />
    <glyph glyph-name="three" unicode="3" horiz-adv-x="1256" 
d="M852 765c84.667 -28.667 153.664 -74.1641 206.997 -136.497s80 -138.833 80 -229.5c0 -130.667 -47.5 -234.334 -142.5 -311.001s-221.5 -115 -379.5 -115c-153.333 0 -273.166 35 -359.499 105s-129.5 165.333 -129.5 286c0 20 10.333 30.667 31 32l116 13
c21.333 2 32 -7.66699 32 -29c2 -72 30.167 -129.833 84.5 -173.5s130.833 -65.5 229.5 -65.5s178.167 24.667 238.5 74s90.5 114.666 90.5 195.999c0 82.667 -35.167 148.5 -105.5 197.5s-170.833 73.5 -301.5 73.5c-20.667 0 -31 10.333 -31 31v87
c0 21.333 10.333 31.666 31 30.999c124.667 0 216.5 22.667 275.5 68s88.5 102.666 88.5 171.999c0 64.667 -26 116.334 -78 155.001s-121 58 -207 58c-89.333 0 -160.166 -22 -212.499 -66s-79.5 -101.333 -81.5 -172c0 -21.333 -10.667 -31 -32 -29l-117 12
c-20.667 2 -31 13 -31 33c0 118.667 42.5 213 127.5 283s200.5 105 346.5 105c138 0 249.333 -33.333 334 -100s127 -155.667 127 -267c0 -70.667 -21.167 -133.5 -63.5 -188.5s-98.166 -98.167 -167.499 -129.5z" />
    <glyph glyph-name="four" unicode="4" horiz-adv-x="1285" 
d="M1121 516c8.66699 0 16.001 -2.66699 22.001 -8s9 -13 9 -23v-95c0 -8.66699 -2.83301 -16 -8.5 -22s-13.167 -9 -22.5 -9h-142v-328c0 -9.33301 -2.66699 -16.833 -8 -22.5s-13 -8.5 -23 -8.5h-123c-9.33301 0 -16.666 2.66699 -21.999 8s-8 13 -8 23v328h-647
c-8.66699 0 -15.834 3 -21.501 9s-8.5 13.333 -8.5 22v106c0 15.333 3.33301 28.333 10 39l654 878c9.33301 13.333 21.666 20.333 36.999 21h129c9.33301 0 16.833 -2.83301 22.5 -8.5s8.5 -13.167 8.5 -22.5v-887h142zM795.001 516v629l-474 -629h474z" />
    <glyph glyph-name="five" unicode="5" horiz-adv-x="1197" 
d="M233 381c16.667 0 27 -9.66602 31 -28.999c16.667 -74 50.167 -128.667 100.5 -164s119.5 -53 207.5 -53c104.667 0 186.5 27.5 245.5 82.5s88.5 135.333 88.5 241s-29 186 -87 241s-137.667 82.5 -239 82.5c-125.333 0 -227.333 -38.333 -306 -115
c-13.333 -13.333 -27 -17.333 -41 -12l-95 37c-18 7.33301 -24.667 20 -20 38l125 677c3.33301 18 14 27 32 27h663c9.33301 0 16.833 -2.83301 22.5 -8.5s8.5 -13.167 8.5 -22.5v-99c0 -8.66699 -2.83301 -16 -8.5 -22s-13.167 -9 -22.5 -9h-552l-71 -397
c62.667 46 157 68.667 283 68c148 0 266 -43 354 -129s132 -204.667 132 -356c0 -152 -45.333 -271 -136 -357s-215.667 -129 -375 -129c-141.333 0 -253.5 31.667 -336.5 95s-130.833 156.666 -143.5 279.999c-2 22 7.66699 33 29 33h111z" />
    <glyph glyph-name="six" unicode="6" horiz-adv-x="1264" 
d="M645 874c150 0 268.669 -39.168 356.002 -117.501s131 -185.833 131 -322.5c0 -144.667 -44.167 -257.667 -132.5 -339s-210.5 -122 -366.5 -122c-157.333 0 -279.833 41.333 -367.5 124s-131.5 200 -131.5 352l-1 499c0 176.667 42.833 304.5 128.5 383.5
s212.167 118.5 379.5 118.5c136.667 0 246.5 -31.167 329.5 -93.5s124.5 -149.166 124.5 -260.499c0 -20 -10.333 -31 -31 -33l-105 -9c-18.667 -2 -29.334 7.66699 -32.001 29c-8.66699 65.333 -38.667 115.833 -90 151.5s-118 53.5 -200 53.5
c-48.667 0 -90.834 -4.33301 -126.501 -13s-69.5 -24.5 -101.5 -47.5s-56.333 -57.5 -73 -103.5s-25 -103.333 -25 -172v-215c23.333 41.333 68.5 74.5 135.5 99.5s133.167 37.5 198.5 37.5zM632.502 135.999c100.333 0 179 24.667 236 74s85.5 124 85.5 224
c0 93.333 -28.833 164.166 -86.5 212.499s-136 72.5 -235 72.5s-177.333 -24.167 -235 -72.5s-86.5 -119.166 -86.5 -212.499c0 -100.667 28.5 -175.5 85.5 -224.5s135.667 -73.5 236 -73.5z" />
    <glyph glyph-name="seven" unicode="7" horiz-adv-x="1213" 
d="M1065 1434c9.33301 0 16.833 -2.83301 22.5 -8.5s8.5 -13.167 8.5 -22.5v-110c0 -12.667 -3 -25.667 -9 -39l-586 -1222c-9.33301 -21.333 -22.333 -32 -39 -32h-131c-9.33301 0 -16.5 3 -21.5 9s-5.5 13.667 -1.5 23l599 1241h-748c-8.66699 0 -16 2.83301 -22 8.5
s-9 13.167 -9 22.5v99c0 9.33301 2.83301 16.833 8.5 22.5s13.167 8.5 22.5 8.5h906z" />
    <glyph glyph-name="eight" unicode="8" horiz-adv-x="1295" 
d="M927 787c153.333 -72.667 230.001 -196 230.001 -370c0 -138.667 -44.333 -247.334 -133 -326.001s-213.834 -118 -375.501 -118s-287.167 39.333 -376.5 118s-134 187.334 -134 326.001c0 174.667 77.333 298 232 370c-111.333 63.333 -167 166 -167 308
c0 106.667 38.333 192.5 115 257.5s186.667 97.5 330 97.5s253.333 -32.667 330 -98s115 -151 115 -257c0 -142 -55.333 -244.667 -166 -308zM372.001 1074c0 -72 23.8301 -126.499 71.4971 -163.499s115.834 -55.5 204.501 -55.5c88 0 156 18.667 204 56
s72 91.666 72 162.999c0 72.667 -23.667 127.5 -71 164.5s-115.666 55.5 -204.999 55.5s-157.666 -18.5 -204.999 -55.5s-71 -91.833 -71 -164.5zM647.998 136.001c106 0 187.832 23.333 245.499 70s86.5 116.834 86.5 210.501s-29.167 164 -87.5 211
s-139.666 70.5 -243.999 70.5s-185.833 -23.5 -244.5 -70.5s-88 -117.333 -88 -211s28.833 -163.834 86.5 -210.501s139.5 -70 245.5 -70z" />
    <glyph glyph-name="nine" unicode="9" horiz-adv-x="1274" 
d="M630 549c-150 0 -268.669 39.167 -356.002 117.5s-131 185.833 -131 322.5c0 144.667 44.167 257.667 132.5 339s210.5 122 366.5 122c157.333 0 279.833 -41.333 367.5 -124s131.5 -199.667 131.5 -351l1 -500c0 -176.667 -42.833 -304.5 -128.5 -383.5
s-212.167 -118.5 -379.5 -118.5c-136.667 0 -246.5 31.333 -329.5 94s-124.5 149.667 -124.5 261c0 20 10.333 30.667 31 32l104 10c18.667 2 29.667 -8 33 -30c8.66699 -65.333 38.667 -115.833 90 -151.5s118 -53.5 200 -53.5c48.667 0 90.834 4.5 126.501 13.5
s69.334 24.833 101.001 47.5s56 57.167 73 103.5s25.5 103.5 25.5 171.5v215c-23.333 -41.333 -68.5 -74.5 -135.5 -99.5s-133.167 -37.5 -198.5 -37.5zM642.498 1287c-100.333 0 -179 -24.5 -236 -73.5s-85.5 -123.833 -85.5 -224.5c0 -93.333 28.833 -164 86.5 -212
s136 -72 235 -72s177.333 24 235 72s86.5 118.667 86.5 212c0 100.667 -28.5 175.5 -85.5 224.5s-135.667 73.5 -236 73.5z" />
    <glyph glyph-name="colon" unicode=":" horiz-adv-x="647" 
d="M323.5 734c-40.333 0 -74.5 14 -102.5 42s-42 62.167 -42 102.5s14 74.833 42 103.5s62.167 43 102.5 43s74.5 -14.333 102.5 -43s42 -63.167 42 -103.5s-14 -74.5 -42 -102.5s-62.167 -42 -102.5 -42zM323.5 -27c-40.333 0 -74.5 14 -102.5 42s-42 62.167 -42 102.5
s14 74.833 42 103.5s62.167 43 102.5 43s74.5 -14.333 102.5 -43s42 -63.167 42 -103.5s-14 -74.5 -42 -102.5s-62.167 -42 -102.5 -42z" />
    <glyph glyph-name="semicolon" unicode=";" horiz-adv-x="747" 
d="M371.5 734c-40.333 0 -74.5 14 -102.5 42s-42 62.167 -42 102.5s14 74.833 42 103.5s62.167 43 102.5 43s74.5 -14.333 102.5 -43s42 -63.167 42 -103.5s-14 -74.5 -42 -102.5s-62.167 -42 -102.5 -42zM617 159c8.66699 0 16 -3.00195 22 -9.00195s9 -13.333 9 -22v-50
c0 -83.333 -7.16699 -168.166 -21.5 -254.499s-32.166 -157.5 -53.499 -213.5c-6 -16 -17.667 -24 -35 -24h-68c-22 0 -31 11.333 -27 34c9.33301 50.667 16.666 113.334 21.999 188.001s7.33301 138.667 6 192h-261c-8.66699 0 -16 2.66699 -22 8s-9 13 -9 23v97
c0 8.66699 3 16 9 22s13.333 9 22 9h407z" />
    <glyph glyph-name="less" unicode="&#x3c;" horiz-adv-x="1084" 
d="M911 822c10 -18 5.66602 -31.668 -13.001 -41.001l-548 -271l548 -271c18.667 -9.33301 23 -23 13 -41l-47 -86c-10 -18.667 -23.667 -23 -41 -13l-632 318c-15.333 7.33301 -22.666 19.333 -21.999 36v114c0 16 7.33301 28.333 22 37l632 318
c17.333 8.66699 31 4.33398 41 -12.999z" />
    <glyph glyph-name="equal" unicode="=" horiz-adv-x="1162" 
d="M963 823c9.33301 0 16.666 -2.66699 21.999 -8s8 -12.666 8 -21.999v-88c0 -9.33301 -2.66699 -16.833 -8 -22.5s-12.666 -8.5 -21.999 -8.5h-763c-8.66699 0 -16 2.66699 -22 8s-9 13 -9 23v88c0 9.33301 2.83301 16.666 8.5 21.999s13.167 8 22.5 8h763zM963 493
c9.33301 0 16.666 -3 21.999 -9s8 -13.333 8 -22v-88c0 -8.66699 -2.66699 -16 -8 -22s-12.666 -9 -21.999 -9h-763c-8.66699 0 -16 2.83301 -22 8.5s-9 13.167 -9 22.5v88c0 8.66699 2.83301 16 8.5 22s13.167 9 22.5 9h763z" />
    <glyph glyph-name="greater" unicode="&#x3e;" horiz-adv-x="1084" 
d="M173 822l47.001 87.001c10 17.333 23.667 21.666 41 12.999l632 -318c15.333 -8.66699 22.666 -21 21.999 -37v-114c0 -16.667 -7.33301 -28.667 -22 -36l-632 -318c-17.333 -10 -31 -5.66699 -41 13l-47 86c-9.33301 18 -5 31.667 13 41l548 271l-548 271
c-18.667 9.33301 -23 23 -13 41z" />
    <glyph glyph-name="question" unicode="?" horiz-adv-x="1274" 
d="M527 384c-20.667 0 -30.6689 10.998 -30.002 32.998c0 56.667 4.83301 107 14.5 151s23 79.833 40 107.5s36.333 51.5 58 71.5s44.667 36.5 69 49.5s48.333 24.833 72 35.5s46.5 21.834 68.5 33.501s41.5 24.834 58.5 39.501s30.5 34 40.5 58s15 52.667 15 86
c0 70.667 -23.167 127.334 -69.5 170.001s-117.333 64 -213 64s-170.167 -20.333 -223.5 -61s-80.666 -99.334 -81.999 -176.001c-1.33301 -21.333 -12 -31 -32 -29l-113 12c-20.667 2 -31 13 -31 33c0 124.667 41.667 220.5 125 287.5s198.333 100.5 345 100.5
c149.333 0 264.5 -36 345.5 -108s121.5 -169.333 121.5 -292c0 -58.667 -7.83301 -108.5 -23.5 -149.5s-36.167 -72.833 -61.5 -95.5s-53 -42.167 -83 -58.5l-90.5 -48c-30.333 -15.667 -58.166 -34 -83.499 -55s-45.833 -50.667 -61.5 -89s-23.5 -84.833 -23.5 -139.5
c0 -20.667 -10.333 -31 -31 -31h-121zM582.498 -27.002c-40.333 0 -74.5 14 -102.5 42s-42 62.167 -42 102.5s14 74.833 42 103.5s62.167 43 102.5 43s74.5 -14.333 102.5 -43s42 -63.167 42 -103.5s-14 -74.5 -42 -102.5s-62.167 -42 -102.5 -42z" />
    <glyph glyph-name="at" unicode="@" horiz-adv-x="1351" 
d="M684 1083c76 0 146.667 -12.332 212 -36.999s122.333 -60 171 -106s87 -103.833 115 -173.5s42 -147.167 42 -232.5c0 -111.333 -23 -193.333 -69 -246s-101.333 -79 -166 -79c-69.333 0 -115.666 25 -138.999 75c-48 -50 -108.667 -75 -182 -75
c-84 0 -151.667 27.5 -203 82.5s-77 126.833 -77 215.5c0 90.667 25.667 163.5 77 218.5s119 82.5 203 82.5c78 0 140.667 -26.667 188 -80l32 51h70l-32 -363c-5.33301 -60.667 16 -91 64 -91c34.667 0 59.5 16.5 74.5 49.5s22.5 86.167 22.5 159.5
c0 141.333 -37.333 246.166 -112 314.499s-171.667 102.5 -291 102.5c-54.667 0 -106.167 -8.66699 -154.5 -26s-92.5 -43 -132.5 -77s-71.667 -79.833 -95 -137.5s-35 -123.5 -35 -197.5c0 -57.333 7.66699 -110 23 -158s36.166 -88.5 62.499 -121.5
s57.5 -60.833 93.5 -83.5s73.667 -39.334 113 -50.001s80.666 -16 123.999 -16c76.667 0 143 14.667 199 44c16.667 9.33301 31 8.33301 43 -3l49 -44c16.667 -15.333 16.334 -29.666 -0.999023 -42.999c-79.333 -56.667 -175.666 -85 -288.999 -85
c-76 0 -147.333 12.5 -214 37.5s-125.5 60.667 -176.5 107s-91.333 105.333 -121 177s-44.5 151.167 -44.5 238.5c0 89.333 14.833 170.5 44.5 243.5s70.167 133.167 121.5 180.5s110.166 83.5 176.499 108.5s137.5 37.5 213.5 37.5zM668 327.001
c46 0 82.333 16.167 109 48.5s40 76.166 40 131.499c0 56.667 -13.5 101.834 -40.5 135.501s-63.167 50.5 -108.5 50.5c-49.333 0 -87.166 -16.5 -113.499 -49.5s-39.5 -78.5 -39.5 -136.5c0 -56 13.167 -100 39.5 -132s64.166 -48 113.499 -48z" />
    <glyph glyph-name="A" unicode="A" horiz-adv-x="1402" 
d="M1323 35c4 -10 3.83105 -18.333 -0.501953 -25s-12.5 -10 -24.5 -10h-132c-17.333 -0 -28.666 8.33301 -33.999 25l-102 275h-657l-102 -275c-6 -16.667 -17.333 -25 -34 -25h-133c-11.333 0 -19.166 3.16699 -23.499 9.5s-4.5 14.833 -0.5 25.5l520 1374
c6 16.667 18.333 25 37 25h129c18.667 0 31 -8.33301 37 -25zM434.998 469h533l-267 725z" />
    <glyph glyph-name="B" unicode="B" horiz-adv-x="1264" 
d="M871 774c96.667 -22 169.335 -65.498 218.002 -130.498s73 -141.833 73 -230.5c0 -142 -41.167 -246.333 -123.5 -313s-210.833 -100 -385.5 -100h-474c-8.66699 0 -16 2.66699 -22 8s-9 13 -9 23v1372c0 9.33301 3 16.833 9 22.5s13.333 8.5 22 8.5h489
c77.333 0 144.166 -9.83301 200.499 -29.5s100.166 -46.334 131.499 -80.001s54.333 -70.334 69 -110.001s22 -82.5 22 -128.5c0 -76.667 -18.167 -142.167 -54.5 -196.5s-91.5 -92.833 -165.5 -115.5zM906.001 1070c0 65.333 -20.834 113.332 -62.501 143.999
s-106.167 46 -193.5 46h-310v-415h317c82.667 0 144.834 19.333 186.501 58s62.5 94.334 62.5 167.001zM650 174.001c108.667 0 188.833 19 240.5 57s77.5 102 77.5 192c0 80 -25.333 143 -76 189s-128.667 69 -234 69h-318v-507h310z" />
    <glyph glyph-name="C" unicode="C" horiz-adv-x="1475" 
d="M1266 299l82.002 -86.0029c14.667 -14.667 14.334 -29 -0.999023 -43c-137.333 -131.333 -300.333 -197 -489 -197c-100.667 0 -195.834 19.333 -285.501 58s-166.5 91 -230.5 157s-114.833 144.333 -152.5 235s-56.5 186.667 -56.5 288c0 136 32 260.333 96 373
s151.333 201.834 262 267.501s233 98.5 367 98.5c184 0 347 -65.333 489 -196c15.333 -14.667 15.666 -29 0.999023 -43l-82 -87c-12.667 -12.667 -27 -12.667 -43 0c-109.333 92.667 -231 139.334 -365 140.001c-96.667 0 -185.5 -24 -266.5 -72s-145 -114.333 -192 -199
s-70.5 -178.667 -70.5 -282c0 -102.667 23.5 -196.167 70.5 -280.5s111 -150.333 192 -198s169.833 -71.5 266.5 -71.5c135.333 0 257 46.333 365 139c15.333 12.667 29.666 12.334 42.999 -0.999023z" />
    <glyph glyph-name="D" unicode="D" horiz-adv-x="1395" 
d="M548 1434c121.333 0 229.999 -18.333 325.999 -55s174.667 -87.5 236 -152.5s108 -140.667 140 -227s48 -180.5 48 -282.5s-16 -196.167 -48 -282.5s-78.667 -162 -140 -227s-140.166 -115.833 -236.499 -152.5s-204.833 -55 -325.5 -55h-343
c-9.33301 0 -16.833 2.66699 -22.5 8s-8.5 13 -8.5 23v1372c0 9.33301 2.66699 16.833 8 22.5s13 8.5 23 8.5h343zM547.999 174c182.667 0 321 47.5 415 142.5s141 228.5 141 400.5s-47 305.5 -141 400.5s-232.333 142.5 -415 142.5h-182v-1086h182z" />
    <glyph glyph-name="E" unicode="E" horiz-adv-x="1249" 
d="M1080 174c8.66699 0 16 -2.66797 22 -8.00098s9 -13 9 -23v-112c0 -9.33301 -2.83301 -16.833 -8.5 -22.5s-13.167 -8.5 -22.5 -8.5h-875c-9.33301 0 -16.833 2.66699 -22.5 8s-8.5 13 -8.5 23v1372c0 9.33301 2.66699 16.833 8 22.5s13 8.5 23 8.5h873
c8.66699 0 16 -2.83301 22 -8.5s9 -13.167 9 -22.5v-113c0 -9.33301 -2.83301 -16.666 -8.5 -21.999s-13.167 -8 -22.5 -8h-712v-425h658c9.33301 0 16.833 -3 22.5 -9s8.5 -13.333 8.5 -22v-113c0 -8.66699 -2.83301 -16 -8.5 -22s-13.167 -9 -22.5 -9h-658v-486h714z" />
    <glyph glyph-name="F" unicode="F" horiz-adv-x="1264" 
d="M1106 1434c9.33301 0 16.833 -2.83496 22.5 -8.50195s8.5 -13.167 8.5 -22.5v-113c0 -9.33301 -2.83301 -16.666 -8.5 -21.999s-13.167 -8 -22.5 -8h-740v-439h693c9.33301 0 16.833 -2.66699 22.5 -8s8.5 -12.666 8.5 -21.999v-113
c0 -9.33301 -2.83301 -16.833 -8.5 -22.5s-13.167 -8.5 -22.5 -8.5h-693v-616c0 -9.33301 -3 -16.833 -9 -22.5s-13.333 -8.5 -22 -8.5h-130c-9.33301 0 -16.833 2.66699 -22.5 8s-8.5 13 -8.5 23v1372c0 9.33301 2.66699 16.833 8 22.5s13 8.5 23 8.5h901z" />
    <glyph glyph-name="G" unicode="G" horiz-adv-x="1649" 
d="M1486 756c8.66699 0 15.999 -2.83398 21.999 -8.50098s9 -13.167 9 -22.5v-81c0 -126 -26 -239.5 -78 -340.5s-128.167 -181.333 -228.5 -241s-216.833 -89.5 -349.5 -89.5c-135.333 0 -258.666 33 -369.999 99s-198.833 155.667 -262.5 269s-95.5 237.666 -95.5 372.999
c0 101.333 18.833 197.333 56.5 288s88.5 168.667 152.5 234s141 117.333 231 156s185 58 285 58c184 0 347 -65.333 489 -196c15.333 -14.667 15.666 -29 0.999023 -43l-82 -87c-12.667 -12.667 -27 -12.667 -43 0c-109.333 92.667 -231 139.334 -365 140.001
c-96.667 0 -185.5 -24 -266.5 -72s-145 -114.167 -192 -198.5s-70.5 -177.5 -70.5 -279.5c0 -157.333 51 -288.833 153 -394.5s228.333 -158.5 379 -158.5c136.667 0 248.334 39.5 335.001 118.5s132 180.833 136 305.5h-451c-9.33301 0 -16.833 2.83301 -22.5 8.5
s-8.5 12.834 -8.5 21.501v110c0 9.33301 2.66699 16.833 8 22.5s13 8.5 23 8.5h605z" />
    <glyph glyph-name="H" unicode="H" horiz-adv-x="1457" 
d="M1252 1434c8.66699 0 16 -2.83301 22 -8.5s9 -13.167 9 -22.5v-1372c0 -9.33301 -2.83301 -16.833 -8.5 -22.5s-13.167 -8.5 -22.5 -8.5h-130c-9.33301 0 -16.666 2.66699 -21.999 8s-8 13 -8 23v613h-726v-613c0 -9.33301 -3 -16.833 -9 -22.5s-13.333 -8.5 -22 -8.5
h-130c-9.33301 0 -16.833 2.66699 -22.5 8s-8.5 13 -8.5 23v1372c0 9.33301 2.66699 16.833 8 22.5s13 8.5 23 8.5h130c8.66699 0 16 -2.83301 22 -8.5s9 -13.167 9 -22.5v-585h726v585c0 9.33301 2.66699 16.833 8 22.5s12.666 8.5 21.999 8.5h130z" />
    <glyph glyph-name="I" unicode="I" horiz-adv-x="1315" 
d="M1137 1260h-383v-1086h383c9.33301 0 16.666 -2.66699 21.999 -8s8 -13 8 -23v-112c0 -9.33301 -2.66699 -16.833 -8 -22.5s-12.666 -8.5 -21.999 -8.5h-958c-8.66699 0 -16 2.66699 -22 8s-9 13 -9 23v112c0 9.33301 3 16.833 9 22.5s13.333 8.5 22 8.5h383v1086h-383
c-8.66699 0 -16 2.66699 -22 8s-9 12.666 -9 21.999v113c0 9.33301 3 16.833 9 22.5s13.333 8.5 22 8.5h958c9.33301 0 16.666 -2.83301 21.999 -8.5s8 -13.167 8 -22.5v-113c0 -9.33301 -2.66699 -16.666 -8 -21.999s-12.666 -8 -21.999 -8z" />
    <glyph glyph-name="J" unicode="J" horiz-adv-x="1295" 
d="M1116 1434c9.33301 0 16.833 -2.83301 22.5 -8.5s8.5 -13.167 8.5 -22.5v-887c0 -92 -12.833 -173.333 -38.5 -244s-61.667 -127.667 -108 -171s-100 -76 -161 -98s-129.167 -33 -204.5 -33c-74 0 -141.333 10.333 -202 31s-114 51.667 -160 93s-82.5 95 -109.5 161
s-42.167 142.667 -45.5 230c-0.666992 20.667 9.33301 31 30 31h127c20.667 0 31 -10.333 31 -31c6 -111.333 38.167 -194.666 96.5 -249.999s135.833 -83 232.5 -83c97.333 0 175 30 233 90s87 151.333 87 274v744h-603c-9.33301 0 -16.666 2.66699 -21.999 8
s-8 12.666 -8 21.999v113c0 9.33301 2.66699 16.833 8 22.5s12.666 8.5 21.999 8.5h764z" />
    <glyph glyph-name="K" unicode="K" horiz-adv-x="1263" 
d="M1185 37c7.33301 -10 9.16895 -18.668 5.50195 -26.001s-11.834 -11 -24.501 -11h-156c-16 0 -28.333 6 -37 18l-474 646l-159 -179v-454c0 -9.33301 -2.66699 -16.833 -8 -22.5s-13 -8.5 -23 -8.5h-130c-8.66699 0 -16 2.66699 -22 8s-9 13 -9 23v1372
c0 9.33301 3 16.833 9 22.5s13.333 8.5 22 8.5h130c9.33301 0 16.833 -2.83301 22.5 -8.5s8.5 -13.167 8.5 -22.5v-663l596 677c8.66699 10.667 21 16.334 37 17.001h164c13.333 0 21.666 -3.83301 24.999 -11.5s0.333008 -16.167 -9 -25.5l-530 -595z" />
    <glyph glyph-name="L" unicode="L" horiz-adv-x="1203" 
d="M1070 174c8.66699 0 16 -2.66699 22 -8s9 -13 9 -23v-112c0 -9.33301 -3 -16.833 -9 -22.5s-13.333 -8.5 -22 -8.5h-865c-9.33301 0 -16.833 2.66699 -22.5 8s-8.5 13 -8.5 23v1372c0 9.33301 2.66699 16.833 8 22.5s13 8.5 23 8.5h130c8.66699 0 16 -2.83301 22 -8.5
s9 -13.167 9 -22.5v-1229h704z" />
    <glyph glyph-name="M" unicode="M" horiz-adv-x="1803" 
d="M1598 1434c8.66699 0 15.999 -2.83301 21.999 -8.5s9 -13.167 9 -22.5v-1372c0 -9.33301 -2.83301 -16.833 -8.5 -22.5s-13.167 -8.5 -22.5 -8.5h-130c-9.33301 0 -16.666 2.66699 -21.999 8s-8 13 -8 23v1039l-440 -1046c-6 -16 -17.333 -24 -34 -24h-127
c-17.333 0 -29 8 -35 24l-436 1039v-1032c0 -9.33301 -3 -16.833 -9 -22.5s-13.333 -8.5 -22 -8.5h-130c-9.33301 0 -16.833 2.66699 -22.5 8s-8.5 13 -8.5 23v1372c0 9.33301 2.66699 16.833 8 22.5s13 8.5 23 8.5h163c18.667 0 30.667 -7 36 -21l497 -1197l495 1197
c6 13.333 18.333 20.333 37 21h165z" />
    <glyph glyph-name="N" unicode="N" horiz-adv-x="1429" 
d="M1225 1434c9.33301 0 16.666 -2.83301 21.999 -8.5s8 -13.167 8 -22.5v-1372c0 -18.667 -8.33301 -29 -25 -31h-168c-17.333 0 -29.666 6.66699 -36.999 20l-659 1131v-1120c0 -9.33301 -3 -16.833 -9 -22.5s-13.333 -8.5 -22 -8.5h-130
c-9.33301 0 -16.833 2.66699 -22.5 8s-8.5 13 -8.5 23v1372c0 18.667 9 29 27 31h167c17.333 0 29.333 -7 36 -21l660 -1129v1119c0 9.33301 2.83301 16.833 8.5 22.5s13.167 8.5 22.5 8.5h130z" />
    <glyph glyph-name="O" unicode="O" horiz-adv-x="1733" 
d="M867 -27c-133.333 0 -256.163 32.8301 -368.496 98.4971s-201.333 155 -267 268s-98.5 236.833 -98.5 371.5c0 101.333 19.5 197.666 58.5 288.999s91.167 169.833 156.5 235.5s143.333 117.834 234 156.501s185.667 58 285 58c80 0 157.167 -12.333 231.5 -37
s141.666 -59.667 201.999 -105s113.166 -98.166 158.499 -158.499s80.333 -128.166 105 -203.499s37 -153.666 37 -234.999c0 -134.667 -32.833 -258.5 -98.5 -371.5s-154.834 -202.333 -267.501 -268s-235.334 -98.5 -368.001 -98.5zM867.003 154.997
c100 0 191.833 24.501 275.5 73.501s149.5 116.167 197.5 201.5s72 179 72 281c0 102.667 -24 196.667 -72 282s-113.833 152.666 -197.5 201.999s-175.5 74 -275.5 74c-75.333 0 -146.5 -14.5 -213.5 -43.5s-124.833 -68.333 -173.5 -118s-87.167 -109.167 -115.5 -178.5
s-42.5 -142 -42.5 -218c0 -154.667 52.833 -286 158.5 -394s234.5 -162 386.5 -162z" />
    <glyph glyph-name="P" unicode="P" horiz-adv-x="1326" 
d="M713 1434c183.333 0 315.166 -37.499 395.499 -112.499s120.5 -187.5 120.5 -337.5c0 -150.667 -40.167 -263.334 -120.5 -338.001s-212.166 -112 -395.499 -112h-347v-503c0 -9.33301 -3 -16.833 -9 -22.5s-13.333 -8.5 -22 -8.5h-130
c-9.33301 0 -16.833 2.66699 -22.5 8s-8.5 13 -8.5 23v1372c0 9.33301 2.66699 16.833 8 22.5s13 8.5 23 8.5h508zM726 708.001c51.333 0 95 3.83301 131 11.5s68.667 21.5 98 41.5s51.333 48.5 66 85.5s22 82.833 22 137.5s-7.33301 100.5 -22 137.5s-36.667 65.333 -66 85
s-62 33.5 -98 41.5s-79.667 12 -131 12h-360v-552h360z" />
    <glyph glyph-name="Q" unicode="Q" horiz-adv-x="1733" 
d="M867 -27c-133.333 0 -256.163 32.8301 -368.496 98.4971s-201.333 155 -267 268s-98.5 236.833 -98.5 371.5c0 101.333 19.5 197.666 58.5 288.999s91.167 169.833 156.5 235.5s143.333 117.834 234 156.501s185.667 58 285 58c80 0 157.167 -12.333 231.5 -37
s141.666 -59.667 201.999 -105s113.166 -98.166 158.499 -158.499s80.333 -128.166 105 -203.499s37 -153.666 37 -234.999c0 -134.667 -32.833 -258.5 -98.5 -371.5s-154.834 -202.333 -267.501 -268s-235.334 -98.5 -368.001 -98.5zM867.003 154.997
c100 0 191.833 24.501 275.5 73.501s149.5 116.167 197.5 201.5s72 179 72 281c0 102.667 -24 196.667 -72 282s-113.833 152.666 -197.5 201.999s-175.5 74 -275.5 74c-75.333 0 -146.5 -14.5 -213.5 -43.5s-124.833 -68.333 -173.5 -118s-87.167 -109.167 -115.5 -178.5
s-42.5 -142 -42.5 -218c0 -154.667 52.833 -286 158.5 -394s234.5 -162 386.5 -162zM1129 -184.002c22 0 32.998 -9.66699 32.998 -29v-108c0 -22 -10 -32.667 -30 -32c-44.667 -0.666992 -88.167 4.33301 -130.5 15s-77.833 22.667 -106.5 36s-64.167 25.5 -106.5 36.5
s-85.833 16.167 -130.5 15.5c-22 0 -32.667 9.66699 -32 29v106c0 22 10.667 33 32 33c44.667 1.33301 88 -3.5 130 -14.5s77.333 -23.167 106 -36.5s63.834 -25.333 105.501 -36s84.834 -15.667 129.501 -15z" />
    <glyph glyph-name="R" unicode="R" horiz-adv-x="1331" 
d="M926 556l274.001 -519.999c5.33301 -10.667 5.83301 -19.334 1.5 -26.001s-12.166 -10 -23.499 -10h-136c-16 0 -27.667 7.66699 -35 23l-265 511h-29h-347v-503c0 -9.33301 -3 -16.833 -9 -22.5s-13.333 -8.5 -22 -8.5h-130c-9.33301 0 -16.833 2.66699 -22.5 8
s-8.5 13 -8.5 23v1372c0 9.33301 2.66699 16.833 8 22.5s13 8.5 23 8.5h508c183.333 0 315.166 -37.5 395.499 -112.5s120.5 -187.5 120.5 -337.5c0 -117.333 -23.833 -211.5 -71.5 -282.5s-124.834 -119.5 -231.501 -145.5zM366.001 1260v-552h360
c51.333 0 95 3.83301 131 11.5s68.667 21.5 98 41.5s51.333 48.5 66 85.5s22 82.833 22 137.5s-7.33301 100.5 -22 137.5s-36.667 65.333 -66 85s-62 33.5 -98 41.5s-79.667 12 -131 12h-360z" />
    <glyph glyph-name="S" unicode="S" horiz-adv-x="1270" 
d="M625 818c44.667 -8.66699 83.999 -17.5068 117.999 -26.5068s70.333 -20.167 109 -33.5s72 -27.666 100 -42.999s55.667 -34.166 83 -56.499s49.5 -46.666 66.5 -72.999s30.667 -57.5 41 -93.5s15.5 -75 15.5 -117c0 -126.667 -43.833 -226 -131.5 -298
s-219.5 -108 -395.5 -108c-157.333 0 -280.333 29.333 -369 88s-138.334 146 -149.001 262c-1.33301 10 0.833984 18.667 6.50098 26s12.834 11 21.501 11h125c18 0 28.333 -10 31 -30c8.66699 -56.667 42 -101.334 100 -134.001s136 -49 234 -49c226 0 339 76.667 339 230
c0 30 -3.16699 56.333 -9.5 79s-17.166 42.834 -32.499 60.501s-31.333 32.5 -48 44.5s-39.834 23.5 -69.501 34.5s-57.334 20 -83.001 27s-59.834 15.5 -102.501 25.5c-58 12.667 -108.333 26.167 -151 40.5s-85.667 32.833 -129 55.5s-78.666 48.334 -105.999 77.001
s-49.833 64.5 -67.5 107.5s-26.5 91.5 -26.5 145.5c0 118.667 40.167 211.834 120.5 279.501s197.833 101.5 352.5 101.5c148.667 0 265.834 -28.667 351.501 -86s134.167 -143 145.5 -257c2 -20.667 -7.66699 -31 -29 -31h-115c-18.667 0 -29 8.33301 -31 25
c-8 54 -40 97.167 -96 129.5s-130.667 48.5 -224 48.5c-90 0 -160.833 -18.167 -212.5 -54.5s-77.5 -88.166 -77.5 -155.499c0 -68 23.5 -121.667 70.5 -161s121.833 -69.666 224.5 -90.999z" />
    <glyph glyph-name="T" unicode="T" horiz-adv-x="1305" 
d="M1178 1434c9.33301 0 16.666 -2.83301 21.999 -8.5s8 -13.167 8 -22.5v-113c0 -9.33301 -2.66699 -16.666 -8 -21.999s-12.666 -8 -21.999 -8h-429v-1229c0 -9.33301 -3 -16.833 -9 -22.5s-13.333 -8.5 -22 -8.5h-130c-9.33301 0 -16.833 2.66699 -22.5 8
s-8.5 13 -8.5 23v1229h-429c-8.66699 0 -16 2.66699 -22 8s-9 12.666 -9 21.999v113c0 9.33301 3 16.833 9 22.5s13.333 8.5 22 8.5h1050z" />
    <glyph glyph-name="U" unicode="U" horiz-adv-x="1436" 
d="M1268 1434c9.33301 0 16.667 -2.83301 22 -8.5s8 -13.167 8 -22.5v-823c0 -200 -50.833 -351.667 -152.5 -455s-244.167 -155 -427.5 -155c-182.667 0 -325 51.667 -427 155s-153 255 -153 455v823c0 9.33301 3 16.833 9 22.5s13.333 8.5 22 8.5h130
c9.33301 0 16.833 -2.83301 22.5 -8.5s8.5 -13.167 8.5 -22.5v-823c0 -141.333 34.5 -248 103.5 -320s163.833 -108 284.5 -108c121.333 0 216.5 36 285.5 108s103.5 178.667 103.5 320v823c0 9.33301 2.83301 16.833 8.5 22.5s13.167 8.5 22.5 8.5h130z" />
    <glyph glyph-name="V" unicode="V" horiz-adv-x="1402" 
d="M1132 1409c6 16.667 17.335 25 34.002 25h132c11.333 0 19.333 -3.33301 24 -10s5 -15 1 -25l-520 -1374c-6 -16.667 -18.333 -25 -37 -25h-129c-18.667 -0 -31 8.33301 -37 25l-520 1374c-4 10 -3.83301 18.333 0.5 25s12.166 10 23.499 10h133
c17.333 0 28.666 -8.33301 33.999 -25l430 -1169z" />
    <glyph glyph-name="W" unicode="W" horiz-adv-x="2035" 
d="M1912 1434c22.667 0 30.665 -11.666 23.998 -34.999l-365 -1374c-4 -16.667 -16.333 -25 -37 -25h-157c-19.333 0 -31.666 8.33301 -36.999 25l-324 1082l-325 -1082c-4.66699 -16.667 -16.667 -25 -36 -25h-157c-20.667 0 -33 8.33301 -37 25l-362 1374
c-6.66699 23.333 1.66602 35 24.999 35h132c20 0 31.667 -8.33301 35 -25l290 -1168l340 1168c2.66699 9.33301 8 16.666 16 21.999c4 2 9.33301 3 16 3h126c6.66699 0 12.334 -1 17.001 -3c8 -4.66699 13.333 -12 16 -22l340 -1168l293 1168
c4.66699 16.667 16.334 25 35.001 25h132z" />
    <glyph glyph-name="X" unicode="X" horiz-adv-x="1285" 
d="M1182 37c6 -10 7.16699 -18.667 3.5 -26s-11.834 -11 -24.501 -11h-137c-17.333 0 -29.666 6.66699 -36.999 20l-344 548l-344 -548c-7.33301 -13.333 -19.666 -20 -36.999 -20h-138c-12 0 -20 3.66699 -24 11s-3 16 3 26l437 694l-418 666
c-6 10.667 -7.16699 19.5 -3.5 26.5s11.5 10.5 23.5 10.5h139c17.333 0 29.333 -7 36 -21l326 -518l326 518c7.33301 13.333 19.666 20.333 36.999 21h137c12 0 19.833 -3.5 23.5 -10.5s2.5 -15.833 -3.5 -26.5l-418 -666z" />
    <glyph glyph-name="Y" unicode="Y" horiz-adv-x="1413" 
d="M1320 1434c12 0 20.167 -3.5 24.5 -10.5s2.83301 -15.833 -4.5 -26.5l-537 -841v-525c0 -9.33301 -2.83301 -16.833 -8.5 -22.5s-13.167 -8.5 -22.5 -8.5h-130c-8.66699 0 -16 2.66699 -22 8s-9 13 -9 23v525l-538 841c-6.66699 10.667 -8 19.5 -4 26.5s12 10.5 24 10.5
h151c16 0 28.333 -7 37 -21l426 -667l426 667c8.66699 13.333 20.667 20.333 36 21h151z" />
    <glyph glyph-name="Z" unicode="Z" horiz-adv-x="1295" 
d="M1111 174c8.66699 0 15.998 -2.66602 21.998 -7.99902s9 -13 9 -23v-112c0 -9.33301 -3 -16.833 -9 -22.5s-13.333 -8.5 -22 -8.5h-927c-9.33301 0 -16.666 2.66699 -21.999 8s-8 13 -8 23v123c0 12 4 24 12 36l742 1070h-703c-9.33301 0 -16.833 2.66699 -22.5 8
s-8.5 12.666 -8.5 21.999v113c0 9.33301 2.66699 16.833 8 22.5s13 8.5 23 8.5h886c8.66699 0 15.834 -2.83301 21.501 -8.5s8.5 -13.167 8.5 -22.5v-123c0 -12 -4 -24.333 -12 -37l-742 -1069h744z" />
    <glyph glyph-name="bracketleft" unicode="[" horiz-adv-x="1080" 
d="M829 1526c9.33301 0 16.833 -2.83203 22.5 -8.49902s8.5 -13.167 8.5 -22.5v-93c0 -8.66699 -2.66699 -16 -8 -22s-13 -9 -23 -9h-417v-1483h417c9.33301 0 16.833 -2.83301 22.5 -8.5s8.5 -12.834 8.5 -21.501v-94c0 -9.33301 -2.66699 -16.666 -8 -21.999
s-13 -8 -23 -8h-578c-8.66699 0 -16 2.66699 -22 8s-9 12.666 -9 21.999v1731c0 9.33301 3 16.833 9 22.5s13.333 8.5 22 8.5h578z" />
    <glyph glyph-name="backslash" unicode="\" horiz-adv-x="1336" 
d="M208 1434h131.001c16.667 0 28.667 -7.66699 36 -23l749 -1642c4.66699 -10.667 4.66699 -19.167 0 -25.5s-12.667 -9.5 -24 -9.5h-128c-17.333 0 -29.666 8 -36.999 24l-750 1640c-4.66699 10 -4.83398 18.5 -0.500977 25.5s12.166 10.5 23.499 10.5z" />
    <glyph glyph-name="bracketright" unicode="]" horiz-adv-x="1080" 
d="M251 1526l578 -0.000976562c9.33301 0 16.833 -2.83301 22.5 -8.5s8.5 -13.167 8.5 -22.5v-1731c0 -9.33301 -2.66699 -16.666 -8 -21.999s-13 -8 -23 -8h-578c-8.66699 0 -16 2.66699 -22 8s-9 12.666 -9 21.999v94c0 8.66699 3 15.834 9 21.501s13.333 8.5 22 8.5h418
v1483h-418c-8.66699 0 -16 3 -22 9s-9 13.333 -9 22v93c0 9.33301 3 16.833 9 22.5s13.333 8.5 22 8.5z" />
    <glyph glyph-name="asciicircum" unicode="^" horiz-adv-x="1170" 
d="M897 666c-18 -10 -31.667 -5.66699 -41 13l-271 548l-272 -548c-9.33301 -18.667 -23 -23 -41 -13l-86 47c-18.667 10 -22.667 23.667 -12 41l318 631c7.33301 15.333 19 23 35 23h115c16 0 28.333 -7.66699 37 -23l317 -631c8.66699 -17.333 4.66699 -31 -12 -41z" />
    <glyph glyph-name="underscore" unicode="_" 
d="M1137 0c9.33301 0 16.666 -2.66699 21.999 -8s8 -13 8 -23v-95c0 -8.66699 -2.66699 -16 -8 -22s-12.666 -9 -21.999 -9h-963c-9.33301 0 -16.833 3 -22.5 9s-8.5 13.333 -8.5 22v95c0 9.33301 2.83301 16.833 8.5 22.5s13.167 8.5 22.5 8.5h963z" />
    <glyph glyph-name="grave" unicode="`" 
d="M540 1495h98c16 0 27.667 -8.33301 35 -25l123 -258c4.66699 -10.667 4.5 -19 -0.5 -25s-13.167 -9 -24.5 -9h-98c-16 0 -27.667 8 -35 24l-123 258c-4.66699 10.667 -4.5 19.167 0.5 25.5s13.167 9.5 24.5 9.5z" />
    <glyph glyph-name="a" unicode="a" horiz-adv-x="1266" 
d="M1128 153c12.667 -2 21.8359 -5.83398 27.5029 -11.501s8.5 -14.167 8.5 -25.5v-88c0 -23.333 -17.667 -35.333 -53 -36c-136.667 -4.66699 -205 50.333 -205 165h-4c-56.667 -60 -125.5 -105.333 -206.5 -136s-159.5 -46 -235.5 -46c-111.333 0 -195.333 25.5 -252 76.5
s-85 120.5 -85 208.5c0 86 27.167 153.833 81.5 203.5s137.5 82.834 249.5 99.501l283 43c44 6 76.167 12.5 96.5 19.5s32.833 15.833 37.5 26.5c-0.666992 76.667 -21.334 131.667 -62.001 165s-101.334 50 -182.001 50c-164 0 -253.667 -51.667 -269 -155
c-2 -16 -11.667 -24 -29 -24h-119c-21.333 0 -31 10.333 -29 31c21.333 204.667 170.333 307 447 307c143.333 0 249.666 -32 318.999 -96s104 -156 104 -276v-418c-0.666992 -47.333 25 -75 77 -83zM308.002 279.999c0 -45.333 15 -80.668 45 -106.001s76.667 -38 140 -38
c152.667 0 278.667 49.667 378 149v231c-4 -9.33301 -14.333 -17 -31 -23s-43.667 -12 -81 -18l-263 -41c-68.667 -10.667 -117.167 -28.667 -145.5 -54s-42.5 -58.666 -42.5 -99.999z" />
    <glyph glyph-name="b" unicode="b" horiz-adv-x="1285" 
d="M692 1025c144 0 257.501 -49.168 340.501 -147.501s124.5 -224.166 124.5 -377.499c0 -100 -18.333 -189.5 -55 -268.5s-90.667 -141.667 -162 -188s-154 -69.5 -248 -69.5c-146.667 0 -262.334 55.667 -347.001 167l-8 -110c-2 -20.667 -12.333 -31 -31 -31h-111
c-9.33301 0 -16.833 2.66699 -22.5 8s-8.5 13 -8.5 23v1372c0 9.33301 2.66699 16.833 8 22.5s13 8.5 23 8.5h122c9.33301 0 16.833 -2.83301 22.5 -8.5s8.5 -13.167 8.5 -22.5v-562h20c30 55.333 72 99.833 126 133.5s120 50.5 198 50.5zM659.001 144.999
c102 0 180.667 32.501 236 97.501s83 151.5 83 259.5s-27.5 193.667 -82.5 257s-133.833 95 -236.5 95c-94.667 0 -170.834 -32.333 -228.501 -97s-86.5 -149.834 -86.5 -255.501s28.833 -191.5 86.5 -257.5s133.834 -99 228.501 -99z" />
    <glyph glyph-name="c" unicode="c" horiz-adv-x="1204" 
d="M655 145c119.333 0 213.665 45.6699 282.998 137.003c10.667 15.333 24.334 17.666 41.001 6.99902l91 -53c18 -10.667 21 -24.334 9 -41.001c-46 -68.667 -106.167 -122.834 -180.5 -162.501s-156.5 -59.5 -246.5 -59.5c-150.667 0 -275.667 50.333 -375 151
s-149 226 -149 376s49.667 275.167 149 375.5s224.333 150.5 375 150.5c90 0 172.333 -19.667 247 -59s134.667 -93 180 -161c11.333 -17.333 8.33301 -31.333 -9 -42l-91 -53c-16 -9.33301 -29.667 -7 -41 7c-69.333 91.333 -163.666 137 -282.999 137
c-101.333 0 -184.5 -33 -249.5 -99s-97.5 -151.333 -97.5 -256s32.5 -190 97.5 -256s148.167 -99 249.5 -99z" />
    <glyph glyph-name="d" unicode="d" horiz-adv-x="1300" 
d="M1106 1434c9.33301 0 16.833 -2.83301 22.5 -8.5s8.5 -13.167 8.5 -22.5v-1372c0 -9.33301 -2.83301 -16.833 -8.5 -22.5s-13.167 -8.5 -22.5 -8.5h-112c-18.667 -0 -28.667 10.333 -30 31l-9 107c-86 -110 -203 -165 -351 -165c-142 0 -256.833 49.833 -344.5 149.5
s-131.5 225.5 -131.5 377.5c0 152.667 43.167 278.5 129.5 377.5s201.833 148.5 346.5 148.5c82 0 150.667 -17 206 -51s97 -78.667 125 -134h17v562c0 9.33301 2.83301 16.833 8.5 22.5s13.167 8.5 22.5 8.5h123zM637 144c98 0 176.667 33.167 236 99.5s89 152.5 89 258.5
c0 106.667 -29.5 192.334 -88.5 257.001s-137.833 97 -236.5 97c-102 0 -182.5 -32.333 -241.5 -97s-88.5 -150.334 -88.5 -257.001s29.5 -193 88.5 -259s139.5 -99 241.5 -99z" />
    <glyph glyph-name="e" unicode="e" horiz-adv-x="1241" 
d="M634 1026c96 0 181 -23.168 255 -69.501s129.833 -106.666 167.5 -180.999s56.5 -156.166 56.5 -245.499c0 -39.333 -3.83301 -67 -11.5 -83s-24.5 -24 -50.5 -24h-743c11.333 -88 49.833 -159 115.5 -213s148.167 -81 247.5 -81c98 0 186 31.667 264 95
c17.333 13.333 32 14.333 44 3l53 -53c16 -16.667 16.333 -32.334 1 -47.001c-104 -102.667 -231.333 -154 -382 -154c-154.667 0 -280.5 50.167 -377.5 150.5s-145.5 225.833 -145.5 376.5c0 97.333 21.167 186 63.5 266s102.333 143.333 180 190s165.167 70 262.5 70z
M634 865.999c-86.667 0 -159.667 -27.833 -219 -83.5s-95 -128.5 -107 -218.5h643c-6 88.667 -38.167 161.167 -96.5 217.5s-131.833 84.5 -220.5 84.5z" />
    <glyph glyph-name="f" unicode="f" horiz-adv-x="1249" 
d="M1111 1004c8.66699 0 16 -2.83398 22 -8.50098s9 -13.167 9 -22.5v-93c0 -8.66699 -3 -16 -9 -22s-13.333 -9 -22 -9h-521v-818c0 -9.33301 -2.83301 -16.833 -8.5 -22.5s-13.167 -8.5 -22.5 -8.5h-123c-9.33301 0 -16.666 2.66699 -21.999 8s-8 13 -8 23v818h-268
c-8.66699 0 -15.834 2.83301 -21.501 8.5s-8.5 13.167 -8.5 22.5v93c0 9.33301 2.83301 16.833 8.5 22.5s12.834 8.5 21.501 8.5h268v105c0 77.333 11.667 142.833 35 196.5s56.5 94.667 99.5 123s89.5 48.5 139.5 60.5s106.667 18 170 18c68 0 132 -6 192 -18
s90 -27.667 90 -47v-91c0 -10 -3.5 -17.833 -10.5 -23.5s-15.833 -7.5 -26.5 -5.5l-32 8c-21.333 5.33301 -46.333 10 -75 14s-61.334 6 -98.001 6c-44 0 -82.5 -3.5 -115.5 -10.5s-64.167 -19.167 -93.5 -36.5s-51.833 -43.166 -67.5 -77.499s-23.5 -76.833 -23.5 -127.5
v-94h521z" />
    <glyph glyph-name="g" unicode="g" horiz-adv-x="1303" 
d="M1109 1004c8.66699 0 16.001 -2.83203 22.001 -8.49902s9 -13.167 9 -22.5v-955c0 -60.667 -10 -115.334 -30 -164.001s-46.5 -88.834 -79.5 -120.501s-72 -58.334 -117 -80.001s-91.333 -37 -139 -46s-96.834 -13.5 -147.501 -13.5c-156 0 -288 35 -396 105
c-16.667 10 -20 24.333 -10 43l39 73c10 18 23.667 22 41 12c96.667 -48.667 200.667 -73 312 -73c45.333 0 88 4.83301 128 14.5s77 24.334 111 44.001s61.167 47.334 81.5 83.001s30.5 77.167 30.5 124.5v149c-86 -116 -201.333 -174 -346 -174
c-140.667 0 -257.5 50 -350.5 150s-139.5 221.667 -139.5 365s46.667 265 140 365s210 150 350 150s253.667 -56.333 341 -169l8 117c2 20.667 12 31 30 31h112zM636.001 166.001c92 0 169.333 34.332 232 102.999s94 149.667 94 243
c0 92.667 -31.167 172.834 -93.5 240.501s-139.833 101.5 -232.5 101.5c-93.333 0 -171.5 -33 -234.5 -99s-94.5 -147 -94.5 -243c0 -97.333 31.5 -179.333 94.5 -246s141.167 -100 234.5 -100z" />
    <glyph glyph-name="h" unicode="h" horiz-adv-x="1247" 
d="M718 1026c113.333 0 202.498 -34.8301 267.498 -104.497s97.5 -169.834 97.5 -300.501v-590c0 -9.33301 -2.66699 -16.833 -8 -22.5s-12.666 -8.5 -21.999 -8.5h-123c-9.33301 0 -16.833 2.66699 -22.5 8s-8.5 13 -8.5 23v569c0 86 -20.833 150.333 -62.5 193
s-101.834 64 -180.501 64c-45.333 0 -87.166 -7.83301 -125.499 -23.5s-69.666 -35.334 -93.999 -59.001s-43.833 -46.334 -58.5 -68.001s-24.667 -41.5 -30 -59.5v-616c0 -9.33301 -2.66699 -16.833 -8 -22.5s-13 -8.5 -23 -8.5h-122c-9.33301 0 -16.833 2.66699 -22.5 8
s-8.5 13 -8.5 23v1372c0 9.33301 2.66699 16.833 8 22.5s13 8.5 23 8.5h122c9.33301 0 16.833 -2.83301 22.5 -8.5s8.5 -13.167 8.5 -22.5v-568h18c33.333 54.667 80 100.167 140 136.5s130.667 54.5 212 54.5z" />
    <glyph glyph-name="i" unicode="i" horiz-adv-x="1182" 
d="M619.5 1231c-31.667 0 -58.167 10.667 -79.5 32s-32 47.833 -32 79.5s10.667 58.167 32 79.5s47.833 32 79.5 32s58.167 -10.667 79.5 -32s32 -47.833 32 -79.5s-10.667 -58.167 -32 -79.5s-47.833 -32 -79.5 -32zM1034 160c9.33301 0 16.833 -2.83301 22.5 -8.5
s8.5 -13.167 8.5 -22.5v-98c0 -9.33301 -2.66699 -16.833 -8 -22.5s-13 -8.5 -23 -8.5h-875c-8.66699 0 -16 2.66699 -22 8s-9 13 -9 23v98c0 9.33301 2.83301 16.833 8.5 22.5s13.167 8.5 22.5 8.5h372v685h-321c-8.66699 0 -16 2.83301 -22 8.5s-9 13.167 -9 22.5v97
c0 9.33301 3 16.833 9 22.5s13.333 8.5 22 8.5h475c8.66699 0 16 -2.83301 22 -8.5s9 -13.167 9 -22.5v-813h318z" />
    <glyph glyph-name="j" unicode="j" horiz-adv-x="1015" 
d="M726 1231c-31.333 0 -57.833 10.667 -79.5 32s-32.5 47.833 -32.5 79.5s10.833 58.167 32.5 79.5s48.167 32 79.5 32s57.833 -10.667 79.5 -32s32.5 -47.833 32.5 -79.5s-10.833 -58.167 -32.5 -79.5s-48.167 -32 -79.5 -32zM811 1004
c9.33301 0 16.834 -2.83301 22.501 -8.5s8.5 -13.167 8.5 -22.5v-942c0 -66 -8.33301 -124.333 -25 -175s-38.5 -91.5 -65.5 -122.5s-59.833 -56.333 -98.5 -76s-77.5 -33 -116.5 -40s-81.167 -10.5 -126.5 -10.5c-41.333 0 -82 4.33301 -122 13s-74 19.667 -102 33
s-52.167 27.5 -72.5 42.5s-34.833 29 -43.5 42s-10.334 23.5 -5.00098 31.5l51 80c4.66699 7.33301 12 11.5 22 12.5s19.667 -1.83301 29 -8.5c70 -56 147 -84 231 -84c35.333 0 67 3.5 95 10.5s55 19.5 81 37.5s46.333 45.833 61 83.5s22 84.167 22 139.5v805h-476
c-8.66699 0 -15.834 2.83301 -21.501 8.5s-8.5 13.167 -8.5 22.5v97c0 9.33301 2.83301 16.833 8.5 22.5s12.834 8.5 21.501 8.5h630z" />
    <glyph glyph-name="k" unicode="k" horiz-adv-x="1182" 
d="M1098 37c8 -10 9.99902 -18.668 5.99902 -26.001s-12.333 -11 -25 -11h-146c-15.333 0 -27.666 6 -36.999 18l-354 425l-194 -202v-210c0 -9.33301 -2.66699 -16.833 -8 -22.5s-13 -8.5 -23 -8.5h-122c-9.33301 0 -16.833 2.66699 -22.5 8s-8.5 13 -8.5 23v1433
c0 9.33301 2.66699 16.833 8 22.5s13 8.5 23 8.5h122c9.33301 0 16.833 -2.66699 22.5 -8s8.5 -13 8.5 -23v-991l481 514c10.667 10.667 23.667 16.334 39 17.001h156c13.333 0 21.833 -3.66699 25.5 -11s0.5 -16 -9.5 -26l-382 -401z" />
    <glyph glyph-name="l" unicode="l" horiz-adv-x="1187" 
d="M1044 160c9.33301 0 16.833 -2.83301 22.5 -8.5s8.5 -13.167 8.5 -22.5v-98c0 -9.33301 -2.66699 -16.833 -8 -22.5s-13 -8.5 -23 -8.5h-885c-8.66699 0 -16 2.66699 -22 8s-9 13 -9 23v98c0 9.33301 2.83301 16.833 8.5 22.5s13.167 8.5 22.5 8.5h372v1115h-350
c-8.66699 0 -15.834 2.83301 -21.501 8.5s-8.5 13.167 -8.5 22.5v97c0 9.33301 2.83301 16.833 8.5 22.5s12.834 8.5 21.501 8.5h504c8.66699 0 16 -2.83301 22 -8.5s9 -13.167 9 -22.5v-1243h328z" />
    <glyph glyph-name="m" unicode="m" horiz-adv-x="1456" 
d="M195 0c-9.33301 0 -16.8311 2.66602 -22.498 7.99902s-8.5 13 -8.5 23v942c0 9.33301 2.66699 16.833 8 22.5s13 8.5 23 8.5h103c19.333 0 29.666 -10.333 30.999 -31l5 -92h13c18.667 46.667 47.167 82.5 85.5 107.5s84.833 37.5 139.5 37.5
c106 0 177.333 -48.333 214 -145h12c44.667 96.667 123 145 235 145c86 0 150.667 -26.833 194 -80.5s65 -142.834 65 -267.501v-647c0 -9.33301 -2.66699 -16.833 -8 -22.5s-12.666 -8.5 -21.999 -8.5h-112c-8.66699 0 -16 2.66699 -22 8s-9 13 -9 23v647
c0 68 -10.833 116.333 -32.5 145s-55.834 43 -102.501 43c-50.667 0 -90.5 -16.167 -119.5 -48.5s-46.167 -69.166 -51.5 -110.499v-676c0 -9.33301 -2.66699 -16.833 -8 -22.5s-13 -8.5 -23 -8.5h-108c-9.33301 0 -16.833 2.66699 -22.5 8s-8.5 13 -8.5 23v647
c0 68 -10.833 116.333 -32.5 145s-56.167 43 -103.5 43c-49.333 0 -88.333 -16.167 -117 -48.5s-46.334 -69.166 -53.001 -110.499v-676c0 -9.33301 -3 -16.833 -9 -22.5s-13.333 -8.5 -22 -8.5h-111z" />
    <glyph glyph-name="n" unicode="n" horiz-adv-x="1250" 
d="M721 1026c113.333 0 202.502 -34.833 267.502 -104.5s97.5 -169.834 97.5 -300.501v-590c0 -9.33301 -2.83301 -16.833 -8.5 -22.5s-12.834 -8.5 -21.501 -8.5h-123c-8.66699 0 -16 2.66699 -22 8s-9 13 -9 23v569c0 86 -20.833 150.333 -62.5 193
s-101.834 64 -180.501 64c-49.333 0 -95 -9.5 -137 -28.5s-75 -41.667 -99 -68s-42.5 -51.166 -55.5 -74.499s-19.5 -41 -19.5 -53v-602c0 -9.33301 -2.66699 -16.833 -8 -22.5s-13 -8.5 -23 -8.5h-122c-9.33301 0 -16.833 2.66699 -22.5 8s-8.5 13 -8.5 23v942
c0 9.33301 2.66699 16.833 8 22.5s13 8.5 23 8.5h114c18.667 0 29 -10.333 31 -31l8 -138h21c33.333 54.667 80 100.167 140 136.5s130.667 54.5 212 54.5z" />
    <glyph glyph-name="o" unicode="o" horiz-adv-x="1309" 
d="M655 -27c-72.667 0 -141.333 13.666 -206 40.999s-120.5 64.5 -167.5 111.5s-84.333 103 -112 168s-41.5 133.833 -41.5 206.5c0 96.667 23.333 185.334 70 266.001s110.5 144.167 191.5 190.5s169.5 69.5 265.5 69.5c146 0 270.333 -51 373 -153s154 -226.333 154 -373
c0 -147.333 -51.333 -272 -154 -374s-227 -153 -373 -153zM655.501 144.999c97.667 0 179.832 34.333 246.499 103s100 152.667 100 252c0 98 -33.5 181.667 -100.5 251s-149.167 104 -246.5 104s-179.666 -34.667 -246.999 -104s-101 -153 -101 -251
c0 -98.667 33.667 -182.5 101 -251.5s149.833 -103.5 247.5 -103.5z" />
    <glyph glyph-name="p" unicode="p" horiz-adv-x="1285" 
d="M692 1025c144 0 257.501 -49.168 340.501 -147.501s124.5 -224.166 124.5 -377.499c0 -100 -18.333 -189.5 -55 -268.5s-90.667 -141.667 -162 -188s-154 -69.5 -248 -69.5c-144.667 0 -259.334 54.333 -344.001 163v-495c0 -9.33301 -2.66699 -16.833 -8 -22.5
s-13 -8.5 -23 -8.5h-122c-9.33301 0 -16.833 2.66699 -22.5 8s-8.5 13 -8.5 23v1331c0 9.33301 2.66699 16.833 8 22.5s13 8.5 23 8.5h122c9.33301 0 16.833 -2.83301 22.5 -8.5s8.5 -13.167 8.5 -22.5v-132h20c30 55.333 72 99.833 126 133.5s120 50.5 198 50.5z
M659.001 144.999c102 0 180.667 32.501 236 97.501s83 151.5 83 259.5s-27.5 193.667 -82.5 257s-133.833 95 -236.5 95c-94.667 0 -170.834 -32.333 -228.501 -97s-86.5 -149.834 -86.5 -255.501s28.833 -191.5 86.5 -257.5s133.834 -99 228.501 -99z" />
    <glyph glyph-name="q" unicode="q" horiz-adv-x="1300" 
d="M1106 1004c9.33301 0 16.833 -2.83301 22.5 -8.5s8.5 -13.167 8.5 -22.5v-1331c0 -9.33301 -2.83301 -16.833 -8.5 -22.5s-13.167 -8.5 -22.5 -8.5h-123c-9.33301 0 -16.833 2.66699 -22.5 8s-8.5 13 -8.5 23v492c-86.667 -107.333 -202.667 -161 -348 -161
c-142 0 -256.833 49.833 -344.5 149.5s-131.5 225.5 -131.5 377.5c0 152.667 43.167 278.5 129.5 377.5s201.833 148.5 346.5 148.5c82 0 150.667 -17 206 -51s97 -78.667 125 -134h17v132c0 9.33301 2.83301 16.833 8.5 22.5s13.167 8.5 22.5 8.5h123zM637 144
c98 0 176.667 33.167 236 99.5s89 152.5 89 258.5c0 106.667 -29.5 192.334 -88.5 257.001s-137.833 97 -236.5 97c-102 0 -182.5 -32.333 -241.5 -97s-88.5 -150.334 -88.5 -257.001s29.5 -193 88.5 -259s139.5 -99 241.5 -99z" />
    <glyph glyph-name="r" unicode="r" horiz-adv-x="1238" 
d="M734 1026c116.667 0 210.167 -32.5 280.5 -97.5s105.5 -158.167 105.5 -279.5c0 -20 -10 -31 -30 -33l-123 -16c-19.333 -2 -30 7.33301 -32 28c-2.66699 76.667 -25.667 133.667 -69 171s-103 56 -179 56c-53.333 0 -102.833 -10.167 -148.5 -30.5s-81.5 -45 -107.5 -74
s-46.333 -57.333 -61 -85s-22 -51.167 -22 -70.5v-564c0 -9.33301 -2.66699 -16.833 -8 -22.5s-13 -8.5 -23 -8.5h-122c-9.33301 0 -16.833 2.66699 -22.5 8s-8.5 13 -8.5 23v942c0 9.33301 2.66699 16.833 8 22.5s13 8.5 23 8.5h114c18.667 0 29 -10.333 31 -31l8 -138h24
c36 54 85.5 99.333 148.5 136s134.167 55 213.5 55z" />
    <glyph glyph-name="s" unicode="s" horiz-adv-x="1156" 
d="M577 572c130 -17.333 221.335 -34.6611 274.002 -51.9941c104 -36 164.333 -97 181 -183c4 -18.667 6 -39 6 -61c0 -92.667 -38.5 -166.334 -115.5 -221.001s-191.5 -82 -343.5 -82c-138 0 -247.333 24 -328 72s-126.334 126.333 -137.001 235
c-2 20.667 7.66699 30.667 29 30h119c18 0 28 -7.66699 30 -23c15.333 -104.667 110.666 -157 285.999 -157c90 0 159 12.333 207 37s72 61 72 109c0 26 -6.5 48.167 -19.5 66.5s-33.5 33 -61.5 44s-56.5 19.5 -85.5 25.5s-66.833 12 -113.5 18
c-39.333 4.66699 -71.5 9.16699 -96.5 13.5s-54.833 10.166 -89.5 17.499s-62.834 15.5 -84.501 24.5s-44.5 21 -68.5 36s-42.667 31.667 -56 50s-24.666 40.666 -33.999 66.999s-14 55.833 -14 88.5c0 91.333 35.667 164 107 218s178 81 320 81
c283.333 0 435 -101.667 455 -305c2 -20.667 -7.66699 -31 -29 -31h-119c-18 0 -27.667 8 -29 24c-15.333 104.667 -107.666 156.667 -276.999 156c-166 0 -249 -48.667 -249 -146c0 -20.667 4.33301 -38.834 13 -54.501s19.667 -28.5 33 -38.5s32.166 -18.833 56.499 -26.5
s48.333 -13.834 72 -18.501s53.5 -9.33398 89.5 -14.001z" />
    <glyph glyph-name="t" unicode="t" horiz-adv-x="1230" 
d="M1119 162c12 -14.667 12.335 -28.335 1.00195 -41.002c-30.667 -34.667 -74.334 -66.167 -131.001 -94.5s-124.334 -42.5 -203.001 -42.5c-43.333 0 -83.333 3.5 -120 10.5s-72.334 20 -107.001 39s-64.167 43.5 -88.5 73.5s-43.833 68.833 -58.5 116.5
s-22 102.834 -22 165.501v456h-262c-8.66699 0 -16 2.83301 -22 8.5s-9 13.167 -9 22.5v97c0 9.33301 3 16.833 9 22.5s13.333 8.5 22 8.5h262v266c0 9.33301 3 16.666 9 21.999s13.333 8 22 8h123c8.66699 0 15.834 -2.66699 21.501 -8s8.5 -12.666 8.5 -21.999v-266h426
c8.66699 0 16 -2.83301 22 -8.5s9 -13.167 9 -22.5v-97c0 -8.66699 -2.83301 -16 -8.5 -22s-13.167 -9 -22.5 -9h-426v-443c0 -167.333 80 -250.666 240 -249.999c76.667 0 145.334 25.333 206.001 76c15.333 14.667 29.666 14 42.999 -2z" />
    <glyph glyph-name="u" unicode="u" horiz-adv-x="1240" 
d="M1046 1004c8.66699 0 15.8359 -2.83398 21.5029 -8.50098s8.5 -13.167 8.5 -22.5v-942c0 -9.33301 -2.83301 -16.833 -8.5 -22.5s-12.834 -8.5 -21.501 -8.5h-115c-18.667 0 -29 10.333 -31 31l-8 139h-21c-33.333 -54.667 -79.833 -100.5 -139.5 -137.5
s-129.5 -55.5 -209.5 -55.5c-113.333 0 -203 35 -269 105s-99 170.667 -99 302v589c0 9.33301 2.66699 16.833 8 22.5s12.666 8.5 21.999 8.5h123c9.33301 0 16.833 -2.83301 22.5 -8.5s8.5 -13.167 8.5 -22.5v-569c0 -86.667 21.667 -151.667 65 -195s106.333 -65 189 -65
c46.667 0 90.167 9.83301 130.5 29.5s72.166 42.834 95.499 69.501s41.5 51.667 54.5 75s19.5 41.333 19.5 54v601c0 9.33301 2.83301 16.833 8.5 22.5s13.167 8.5 22.5 8.5h123z" />
    <glyph glyph-name="v" unicode="v" horiz-adv-x="1201" 
d="M925 979c6.66699 16.667 19 25 37 25h123c11.333 0 19.5 -3.16699 24.5 -9.5s5.16699 -14.833 0.5 -25.5l-405 -944c-6.66699 -16.667 -19 -25 -37 -25h-134c-18.667 -0 -31 8.33301 -37 25l-406 944c-4.66699 10.667 -4.66699 19.167 0 25.5s13 9.5 25 9.5h124
c18 0 30 -8.33301 36 -25l324 -774z" />
    <glyph glyph-name="w" unicode="w" horiz-adv-x="1525" 
d="M1412 1004c22.667 0 30.999 -11.667 24.999 -35l-250 -944c-4 -16.667 -16.333 -25 -37 -25h-152c-20 -0 -32 8.33301 -36 25l-198 740l-200 -740c-4 -16.667 -16.333 -25 -37 -25h-150c-19.333 -0 -31.666 8.33301 -36.999 25l-251 944c-6 23.333 2.33301 35 25 35h117
c20.667 0 33 -8.33301 37 -25l189 -771l212 771c4.66699 16.667 17 25 37 25h114c20.667 0 33 -8.33301 37 -25l213 -771l190 771c4 16.667 16 25 36 25h116z" />
    <glyph glyph-name="x" unicode="x" horiz-adv-x="1269" 
d="M1163 37c8 -9.33301 10.168 -17.834 6.50098 -25.501s-11.834 -11.5 -24.501 -11.5h-151c-16 0 -28.333 5.66699 -37 17l-323 372l-324 -372c-8.66699 -11.333 -21 -17 -37 -17h-150c-12.667 0 -20.667 3.83301 -24 11.5s-1 16.167 7 25.5l420 479l-394 451
c-8 9.33301 -10.167 17.833 -6.5 25.5s12.167 11.5 25.5 11.5h148c16 0 28.333 -5.66699 37 -17l298 -346l298 346c8.66699 10.667 21 16.334 37 17.001h148c13.333 0 22 -3.66699 26 -11s1.66699 -16 -7 -26l-393 -451z" />
    <glyph glyph-name="y" unicode="y" horiz-adv-x="1231" 
d="M1101 1004c11.333 0 19.501 -3.16699 24.501 -9.5s4.83301 -14.833 -0.5 -25.5l-567 -1334c-7.33301 -16.667 -19.666 -24.667 -36.999 -24h-124c-11.333 0 -19.333 3 -24 9s-4.66699 14.667 0 26l149 352l-416 971c-4.66699 10.667 -4.5 19.167 0.5 25.5
s13.167 9.5 24.5 9.5h124c17.333 0 29.666 -8.33301 36.999 -25l323 -774l325 774c7.33301 16.667 19.666 25 36.999 25h124z" />
    <glyph glyph-name="z" unicode="z" horiz-adv-x="1198" 
d="M1034 973l0.000976562 -101.999c0 -16.667 -4.66699 -29.334 -14 -38.001l-638 -678h622c9.33301 0 16.666 -3 21.999 -9s8 -13.333 8 -22v-93c0 -9.33301 -2.66699 -16.833 -8 -22.5s-12.666 -8.5 -21.999 -8.5h-809c-9.33301 0 -16.833 2.66699 -22.5 8
s-8.5 13 -8.5 23v101c0 16.667 4.66699 29.667 14 39l638 678h-621c-9.33301 0 -16.833 2.83301 -22.5 8.5s-8.5 13.167 -8.5 22.5v93c0 9.33301 2.66699 16.833 8 22.5s13 8.5 23 8.5h809c9.33301 0 16.666 -2.83301 21.999 -8.5s8 -13.167 8 -22.5z" />
    <glyph glyph-name="braceleft" unicode="{" horiz-adv-x="1139" 
d="M571 891c0 -18 -3.33301 -30.6699 -10 -38.0029l-194 -226l194 -221c6.66699 -8 10 -21 10 -39v-407c0 -21.333 6.5 -38.5 19.5 -51.5s30.5 -19.5 52.5 -19.5h297c9.33301 0 16.833 -2.66699 22.5 -8s8.5 -12.666 8.5 -21.999v-95
c0 -9.33301 -2.83301 -16.666 -8.5 -21.999s-13.167 -8 -22.5 -8h-397c-46 0 -84.667 14.667 -116 44s-47 70 -47 122v442c0 18 -3.33301 31 -10 39l-191 225c-12 14.667 -12.667 28.334 -2 41.001l193 231c6.66699 8 10 20.667 10 38v444c0 52 15.667 92.667 47 122
s70 44 116 44h397c9.33301 0 16.833 -2.83301 22.5 -8.5s8.5 -13.167 8.5 -22.5v-94c0 -9.33301 -2.83301 -16.833 -8.5 -22.5s-13.167 -8.5 -22.5 -8.5h-297c-22 0 -39.5 -6.5 -52.5 -19.5s-19.5 -30.167 -19.5 -51.5v-408z" />
    <glyph glyph-name="bar" unicode="|" horiz-adv-x="539" 
d="M174 1608c0 9.33301 2.66699 16.666 8 21.999s13 8 23 8h130c8.66699 0 16 -2.66699 22 -8s9 -12.666 9 -21.999v-1966c0 -9.33301 -3 -16.833 -9 -22.5s-13.333 -8.5 -22 -8.5h-130c-9.33301 0 -16.833 2.66699 -22.5 8s-8.5 13 -8.5 23v1966z" />
    <glyph glyph-name="braceright" unicode="}" horiz-adv-x="1139" 
d="M568 891v408.003c0 21.333 -6.5 38.5 -19.5 51.5s-30.167 19.5 -51.5 19.5h-297c-8.66699 0 -16 2.66699 -22 8s-9 13 -9 23v94c0 9.33301 2.83301 16.833 8.5 22.5s13.167 8.5 22.5 8.5h397c46 0 84.667 -14.667 116 -44s47 -70 47 -122v-444
c0 -18 3.33301 -30.667 10 -38l193 -231c10.667 -12.667 10 -26.334 -2 -41.001l-191 -225c-6.66699 -8 -10 -21 -10 -39v-442c0 -52 -15.667 -92.667 -47 -122s-70 -44 -116 -44h-397c-8.66699 0 -16 2.66699 -22 8s-9 12.666 -9 21.999v95
c0 9.33301 2.83301 16.666 8.5 21.999s13.167 8 22.5 8h297c22 0 39.333 6.5 52 19.5s19 30.167 19 51.5v407c0 18 3.66699 31 11 39l194 221l-194 226c-7.33301 7.33301 -11 20 -11 38z" />
    <glyph glyph-name="asciitilde" unicode="~" horiz-adv-x="1247" 
d="M420 751c36.667 0 71.1709 -6.66699 103.504 -20s60.333 -29.333 84 -48l69 -56c22.333 -18.667 46.166 -34.667 71.499 -48s51.666 -20 78.999 -20c36 0 65.5 9 88.5 27s37.5 38 43.5 60c3.33301 13.333 12 20.333 26 21h69c18.667 0 26.334 -8.33301 23.001 -25
c-4.66699 -65.333 -30.334 -117.5 -77.001 -156.5s-106.667 -58.5 -180 -58.5c-36 0 -70 6.66699 -102 20s-59.833 29.333 -83.5 48l-68 56c-21.667 18.667 -45.167 34.5 -70.5 47.5s-51 19.5 -77 19.5c-62.667 0 -106.334 -28.667 -131.001 -86
c-6.66699 -14.667 -15.667 -21.667 -27 -21h-70c-17.333 0 -24.666 10.333 -21.999 31c7.33301 61.333 33.666 111.5 78.999 150.5s102.666 58.5 171.999 58.5z" />
    <glyph glyph-name="exclamdown" unicode="&#xa1;" horiz-adv-x="647" 
d="M323.5 1092c40.333 0 74.5 -14 102.5 -42s42 -62.167 42 -102.5s-14 -74.833 -42 -103.5s-62.167 -43 -102.5 -43s-74.5 14.333 -102.5 43s-42 63.167 -42 103.5s14 74.5 42 102.5s62.167 42 102.5 42zM445 -248c2.66699 -39.333 -7.83398 -71.999 -31.501 -97.999
s-53.667 -39 -90 -39s-66.166 13 -89.499 39s-33.666 58.667 -30.999 98l55 874c2 21.333 13.333 31.666 34 30.999h64c21.333 0 32.666 -10.333 33.999 -31z" />
    <glyph glyph-name="cent" unicode="&#xa2;" horiz-adv-x="1204" 
d="M1070 384c18 -10 20.999 -23.333 8.99902 -40c-39.333 -58.667 -90.5 -106.667 -153.5 -144s-132.5 -60.333 -208.5 -69v-182c0 -9.33301 -2.83301 -16.833 -8.5 -22.5s-13.167 -8.5 -22.5 -8.5h-74c-9.33301 0 -16.666 2.66699 -21.999 8s-8 13 -8 23v183
c-133.333 16 -242.333 71.667 -327 167s-127 210 -127 344c0 134.667 42.333 249.834 127 345.501s193.667 151.167 327 166.5v248c0 9.33301 2.66699 16.833 8 22.5s12.666 8.5 21.999 8.5h74c9.33301 0 16.833 -2.83301 22.5 -8.5s8.5 -13.167 8.5 -22.5v-247
c76.667 -8.66699 146.334 -31.667 209.001 -69s113.667 -85.333 153 -144c11.333 -16.667 8.33301 -30.334 -9 -41.001l-91 -52c-16 -9.33301 -29.667 -7 -41 7c-56.667 72.667 -130.334 116 -221.001 130v-687c90.667 14.667 164.334 58 221.001 130
c11.333 14.667 25 16.667 41 6zM307.999 643c0 -88.667 25.167 -163.67 75.5 -225.003s116.5 -99.666 198.5 -114.999v681c-82 -15.333 -148.167 -53.666 -198.5 -114.999s-75.5 -136.666 -75.5 -225.999z" />
    <glyph glyph-name="sterling" unicode="&#xa3;" horiz-adv-x="1259" 
d="M1091 174c8.66699 0 15.835 -2.6709 21.502 -8.00391s8.5 -13 8.5 -23v-112c0 -9.33301 -2.83301 -16.833 -8.5 -22.5s-12.834 -8.5 -21.501 -8.5h-920c-8.66699 0 -16 2.66699 -22 8s-9 13 -9 23v143c23.333 12.667 46 28 68 46s44.333 40.167 67 66.5
s40.834 57.333 54.501 93s20.5 73.5 20.5 113.5c0 30.667 -3.33301 62 -10 94h-171c-8.66699 0 -16 2.83301 -22 8.5s-9 12.834 -9 21.501v109c0 8.66699 3 16 9 22s13.333 9 22 9h105c-18.667 36.667 -32.667 66.334 -42 89.001s-18.833 53.834 -28.5 93.501
s-14.5 80.5 -14.5 122.5c0 120.667 39.5 215.5 118.5 284.5s192.5 103.5 340.5 103.5c146.667 0 261.5 -33.5 344.5 -100.5s124.5 -162.833 124.5 -287.5c0 -20 -10 -31 -30 -33l-113 -12c-21.333 -2 -32 7.66699 -32 29c-2 77.333 -29.667 136.166 -83 176.499
s-127.333 60.5 -222 60.5c-90.667 0 -158.334 -21.667 -203.001 -65s-67 -99.666 -67 -168.999c0 -30.667 3.5 -61.167 10.5 -91.5s13.667 -52.666 20 -66.999s18.166 -38 35.499 -71s28 -53.833 32 -62.5h500c9.33301 0 16.666 -3 21.999 -9s8 -13.333 8 -22v-109
c0 -8.66699 -2.66699 -15.834 -8 -21.501s-12.666 -8.5 -21.999 -8.5h-446c4.66699 -35.333 7 -69.666 7 -102.999c0 -55.333 -13.167 -111 -39.5 -167s-59.5 -103.667 -99.5 -143h704z" />
    <glyph glyph-name="currency" unicode="&#xa4;" horiz-adv-x="1275" 
d="M1095 975c0 -97.333 -28.333 -186.331 -85 -266.998l97 -98l-96 -94l-96 95c-82 -63.333 -175 -95 -279 -95c-103.333 0 -196 31 -278 93l-93 -93l-96 94l95 96c-58 79.333 -87 169 -87 269s29.333 190.333 88 271l-96 96l96 95l95 -96
c80.667 61.333 172.667 92.166 276 92.499s196 -30.834 278 -93.501l97 97l96 -95l-99 -99c58 -78 87 -167.333 87 -268zM636 637.002c94.667 0 175.167 33.998 241.5 101.998s99.5 146.667 99.5 236c0 88.667 -33.333 167.334 -100 236.001s-147 103 -241 103
s-174 -34.167 -240 -102.5s-99 -147.166 -99 -236.499c0 -90 33 -168.833 99 -236.5s146 -101.5 240 -101.5z" />
    <glyph glyph-name="yen" unicode="&#xa5;" horiz-adv-x="1413" 
d="M1320 1434c12 0 20.167 -3.5 24.5 -10.5s2.83301 -15.833 -4.5 -26.5l-482 -755h295c9.33301 0 16.833 -2.83301 22.5 -8.5s8.5 -13.167 8.5 -22.5v-88c0 -8.66699 -2.83301 -15.834 -8.5 -21.501s-13.167 -8.5 -22.5 -8.5h-350v-87h350
c9.33301 0 16.833 -2.83301 22.5 -8.5s8.5 -13.167 8.5 -22.5v-88c0 -9.33301 -2.83301 -16.833 -8.5 -22.5s-13.167 -8.5 -22.5 -8.5h-350v-225c0 -9.33301 -2.83301 -16.833 -8.5 -22.5s-13.167 -8.5 -22.5 -8.5h-130c-8.66699 0 -16 2.66699 -22 8s-9 13 -9 23v225h-350
c-8.66699 0 -16 2.66699 -22 8s-9 13 -9 23v88c0 9.33301 3 16.833 9 22.5s13.333 8.5 22 8.5h350v87h-350c-8.66699 0 -16 2.83301 -22 8.5s-9 12.834 -9 21.501v88c0 8.66699 3 16 9 22s13.333 9 22 9h295l-483 755c-6.66699 10.667 -8 19.5 -4 26.5s12 10.5 24 10.5h151
c16 0 28.333 -7 37 -21l426 -667l426 667c8.66699 13.333 20.667 20.333 36 21h151z" />
    <glyph glyph-name="brokenbar" unicode="&#xa6;" horiz-adv-x="539" 
d="M335 1638c8.66699 0 16 -2.66699 22 -8s9 -12.666 9 -21.999v-574c0 -9.33301 -3 -16.666 -9 -21.999s-13.333 -8 -22 -8h-130c-9.33301 0 -16.833 2.66699 -22.5 8s-8.5 12.666 -8.5 21.999v574c0 9.33301 2.66699 16.666 8 21.999s13 8 23 8h130zM335 246
c8.66699 0 16 -2.83301 22 -8.5s9 -13.167 9 -22.5v-573c0 -9.33301 -3 -16.833 -9 -22.5s-13.333 -8.5 -22 -8.5h-130c-9.33301 0 -16.833 2.66699 -22.5 8s-8.5 13 -8.5 23v573c0 9.33301 2.66699 16.833 8 22.5s13 8.5 23 8.5h130z" />
    <glyph glyph-name="section" unicode="&#xa7;" horiz-adv-x="1389" 
d="M1236 571c0 -123.333 -37.6748 -221.668 -113.008 -295.001c40.667 -55.333 61.334 -121.666 62.001 -198.999c0 -129.333 -42.667 -229.333 -128 -300s-211.666 -106 -378.999 -106c-157.333 0 -280.166 29.167 -368.499 87.5s-138.166 146.166 -149.499 263.499
c-1.33301 10 0.833984 18.5 6.50098 25.5s12.834 10.5 21.501 10.5h125c18 0 28.333 -10 31 -30c8.66699 -57.333 42 -102.333 100 -135s136 -49 234 -49c106.667 0 186.334 18.333 239.001 55s79 95.334 79 176.001c0 35.333 -6.16699 65.333 -18.5 90
s-33.5 45.834 -63.5 63.501s-62.5 32.167 -97.5 43.5s-83.167 24 -144.5 38c-60.667 14.667 -112.334 28.667 -155.001 42s-88.667 32.166 -138 56.499s-89.166 51.833 -119.499 82.5s-55.5 69.667 -75.5 117s-30 101 -30 161c0 106.667 38.333 197.334 115 272.001
c-37.333 58 -56 129 -56 213c0 118 39.333 211.5 118 280.5s190.334 103.5 335.001 103.5c148 0 264.833 -29.167 350.5 -87.5s134.167 -144.5 145.5 -258.5c2 -20.667 -7.33301 -30.667 -28 -30h-116c-18.667 0 -29 8 -31 24c-8 54 -40.167 97.667 -96.5 131
s-130.833 50 -223.5 50c-84 0 -150 -18.333 -198 -55s-72 -89.334 -72 -158.001c0 -70 20.667 -124.167 62 -162.5s112.333 -68.166 213 -89.499c46 -9.33301 86 -18.166 120 -26.499s71.667 -19.333 113 -33s76.833 -27.834 106.5 -42.501s59.5 -33 89.5 -55
s54.167 -45.833 72.5 -71.5s33.333 -55.834 45 -90.501s17.5 -72 17.5 -112zM671.992 483.998c134.667 -29.333 234.998 -60.001 300.998 -92.001c52 40 78 100 78 180c0 16.667 -1.5 32.167 -4.5 46.5s-8 27.5 -15 39.5s-14 23 -21 33s-17.333 19.5 -31 28.5l-36 24
c-10.333 7 -25.166 14 -44.499 21s-35.666 12.667 -48.999 17s-31.833 9.83301 -55.5 16.5s-43 11.834 -58 15.501s-36.5 8.5 -64.5 14.5c-111.333 25.333 -199 55.666 -263 90.999c-46 -38 -69 -93.333 -69 -166c0 -40 7.5 -75 22.5 -105s38.167 -55.167 69.5 -75.5
s65.5 -37.166 102.5 -50.499s82.833 -26 137.5 -38z" />
    <glyph glyph-name="dieresis" unicode="&#xa8;" 
d="M460 1250c-28 0 -52.167 10.167 -72.5 30.5s-30.5 44.833 -30.5 73.5c0 27.333 10.167 50.833 30.5 70.5s44.5 29.5 72.5 29.5s52 -9.83301 72 -29.5s30 -43.167 30 -70.5c0 -28.667 -10 -53.167 -30 -73.5s-44 -30.5 -72 -30.5zM853 1250c-28 0 -52 10.167 -72 30.5
s-30 44.833 -30 73.5c0 27.333 10 50.833 30 70.5s44 29.5 72 29.5s52 -9.83301 72 -29.5s30 -43.167 30 -70.5c0 -28.667 -10 -53.167 -30 -73.5s-44 -30.5 -72 -30.5z" />
    <glyph glyph-name="copyright" unicode="&#xa9;" horiz-adv-x="1439" 
d="M720 115c-106 0 -204 26 -294 78s-161.333 123.167 -214 213.5s-79 188.333 -79 294s26.333 203.5 79 293.5s124 161.167 214 213.5s188 78.5 294 78.5s204 -26.167 294 -78.5s161.333 -123.5 214 -213.5s79 -187.833 79 -293.5s-26.333 -203.667 -79 -294
s-124 -161.5 -214 -213.5s-188 -78 -294 -78zM719.5 245c125.667 0 232.167 44.333 319.5 133s131 196 131 322c0 126.667 -43.667 234.5 -131 323.5s-193.833 133.5 -319.5 133.5s-232.334 -44.333 -320.001 -133s-131.5 -196.667 -131.5 -324
c0 -126 43.833 -233.333 131.5 -322s194.334 -133 320.001 -133zM922 485c14.667 -16 14.333 -30.332 -1 -42.999c-52.667 -45.333 -116.667 -67.666 -192 -66.999c-89.333 0 -165 31.167 -227 93.5s-93 139.666 -93 231.999s31 169.833 93 232.5s137.667 94 227 94
c74.667 0 139 -22.667 193 -68c15.333 -12.667 15.333 -27 0 -43l-35 -35c-10 -10.667 -24 -11.334 -42 -2.00098c-36 22 -73.667 32.667 -113 32c-58 0 -106.833 -20.167 -146.5 -60.5s-59.5 -90.333 -59.5 -150s19.833 -109.667 59.5 -150s88.5 -60.5 146.5 -60.5
c38 0 75.667 10.667 113 32c17.333 10 31.333 9.33301 42 -2z" />
    <glyph glyph-name="ordfeminine" unicode="&#xaa;" 
d="M907 1434h117.002v-736h-117l-20 90c-61.333 -60 -137.333 -90 -228 -90c-104 0 -192 36.167 -264 108.5s-108 160.5 -108 264.5s36.167 192.167 108.5 264.5s160.166 108.5 263.499 108.5c89.333 0 165.666 -29.667 228.999 -89zM659.502 834
c66.333 0 122.667 23 169 69s69.5 102 69.5 168c0 66.667 -23 123.167 -69 169.5s-102.667 69.5 -170 69.5c-66 0 -122 -23.333 -168 -70s-69 -103 -69 -169s23 -122 69 -168s102.167 -69 168.5 -69z" />
    <glyph glyph-name="guillemotleft" unicode="&#xab;" horiz-adv-x="1275" 
d="M626 967l-257.999 -392l258 -391c6.66699 -10.667 8 -19.5 4 -26.5s-12.333 -10.5 -25 -10.5h-135c-17.333 0 -29.666 7 -36.999 21l-256 387c-9.33301 13.333 -9.33301 27 0 41l256 387c7.33301 13.333 19.666 20.333 36.999 21h135c12 0 20.167 -3.5 24.5 -10.5
s3.16602 -15.833 -3.50098 -26.5zM1101 967l-257.999 -392l258 -391c6.66699 -10.667 8 -19.5 4 -26.5s-12.333 -10.5 -25 -10.5h-135c-17.333 0 -29.666 7 -36.999 21l-256 387c-9.33301 13.333 -9.33301 27 0 41l256 387c7.33301 13.333 19.666 20.333 36.999 21h135
c12 0 20.167 -3.5 24.5 -10.5s3.16602 -15.833 -3.50098 -26.5z" />
    <glyph glyph-name="logicalnot" unicode="&#xac;" horiz-adv-x="1361" 
d="M1162 624c8.66699 0 15.999 -3 21.999 -9s9 -13.333 9 -22v-269c0 -9.33301 -2.83301 -16.833 -8.5 -22.5s-13.167 -8.5 -22.5 -8.5h-122c-9.33301 0 -16.666 2.66699 -21.999 8s-8 13 -8 23v145h-810c-8.66699 0 -16 2.66699 -22 8s-9 13 -9 23v93
c0 8.66699 2.83301 16 8.5 22s13.167 9 22.5 9h962z" />
    <glyph glyph-name="uni00AD" unicode="&#xad;" 
d="M1137 654c9.33301 0 16.666 -2.83301 21.999 -8.5s8 -12.834 8 -21.501v-96c0 -9.33301 -2.66699 -16.666 -8 -21.999s-12.666 -8 -21.999 -8h-963c-9.33301 0 -16.833 2.66699 -22.5 8s-8.5 12.666 -8.5 21.999v96c0 8.66699 2.83301 15.834 8.5 21.501
s13.167 8.5 22.5 8.5h963z" />
    <glyph glyph-name="registered" unicode="&#xae;" horiz-adv-x="1439" 
d="M720 1286c106 0 204 -26.167 294 -78.5s161.333 -123.5 214 -213.5s79 -187.833 79 -293.5s-26.333 -203.667 -79 -294s-124 -161.5 -214 -213.5s-188 -78 -294 -78s-204 26 -294 78s-161.333 123.167 -214 213.5s-79 188.333 -79 294s26.333 203.5 79 293.5
s124 161.167 214 213.5s188 78.5 294 78.5zM719.5 245c125.667 0 232.167 44.333 319.5 133s131 196 131 322c0 126.667 -43.667 234.5 -131 323.5s-193.833 133.5 -319.5 133.5s-232.334 -44.333 -320.001 -133s-131.5 -196.667 -131.5 -324
c0 -126 43.833 -233.333 131.5 -322s194.334 -133 320.001 -133zM1002 799c0 -51.333 -15.167 -93 -45.5 -125s-73.166 -52.667 -128.499 -62l166 -180c5.33301 -5.33301 6.83301 -10.5 4.5 -15.5s-7.5 -7.5 -15.5 -7.5h-96c-8 0 -15.333 3.66699 -22 11l-169 187h-112v-180
c0 -4.66699 -1.83301 -8.83398 -5.5 -12.501s-7.83398 -5.5 -12.501 -5.5h-80c-4.66699 0 -8.83398 1.83301 -12.501 5.5s-5.5 7.83398 -5.5 12.501v549c0 4.66699 1.83301 8.83398 5.5 12.501s7.83398 5.5 12.501 5.5h278c75.333 0 133.833 -16.833 175.5 -50.5
s62.5 -81.834 62.5 -144.501zM766 710c39.333 0 69.5 8.33301 90.5 25s31.5 38 31.5 64c0 28.667 -10.333 51 -31 67s-51 24 -91 24h-182v-180h182z" />
    <glyph glyph-name="macron" unicode="&#xaf;" 
d="M916 1434c8.66699 0 16 -2.83301 22 -8.5s9 -13.167 9 -22.5v-87c0 -8.66699 -2.83301 -16 -8.5 -22s-13.167 -9 -22.5 -9h-522c-8.66699 0 -15.834 3 -21.501 9s-8.5 13.333 -8.5 22v87c0 9.33301 2.83301 16.833 8.5 22.5s12.834 8.5 21.501 8.5h522z" />
    <glyph glyph-name="degree" unicode="&#xb0;" 
d="M655.5 1444c91 0 167 -29.999 228 -89.999s91.5 -136 91.5 -228c0 -93.333 -30.5 -170.166 -91.5 -230.499s-137 -90.5 -228 -90.5s-167 30.167 -228 90.5s-91.5 137.166 -91.5 230.499c0 91.333 30.5 167.166 91.5 227.499s137 90.5 228 90.5zM655 1319
c-56.667 0 -102.667 -18 -138 -54s-53 -82.333 -53 -139c0 -57.333 17.667 -104 53 -140s81.333 -54 138 -54c57.333 0 103.833 18 139.5 54s53.5 82.667 53.5 140c0 56.667 -17.833 103 -53.5 139s-82.167 54 -139.5 54z" />
    <glyph glyph-name="plusminus" unicode="&#xb1;" horiz-adv-x="1163" 
d="M964 753c8.66699 0 15.834 -3 21.501 -9s8.5 -13.333 8.5 -22v-88c0 -8.66699 -2.83301 -16 -8.5 -22s-12.834 -9 -21.501 -9h-307v-307c0 -8.66699 -2.66699 -16 -8 -22s-12.666 -9 -21.999 -9h-88c-9.33301 0 -16.833 3 -22.5 9s-8.5 13.333 -8.5 22v307h-307
c-9.33301 0 -16.833 3 -22.5 9s-8.5 13.333 -8.5 22v88c0 8.66699 2.66699 16 8 22s13 9 23 9h307v306c0 9.33301 2.66699 16.833 8 22.5s13 8.5 23 8.5h88c9.33301 0 16.666 -2.83301 21.999 -8.5s8 -13.167 8 -22.5v-306h307zM963 150
c9.33301 0 16.666 -2.83301 21.999 -8.5s8 -13.167 8 -22.5v-88c0 -9.33301 -2.66699 -16.833 -8 -22.5s-12.666 -8.5 -21.999 -8.5h-763c-8.66699 0 -16 2.66699 -22 8s-9 13 -9 23v88c0 9.33301 2.83301 16.833 8.5 22.5s13.167 8.5 22.5 8.5h763z" />
    <glyph glyph-name="uni00B2" unicode="&#xb2;" 
d="M1081 371c9.33301 0 16.834 -2.83398 22.501 -8.50098s8.5 -13.167 8.5 -22.5v-94c0 -9.33301 -2.66699 -16.833 -8 -22.5s-13 -8.5 -23 -8.5h-861c-8.66699 0 -16 2.66699 -22 8s-9 13 -9 23v92c0 58.667 13.667 110 41 154s63 79.167 107 105.5s92.667 49.333 146 69
s106.5 36.834 159.5 51.501s101.5 29.667 145.5 45s79.667 34.833 107 58.5s41 51.5 41 83.5c0 55.333 -22 96.166 -66 122.499s-113 39.5 -207 39.5c-200.667 0 -303.334 -60.333 -308.001 -181c0 -21.333 -10.333 -31 -31 -29l-112 12c-20 2 -30 13 -30 33
c0 108 40.333 189.5 121 244.5s196.667 82.5 348 82.5c148 0 262 -28 342 -84s120 -136 120 -240c0 -43.333 -10.167 -82 -30.5 -116s-47.333 -61.5 -81 -82.5s-72 -40.667 -115 -59s-86.667 -33.333 -131 -45s-88 -25.167 -131 -40.5s-81.167 -30.666 -114.5 -45.999
s-60.333 -35.333 -81 -60s-31 -53 -31 -85h683z" />
    <glyph glyph-name="uni00B3" unicode="&#xb3;" 
d="M907 720c40 -8 74.6631 -17.668 103.996 -29.001s56.333 -26.5 81 -45.5s43.334 -42.833 56.001 -71.5s19 -62 19 -100c0 -52.667 -12.167 -97.834 -36.5 -135.501s-60 -67.334 -107 -89.001s-100.5 -37.334 -160.5 -47.001s-129 -14.5 -207 -14.5
c-82.667 0 -153.5 4.83301 -212.5 14.5s-110.667 25.667 -155 48s-77.333 52.833 -99 91.5s-32.5 86.667 -32.5 144c0 20 9.66699 31 29 33l118 12c20 2 30.667 -7.33301 32 -28c0.666992 -58.667 26 -99.167 76 -121.5s128.667 -33.5 236 -33.5
c52.667 0 97.5 1.66699 134.5 5s71.333 9.83301 103 19.5s55.334 23.834 71.001 42.501s23.5 42 23.5 70c0 61.333 -31.167 103.5 -93.5 126.5s-167.833 34.5 -316.5 34.5c-20.667 0 -30.667 10.333 -30 31v69c0 21.333 10.333 32 31 32c138 0 236.333 12.333 295 37
s88 62.667 88 114s-25.167 87.833 -75.5 109.5s-124.166 32.5 -221.499 32.5c-100 0 -175 -13.5 -225 -40.5s-75.333 -72.5 -76 -136.5c-1.33301 -21.333 -11.666 -31 -30.999 -29l-118 12c-20 2 -30 12.667 -30 32c0 112.667 41.5 194.167 124.5 244.5
s203.5 75.5 361.5 75.5c148 0 262.833 -22.667 344.5 -68s122.5 -114.666 122.5 -207.999c0 -59.333 -20.5 -108.666 -61.5 -147.999s-94.833 -67.666 -161.5 -84.999z" />
    <glyph glyph-name="acute" unicode="&#xb4;" 
d="M771 1495c11.333 0 19.5 -3 24.5 -9s5.16699 -14.667 0.5 -26l-123 -258c-7.33301 -16.667 -19 -24.667 -35 -24h-98c-11.333 0 -19.5 3 -24.5 9s-5.16699 14.333 -0.5 25l123 258c7.33301 16.667 19 25 35 25h98z" />
    <glyph glyph-name="uni00B5" unicode="&#xb5;" horiz-adv-x="1245" 
d="M1051 1004c9.33301 0 16.665 -2.83398 21.998 -8.50098s8 -13.167 8 -22.5v-942c0 -9.33301 -2.66699 -16.833 -8 -22.5s-12.666 -8.5 -21.999 -8.5h-115c-18.667 0 -29 10.333 -31 31l-8 139h-20c-33.333 -54.667 -80 -100.5 -140 -137.5s-130 -55.5 -210 -55.5
c-73.333 0 -136.333 14.333 -189 43v-378c0 -9.33301 -2.66699 -16.833 -8 -22.5s-13 -8.5 -23 -8.5h-123c-9.33301 0 -16.666 2.66699 -21.999 8s-8 13 -8 23v1039h5v292c0 9.33301 2.83301 16.833 8.5 22.5s12.834 8.5 21.501 8.5h123c8.66699 0 16 -2.83301 22 -8.5
s9 -13.167 9 -22.5v-569c0 -86.667 21.667 -151.667 65 -195s106.333 -65 189 -65c46.667 0 90.167 9.83301 130.5 29.5s72.166 42.834 95.499 69.501s41.5 51.667 54.5 75s19.5 41.333 19.5 54v601c0 9.33301 2.66699 16.833 8 22.5s13 8.5 23 8.5h123z" />
    <glyph glyph-name="paragraph" unicode="&#xb6;" 
d="M500 1434h252c9.33301 0 16.666 -2.83301 21.999 -8.5s8 -13.167 8 -22.5v-1372c0 -9.33301 -2.66699 -16.833 -8 -22.5s-12.666 -8.5 -21.999 -8.5h-117c-9.33301 0 -16.833 2.66699 -22.5 8s-8.5 13 -8.5 23v503h-104c-82.667 0 -150.834 9.16699 -204.501 27.5
s-95.334 47.5 -125.001 87.5s-50.167 86.167 -61.5 138.5s-17 117.833 -17 196.5s5.66699 144 17 196s31.833 98 61.5 138s71.334 69.333 125.001 88s121.834 28 204.501 28zM1070 1434c8.66699 0 16 -2.83301 22 -8.5s9 -13.167 9 -22.5v-1372
c0 -9.33301 -3 -16.833 -9 -22.5s-13.333 -8.5 -22 -8.5h-118c-9.33301 0 -16.666 2.66699 -21.999 8s-8 13 -8 23v1372c0 9.33301 2.66699 16.833 8 22.5s12.666 8.5 21.999 8.5h118z" />
    <glyph glyph-name="periodcentered" unicode="&#xb7;" horiz-adv-x="626" 
d="M313.5 468c-40.333 0 -74.5 14 -102.5 42s-42 62.167 -42 102.5s14 74.833 42 103.5s62.167 43 102.5 43s74.5 -14.333 102.5 -43s42 -63.167 42 -103.5s-14 -74.5 -42 -102.5s-62.167 -42 -102.5 -42z" />
    <glyph glyph-name="cedilla" unicode="&#xb8;" 
d="M657 -77c47.333 -4 87.501 -20.332 120.501 -48.999s49.5 -66 49.5 -112c0 -54.667 -16.5 -98.834 -49.5 -132.501s-73.167 -55.167 -120.5 -64.5s-98 -9.33301 -152 0c-12 2 -18.333 9.33301 -19 22v67c0 6.66699 2.16699 11.834 6.5 15.501s9.83301 5.16699 16.5 4.5
c55.333 -8 99 -4.83301 131 9.5s48 36.833 48 67.5c0 28.667 -17.333 49.334 -52 62.001s-76.334 9.66699 -125.001 -9c-7.33301 -2.66699 -13.333 -2.83398 -18 -0.500977s-7 7.5 -7 15.5v65c0 7.33301 3.66699 15.666 11 24.999l88 91h149z" />
    <glyph glyph-name="uni00B9" unicode="&#xb9;" 
d="M1085 370c9.33301 0 16.834 -3 22.501 -9s8.5 -13.333 8.5 -22v-93c0 -9.33301 -2.66699 -16.833 -8 -22.5s-13 -8.5 -23 -8.5h-860c-9.33301 0 -16.666 2.66699 -21.999 8s-8 13 -8 23v93c0 8.66699 2.66699 16 8 22s12.666 9 21.999 9h373v665
c-93.333 -88 -202 -132 -326 -132c-20.667 0 -30.667 10.333 -30 31v105c0 21.333 10 32 30 32c50.667 0 104.5 12.833 161.5 38.5s111.833 62.167 164.5 109.5h154c9.33301 0 16.666 -2.83301 21.999 -8.5s8 -13.167 8 -22.5v-818h303z" />
    <glyph glyph-name="ordmasculine" unicode="&#xba;" 
d="M654.5 698c-103 0 -190.833 36.167 -263.5 108.5s-109 160.5 -109 264.5s36.333 192.167 109 264.5s160.5 108.5 263.5 108.5s190.833 -36.167 263.5 -108.5s109 -160.5 109 -264.5s-36.333 -192.167 -109 -264.5s-160.5 -108.5 -263.5 -108.5zM654.5 834
c66.333 0 122.666 23 168.999 69s69.5 102 69.5 168s-23.167 122.333 -69.5 169s-102.666 70 -168.999 70s-122.666 -23.167 -168.999 -69.5s-69.5 -102.833 -69.5 -169.5c0 -66 23.167 -122 69.5 -168s102.666 -69 168.999 -69z" />
    <glyph glyph-name="guillemotright" unicode="&#xbb;" horiz-adv-x="1275" 
d="M175 967c-6.66699 10.667 -8.00098 19.5 -4.00098 26.5s12.333 10.5 25 10.5h135c17.333 0 29.666 -7 36.999 -21l256 -387c9.33301 -13.333 9.33301 -27 0 -41l-256 -387c-7.33301 -13.333 -19.666 -20.333 -36.999 -21h-135c-12 0 -20.167 3.5 -24.5 10.5
s-3.16602 15.833 3.50098 26.5l258 391zM649.999 967c-6.66699 10.667 -8.00098 19.5 -4.00098 26.5s12.333 10.5 25 10.5h135c17.333 0 29.666 -7 36.999 -21l256 -387c9.33301 -13.333 9.33301 -27 0 -41l-256 -387c-7.33301 -13.333 -19.666 -20.333 -36.999 -21h-135
c-12 0 -20.167 3.5 -24.5 10.5s-3.16602 15.833 3.50098 26.5l258 391z" />
    <glyph glyph-name="onequarter" unicode="&#xbc;" 
d="M225 771c-8.66699 0 -15.834 2.49902 -21.501 7.49902s-8.5 11.5 -8.5 19.5v81c0 7.33301 2.83301 13.5 8.5 18.5s12.834 7.5 21.501 7.5h373v575c-93.333 -76 -202 -114 -326 -114c-20.667 0 -30.667 9 -30 27v91c0 18.667 10 27.667 30 27
c108 0 216.667 42.333 326 127h154c20.667 0 30.667 -8.66699 30 -26v-707h303c8.66699 0 16 -2.5 22 -7.5s9 -11.167 9 -18.5v-81c0 -7.33301 -2.83301 -13.666 -8.5 -18.999s-13.167 -8 -22.5 -8h-860zM1239 694.999c9.33301 0 16.833 -2.83301 22.5 -8.5
s8.5 -12.834 8.5 -21.501v-75c0 -9.33301 -2.83301 -16.833 -8.5 -22.5s-13.167 -8.5 -22.5 -8.5h-1167c-9.33301 0 -16.833 2.66699 -22.5 8s-8.5 13 -8.5 23v75c0 8.66699 2.66699 15.834 8 21.501s13 8.5 23 8.5h1167zM1141 55.999c20.667 0 30.667 -8.66699 30 -26v-82
c0 -7.33301 -2.83301 -13.666 -8.5 -18.999s-12.834 -8 -21.501 -8h-143v-283c0 -18 -10 -27 -30 -27h-123c-20.667 0 -31 9 -31 27v283h-646c-8.66699 0 -16 2.66699 -22 8s-9 11.666 -9 18.999v504c0 7.33301 3 13.5 9 18.5s13.333 7.5 22 7.5h123
c8.66699 0 16 -2.5 22 -7.5s9 -11.167 9 -18.5v-396h492v396c0 7.33301 2.83301 13.5 8.5 18.5s13.167 7.5 22.5 7.5h123c8.66699 0 15.834 -2.5 21.501 -7.5s8.5 -11.167 8.5 -18.5v-396h143z" />
    <glyph glyph-name="onehalf" unicode="&#xbd;" 
d="M218 781c-20.667 0 -31.001 9.00098 -31.001 27.001v80c0 17.333 10.333 25.666 31 24.999h373v569c-93.333 -75.333 -202 -113 -326 -113c-20.667 0 -31 8.66699 -31 26v90c0 18.667 10.333 27.667 31 27c51.333 0 105.333 11 162 33s111.334 53 164.001 93h153
c8.66699 0 16 -2.5 22 -7.5s9 -11.167 9 -18.5v-699h303c20.667 0 31 -8.33301 31 -25v-80c0 -18 -10.333 -27 -31 -27h-860zM1239 695.001c9.33301 0 16.833 -2.83301 22.5 -8.5s8.5 -12.834 8.5 -21.501v-75c0 -9.33301 -2.83301 -16.833 -8.5 -22.5
s-13.167 -8.5 -22.5 -8.5h-1167c-9.33301 0 -16.833 2.66699 -22.5 8s-8.5 13 -8.5 23v75c0 8.66699 2.66699 15.834 8 21.501s13 8.5 23 8.5h1167zM1121 200.001c0 -41.333 -13.1689 -77.9951 -39.502 -109.995s-60.5 -57.333 -102.5 -76s-88.333 -35.5 -139 -50.5
s-101.5 -28.833 -152.5 -41.5s-97.5 -26.334 -139.5 -41.001s-76 -33.5 -102 -56.5s-39 -49.833 -39 -80.5h683c8.66699 0 15.834 -2.5 21.501 -7.5s8.5 -11.5 8.5 -19.5v-79c0 -18 -10 -27 -30 -27h-862c-20.667 0 -30.667 9 -30 27v77c0 50 13.667 94 41 132
s63 68.167 107 90.5s92.5 42 145.5 59s106 31.5 159 43.5s101.5 24.667 145.5 38s79.667 30.166 107 50.499s41 44.166 41 71.499c0 47.333 -22 82.166 -66 104.499s-113 33.5 -207 33.5c-200.667 0 -303 -51.667 -307 -155c0 -18.667 -10.667 -26.667 -32 -24l-112 10
c-20 2 -30 11.667 -30 29c0 91.333 40.333 160.5 121 207.5s196.667 70.5 348 70.5c148.667 0 262.834 -23.833 342.501 -71.5s119.5 -115.834 119.5 -204.501z" />
    <glyph glyph-name="threequarters" unicode="&#xbe;" 
d="M904 1213c40 -7.33301 74.6631 -15.6689 103.996 -25.002s56.333 -22.166 81 -38.499s43.334 -36.5 56.001 -60.5s19 -52.333 19 -85c0 -45.333 -12.167 -84 -36.5 -116s-60 -57.333 -107 -76s-100.5 -32 -160.5 -40s-129 -12 -207 -12c-168.667 0 -294 18.667 -376 56
s-123 103.333 -123 198c0 17.333 9.66699 26.666 29 27.999l118 11c20 2 30.667 -6.33301 32 -25c0.666992 -50 26 -84.5 76 -103.5s128.667 -28.5 236 -28.5c52.667 0 97.5 1.5 134.5 4.5s71.333 8.5 103 16.5s55.334 20 71.001 36s23.5 36.333 23.5 61
c0 52.667 -31.167 88.667 -93.5 108s-167.833 29 -316.5 29c-20.667 0 -30.667 8.66699 -30 26v59c0 18.667 10.333 28 31 28c138 0 236.333 10.333 295 31s88 52.834 88 96.501s-25.167 74.834 -75.5 93.501s-124.166 28 -221.499 28c-100 0 -175 -11.333 -225 -34
s-75.333 -61.667 -76 -117c-1.33301 -18 -11.666 -26.333 -30.999 -25l-118 11c-20 1.33301 -30 10.333 -30 27c0 96 41.5 165.5 124.5 208.5s203.167 64.5 360.5 64.5c148 0 263 -19.5 345 -58.5s123 -97.833 123 -176.5c0 -50.667 -20.667 -93 -62 -127
s-95 -58.333 -161 -73zM1239 694.997c9.33301 0 16.833 -2.83301 22.5 -8.5s8.5 -12.834 8.5 -21.501v-75c0 -9.33301 -2.83301 -16.833 -8.5 -22.5s-13.167 -8.5 -22.5 -8.5h-1167c-9.33301 0 -16.833 2.66699 -22.5 8s-8.5 13 -8.5 23v75
c0 8.66699 2.66699 15.834 8 21.501s13 8.5 23 8.5h1167zM967.996 477.997c8.66699 0 15.834 -2.5 21.501 -7.5s8.5 -11.167 8.5 -18.5v-396h143c20.667 0 30.667 -8.66699 30 -26v-82c0 -7.33301 -2.83301 -13.666 -8.5 -18.999s-12.834 -8 -21.501 -8h-143v-283
c0 -18 -10 -27 -30 -27h-123c-20.667 0 -31 9 -31 27v283h-646c-8.66699 0 -16 2.66699 -22 8s-9 11.666 -9 18.999v504c0 7.33301 3 13.5 9 18.5s13.333 7.5 22 7.5h123c8.66699 0 16 -2.5 22 -7.5s9 -11.167 9 -18.5v-396h492v396c0 7.33301 2.83301 13.5 8.5 18.5
s13.167 7.5 22.5 7.5h123z" />
    <glyph glyph-name="questiondown" unicode="&#xbf;" horiz-adv-x="1274" 
d="M692.5 1092c40.333 0 74.5 -14 102.5 -42s42 -62.167 42 -102.5s-14 -74.833 -42 -103.5s-62.167 -43 -102.5 -43s-74.5 14.333 -102.5 43s-42 63.167 -42 103.5s14 74.5 42 102.5s62.167 42 102.5 42zM748 681c20.667 0 30.6689 -10.998 30.002 -32.998
c0 -56.667 -4.83301 -107 -14.5 -151s-23 -79.833 -40 -107.5s-36.333 -51.5 -58 -71.5s-44.667 -36.5 -69 -49.5s-48.5 -24.833 -72.5 -35.5s-46.833 -21.834 -68.5 -33.501s-41 -24.834 -58 -39.501s-30.5 -34 -40.5 -58s-15 -52.667 -15 -86
c0 -70.667 23.167 -127.334 69.5 -170.001s117.333 -64 213 -64s170.167 20.333 223.5 61s80.666 99.334 81.999 176.001c1.33301 21.333 12 31 32 29l113 -12c20.667 -2 31 -13 31 -33c0 -124.667 -41.667 -220.5 -125 -287.5s-198.333 -100.5 -345 -100.5
c-149.333 0 -264.5 36 -345.5 108s-121.5 169.333 -121.5 292c0 58.667 7.83301 108.5 23.5 149.5s36.167 72.833 61.5 95.5s53.166 42.167 83.499 58.5l90.5 48c30 15.667 57.667 34 83 55s45.833 50.667 61.5 89s23.5 84.833 23.5 139.5c0 20.667 10.333 31 31 31h121z
" />
    <glyph glyph-name="Agrave" unicode="&#xc0;" horiz-adv-x="1402" 
d="M610 1571l-123 258c-4.66699 10.667 -4.5 19.167 0.5 25.5s13.167 9.5 24.5 9.5h98c16 0 27.667 -8.33301 35 -25l123 -258c4.66699 -10.667 4.66699 -19.167 0 -25.5s-13 -9.5 -25 -9.5h-98c-16 0 -27.667 8.33301 -35 25zM1323 35c4 -10 3.83105 -18.333 -0.501953 -25
s-12.5 -10 -24.5 -10h-132c-17.333 -0 -28.666 8.33301 -33.999 25l-102 275h-657l-102 -275c-6 -16.667 -17.333 -25 -34 -25h-133c-11.333 0 -19.166 3.16699 -23.499 9.5s-4.5 14.833 -0.5 25.5l520 1374c6 16.667 18.333 25 37 25h129c18.667 0 31 -8.33301 37 -25z
M434.998 469h533l-267 725z" />
    <glyph glyph-name="Aacute" unicode="&#xc1;" horiz-adv-x="1402" 
d="M657 1546c-11.333 0 -19.333 3.16699 -24 9.5s-4.66699 14.833 0 25.5l123 258c7.33301 16.667 19 25 35 25h98c11.333 0 19.5 -3.16699 24.5 -9.5s4.83301 -14.833 -0.5 -25.5l-122 -258c-7.33301 -16.667 -19 -25 -35 -25h-99zM1323 35
c4 -10 3.83105 -18.333 -0.501953 -25s-12.5 -10 -24.5 -10h-132c-17.333 -0 -28.666 8.33301 -33.999 25l-102 275h-657l-102 -275c-6 -16.667 -17.333 -25 -34 -25h-133c-11.333 0 -19.166 3.16699 -23.499 9.5s-4.5 14.833 -0.5 25.5l520 1374c6 16.667 18.333 25 37 25
h129c18.667 0 31 -8.33301 37 -25zM434.998 469h533l-267 725z" />
    <glyph glyph-name="Acircumflex" unicode="&#xc2;" horiz-adv-x="1402" 
d="M360 1586c-12.667 0 -20.667 3.83301 -24 11.5s-1 16.167 7 25.5l232 261c9.33301 10.667 21.666 16.334 36.999 17.001h179c16.667 0 28.667 -5.66699 36 -17l233 -261c8 -9.33301 10.5 -17.833 7.5 -25.5s-11.167 -11.5 -24.5 -11.5h-127
c-13.333 0 -25.333 5.66699 -36 17l-179 176l-177 -176c-11.333 -10.667 -23.666 -16.334 -36.999 -17.001h-127zM1323 35c4 -10 3.83105 -18.333 -0.501953 -25s-12.5 -10 -24.5 -10h-132c-17.333 -0 -28.666 8.33301 -33.999 25l-102 275h-657l-102 -275
c-6 -16.667 -17.333 -25 -34 -25h-133c-11.333 0 -19.166 3.16699 -23.499 9.5s-4.5 14.833 -0.5 25.5l520 1374c6 16.667 18.333 25 37 25h129c18.667 0 31 -8.33301 37 -25zM434.998 469h533l-267 725z" />
    <glyph glyph-name="Atilde" unicode="&#xc3;" horiz-adv-x="1402" 
d="M381 1709c-14.667 0 -21.002 8.33301 -19.002 25c6.66699 54.667 26.834 96.667 60.501 126s77.5 44 131.5 44c34 0 66 -7.33301 96 -22s54.333 -31.167 73 -49.5s39.834 -34.833 63.501 -49.5s47.167 -22 70.5 -22c44 0 74 21 90 63c4 11.333 11.667 17 23 17h53
c6 0 11 -1.83301 15 -5.5s5.66699 -8.5 5 -14.5c-6 -56 -26 -99 -60 -129s-77.333 -45 -130 -45c-28 0 -54.5 4.83301 -79.5 14.5s-46.333 21.5 -64 35.5l-51.5 41.5c-16.667 13.667 -34.167 25.5 -52.5 35.5s-36.833 15 -55.5 15c-46 0 -77 -21 -93 -63
c-4 -11.333 -11.667 -17 -23 -17h-53zM1323 35c4 -10 3.83105 -18.333 -0.501953 -25s-12.5 -10 -24.5 -10h-132c-17.333 -0 -28.666 8.33301 -33.999 25l-102 275h-657l-102 -275c-6 -16.667 -17.333 -25 -34 -25h-133c-11.333 0 -19.166 3.16699 -23.499 9.5
s-4.5 14.833 -0.5 25.5l520 1374c6 16.667 18.333 25 37 25h129c18.667 0 31 -8.33301 37 -25zM434.996 469h533l-267 725z" />
    <glyph glyph-name="Adieresis" unicode="&#xc4;" horiz-adv-x="1402" 
d="M506 1680c-28 0 -52.167 10.167 -72.5 30.5s-30.5 44.833 -30.5 73.5c0 27.333 10.167 50.833 30.5 70.5s44.5 29.5 72.5 29.5s52 -9.83301 72 -29.5s30 -43.167 30 -70.5c0 -28.667 -10 -53.167 -30 -73.5s-44 -30.5 -72 -30.5zM899 1680c-28 0 -52 10.167 -72 30.5
s-30 44.833 -30 73.5c0 27.333 10 50.833 30 70.5s44 29.5 72 29.5s52 -9.83301 72 -29.5s30 -43.167 30 -70.5c0 -28.667 -10 -53.167 -30 -73.5s-44 -30.5 -72 -30.5zM1323 35c4 -10 3.83105 -18.333 -0.501953 -25s-12.5 -10 -24.5 -10h-132
c-17.333 -0 -28.666 8.33301 -33.999 25l-102 275h-657l-102 -275c-6 -16.667 -17.333 -25 -34 -25h-133c-11.333 0 -19.166 3.16699 -23.499 9.5s-4.5 14.833 -0.5 25.5l520 1374c6 16.667 18.333 25 37 25h129c18.667 0 31 -8.33301 37 -25zM434.998 469h533l-267 725z
" />
    <glyph glyph-name="Aring" unicode="&#xc5;" horiz-adv-x="1402" 
d="M701 1555c-52.667 0 -97 18.333 -133 55s-54 80.334 -54 131.001s18.167 94.167 54.5 130.5s80.5 54.5 132.5 54.5s96.167 -18.167 132.5 -54.5s54.5 -79.833 54.5 -130.5s-18.167 -94.334 -54.5 -131.001s-80.5 -55 -132.5 -55zM701 1814
c-21.333 0 -39 -6.83301 -53 -20.5s-21 -31.167 -21 -52.5c0 -20.667 7.16699 -37.834 21.5 -51.501s31.833 -20.5 52.5 -20.5s38.167 6.83301 52.5 20.5s21.5 30.834 21.5 51.501s-7.16699 38 -21.5 52s-31.833 21 -52.5 21zM1323 35c4 -10 3.83105 -18.333 -0.501953 -25
s-12.5 -10 -24.5 -10h-132c-17.333 -0 -28.666 8.33301 -33.999 25l-102 275h-657l-102 -275c-6 -16.667 -17.333 -25 -34 -25h-133c-11.333 0 -19.166 3.16699 -23.499 9.5s-4.5 14.833 -0.5 25.5l520 1374c6 16.667 18.333 25 37 25h129c18.667 0 31 -8.33301 37 -25z
M434.998 469h533l-267 725z" />
    <glyph glyph-name="AE" unicode="&#xc6;" 
d="M1211 174c8.66699 0 15.998 -2.66895 21.998 -8.00195s9 -13 9 -23v-112c0 -9.33301 -2.83301 -16.833 -8.5 -22.5s-13.167 -8.5 -22.5 -8.5h-515c-9.33301 0 -16.666 2.66699 -21.999 8s-8 13 -8 23v184h-338l-71 -190c-6 -16.667 -17.667 -25 -35 -25h-124
c-11.333 0 -19.166 3.16699 -23.499 9.5s-4.5 14.833 -0.5 25.5l525 1374c6 16.667 18 25 36 25h574c8.66699 0 16 -2.83301 22 -8.5s9 -13.167 9 -22.5v-113c0 -9.33301 -2.83301 -16.666 -8.5 -21.999s-13.167 -8 -22.5 -8h-359v-418h315
c9.33301 0 16.833 -2.83301 22.5 -8.5s8.5 -13.167 8.5 -22.5v-113c0 -9.33301 -2.66699 -16.666 -8 -21.999s-13 -8 -23 -8h-315v-494h361zM388.998 381.998h277v745z" />
    <glyph glyph-name="Ccedilla" unicode="&#xc7;" horiz-adv-x="1475" 
d="M1266 299l82.001 -86.001c14.667 -14.667 14.334 -29 -0.999023 -43c-132 -126 -288 -191.667 -468 -197l-51 -50c47.333 -4 87.5 -20.333 120.5 -49s49.5 -66 49.5 -112c0 -54.667 -16.5 -98.834 -49.5 -132.501s-73.167 -55.167 -120.5 -64.5s-98 -9.33301 -152 0
c-12 2 -18.333 9.33301 -19 22v67c0 6.66699 2.16699 11.834 6.5 15.501s9.83301 5.16699 16.5 4.5c55.333 -8 99 -4.83301 131 9.5s48 36.833 48 67.5c0 28.667 -17.5 49.334 -52.5 62.001s-76.5 9.66699 -124.5 -9c-6.66699 -2.66699 -12.5 -2.83398 -17.5 -0.500977
s-7.5 7.5 -7.5 15.5v65c0 7.33301 3.66699 15.666 11 24.999l71 74c-115.333 19.333 -219 63 -311 131s-164.167 154.167 -216.5 258.5s-78.5 217.166 -78.5 338.499c0 136 32 260.333 96 373s151.333 201.834 262 267.501s233 98.5 367 98.5c184 0 347 -65.333 489 -196
c15.333 -14.667 15.666 -29 0.999023 -43l-82 -87c-12.667 -12.667 -27 -12.667 -43 0c-109.333 92.667 -231 139.334 -365 140.001c-96.667 0 -185.5 -24 -266.5 -72s-145 -114.333 -192 -199s-70.5 -178.667 -70.5 -282c0 -102.667 23.5 -196.167 70.5 -280.5
s111 -150.333 192 -198s169.833 -71.5 266.5 -71.5c135.333 0 257 46.333 365 139c15.333 12.667 29.666 12.334 42.999 -0.999023z" />
    <glyph glyph-name="Egrave" unicode="&#xc8;" horiz-adv-x="1249" 
d="M449 1864h98c16 0 27.667 -8.33301 35 -25l123 -258c4.66699 -10.667 4.5 -19.167 -0.5 -25.5s-13.167 -9.5 -24.5 -9.5h-98c-16 0 -27.667 8.33301 -35 25l-123 258c-4.66699 10.667 -4.5 19.167 0.5 25.5s13.167 9.5 24.5 9.5zM1080 174
c8.66699 0 16 -2.66797 22 -8.00098s9 -13 9 -23v-112c0 -9.33301 -2.83301 -16.833 -8.5 -22.5s-13.167 -8.5 -22.5 -8.5h-875c-9.33301 0 -16.833 2.66699 -22.5 8s-8.5 13 -8.5 23v1372c0 9.33301 2.66699 16.833 8 22.5s13 8.5 23 8.5h873
c8.66699 0 16 -2.83301 22 -8.5s9 -13.167 9 -22.5v-113c0 -9.33301 -2.83301 -16.666 -8.5 -21.999s-13.167 -8 -22.5 -8h-712v-425h658c9.33301 0 16.833 -3 22.5 -9s8.5 -13.333 8.5 -22v-113c0 -8.66699 -2.83301 -16 -8.5 -22s-13.167 -9 -22.5 -9h-658v-486h714z" />
    <glyph glyph-name="Eacute" unicode="&#xc9;" horiz-adv-x="1249" 
d="M825 1864c11.333 0 19.5 -3.16699 24.5 -9.5s5.16699 -14.833 0.5 -25.5l-123 -258c-7.33301 -16.667 -19 -25 -35 -25h-98c-11.333 0 -19.5 3.16699 -24.5 9.5s-5.16699 14.833 -0.5 25.5l123 258c7.33301 16.667 19 25 35 25h98zM1080 174
c8.66699 0 16 -2.66797 22 -8.00098s9 -13 9 -23v-112c0 -9.33301 -2.83301 -16.833 -8.5 -22.5s-13.167 -8.5 -22.5 -8.5h-875c-9.33301 0 -16.833 2.66699 -22.5 8s-8.5 13 -8.5 23v1372c0 9.33301 2.66699 16.833 8 22.5s13 8.5 23 8.5h873
c8.66699 0 16 -2.83301 22 -8.5s9 -13.167 9 -22.5v-113c0 -9.33301 -2.83301 -16.666 -8.5 -21.999s-13.167 -8 -22.5 -8h-712v-425h658c9.33301 0 16.833 -3 22.5 -9s8.5 -13.333 8.5 -22v-113c0 -8.66699 -2.83301 -16 -8.5 -22s-13.167 -9 -22.5 -9h-658v-486h714z" />
    <glyph glyph-name="Ecircumflex" unicode="&#xca;" horiz-adv-x="1249" 
d="M727 1901c16.667 0 29 -5.66699 37 -17l232 -261c8 -9.33301 10.5 -17.833 7.5 -25.5s-10.833 -11.5 -23.5 -11.5h-127c-13.333 0 -25.666 5.66699 -36.999 17l-178 176l-177 -176c-11.333 -10.667 -23.666 -16.334 -36.999 -17.001h-127
c-12.667 0 -20.834 3.83301 -24.501 11.5s-1.16699 16.167 7.5 25.5l232 261c9.33301 10.667 21.666 16.334 36.999 17.001h178zM1080 174c8.66699 0 16 -2.66797 22 -8.00098s9 -13 9 -23v-112c0 -9.33301 -2.83301 -16.833 -8.5 -22.5s-13.167 -8.5 -22.5 -8.5h-875
c-9.33301 0 -16.833 2.66699 -22.5 8s-8.5 13 -8.5 23v1372c0 9.33301 2.66699 16.833 8 22.5s13 8.5 23 8.5h873c8.66699 0 16 -2.83301 22 -8.5s9 -13.167 9 -22.5v-113c0 -9.33301 -2.83301 -16.666 -8.5 -21.999s-13.167 -8 -22.5 -8h-712v-425h658
c9.33301 0 16.833 -3 22.5 -9s8.5 -13.333 8.5 -22v-113c0 -8.66699 -2.83301 -16 -8.5 -22s-13.167 -9 -22.5 -9h-658v-486h714z" />
    <glyph glyph-name="Edieresis" unicode="&#xcb;" horiz-adv-x="1249" 
d="M442 1680c-28 0 -52 10.167 -72 30.5s-30 44.833 -30 73.5c0 27.333 10 50.833 30 70.5s44 29.5 72 29.5s52.167 -9.83301 72.5 -29.5s30.5 -43.167 30.5 -70.5c0 -28.667 -10.167 -53.167 -30.5 -73.5s-44.5 -30.5 -72.5 -30.5zM836 1680
c-28 0 -52.167 10.167 -72.5 30.5s-30.5 44.833 -30.5 73.5c0 27.333 10.167 50.833 30.5 70.5s44.5 29.5 72.5 29.5s52 -9.83301 72 -29.5s30 -43.167 30 -70.5c0 -28.667 -10 -53.167 -30 -73.5s-44 -30.5 -72 -30.5zM1080 174c8.66699 0 16 -2.66797 22 -8.00098
s9 -13 9 -23v-112c0 -9.33301 -2.83301 -16.833 -8.5 -22.5s-13.167 -8.5 -22.5 -8.5h-875c-9.33301 0 -16.833 2.66699 -22.5 8s-8.5 13 -8.5 23v1372c0 9.33301 2.66699 16.833 8 22.5s13 8.5 23 8.5h873c8.66699 0 16 -2.83301 22 -8.5s9 -13.167 9 -22.5v-113
c0 -9.33301 -2.83301 -16.666 -8.5 -21.999s-13.167 -8 -22.5 -8h-712v-425h658c9.33301 0 16.833 -3 22.5 -9s8.5 -13.333 8.5 -22v-113c0 -8.66699 -2.83301 -16 -8.5 -22s-13.167 -9 -22.5 -9h-658v-486h714z" />
    <glyph glyph-name="Igrave" unicode="&#xcc;" horiz-adv-x="1315" 
d="M469 1864h98c16 0 27.667 -8.33301 35 -25l123 -258c4.66699 -10.667 4.66699 -19.167 0 -25.5s-13 -9.5 -25 -9.5h-98c-16 0 -27.667 8.33301 -35 25l-123 258c-4.66699 10.667 -4.5 19.167 0.5 25.5s13.167 9.5 24.5 9.5zM1137 1260h-383v-1086h383
c9.33301 0 16.666 -2.66699 21.999 -8s8 -13 8 -23v-112c0 -9.33301 -2.66699 -16.833 -8 -22.5s-12.666 -8.5 -21.999 -8.5h-958c-8.66699 0 -16 2.66699 -22 8s-9 13 -9 23v112c0 9.33301 3 16.833 9 22.5s13.333 8.5 22 8.5h383v1086h-383c-8.66699 0 -16 2.66699 -22 8
s-9 12.666 -9 21.999v113c0 9.33301 3 16.833 9 22.5s13.333 8.5 22 8.5h958c9.33301 0 16.666 -2.83301 21.999 -8.5s8 -13.167 8 -22.5v-113c0 -9.33301 -2.66699 -16.666 -8 -21.999s-12.666 -8 -21.999 -8z" />
    <glyph glyph-name="Iacute" unicode="&#xcd;" horiz-adv-x="1315" 
d="M846 1864c11.333 0 19.5 -3.16699 24.5 -9.5s4.83301 -14.833 -0.5 -25.5l-122 -258c-7.33301 -16.667 -19 -25 -35 -25h-99c-11.333 0 -19.333 3.16699 -24 9.5s-4.66699 14.833 0 25.5l123 258c7.33301 16.667 19 25 35 25h98zM1137 1260h-383v-1086h383
c9.33301 0 16.666 -2.66699 21.999 -8s8 -13 8 -23v-112c0 -9.33301 -2.66699 -16.833 -8 -22.5s-12.666 -8.5 -21.999 -8.5h-958c-8.66699 0 -16 2.66699 -22 8s-9 13 -9 23v112c0 9.33301 3 16.833 9 22.5s13.333 8.5 22 8.5h383v1086h-383c-8.66699 0 -16 2.66699 -22 8
s-9 12.666 -9 21.999v113c0 9.33301 3 16.833 9 22.5s13.333 8.5 22 8.5h958c9.33301 0 16.666 -2.83301 21.999 -8.5s8 -13.167 8 -22.5v-113c0 -9.33301 -2.66699 -16.666 -8 -21.999s-12.666 -8 -21.999 -8z" />
    <glyph glyph-name="Icircumflex" unicode="&#xce;" horiz-adv-x="1315" 
d="M748 1901c16.667 0 28.667 -5.66699 36 -17l233 -261c8 -9.33301 10.5 -17.833 7.5 -25.5s-11.167 -11.5 -24.5 -11.5h-127c-13.333 0 -25.333 5.66699 -36 17l-179 176l-177 -176c-11.333 -10.667 -23.666 -16.334 -36.999 -17.001h-127
c-12.667 0 -20.667 3.83301 -24 11.5s-1 16.167 7 25.5l232 261c9.33301 10.667 21.666 16.334 36.999 17.001h179zM1137 1260h-383v-1086h383c9.33301 0 16.666 -2.66699 21.999 -8s8 -13 8 -23v-112c0 -9.33301 -2.66699 -16.833 -8 -22.5s-12.666 -8.5 -21.999 -8.5h-958
c-8.66699 0 -16 2.66699 -22 8s-9 13 -9 23v112c0 9.33301 3 16.833 9 22.5s13.333 8.5 22 8.5h383v1086h-383c-8.66699 0 -16 2.66699 -22 8s-9 12.666 -9 21.999v113c0 9.33301 3 16.833 9 22.5s13.333 8.5 22 8.5h958c9.33301 0 16.666 -2.83301 21.999 -8.5
s8 -13.167 8 -22.5v-113c0 -9.33301 -2.66699 -16.666 -8 -21.999s-12.666 -8 -21.999 -8z" />
    <glyph glyph-name="Idieresis" unicode="&#xcf;" horiz-adv-x="1315" 
d="M463 1680c-28 0 -52.167 10.167 -72.5 30.5s-30.5 44.833 -30.5 73.5c0 27.333 10.167 50.833 30.5 70.5s44.5 29.5 72.5 29.5s52 -9.83301 72 -29.5s30 -43.167 30 -70.5c0 -28.667 -10 -53.167 -30 -73.5s-44 -30.5 -72 -30.5zM856 1680c-28 0 -52 10.167 -72 30.5
s-30 44.833 -30 73.5c0 27.333 10 50.833 30 70.5s44 29.5 72 29.5s52 -9.83301 72 -29.5s30 -43.167 30 -70.5c0 -28.667 -10 -53.167 -30 -73.5s-44 -30.5 -72 -30.5zM1137 1260h-383v-1086h383c9.33301 0 16.666 -2.66699 21.999 -8s8 -13 8 -23v-112
c0 -9.33301 -2.66699 -16.833 -8 -22.5s-12.666 -8.5 -21.999 -8.5h-958c-8.66699 0 -16 2.66699 -22 8s-9 13 -9 23v112c0 9.33301 3 16.833 9 22.5s13.333 8.5 22 8.5h383v1086h-383c-8.66699 0 -16 2.66699 -22 8s-9 12.666 -9 21.999v113c0 9.33301 3 16.833 9 22.5
s13.333 8.5 22 8.5h958c9.33301 0 16.666 -2.83301 21.999 -8.5s8 -13.167 8 -22.5v-113c0 -9.33301 -2.66699 -16.666 -8 -21.999s-12.666 -8 -21.999 -8z" />
    <glyph glyph-name="Eth" unicode="&#xd0;" 
d="M528 1434c121.333 0 230 -18.332 326 -54.999s174.833 -87.5 236.5 -152.5s108.5 -140.667 140.5 -227s48 -180.5 48 -282.5s-16 -196.167 -48 -282.5s-78.833 -162 -140.5 -227s-140.5 -115.833 -236.5 -152.5s-204.667 -55 -326 -55h-343
c-8.66699 0 -15.834 2.66699 -21.501 8s-8.5 13 -8.5 23v609h-28c-9.33301 0 -16.833 2.83301 -22.5 8.5s-8.5 13.167 -8.5 22.5v87c0 9.33301 2.83301 16.666 8.5 21.999s13.167 8 22.5 8h28v615c0 9.33301 2.83301 16.833 8.5 22.5s12.834 8.5 21.501 8.5h343z
M528 174.001c182.667 0 321 47.499 415 142.499s141 228.5 141 400.5s-46.833 305.5 -140.5 400.5s-232.167 142.5 -415.5 142.5h-182v-472h303c9.33301 0 16.833 -2.66699 22.5 -8s8.5 -12.666 8.5 -21.999v-87c0 -8.66699 -2.66699 -16 -8 -22s-13 -9 -23 -9h-303v-466
h182z" />
    <glyph glyph-name="Ntilde" unicode="&#xd1;" horiz-adv-x="1429" 
d="M394 1709c-14.667 0 -20.665 8.33301 -17.998 25c6.66699 54.667 26.667 96.667 60 126s77 44 131 44c34 0 66.167 -7.33301 96.5 -22s54.666 -31.167 72.999 -49.5s39.5 -34.833 63.5 -49.5s47.333 -22 70 -22c44 0 74.333 21 91 63c4 11.333 11.333 17 22 17h53
c6 0 11.167 -1.83301 15.5 -5.5s6.16602 -8.5 5.49902 -14.5c-6 -56 -26.167 -99 -60.5 -129s-77.833 -45 -130.5 -45c-28 0 -54.333 4.83301 -79 14.5s-46 21.5 -64 35.5l-52 41.5c-16.667 13.667 -34.167 25.5 -52.5 35.5s-36.833 15 -55.5 15c-46 0 -77 -21 -93 -63
c-4 -11.333 -11.667 -17 -23 -17h-53zM1225 1434c9.33301 0 16.666 -2.83301 21.999 -8.5s8 -13.167 8 -22.5v-1372c0 -18.667 -8.33301 -29 -25 -31h-168c-17.333 0 -29.666 6.66699 -36.999 20l-659 1131v-1120c0 -9.33301 -3 -16.833 -9 -22.5s-13.333 -8.5 -22 -8.5
h-130c-9.33301 0 -16.833 2.66699 -22.5 8s-8.5 13 -8.5 23v1372c0 18.667 9 29 27 31h167c17.333 0 29.333 -7 36 -21l660 -1129v1119c0 9.33301 2.83301 16.833 8.5 22.5s13.167 8.5 22.5 8.5h130z" />
    <glyph glyph-name="Ograve" unicode="&#xd2;" horiz-adv-x="1733" 
d="M677 1864h98c16 0 27.667 -8.33301 35 -25l123 -258c4.66699 -10.667 4.66699 -19.167 0 -25.5s-13 -9.5 -25 -9.5h-98c-16 0 -27.667 8.33301 -35 25l-123 258c-4.66699 10.667 -4.5 19.167 0.5 25.5s13.167 9.5 24.5 9.5zM867 -27
c-133.333 0 -256.163 32.8301 -368.496 98.4971s-201.333 155 -267 268s-98.5 236.833 -98.5 371.5c0 101.333 19.5 197.666 58.5 288.999s91.167 169.833 156.5 235.5s143.333 117.834 234 156.501s185.667 58 285 58c80 0 157.167 -12.333 231.5 -37
s141.666 -59.667 201.999 -105s113.166 -98.166 158.499 -158.499s80.333 -128.166 105 -203.499s37 -153.666 37 -234.999c0 -134.667 -32.833 -258.5 -98.5 -371.5s-154.834 -202.333 -267.501 -268s-235.334 -98.5 -368.001 -98.5zM867.003 154.997
c100 0 191.833 24.501 275.5 73.501s149.5 116.167 197.5 201.5s72 179 72 281c0 102.667 -24 196.667 -72 282s-113.833 152.666 -197.5 201.999s-175.5 74 -275.5 74c-75.333 0 -146.5 -14.5 -213.5 -43.5s-124.833 -68.333 -173.5 -118s-87.167 -109.167 -115.5 -178.5
s-42.5 -142 -42.5 -218c0 -154.667 52.833 -286 158.5 -394s234.5 -162 386.5 -162z" />
    <glyph glyph-name="Oacute" unicode="&#xd3;" horiz-adv-x="1733" 
d="M1054 1864c11.333 0 19.333 -3.16699 24 -9.5s4.66699 -14.833 0 -25.5l-123 -258c-7.33301 -16.667 -18.666 -25 -33.999 -25h-99c-11.333 0 -19.333 3.16699 -24 9.5s-4.66699 14.833 0 25.5l123 258c7.33301 16.667 18.666 25 33.999 25h99zM867 -27
c-133.333 0 -256.163 32.8301 -368.496 98.4971s-201.333 155 -267 268s-98.5 236.833 -98.5 371.5c0 101.333 19.5 197.666 58.5 288.999s91.167 169.833 156.5 235.5s143.333 117.834 234 156.501s185.667 58 285 58c80 0 157.167 -12.333 231.5 -37
s141.666 -59.667 201.999 -105s113.166 -98.166 158.499 -158.499s80.333 -128.166 105 -203.499s37 -153.666 37 -234.999c0 -134.667 -32.833 -258.5 -98.5 -371.5s-154.834 -202.333 -267.501 -268s-235.334 -98.5 -368.001 -98.5zM867.003 154.997
c100 0 191.833 24.501 275.5 73.501s149.5 116.167 197.5 201.5s72 179 72 281c0 102.667 -24 196.667 -72 282s-113.833 152.666 -197.5 201.999s-175.5 74 -275.5 74c-75.333 0 -146.5 -14.5 -213.5 -43.5s-124.833 -68.333 -173.5 -118s-87.167 -109.167 -115.5 -178.5
s-42.5 -142 -42.5 -218c0 -154.667 52.833 -286 158.5 -394s234.5 -162 386.5 -162z" />
    <glyph glyph-name="Ocircumflex" unicode="&#xd4;" horiz-adv-x="1733" 
d="M955 1901c16.667 0 28.999 -5.66699 36.999 -17l233 -261c8 -9.33301 10.5 -17.833 7.5 -25.5s-11.167 -11.5 -24.5 -11.5h-127c-13.333 0 -25.666 5.66699 -36.999 17l-178 176l-177 -176c-11.333 -10.667 -23.666 -16.334 -36.999 -17.001h-127
c-12.667 0 -20.667 3.83301 -24 11.5s-1 16.167 7 25.5l232 261c9.33301 10.667 21.666 16.334 36.999 17.001h178zM866.999 -27c-133.333 0 -256.163 32.8301 -368.496 98.4971s-201.333 155 -267 268s-98.5 236.833 -98.5 371.5c0 101.333 19.5 197.666 58.5 288.999
s91.167 169.833 156.5 235.5s143.333 117.834 234 156.501s185.667 58 285 58c80 0 157.167 -12.333 231.5 -37s141.666 -59.667 201.999 -105s113.166 -98.166 158.499 -158.499s80.333 -128.166 105 -203.499s37 -153.666 37 -234.999
c0 -134.667 -32.833 -258.5 -98.5 -371.5s-154.834 -202.333 -267.501 -268s-235.334 -98.5 -368.001 -98.5zM867.002 154.997c100 0 191.833 24.501 275.5 73.501s149.5 116.167 197.5 201.5s72 179 72 281c0 102.667 -24 196.667 -72 282s-113.833 152.666 -197.5 201.999
s-175.5 74 -275.5 74c-75.333 0 -146.5 -14.5 -213.5 -43.5s-124.833 -68.333 -173.5 -118s-87.167 -109.167 -115.5 -178.5s-42.5 -142 -42.5 -218c0 -154.667 52.833 -286 158.5 -394s234.5 -162 386.5 -162z" />
    <glyph glyph-name="Otilde" unicode="&#xd5;" horiz-adv-x="1733" 
d="M719 1904c34 0 66 -7.33301 96 -22s54.167 -31.167 72.5 -49.5s39.5 -34.833 63.5 -49.5s47.667 -22 71 -22c44 0 74 21 90 63c4 11.333 11.667 17 23 17h53c6 0 11 -1.83301 15 -5.5s5.66699 -8.5 5 -14.5c-6 -56 -26 -99 -60 -129s-77.333 -45 -130 -45
c-28 0 -54.5 4.83301 -79.5 14.5s-46.333 21.5 -64 35.5l-51.5 41.5c-16.667 13.667 -34.334 25.5 -53.001 35.5s-37 15 -55 15c-46 0 -77 -21 -93 -63c-4 -11.333 -11.667 -17 -23 -17h-53c-14.667 0 -21 8.33301 -19 25c6.66699 54.667 26.834 96.667 60.501 126
s77.5 44 131.5 44zM867 -27c-133.333 0 -256.163 32.8301 -368.496 98.4971s-201.333 155 -267 268s-98.5 236.833 -98.5 371.5c0 101.333 19.5 197.666 58.5 288.999s91.167 169.833 156.5 235.5s143.333 117.834 234 156.501s185.667 58 285 58
c80 0 157.167 -12.333 231.5 -37s141.666 -59.667 201.999 -105s113.166 -98.166 158.499 -158.499s80.333 -128.166 105 -203.499s37 -153.666 37 -234.999c0 -134.667 -32.833 -258.5 -98.5 -371.5s-154.834 -202.333 -267.501 -268s-235.334 -98.5 -368.001 -98.5z
M867.003 154.997c100 0 191.833 24.501 275.5 73.501s149.5 116.167 197.5 201.5s72 179 72 281c0 102.667 -24 196.667 -72 282s-113.833 152.666 -197.5 201.999s-175.5 74 -275.5 74c-75.333 0 -146.5 -14.5 -213.5 -43.5s-124.833 -68.333 -173.5 -118
s-87.167 -109.167 -115.5 -178.5s-42.5 -142 -42.5 -218c0 -154.667 52.833 -286 158.5 -394s234.5 -162 386.5 -162z" />
    <glyph glyph-name="Odieresis" unicode="&#xd6;" horiz-adv-x="1733" 
d="M671 1680c-28 0 -52.167 10.167 -72.5 30.5s-30.5 44.833 -30.5 73.5c0 27.333 10.167 50.833 30.5 70.5s44.5 29.5 72.5 29.5s52 -9.83301 72 -29.5s30 -43.167 30 -70.5c0 -28.667 -10 -53.167 -30 -73.5s-44 -30.5 -72 -30.5zM1064 1680c-28 0 -52 10.167 -72 30.5
s-30 44.833 -30 73.5c0 27.333 10 50.833 30 70.5s44 29.5 72 29.5s52 -9.83301 72 -29.5s30 -43.167 30 -70.5c0 -28.667 -10 -53.167 -30 -73.5s-44 -30.5 -72 -30.5zM867 -27c-133.333 0 -256.163 32.8301 -368.496 98.4971s-201.333 155 -267 268
s-98.5 236.833 -98.5 371.5c0 101.333 19.5 197.666 58.5 288.999s91.167 169.833 156.5 235.5s143.333 117.834 234 156.501s185.667 58 285 58c80 0 157.167 -12.333 231.5 -37s141.666 -59.667 201.999 -105s113.166 -98.166 158.499 -158.499
s80.333 -128.166 105 -203.499s37 -153.666 37 -234.999c0 -134.667 -32.833 -258.5 -98.5 -371.5s-154.834 -202.333 -267.501 -268s-235.334 -98.5 -368.001 -98.5zM867.003 154.997c100 0 191.833 24.501 275.5 73.501s149.5 116.167 197.5 201.5s72 179 72 281
c0 102.667 -24 196.667 -72 282s-113.833 152.666 -197.5 201.999s-175.5 74 -275.5 74c-75.333 0 -146.5 -14.5 -213.5 -43.5s-124.833 -68.333 -173.5 -118s-87.167 -109.167 -115.5 -178.5s-42.5 -142 -42.5 -218c0 -154.667 52.833 -286 158.5 -394
s234.5 -162 386.5 -162z" />
    <glyph glyph-name="multiply" unicode="&#xd7;" 
d="M922 427c15.333 -13.333 15.3311 -27.665 -0.00195312 -42.998l-62 -62c-15.333 -15.333 -30 -15.333 -44 0l-216 216l-217 -217c-15.333 -13.333 -30 -13.333 -44 0l-61 62c-14.667 15.333 -14.667 30 0 44l217 217l-217 217c-15.333 15.333 -15.333 29.666 0 42.999
l61 63c14.667 15.333 29.334 15.333 44.001 0l217 -217l216 216c14.667 14.667 29.334 14.667 44.001 0l62 -62c15.333 -14.667 15.333 -29.334 0 -44.001l-216 -216z" />
    <glyph glyph-name="Oslash" unicode="&#xd8;" horiz-adv-x="1733" 
d="M1245 1345c108.667 -65.333 195.172 -154.169 259.505 -266.502s96.5 -234.833 96.5 -367.5c0 -134.667 -32.833 -258.5 -98.5 -371.5s-154.834 -202.333 -267.501 -268s-235.334 -98.5 -368.001 -98.5c-79.333 0 -155.333 12 -228 36l-41 -89
c-5.33301 -15.333 -17 -22.666 -35 -21.999h-118c-11.333 0 -19 3.33301 -23 10s-3.66699 15.334 1 26.001l65 145c-108.667 64.667 -195 153 -259 265s-96 234.333 -96 367c0 101.333 19.5 197.666 58.5 288.999s91.167 169.833 156.5 235.5s143.333 117.834 234 156.501
s185.667 58 285 58c78.667 0 154.667 -12 228 -36l40 89c5.33301 15.333 16.666 23 33.999 23h119c11.333 0 19.166 -3.5 23.499 -10.5s4.16602 -15.833 -0.500977 -26.5zM322.005 710.997c0 -96 21.668 -184.832 65.001 -266.499s102.333 -147.834 177 -198.501l455 1001
c-48.667 14.667 -99.334 22 -152.001 22c-75.333 0 -146.5 -14.5 -213.5 -43.5s-124.833 -68.333 -173.5 -118s-87.167 -109 -115.5 -178s-42.5 -141.833 -42.5 -218.5zM867.006 154.998c100 0 191.834 24.5 275.501 73.5s149.5 116.167 197.5 201.5s72 179 72 281
c0 96.667 -21.833 186 -65.5 268s-102.834 148.333 -177.501 199l-454 -1002c47.333 -14 98 -21 152 -21z" />
    <glyph glyph-name="Ugrave" unicode="&#xd9;" horiz-adv-x="1436" 
d="M528 1864h99c16 0 27.667 -8.33301 35 -25l122 -258c4.66699 -10.667 4.66699 -19.167 0 -25.5s-12.667 -9.5 -24 -9.5h-98c-16 0 -27.667 8.33301 -35 25l-123 258c-4.66699 10.667 -4.66699 19.167 0 25.5s12.667 9.5 24 9.5zM1268 1434
c9.33301 0 16.667 -2.83301 22 -8.5s8 -13.167 8 -22.5v-823c0 -200 -50.833 -351.667 -152.5 -455s-244.167 -155 -427.5 -155c-182.667 0 -325 51.667 -427 155s-153 255 -153 455v823c0 9.33301 3 16.833 9 22.5s13.333 8.5 22 8.5h130
c9.33301 0 16.833 -2.83301 22.5 -8.5s8.5 -13.167 8.5 -22.5v-823c0 -141.333 34.5 -248 103.5 -320s163.833 -108 284.5 -108c121.333 0 216.5 36 285.5 108s103.5 178.667 103.5 320v823c0 9.33301 2.83301 16.833 8.5 22.5s13.167 8.5 22.5 8.5h130z" />
    <glyph glyph-name="Uacute" unicode="&#xda;" horiz-adv-x="1436" 
d="M905 1864c11.333 0 19.5 -3.16699 24.5 -9.5s5.16699 -14.833 0.5 -25.5l-123 -258c-7.33301 -16.667 -19 -25 -35 -25h-98c-11.333 0 -19.5 3.16699 -24.5 9.5s-5.16699 14.833 -0.5 25.5l123 258c7.33301 16.667 19 25 35 25h98zM1268 1434
c9.33301 0 16.667 -2.83301 22 -8.5s8 -13.167 8 -22.5v-823c0 -200 -50.833 -351.667 -152.5 -455s-244.167 -155 -427.5 -155c-182.667 0 -325 51.667 -427 155s-153 255 -153 455v823c0 9.33301 3 16.833 9 22.5s13.333 8.5 22 8.5h130
c9.33301 0 16.833 -2.83301 22.5 -8.5s8.5 -13.167 8.5 -22.5v-823c0 -141.333 34.5 -248 103.5 -320s163.833 -108 284.5 -108c121.333 0 216.5 36 285.5 108s103.5 178.667 103.5 320v823c0 9.33301 2.83301 16.833 8.5 22.5s13.167 8.5 22.5 8.5h130z" />
    <glyph glyph-name="Ucircumflex" unicode="&#xdb;" horiz-adv-x="1436" 
d="M807 1901c16.667 0 29 -5.66699 37 -17l232 -261c8 -9.33301 10.5 -17.833 7.5 -25.5s-10.833 -11.5 -23.5 -11.5h-127c-13.333 0 -25.666 5.66699 -36.999 17l-178 176l-177 -176c-11.333 -10.667 -23.666 -16.334 -36.999 -17.001h-127
c-12.667 0 -20.834 3.83301 -24.501 11.5s-1.5 16.167 6.5 25.5l233 261c9.33301 10.667 21.666 16.334 36.999 17.001h178zM1268 1434c9.33301 0 16.667 -2.83301 22 -8.5s8 -13.167 8 -22.5v-823c0 -200 -50.833 -351.667 -152.5 -455s-244.167 -155 -427.5 -155
c-182.667 0 -325 51.667 -427 155s-153 255 -153 455v823c0 9.33301 3 16.833 9 22.5s13.333 8.5 22 8.5h130c9.33301 0 16.833 -2.83301 22.5 -8.5s8.5 -13.167 8.5 -22.5v-823c0 -141.333 34.5 -248 103.5 -320s163.833 -108 284.5 -108c121.333 0 216.5 36 285.5 108
s103.5 178.667 103.5 320v823c0 9.33301 2.83301 16.833 8.5 22.5s13.167 8.5 22.5 8.5h130z" />
    <glyph glyph-name="Udieresis" unicode="&#xdc;" horiz-adv-x="1436" 
d="M522 1680c-28 0 -52 10.167 -72 30.5s-30 44.833 -30 73.5c0 27.333 10 50.833 30 70.5s44 29.5 72 29.5s52.167 -9.83301 72.5 -29.5s30.5 -43.167 30.5 -70.5c0 -28.667 -10.167 -53.167 -30.5 -73.5s-44.5 -30.5 -72.5 -30.5zM915 1680c-28 0 -52 10.167 -72 30.5
s-30 44.833 -30 73.5c0 27.333 10 50.833 30 70.5s44 29.5 72 29.5s52.167 -9.83301 72.5 -29.5s30.5 -43.167 30.5 -70.5c0 -28.667 -10.167 -53.167 -30.5 -73.5s-44.5 -30.5 -72.5 -30.5zM1268 1434c9.33301 0 16.667 -2.83301 22 -8.5s8 -13.167 8 -22.5v-823
c0 -200 -50.833 -351.667 -152.5 -455s-244.167 -155 -427.5 -155c-182.667 0 -325 51.667 -427 155s-153 255 -153 455v823c0 9.33301 3 16.833 9 22.5s13.333 8.5 22 8.5h130c9.33301 0 16.833 -2.83301 22.5 -8.5s8.5 -13.167 8.5 -22.5v-823
c0 -141.333 34.5 -248 103.5 -320s163.833 -108 284.5 -108c121.333 0 216.5 36 285.5 108s103.5 178.667 103.5 320v823c0 9.33301 2.83301 16.833 8.5 22.5s13.167 8.5 22.5 8.5h130z" />
    <glyph glyph-name="Yacute" unicode="&#xdd;" horiz-adv-x="1413" 
d="M663 1546c-11.333 0 -19.5 3.16699 -24.5 9.5s-5.16699 14.833 -0.5 25.5l123 258c7.33301 16.667 19 25 35 25h98c11.333 0 19.5 -3.16699 24.5 -9.5s5.16699 -14.833 0.5 -25.5l-123 -258c-7.33301 -16.667 -19 -25 -35 -25h-98zM1320 1434
c12 0 20.167 -3.5 24.5 -10.5s2.83301 -15.833 -4.5 -26.5l-537 -841v-525c0 -9.33301 -2.83301 -16.833 -8.5 -22.5s-13.167 -8.5 -22.5 -8.5h-130c-8.66699 0 -16 2.66699 -22 8s-9 13 -9 23v525l-538 841c-6.66699 10.667 -8 19.5 -4 26.5s12 10.5 24 10.5h151
c16 0 28.333 -7 37 -21l426 -667l426 667c8.66699 13.333 20.667 20.333 36 21h151z" />
    <glyph glyph-name="Thorn" unicode="&#xde;" 
d="M656 1167c155.333 0 275.167 -40.668 359.5 -122.001s126.5 -190.666 126.5 -327.999c0 -136.667 -42 -246 -126 -328s-204 -123 -360 -123h-296v-235c0 -9.33301 -2.66699 -16.833 -8 -22.5s-12.666 -8.5 -21.999 -8.5h-130c-8.66699 0 -16 2.66699 -22 8s-9 13 -9 23
v1372c0 9.33301 2.83301 16.833 8.5 22.5s13.167 8.5 22.5 8.5h130c9.33301 0 16.666 -2.83301 21.999 -8.5s8 -13.167 8 -22.5v-236h296zM641.001 439.999c210 0 315 92.167 315 276.5s-105 276.5 -315 276.5h-281v-553h281z" />
    <glyph glyph-name="germandbls" unicode="&#xdf;" horiz-adv-x="1254" 
d="M825 769c103.333 -19.333 183.666 -59.3301 240.999 -119.997s86 -140.334 86 -239.001c0 -150 -46 -255.833 -138 -317.5s-240 -92.5 -444 -92.5h-116c-8.66699 0 -16 2.66699 -22 8s-9 13 -9 23v91c0 8.66699 2.83301 16 8.5 22s13.167 9 22.5 9h116
c57.333 0 106.333 2.16699 147 6.5s78.334 12.166 113.001 23.499s62 26.666 82 45.999s35.5 44.333 46.5 75s16.5 67.667 16.5 111c0 90.667 -34.667 156.834 -104 198.501s-171.333 62.5 -306 62.5h-111c-8.66699 0 -16 2.66699 -22 8s-9 13 -9 23v90
c0 9.33301 2.83301 16.666 8.5 21.999s13.167 8 22.5 8h111c110 0 192.167 19.5 246.5 58.5s81.5 99.5 81.5 181.5c0 67.333 -23.333 118.333 -70 153s-120.667 52 -222 52c-104 0 -176.333 -19.333 -217 -58s-61 -96 -61 -172v-1011c0 -9.33301 -3 -16.833 -9 -22.5
s-13.333 -8.5 -22 -8.5h-123c-8.66699 0 -16 2.66699 -22 8s-9 13 -9 23v1011c0 125.333 38.333 222 115 290s192.667 102 348 102c152 0 268.167 -31.333 348.5 -94s120.5 -151 120.5 -265c0 -163.333 -81.667 -265.333 -245 -306z" />
    <glyph glyph-name="agrave" unicode="&#xe0;" horiz-adv-x="1266" 
d="M538 1141l-123.001 258c-4.66699 10.667 -4.66699 19.167 0 25.5s12.667 9.5 24 9.5h99c16 0 27.333 -8.33301 34 -25l123 -258c4.66699 -10.667 4.66699 -19.167 0 -25.5s-12.667 -9.5 -24 -9.5h-99c-15.333 0 -26.666 8.33301 -33.999 25zM1128 153
c12.667 -2 21.8359 -5.83398 27.5029 -11.501s8.5 -14.167 8.5 -25.5v-88c0 -23.333 -17.667 -35.333 -53 -36c-136.667 -4.66699 -205 50.333 -205 165h-4c-56.667 -60 -125.5 -105.333 -206.5 -136s-159.5 -46 -235.5 -46c-111.333 0 -195.333 25.5 -252 76.5
s-85 120.5 -85 208.5c0 86 27.167 153.833 81.5 203.5s137.5 82.834 249.5 99.501l283 43c44 6 76.167 12.5 96.5 19.5s32.833 15.833 37.5 26.5c-0.666992 76.667 -21.334 131.667 -62.001 165s-101.334 50 -182.001 50c-164 0 -253.667 -51.667 -269 -155
c-2 -16 -11.667 -24 -29 -24h-119c-21.333 0 -31 10.333 -29 31c21.333 204.667 170.333 307 447 307c143.333 0 249.666 -32 318.999 -96s104 -156 104 -276v-418c-0.666992 -47.333 25 -75 77 -83zM308.001 279.999c0 -45.333 15 -80.668 45 -106.001s76.667 -38 140 -38
c152.667 0 278.667 49.667 378 149v231c-4 -9.33301 -14.333 -17 -31 -23s-43.667 -12 -81 -18l-263 -41c-68.667 -10.667 -117.167 -28.667 -145.5 -54s-42.5 -58.666 -42.5 -99.999z" />
    <glyph glyph-name="aacute" unicode="&#xe1;" horiz-adv-x="1266" 
d="M585 1116c-11.333 0 -19.5 3.16699 -24.5 9.5s-5.16699 14.833 -0.5 25.5l123 258c7.33301 16.667 19 25 35 25h98c11.333 0 19.5 -3.16699 24.5 -9.5s5.16699 -14.833 0.5 -25.5l-123 -258c-7.33301 -16.667 -19 -25 -35 -25h-98zM1128 153
c12.667 -2 21.8359 -5.83398 27.5029 -11.501s8.5 -14.167 8.5 -25.5v-88c0 -23.333 -17.667 -35.333 -53 -36c-136.667 -4.66699 -205 50.333 -205 165h-4c-56.667 -60 -125.5 -105.333 -206.5 -136s-159.5 -46 -235.5 -46c-111.333 0 -195.333 25.5 -252 76.5
s-85 120.5 -85 208.5c0 86 27.167 153.833 81.5 203.5s137.5 82.834 249.5 99.501l283 43c44 6 76.167 12.5 96.5 19.5s32.833 15.833 37.5 26.5c-0.666992 76.667 -21.334 131.667 -62.001 165s-101.334 50 -182.001 50c-164 0 -253.667 -51.667 -269 -155
c-2 -16 -11.667 -24 -29 -24h-119c-21.333 0 -31 10.333 -29 31c21.333 204.667 170.333 307 447 307c143.333 0 249.666 -32 318.999 -96s104 -156 104 -276v-418c-0.666992 -47.333 25 -75 77 -83zM308.002 279.999c0 -45.333 15 -80.668 45 -106.001s76.667 -38 140 -38
c152.667 0 278.667 49.667 378 149v231c-4 -9.33301 -14.333 -17 -31 -23s-43.667 -12 -81 -18l-263 -41c-68.667 -10.667 -117.167 -28.667 -145.5 -54s-42.5 -58.666 -42.5 -99.999z" />
    <glyph glyph-name="acircumflex" unicode="&#xe2;" horiz-adv-x="1266" 
d="M288 1156c-12.667 0 -20.834 3.83301 -24.501 11.5s-1.5 16.167 6.5 25.5l233 261c9.33301 10.667 21.666 16 36.999 16h178c16.667 0 29 -5.33301 37 -16l232 -261c8 -9.33301 10.5 -17.833 7.5 -25.5s-10.833 -11.5 -23.5 -11.5h-127
c-13.333 0 -25.666 5.33301 -36.999 16l-178 177l-177 -177c-11.333 -10.667 -23.666 -16 -36.999 -16h-127zM1128 153c12.667 -2 21.8359 -5.83398 27.5029 -11.501s8.5 -14.167 8.5 -25.5v-88c0 -23.333 -17.667 -35.333 -53 -36c-136.667 -4.66699 -205 50.333 -205 165
h-4c-56.667 -60 -125.5 -105.333 -206.5 -136s-159.5 -46 -235.5 -46c-111.333 0 -195.333 25.5 -252 76.5s-85 120.5 -85 208.5c0 86 27.167 153.833 81.5 203.5s137.5 82.834 249.5 99.501l283 43c44 6 76.167 12.5 96.5 19.5s32.833 15.833 37.5 26.5
c-0.666992 76.667 -21.334 131.667 -62.001 165s-101.334 50 -182.001 50c-164 0 -253.667 -51.667 -269 -155c-2 -16 -11.667 -24 -29 -24h-119c-21.333 0 -31 10.333 -29 31c21.333 204.667 170.333 307 447 307c143.333 0 249.666 -32 318.999 -96s104 -156 104 -276
v-418c-0.666992 -47.333 25 -75 77 -83zM308.002 279.999c0 -45.333 15 -80.668 45 -106.001s76.667 -38 140 -38c152.667 0 278.667 49.667 378 149v231c-4 -9.33301 -14.333 -17 -31 -23s-43.667 -12 -81 -18l-263 -41c-68.667 -10.667 -117.167 -28.667 -145.5 -54
s-42.5 -58.666 -42.5 -99.999z" />
    <glyph glyph-name="atilde" unicode="&#xe3;" horiz-adv-x="1266" 
d="M308 1279c-14.667 0 -20.665 8.33301 -17.998 25c6.66699 54.667 26.667 96.667 60 126s77 44 131 44c34 0 66.167 -7.33301 96.5 -22s54.666 -31.167 72.999 -49.5s39.5 -34.833 63.5 -49.5s47.333 -22 70 -22c44 0 74 21 90 63c4 11.333 11.667 17 23 17h53
c6 0 11.167 -1.83301 15.5 -5.5s6.16602 -8.5 5.49902 -14.5c-6 -56 -26.167 -99 -60.5 -129s-77.833 -45 -130.5 -45c-28 0 -54.333 4.83301 -79 14.5s-46 21.5 -64 35.5l-52 41.5c-16.667 13.667 -34.167 25.5 -52.5 35.5s-36.833 15 -55.5 15c-46 0 -77 -21 -93 -63
c-4 -11.333 -11.667 -17 -23 -17h-53zM1128 153c12.667 -2 21.8359 -5.83398 27.5029 -11.501s8.5 -14.167 8.5 -25.5v-88c0 -23.333 -17.667 -35.333 -53 -36c-136.667 -4.66699 -205 50.333 -205 165h-4c-56.667 -60 -125.5 -105.333 -206.5 -136s-159.5 -46 -235.5 -46
c-111.333 0 -195.333 25.5 -252 76.5s-85 120.5 -85 208.5c0 86 27.167 153.833 81.5 203.5s137.5 82.834 249.5 99.501l283 43c44 6 76.167 12.5 96.5 19.5s32.833 15.833 37.5 26.5c-0.666992 76.667 -21.334 131.667 -62.001 165s-101.334 50 -182.001 50
c-164 0 -253.667 -51.667 -269 -155c-2 -16 -11.667 -24 -29 -24h-119c-21.333 0 -31 10.333 -29 31c21.333 204.667 170.333 307 447 307c143.333 0 249.666 -32 318.999 -96s104 -156 104 -276v-418c-0.666992 -47.333 25 -75 77 -83zM308.004 279.999
c0 -45.333 15 -80.668 45 -106.001s76.667 -38 140 -38c152.667 0 278.667 49.667 378 149v231c-4 -9.33301 -14.333 -17 -31 -23s-43.667 -12 -81 -18l-263 -41c-68.667 -10.667 -117.167 -28.667 -145.5 -54s-42.5 -58.666 -42.5 -99.999z" />
    <glyph glyph-name="adieresis" unicode="&#xe4;" horiz-adv-x="1266" 
d="M433 1250c-28 0 -52 10.167 -72 30.5s-30 44.833 -30 73.5c0 27.333 10 50.833 30 70.5s44 29.5 72 29.5s52.167 -9.83301 72.5 -29.5s30.5 -43.167 30.5 -70.5c0 -28.667 -10.167 -53.167 -30.5 -73.5s-44.5 -30.5 -72.5 -30.5zM826 1250c-28 0 -52 10.167 -72 30.5
s-30 44.833 -30 73.5c0 27.333 10 50.833 30 70.5s44 29.5 72 29.5s52.167 -9.83301 72.5 -29.5s30.5 -43.167 30.5 -70.5c0 -28.667 -10.167 -53.167 -30.5 -73.5s-44.5 -30.5 -72.5 -30.5zM1128 153c12.667 -2 21.8359 -5.83398 27.5029 -11.501s8.5 -14.167 8.5 -25.5
v-88c0 -23.333 -17.667 -35.333 -53 -36c-136.667 -4.66699 -205 50.333 -205 165h-4c-56.667 -60 -125.5 -105.333 -206.5 -136s-159.5 -46 -235.5 -46c-111.333 0 -195.333 25.5 -252 76.5s-85 120.5 -85 208.5c0 86 27.167 153.833 81.5 203.5s137.5 82.834 249.5 99.501
l283 43c44 6 76.167 12.5 96.5 19.5s32.833 15.833 37.5 26.5c-0.666992 76.667 -21.334 131.667 -62.001 165s-101.334 50 -182.001 50c-164 0 -253.667 -51.667 -269 -155c-2 -16 -11.667 -24 -29 -24h-119c-21.333 0 -31 10.333 -29 31
c21.333 204.667 170.333 307 447 307c143.333 0 249.666 -32 318.999 -96s104 -156 104 -276v-418c-0.666992 -47.333 25 -75 77 -83zM308.002 279.999c0 -45.333 15 -80.668 45 -106.001s76.667 -38 140 -38c152.667 0 278.667 49.667 378 149v231
c-4 -9.33301 -14.333 -17 -31 -23s-43.667 -12 -81 -18l-263 -41c-68.667 -10.667 -117.167 -28.667 -145.5 -54s-42.5 -58.666 -42.5 -99.999z" />
    <glyph glyph-name="aring" unicode="&#xe5;" horiz-adv-x="1266" 
d="M629 1125c-52.667 0 -97.167 18.333 -133.5 55s-54.5 80.167 -54.5 130.5s18.167 93.833 54.5 130.5s80.833 55 133.5 55c52 0 96 -18.333 132 -55s54 -80.167 54 -130.5s-18 -93.833 -54 -130.5s-80 -55 -132 -55zM629 1383c-21.333 0 -39.166 -6.83105 -53.499 -20.498
s-21.5 -30.834 -21.5 -51.501s7.16699 -37.834 21.5 -51.501s32.166 -20.5 53.499 -20.5c20.667 0 38 6.83301 52 20.5s21 30.667 21 51s-7 37.5 -21 51.5s-31.333 21 -52 21zM1128 153.002c12.667 -2 21.8359 -5.83398 27.5029 -11.501s8.5 -14.167 8.5 -25.5v-88
c0 -23.333 -17.667 -35.333 -53 -36c-136.667 -4.66699 -205 50.333 -205 165h-4c-56.667 -60 -125.5 -105.333 -206.5 -136s-159.5 -46 -235.5 -46c-111.333 0 -195.333 25.5 -252 76.5s-85 120.5 -85 208.5c0 86 27.167 153.833 81.5 203.5s137.5 82.834 249.5 99.501
l283 43c44 6 76.167 12.5 96.5 19.5s32.833 15.833 37.5 26.5c-0.666992 76.667 -21.334 131.667 -62.001 165s-101.334 50 -182.001 50c-164 0 -253.667 -51.667 -269 -155c-2 -16 -11.667 -24 -29 -24h-119c-21.333 0 -31 10.333 -29 31
c21.333 204.667 170.333 307 447 307c143.333 0 249.666 -32 318.999 -96s104 -156 104 -276v-418c-0.666992 -47.333 25 -75 77 -83zM308.002 280.001c0 -45.333 15 -80.668 45 -106.001s76.667 -38 140 -38c152.667 0 278.667 49.667 378 149v231
c-4 -9.33301 -14.333 -17 -31 -23s-43.667 -12 -81 -18l-263 -41c-68.667 -10.667 -117.167 -28.667 -145.5 -54s-42.5 -58.666 -42.5 -99.999z" />
    <glyph glyph-name="ae" unicode="&#xe6;" horiz-adv-x="1982" 
d="M1375 1026c96 0 181.168 -23.1689 255.501 -69.502s130.166 -106.666 167.499 -180.999s56 -156.166 56 -245.499c0 -39.333 -3.83301 -67 -11.5 -83s-24.5 -24 -50.5 -24h-742c11.333 -88 49.833 -159 115.5 -213s147.834 -81 246.501 -81c98 0 186 31.667 264 95
c17.333 13.333 32 14.333 44 3l54 -53c16 -16.667 16.333 -32.334 1 -47.001c-104 -102.667 -231.333 -154 -382 -154c-94 0 -178.333 19.5 -253 58.5s-135.334 92.833 -182.001 161.5c-151.333 -144.667 -317.333 -217.334 -498 -218.001
c-111.333 0 -195.333 25.5 -252 76.5s-85 120.5 -85 208.5c0 86 27.167 153.833 81.5 203.5s137.5 82.834 249.5 99.501l281 43c46 6.66699 78.833 13.5 98.5 20.5s31.834 16.167 36.501 27.5c-1.33301 76.667 -22 131.334 -62 164.001s-100.333 49 -181 49
c-164 0 -253.667 -51.667 -269 -155c-2 -16 -11.667 -24 -29 -24h-119c-21.333 0 -31 10.333 -29 31c21.333 204.667 170.333 307 447 307c185.333 0 309.666 -54.333 372.999 -163c46 52 100.833 92.167 164.5 120.5s133.5 42.5 209.5 42.5zM1375 865.998
c-86.667 0 -159.667 -27.833 -219 -83.5s-94.666 -128.5 -105.999 -218.5h643c-6 88.667 -38.333 161.167 -97 217.5s-132.334 84.5 -221.001 84.5zM493.001 135.998c75.333 0 146.333 12.8311 213 38.498s131 72.167 193 139.5c-20 58 -30 120 -30 186v17
c-4.66699 -10 -15 -18 -31 -24s-42.667 -12 -80 -18l-262 -41c-68.667 -10.667 -117.167 -28.667 -145.5 -54s-42.5 -58.666 -42.5 -99.999c0 -45.333 15.167 -80.666 45.5 -105.999s76.833 -38 139.5 -38z" />
    <glyph glyph-name="ccedilla" unicode="&#xe7;" horiz-adv-x="1204" 
d="M1070 236c18 -10.667 20.999 -24.3311 8.99902 -40.998c-44 -65.333 -100.667 -117.5 -170 -156.5s-146 -60.5 -230 -64.5l-51 -51c47.333 -4 87.5 -20.333 120.5 -49s49.5 -66 49.5 -112c0 -54.667 -16.667 -98.834 -50 -132.501s-73.666 -55.167 -120.999 -64.5
s-98 -9.33301 -152 0c-12 2 -18 9.33301 -18 22v67c0 6.66699 2 11.834 6 15.501s9.33301 5.16699 16 4.5c55.333 -8 99 -4.83301 131 9.5s48 36.833 48 67.5c0 28.667 -17.5 49.334 -52.5 62.001s-76.5 9.66699 -124.5 -9
c-6.66699 -2.66699 -12.334 -2.83398 -17.001 -0.500977s-7 7.5 -7 15.5v65c0 7.33301 3.33301 15.666 10 24.999l73 76c-122 24 -221.167 83.333 -297.5 178s-114.5 207 -114.5 337c0 150 49.667 275.167 149 375.5s224.333 150.5 375 150.5c90 0 172.333 -19.667 247 -59
s134.667 -93 180 -161c11.333 -17.333 8.33301 -31.333 -9 -42l-91 -53c-16 -9.33301 -29.667 -7 -41 7c-69.333 91.333 -163.666 137 -282.999 137c-101.333 0 -184.5 -33 -249.5 -99s-97.5 -151.333 -97.5 -256s32.667 -190 98 -256s148.333 -99 249 -99
c119.333 0 213.666 45.667 282.999 137c10.667 15.333 24.334 17.666 41.001 6.99902z" />
    <glyph glyph-name="egrave" unicode="&#xe8;" horiz-adv-x="1241" 
d="M529 1141l-122 258c-4.66699 10.667 -4.66699 19.167 0 25.5s12.667 9.5 24 9.5h98c16 0 27.667 -8.33301 35 -25l123 -258c4.66699 -10.667 4.66699 -19.167 0 -25.5s-12.667 -9.5 -24 -9.5h-99c-16 0 -27.667 8.33301 -35 25zM634 1026c96 0 181 -23.168 255 -69.501
s129.833 -106.666 167.5 -180.999s56.5 -156.166 56.5 -245.499c0 -39.333 -3.83301 -67 -11.5 -83s-24.5 -24 -50.5 -24h-743c11.333 -88 49.833 -159 115.5 -213s148.167 -81 247.5 -81c98 0 186 31.667 264 95c17.333 13.333 32 14.333 44 3l53 -53
c16 -16.667 16.333 -32.334 1 -47.001c-104 -102.667 -231.333 -154 -382 -154c-154.667 0 -280.5 50.167 -377.5 150.5s-145.5 225.833 -145.5 376.5c0 97.333 21.167 186 63.5 266s102.333 143.333 180 190s165.167 70 262.5 70zM634 865.999
c-86.667 0 -159.667 -27.833 -219 -83.5s-95 -128.5 -107 -218.5h643c-6 88.667 -38.167 161.167 -96.5 217.5s-131.833 84.5 -220.5 84.5z" />
    <glyph glyph-name="eacute" unicode="&#xe9;" horiz-adv-x="1241" 
d="M577 1116c-11.333 0 -19.5 3.16699 -24.5 9.5s-5.16699 14.833 -0.5 25.5l123 258c7.33301 16.667 19 25 35 25h98c11.333 0 19.5 -3.16699 24.5 -9.5s5.16699 -14.833 0.5 -25.5l-123 -258c-7.33301 -16.667 -19 -25 -35 -25h-98zM634 1026
c96 0 181 -23.168 255 -69.501s129.833 -106.666 167.5 -180.999s56.5 -156.166 56.5 -245.499c0 -39.333 -3.83301 -67 -11.5 -83s-24.5 -24 -50.5 -24h-743c11.333 -88 49.833 -159 115.5 -213s148.167 -81 247.5 -81c98 0 186 31.667 264 95
c17.333 13.333 32 14.333 44 3l53 -53c16 -16.667 16.333 -32.334 1 -47.001c-104 -102.667 -231.333 -154 -382 -154c-154.667 0 -280.5 50.167 -377.5 150.5s-145.5 225.833 -145.5 376.5c0 97.333 21.167 186 63.5 266s102.333 143.333 180 190s165.167 70 262.5 70z
M634 865.999c-86.667 0 -159.667 -27.833 -219 -83.5s-95 -128.5 -107 -218.5h643c-6 88.667 -38.167 161.167 -96.5 217.5s-131.833 84.5 -220.5 84.5z" />
    <glyph glyph-name="ecircumflex" unicode="&#xea;" horiz-adv-x="1241" 
d="M280 1156c-12.667 0 -20.834 3.83301 -24.501 11.5s-1.5 16.167 6.5 25.5l233 261c9.33301 10.667 21.333 16 36 16h179c16.667 0 28.667 -5.33301 36 -16l233 -261c8 -9.33301 10.5 -17.833 7.5 -25.5s-10.833 -11.5 -23.5 -11.5h-127
c-13.333 0 -25.666 5.33301 -36.999 16l-178 177l-178 -177c-11.333 -10.667 -23.333 -16 -36 -16h-127zM634 1026c96 0 181 -23.168 255 -69.501s129.833 -106.666 167.5 -180.999s56.5 -156.166 56.5 -245.499c0 -39.333 -3.83301 -67 -11.5 -83s-24.5 -24 -50.5 -24h-743
c11.333 -88 49.833 -159 115.5 -213s148.167 -81 247.5 -81c98 0 186 31.667 264 95c17.333 13.333 32 14.333 44 3l53 -53c16 -16.667 16.333 -32.334 1 -47.001c-104 -102.667 -231.333 -154 -382 -154c-154.667 0 -280.5 50.167 -377.5 150.5
s-145.5 225.833 -145.5 376.5c0 97.333 21.167 186 63.5 266s102.333 143.333 180 190s165.167 70 262.5 70zM634 865.999c-86.667 0 -159.667 -27.833 -219 -83.5s-95 -128.5 -107 -218.5h643c-6 88.667 -38.167 161.167 -96.5 217.5s-131.833 84.5 -220.5 84.5z" />
    <glyph glyph-name="edieresis" unicode="&#xeb;" horiz-adv-x="1241" 
d="M425 1250c-28 0 -52 10.167 -72 30.5s-30 44.833 -30 73.5c0 27.333 10 50.833 30 70.5s44 29.5 72 29.5s52 -9.83301 72 -29.5s30 -43.167 30 -70.5c0 -28.667 -10 -53.167 -30 -73.5s-44 -30.5 -72 -30.5zM818 1250c-28 0 -52 10.167 -72 30.5s-30 44.833 -30 73.5
c0 27.333 10 50.833 30 70.5s44 29.5 72 29.5s52.167 -9.83301 72.5 -29.5s30.5 -43.167 30.5 -70.5c0 -28.667 -10.167 -53.167 -30.5 -73.5s-44.5 -30.5 -72.5 -30.5zM634 1026c96 0 181 -23.168 255 -69.501s129.833 -106.666 167.5 -180.999
s56.5 -156.166 56.5 -245.499c0 -39.333 -3.83301 -67 -11.5 -83s-24.5 -24 -50.5 -24h-743c11.333 -88 49.833 -159 115.5 -213s148.167 -81 247.5 -81c98 0 186 31.667 264 95c17.333 13.333 32 14.333 44 3l53 -53c16 -16.667 16.333 -32.334 1 -47.001
c-104 -102.667 -231.333 -154 -382 -154c-154.667 0 -280.5 50.167 -377.5 150.5s-145.5 225.833 -145.5 376.5c0 97.333 21.167 186 63.5 266s102.333 143.333 180 190s165.167 70 262.5 70zM634 865.999c-86.667 0 -159.667 -27.833 -219 -83.5s-95 -128.5 -107 -218.5
h643c-6 88.667 -38.167 161.167 -96.5 217.5s-131.833 84.5 -220.5 84.5z" />
    <glyph glyph-name="igrave" unicode="&#xec;" horiz-adv-x="1182" 
d="M501 1141l-123 258c-4.66699 10.667 -4.66699 19.167 0 25.5s12.667 9.5 24 9.5h99c16 0 27.667 -8.33301 35 -25l122 -258c4.66699 -10.667 4.66699 -19.167 0 -25.5s-12.667 -9.5 -24 -9.5h-98c-16 0 -27.667 8.33301 -35 25zM1034 160
c9.33301 0 16.833 -2.83301 22.5 -8.5s8.5 -13.167 8.5 -22.5v-98c0 -9.33301 -2.66699 -16.833 -8 -22.5s-13 -8.5 -23 -8.5h-875c-8.66699 0 -16 2.66699 -22 8s-9 13 -9 23v98c0 9.33301 2.83301 16.833 8.5 22.5s13.167 8.5 22.5 8.5h372v685h-321
c-8.66699 0 -16 2.83301 -22 8.5s-9 13.167 -9 22.5v97c0 9.33301 3 16.833 9 22.5s13.333 8.5 22 8.5h475c8.66699 0 16 -2.83301 22 -8.5s9 -13.167 9 -22.5v-813h318z" />
    <glyph glyph-name="iacute" unicode="&#xed;" horiz-adv-x="1182" 
d="M548 1116c-11.333 0 -19.5 3.16699 -24.5 9.5s-5.16699 14.833 -0.5 25.5l123 258c7.33301 16.667 19 25 35 25h98c11.333 0 19.5 -3.16699 24.5 -9.5s5.16699 -14.833 0.5 -25.5l-123 -258c-7.33301 -16.667 -19 -25 -35 -25h-98zM1034 160
c9.33301 0 16.833 -2.83301 22.5 -8.5s8.5 -13.167 8.5 -22.5v-98c0 -9.33301 -2.66699 -16.833 -8 -22.5s-13 -8.5 -23 -8.5h-875c-8.66699 0 -16 2.66699 -22 8s-9 13 -9 23v98c0 9.33301 2.83301 16.833 8.5 22.5s13.167 8.5 22.5 8.5h372v685h-321
c-8.66699 0 -16 2.83301 -22 8.5s-9 13.167 -9 22.5v97c0 9.33301 3 16.833 9 22.5s13.333 8.5 22 8.5h475c8.66699 0 16 -2.83301 22 -8.5s9 -13.167 9 -22.5v-813h318z" />
    <glyph glyph-name="icircumflex" unicode="&#xee;" horiz-adv-x="1182" 
d="M251 1156c-12.667 0 -20.834 3.83301 -24.501 11.5s-1.5 16.167 6.5 25.5l233 261c9.33301 10.667 21.666 16 36.999 16h178c16.667 0 29 -5.33301 37 -16l232 -261c8 -9.33301 10.5 -17.833 7.5 -25.5s-10.833 -11.5 -23.5 -11.5h-127
c-13.333 0 -25.666 5.33301 -36.999 16l-178 177l-177 -177c-11.333 -10.667 -23.666 -16 -36.999 -16h-127zM1034 160c9.33301 0 16.833 -2.83301 22.5 -8.5s8.5 -13.167 8.5 -22.5v-98c0 -9.33301 -2.66699 -16.833 -8 -22.5s-13 -8.5 -23 -8.5h-875
c-8.66699 0 -16 2.66699 -22 8s-9 13 -9 23v98c0 9.33301 2.83301 16.833 8.5 22.5s13.167 8.5 22.5 8.5h372v685h-321c-8.66699 0 -16 2.83301 -22 8.5s-9 13.167 -9 22.5v97c0 9.33301 3 16.833 9 22.5s13.333 8.5 22 8.5h475c8.66699 0 16 -2.83301 22 -8.5
s9 -13.167 9 -22.5v-813h318z" />
    <glyph glyph-name="idieresis" unicode="&#xef;" horiz-adv-x="1182" 
d="M396 1250c-28 0 -52 10.167 -72 30.5s-30 44.833 -30 73.5c0 27.333 10 50.833 30 70.5s44 29.5 72 29.5s52.167 -9.83301 72.5 -29.5s30.5 -43.167 30.5 -70.5c0 -28.667 -10.167 -53.167 -30.5 -73.5s-44.5 -30.5 -72.5 -30.5zM789.5 1250
c-27.667 0 -51.667 10.167 -72 30.5s-30.5 44.833 -30.5 73.5c0 27.333 10.167 50.833 30.5 70.5s44.333 29.5 72 29.5s51.667 -9.83301 72 -29.5s30.5 -43.167 30.5 -70.5c0 -28.667 -10.167 -53.167 -30.5 -73.5s-44.333 -30.5 -72 -30.5zM1034 160
c9.33301 0 16.833 -2.83301 22.5 -8.5s8.5 -13.167 8.5 -22.5v-98c0 -9.33301 -2.66699 -16.833 -8 -22.5s-13 -8.5 -23 -8.5h-875c-8.66699 0 -16 2.66699 -22 8s-9 13 -9 23v98c0 9.33301 2.83301 16.833 8.5 22.5s13.167 8.5 22.5 8.5h372v685h-321
c-8.66699 0 -16 2.83301 -22 8.5s-9 13.167 -9 22.5v97c0 9.33301 3 16.833 9 22.5s13.333 8.5 22 8.5h475c8.66699 0 16 -2.83301 22 -8.5s9 -13.167 9 -22.5v-813h318z" />
    <glyph glyph-name="eth" unicode="&#xf0;" 
d="M1186 1299c10 1.33301 18 -0.5 24 -5.5s9 -12.5 9 -22.5v-78c0 -20 -9.66699 -31 -29 -33l-53 -7v-1122c0 -9.33301 -2.83301 -16.833 -8.5 -22.5s-13.167 -8.5 -22.5 -8.5h-112c-18.667 -0 -28.667 10.333 -30 31l-9 107c-86 -110 -203 -165 -351 -165
c-142 0 -256.833 49.833 -344.5 149.5s-131.5 225.5 -131.5 377.5c0 152.667 43.167 278.5 129.5 377.5s201.833 148.5 346.5 148.5c82 0 150.667 -17 206 -51s97 -78.667 125 -134h17v286l-169 -22c-10 -1.33301 -17.833 0.5 -23.5 5.5s-8.5 12.833 -8.5 23.5v77
c0 18.667 9.33301 29.667 28 33l173 24v135c0 9.33301 2.83301 16.833 8.5 22.5s13.167 8.5 22.5 8.5h123c9.33301 0 16.833 -2.83301 22.5 -8.5s8.5 -13.167 8.5 -22.5v-111zM637 144c98 0 176.667 33.167 236 99.5s89 152.5 89 258.5
c0 106.667 -29.5 192.334 -88.5 257.001s-137.833 97 -236.5 97c-102 0 -182.5 -32.333 -241.5 -97s-88.5 -150.334 -88.5 -257.001s29.5 -193 88.5 -259s139.5 -99 241.5 -99z" />
    <glyph glyph-name="ntilde" unicode="&#xf1;" horiz-adv-x="1250" 
d="M305 1279c-14.667 0 -20.665 8.33301 -17.998 25c6.66699 54.667 26.667 96.667 60 126s77 44 131 44c34 0 66.167 -7.33301 96.5 -22s54.666 -31.167 72.999 -49.5s39.333 -34.833 63 -49.5s47.167 -22 70.5 -22c44 0 74 21 90 63c4 11.333 11.667 17 23 17h53
c6 0 11.167 -1.83301 15.5 -5.5s6.16602 -8.5 5.49902 -14.5c-6 -56 -26.167 -99 -60.5 -129s-77.833 -45 -130.5 -45c-28 0 -54.5 4.83301 -79.5 14.5s-46.333 21.5 -64 35.5l-51.5 41.5c-16.667 13.667 -34.167 25.5 -52.5 35.5s-36.833 15 -55.5 15
c-46 0 -77 -21 -93 -63c-4 -11.333 -11.667 -17 -23 -17h-53zM721.002 1026c113.333 0 202.502 -34.833 267.502 -104.5s97.5 -169.834 97.5 -300.501v-590c0 -9.33301 -2.83301 -16.833 -8.5 -22.5s-12.834 -8.5 -21.501 -8.5h-123c-8.66699 0 -16 2.66699 -22 8
s-9 13 -9 23v569c0 86 -20.833 150.333 -62.5 193s-101.834 64 -180.501 64c-49.333 0 -95 -9.5 -137 -28.5s-75 -41.667 -99 -68s-42.5 -51.166 -55.5 -74.499s-19.5 -41 -19.5 -53v-602c0 -9.33301 -2.66699 -16.833 -8 -22.5s-13 -8.5 -23 -8.5h-122
c-9.33301 0 -16.833 2.66699 -22.5 8s-8.5 13 -8.5 23v942c0 9.33301 2.66699 16.833 8 22.5s13 8.5 23 8.5h114c18.667 0 29 -10.333 31 -31l8 -138h21c33.333 54.667 80 100.167 140 136.5s130.667 54.5 212 54.5z" />
    <glyph glyph-name="ograve" unicode="&#xf2;" horiz-adv-x="1309" 
d="M465 1434h98c16 0 27.667 -8.33301 35 -25l123 -258c4.66699 -10.667 4.66699 -19.167 0 -25.5s-13 -9.5 -25 -9.5h-98c-16 0 -27.667 8.33301 -35 25l-123 258c-4.66699 10.667 -4.5 19.167 0.5 25.5s13.167 9.5 24.5 9.5zM655 -27
c-72.667 0 -141.333 13.666 -206 40.999s-120.5 64.5 -167.5 111.5s-84.333 103 -112 168s-41.5 133.833 -41.5 206.5c0 96.667 23.333 185.334 70 266.001s110.5 144.167 191.5 190.5s169.5 69.5 265.5 69.5c146 0 270.333 -51 373 -153s154 -226.333 154 -373
c0 -147.333 -51.333 -272 -154 -374s-227 -153 -373 -153zM655.501 144.999c97.667 0 179.832 34.333 246.499 103s100 152.667 100 252c0 98 -33.5 181.667 -100.5 251s-149.167 104 -246.5 104s-179.666 -34.667 -246.999 -104s-101 -153 -101 -251
c0 -98.667 33.667 -182.5 101 -251.5s149.833 -103.5 247.5 -103.5z" />
    <glyph glyph-name="oacute" unicode="&#xf3;" horiz-adv-x="1309" 
d="M842 1434c11.333 0 19.333 -3.16699 24 -9.5s4.66699 -14.833 0 -25.5l-123 -258c-7.33301 -16.667 -18.666 -25 -33.999 -25h-99c-11.333 0 -19.333 3.16699 -24 9.5s-4.66699 14.833 0 25.5l123 258c7.33301 16.667 18.666 25 33.999 25h99zM655 -27
c-72.667 0 -141.333 13.666 -206 40.999s-120.5 64.5 -167.5 111.5s-84.333 103 -112 168s-41.5 133.833 -41.5 206.5c0 96.667 23.333 185.334 70 266.001s110.5 144.167 191.5 190.5s169.5 69.5 265.5 69.5c146 0 270.333 -51 373 -153s154 -226.333 154 -373
c0 -147.333 -51.333 -272 -154 -374s-227 -153 -373 -153zM655.501 144.999c97.667 0 179.832 34.333 246.499 103s100 152.667 100 252c0 98 -33.5 181.667 -100.5 251s-149.167 104 -246.5 104s-179.666 -34.667 -246.999 -104s-101 -153 -101 -251
c0 -98.667 33.667 -182.5 101 -251.5s149.833 -103.5 247.5 -103.5z" />
    <glyph glyph-name="ocircumflex" unicode="&#xf4;" horiz-adv-x="1309" 
d="M743 1470c16.667 0 29 -5.33301 37 -16l233 -261c8 -9.33301 10.5 -17.833 7.5 -25.5s-11.167 -11.5 -24.5 -11.5h-127c-13.333 0 -25.333 5.33301 -36 16l-179 177l-177 -177c-11.333 -10.667 -23.666 -16 -36.999 -16h-127c-12.667 0 -20.667 3.83301 -24 11.5
s-1 16.167 7 25.5l232 261c9.33301 10.667 21.666 16 36.999 16h178zM655 -27c-72.667 0 -141.333 13.666 -206 40.999s-120.5 64.5 -167.5 111.5s-84.333 103 -112 168s-41.5 133.833 -41.5 206.5c0 96.667 23.333 185.334 70 266.001s110.5 144.167 191.5 190.5
s169.5 69.5 265.5 69.5c146 0 270.333 -51 373 -153s154 -226.333 154 -373c0 -147.333 -51.333 -272 -154 -374s-227 -153 -373 -153zM655.501 144.999c97.667 0 179.832 34.333 246.499 103s100 152.667 100 252c0 98 -33.5 181.667 -100.5 251s-149.167 104 -246.5 104
s-179.666 -34.667 -246.999 -104s-101 -153 -101 -251c0 -98.667 33.667 -182.5 101 -251.5s149.833 -103.5 247.5 -103.5z" />
    <glyph glyph-name="otilde" unicode="&#xf5;" horiz-adv-x="1309" 
d="M507 1474c34 0 66 -7.33301 96 -22s54.167 -31.167 72.5 -49.5s39.5 -34.833 63.5 -49.5s47.667 -22 71 -22c44 0 74 21 90 63c4 11.333 11.667 17 23 17h53c6 0 11 -1.83301 15 -5.5s5.66699 -8.5 5 -14.5c-6 -56 -26 -99 -60 -129s-77.333 -45 -130 -45
c-28 0 -54.5 4.83301 -79.5 14.5s-46.333 21.5 -64 35.5l-51.5 41.5c-16.667 13.667 -34.334 25.5 -53.001 35.5s-37 15 -55 15c-46 0 -77 -21 -93 -63c-4 -11.333 -11.667 -17 -23 -17h-53c-14.667 0 -21 8.33301 -19 25c6.66699 54.667 26.834 96.667 60.501 126
s77.5 44 131.5 44zM655 -27c-72.667 0 -141.333 13.666 -206 40.999s-120.5 64.5 -167.5 111.5s-84.333 103 -112 168s-41.5 133.833 -41.5 206.5c0 96.667 23.333 185.334 70 266.001s110.5 144.167 191.5 190.5s169.5 69.5 265.5 69.5c146 0 270.333 -51 373 -153
s154 -226.333 154 -373c0 -147.333 -51.333 -272 -154 -374s-227 -153 -373 -153zM655.501 144.999c97.667 0 179.832 34.333 246.499 103s100 152.667 100 252c0 98 -33.5 181.667 -100.5 251s-149.167 104 -246.5 104s-179.666 -34.667 -246.999 -104s-101 -153 -101 -251
c0 -98.667 33.667 -182.5 101 -251.5s149.833 -103.5 247.5 -103.5z" />
    <glyph glyph-name="odieresis" unicode="&#xf6;" horiz-adv-x="1309" 
d="M459 1250c-28 0 -52.167 10.167 -72.5 30.5s-30.5 44.833 -30.5 73.5c0 27.333 10.167 50.833 30.5 70.5s44.5 29.5 72.5 29.5s52 -9.83301 72 -29.5s30 -43.167 30 -70.5c0 -28.667 -10 -53.167 -30 -73.5s-44 -30.5 -72 -30.5zM852 1250c-28 0 -52 10.167 -72 30.5
s-30 44.833 -30 73.5c0 27.333 10 50.833 30 70.5s44 29.5 72 29.5s52 -9.83301 72 -29.5s30 -43.167 30 -70.5c0 -28.667 -10 -53.167 -30 -73.5s-44 -30.5 -72 -30.5zM655 -27c-72.667 0 -141.333 13.666 -206 40.999s-120.5 64.5 -167.5 111.5s-84.333 103 -112 168
s-41.5 133.833 -41.5 206.5c0 96.667 23.333 185.334 70 266.001s110.5 144.167 191.5 190.5s169.5 69.5 265.5 69.5c146 0 270.333 -51 373 -153s154 -226.333 154 -373c0 -147.333 -51.333 -272 -154 -374s-227 -153 -373 -153zM655.501 144.999
c97.667 0 179.832 34.333 246.499 103s100 152.667 100 252c0 98 -33.5 181.667 -100.5 251s-149.167 104 -246.5 104s-179.666 -34.667 -246.999 -104s-101 -153 -101 -251c0 -98.667 33.667 -182.5 101 -251.5s149.833 -103.5 247.5 -103.5z" />
    <glyph glyph-name="divide" unicode="&#xf7;" horiz-adv-x="1162" 
d="M581.5 752c-40.333 0 -74.5 14 -102.5 42s-42 62 -42 102s14 74.333 42 103s62.167 43 102.5 43s74.5 -14.333 102.5 -43s42 -63 42 -103s-14 -74 -42 -102s-62.167 -42 -102.5 -42zM963 657c9.33301 0 16.666 -2.66699 21.999 -8s8 -12.666 8 -21.999v-88
c0 -9.33301 -2.66699 -16.833 -8 -22.5s-12.666 -8.5 -21.999 -8.5h-763c-8.66699 0 -16 2.66699 -22 8s-9 13 -9 23v88c0 9.33301 2.83301 16.666 8.5 21.999s13.167 8 22.5 8h763zM581.5 123c-40.333 0 -74.5 14 -102.5 42s-42 62.167 -42 102.5s14 74.833 42 103.5
s62.167 43 102.5 43s74.5 -14.333 102.5 -43s42 -63.167 42 -103.5s-14 -74.5 -42 -102.5s-62.167 -42 -102.5 -42z" />
    <glyph glyph-name="oslash" unicode="&#xf8;" horiz-adv-x="1309" 
d="M938 945c74.667 -47.333 134.001 -110.168 178.001 -188.501s66 -163.833 66 -256.5c0 -147.333 -51.333 -272 -154 -374s-227 -153 -373 -153c-50.667 0 -100 7 -148 21l-52 -115c-6 -15.333 -17.667 -22.666 -35 -21.999h-97c-11.333 0 -19.166 3.33301 -23.499 10
s-4.16602 15.667 0.500977 27l73 159c-75.333 47.333 -135 110.166 -179 188.499s-66 164.5 -66 258.5c0 96.667 23.333 185.334 70 266.001s110.5 144.167 191.5 190.5s169.5 69.5 265.5 69.5c51.333 0 100.666 -6.66699 147.999 -20l52 114c6 15.333 17.667 23 35 23h98
c11.333 0 19.166 -3.5 23.499 -10.5s4.16602 -15.833 -0.500977 -26.5zM307.001 499.998c0 -57.333 12.3311 -111 36.998 -161s58.334 -91.333 101.001 -124l286 632c-26 5.33301 -51.333 8 -76 8c-97.333 0 -179.666 -34.667 -246.999 -104s-101 -153 -101 -251z
M654.999 144.998c97.333 0 179.501 34.335 246.501 103.002s100.5 152.667 100.5 252c0 57.333 -12.167 110.666 -36.5 159.999s-57.833 90.666 -100.5 123.999l-286 -630c25.333 -6 50.666 -9 75.999 -9z" />
    <glyph glyph-name="ugrave" unicode="&#xf9;" horiz-adv-x="1240" 
d="M524 1141l-123 258c-4.66699 10.667 -4.5 19.167 0.5 25.5s13.167 9.5 24.5 9.5h98c16 0 27.667 -8.33301 35 -25l123 -258c4.66699 -10.667 4.66699 -19.167 0 -25.5s-13 -9.5 -25 -9.5h-98c-16 0 -27.667 8.33301 -35 25zM1046 1004
c8.66699 0 15.8359 -2.83398 21.5029 -8.50098s8.5 -13.167 8.5 -22.5v-942c0 -9.33301 -2.83301 -16.833 -8.5 -22.5s-12.834 -8.5 -21.501 -8.5h-115c-18.667 0 -29 10.333 -31 31l-8 139h-21c-33.333 -54.667 -79.833 -100.5 -139.5 -137.5s-129.5 -55.5 -209.5 -55.5
c-113.333 0 -203 35 -269 105s-99 170.667 -99 302v589c0 9.33301 2.66699 16.833 8 22.5s12.666 8.5 21.999 8.5h123c9.33301 0 16.833 -2.83301 22.5 -8.5s8.5 -13.167 8.5 -22.5v-569c0 -86.667 21.667 -151.667 65 -195s106.333 -65 189 -65
c46.667 0 90.167 9.83301 130.5 29.5s72.166 42.834 95.499 69.501s41.5 51.667 54.5 75s19.5 41.333 19.5 54v601c0 9.33301 2.83301 16.833 8.5 22.5s13.167 8.5 22.5 8.5h123z" />
    <glyph glyph-name="uacute" unicode="&#xfa;" horiz-adv-x="1240" 
d="M571 1116c-11.333 0 -19.333 3.16699 -24 9.5s-4.66699 14.833 0 25.5l123 258c7.33301 16.667 19 25 35 25h98c11.333 0 19.5 -3.16699 24.5 -9.5s4.83301 -14.833 -0.5 -25.5l-122 -258c-7.33301 -16.667 -19 -25 -35 -25h-99zM1046 1004
c8.66699 0 15.8359 -2.83398 21.5029 -8.50098s8.5 -13.167 8.5 -22.5v-942c0 -9.33301 -2.83301 -16.833 -8.5 -22.5s-12.834 -8.5 -21.501 -8.5h-115c-18.667 0 -29 10.333 -31 31l-8 139h-21c-33.333 -54.667 -79.833 -100.5 -139.5 -137.5s-129.5 -55.5 -209.5 -55.5
c-113.333 0 -203 35 -269 105s-99 170.667 -99 302v589c0 9.33301 2.66699 16.833 8 22.5s12.666 8.5 21.999 8.5h123c9.33301 0 16.833 -2.83301 22.5 -8.5s8.5 -13.167 8.5 -22.5v-569c0 -86.667 21.667 -151.667 65 -195s106.333 -65 189 -65
c46.667 0 90.167 9.83301 130.5 29.5s72.166 42.834 95.499 69.501s41.5 51.667 54.5 75s19.5 41.333 19.5 54v601c0 9.33301 2.83301 16.833 8.5 22.5s13.167 8.5 22.5 8.5h123z" />
    <glyph glyph-name="ucircumflex" unicode="&#xfb;" horiz-adv-x="1240" 
d="M274 1156c-12.667 0 -20.667 3.83301 -24 11.5s-1 16.167 7 25.5l232 261c9.33301 10.667 21.666 16 36.999 16h179c16.667 0 28.667 -5.33301 36 -16l233 -261c8 -9.33301 10.5 -17.833 7.5 -25.5s-11.167 -11.5 -24.5 -11.5h-127c-13.333 0 -25.333 5.33301 -36 16
l-179 177l-177 -177c-11.333 -10.667 -23.666 -16 -36.999 -16h-127zM1046 1004c8.66699 0 15.8359 -2.83398 21.5029 -8.50098s8.5 -13.167 8.5 -22.5v-942c0 -9.33301 -2.83301 -16.833 -8.5 -22.5s-12.834 -8.5 -21.501 -8.5h-115c-18.667 0 -29 10.333 -31 31l-8 139
h-21c-33.333 -54.667 -79.833 -100.5 -139.5 -137.5s-129.5 -55.5 -209.5 -55.5c-113.333 0 -203 35 -269 105s-99 170.667 -99 302v589c0 9.33301 2.66699 16.833 8 22.5s12.666 8.5 21.999 8.5h123c9.33301 0 16.833 -2.83301 22.5 -8.5s8.5 -13.167 8.5 -22.5v-569
c0 -86.667 21.667 -151.667 65 -195s106.333 -65 189 -65c46.667 0 90.167 9.83301 130.5 29.5s72.166 42.834 95.499 69.501s41.5 51.667 54.5 75s19.5 41.333 19.5 54v601c0 9.33301 2.83301 16.833 8.5 22.5s13.167 8.5 22.5 8.5h123z" />
    <glyph glyph-name="udieresis" unicode="&#xfc;" horiz-adv-x="1240" 
d="M420 1250c-28 0 -52.167 10.167 -72.5 30.5s-30.5 44.833 -30.5 73.5c0 27.333 10.167 50.833 30.5 70.5s44.5 29.5 72.5 29.5s52 -9.83301 72 -29.5s30 -43.167 30 -70.5c0 -28.667 -10 -53.167 -30 -73.5s-44 -30.5 -72 -30.5zM813 1250c-28 0 -52 10.167 -72 30.5
s-30 44.833 -30 73.5c0 27.333 10 50.833 30 70.5s44 29.5 72 29.5s52 -9.83301 72 -29.5s30 -43.167 30 -70.5c0 -28.667 -10 -53.167 -30 -73.5s-44 -30.5 -72 -30.5zM1046 1004c8.66699 0 15.8359 -2.83398 21.5029 -8.50098s8.5 -13.167 8.5 -22.5v-942
c0 -9.33301 -2.83301 -16.833 -8.5 -22.5s-12.834 -8.5 -21.501 -8.5h-115c-18.667 0 -29 10.333 -31 31l-8 139h-21c-33.333 -54.667 -79.833 -100.5 -139.5 -137.5s-129.5 -55.5 -209.5 -55.5c-113.333 0 -203 35 -269 105s-99 170.667 -99 302v589
c0 9.33301 2.66699 16.833 8 22.5s12.666 8.5 21.999 8.5h123c9.33301 0 16.833 -2.83301 22.5 -8.5s8.5 -13.167 8.5 -22.5v-569c0 -86.667 21.667 -151.667 65 -195s106.333 -65 189 -65c46.667 0 90.167 9.83301 130.5 29.5s72.166 42.834 95.499 69.501
s41.5 51.667 54.5 75s19.5 41.333 19.5 54v601c0 9.33301 2.83301 16.833 8.5 22.5s13.167 8.5 22.5 8.5h123z" />
    <glyph glyph-name="yacute" unicode="&#xfd;" horiz-adv-x="1231" 
d="M803 1434c11.333 0 19.5 -3.16699 24.5 -9.5s4.83301 -14.833 -0.5 -25.5l-122 -258c-7.33301 -16.667 -19 -25 -35 -25h-99c-11.333 0 -19.333 3.16699 -24 9.5s-4.66699 14.833 0 25.5l123 258c7.33301 16.667 19 25 35 25h98zM1101 1004
c11.333 0 19.501 -3.16699 24.501 -9.5s4.83301 -14.833 -0.5 -25.5l-567 -1334c-7.33301 -16.667 -19.666 -24.667 -36.999 -24h-124c-11.333 0 -19.333 3 -24 9s-4.66699 14.667 0 26l149 352l-416 971c-4.66699 10.667 -4.5 19.167 0.5 25.5s13.167 9.5 24.5 9.5h124
c17.333 0 29.666 -8.33301 36.999 -25l323 -774l325 774c7.33301 16.667 19.666 25 36.999 25h124z" />
    <glyph glyph-name="thorn" unicode="&#xfe;" horiz-adv-x="1285" 
d="M692 1025c144 0 257.501 -49.168 340.501 -147.501s124.5 -224.166 124.5 -377.499c0 -100 -18.333 -189.5 -55 -268.5s-90.667 -141.667 -162 -188s-154 -69.5 -248 -69.5c-144.667 0 -259.334 54.333 -344.001 163v-495c0 -9.33301 -2.66699 -16.833 -8 -22.5
s-13 -8.5 -23 -8.5h-122c-9.33301 0 -16.833 2.66699 -22.5 8s-8.5 13 -8.5 23v1761c0 9.33301 2.66699 16.833 8 22.5s13 8.5 23 8.5h122c9.33301 0 16.833 -2.83301 22.5 -8.5s8.5 -13.167 8.5 -22.5v-562h20c30 55.333 72 99.833 126 133.5s120 50.5 198 50.5z
M659.001 144.999c102 0 180.667 32.501 236 97.501s83 151.5 83 259.5s-27.5 193.667 -82.5 257s-133.833 95 -236.5 95c-94.667 0 -170.834 -32.333 -228.501 -97s-86.5 -149.834 -86.5 -255.501s28.833 -191.5 86.5 -257.5s133.834 -99 228.501 -99z" />
    <glyph glyph-name="ydieresis" unicode="&#xff;" horiz-adv-x="1231" 
d="M420 1250c-28 0 -52.167 10.167 -72.5 30.5s-30.5 44.833 -30.5 73.5c0 27.333 10.167 50.833 30.5 70.5s44.5 29.5 72.5 29.5s52 -9.83301 72 -29.5s30 -43.167 30 -70.5c0 -28.667 -10 -53.167 -30 -73.5s-44 -30.5 -72 -30.5zM813 1250c-28 0 -52 10.167 -72 30.5
s-30 44.833 -30 73.5c0 27.333 10 50.833 30 70.5s44 29.5 72 29.5s52 -9.83301 72 -29.5s30 -43.167 30 -70.5c0 -28.667 -10 -53.167 -30 -73.5s-44 -30.5 -72 -30.5zM1101 1004c11.333 0 19.501 -3.16699 24.501 -9.5s4.83301 -14.833 -0.5 -25.5l-567 -1334
c-7.33301 -16.667 -19.666 -24.667 -36.999 -24h-124c-11.333 0 -19.333 3 -24 9s-4.66699 14.667 0 26l149 352l-416 971c-4.66699 10.667 -4.5 19.167 0.5 25.5s13.167 9.5 24.5 9.5h124c17.333 0 29.666 -8.33301 36.999 -25l323 -774l325 774
c7.33301 16.667 19.666 25 36.999 25h124z" />
    <glyph glyph-name="Amacron" unicode="&#x100;" horiz-adv-x="1402" 
d="M440 1711c-9.33301 0 -16.666 3 -21.999 9s-8 13.333 -8 22v87c0 9.33301 2.66699 16.833 8 22.5s12.666 8.5 21.999 8.5h523c9.33301 0 16.666 -2.83301 21.999 -8.5s8 -13.167 8 -22.5v-87c0 -8.66699 -2.66699 -16 -8 -22s-12.666 -9 -21.999 -9h-523zM1323 35
c4 -10 3.83105 -18.333 -0.501953 -25s-12.5 -10 -24.5 -10h-132c-17.333 -0 -28.666 8.33301 -33.999 25l-102 275h-657l-102 -275c-6 -16.667 -17.333 -25 -34 -25h-133c-11.333 0 -19.166 3.16699 -23.499 9.5s-4.5 14.833 -0.5 25.5l520 1374c6 16.667 18.333 25 37 25
h129c18.667 0 31 -8.33301 37 -25zM434.998 469h533l-267 725z" />
    <glyph glyph-name="amacron" unicode="&#x101;" horiz-adv-x="1266" 
d="M368 1281c-8.66699 0 -16 2.83301 -22 8.5s-9 13.167 -9 22.5v87c0 9.33301 2.83301 16.833 8.5 22.5s13.167 8.5 22.5 8.5h522c8.66699 0 16 -2.83301 22 -8.5s9 -13.167 9 -22.5v-87c0 -8.66699 -3 -16 -9 -22s-13.333 -9 -22 -9h-522zM1128 153
c12.667 -2 21.8359 -5.83398 27.5029 -11.501s8.5 -14.167 8.5 -25.5v-88c0 -23.333 -17.667 -35.333 -53 -36c-136.667 -4.66699 -205 50.333 -205 165h-4c-56.667 -60 -125.5 -105.333 -206.5 -136s-159.5 -46 -235.5 -46c-111.333 0 -195.333 25.5 -252 76.5
s-85 120.5 -85 208.5c0 86 27.167 153.833 81.5 203.5s137.5 82.834 249.5 99.501l283 43c44 6 76.167 12.5 96.5 19.5s32.833 15.833 37.5 26.5c-0.666992 76.667 -21.334 131.667 -62.001 165s-101.334 50 -182.001 50c-164 0 -253.667 -51.667 -269 -155
c-2 -16 -11.667 -24 -29 -24h-119c-21.333 0 -31 10.333 -29 31c21.333 204.667 170.333 307 447 307c143.333 0 249.666 -32 318.999 -96s104 -156 104 -276v-418c-0.666992 -47.333 25 -75 77 -83zM308.002 279.999c0 -45.333 15 -80.668 45 -106.001s76.667 -38 140 -38
c152.667 0 278.667 49.667 378 149v231c-4 -9.33301 -14.333 -17 -31 -23s-43.667 -12 -81 -18l-263 -41c-68.667 -10.667 -117.167 -28.667 -145.5 -54s-42.5 -58.666 -42.5 -99.999z" />
    <glyph glyph-name="Abreve" unicode="&#x102;" horiz-adv-x="1402" 
d="M701 1577c-86.667 0 -156.5 24.833 -209.5 74.5s-83.5 113.5 -91.5 191.5c-2 20.667 7.66699 31 29 31h70c18 0 28.667 -9.66699 32 -29c8 -38.667 27 -70.834 57 -96.501s67.667 -38.5 113 -38.5c46.667 0 84.834 12.833 114.501 38.5s48.5 57.834 56.5 96.501
c4 19.333 15 29 33 29h69c22 0 32 -10.333 30 -31c-8 -78 -38.833 -141.833 -92.5 -191.5s-123.834 -74.5 -210.501 -74.5zM1323 35c4 -10 3.83105 -18.333 -0.501953 -25s-12.5 -10 -24.5 -10h-132c-17.333 -0 -28.666 8.33301 -33.999 25l-102 275h-657l-102 -275
c-6 -16.667 -17.333 -25 -34 -25h-133c-11.333 0 -19.166 3.16699 -23.499 9.5s-4.5 14.833 -0.5 25.5l520 1374c6 16.667 18.333 25 37 25h129c18.667 0 31 -8.33301 37 -25zM434.998 469h533l-267 725z" />
    <glyph glyph-name="abreve" unicode="&#x103;" horiz-adv-x="1266" 
d="M629 1147c-86.667 0 -156.668 24.833 -210.001 74.5s-83.666 113.5 -90.999 191.5c-2 20.667 7.33301 31 28 31h70c18 0 29 -9.66699 33 -29c8 -38.667 26.833 -70.834 56.5 -96.501s67.5 -38.5 113.5 -38.5c46.667 0 84.667 12.833 114 38.5s48.333 57.834 57 96.501
c4 19.333 15 29 33 29h68c22 0 32 -10.333 30 -31c-8 -78 -38.667 -141.833 -92 -191.5s-123.333 -74.5 -210 -74.5zM1128 153c12.667 -2 21.8359 -5.83398 27.5029 -11.501s8.5 -14.167 8.5 -25.5v-88c0 -23.333 -17.667 -35.333 -53 -36
c-136.667 -4.66699 -205 50.333 -205 165h-4c-56.667 -60 -125.5 -105.333 -206.5 -136s-159.5 -46 -235.5 -46c-111.333 0 -195.333 25.5 -252 76.5s-85 120.5 -85 208.5c0 86 27.167 153.833 81.5 203.5s137.5 82.834 249.5 99.501l283 43c44 6 76.167 12.5 96.5 19.5
s32.833 15.833 37.5 26.5c-0.666992 76.667 -21.334 131.667 -62.001 165s-101.334 50 -182.001 50c-164 0 -253.667 -51.667 -269 -155c-2 -16 -11.667 -24 -29 -24h-119c-21.333 0 -31 10.333 -29 31c21.333 204.667 170.333 307 447 307
c143.333 0 249.666 -32 318.999 -96s104 -156 104 -276v-418c-0.666992 -47.333 25 -75 77 -83zM308.001 279.999c0 -45.333 15 -80.668 45 -106.001s76.667 -38 140 -38c152.667 0 278.667 49.667 378 149v231c-4 -9.33301 -14.333 -17 -31 -23s-43.667 -12 -81 -18
l-263 -41c-68.667 -10.667 -117.167 -28.667 -145.5 -54s-42.5 -58.666 -42.5 -99.999z" />
    <glyph glyph-name="Aogonek" unicode="&#x104;" horiz-adv-x="1402" 
d="M1323 35c4 -10 3.83398 -18.3311 -0.499023 -24.998s-12.5 -10 -24.5 -10h-62c-66 -4.66699 -119.333 -25 -160 -61s-61 -75.333 -61 -118c0 -41.333 14.5 -71.333 43.5 -90s69.833 -22.334 122.5 -11.001v-126c-20.667 -9.33301 -44.834 -15.333 -72.501 -18
s-56.334 -0.833984 -86.001 5.49902s-57 16.833 -82 31.5s-45.5 36.834 -61.5 66.501s-24 64.167 -24 103.5c0 36.667 7.5 71 22.5 103s35.5 59.5 61.5 82.5s53.5 42.667 82.5 59s60.167 30.166 93.5 41.499l-85 231h-657l-102 -275c-6 -16.667 -17.333 -25 -34 -25h-133
c-11.333 0 -19.166 3.16699 -23.499 9.5s-4.5 14.833 -0.5 25.5l520 1374c6 16.667 18.333 25 37 25h129c18.667 0 31 -8.33301 37 -25zM435.001 469.002h533l-267 725z" />
    <glyph glyph-name="aogonek" unicode="&#x105;" horiz-adv-x="1266" 
d="M1128 153c12.667 -2 21.8359 -5.83496 27.5029 -11.502s8.5 -14.167 8.5 -25.5v-88c0 -18.667 -10.667 -30 -32 -34v-2c-68 0 -122.167 -18.667 -162.5 -56s-60.5 -78.333 -60.5 -123c0 -41.333 14.5 -71.333 43.5 -90s69.833 -22.334 122.5 -11.001v-126
c-26 -11.333 -56.833 -17.166 -92.5 -17.499s-71.167 5.16699 -106.5 16.5s-65 33.5 -89 66.5s-36 74.167 -36 123.5c0 59.333 18.167 111.333 54.5 156s83.5 80.334 141.5 107.001c-27.333 27.333 -41 67 -41 119h-4c-56.667 -60 -125.5 -105.333 -206.5 -136
s-159.5 -46 -235.5 -46c-111.333 0 -195.333 25.5 -252 76.5s-85 120.5 -85 208.5c0 86 27.167 153.833 81.5 203.5s137.5 82.834 249.5 99.501l283 43c44 6 76.167 12.5 96.5 19.5s32.833 15.833 37.5 26.5c-0.666992 76.667 -21.334 131.667 -62.001 165
s-101.334 50 -182.001 50c-164 0 -253.667 -51.667 -269 -155c-2 -16 -11.667 -24 -29 -24h-119c-21.333 0 -31 10.333 -29 31c21.333 204.667 170.333 307 447 307c143.333 0 249.666 -32 318.999 -96s104 -156 104 -276v-418c-0.666992 -47.333 25 -75 77 -83z
M308.002 279.998c0 -45.333 15 -80.668 45 -106.001s76.667 -38 140 -38c152.667 0 278.667 49.667 378 149v231c-4 -9.33301 -14.333 -17 -31 -23s-43.667 -12 -81 -18l-263 -41c-68.667 -10.667 -117.167 -28.667 -145.5 -54s-42.5 -58.666 -42.5 -99.999z" />
    <glyph glyph-name="Cacute" unicode="&#x106;" horiz-adv-x="1475" 
d="M1009 1864c11.333 0 19.333 -3.16699 24 -9.5s4.66699 -14.833 0 -25.5l-123 -258c-7.33301 -16.667 -18.666 -25 -33.999 -25h-99c-11.333 0 -19.5 3.16699 -24.5 9.5s-4.83301 14.833 0.5 25.5l123 258c7.33301 16.667 18.666 25 33.999 25h99zM1266 299
l82.002 -86.0029c14.667 -14.667 14.334 -29 -0.999023 -43c-137.333 -131.333 -300.333 -197 -489 -197c-100.667 0 -195.834 19.333 -285.501 58s-166.5 91 -230.5 157s-114.833 144.333 -152.5 235s-56.5 186.667 -56.5 288c0 136 32 260.333 96 373
s151.333 201.834 262 267.501s233 98.5 367 98.5c184 0 347 -65.333 489 -196c15.333 -14.667 15.666 -29 0.999023 -43l-82 -87c-12.667 -12.667 -27 -12.667 -43 0c-109.333 92.667 -231 139.334 -365 140.001c-96.667 0 -185.5 -24 -266.5 -72s-145 -114.333 -192 -199
s-70.5 -178.667 -70.5 -282c0 -102.667 23.5 -196.167 70.5 -280.5s111 -150.333 192 -198s169.833 -71.5 266.5 -71.5c135.333 0 257 46.333 365 139c15.333 12.667 29.666 12.334 42.999 -0.999023z" />
    <glyph glyph-name="cacute" unicode="&#x107;" horiz-adv-x="1204" 
d="M808 1434c11.333 0 19.5 -3.16699 24.5 -9.5s5.16699 -14.833 0.5 -25.5l-123 -258c-7.33301 -16.667 -19 -25 -35 -25h-98c-11.333 0 -19.5 3.16699 -24.5 9.5s-5.16699 14.833 -0.5 25.5l123 258c7.33301 16.667 19 25 35 25h98zM655 145
c119.333 0 213.665 45.6699 282.998 137.003c10.667 15.333 24.334 17.666 41.001 6.99902l91 -53c18 -10.667 21 -24.334 9 -41.001c-46 -68.667 -106.167 -122.834 -180.5 -162.501s-156.5 -59.5 -246.5 -59.5c-150.667 0 -275.667 50.333 -375 151s-149 226 -149 376
s49.667 275.167 149 375.5s224.333 150.5 375 150.5c90 0 172.333 -19.667 247 -59s134.667 -93 180 -161c11.333 -17.333 8.33301 -31.333 -9 -42l-91 -53c-16 -9.33301 -29.667 -7 -41 7c-69.333 91.333 -163.666 137 -282.999 137c-101.333 0 -184.5 -33 -249.5 -99
s-97.5 -151.333 -97.5 -256s32.5 -190 97.5 -256s148.167 -99 249.5 -99z" />
    <glyph glyph-name="Cdotaccent" unicode="&#x10a;" horiz-adv-x="1475" 
d="M821 1670c-28 0 -52 10.167 -72 30.5s-30 44.833 -30 73.5c0 27.333 10 50.833 30 70.5s44 29.5 72 29.5s52.167 -9.83301 72.5 -29.5s30.5 -43.167 30.5 -70.5c0 -28.667 -10.167 -53.167 -30.5 -73.5s-44.5 -30.5 -72.5 -30.5zM1266 299l82.002 -86.0029
c14.667 -14.667 14.334 -29 -0.999023 -43c-137.333 -131.333 -300.333 -197 -489 -197c-100.667 0 -195.834 19.333 -285.501 58s-166.5 91 -230.5 157s-114.833 144.333 -152.5 235s-56.5 186.667 -56.5 288c0 136 32 260.333 96 373s151.333 201.834 262 267.501
s233 98.5 367 98.5c184 0 347 -65.333 489 -196c15.333 -14.667 15.666 -29 0.999023 -43l-82 -87c-12.667 -12.667 -27 -12.667 -43 0c-109.333 92.667 -231 139.334 -365 140.001c-96.667 0 -185.5 -24 -266.5 -72s-145 -114.333 -192 -199s-70.5 -178.667 -70.5 -282
c0 -102.667 23.5 -196.167 70.5 -280.5s111 -150.333 192 -198s169.833 -71.5 266.5 -71.5c135.333 0 257 46.333 365 139c15.333 12.667 29.666 12.334 42.999 -0.999023z" />
    <glyph glyph-name="cdotaccent" unicode="&#x10b;" horiz-adv-x="1204" 
d="M621 1240c-28 0 -52.167 10 -72.5 30s-30.5 44.333 -30.5 73c0 27.333 10.167 51 30.5 71s44.5 30 72.5 30s52 -10 72 -30s30 -43.667 30 -71c0 -28.667 -10 -53 -30 -73s-44 -30 -72 -30zM655 145c119.333 0 213.665 45.6699 282.998 137.003
c10.667 15.333 24.334 17.666 41.001 6.99902l91 -53c18 -10.667 21 -24.334 9 -41.001c-46 -68.667 -106.167 -122.834 -180.5 -162.501s-156.5 -59.5 -246.5 -59.5c-150.667 0 -275.667 50.333 -375 151s-149 226 -149 376s49.667 275.167 149 375.5
s224.333 150.5 375 150.5c90 0 172.333 -19.667 247 -59s134.667 -93 180 -161c11.333 -17.333 8.33301 -31.333 -9 -42l-91 -53c-16 -9.33301 -29.667 -7 -41 7c-69.333 91.333 -163.666 137 -282.999 137c-101.333 0 -184.5 -33 -249.5 -99s-97.5 -151.333 -97.5 -256
s32.5 -190 97.5 -256s148.167 -99 249.5 -99z" />
    <glyph glyph-name="Ccaron" unicode="&#x10c;" horiz-adv-x="1475" 
d="M910 1586l-178.001 -0.000976562c-15.333 0 -27.666 5.66699 -36.999 17l-232 261c-8 9.33301 -10.333 17.833 -7 25.5s11.333 11.5 24 11.5h127c12.667 0 25 -5.66699 37 -17l177 -176l178 176c10.667 10.667 23 16.334 37 17.001h127
c12.667 0 20.667 -3.83301 24 -11.5s1 -16.167 -7 -25.5l-233 -261c-8 -11.333 -20.333 -17 -37 -17zM1266 298.999l82.002 -86.0029c14.667 -14.667 14.334 -29 -0.999023 -43c-137.333 -131.333 -300.333 -197 -489 -197c-100.667 0 -195.834 19.333 -285.501 58
s-166.5 91 -230.5 157s-114.833 144.333 -152.5 235s-56.5 186.667 -56.5 288c0 136 32 260.333 96 373s151.333 201.834 262 267.501s233 98.5 367 98.5c184 0 347 -65.333 489 -196c15.333 -14.667 15.666 -29 0.999023 -43l-82 -87c-12.667 -12.667 -27 -12.667 -43 0
c-109.333 92.667 -231 139.334 -365 140.001c-96.667 0 -185.5 -24 -266.5 -72s-145 -114.333 -192 -199s-70.5 -178.667 -70.5 -282c0 -102.667 23.5 -196.167 70.5 -280.5s111 -150.333 192 -198s169.833 -71.5 266.5 -71.5c135.333 0 257 46.333 365 139
c15.333 12.667 29.666 12.334 42.999 -0.999023z" />
    <glyph glyph-name="ccaron" unicode="&#x10d;" horiz-adv-x="1204" 
d="M710 1156h-178.999c-15.333 0 -27.333 5.33301 -36 16l-233 262c-8 9.33301 -10.333 17.666 -7 24.999s11.666 11 24.999 11h127c12.667 0 24.667 -5.33301 36 -16l178 -176l178 176c10.667 10.667 23 16 37 16h127c12.667 0 20.5 -3.66699 23.5 -11
s0.5 -15.666 -7.5 -24.999l-233 -262c-7.33301 -10.667 -19.333 -16 -36 -16zM655.001 145c119.333 0 213.665 45.6699 282.998 137.003c10.667 15.333 24.334 17.666 41.001 6.99902l91 -53c18 -10.667 21 -24.334 9 -41.001
c-46 -68.667 -106.167 -122.834 -180.5 -162.501s-156.5 -59.5 -246.5 -59.5c-150.667 0 -275.667 50.333 -375 151s-149 226 -149 376s49.667 275.167 149 375.5s224.333 150.5 375 150.5c90 0 172.333 -19.667 247 -59s134.667 -93 180 -161
c11.333 -17.333 8.33301 -31.333 -9 -42l-91 -53c-16 -9.33301 -29.667 -7 -41 7c-69.333 91.333 -163.666 137 -282.999 137c-101.333 0 -184.5 -33 -249.5 -99s-97.5 -151.333 -97.5 -256s32.5 -190 97.5 -256s148.167 -99 249.5 -99z" />
    <glyph glyph-name="Dcaron" unicode="&#x10e;" horiz-adv-x="1395" 
d="M595 1603l-232.999 260.999c-8 9.33301 -10.333 17.833 -7 25.5s11.666 11.5 24.999 11.5h127c12.667 0 25 -5.66699 37 -17l177 -176l178 176c10.667 10.667 23 16.334 37 17.001h127c12.667 0 20.667 -3.83301 24 -11.5s0.666016 -16.167 -8.00098 -25.5l-232 -261
c-8 -10.667 -20.333 -16.334 -37 -17.001h-178c-15.333 0.666992 -27.666 6.33398 -36.999 17.001zM548.001 1434c121.333 0 229.999 -18.333 325.999 -55s174.667 -87.5 236 -152.5s108 -140.667 140 -227s48 -180.5 48 -282.5s-16 -196.167 -48 -282.5
s-78.667 -162 -140 -227s-140.166 -115.833 -236.499 -152.5s-204.833 -55 -325.5 -55h-343c-9.33301 0 -16.833 2.66699 -22.5 8s-8.5 13 -8.5 23v1372c0 9.33301 2.66699 16.833 8 22.5s13 8.5 23 8.5h343zM548 173.999c182.667 0 321 47.5 415 142.5s141 228.5 141 400.5
s-47 305.5 -141 400.5s-232.333 142.5 -415 142.5h-182v-1086h182z" />
    <glyph glyph-name="dcaron" unicode="&#x10f;" 
d="M1540 1653c11.333 0 19.5 -3.16699 24.5 -9.5s5.16699 -14.833 0.5 -25.5l-123 -258c-7.33301 -16.667 -19 -25 -35 -25h-98c-11.333 0 -19.5 3.16699 -24.5 9.5s-5.16699 14.833 -0.5 25.5l123 258c7.33301 16.667 19 25 35 25h98zM1106 1434
c9.33301 0 16.833 -2.83301 22.5 -8.5s8.5 -13.167 8.5 -22.5v-1372c0 -9.33301 -2.83301 -16.833 -8.5 -22.5s-13.167 -8.5 -22.5 -8.5h-112c-18.667 -0 -28.667 10.333 -30 31l-9 107c-86 -110 -203 -165 -351 -165c-142 0 -256.833 49.833 -344.5 149.5
s-131.5 225.5 -131.5 377.5c0 152.667 43.167 278.5 129.5 377.5s201.833 148.5 346.5 148.5c82 0 150.667 -17 206 -51s97 -78.667 125 -134h17v562c0 9.33301 2.83301 16.833 8.5 22.5s13.167 8.5 22.5 8.5h123zM637 144c98 0 176.667 33.167 236 99.5s89 152.5 89 258.5
c0 106.667 -29.5 192.334 -88.5 257.001s-137.833 97 -236.5 97c-102 0 -182.5 -32.333 -241.5 -97s-88.5 -150.334 -88.5 -257.001s29.5 -193 88.5 -259s139.5 -99 241.5 -99z" />
    <glyph glyph-name="Dcroat" unicode="&#x110;" 
d="M528 1434c121.333 0 230 -18.332 326 -54.999s174.833 -87.5 236.5 -152.5s108.5 -140.667 140.5 -227s48 -180.5 48 -282.5s-16 -196.167 -48 -282.5s-78.833 -162 -140.5 -227s-140.5 -115.833 -236.5 -152.5s-204.667 -55 -326 -55h-343
c-8.66699 0 -15.834 2.66699 -21.501 8s-8.5 13 -8.5 23v609h-28c-9.33301 0 -16.833 2.83301 -22.5 8.5s-8.5 13.167 -8.5 22.5v87c0 9.33301 2.83301 16.666 8.5 21.999s13.167 8 22.5 8h28v615c0 9.33301 2.83301 16.833 8.5 22.5s12.834 8.5 21.501 8.5h343z
M528 174.001c182.667 0 321 47.499 415 142.499s141 228.5 141 400.5s-46.833 305.5 -140.5 400.5s-232.167 142.5 -415.5 142.5h-182v-472h303c9.33301 0 16.833 -2.66699 22.5 -8s8.5 -12.666 8.5 -21.999v-87c0 -8.66699 -2.66699 -16 -8 -22s-13 -9 -23 -9h-303v-466
h182z" />
    <glyph glyph-name="dcroat" unicode="&#x111;" 
d="M1198 1308c9.33301 0 16.833 -3 22.5 -9s8.5 -13.333 8.5 -22v-87c0 -9.33301 -2.83301 -16.833 -8.5 -22.5s-13.167 -8.5 -22.5 -8.5h-61v-1128c0 -9.33301 -2.83301 -16.833 -8.5 -22.5s-13.167 -8.5 -22.5 -8.5h-112c-18.667 -0 -28.667 10.333 -30 31l-9 107
c-86 -110 -203 -165 -351 -165c-142 0 -256.833 49.833 -344.5 149.5s-131.5 225.5 -131.5 377.5c0 152.667 43.167 278.5 129.5 377.5s201.833 148.5 346.5 148.5c82 0 150.667 -17 206 -51s97 -78.667 125 -134h17v318h-276c-9.33301 0 -16.833 2.83301 -22.5 8.5
s-8.5 13.167 -8.5 22.5v87c0 8.66699 2.83301 16 8.5 22s13.167 9 22.5 9h276v95c0 9.33301 2.83301 16.833 8.5 22.5s13.167 8.5 22.5 8.5h123c9.33301 0 16.833 -2.83301 22.5 -8.5s8.5 -13.167 8.5 -22.5v-95h61zM637 144c98 0 176.667 33.167 236 99.5
s89 152.5 89 258.5c0 106.667 -29.5 192.334 -88.5 257.001s-137.833 97 -236.5 97c-102 0 -182.5 -32.333 -241.5 -97s-88.5 -150.334 -88.5 -257.001s29.5 -193 88.5 -259s139.5 -99 241.5 -99z" />
    <glyph glyph-name="Emacron" unicode="&#x112;" horiz-adv-x="1249" 
d="M899 1860c9.33301 0 16.833 -2.83301 22.5 -8.5s8.5 -13.167 8.5 -22.5v-87c0 -8.66699 -2.83301 -16 -8.5 -22s-13.167 -9 -22.5 -9h-522c-9.33301 0 -16.833 3 -22.5 9s-8.5 13.333 -8.5 22v87c0 9.33301 2.66699 16.833 8 22.5s13 8.5 23 8.5h522zM1080 174
c8.66699 0 16 -2.66797 22 -8.00098s9 -13 9 -23v-112c0 -9.33301 -2.83301 -16.833 -8.5 -22.5s-13.167 -8.5 -22.5 -8.5h-875c-9.33301 0 -16.833 2.66699 -22.5 8s-8.5 13 -8.5 23v1372c0 9.33301 2.66699 16.833 8 22.5s13 8.5 23 8.5h873
c8.66699 0 16 -2.83301 22 -8.5s9 -13.167 9 -22.5v-113c0 -9.33301 -2.83301 -16.666 -8.5 -21.999s-13.167 -8 -22.5 -8h-712v-425h658c9.33301 0 16.833 -3 22.5 -9s8.5 -13.333 8.5 -22v-113c0 -8.66699 -2.83301 -16 -8.5 -22s-13.167 -9 -22.5 -9h-658v-486h714z" />
    <glyph glyph-name="emacron" unicode="&#x113;" horiz-adv-x="1241" 
d="M359 1281c-8.66699 0 -15.834 2.83301 -21.501 8.5s-8.5 13.167 -8.5 22.5v87c0 9.33301 2.83301 16.833 8.5 22.5s12.834 8.5 21.501 8.5h523c8.66699 0 15.834 -2.83301 21.501 -8.5s8.5 -13.167 8.5 -22.5v-87c0 -8.66699 -2.83301 -16 -8.5 -22
s-12.834 -9 -21.501 -9h-523zM634 1026c96 0 181 -23.168 255 -69.501s129.833 -106.666 167.5 -180.999s56.5 -156.166 56.5 -245.499c0 -39.333 -3.83301 -67 -11.5 -83s-24.5 -24 -50.5 -24h-743c11.333 -88 49.833 -159 115.5 -213s148.167 -81 247.5 -81
c98 0 186 31.667 264 95c17.333 13.333 32 14.333 44 3l53 -53c16 -16.667 16.333 -32.334 1 -47.001c-104 -102.667 -231.333 -154 -382 -154c-154.667 0 -280.5 50.167 -377.5 150.5s-145.5 225.833 -145.5 376.5c0 97.333 21.167 186 63.5 266s102.333 143.333 180 190
s165.167 70 262.5 70zM634 865.999c-86.667 0 -159.667 -27.833 -219 -83.5s-95 -128.5 -107 -218.5h643c-6 88.667 -38.167 161.167 -96.5 217.5s-131.833 84.5 -220.5 84.5z" />
    <glyph glyph-name="Edotaccent" unicode="&#x116;" horiz-adv-x="1249" 
d="M638 1670c-28 0 -52 10.167 -72 30.5s-30 44.833 -30 73.5c0 27.333 10 50.833 30 70.5s44 29.5 72 29.5s52 -9.83301 72 -29.5s30 -43.167 30 -70.5c0 -28.667 -10 -53.167 -30 -73.5s-44 -30.5 -72 -30.5zM1080 174c8.66699 0 16 -2.66797 22 -8.00098s9 -13 9 -23
v-112c0 -9.33301 -2.83301 -16.833 -8.5 -22.5s-13.167 -8.5 -22.5 -8.5h-875c-9.33301 0 -16.833 2.66699 -22.5 8s-8.5 13 -8.5 23v1372c0 9.33301 2.66699 16.833 8 22.5s13 8.5 23 8.5h873c8.66699 0 16 -2.83301 22 -8.5s9 -13.167 9 -22.5v-113
c0 -9.33301 -2.83301 -16.666 -8.5 -21.999s-13.167 -8 -22.5 -8h-712v-425h658c9.33301 0 16.833 -3 22.5 -9s8.5 -13.333 8.5 -22v-113c0 -8.66699 -2.83301 -16 -8.5 -22s-13.167 -9 -22.5 -9h-658v-486h714z" />
    <glyph glyph-name="edotaccent" unicode="&#x117;" horiz-adv-x="1241" 
d="M621 1240c-28 0 -52.167 10 -72.5 30s-30.5 44.333 -30.5 73c0 27.333 10.167 51 30.5 71s44.5 30 72.5 30s52 -10 72 -30s30 -43.667 30 -71c0 -28.667 -10 -53 -30 -73s-44 -30 -72 -30zM634 1026c96 0 181 -23.168 255 -69.501s129.833 -106.666 167.5 -180.999
s56.5 -156.166 56.5 -245.499c0 -39.333 -3.83301 -67 -11.5 -83s-24.5 -24 -50.5 -24h-743c11.333 -88 49.833 -159 115.5 -213s148.167 -81 247.5 -81c98 0 186 31.667 264 95c17.333 13.333 32 14.333 44 3l53 -53c16 -16.667 16.333 -32.334 1 -47.001
c-104 -102.667 -231.333 -154 -382 -154c-154.667 0 -280.5 50.167 -377.5 150.5s-145.5 225.833 -145.5 376.5c0 97.333 21.167 186 63.5 266s102.333 143.333 180 190s165.167 70 262.5 70zM634 865.999c-86.667 0 -159.667 -27.833 -219 -83.5s-95 -128.5 -107 -218.5
h643c-6 88.667 -38.167 161.167 -96.5 217.5s-131.833 84.5 -220.5 84.5z" />
    <glyph glyph-name="Eogonek" unicode="&#x118;" 
d="M1080 174c8.66699 0 16 -2.66699 22 -8s9 -13 9 -23v-112c0 -12 -4 -20.667 -12 -26v-5c-66 -4.66699 -119.333 -25 -160 -61s-61 -75.333 -61 -118c0 -41.333 14.5 -71.333 43.5 -90s69.5 -22.334 121.5 -11.001v-126c-20.667 -9.33301 -44.667 -15.333 -72 -18
s-55.833 -0.833984 -85.5 5.49902s-57 16.833 -82 31.5s-45.5 36.834 -61.5 66.501s-24 64.167 -24 103.5c0 86 40.667 158.333 122 217h-635c-9.33301 0 -16.833 2.66699 -22.5 8s-8.5 13 -8.5 23v1372c0 9.33301 2.66699 16.833 8 22.5s13 8.5 23 8.5h873
c8.66699 0 16 -2.83301 22 -8.5s9 -13.167 9 -22.5v-113c0 -9.33301 -2.83301 -16.666 -8.5 -21.999s-13.167 -8 -22.5 -8h-712v-425h658c9.33301 0 16.833 -3 22.5 -9s8.5 -13.333 8.5 -22v-113c0 -8.66699 -2.83301 -16 -8.5 -22s-13.167 -9 -22.5 -9h-658v-486h714z" />
    <glyph glyph-name="eogonek" unicode="&#x119;" horiz-adv-x="1241" 
d="M634 1026c96 0 180.999 -23.168 254.999 -69.501s129.833 -106.666 167.5 -180.999s56.5 -156.166 56.5 -245.499c0 -39.333 -3.83301 -67 -11.5 -83s-24.5 -24 -50.5 -24h-743c11.333 -88 49.833 -159 115.5 -213s148.167 -81 247.5 -81c98 0 186 31.667 264 95
c17.333 13.333 32 14.333 44 3l53 -53c16 -16.667 16.333 -32.334 1 -47.001c-59.333 -59.333 -128 -101.666 -206 -126.999h-1c-1.33301 -0.666992 -3.66602 -1.5 -6.99902 -2.5s-6 -1.83301 -8 -2.5c-58.667 -18.667 -105.167 -44.667 -139.5 -78
s-51.5 -70.333 -51.5 -111c0 -39.333 14.5 -68 43.5 -86s69.5 -21.333 121.5 -10v-126c-20.667 -9.33301 -44.667 -15.333 -72 -18s-55.833 -0.833984 -85.5 5.49902s-57 16.833 -82 31.5s-45.5 36.667 -61.5 66s-24 64 -24 104c0 80 37 148.333 111 205
c-134 18 -241.333 75.5 -322 172.5s-121 213.5 -121 349.5c0 97.333 21.167 186 63.5 266s102.333 143.333 180 190s165.167 70 262.5 70zM633.999 865.999c-86.667 0 -159.667 -27.833 -219 -83.5s-95 -128.5 -107 -218.5h643c-6 88.667 -38.167 161.167 -96.5 217.5
s-131.833 84.5 -220.5 84.5z" />
    <glyph glyph-name="Ecaron" unicode="&#x11a;" horiz-adv-x="1249" 
d="M727 1586l-178 -0.000976562c-15.333 0 -27.666 5.66699 -36.999 17l-232 261c-8 9.33301 -10.333 17.833 -7 25.5s11.333 11.5 24 11.5h127c12.667 0 25 -5.66699 37 -17l177 -176l178 176c10.667 10.667 23 16.334 37 17.001h127c12.667 0 20.667 -3.83301 24 -11.5
s0.666016 -16.167 -8.00098 -25.5l-232 -261c-8 -11.333 -20.333 -17 -37 -17zM1080 173.999c8.66699 0 16 -2.66797 22 -8.00098s9 -13 9 -23v-112c0 -9.33301 -2.83301 -16.833 -8.5 -22.5s-13.167 -8.5 -22.5 -8.5h-875c-9.33301 0 -16.833 2.66699 -22.5 8
s-8.5 13 -8.5 23v1372c0 9.33301 2.66699 16.833 8 22.5s13 8.5 23 8.5h873c8.66699 0 16 -2.83301 22 -8.5s9 -13.167 9 -22.5v-113c0 -9.33301 -2.83301 -16.666 -8.5 -21.999s-13.167 -8 -22.5 -8h-712v-425h658c9.33301 0 16.833 -3 22.5 -9s8.5 -13.333 8.5 -22v-113
c0 -8.66699 -2.83301 -16 -8.5 -22s-13.167 -9 -22.5 -9h-658v-486h714z" />
    <glyph glyph-name="ecaron" unicode="&#x11b;" horiz-adv-x="1241" 
d="M495 1172l-232.999 262c-8 9.33301 -10.333 17.666 -7 24.999s11.666 11 24.999 11h127c12.667 0 24.667 -5.33301 36 -16l178 -176l178 176c10.667 10.667 23 16 37 16h127c12.667 0 20.5 -3.66699 23.5 -11s0.5 -15.666 -7.5 -24.999l-233 -262
c-8 -10.667 -20 -16 -36 -16h-179c-14.667 0 -26.667 5.33301 -36 16zM634.001 1026c96 0 181 -23.168 255 -69.501s129.833 -106.666 167.5 -180.999s56.5 -156.166 56.5 -245.499c0 -39.333 -3.83301 -67 -11.5 -83s-24.5 -24 -50.5 -24h-743
c11.333 -88 49.833 -159 115.5 -213s148.167 -81 247.5 -81c98 0 186 31.667 264 95c17.333 13.333 32 14.333 44 3l53 -53c16 -16.667 16.333 -32.334 1 -47.001c-104 -102.667 -231.333 -154 -382 -154c-154.667 0 -280.5 50.167 -377.5 150.5
s-145.5 225.833 -145.5 376.5c0 97.333 21.167 186 63.5 266s102.333 143.333 180 190s165.167 70 262.5 70zM634.001 865.999c-86.667 0 -159.667 -27.833 -219 -83.5s-95 -128.5 -107 -218.5h643c-6 88.667 -38.167 161.167 -96.5 217.5s-131.833 84.5 -220.5 84.5z" />
    <glyph glyph-name="Gbreve" unicode="&#x11e;" horiz-adv-x="1649" 
d="M819 1577c-86.667 0 -156.669 24.833 -210.002 74.5s-83.666 113.5 -90.999 191.5c-2 20.667 7.66699 31 29 31h69c18 0 29 -9.66699 33 -29c8 -38.667 27 -70.834 57 -96.501s67.667 -38.5 113 -38.5c46.667 0 84.834 12.833 114.501 38.5s48.5 57.834 56.5 96.501
c4 19.333 15 29 33 29h69c22 0 31.667 -10.333 29 -31c-8 -78 -38.667 -141.833 -92 -191.5s-123.333 -74.5 -210 -74.5zM1486 756c8.66699 0 15.999 -2.83398 21.999 -8.50098s9 -13.167 9 -22.5v-81c0 -126 -26 -239.5 -78 -340.5s-128.167 -181.333 -228.5 -241
s-216.833 -89.5 -349.5 -89.5c-135.333 0 -258.666 33 -369.999 99s-198.833 155.667 -262.5 269s-95.5 237.666 -95.5 372.999c0 101.333 18.833 197.333 56.5 288s88.5 168.667 152.5 234s141 117.333 231 156s185 58 285 58c184 0 347 -65.333 489 -196
c15.333 -14.667 15.666 -29 0.999023 -43l-82 -87c-12.667 -12.667 -27 -12.667 -43 0c-109.333 92.667 -231 139.334 -365 140.001c-96.667 0 -185.5 -24 -266.5 -72s-145 -114.167 -192 -198.5s-70.5 -177.5 -70.5 -279.5c0 -157.333 51 -288.833 153 -394.5
s228.333 -158.5 379 -158.5c136.667 0 248.334 39.5 335.001 118.5s132 180.833 136 305.5h-451c-9.33301 0 -16.833 2.83301 -22.5 8.5s-8.5 12.834 -8.5 21.501v110c0 9.33301 2.66699 16.833 8 22.5s13 8.5 23 8.5h605z" />
    <glyph glyph-name="gbreve" unicode="&#x11f;" horiz-adv-x="1303" 
d="M652 1147c-86.667 0 -156.669 24.833 -210.002 74.5s-83.666 113.5 -90.999 191.5c-2 20.667 7.66699 31 29 31h70c18 0 28.667 -9.66699 32 -29c8 -38.667 27 -70.834 57 -96.501s67.667 -38.5 113 -38.5c46.667 0 84.834 12.833 114.501 38.5s48.5 57.834 56.5 96.501
c4 19.333 15 29 33 29h69c22 0 31.667 -10.333 29 -31c-8 -78 -38.667 -141.833 -92 -191.5s-123.333 -74.5 -210 -74.5zM1109 1004c8.66699 0 16.001 -2.83203 22.001 -8.49902s9 -13.167 9 -22.5v-955c0 -60.667 -10 -115.334 -30 -164.001s-46.5 -88.834 -79.5 -120.501
s-72 -58.334 -117 -80.001s-91.333 -37 -139 -46s-96.834 -13.5 -147.501 -13.5c-156 0 -288 35 -396 105c-16.667 10 -20 24.333 -10 43l39 73c10 18 23.667 22 41 12c96.667 -48.667 200.667 -73 312 -73c45.333 0 88 4.83301 128 14.5s77 24.334 111 44.001
s61.167 47.334 81.5 83.001s30.5 77.167 30.5 124.5v149c-86 -116 -201.333 -174 -346 -174c-140.667 0 -257.5 50 -350.5 150s-139.5 221.667 -139.5 365s46.667 265 140 365s210 150 350 150s253.667 -56.333 341 -169l8 117c2 20.667 12 31 30 31h112zM635.999 166.001
c92 0 169.333 34.332 232 102.999s94 149.667 94 243c0 92.667 -31.167 172.834 -93.5 240.501s-139.833 101.5 -232.5 101.5c-93.333 0 -171.5 -33 -234.5 -99s-94.5 -147 -94.5 -243c0 -97.333 31.5 -179.333 94.5 -246s141.167 -100 234.5 -100z" />
    <glyph glyph-name="Gdotaccent" unicode="&#x120;" horiz-adv-x="1649" 
d="M819 1670c-28 0 -52 10.167 -72 30.5s-30 44.833 -30 73.5c0 27.333 10 50.833 30 70.5s44 29.5 72 29.5s52.167 -9.83301 72.5 -29.5s30.5 -43.167 30.5 -70.5c0 -28.667 -10.167 -53.167 -30.5 -73.5s-44.5 -30.5 -72.5 -30.5zM1486 756
c8.66699 0 15.999 -2.83398 21.999 -8.50098s9 -13.167 9 -22.5v-81c0 -126 -26 -239.5 -78 -340.5s-128.167 -181.333 -228.5 -241s-216.833 -89.5 -349.5 -89.5c-135.333 0 -258.666 33 -369.999 99s-198.833 155.667 -262.5 269s-95.5 237.666 -95.5 372.999
c0 101.333 18.833 197.333 56.5 288s88.5 168.667 152.5 234s141 117.333 231 156s185 58 285 58c184 0 347 -65.333 489 -196c15.333 -14.667 15.666 -29 0.999023 -43l-82 -87c-12.667 -12.667 -27 -12.667 -43 0c-109.333 92.667 -231 139.334 -365 140.001
c-96.667 0 -185.5 -24 -266.5 -72s-145 -114.167 -192 -198.5s-70.5 -177.5 -70.5 -279.5c0 -157.333 51 -288.833 153 -394.5s228.333 -158.5 379 -158.5c136.667 0 248.334 39.5 335.001 118.5s132 180.833 136 305.5h-451c-9.33301 0 -16.833 2.83301 -22.5 8.5
s-8.5 12.834 -8.5 21.501v110c0 9.33301 2.66699 16.833 8 22.5s13 8.5 23 8.5h605z" />
    <glyph glyph-name="gdotaccent" unicode="&#x121;" horiz-adv-x="1303" 
d="M652 1240c-28 0 -52 10 -72 30s-30 44.333 -30 73c0 27.333 10 51 30 71s44 30 72 30s52.167 -10 72.5 -30s30.5 -43.667 30.5 -71c0 -28.667 -10.167 -53 -30.5 -73s-44.5 -30 -72.5 -30zM1109 1004c8.66699 0 16.001 -2.83203 22.001 -8.49902s9 -13.167 9 -22.5v-955
c0 -60.667 -10 -115.334 -30 -164.001s-46.5 -88.834 -79.5 -120.501s-72 -58.334 -117 -80.001s-91.333 -37 -139 -46s-96.834 -13.5 -147.501 -13.5c-156 0 -288 35 -396 105c-16.667 10 -20 24.333 -10 43l39 73c10 18 23.667 22 41 12
c96.667 -48.667 200.667 -73 312 -73c45.333 0 88 4.83301 128 14.5s77 24.334 111 44.001s61.167 47.334 81.5 83.001s30.5 77.167 30.5 124.5v149c-86 -116 -201.333 -174 -346 -174c-140.667 0 -257.5 50 -350.5 150s-139.5 221.667 -139.5 365s46.667 265 140 365
s210 150 350 150s253.667 -56.333 341 -169l8 117c2 20.667 12 31 30 31h112zM636.001 166.001c92 0 169.333 34.332 232 102.999s94 149.667 94 243c0 92.667 -31.167 172.834 -93.5 240.501s-139.833 101.5 -232.5 101.5c-93.333 0 -171.5 -33 -234.5 -99
s-94.5 -147 -94.5 -243c0 -97.333 31.5 -179.333 94.5 -246s141.167 -100 234.5 -100z" />
    <glyph glyph-name="Gcommaaccent" unicode="&#x122;" horiz-adv-x="1649" 
d="M1486 756c8.66699 0 15.999 -2.83398 21.999 -8.50098s9 -13.167 9 -22.5v-81c0 -126 -26 -239.5 -78 -340.5s-128.167 -181.333 -228.5 -241s-216.833 -89.5 -349.5 -89.5c-135.333 0 -258.666 33 -369.999 99s-198.833 155.667 -262.5 269s-95.5 237.666 -95.5 372.999
c0 101.333 18.833 197.333 56.5 288s88.5 168.667 152.5 234s141 117.333 231 156s185 58 285 58c184 0 347 -65.333 489 -196c15.333 -14.667 15.666 -29 0.999023 -43l-82 -87c-12.667 -12.667 -27 -12.667 -43 0c-109.333 92.667 -231 139.334 -365 140.001
c-96.667 0 -185.5 -24 -266.5 -72s-145 -114.167 -192 -198.5s-70.5 -177.5 -70.5 -279.5c0 -157.333 51 -288.833 153 -394.5s228.333 -158.5 379 -158.5c136.667 0 248.334 39.5 335.001 118.5s132 180.833 136 305.5h-451c-9.33301 0 -16.833 2.83301 -22.5 8.5
s-8.5 12.834 -8.5 21.501v110c0 9.33301 2.66699 16.833 8 22.5s13 8.5 23 8.5h605zM1039 -171.001c8.66699 0 15.832 -2.49902 21.499 -7.49902s8.5 -12.167 8.5 -21.5v-47c0 -78.667 -6.83301 -158.667 -20.5 -240s-30.5 -148.333 -50.5 -201
c-5.33301 -14.667 -16.333 -22 -33 -22h-64c-20.667 0 -29 10.667 -25 32c8.66699 48 15.5 107.167 20.5 177.5s6.83301 130.166 5.5 179.499h-246c-19.333 0 -28.666 9.66699 -27.999 29v92c0 19.333 9.33301 29 28 29h383z" />
    <glyph glyph-name="gcommaaccent" unicode="&#x123;" horiz-adv-x="1303" 
d="M413 1227c-8.66699 0 -15.833 2.49902 -21.5 7.49902s-8.5 11.833 -8.5 20.5v48c0 78.667 6.83301 158.667 20.5 240s30.5 148.333 50.5 201c5.33301 14.667 16.333 21.667 33 21h64c20.667 0 29.334 -10.333 26.001 -31c-8.66699 -48 -15.667 -107.167 -21 -177.5
s-7.33301 -130.5 -6 -180.5h246c19.333 0 28.666 -9.33301 27.999 -28v-93c0 -19.333 -9.33301 -28.666 -28 -27.999h-383zM1109 1004c8.66699 0 16.001 -2.83203 22.001 -8.49902s9 -13.167 9 -22.5v-955c0 -60.667 -10 -115.334 -30 -164.001
s-46.5 -88.834 -79.5 -120.501s-72 -58.334 -117 -80.001s-91.333 -37 -139 -46s-96.834 -13.5 -147.501 -13.5c-156 0 -288 35 -396 105c-16.667 10 -20 24.333 -10 43l39 73c10 18 23.667 22 41 12c96.667 -48.667 200.667 -73 312 -73c45.333 0 88 4.83301 128 14.5
s77 24.334 111 44.001s61.167 47.334 81.5 83.001s30.5 77.167 30.5 124.5v149c-86 -116 -201.333 -174 -346 -174c-140.667 0 -257.5 50 -350.5 150s-139.5 221.667 -139.5 365s46.667 265 140 365s210 150 350 150s253.667 -56.333 341 -169l8 117c2 20.667 12 31 30 31
h112zM636.002 166c92 0 169.333 34.332 232 102.999s94 149.667 94 243c0 92.667 -31.167 172.834 -93.5 240.501s-139.833 101.5 -232.5 101.5c-93.333 0 -171.5 -33 -234.5 -99s-94.5 -147 -94.5 -243c0 -97.333 31.5 -179.333 94.5 -246s141.167 -100 234.5 -100z" />
    <glyph glyph-name="Hbar" unicode="&#x126;" horiz-adv-x="1457" 
d="M1252 1434c8.66699 0 16 -2.83301 22 -8.5s9 -13.167 9 -22.5v-1372c0 -9.33301 -2.83301 -16.833 -8.5 -22.5s-13.167 -8.5 -22.5 -8.5h-130c-9.33301 0 -16.666 2.66699 -21.999 8s-8 13 -8 23v613h-726v-613c0 -9.33301 -3 -16.833 -9 -22.5s-13.333 -8.5 -22 -8.5
h-130c-9.33301 0 -16.833 2.66699 -22.5 8s-8.5 13 -8.5 23v1372c0 9.33301 2.66699 16.833 8 22.5s13 8.5 23 8.5h130c8.66699 0 16 -2.83301 22 -8.5s9 -13.167 9 -22.5v-262h715v-163h-715v-160h726v585c0 9.33301 2.66699 16.833 8 22.5s12.666 8.5 21.999 8.5h130z" />
    <glyph glyph-name="hbar" unicode="&#x127;" horiz-adv-x="1247" 
d="M718 1026c113.333 0 202.498 -34.8301 267.498 -104.497s97.5 -169.834 97.5 -300.501v-590c0 -9.33301 -2.66699 -16.833 -8 -22.5s-12.666 -8.5 -21.999 -8.5h-123c-9.33301 0 -16.833 2.66699 -22.5 8s-8.5 13 -8.5 23v569c0 86 -20.833 150.333 -62.5 193
s-101.834 64 -180.501 64c-45.333 0 -87.166 -7.83301 -125.499 -23.5s-69.666 -35.334 -93.999 -59.001s-43.833 -46.334 -58.5 -68.001s-24.667 -41.5 -30 -59.5v-616c0 -9.33301 -2.66699 -16.833 -8 -22.5s-13 -8.5 -23 -8.5h-122c-9.33301 0 -16.833 2.66699 -22.5 8
s-8.5 13 -8.5 23v1121h-92c-9.33301 0 -16.833 2.83301 -22.5 8.5s-8.5 13.167 -8.5 22.5v87c0 9.33301 2.66699 16.666 8 21.999s13 8 23 8h92v103c0 9.33301 2.66699 16.833 8 22.5s13 8.5 23 8.5h122c9.33301 0 16.833 -2.83301 22.5 -8.5s8.5 -13.167 8.5 -22.5v-103
h246c9.33301 0 16.833 -2.66699 22.5 -8s8.5 -12.666 8.5 -21.999v-87c0 -8.66699 -2.83301 -16 -8.5 -22s-13.167 -9 -22.5 -9h-246v-317h18c33.333 54.667 80 100.167 140 136.5s130.667 54.5 212 54.5z" />
    <glyph glyph-name="Imacron" unicode="&#x12a;" horiz-adv-x="1315" 
d="M920 1860c9.33301 0 16.666 -2.83301 21.999 -8.5s8 -13.167 8 -22.5v-87c0 -8.66699 -2.66699 -16 -8 -22s-12.666 -9 -21.999 -9h-523c-9.33301 0 -16.666 3 -21.999 9s-8 13.333 -8 22v87c0 9.33301 2.66699 16.833 8 22.5s12.666 8.5 21.999 8.5h523zM1137 1260h-383
v-1086h383c9.33301 0 16.666 -2.66699 21.999 -8s8 -13 8 -23v-112c0 -9.33301 -2.66699 -16.833 -8 -22.5s-12.666 -8.5 -21.999 -8.5h-958c-8.66699 0 -16 2.66699 -22 8s-9 13 -9 23v112c0 9.33301 3 16.833 9 22.5s13.333 8.5 22 8.5h383v1086h-383
c-8.66699 0 -16 2.66699 -22 8s-9 12.666 -9 21.999v113c0 9.33301 3 16.833 9 22.5s13.333 8.5 22 8.5h958c9.33301 0 16.666 -2.83301 21.999 -8.5s8 -13.167 8 -22.5v-113c0 -9.33301 -2.66699 -16.666 -8 -21.999s-12.666 -8 -21.999 -8z" />
    <glyph glyph-name="imacron" unicode="&#x12b;" horiz-adv-x="1182" 
d="M331 1281c-8.66699 0 -16 2.83301 -22 8.5s-9 13.167 -9 22.5v87c0 9.33301 2.83301 16.833 8.5 22.5s13.167 8.5 22.5 8.5h522c8.66699 0 16 -2.83301 22 -8.5s9 -13.167 9 -22.5v-87c0 -8.66699 -3 -16 -9 -22s-13.333 -9 -22 -9h-522zM1034 160
c9.33301 0 16.833 -2.83301 22.5 -8.5s8.5 -13.167 8.5 -22.5v-98c0 -9.33301 -2.66699 -16.833 -8 -22.5s-13 -8.5 -23 -8.5h-875c-8.66699 0 -16 2.66699 -22 8s-9 13 -9 23v98c0 9.33301 2.83301 16.833 8.5 22.5s13.167 8.5 22.5 8.5h372v685h-321
c-8.66699 0 -16 2.83301 -22 8.5s-9 13.167 -9 22.5v97c0 9.33301 3 16.833 9 22.5s13.333 8.5 22 8.5h475c8.66699 0 16 -2.83301 22 -8.5s9 -13.167 9 -22.5v-813h318z" />
    <glyph glyph-name="iogonek" unicode="&#x12f;" 
d="M592 1240c-28 0 -52.167 10 -72.5 30s-30.5 44.333 -30.5 73c0 27.333 10.167 51 30.5 71s44.5 30 72.5 30s52 -10 72 -30s30 -43.667 30 -71c0 -28.667 -10 -53 -30 -73s-44 -30 -72 -30zM1034 160c9.33301 0 16.8359 -2.83203 22.5029 -8.49902s8.5 -13.167 8.5 -22.5
v-98c0 -9.33301 -2.66699 -16.833 -8 -22.5s-13 -8.5 -23 -8.5h-210c-66 -4.66699 -119.333 -25 -160 -61s-61 -75.333 -61 -118c0 -41.333 14.5 -71.333 43.5 -90s69.833 -22.334 122.5 -11.001v-126c-20.667 -9.33301 -44.834 -15.333 -72.501 -18
s-56.334 -0.833984 -86.001 5.49902s-56.834 16.833 -81.501 31.5s-45.167 36.834 -61.5 66.501s-24.5 64.167 -24.5 103.5c0 86 40.667 158.333 122 217h-406c-8.66699 0 -16 2.66699 -22 8s-9 13 -9 23v98c0 9.33301 2.83301 16.833 8.5 22.5s13.167 8.5 22.5 8.5h372v685
h-321c-8.66699 0 -16 2.83301 -22 8.5s-9 13.167 -9 22.5v97c0 9.33301 3 16.833 9 22.5s13.333 8.5 22 8.5h475c8.66699 0 16 -2.83301 22 -8.5s9 -13.167 9 -22.5v-813h318z" />
    <glyph glyph-name="Idotaccent" unicode="&#x130;" horiz-adv-x="1315" 
d="M658 1670c-28 0 -52 10.167 -72 30.5s-30 44.833 -30 73.5c0 27.333 10 50.833 30 70.5s44 29.5 72 29.5s52.167 -9.83301 72.5 -29.5s30.5 -43.167 30.5 -70.5c0 -28.667 -10.167 -53.167 -30.5 -73.5s-44.5 -30.5 -72.5 -30.5zM1137 1260h-383v-1086h383
c9.33301 0 16.666 -2.66699 21.999 -8s8 -13 8 -23v-112c0 -9.33301 -2.66699 -16.833 -8 -22.5s-12.666 -8.5 -21.999 -8.5h-958c-8.66699 0 -16 2.66699 -22 8s-9 13 -9 23v112c0 9.33301 3 16.833 9 22.5s13.333 8.5 22 8.5h383v1086h-383c-8.66699 0 -16 2.66699 -22 8
s-9 12.666 -9 21.999v113c0 9.33301 3 16.833 9 22.5s13.333 8.5 22 8.5h958c9.33301 0 16.666 -2.83301 21.999 -8.5s8 -13.167 8 -22.5v-113c0 -9.33301 -2.66699 -16.666 -8 -21.999s-12.666 -8 -21.999 -8z" />
    <glyph glyph-name="dotlessi" unicode="&#x131;" horiz-adv-x="1182" 
d="M1034 160c9.33301 0 16.833 -2.83301 22.5 -8.5s8.5 -13.167 8.5 -22.5v-98c0 -9.33301 -2.66699 -16.833 -8 -22.5s-13 -8.5 -23 -8.5h-875c-8.66699 0 -16 2.66699 -22 8s-9 13 -9 23v98c0 9.33301 2.83301 16.833 8.5 22.5s13.167 8.5 22.5 8.5h372v685h-321
c-8.66699 0 -16 2.83301 -22 8.5s-9 13.167 -9 22.5v97c0 9.33301 3 16.833 9 22.5s13.333 8.5 22 8.5h475c8.66699 0 16 -2.83301 22 -8.5s9 -13.167 9 -22.5v-813h318z" />
    <glyph glyph-name="IJ" unicode="&#x132;" 
d="M282 1434c8.66699 0 15.834 -2.83301 21.501 -8.5s8.5 -13.167 8.5 -22.5v-1372c0 -9.33301 -2.83301 -16.833 -8.5 -22.5s-12.834 -8.5 -21.501 -8.5h-130c-9.33301 0 -16.833 2.66699 -22.5 8s-8.5 13 -8.5 23v1372c0 9.33301 2.66699 16.833 8 22.5s13 8.5 23 8.5h130
zM1160 1434c8.66699 0 15.999 -2.83301 21.999 -8.5s9 -13.167 9 -22.5v-887c0 -90 -13.167 -170 -39.5 -240s-62.333 -126 -108 -168s-97.167 -73.5 -154.5 -94.5s-119.333 -31.5 -186 -31.5c-93.333 0 -171.333 16.667 -234 50c-17.333 9.33301 -21.333 23.333 -12 42
l47 96c8.66699 17.333 21.667 22.666 39 15.999c44 -18 91.667 -26.667 143 -26c41.333 0 80.333 7 117 21s69.834 34.833 99.501 62.5s53.167 64.834 70.5 111.501s26 100.334 26 161.001v744h-485c-9.33301 0 -16.833 2.66699 -22.5 8s-8.5 12.666 -8.5 21.999v113
c0 9.33301 2.83301 16.833 8.5 22.5s13.167 8.5 22.5 8.5h646z" />
    <glyph glyph-name="ij" unicode="&#x133;" horiz-adv-x="1351" 
d="M275.5 1231c-31.667 0 -58.167 10.667 -79.5 32s-32 47.833 -32 79.5s10.667 58.167 32 79.5s47.833 32 79.5 32s58.167 -10.667 79.5 -32s32 -47.833 32 -79.5s-10.667 -58.167 -32 -79.5s-47.833 -32 -79.5 -32zM1062 1231c-31.333 0 -57.833 10.667 -79.5 32
s-32.5 47.833 -32.5 79.5s10.833 58.167 32.5 79.5s48.167 32 79.5 32s57.833 -10.667 79.5 -32s32.5 -47.833 32.5 -79.5s-10.833 -58.167 -32.5 -79.5s-48.167 -32 -79.5 -32zM341 1004c8.66699 0 16 -2.83301 22 -8.5s9 -13.167 9 -22.5v-942
c0 -9.33301 -3 -16.833 -9 -22.5s-13.333 -8.5 -22 -8.5h-123c-8.66699 0 -16 2.66699 -22 8s-9 13 -9 23v942c0 9.33301 3 16.833 9 22.5s13.333 8.5 22 8.5h123zM1147 1004c9.33301 0 16.833 -2.83301 22.5 -8.5s8.5 -13.167 8.5 -22.5v-942
c0 -66 -8.5 -124.333 -25.5 -175s-38.833 -91.5 -65.5 -122.5s-59.334 -56.333 -98.001 -76s-77.5 -33 -116.5 -40s-81.5 -10.5 -127.5 -10.5c-41.333 0 -81.833 4.33301 -121.5 13s-73.5 19.667 -101.5 33s-52.167 27.5 -72.5 42.5s-34.833 29 -43.5 42
s-10.667 23.5 -6 31.5l52 80c4.66699 7.33301 11.834 11.5 21.501 12.5s19.5 -1.83301 29.5 -8.5c70 -56 147 -84 231 -84c35.333 0 66.833 3.5 94.5 10.5s54.667 19.5 81 37.5s46.833 45.833 61.5 83.5s22 84.167 22 139.5v805h-476c-8.66699 0 -16 2.83301 -22 8.5
s-9 13.167 -9 22.5v97c0 9.33301 3 16.833 9 22.5s13.333 8.5 22 8.5h630z" />
    <glyph glyph-name="Kcommaaccent" unicode="&#x136;" horiz-adv-x="1263" 
d="M1185 37c7.33301 -10 9.16895 -18.668 5.50195 -26.001s-11.834 -11 -24.501 -11h-156c-16 0 -28.333 6 -37 18l-474 646l-159 -179v-454c0 -9.33301 -2.66699 -16.833 -8 -22.5s-13 -8.5 -23 -8.5h-130c-8.66699 0 -16 2.66699 -22 8s-9 13 -9 23v1372
c0 9.33301 3 16.833 9 22.5s13.333 8.5 22 8.5h130c9.33301 0 16.833 -2.83301 22.5 -8.5s8.5 -13.167 8.5 -22.5v-663l596 677c8.66699 10.667 21 16.334 37 17.001h164c13.333 0 21.666 -3.83301 24.999 -11.5s0.333008 -16.167 -9 -25.5l-530 -595zM879.003 -171.001
c8.66699 0 15.666 -2.49902 20.999 -7.49902s8 -12.167 8 -21.5v-47c0 -78.667 -6.83301 -158.667 -20.5 -240s-30.167 -148.333 -49.5 -201c-5.33301 -14.667 -16.666 -22 -33.999 -22h-64c-20.667 0 -29 10.667 -25 32c8.66699 48 15.5 107.167 20.5 177.5
s6.83301 130.166 5.5 179.499h-245c-19.333 0 -29 9.66699 -29 29v92c0 19.333 9.66699 29 29 29h383z" />
    <glyph glyph-name="kcommaaccent" unicode="&#x137;" horiz-adv-x="1182" 
d="M1098 37c8 -10 9.99902 -18.668 5.99902 -26.001s-12.333 -11 -25 -11h-146c-15.333 0 -27.666 6 -36.999 18l-354 425l-194 -202v-210c0 -9.33301 -2.66699 -16.833 -8 -22.5s-13 -8.5 -23 -8.5h-122c-9.33301 0 -16.833 2.66699 -22.5 8s-8.5 13 -8.5 23v1433
c0 9.33301 2.66699 16.833 8 22.5s13 8.5 23 8.5h122c9.33301 0 16.833 -2.66699 22.5 -8s8.5 -13 8.5 -23v-991l481 514c10.667 10.667 23.667 16.334 39 17.001h156c13.333 0 21.833 -3.66699 25.5 -11s0.5 -16 -9.5 -26l-382 -401zM811.999 -171.001
c8.66699 0 15.833 -2.49902 21.5 -7.49902s8.5 -12.167 8.5 -21.5v-47c0 -78.667 -6.83301 -158.667 -20.5 -240s-30.5 -148.333 -50.5 -201c-5.33301 -14.667 -16.666 -22 -33.999 -22h-63c-20.667 0 -29.334 10.667 -26.001 32c8.66699 48 15.667 107.167 21 177.5
s7.33301 130.166 6 179.499h-246c-19.333 0 -29 9.66699 -29 29v92c0 19.333 9.66699 29 29 29h383z" />
    <glyph glyph-name="Lacute" unicode="&#x139;" horiz-adv-x="1203" 
d="M246 1520c-11.333 0 -19.5 3 -24.5 9s-5.16699 14.333 -0.5 25l123 258c7.33301 16.667 19 25 35 25h98c11.333 0 19.5 -3 24.5 -9s5.16699 -14.667 0.5 -26l-123 -258c-7.33301 -16.667 -19 -24.667 -35 -24h-98zM1070 174c8.66699 0 16 -2.66699 22 -8s9 -13 9 -23
v-112c0 -9.33301 -3 -16.833 -9 -22.5s-13.333 -8.5 -22 -8.5h-865c-9.33301 0 -16.833 2.66699 -22.5 8s-8.5 13 -8.5 23v1372c0 9.33301 2.66699 16.833 8 22.5s13 8.5 23 8.5h130c8.66699 0 16 -2.83301 22 -8.5s9 -13.167 9 -22.5v-1229h704z" />
    <glyph glyph-name="lacute" unicode="&#x13a;" horiz-adv-x="1187" 
d="M558 1551c-11.333 0 -19.5 3.16699 -24.5 9.5s-4.83301 14.833 0.5 25.5l122 258c7.33301 16.667 19 25 35 25h99c11.333 0 19.333 -3.16699 24 -9.5s4.66699 -14.833 0 -25.5l-123 -258c-7.33301 -16.667 -19 -25 -35 -25h-98zM1044 160
c9.33301 0 16.833 -2.83301 22.5 -8.5s8.5 -13.167 8.5 -22.5v-98c0 -9.33301 -2.66699 -16.833 -8 -22.5s-13 -8.5 -23 -8.5h-885c-8.66699 0 -16 2.66699 -22 8s-9 13 -9 23v98c0 9.33301 2.83301 16.833 8.5 22.5s13.167 8.5 22.5 8.5h372v1115h-350
c-8.66699 0 -15.834 2.83301 -21.501 8.5s-8.5 13.167 -8.5 22.5v97c0 9.33301 2.83301 16.833 8.5 22.5s12.834 8.5 21.501 8.5h504c8.66699 0 16 -2.83301 22 -8.5s9 -13.167 9 -22.5v-1243h328z" />
    <glyph glyph-name="Lcommaaccent" unicode="&#x13b;" horiz-adv-x="1203" 
d="M1070 174c8.66699 0 16 -2.66699 22 -8s9 -13 9 -23v-112c0 -9.33301 -3 -16.833 -9 -22.5s-13.333 -8.5 -22 -8.5h-865c-9.33301 0 -16.833 2.66699 -22.5 8s-8.5 13 -8.5 23v1372c0 9.33301 2.66699 16.833 8 22.5s13 8.5 23 8.5h130c8.66699 0 16 -2.83301 22 -8.5
s9 -13.167 9 -22.5v-1229h704zM848 -171c8.66699 0 15.833 -2.49902 21.5 -7.49902s8.5 -12.167 8.5 -21.5v-47c0 -78.667 -6.83301 -158.667 -20.5 -240s-30.5 -148.333 -50.5 -201c-5.33301 -14.667 -16.666 -22 -33.999 -22h-63c-20.667 0 -29.334 10.667 -26.001 32
c8.66699 48 15.667 107.167 21 177.5s7.33301 130.166 6 179.499h-246c-19.333 0 -29 9.66699 -29 29v92c0 19.333 9.66699 29 29 29h383z" />
    <glyph glyph-name="lcommaaccent" unicode="&#x13c;" horiz-adv-x="1187" 
d="M1044 160c9.33301 0 16.833 -2.83301 22.5 -8.5s8.5 -13.167 8.5 -22.5v-98c0 -9.33301 -2.66699 -16.833 -8 -22.5s-13 -8.5 -23 -8.5h-885c-8.66699 0 -16 2.66699 -22 8s-9 13 -9 23v98c0 9.33301 2.83301 16.833 8.5 22.5s13.167 8.5 22.5 8.5h372v1115h-350
c-8.66699 0 -15.834 2.83301 -21.501 8.5s-8.5 13.167 -8.5 22.5v97c0 9.33301 2.83301 16.833 8.5 22.5s12.834 8.5 21.501 8.5h504c8.66699 0 16 -2.83301 22 -8.5s9 -13.167 9 -22.5v-1243h328zM822 -171c8.66699 0 15.833 -2.49902 21.5 -7.49902s8.5 -12.167 8.5 -21.5
v-47c0 -78.667 -6.83301 -158.667 -20.5 -240s-30.5 -148.333 -50.5 -201c-5.33301 -14.667 -16.333 -22 -33 -22h-64c-20.667 0 -29.334 10.667 -26.001 32c8.66699 48 15.667 107.167 21 177.5s7.33301 130.166 6 179.499h-246c-19.333 0 -28.666 9.66699 -27.999 29v92
c0 19.333 9.33301 29 28 29h383z" />
    <glyph glyph-name="Lcaron" unicode="&#x13d;" horiz-adv-x="1204" 
d="M1070 174c8.66699 0 16 -2.66699 22 -8s9 -13 9 -23v-112c0 -9.33301 -3 -16.833 -9 -22.5s-13.333 -8.5 -22 -8.5h-865c-9.33301 0 -16.833 2.66699 -22.5 8s-8.5 13 -8.5 23v1372c0 9.33301 2.66699 16.833 8 22.5s13 8.5 23 8.5h130c8.66699 0 16 -2.83301 22 -8.5
s9 -13.167 9 -22.5v-1229h704zM527 1275c-8.66699 0 -15.834 2.83105 -21.501 8.49805s-8.5 13.167 -8.5 22.5v97c0 9.33301 2.83301 16.833 8.5 22.5s12.834 8.5 21.501 8.5h408c8.66699 0 16 -2.83301 22 -8.5s9 -13.167 9 -22.5v-50
c0 -83.333 -7.16699 -168.166 -21.5 -254.499s-32.166 -157.5 -53.499 -213.5c-6 -16 -18 -24 -36 -24h-68c-22 0 -30.667 11.333 -26 34c9.33301 50.667 16.666 113.334 21.999 188.001s7 138.667 5 192h-261z" />
    <glyph glyph-name="lcaron" unicode="&#x13e;" horiz-adv-x="1285" 
d="M1044 160c9.33301 0 16.833 -2.83301 22.5 -8.5s8.5 -13.167 8.5 -22.5v-98c0 -9.33301 -2.66699 -16.833 -8 -22.5s-13 -8.5 -23 -8.5h-885c-8.66699 0 -16 2.66699 -22 8s-9 13 -9 23v98c0 9.33301 2.83301 16.833 8.5 22.5s13.167 8.5 22.5 8.5h372v1115h-350
c-8.66699 0 -15.834 2.83301 -21.501 8.5s-8.5 13.167 -8.5 22.5v97c0 9.33301 2.83301 16.833 8.5 22.5s12.834 8.5 21.501 8.5h504c8.66699 0 16 -2.83301 22 -8.5s9 -13.167 9 -22.5v-1243h328zM1240 1434c8.66699 0 16 -2.83496 22 -8.50195s9 -13.167 9 -22.5v-50
c0 -83.333 -7.16699 -168.166 -21.5 -254.499s-32.166 -157.5 -53.499 -213.5c-6 -16 -18 -24 -36 -24h-67c-22 0 -31 11.333 -27 34c9.33301 50.667 16.666 113.334 21.999 188.001s7.33301 138.667 6 192h-261c-8.66699 0 -16 2.83301 -22 8.5s-9 13.167 -9 22.5v97
c0 9.33301 2.83301 16.833 8.5 22.5s13.167 8.5 22.5 8.5h407z" />
    <glyph glyph-name="Ldot" unicode="&#x13f;" horiz-adv-x="1203" 
d="M1070 174c8.66699 0 16 -2.66699 22 -8s9 -13 9 -23v-112c0 -9.33301 -3 -16.833 -9 -22.5s-13.333 -8.5 -22 -8.5h-865c-9.33301 0 -16.833 2.66699 -22.5 8s-8.5 13 -8.5 23v1372c0 9.33301 2.66699 16.833 8 22.5s13 8.5 23 8.5h130c8.66699 0 16 -2.83301 22 -8.5
s9 -13.167 9 -22.5v-1229h704zM746.5 646c-40.333 0 -74.5 14 -102.5 42s-42 62.167 -42 102.5s14 74.833 42 103.5s62.167 43 102.5 43s74.5 -14.333 102.5 -43s42 -63.167 42 -103.5s-14 -74.5 -42 -102.5s-62.167 -42 -102.5 -42z" />
    <glyph glyph-name="ldot" unicode="&#x140;" horiz-adv-x="1238" 
d="M1044 160c9.33301 0 16.833 -2.83301 22.5 -8.5s8.5 -13.167 8.5 -22.5v-98c0 -9.33301 -2.66699 -16.833 -8 -22.5s-13 -8.5 -23 -8.5h-885c-8.66699 0 -16 2.66699 -22 8s-9 13 -9 23v98c0 9.33301 2.83301 16.833 8.5 22.5s13.167 8.5 22.5 8.5h372v1115h-350
c-8.66699 0 -15.834 2.83301 -21.501 8.5s-8.5 13.167 -8.5 22.5v97c0 9.33301 2.83301 16.833 8.5 22.5s12.834 8.5 21.501 8.5h504c8.66699 0 16 -2.83301 22 -8.5s9 -13.167 9 -22.5v-1243h328zM975.5 933c40.333 0 74.5 -14.333 102.5 -43s42 -63.167 42 -103.5
s-14 -74.5 -42 -102.5s-62.167 -42 -102.5 -42s-74.5 14 -102.5 42s-42 62.167 -42 102.5s14 74.833 42 103.5s62.167 43 102.5 43z" />
    <glyph glyph-name="Lslash" unicode="&#x141;" 
d="M1058 174c8.66699 0 16 -2.66699 22 -8s9 -13 9 -23v-112c0 -9.33301 -3 -16.833 -9 -22.5s-13.333 -8.5 -22 -8.5h-784c-9.33301 0 -16.666 2.66699 -21.999 8s-8 13 -8 23v466l-110 -107c-10 -10 -18.667 -13.167 -26 -9.5s-11 12.5 -11 26.5v120
c0 15.333 5.66699 28.333 17 39l130 126v711c0 9.33301 2.66699 16.833 8 22.5s12.666 8.5 21.999 8.5h130c8.66699 0 16 -2.83301 22 -8.5s9 -13.167 9 -22.5v-524l186 180c10 9.33301 18.5 12.333 25.5 9s10.5 -12 10.5 -26v-118c0 -15.333 -5.33301 -28.333 -16 -39
l-206 -201v-510h623z" />
    <glyph glyph-name="lslash" unicode="&#x142;" 
d="M1065 160c9.33301 0 16.832 -2.83301 22.499 -8.5s8.5 -13.167 8.5 -22.5v-98c0 -9.33301 -2.83301 -16.833 -8.5 -22.5s-13.167 -8.5 -22.5 -8.5h-886c-8.66699 0 -16 2.66699 -22 8s-9 13 -9 23v98c0 9.33301 3 16.833 9 22.5s13.333 8.5 22 8.5h373v393l-168 -164v176
l168 164v546h-350c-8.66699 0 -16 2.83301 -22 8.5s-9 13.167 -9 22.5v97c0 9.33301 2.83301 16.833 8.5 22.5s13.167 8.5 22.5 8.5h504c8.66699 0 15.834 -2.83301 21.501 -8.5s8.5 -13.167 8.5 -22.5v-494l197 192l1 -174l-198 -194v-573h329z" />
    <glyph glyph-name="Nacute" unicode="&#x143;" horiz-adv-x="1429" 
d="M671 1546c-11.333 0 -19.5 3.16699 -24.5 9.5s-5.16699 14.833 -0.5 25.5l123 258c7.33301 16.667 19 25 35 25h98c11.333 0 19.5 -3.16699 24.5 -9.5s5.16699 -14.833 0.5 -25.5l-123 -258c-7.33301 -16.667 -19 -25 -35 -25h-98zM1225 1434
c9.33301 0 16.666 -2.83301 21.999 -8.5s8 -13.167 8 -22.5v-1372c0 -18.667 -8.33301 -29 -25 -31h-168c-17.333 0 -29.666 6.66699 -36.999 20l-659 1131v-1120c0 -9.33301 -3 -16.833 -9 -22.5s-13.333 -8.5 -22 -8.5h-130c-9.33301 0 -16.833 2.66699 -22.5 8
s-8.5 13 -8.5 23v1372c0 18.667 9 29 27 31h167c17.333 0 29.333 -7 36 -21l660 -1129v1119c0 9.33301 2.83301 16.833 8.5 22.5s13.167 8.5 22.5 8.5h130z" />
    <glyph glyph-name="nacute" unicode="&#x144;" horiz-adv-x="1250" 
d="M582 1116c-11.333 0 -19.5 3.16699 -24.5 9.5s-5.16699 14.833 -0.5 25.5l123 258c7.33301 16.667 19 25 35 25h98c11.333 0 19.5 -3.16699 24.5 -9.5s5.16699 -14.833 0.5 -25.5l-123 -258c-7.33301 -16.667 -19 -25 -35 -25h-98zM721 1026
c113.333 0 202.502 -34.833 267.502 -104.5s97.5 -169.834 97.5 -300.501v-590c0 -9.33301 -2.83301 -16.833 -8.5 -22.5s-12.834 -8.5 -21.501 -8.5h-123c-8.66699 0 -16 2.66699 -22 8s-9 13 -9 23v569c0 86 -20.833 150.333 -62.5 193s-101.834 64 -180.501 64
c-49.333 0 -95 -9.5 -137 -28.5s-75 -41.667 -99 -68s-42.5 -51.166 -55.5 -74.499s-19.5 -41 -19.5 -53v-602c0 -9.33301 -2.66699 -16.833 -8 -22.5s-13 -8.5 -23 -8.5h-122c-9.33301 0 -16.833 2.66699 -22.5 8s-8.5 13 -8.5 23v942c0 9.33301 2.66699 16.833 8 22.5
s13 8.5 23 8.5h114c18.667 0 29 -10.333 31 -31l8 -138h21c33.333 54.667 80 100.167 140 136.5s130.667 54.5 212 54.5z" />
    <glyph glyph-name="Ncommaaccent" unicode="&#x145;" horiz-adv-x="1429" 
d="M1225 1434c9.33301 0 16.666 -2.83301 21.999 -8.5s8 -13.167 8 -22.5v-1372c0 -18.667 -8.33301 -29 -25 -31h-168c-17.333 0 -29.666 6.66699 -36.999 20l-659 1131v-1120c0 -9.33301 -3 -16.833 -9 -22.5s-13.333 -8.5 -22 -8.5h-130
c-9.33301 0 -16.833 2.66699 -22.5 8s-8.5 13 -8.5 23v1372c0 18.667 9 29 27 31h167c17.333 0 29.333 -7 36 -21l660 -1129v1119c0 9.33301 2.83301 16.833 8.5 22.5s13.167 8.5 22.5 8.5h130zM935 -171c8.66699 0 15.833 -2.49902 21.5 -7.49902s8.5 -12.167 8.5 -21.5
v-47c0 -78.667 -6.83301 -158.667 -20.5 -240s-30.5 -148.333 -50.5 -201c-5.33301 -14.667 -16.666 -22 -33.999 -22h-63c-20.667 0 -29.334 10.667 -26.001 32c8.66699 48 15.667 107.167 21 177.5s7.33301 130.166 6 179.499h-246c-19.333 0 -29 9.66699 -29 29v92
c0 19.333 9.66699 29 29 29h383z" />
    <glyph glyph-name="ncommaaccent" unicode="&#x146;" horiz-adv-x="1250" 
d="M721 1026c113.333 0 202.502 -34.833 267.502 -104.5s97.5 -169.834 97.5 -300.501v-590c0 -9.33301 -2.83301 -16.833 -8.5 -22.5s-12.834 -8.5 -21.501 -8.5h-123c-8.66699 0 -16 2.66699 -22 8s-9 13 -9 23v569c0 86 -20.833 150.333 -62.5 193
s-101.834 64 -180.501 64c-49.333 0 -95 -9.5 -137 -28.5s-75 -41.667 -99 -68s-42.5 -51.166 -55.5 -74.499s-19.5 -41 -19.5 -53v-602c0 -9.33301 -2.66699 -16.833 -8 -22.5s-13 -8.5 -23 -8.5h-122c-9.33301 0 -16.833 2.66699 -22.5 8s-8.5 13 -8.5 23v942
c0 9.33301 2.66699 16.833 8 22.5s13 8.5 23 8.5h114c18.667 0 29 -10.333 31 -31l8 -138h21c33.333 54.667 80 100.167 140 136.5s130.667 54.5 212 54.5zM846.002 -171c8.66699 0 15.833 -2.49902 21.5 -7.49902s8.5 -12.167 8.5 -21.5v-47
c0 -78.667 -6.83301 -158.667 -20.5 -240s-30.5 -148.333 -50.5 -201c-5.33301 -14.667 -16.666 -22 -33.999 -22h-63c-20.667 0 -29.334 10.667 -26.001 32c8.66699 48 15.667 107.167 21 177.5s7.33301 130.166 6 179.499h-246c-19.333 0 -29 9.66699 -29 29v92
c0 19.333 9.66699 29 29 29h383z" />
    <glyph glyph-name="Ncaron" unicode="&#x147;" horiz-adv-x="1429" 
d="M589 1603l-233 260.999c-8 9.33301 -10.333 17.833 -7 25.5s11.666 11.5 24.999 11.5h127c12.667 0 25 -5.66699 37 -17l177 -176l178 176c10.667 10.667 23 16.334 37 17.001h127c12.667 0 20.5 -3.83301 23.5 -11.5s0.5 -16.167 -7.5 -25.5l-232 -261
c-8 -10.667 -20.333 -16.334 -37 -17.001h-178c-15.333 0.666992 -27.666 6.33398 -36.999 17.001zM1225 1434c9.33301 0 16.666 -2.83301 21.999 -8.5s8 -13.167 8 -22.5v-1372c0 -18.667 -8.33301 -29 -25 -31h-168c-17.333 0 -29.666 6.66699 -36.999 20l-659 1131v-1120
c0 -9.33301 -3 -16.833 -9 -22.5s-13.333 -8.5 -22 -8.5h-130c-9.33301 0 -16.833 2.66699 -22.5 8s-8.5 13 -8.5 23v1372c0 18.667 9 29 27 31h167c17.333 0 29.333 -7 36 -21l660 -1129v1119c0 9.33301 2.83301 16.833 8.5 22.5s13.167 8.5 22.5 8.5h130z" />
    </font>
</defs>
</svg>
